<svg id="comments-icon" xmlns="http://www.w3.org/2000/svg" width="23.022" height="21.487" viewBox="0 0 23.022 21.487">
  <g id="_x31_4_comment" transform="translate(0 0)">
    <path id="Path_41439" data-name="Path 41439" d="M21.72,2H3.3A2.305,2.305,0,0,0,1,4.3V16.581a2.305,2.305,0,0,0,2.3,2.3H5.6V22.72a.768.768,0,0,0,1.247.6L12.4,18.883H21.72a2.305,2.305,0,0,0,2.3-2.3V4.3A2.305,2.305,0,0,0,21.72,2ZM12.511,12.744H6.372a.767.767,0,1,1,0-1.535h6.139a.767.767,0,1,1,0,1.535Zm6.139-3.07H6.372a.767.767,0,1,1,0-1.535H18.65a.767.767,0,1,1,0,1.535Z" transform="translate(-1 -2)" fill="#060d43"/>
  </g>
</svg>
