<svg id="_034-error" data-name="034-error" xmlns="http://www.w3.org/2000/svg" width="39.445" height="39.445" viewBox="0 0 39.445 39.445">
  <g id="Group_16881" data-name="Group 16881">
    <g id="Group_16880" data-name="Group 16880">
      <path id="Path_32904" data-name="Path 32904" d="M19.723,0A19.723,19.723,0,1,0,39.445,19.723,19.712,19.712,0,0,0,19.723,0Zm0,36.364A16.641,16.641,0,1,1,36.364,19.723,16.632,16.632,0,0,1,19.723,36.364Z" fill="#fff"/>
    </g>
  </g>
  <g id="Group_16883" data-name="Group 16883" transform="translate(10.697 10.697)">
    <g id="Group_16882" data-name="Group 16882">
      <path id="Path_32905" data-name="Path 32905" d="M180.041,177.31l-5.728-5.728,5.728-5.728a1.932,1.932,0,1,0-2.732-2.732l-5.728,5.728-5.728-5.728a1.932,1.932,0,1,0-2.732,2.732l5.728,5.728-5.728,5.728a1.932,1.932,0,1,0,2.732,2.732l5.728-5.728,5.728,5.728a1.932,1.932,0,1,0,2.732-2.732Z" transform="translate(-162.555 -162.556)" fill="#fff"/>
    </g>
  </g>
</svg>
