<svg xmlns="http://www.w3.org/2000/svg" width="21.487" height="21.487" viewBox="0 0 21.487 21.487">
  <g id="date-icon" transform="translate(0)">
    <g id="Group_21964" data-name="Group 21964" transform="translate(0)">
      <path id="Path_41440" data-name="Path 41440" d="M18.718,1.679H16.787V.671a.671.671,0,0,0-1.343,0V1.679h-9.4V.671A.671.671,0,0,0,4.7.671V1.679H2.77A2.773,2.773,0,0,0,0,4.449V18.718a2.773,2.773,0,0,0,2.77,2.77H18.718a2.773,2.773,0,0,0,2.77-2.77V4.449A2.773,2.773,0,0,0,18.718,1.679Zm1.427,17.039a1.427,1.427,0,0,1-1.427,1.427H2.77a1.427,1.427,0,0,1-1.427-1.427V7.6a.21.21,0,0,1,.21-.21H19.935a.21.21,0,0,1,.21.21Z" fill="#060d43"/>
    </g>
  </g>
</svg>
