<?xml version="1.0" encoding="utf-8"?>
<!-- Generator: Adobe Illustrator 24.2.1, SVG Export Plug-In . SVG Version: 6.00 Build 0)  -->
<svg version="1.1" id="Layer_1" xmlns="http://www.w3.org/2000/svg" xmlns:xlink="http://www.w3.org/1999/xlink" x="0px" y="0px"
	 viewBox="0 0 678 437.3" style="enable-background:new 0 0 678 437.3;" xml:space="preserve">
<style type="text/css">
	.st0{fill:#060D43;}
	.st1{fill:#5ED58C;}
	.st2{fill:#FEFEFE;}
	.st3{fill:#FDFDFD;}
	.st4{fill:#FAFAFA;}
	.st5{fill:#F4F4F4;}
	.st6{fill:#FBFBFB;}
	.st7{fill:#FCFCFC;}
	.st8{fill:#F9F9F9;}
	.st9{fill:#131313;}
</style>
<g>
	<path id="Path_40459" class="st0" d="M35.9,385.6c0.2-2.2,1.9-1.1,2.8-1.1c8.4-0.1,16.8-0.1,25.2-0.1h4.6c-2.1-2.7-3.7-4.8-5.4-6.8
		c-1.3-1.5-1.1-2.5,0.4-3.7c18.4-14.7,36.8-29.5,55.1-44.4c1.8-1.4,2.7-1,3.9,0.6c1.7,2.4,3.5,4.7,5.5,6.8c1.7,1.8,1.3,2.8-0.5,4.2
		c-8,6.3-15.9,12.7-23.8,19.1c-1.2,0.9-2.3,1.9-3.7,3.1l4.4,1.3c-0.7,3.1-3.5,2.6-5.6,3.2c-3.6,0.7-4.8,4.1-7.1,6.4
		c-0.8,0.5-1.6,0.2-2.4,0.3c-3.6,2.3-7.1,4.6-9.5,8.2c1.8,1.1,3.9,1.4,6,1c2.3-0.5,4.7-0.6,7-1.2c0.3-0.2,0.6-0.3,0.9-0.5
		c0.5-0.2,1-0.4,1.5-0.4c3.3,1.6,6.9,0.2,10.3,0.9c1.4,0.1,0.7,2.3,2.2,2.3l-0.1,0.2l-0.2-0.1c11.2-1.2,22.4-1.6,33.7-1
		c4.6,0.2,9-0.9,13.6-1.3c2.7-0.3,3.2-2.2,3.6-4.4c1.9-9.7,0.7-19.6,1.1-29.3c0.4-8.2-1.4-16.2-1.2-24.4c-0.1-1,0.6-1.5,1.3-2.1
		c0.5-0.4,1.1-0.5,1.7-0.3c2,1.2,1.6,3.3,1.6,5c0.1,15.1,0,30.1,0.1,45.2c0,1.9-0.9,4.4,1.2,5.4c2.1,1,3.6-1.2,5.1-2.3
		c22.9-16.7,45.7-33.5,68.8-50.1c4-2.9,5.9-6.2,5.6-11.1c-0.3-5.1,0-10.3-0.1-15.4s-1-6.1-6.2-6.1c-23.2,0-46.5,0-69.7,0
		c-2.3,0-4.7,0.2-6.8-1.1c-0.6-0.5-0.8-1.4-0.5-2.2l0,0c10.7-0.5,21.3-0.1,32-0.2c3.4-0.1,7,0.8,9.5-2.6c0.7-0.9,2.2-0.6,3.3-0.5
		c7.5,0.6,14.9,0.6,22.4,0c2.5-0.2,4.9-0.1,7.2,1.4c2,1.3,4.7,0.8,7,1c1.7,0.1,3.5-0.1,5.2,0.2c1.6,0.6,1.9,1.9,2,3.4
		c0.2,1.9,0.1,3.7,0.1,5.6c0,25.3,0,50.6,0,75.9c0,1.4,0,2.8,0.1,4.2c0.2,2.9,1.8,4.5,4.7,4.6c4.1,0.2,8.2,0.1,12.2,0
		c3.5-0.1,4.4-3,6-5.2c2.2-0.5,2.8,1.1,3.4,2.6c0.6,1.4,1.3,2.6,2.9,2.7c3.6,0.3,7.1,1.4,10.7,1.4c11.3-0.1,22.6,0.1,33.9-0.1
		c3.8,0.1,7.6-0.3,11.3-1.1c0.4-0.2,0.7-0.4,1.1-0.6c0.6-0.5,1.4-0.9,2.3-0.9c4,1.5,8.3,1.2,12.4,1.2c5.2,0,10.5,0,15.7,0
		c2.2,0.1,4.4-0.3,6.4-1.3c1.7-0.5,3.3,1,5,0c8.8-4.2,18.1-7.2,27.2-10.8c9-3.6,18-7,27-10.5c1.4-0.5,2.8-1.2,4-2.1
		c0.5-0.5,1.2-0.9,1.9-0.9c2,0.2,2.5,1.9,3.2,3.3c3.1,6,6,12,9.1,18c0.9,1.8,1.8,3.5,4,4.1c6.4,0.6,12.7,1.8,19.2,1.7
		c12.3-0.2,24.5-0.1,36.8-0.1c0.9,0,1.9,0,2.8,0.1c0.5,0,0.9,0.4,0.9,0.9c0.1,0.6-0.4,1.1-0.9,1.1c-0.1,0-0.1,0-0.2,0
		c-0.8,0-1.6,0-2.5,0c-156.9,0-313.8,0-470.8,0C38.2,385.9,37,386.2,35.9,385.6z"/>
	<path id="Path_40460" class="st1" d="M95.6,209.7c-0.2,5.9,0.6,11.8-0.8,17.8c-4.8,20.4-23.8,34.7-44,33
		c-22.6-1.9-38.7-18.5-39.9-40.9c-1.1-20.6,13.7-39.1,34.4-43.2c1.5-0.3,3-0.3,4.5-0.5c1.6,1.1,1.1,2.7,1.1,4.2
		c0,12.1,0,24.3,0,36.4c0,2.1-0.2,4.2,1.2,6c0.9,1,1.9,1,3.1,0.3c11.1-6.1,23-10.6,35.4-13.2C92.2,209.1,94,208,95.6,209.7z"/>
	<path id="Path_40461" class="st0" d="M75.8,78.4c14.2-5,29.2-7.5,44.3-7.2c23.1,0.2,44.3,6.8,64.3,18.1c1.7,1,2,2.3,2,4
		c0,9.6,0,19.1,0,28.7c0,1.2-0.3,2.6,0.4,3.8c1.4-0.1,1.8-1.3,2.5-2.2c6.5-8.3,14.1-15.6,22.7-21.7c2.2-1.5,4.5-2.9,6.9-4.1
		c5.9-2.8,11.2-6.3,14.7-12c0.7,0.1,1.3,0.6,1.6,1.2c0.8,1.8-0.3,3.1-1.4,4.4c-2.3,2.6-5,4.9-8,6.7c-2.8,1.8-2.8,2.5-0.1,4.1
		c6,3.7,11.9,7.3,17.8,11.1c2.2,1.4,4.5,0.3,6.5,1.6c0.3,3.4,0.3,6.8,0,10.2c-1.8,1-2.3-0.4-2.8-1.5c-1-2-2.6-3.6-4.6-4.6
		c-7.2-4.5-14.5-8.9-21.7-13.5c-4-2.5-4.8-2.5-8.4,0.2c-14.1,10.5-24.7,24-33.5,39c-6.6,11.4-12.2,23.4-16.5,35.9
		c-0.6,1.8-0.8,4.5-3.9,3.8c-0.9-0.5-1.5-1.4-1.7-2.4c0-7.4,0.6-14.8-0.5-22.2c1.8-8.5,2.4-16.9,0.2-25.4c-0.1-0.4-0.2-0.8-0.2-1.2
		c0.1-1,0.3-1.9,0.6-2.8c0-5.8,0-11.7,0-17.5c0-4.1-1-5.2-5-6.5c-3.7-1.2-7.5-1.9-11.2-2.8c-1.6-0.4-3.3-0.7-3.3-2.9
		c0.8-1.6,2.4-1.7,3.9-1.8c3.6-0.2,6.9,0.8,10.3,1.7c4,1,5.2,0.1,5.3-3.9c0.1-3.7,0-7.5,0-11.2c0-3.1-1.4-5.1-4.4-5.9
		c-4-1.2-8.1-2.1-12.3-2.9c-3.7-0.6-5,0.5-5.1,4.2c-0.1,6.1,0,12.1-0.1,18.2c-1.3,4.1-1.5,4.2-5.2,3.6c-6.1-1.9-12.3-1.1-18.4-0.9
		c-3,0.1-4.2,1.8-4.3,5.3c-0.2,5.9,0.1,11.9-0.3,17.8c0.2,0.8,0.3,1.6,0.2,2.4c0,0.4,0,0.8,0,1.2c0,3-0.4,6-1,8.9
		c-0.5,1.8-0.5,3.7-0.1,5.5c0.9,3.5,0.9,7.1,1.1,10.7c0,5.8,0,11.7,0,17.5c0.1,5,1.1,6,6,5.6c3-0.2,6.1-0.2,9.1,0
		c1.9,0.1,4,0.2,5.1,2.4c-0.2,1.8-1.6,1.6-2.9,1.7c-4.7,0.3-9.3,1.3-14,1.7c-2.6,0.7-3.3,2.7-3.3,5c-0.1,4.3,0,8.5,0,12.8
		c0,1.8,0,3.7-1,5.4c-0.9,0.9-2.3,1-3.3,0.3c-1.2-1.6-1.2-3.5-1.2-5.3c0-4.2,0.1-8.4-0.1-12.6c-0.1-3.4-1.3-4.3-4.7-3.8
		c-3.1,0.5-6.2,1.1-9.2,1.9c-1.7,0.5-3.5,0.6-5.2,0.2c-0.9-0.4-1.9-0.6-2.4-1.5c-0.3-2.2,1.5-2.4,2.8-2.9c4.4-1.7,9-2.2,13.6-3.2
		c4.4-1,5.2-1.9,5.2-6.4c0-3.7,0.1-7.5,0-11.2c-0.1-3.3-1.4-4.4-4.7-3.9c-4.4,0.7-8.7,1.6-12.9,2.9c-2,0.6-4,1.4-6-0.1
		c-1-0.6-1.6-1.8-1.5-3c-0.1-7.3-0.1-14.7,0-22.1c-0.1-0.8,0.2-1.6,0.9-2.2c2.5,0.3,2.4,2.3,2.5,4.1c0.2,4.4,0,8.9,0.1,13.3
		c0.1,4.3,1,5,5.1,4.1c3.9-0.9,7.7-1.8,11.6-2.4c4.1-0.7,4.9-1.8,5-5.8c0.1-3.7,0.1-7.5,0-11.2c-0.1-4-1.2-5-5.2-4.4
		c-4.6,0.6-9.1,2-13.7,3.1c-1.3,0.3-2.7,1-4-0.2c-0.5-0.9-1.8-0.8-2.2-1.9c-0.5-8.2-0.1-16.5-0.2-24.7c-0.2-9.2,0.4-18.4-0.3-27.5
		C75.9,79.2,75.8,78.8,75.8,78.4z"/>
	<path id="Path_40462" class="st0" d="M234.5,87.7l-1-1.7c2.1-5.7,1.4-11.2-0.3-16.8c-0.7-2.5-1.5-4.9-2.1-7.4
		c-2.6-11.4,1.9-20.4,12.8-24.9c7.5-3.2,16-3.3,23.6-0.2c10.1,4,14.3,12.2,15.1,22.4c0.3,3.6,0.6,7.2,0.9,10.8
		c0.4,2.9,0.7,5.7,0.7,8.6c-0.2,0.7-0.7,1.4-1.5,1.6c-2.1-0.2-1.8-1.9-1.7-3.2c0.1-3.1-1-6-1.3-9c-0.1-1.3-1.1-2.4-2.4-2.7
		c-2.9-0.9-5.9-1.5-8.8-2.2c-2.8-0.8-5.7,0.2-7.5,2.5c-1.9,2.2-3.8,4.4-6.5,5.8c-1.5,0.7-3,1.3-4.6,0.1c-1.6-1.2-1.5-2.7-1.2-4.4
		c0.2-1.1,0.6-2.3,0.7-3.4c0.1-1,0.4-2.1-0.6-2.9c-0.4-0.3-0.9-0.3-1.3,0c-1,1-0.7,2.1-0.3,3.2c0.5,1.5,1.2,3,1,4.7
		c-1,8.1-5.9,13.7-11.6,18.9C236.1,88.2,235.2,88.2,234.5,87.7z"/>
	<path id="Path_40463" class="st0" d="M35.9,385.6l337.1,0c45.2,0,90.4,0,135.6,0c1.5,0.2,3,0,4.4-0.7h-6.4c-16.9,0-33.9,0-50.8,0
		c-1.6,0-3.3,0.2-4.8-0.7c1.2-2.2,3.4-1.7,5.3-1.7c15.7-0.1,31.3,0,47,0c4.9,0,7.2,0.7,8.4-5.9c0.2-1,0.6-2,1.3-2.9
		c2.9-3.5,2-6.6-0.4-10.1c-16.7-25.5-33.4-51-50.1-76.5c-1.8-2.7-3.7-5.4-3.9-8.8c0.2-0.5,0.5-1,1-1.2c2.3-0.6,3.3,1.1,4.3,2.7
		c14.9,22.3,29.4,44.9,44.2,67.4c4.3,6.5,4.3,6.4,10.7,2.2c29.3-19.2,58.6-38.5,87.9-57.6c11.1-7.3,22.2-14.8,33.4-21.9
		c4.3-2.7,4.3-3.5,1.5-7.8c-15.8-24.3-31.8-48.4-47.5-72.7c-1-1.6-2.7-3.1-1.3-5.4c0.3-0.4,0.9-0.6,1.4-0.3
		c8.2,12.4,16.5,24.9,24.7,37.3c15.7,23.9,31.3,47.8,47.1,71.7c1.7,2.6,1.7,3.8-1.1,5.7c-28.6,18.6-57,37.2-85.4,56
		c-0.4,0.3-4.4,0.7-0.7,2.6c0.1,1.6-1,2.1-2.2,2.7c-10.3-1.2-20.7-1.7-30.9,0.5c-7.3,1.6-14.4,3.9-20.6,8.3
		c-8,5.7-10.1,11.1-7.6,20.7c0.2,0.7,0.2,1.4-0.1,2c-0.9,2-2.4,1.8-3.9,0.8c-1.5-5.8-1.5-5.8-7.8-5.8c-42.2,0-84.3,0.1-126.5,0.1
		c-100.5,0-201.1-0.1-301.6-0.1c-12.6,0-25.2,0-37.8,0C38.4,386.1,37,386.6,35.9,385.6z"/>
	<path id="Path_40464" class="st0" d="M594.2,183.6l-0.9,0.9c-0.3,0.2-0.6,0.3-1,0.2c-4.4-3.1-6.7-8-9.5-12.4
		c-11.6-17.7-23.2-35.4-34.7-53.1c-10.3-15.9-20.8-31.6-31-47.5c-2.8-4.4-3.7-4.6-8-1.8c-31.4,20.7-62.9,41.3-94.3,61.9
		c-9.6,6.3-19.1,12.7-28.7,18.8c-4,2.6-4.1,3.5-1.5,7.6c2.5,3.9,5,7.9,7.6,11.7c1.9,2.8,2.9,2.7,4.3-0.2c4.6-9.5,2.2-8.8,14.7-8.9
		s25-0.1,37.5,0c3.2,0.1,6.3-0.9,8.9-2.6c21.1-13.8,42.2-27.7,63.3-41.5c0.6-0.4,1.2-0.8,1.8-1.1c3.5-2.1,4.8-1.8,7.3,1.6
		s4.6,7.1,6.9,10.6c12.1,18.4,24.4,36.8,36.2,55.4c0.9,1.4,2.3,2.8,1.7,4.8c-0.3,0.6-0.7,1.2-1.3,1.6c-3,0.6-3.7-2-4.8-3.7
		c-7.7-11.7-15.4-23.4-23-35.2c-5.9-9-11.8-18-17.7-27c-1.9-2.9-3-3.3-5.7-1.5c-18.7,12.4-37.6,24.4-56.2,36.9c-0.5,0.3-1,0.6-1,1.5
		c4,0.4,8.1,0.1,12.2,0.2c1.4,0,2.8,0,4.2,0.2c2.8,0.4,3.5,1.7,2.8,4.4c-1.2,4.1-3.4,7.7-5.1,11.5c-6.1,13.7-12.5,27.1-18.6,40.8
		c-0.7,1.7-1.3,4-4.1,3.3c-0.6-0.4-1.1-1-1.5-1.7c-0.6-1.6,0.4-2.9,1-4.3c6.4-14.7,13.5-29.2,19.9-44c1.9-4.5,1.4-5.4-3.5-5.4
		c-20.9,0-41.8,0-62.6-0.1c-3.8,0-6,1.4-7.6,4.8c-6.8,15-13.6,29.9-20.5,44.9c-0.9,2-2,3.9-3.4,5.6c-0.8,0.7-2.1,0.7-2.8-0.1
		c-0.1-0.1-0.1-0.2-0.2-0.2c6.1-13.2,12.2-26.5,18.4-39.7c0.8-1.6,0-2.6-0.7-3.8c-4.7-7.2-9.4-14.5-14.3-21.6
		c-1.6-2.3-1.2-3.4,1.1-4.9c44.1-28.8,88.1-57.7,132.1-86.6c2.2-1.4,3.4-2,5.2,0.7c25.6,39.2,51.2,78.4,76.9,117.5
		C593.9,182.7,594,183.2,594.2,183.6z"/>
	<path id="Path_40465" class="st0" d="M250.4,139.5c5.4,13.7,10.7,27.5,16.1,41.2c0.3,0.9,0.6,1.8,0.8,2.6c-0.1,1.7,2.5,1,2.4,2.6
		c-0.1,1.7-1.5,2.3-2.8,2.8c-5.8,2.4-11.5,5.1-17.4,7.4c-3.4,1.3-4.5,0.8-6.1-2.4c-1.5-2.8-2.6-5.8-3.1-8.9c0.2-2.2,2.5-3.3,2.7-5.6
		c-0.2-8.5,1.8-16.8,2.5-25.2c0.1-2.9,0.4-5.8,0.9-8.7c0.3-1.9,0.1-3.9,0.6-5.8c0.3-1.3,0.8-2.6,2.4-3
		C250.6,137.4,249.8,138.6,250.4,139.5z"/>
	<path id="Path_40466" class="st0" d="M269.4,185.7c-0.9-0.6-1.9-1.1-2-2.4c1.2,1.6,2.5,0.5,3.7,0c16-6.2,32.3-11.7,49.2-14.8
		c10-1.8,20.1-2.9,30.3-1.1c2.6,0.5,3.8,1.3,3.7,4.3c-0.3,8.9-0.3,17.8-0.4,26.6c0,1,0.4,2.3-0.9,2.8c-1.1,0.4-2-0.5-2.8-1.1
		c-2.8-2.1-3.1-5.4-3.5-8.5c-0.3-2.4-1-3.5-3.7-3.2c-2.5,0.3-5-0.3-7-1.7c-3.4-2.6-6.8-2.4-10.4-0.8c-1.8,0.6-3.5,1.4-5.1,2.5h2.9
		c4.8-0.1,9.3,2.2,12,6.1c5.8,7.8,9.9,16.6,13.2,25.7c-0.4,0.5,0,1.5-1,1.7c-2,0.1-2.4-1.6-3-2.9c-2.9-7-6.4-13.8-10.4-20.2
		c-3.8-5.8-9-7.7-15.6-6.6c-8.1,1.3-15.5,4.2-22.8,7.7c-17.3,8.4-34,17.8-50.1,28.2c16.3-1.9,32.5-3.4,48.7-5.3
		c1.7-0.3,3.5-0.1,5.2,0.3c1.1,1,3.3,1.3,2.2,3.6c-1.4,0.8-3,1.3-4.6,1.3c-17.9,1.6-35.6,3.8-53.5,5.6c-1.4,0.2-2.8,0.1-4.2-0.2
		c-1.4-0.5-1.9-1.8-2.8-2.8c-1.1-2.4,0.8-3.4,2.3-4.4c9-6.2,18.5-11.7,27.9-17.3c3.8-2.3,7.8-4.1,11.6-6.3c2.4-1.4,2.9-3.1,1.3-5.4
		c-1.9-2.5-3.6-5.2-5.1-7.9C273.6,186.8,270.6,187.7,269.4,185.7z"/>
	<path id="Path_40467" class="st0" d="M375,220.7l2.5,0c1.3-1.4,3.1-1.6,4.8-1.6c23.7-0.1,47.4-0.1,71.1,0c0.8,0,1.6,0.1,2.4,0.3
		l0.7,1.5c1.3,3.1,0.9,4.1-2.2,5.5c-0.9-0.1-1.7-0.5-2.3-1.1c-1.8-1.1-3.9-1.6-6-1.4c-17.2,0-34.5-0.1-51.7,0.1
		c-1.6,0-4.7-1.3-4.1,2.6c2.8,1.9,6.1,1.8,9.1,2c13.5,0.6,26.9,0.5,40.4,0.1c3.5-0.1,7.1-1.1,10.7-1.1c0.4,0,0.9,0.1,1.3,0.2
		c0.8,0.3,1.4,1,1.5,1.9c0.1,0.4,0.1,0.8,0,1.2c-0.4,0.9-1.1,1.6-2,2c-1.8,0.4-3.7,0.1-5.6,0.1c-4.2,0.1-4.8,0.5-5.9,4.4
		c-0.3,1-0.6,2-1.1,3c-0.7,1.2-1.6,2.2-2.6,3.2c-0.3,0.2-0.6,0.3-1,0.4c-1.2-0.1-2.2-1-3.5-1c-10.4-2-20.7-4.5-31.1-6.8
		c-4-1-8-1.8-12-2.3c-1.5-0.2-2.8,1.4-4.4,0.8c-0.7-0.3-1.2-0.8-1.9-1.1c-8.8-2.3-17.8-1.8-26.7-1.9c-1.4,0-3.1,0.5-4.2-1
		c0.1-2.2,1.8-1.8,3-1.8c4.8-0.1,9.6,0,14.3,0c4.3-0.2,8.6-0.8,12.7-1.8c1.4-1,1.4-1.9-0.1-2.7c-8.7-2.1-17.6-2.1-26.4-1.4
		c-1.8,0.3-3.7,0.2-5.5-0.2c-1.1-0.3-1.6-0.9-0.8-2L375,220.7z"/>
	<path id="Path_40468" class="st0" d="M513.3,391.9l3-1c1.3-0.6,2.2,0,3.1,0.9c8.4,9.2,19.4,12.5,31.2,14.3
		c11.7,1.8,23.7,0.8,35-2.8c5.9-1.8,11.5-4.8,16.2-8.9c7.8-6.8,7.5-17.4-0.6-24c-6.2-4.9-13.4-8.3-21-10c-1.7-0.4-4.3,0-4.4-3
		l2.9-0.8c8.8,1.3,17.2,4.9,24.2,10.4c8.1,6.3,9.6,14.7,7.7,24.2c-4.7,23.5-26.7,40.2-51.3,38.7c-21.2-1.3-38.3-13.9-44.7-33.1
		C513.9,395.4,513.2,393.7,513.3,391.9z"/>
	<path id="Path_40469" class="st0" d="M103.2,206.1l2.4-0.1c0.7-0.8,1.8-0.9,2.6-0.2c0,0,0.1,0.1,0.1,0.1c0.5,1.3-0.1,1.9-1.4,1.9
		c-1,0.1-2-0.3-3,0.3l-8.3,1.5c-14.4,2.7-28.3,7.6-41.1,14.8c-1.2,0.6-2.2,1.8-3.8,1.3c-0.7-1.2-0.3-2.5-0.3-3.8
		c0-42.4,0-84.7,0-127.1c-0.2-1.4,0-2.8,0.4-4.1c2.6,2.3,1.5,5.1,1.6,7.5c0,2.6,0.2,5.1,0.7,7.6c0.5,2.6,0.7,5.3,0.6,8
		c0.1,0.4,0.2,0.8,0.3,1.2c0.2,0.6,0.3,1.2,0.4,1.8c0,0.6,0,1.2-0.2,1.7c-2,7.3-2.1,15-0.4,22.4c0.2,0.3,0.4,0.6,0.6,0.9
		c0.5,0.5,0.7,1.3,0.7,2c-0.1,0.7-0.4,1.4-0.8,2c-2,7.2-2.5,14.3-0.1,21.5c0.2,0.3,0.4,0.6,0.6,0.9c0.5,0.5,0.8,1.2,0.9,1.9
		c0,1.4-1.1,2.1-1.7,3.2c-0.5,0.5-0.7,1.2-0.6,2c0.7,4.8,0.3,9.5,0.5,14.3c0.1,2.8,1.1,3.5,3.5,2.3c4.5-2.2,9.1-4.2,13.8-6
		c2.6-1,2.7-3.2,3.3-5.3c-0.3-6.2-0.4-12.3,0-18.5c-0.2-0.6-0.2-1.2-0.2-1.8c0-0.4,0-0.8,0-1.2c0.2-3.1,0.6-6.2,1-9.3
		c0.8-5.7-0.8-11.2-1.7-16.8c1.1-6.5,0.5-13,0.7-19.5c0.1-1.9-0.2-4,1.5-5.5c2,0.1,1.2,1.7,1.2,2.6c0.1,5.9,0,11.8,0.1,17.7
		c-0.2,1.1-0.1,2.3,0.3,3.4l1.5,1.5l-0.5,0.1c-0.6,0.7-1,1.6-0.9,2.6c0,6.9,0,13.8,0,20.6c0,1.3,0.5,2.5,1.4,3.5
		c1.2,1.7,0.9,3.6,1,5.4c0.1,6.5-0.2,13.1,0.2,19.6l2.3,0.8c0,0.2,0,0.3,0,0.5c-2.3,2.9-2.7,6.3-2.5,9.9c0.2,2.9-0.1,5.8,0.1,8.7
		c0.1,3.2,1.1,3.9,4.2,3.2c3.6-0.8,7.3-1.7,11-2.2C97.7,205.8,100.5,203.5,103.2,206.1z"/>
	<path id="Path_40470" class="st0" d="M355.8,35.7c1.2,5.2-0.1,10.6,0.6,15.8c0.6,5-1.3,7.9-5.8,9.9c-4,1.8-7.7,4.3-11.5,6.6
		c-1.3,0.8-2.5,1.3-3.7-0.1c-0.9-3-0.9-6.3-0.1-9.3c0.7-2.4-0.4-4.6-0.6-6.9c-0.1-1.3-0.1-2.6,0-3.8c0.1-0.4,0.2-0.8,0.3-1.1
		c0.4-1,1.1-2,2-2.7c5.2-3.3,10.3-7,16.3-8.8C354.1,35.1,355,35.2,355.8,35.7z"/>
	<path id="Path_40471" class="st0" d="M205.7,288.1c-15,2.9-30.1,1.1-45.1,1.4c1.3-0.9,2.7-0.5,4.1-0.5c11.1,0,22.2,0,33.3-0.3
		c-7.5-2.2-14.7-5.2-21-9.8c-13.1-9.5-21.2-22.4-25.9-37.7c-0.2-1.1-0.3-2.3-0.3-3.5c0.4-1.7-0.5-3.6,0.8-5.1c1-0.1,1.9,0.5,2.1,1.4
		c1.1,3.3,3.8,3.5,6.6,3.2c6.7-0.8,13.4-1.5,20.2-2.1c13.2-1.3,26.4-3.1,39.6-4.1c0.6-0.1,1.1-0.2,1.7-0.4c3,0.1,5.9,0.6,8.9,0.8
		c0.8,0,1.6,0.6,1.8,1.4c0,1.9-1.4,2.2-2.8,2.4c-8.9,0.9-17.8,2-26.7,2.9c-13.9,1.5-27.8,2.8-41.7,4.5c-4.9,0.6-5.7,1.8-3.6,6.5
		c8.4,18.5,21.7,31.5,42.1,36.1c1.3,0.3,2.5,0.5,3.8,0.8C204.8,286.1,205.9,286.5,205.7,288.1z"/>
	<path id="Path_40472" class="st0" d="M396.4,38.8c-2,4-5.7,5.5-9.8,6.1c-1.3,0.3-2.7,0.6-3.9-0.3c-0.4-0.9-0.3-1.9,0.2-2.7
		c0.9-4.3,2-8.5-0.2-12.7c-0.8-0.7-1.8-1.1-2.9-1.2c-1.3-0.4-2.3-1.1-2.2-2.7c1.3-2.5,3.7-2.3,5.9-2.6c3.6-0.4,6.9-1.9,9.7-4.3
		c1-0.9,2.1-1.4,3.2,0C396.7,25.2,396.9,32,396.4,38.8z"/>
	<path id="Path_40473" class="st0" d="M392.8,56.8c4.2-1,4.2-1,4.2,3.4c0,0.7,0,1.4,0,2.1c1.6,11.7-2.1,22.3-7.4,32.4
		c-0.9,1.8-1.6,2.5-3.2,0.8c-0.7-2.9-0.7-5.9-0.2-8.9c0.8-3.8-0.8-7.5-0.9-11.3c0-0.4,0-0.8,0.1-1.1c0.2-1.1,1.1-1.8,1.5-2.8
		c1.4-4.2,3.2-8.3,5.5-12.1C392.6,58.5,392.1,57.6,392.8,56.8z"/>
	<path id="Path_40474" class="st0" d="M52.3,116.2c-1.2-1.2-1-2.8-1-4.3c0.1-6.4-0.1-12.8-0.7-19.2v133c-0.9-1.5-0.6-3.2-0.6-4.8
		c-0.1-15-0.1-30.1-0.2-45.1c0.1-9.7,0.2-19.3,0.3-29c0-17.6,0-35.2-0.1-52.8c-0.3-2.3,1.1-4.5,3.3-5.4c7.4-3.8,14.6-7.7,22.5-10.2
		l0.2,0.3c1,1,0.9,2.3,0.9,3.6c0,7.4-0.1,14.8,0,22.2c0.2,1.2-0.2,2.3-1.1,3.1c-0.7,1.3-1.8,2.4-3.2,3c-5.1,1.9-10,4.2-14.8,6.6
		c-1.4,0.7-2.9,1.8-4.3-0.1l-1-0.8c0.2-2.1,1.7-3.2,3.4-4.1c4.4-2.3,9-4.4,13.7-6.2c3.3-1.3,4.7-3.4,4.6-7
		c-0.2-3.8,0.1-7.7-0.1-11.6c-0.1-3.1-1.1-3.8-4-2.7c-4.3,1.6-8.4,3.5-12.5,5.6c-2.5,1.2-4.1,3.8-3.9,6.5c0.1,4-0.1,7.9,0,11.9
		C54,111.3,53.4,113.9,52.3,116.2z"/>
	<path id="Path_40475" class="st0" d="M158.6,324.4c1.5,0.9,2.4,2.6,2.2,4.4c0,17.4,0,34.8,0,52.2c0,2.9-1.1,3.9-4,3.9
		c-16.4-0.1-32.7-0.1-49.1-0.1c1-0.5,2.3-0.7,3.4-0.4c4.9,0.9,7.7-1.3,10.4-5.4c11.4-17.4,23.2-34.6,34.9-51.8
		C157.1,326.2,157.8,325.3,158.6,324.4z"/>
	<path id="Path_40476" class="st0" d="M335.9,47c1.8,4.2,0.6,8.7,0.8,13c0.1,2.7,0.9,5.6-1.4,7.9c-5.3-3-10.5-6-15.8-8.9
		c-1.2-0.6-1.9-1.8-1.8-3.1c0-6.1,0.1-12.1-0.1-18.2c-0.1-1.4,0.7-2.7,2-3.3c5.2-2.9,10.3-5.9,15.4-8.9c0.9-0.7,2.2-0.8,3.3-0.2
		c5.7,3.6,11.9,6.4,17.3,10.4l-2.5,0.7c-4.5,0.3-7.6-2.7-10.9-4.8c-3.8-2.3-6.9-2.7-10.5,0.1c-1.6,1.1-3.3,2.1-5.1,3
		c-1.7,1-1.7,2-0.1,3.1c2.6,1.6,5.2,3.1,7.8,4.6c1.5,0.6,2.8,1.8,3.6,3.2L335.9,47c-1.1,1.2-2.3,0.6-3.5,0c-2.8-1.2-5.2-3.1-8-4.3
		c-2.6-1.2-3.5-0.6-3.2,2.2c0.2,1.5,0.3,3,0.3,4.5c0.1,2.4-0.6,5.1,1.3,7c2.6,2.5,5.9,4,9.2,5.6c1.5,0.7,2-0.6,2.1-1.9
		c0.1-2.9,0-5.8,0.1-8.7C334.3,49.8,334.4,48.1,335.9,47z"/>
	<path id="Path_40477" class="st0" d="M388.5,72c-0.2,1.2-1.2,1.6-2,2.3c-1.6,1.5-3.1,0.4-4.5-0.4c-3.3-1.8-6.4-3.7-9.7-5.5
		c-2.7-1.5-3.5-0.9-3.7,2.1c0,0.5,0-0.1,0,0.3c0.1,11.8-1.4,9.8,8.6,15.5c1.5,0.9,3,1.8,4.6,2.6c2.9,1.5,3.6,1,3.7-2.3
		c0.1-2.9,0-5.8,0-8.7c0-1.3-0.2-2.6,1-3.6c1,0.5,1.5,1.5,1.4,2.6c0,5.1,0,10.2,0,15.2c0,1.3-0.6,2.5-1.5,3.4
		c-6.6-3.7-13.2-7.4-19.8-11.1c-1.4-0.8-1.4-2-1.4-3.3c0-5.8,0-11.7,0-17.5c0-1.6,0.2-2.7,2.1-3c8.5-1.2,17.1-2.5,25.6-3.8
		c0.8,0.8,2.5,1,1.4,2.8c-6.1,1.5-12.4,2.2-19.3,3.6C379.5,66.8,384.5,68.7,388.5,72z"/>
	<path id="Path_40478" class="st0" d="M283.4,78.4c-0.6-2.8,0.3-5.6,0.1-8.5c1,4.3,1.9,8.6,3,12.9c0.4,1.5,0,2.4-1.6,2.2
		c-2.4-0.3-2.8,1.1-3.3,3c-0.7,3-1.6,5.8-2.8,8.6c-3,6.9-8.5,9.7-15.9,8.2c-3.1-0.5-6.1-1.5-8.9-2.9c-1.9-1-2.7-0.7-2.8,1.6
		c-0.1,3.1-0.5,6.3-0.8,9.4c-3.4-1.2-2.7-4.2-2.9-6.8c0.9-3.2-0.2-6.7-2.8-8.8c-1.1-1-2-2.3-2.7-3.6c-0.8-1.1-0.5-2.6,0.6-3.4
		c0,0,0,0,0,0c1-0.8,2.5-0.6,3.3,0.4c0,0,0.1,0.1,0.1,0.1c1.5,1.6,2.6,3.6,4.4,4.9c4.4,3.4,9.6,5.4,15.1,5.9
		c3.9,0.3,7.1-1.1,9.1-4.7c4.9-9,5.3-18.7,4.8-28.6c-0.1-2.2-2.9-2.8-2.5-5.1c4.6,0.1,4.9,0.5,5.1,5c0.2,3.9-0.6,7.9,0.5,11.8
		C283.4,79.6,283.4,79,283.4,78.4z"/>
	<path id="Path_40479" class="st0" d="M151.7,232.5c-0.3,1.7,0.2,3.6-0.9,5.2c-1.2-7.4-0.8-14.9,0.1-22.2c0.3-2.8-0.4-4-3.1-4.4
		c-5.1-0.8-10.1-1.9-15.1-2.8c-7.4-1.5-14.9-0.9-22.5-1.8c5.9-1.3,11.7-2.5,17.7-2.5c1.1,0.1,2,0.6,3.1,0.7c1.6,0.2,3.2,0,4.8,0.1
		c5.1,1.2,10.5,1,15.2,3.9c2.6,1,4.1,3.8,3.4,6.6c-0.3,4.3-0.8,8.7-1.1,13C153.2,229.8,153.4,231.5,151.7,232.5z"/>
	<path id="Path_40480" class="st0" d="M396.4,38.8c0-5.5-0.1-11-0.1-16.4c0-1.5,0.1-3.1-1-4.3c-4.5-7-11.1-8.2-18.7-6.7
		c-3.6,0.7-6.7,2.2-7.6,6.3c-0.1,0.8-0.8,1.5-1.7,1.5c-2.2-1-0.7-3-1.2-4.5c0.4-2.5,2.2-3.8,4.2-4.8c6.9-3.8,15.2-3.8,22.1,0
		c3.2,1.4,5.1,4.7,4.9,8.2c-0.1,5.6,0,11.2,0,16.8C397.3,36.2,397.5,37.7,396.4,38.8z"/>
	<path id="Path_40481" class="st0" d="M348.7,220.6c0.7,1.5,2,0.9,3.1,0.9c9.6,0,19.3,0,28.9,0c1.5,0,3.1-0.2,4.3,1
		c-1.4,1.6-3.4,1.4-5.2,1.5c-7,0.1-14,0-21,0.1c-1.5,0-4-0.5-4.1,1.5c-0.1,2.3,2.5,1.9,4.2,1.9c7,0.1,14,0,21,0.1
		c1.9,0,3.8-0.1,5.2,1.6c-1.3,1.1-2.8,0.9-4.3,0.9c-8.2,0-16.5,0-24.7,0c-1.5,0-3-0.2-4.4,0.5l-0.5,0.3c-3.2-1.3-4.9-6.2-3.2-9.1
		l0.8-1.6C348.7,220.3,348.8,220.5,348.7,220.6z"/>
	<path id="Path_40482" class="st0" d="M97.6,365.9c2.1-1.6,4.8-0.2,7-1.3c5.8,1.9,8.9,8.2,7,14c-0.4,1.2-1,2.3-1.8,3.3
		c-0.6,0.9-2,1.3-1.7,2.8c-0.9-0.4-1.8-0.8-2.7-1.2c-0.9-1.5,0.4-2.3,1.1-3.3c4-5.7,1.4-11.6-5.4-12.5
		C99.8,367.5,98.2,367.7,97.6,365.9z"/>
	<path id="Path_40483" class="st0" d="M160.6,289.4l0.9,1.6c1.5,1.3,1.6,3,1.6,4.8c0.1,7.3,0.1,14.7,0,22c0,1.7,0.3,3.6-1.7,4.7
		l-1.6-0.1c0-9.8,0.1-19.6,0.1-29.4C160,291.8,159.4,290.4,160.6,289.4z"/>
	<path id="Path_40484" class="st0" d="M366.2,14.7l1.4,4.2c2.7,0.1,5.1,1.9,6.1,4.5c-0.2,1-1,1.4-1.8,1.8s-1.8,0.2-2.4,0.8
		c-1.2,2-1.4,4.4-0.7,6.6c0.4,1.7,0.5,3.4,0.4,5.1c-0.1,0.4-0.3,0.7-0.5,1c-0.5,0.7-1,1.1-1.9,0.7c-0.3-0.5-0.6-1-0.7-1.5
		C365.6,30.1,365.1,22.4,366.2,14.7z"/>
	<path id="Path_40485" class="st0" d="M249.7,104.9c0.5,2.6-0.5,5.4,0.8,7.9l-0.1,26.6l-1-1.5c-0.8,2.6,0.3,5.4-1.1,7.8
		c-1.4-0.7-1.5-2-1.6-3.2c-0.4-5,0.7-9.9,0.8-14.9c0-1,0.6-1.8,1.4-2.2c1.1-3.4,1.1-7.1,0-10.5C246.5,111.7,246.8,106.9,249.7,104.9
		z"/>
	<path id="Path_40486" class="st0" d="M128.7,206H112c6.9,1.3,14-0.1,20.7,2.2c-9.6-0.8-19.2-0.8-28.7,0c1.2-1,3.4-0.2,4.2-2.2
		c0.3-2.1,2-2.1,3.5-2.2c4.5-0.2,9.1-0.2,13.7,0C126.7,203.9,128.4,204,128.7,206z"/>
	<path id="Path_40487" class="st0" d="M366.7,39.3l0.9-1.5c0.6-0.5,1.4-0.5,1.9,0c3,2.7,6.7,3.6,10.5,4.3c1.2,0.2,2.6,0.4,3,1.9
		c1.1,0.8,2.4,0.6,3.7,0.8C379,47,370.4,44.6,366.7,39.3z"/>
	<path id="Path_40488" class="st2" d="M205.7,288.1c-6.9-1.4-13.7-2.8-20-6c-15.9-8.2-25.7-21.5-31.9-37.9c-1.1-3.1,0.8-2.9,2.8-3.1
		c24.6-2.6,49.2-5.2,73.8-7.8c0.7-0.1,1.4-0.3,2-0.4c2.1-2.1,4.4-1.6,6.8-0.8c10.3-1,20.6-2,30.9-3.1c9.6-1,19.2-2,28.8-3.1
		c0.9-0.2,1.9,0,2.6,0.7c1.9,1.8,2,4.4,2.7,6.7c7.4,26.9,12.7,54.3,19.4,81.4c0.5,1.9,1,3.8,1.6,5.7c-0.1,8.7-2.4,17-3.9,25.4
		c-1.6,8.5-0.1,7.2-9.1,7.3c-10.4,0.1-20.7,0-31.1,0c-4.3,0-4.7-0.5-3.9-4.8c4.1-22.3,8.7-44.6,13.3-66.8c0.3-1.4,1.4-3.2-0.3-4.5
		c-1.7-1.3-3.3-0.2-4.9,0.3c-10.8,3.7-21.8,6.5-33,8.5c-5,0.9-10,1.9-15.1,2.3c-3.2,0.2-6.4-0.8-9.5,0.1L205.7,288.1z"/>
	<path id="Path_40489" class="st1" d="M459.5,278.3c0.9,3,2.9,5.3,4.6,7.8c17.3,26.6,34.7,53.2,52.2,79.7c1.6,2.5,1.8,4.2-0.2,6.4
		c-2.1,2.4-3.3,5.5-3.5,8.6c-0.2,2.4-1.1,3.5-3.7,3.5c-19.3-0.1-38.5-0.1-57.8-0.2l-13.4-26.6c-1.8-0.6-2.3-2.3-3-3.7
		c-4.5-9.3-9.3-18.4-13.8-27.7c-0.4-0.7-0.7-1.5-0.7-2.3c0.7-1.5,1.9-2.7,3.4-3.3c7.9-4.4,13.6-10.8,18.2-18.4
		c4.6-7.6,8.8-15.4,14.5-22.2c0.7-0.8,1.2-1.7,2.3-2C458.9,277.9,459.2,278,459.5,278.3z"/>
	<path id="Path_40490" class="st2" d="M161.4,322.5l0.1-31.5c1.2-0.1,2.3-0.3,3.5-0.3c25.6,0,51.2,0,76.8-0.1c3.2,0,4.2,0.8,4.1,4.1
		c-0.2,8.1-0.2,16.1,0,24.2c0.1,2-0.8,3.9-2.5,4.9c-26.3,19.1-52.5,38.2-78.7,57.4c-0.7,0.5-1.5,1.6-2.4,1.3
		c-1.2-0.5-0.6-1.9-0.6-2.8c0-17.6,0-35.3,0-52.9C161.6,325.3,161.5,323.9,161.4,322.5z"/>
	<path id="Path_40491" class="st2" d="M273,377.2c-0.7,7.3-0.7,7.3-8.1,7.3c-4.2,0-8.4,0-12.6,0c-4.6,0-4.6,0-4.6-4.5
		c0-28.8,0-57.6,0-86.5c0-1.3,0.5-2.8-0.6-4c-0.5-0.3-1-0.5-1.1-1.2c0-0.8,0.5-1.5,1.2-1.8c12.2-2.1,24.3-5,36.2-8.8
		c1.7-0.5,3.2-1.3,4.9-1.8c2.9-0.8,3.7-0.2,3.1,2.8c-1.4,7.6-3.1,15.1-4.6,22.6c-3.1,15.5-6.4,31.1-9.1,46.7
		c-1.7,8.7-2.9,17.5-3.6,26.3C273.9,375.4,273.9,376.5,273,377.2z"/>
	<path id="Path_40492" class="st2" d="M436.9,359.2c-4.8,3-10.2,4.4-15.4,6.4c-14.4,5.8-29,11.4-43.4,17.1c-0.9,0.3-2,1.4-2.8,0.6
		c-0.8-0.9-0.3-2.2,0.2-3.3c3.2-6.6,6.6-13.1,9.8-19.7c7.6-15.4,15.4-30.8,23-46.2c0.8-1.6,1.1-4,3.4-4.1c2.3,0,2.5,2.5,3.3,4
		c7,13.8,13.6,27.8,20.8,41.5C436.3,356.7,436.7,358,436.9,359.2z"/>
	<path id="Path_40493" class="st1" d="M373.9,382.1c-1.1,1.8-2.6,2.3-4.7,2.3c-8.7-0.1-17.4-0.1-26.1,0c-2.1,0-3.8-0.9-5.6-1.7
		c-4.4-0.8-8.9-1.5-12.7-4.3c-0.5-1.7,0.5-2.7,1.7-3.4c8.5-5.5,15.1-13,21.2-21c1-1.3,2.1-2.6,4.1-1.6c1.5,3.3,1.6,7,3,10.3
		c1.2,2.9,2.4,3.5,5.4,2.2c7.7-3.4,15.4-6.5,23.1-9.8c1.1-0.5,2.2-1,3.2,0c0.7,0.7,0.8,1.8,0.2,2.5c-3.9,7.9-7.8,15.8-11.8,23.6
		C374.7,381.5,374.3,381.9,373.9,382.1z"/>
	<path id="Path_40494" class="st0" d="M373.9,382.1c3.5-7.2,7-14.5,10.6-21.7c0.4-0.7,0.8-1.4,1.1-2.2c0.3-0.7,1-1.5,0.3-2.2
		c-0.7-0.7-1.5,0-2.3,0.3c-6.4,2.7-12.7,5.3-19.1,8c-1.9,0.8-3.9,1.5-5.8,2.4c-2,1-3.3,0.4-4.1-1.7c-1.6-4-2.7-8.2-3.3-12.5
		c-1.9-0.9-2-2.8-2.2-4.5c-0.4-2.3-0.9-4.6-1.6-6.8c-0.9-3.4-2.4-6-6.5-6c-2.4,0-3.1-2.2-3.8-4.1c-2-5-3.6-10.1-5.5-15.2
		c-0.8-2-1.2-4.1-4-2.3c-0.2,0.1-0.6-0.3-0.9-0.5c-1.4-2.6-0.3-5.2,0.4-7.6c0.6-1.8,2.4-1.9,4.1-1.6c2.2,0.3,2.6,2.2,3.1,3.8
		c1.9,5.6,4,11.2,6,16.8c1.5,4.5,2.7,5.3,7.5,5.3c8.6,0,17.3,0.1,25.9,0c4.4,0,5.2-1.2,4.1-5.3c-6.5-24.7-13.6-49.3-21.5-73.5
		c-1.8-5.4-3.9-10.7-5.6-16.2c-0.5-1.5-1.2-2.9,0.6-4l0.2-0.2c9.8,0,19.5,0.1,29.3,0.1c1.5,0,3.4-0.5,4.2,1.6
		c-1.5,1-3.1,0.9-4.7,0.9c-6.2,0-12.4,0-18.5,0c-4.7,0-5.5,1-4,5.4c5.3,15.4,10.4,30.9,14.8,46.6c4.1,14.5,8.5,28.8,11.7,43.5
		c0.1,2.3,1.9,5.1-1.8,6.4c-0.8,0.3-1.9,0-2.5,0.8c2.8,3.4,4.7,3.7,7.1,0.5c2.5-3.3,6.2-5.5,8.4-9c3.3-1.3,5.9-3.9,7.1-7.2
		c1.5-3.6,3.6-7,5.3-10.6c0.8-1.7,1.7-3.5,4-3.5c2.2,0,2.8,1.8,3.6,3.3c1.7,3.2,3.2,6.5,4.9,9.7c0.8,1.4,1,3.1,0.4,4.7
		c5.6,11.3,11.1,22.5,16.7,33.8l-0.7,1.6c-5.7-11.1-11.3-22.2-17-33.3c-2.6-5.1-5.1-10.1-8.1-16l-36.5,72.8c1.1,0.9,1.9-0.3,2.7,0.1
		C376.4,384.5,375,384.1,373.9,382.1z"/>
	<path id="Path_40495" class="st2" d="M336,383.5l0.3,0c0.1,0,0.2,0.1,0.3,0.1c0.1,0,0.2,0.1,0.2,0.2c-0.6,1.1-1.6,0.7-2.5,0.7
		c-19.3,0-38.5,0-57.8,0.1c-1.9,0-2.8-0.5-2.6-2.5c0.4-3.2-0.6-6.4,0.1-9.6c0.4-1.7,1-2.5,2.6-2.5c6.7-0.2,12.7-2.7,18.8-5.1
		c0.8-0.3,1.5-0.6,2.3-0.8c5-1.5,5-1.5,7.9,2.8c3.5,5.1,8.7,7.6,14.1,10c4.7,2.1,9.5,3.9,14.5,5.3C335,382.2,335.6,382.7,336,383.5z
		"/>
	<path id="Path_40496" class="st0" d="M336,383.5c-7.7-2.2-15.4-4.6-22.5-8.6c-4-2.3-7.6-5.1-9.9-9.2c-0.9-1.7-2-1.9-3.7-1.3
		c-4.8,1.7-9.6,3.5-14.5,5.1c-2.4,0.8-5,1.3-7.5,1.5c-2.4,0.1-3.2,1.2-3.3,3.4c0,2.3-0.1,4.7-0.4,7c-0.2,2.2,0.5,3.1,2.9,3.1
		c18.9-0.1,37.8,0,56.7-0.1c0.9,0,1.9,0.2,2.5-0.9c0.4,2.6-1.6,1.3-2.4,1.3c-5.9,0.1-11.9,0.1-17.8,0.1c-12.3,0-24.7,0-37,0
		c-5.1,0-5.1,0-5.5-5.1c-0.1-0.9-0.3-1.8-0.6-2.7c0-12.5,2.7-24.6,5.1-36.7c4-20.4,8.2-40.7,12.3-61.1c0.2-0.9,0.2-1.8,0.4-3.3
		c-14.2,5-28.9,8.8-43.8,11.3c-1.3,1-2.9,0.5-4.1,1c1.1-0.1,2.4-0.8,3.4,0.4l0.7,0.7c-6.5,0.9-12.8-1.1-19.2-1.5
		c9.2-1.3,18.5-2.1,27.7-4c11.6-2.4,22.9-5.5,34.1-9.4c1-0.4,2.1-1.6,3.2-0.5c1,1,0.1,2.2-0.1,3.3c-5.1,23.8-9.8,47.6-14.4,71.4
		c-0.6,3,0.4,3.3,2.9,3.3c11.6-0.1,23.1-0.1,34.7,0.1c2.5,0,3.5-0.7,3.9-3.2c1.3-7.6,2.7-15.2,4.2-22.7c0.4-2.1-0.6-3.9-0.5-5.9
		c2.9,0.6,2.4,3.5,3.6,5.3c0.1,5.3-1.5,10.3-2.3,15.5c-0.5,3.1-1.2,6.2-1.8,9.3c-0.8,4.5-1.5,5.1-6.3,5.2c-2.6,0.1-5.1-0.1-7.7,0.1
		c-3.7,0.2-4.7,1.7-3.5,5.3c1.1,3.2,3.2,6,5.9,8c3.3,2.4,6.8,4.5,10.6,6c1.4,0.6,2.8,1.2,3.5,2.7c3.7,2.4,8.4,2.4,12,4.9L336,383.5z
		"/>
	<path id="Path_40497" class="st3" d="M97.6,365.9c8.2-0.7,13.2,3.4,12.5,10.2c-0.3,3.3-2.5,5.4-4.8,7.3c-3.5,1-7.1,1.9-10.3-0.9
		c-3.4-1.1-5.2-4.8-4.1-8.2c0.1-0.3,0.2-0.5,0.3-0.8C92,369.9,94.6,367.8,97.6,365.9z"/>
	<path id="Path_40498" class="st4" d="M74.6,383.5c5.1-3.7,10-7.6,14.7-11.8c0.9-0.5,1,0.2,1,0.8c0.2,4,1.5,7.8,3.8,11l-0.1,0
		c0.2,0.8-0.3,1-0.9,1c-5.8,0-11.6,0-17.5,0C75,384.5,74.4,384.3,74.6,383.5z"/>
	<path id="Path_40499" class="st0" d="M94.1,383.5c-3.2-2-4.1-5-4.3-8.5c-0.1-1.1,0.6-2.3-0.5-3.3c2-0.7,1.2,1.4,2,1.9
		c0,3.4,1.4,6.6,3.8,9L94.1,383.5z"/>
	<path id="Path_40500" class="st0" d="M74.6,383.5c0.6,1,1.6,0.8,2.4,0.8c4.8,0,9.7,0,14.5,0c0.9,0,1.9,0.2,2.4-0.9
		c0.5,1.6-0.7,1.4-1.5,1.4c-5.4,0-10.9,0-16.3,0C75.4,384.9,74.1,385.1,74.6,383.5z"/>
	<path id="Path_40501" class="st2" d="M249,125.5c-0.2,6.8-0.5,13.5-0.7,20.3c-1.4,11.4-2.8,22.8-4.2,34.2c-0.7,0.6,0.3,2.2-1,2.2
		c-1.3,0-1.4-1.4-1.6-2.4c-2.5-9.3-4.3-18.8-5.4-28.3c1.1,9.4,2.8,18.7,5.3,27.8c0.3,1.7,0.6,3.3,0.7,5c0.5,3.6,2.2,6.8,3.5,10
		c0.5,1.3,1.4,1.2,2.5,0.7c7.1-3.2,14.2-6.3,21.3-9.4c3.6-1.9,5.4-0.5,7.1,3c1.8,3.5,4,6.9,6.4,10c1.5,2.1,1.2,2.9-1,4.1
		c-14.4,7.5-28.4,15.8-41.9,24.8c-1.1,0.7-2,1.5-3.1,2.3c-1.1,3.3-2.7,1.9-4.3,0.4c-5.9-5.6-11.1-12-15.4-19
		c-7.3-11.8-13.1-24.2-14.8-38.2c-0.5-4.4-1.1-8.8-1.4-13.2c-0.3-4.6-0.1-9.2-0.1-13.7v0c0.2,4.8-0.3,9.5,0.3,14.2
		c0.1,0.8,0.1,1.6,0.1,2.3c0.1,3.3,0.9,6.5,1.1,9.8c3.3,19,8.7,37.3,18.6,54c0.9,1.4,2.3,2.8,1.4,4.8c-0.8,1.7-2.4,1.2-3.7,1.4
		c-20.8,2.2-41.5,4.3-62.3,6.6c-3,0.3-4.5-0.1-4.3-3.4c-0.1-1.2-0.2-2.3-0.5-3.4c0.2-5.7,0.4-11.4,0.6-17.2c0-6.2,0.8-12.4,2.4-18.4
		c0.8-3.7,2.2-7.2,2.9-10.9c0.2-0.9,0.9-1.3,1.5-1.8c4.5-12.5,9.4-24.9,16-36.5c10-17.5,21.8-33.4,38.6-45.1c2-1.4,3.4-1.5,5.5-0.1
		c8.1,5.3,16.3,10.4,24.7,15.3C247.1,119.7,249.2,121.7,249,125.5z"/>
	<path id="Path_40502" class="st2" d="M249.7,104.9c-0.7,3.3-0.9,6.7-0.7,10l-0.8,3.5L218.6,100c6.6-3.2,12.3-6.5,15.9-12.4
		c4.3-3.6,7.8-8,10.4-13c1.9-3.5,2.5-7.2,0.2-11c-1.2-1.8-0.8-4.2,0.9-5.4c0.1,0,0.1-0.1,0.2-0.1c1-0.8,2.4-1.1,3.6-0.6
		c1.2,0.5,2,1.8,1.8,3.1c0.1,2.5-0.9,4.8-1.3,7.2c-0.2,0.9-0.9,1.9,0.1,2.6c0.9,0.6,1.8,0,2.6-0.3c2.2-1,4.1-2.7,5.5-4.7
		c3.1-4.2,6.8-5.6,11.8-3.7c2.1,0.6,4.3,1.1,6.4,1.5c3.9,0.5,4.8,2.8,4.7,6.5c-0.1,9.1-0.7,18.2-4.6,26.6c-2.7,5.9-6.5,8-12.9,6.9
		c-7.8-1.3-14.7-4.3-19.3-11.3c-0.4-0.6-0.7-1.8-1.7-1.1c-0.9,0.6-0.1,1.5,0.3,2.1c0.7,1.2,1.6,2.3,2.6,3.3
		C249.1,98.5,250.4,101.3,249.7,104.9z"/>
	<path id="Path_40503" class="st2" d="M105.4,125.9c-0.1-7.5-0.1-15.1-0.3-22.6c0-2.1,1-2.6,2.7-2.7c7.8-0.6,15.6-0.5,23.3,0.3
		c2.2,6.1,0.9,12.5,1.1,18.8c0.3,6.8,0,6.9-6.7,6.8c-6-0.1-12,0-18,0C106.8,126.6,106,126.6,105.4,125.9z"/>
	<path id="Path_40504" class="st2" d="M105.5,127.6c0.2,0.1,0.4,0,0.5-0.1c1.9-1.5,4.1-1.1,6.2-1.2c5.5-0.3,11-0.2,16.6,0.3
		c2.4,0.2,3.6,1.2,3.5,4c0,6.6-0.1,13.1,0,19.7c0,2.4-0.9,3.7-3.4,3.6c-7-0.9-14.1-0.9-21.1,0c-1.5-0.3-2.9-0.5-2.9-2.7
		c0.1-7.5,0-15.1,0-22.6C105,128.1,105.3,127.9,105.5,127.6z"/>
	<path id="Path_40505" class="st2" d="M127.1,179.4c-6.1-0.7-12.3-0.7-18.4-0.1c-2.9,0.3-3.6-0.8-3.5-3.4c0.2-6.2,0-12.3,0.1-18.5
		c0-1.1-0.2-2.4,0.9-3.2c1.2-0.8,2.6-1.1,4-1c6.3-0.1,12.6-0.3,18.9,0.2c2.6,0.2,3.5,1.4,3.5,3.7c-0.2,6.5,0.1,13-0.2,19.6
		C132,180.5,130.7,181.3,127.1,179.4z"/>
	<path id="Path_40506" class="st2" d="M118.2,98.2c-3.5,0.2-7,0.3-10.5,0.6c-1.8,0.1-2.6-0.4-2.5-2.3c0.1-6.8,0.1-13.5,0-20.3
		c0-1.8,0.8-2.4,2.5-2.5c7-0.4,14-0.4,21,0c1.9,0.1,2.7,0.7,2.7,2.7c-0.1,6.7-0.1,13.3,0,20c0,2-0.6,2.6-2.6,2.5
		C125.2,98.5,121.7,98.4,118.2,98.2z"/>
	<path id="Path_40507" class="st2" d="M128.7,206c-6.8-0.9-13.7-0.9-20.6,0l-2.6,0c-0.8-7.6-0.3-15.2-0.3-22.8
		c0-2.9,2.9-1.4,4.3-2.3c6.7-0.8,13.4-0.3,20.1-0.3c1.3-0.1,2.5,0.8,2.6,2.1c0,0.1,0,0.3,0,0.4c0.1,6.9,0.1,13.9,0,20.8
		c0,0.8-0.5,1.6-1.2,2L128.7,206z"/>
	<path id="Path_40508" class="st2" d="M134.1,99.6c-1.1-0.7-1-1.8-1-2.8c0-6.5,0.1-13.1,0-19.6c0-2.4,0.8-2.9,3.1-2.6
		c6.6,1,13.1,2.5,19.4,4.3c2.1,0.6,3.1,1.5,3,3.8c-0.2,6.3-0.1,12.6,0,18.9c0,2.3-0.5,3-3,2.3c-5.9-1.6-11.7-4-18.1-3.1l-0.5,0
		C136,100.6,134.8,100.7,134.1,99.6z"/>
	<path id="Path_40509" class="st2" d="M137.5,100.9c0.8,1.5,2.4,1.2,3.7,1.4c4.7,1,9.3,2.1,13.9,3.4c2.6,0.7,3.6,1.8,3.5,4.5
		c-0.2,7.1-0.1,14.2-0.1,21.3c-1.2,1.1-2.6,0.6-3.8,0.2c-5.8-1.7-11.7-3-17.7-3.9c-4.3-0.7-4.8-1.2-4.8-5.5c0.1-5.5-0.1-11,0.1-16.5
		c0.3-5.9,1.9-6.6,5.3-4.9L137.5,100.9z"/>
	<path id="Path_40510" class="st2" d="M78.2,133.3c0.2,0.1,0.4,0,0.5-0.1c7-1.8,13.9-3.7,21.1-4.8c2.9-0.4,3.6,0.4,3.5,3.2
		c-0.2,6.3-0.1,12.6,0,18.9c0,1.8-0.4,2.8-2.4,3c-7,0.7-13.7,2.5-20.5,4.4c-1.2,0.3-2.7,1.2-2.6-1.1C78,148.9,77.2,141.1,78.2,133.3
		z"/>
	<path id="Path_40511" class="st2" d="M103,86.9c0,4,1.4,8.8-0.4,11.6c-1.7,2.7-7.1,1.6-10.8,2.5c-3.7,0.9-7.5,1.8-11.2,2.9
		c-2.1,0.6-3,0.5-2.9-2c0.1-6.5,0.1-13.1,0-19.6c-0.2-1.6,0.8-3,2.4-3.2c6.7-2,13.5-3.5,20.5-4.6c2-0.3,2.8,0.1,2.7,2.2
		c-0.1,3.4,0,6.8,0,10.1L103,86.9z"/>
	<path id="Path_40512" class="st2" d="M103.3,113.8c0,3.3-0.1,6.5,0,9.8c0,1.6-0.3,2.5-2.2,2.8c-7.1,0.9-14,2.5-20.8,4.6
		c-1.8,0.6-2.5,0.2-2.5-1.8c0.1-6.8,0.1-13.6,0-20.3c-0.1-1.3,0.8-2.5,2.1-2.7c6.9-2.1,14-3.7,21.2-4.8c1.8-0.3,2.3,0.2,2.3,1.9
		C103.2,106.8,103.3,110.3,103.3,113.8z"/>
	<path id="Path_40513" class="st2" d="M157.3,133c0.2,0.1,0.4,0.2,0.6,0.2c1.5,0.8,1.1,2.2,1.1,3.4c0,6.2,0,12.4,0,18.6
		c0,3.8-0.5,4.2-4.3,3.4c-3.9-0.8-7.5-2.4-11.5-2.9c-2.4-0.3-4.8-1-7.2-1.1c-2.4-0.1-3.4-1-3.5-3.8c-0.2-6.8,0-13.6-0.1-20.4
		c0-1.9,0.7-3.4,2.7-3.1c7.3,1,14.5,2.3,21.4,5C156.9,132.4,157,132.8,157.3,133z"/>
	<path id="Path_40514" class="st2" d="M79.9,185c-1.2-0.6-2.2-1.3-2.2-2.8c0-6.8,0-13.6,0-20.4c0.1-0.7,0.4-1.3,0.9-1.8
		c6.9-1.7,13.7-3.6,20.7-4.7c2.8-0.5,4-0.2,3.9,3.1c-0.2,6.2-0.2,12.3,0,18.5c0.1,2.3-0.6,3.2-3,3.5C93.4,181.1,86.5,182.7,79.9,185
		z"/>
	<path id="Path_40515" class="st2" d="M157.2,159.8c1.6,0.8,1.4,2.3,1.4,3.7c0,6.2,0,12.4,0,18.6c-0.8,4-1.1,4.3-5,3.1
		c-6-1.8-12.1-3.1-18.3-3.9c-1.9-0.3-2.9-1-2.9-3.1c0-7-0.1-14.1,0-21.1c0-1.6,0.6-2.9,2.3-2.7C142.4,155.2,150.2,156.1,157.2,159.8
		z"/>
	<path id="Path_40516" class="st2" d="M160.6,92.9c0-3.1,0.1-6.3,0-9.4c-0.1-2,0.3-2.9,2.5-2c6.7,2.6,13.3,5.6,19.6,9.1
		c1.2,0.6,1.9,1.8,1.7,3.1c-0.1,6.6,0,13.3,0,19.9c0,1.7-0.4,2.4-2.2,1.5c-6.4-3.5-13.2-6.5-20.1-8.9c-1.4-0.5-1.6-1.5-1.6-2.7
		C160.6,99.9,160.6,96.4,160.6,92.9z"/>
	<path id="Path_40517" class="st2" d="M184.4,124.6c1.4,6.1-3.4,9.6-5.9,14c-0.6,1.2-1.5,0.6-2.4,0.2c-4.5-1.9-9-3.9-13.5-5.7
		c-1.4-0.4-2.3-1.7-2.1-3.1c0.1-6.6,0.1-13.3,0-19.9c0-1.9,0.5-2.5,2.4-1.8c6.8,2.5,13.3,5.6,19.7,9
		C185.9,119.2,183.7,122.3,184.4,124.6z"/>
	<path id="Path_40518" class="st0" d="M157.2,159.8c-6.8-1.7-13.5-3.5-20.4-4.6c-2.7-0.4-3.8-0.1-3.7,3c0.2,6.2,0.1,12.4,0,18.5
		c0,2.3,0.7,3.2,3.1,3.5c6.1,0.7,12.2,2,18.1,4c2.6,0.9,3.6,0,4.3-2.2l0.7,2.3c-2.9,10.2-5.2,20.6-6.9,31c-0.2-2.1,0.4-4.5-2.2-5.7
		c0-5.5,1.7-10.8,2.9-16.1c1.1-5.1,0.7-5.9-4.2-7.2c-2.8-0.7-5.7-1.3-8.5-1.8c-4.2-0.7-5.2,0.1-5.2,4.1c0.1,5.7-0.7,11.4,0.7,17
		c0.1,0.3-0.1,0.7-0.3,1c-1.6,0-3.1-0.2-4.6-0.7c0.1-7.4,0.1-14.9,0.3-22.3c0-2-1.1-2.2-2.6-2.4c-6.4-0.7-12.8-0.3-19.2-0.3
		c3-1.4,6.2-0.5,9.3-0.8c2.8-0.2,5.6,0.6,8.3-0.7c3.6,0.6,4.5-1.1,4.3-4.5c-0.3-5.5-0.3-11,0-16.5c0.2-3.5-1.1-4.2-4.3-4.4
		c-7-0.4-14,0-21,0.1c-0.9-0.9-1.4-2.2-1.4-3.5c0-6.9,0-13.7,0-20.6c0-0.9,0.3-1.9,0.9-2.6c-0.7,7.8-0.1,15.5-0.3,23.3
		c-0.1,2.4,1.7,1.6,2.9,1.9c6.8,0.1,13.6,0.1,20.4,0c1.9,0.1,2.9-0.3,2.8-2.7c-0.2-6.6-0.1-13.3,0-19.9c0-2-0.7-2.5-2.6-2.7
		c-7.6-0.8-15.1-0.4-22.7,0c-0.2-0.5-0.4-1-0.6-1.6c7.6-0.8,15.3-0.9,23-0.2c2.4,0.2,3-0.5,2.9-2.8c-0.1-7.3-0.1-14.6-0.1-22
		c2.3,2.3,1.6-1.5,2.9-1.4c1.3,0.2,3-0.7,3.6,1.4c-4.5-0.1-4.5-0.1-4.5,4.3c0,6,0,11.9,0,17.9c0,1.6,0,2.9,2.2,3.2
		c7.9,1,15.6,3.1,23.2,5.1l-1.3,1.5c-6.7-1.7-13.3-3.5-20.1-4.6c-3.4-0.6-4.2,0.5-4.1,3.7c0.2,6.1,0.1,12.1,0,18.2
		c0,1.8,0.5,2.8,2.4,3.1c7.1,0.9,14,2.4,20.8,4.5c1.4,0.4,2.2,0.4,2.2-1.4c0-7.2,0-14.5-0.1-21.7c-0.1-0.6-0.3-1.1-0.6-1.6
		c1.5,0.7,1.5,2,1.5,3.3c0,6.4,0,12.8,0,19.3C159.5,157.4,158.7,159,157.2,159.8z"/>
	<path id="Path_40519" class="st3" d="M103.2,206.1l-8.4,1.4c-1.4-0.6-2.5-1.7-3-3.2c-2.1-5.3-5.1-10.3-8.9-14.5
		c-1-1.2-2.1-2.4-0.5-3.9l-0.1-0.1c6-1.1,11.8-2.9,17.8-3.7c2.4-0.3,3.4-0.1,3.3,2.6C103.1,191.8,103.2,199,103.2,206.1z"/>
	<path id="Path_40520" class="st3" d="M160.6,146.9c0-3.3,0.1-6.5,0-9.8c0-2,0.4-2.9,2.6-1.9c3.9,1.8,7.9,3.4,11.9,5
		c1.9,0.8,1.6,1.7,0.8,3.1c-2.8,5.1-5.5,10.3-8.2,15.4c-0.5,1-0.6,3-2.5,2.1c-1.8-0.8-4.7-0.4-4.5-3.8
		C160.7,153.7,160.6,150.3,160.6,146.9z"/>
	<path id="Path_40521" class="st0" d="M75.4,107.4c1-1.7,1.4-3.6,1.2-5.6c-0.1-5.7-0.1-11.3,0-17c0.1-2.1-0.6-4.1-0.7-6.1
		c2,0.2,1.2,1.7,1.2,2.7c0,6.3,0,12.6,0,18.9c0,10.5,0,20.9,0,31.4c-1.2-3.8-0.3-7.8-0.6-11.7c-0.3-4,0.6-8.1-0.6-12
		C75.8,107.9,75.5,107.7,75.4,107.4z"/>
	<path id="Path_40522" class="st5" d="M160.5,173.4c0-3.2,0-6.4,0-9.6c0-0.8-0.3-1.9,0.5-2.2c1.2-0.4,2.4,0.5,3.6,1
		c1.3,0.6,0.5,1.6,0.2,2.4c-1.1,2.8-2.3,5.6-3.4,8.3L160.5,173.4z"/>
	<path id="Path_40523" class="st2" d="M283.4,78.4c0.8,0.6,0.8,1.6,0.9,2.5s1.1,2.3-0.6,2.4c-1.6,0.1-0.9-1.4-1.1-2.3
		c0-0.3,0-0.7-0.1-1L283.4,78.4z"/>
	<path id="Path_40524" class="st1" d="M592.6,184.4c0.2,0,0.5,0.1,0.7,0.1c2.4,3.9,4.7,7.8,7.2,11.6c14.7,22.5,29.4,45,44.2,67.4
		c2.5,3.8,2.5,3.8-1.5,6.4c-42.6,27.9-85.2,55.9-127.7,83.8c-2.8,1.8-4.1,1.7-6-1.2c-15.6-24-31.3-47.9-47-71.8
		c-0.7-1.1-1.2-2.3-2.4-2.9c-0.2-0.3-0.3-0.6-0.3-1c3.4-5,8.5-7.7,13.7-10.2c1.3,0,1.6,1.1,2.2,2c4.2,6.1,8,12.6,12.2,18.7
		c1.4,2,2.5,2.8,5,1.3c6.2-3.8,12.2-8.1,18.4-12.1c14-8.9,27.8-18.2,41.8-27.3c12.7-8.2,25.3-16.5,37.9-24.9
		c3.3-2.2,3.6-3.5,1.4-6.8c-5.8-8.3-11-17-16.7-25.4c-0.8-1.2-2.5-2.4-1-4.3C578.9,183.8,588.6,182,592.6,184.4z"/>
	<path id="Path_40525" class="st1" d="M570.8,355.5c-11.9-1.4-23.9-0.1-35.3,3.7c-4.9,1.5-9.5,4-13.6,7.1c-1.8,1.4-2.8,1.3-3.7-0.7
		c-0.2-0.3-0.3-0.6-0.5-0.9c-4.7-7.3-4.7-7.3,2.7-12.2c41.4-27.1,82.8-54.3,124.2-81.5c2.6-1.7,4-1.7,5.8,1.1
		c4.3,7,8.8,13.8,13.4,20.5c1.4,2.1,1.3,3.3-0.9,4.7C634,316.1,605.2,335,576.4,354C574.8,355.1,572.8,355.7,570.8,355.5z"/>
	<path id="Path_40526" class="st2" d="M575.7,357.6c7.5,1.9,14.9,3.7,21.6,7.9c2.4,1.5,4.6,3.2,6.6,5.2c7.4,7.6,7.4,16.6,0,24.2
		c-6.1,6.2-13.8,9.5-22.1,11.4c-17.1,4-34,3.4-50.4-3.7c-5.9-2.5-11.1-6.5-15-11.7c-4-9.7-2.3-16.5,6.1-23c10-7.7,21.8-10.3,34-11.1
		C562.9,356.6,569.3,356.8,575.7,357.6z"/>
	<path id="Path_40527" class="st0" d="M460.1,277c0,0.2,0,0.5-0.1,0.7l-0.6,0.6l-0.3,0l-0.3,0c-1.8,0.4-2.6-0.9-3.3-2
		c-6.5-9.4-12.6-19.1-18.8-28.6c-1-1.2-1.4-2.8-1.1-4.3l1.4-3.6c1.1,0.6,2.1,1.5,2.7,2.7c6.3,10.1,13.1,20,19.6,30.1
		C460.1,273.9,461.4,275.2,460.1,277z"/>
	<path id="Path_40528" class="st2" d="M452.3,230.7c0.2-0.1,0.3-0.3,0.3-0.5c0.5-1.6-0.1-3.6,2-4.4c1.1-1.4,1.8-3,2.2-4.8
		c3.4-7.3,6.9-14.5,10.3-21.8c5.1-11,10-22.1,15.2-33.1c1.3-2.8,0.8-3.7-2.3-3.6c-5.7,0.2-11.4,0.1-17.2,0c-1.2,0-2.5-0.3-3.5-0.9
		c4.3-2.8,8.5-5.6,12.8-8.4c17.2-11.3,34.4-22.5,51.5-33.8c2.1-1.4,2.9-1.2,4.3,0.9c14.6,22.4,29.2,44.8,43.9,67.1
		c0.4,0.7,1,1.3,1.5,1.9c0.2,0.3,0.4,0.6,0.3,1c-0.3,1.1-0.9,2.2-1.8,3c-7,5.9-10.8,14-14.4,22.1c-4,9.1-7.3,18.4-12.6,26.9
		c-8,12.8-19.1,20.3-34.3,21.8c-6.2,0.6-12.4,0-18.5,1.1c-3.6,0.6-7.1,1.3-10.6,2.3c-1.8,0.7-3.7,0.8-5.5,0.5
		c-2.8-2.2-4.5-5.3-6.3-8.3c-5.2-8.4-11-16.4-16.1-24.8C452.4,233.5,451.8,232.3,452.3,230.7z"/>
	<path id="Path_40529" class="st2" d="M592.6,184.4c-6.3,0.2-12.3,2-18.2,4.2c-0.4,0-0.7-0.3-0.7-0.6c0,0,0,0,0,0
		c-8.4-12.9-16.7-25.9-25.1-38.8c-6.8-10.4-13.6-20.7-20.3-31.1c-1.4-2.2-2.4-2.4-4.6-1c-22.1,14.6-44.4,29.1-66.5,43.7
		c-1.8,1.2-4,1.9-6.2,1.8c-15.2-0.1-30.4,0-45.6-0.1c-2.8,0-4.2,0.8-5.2,3.4c-1.4,3.7-3.3,7.2-5.2,11.4c-1.5-2.3-2.8-4-4-5.8
		c-3.4-5.2-6.7-10.4-10.2-15.5c-1.4-2.1-1.4-3.1,0.9-4.6c27.1-17.6,54.2-35.4,81.2-53.2c16.4-10.8,32.8-21.5,49.2-32.3
		c1.5-1,2.3-1.3,3.5,0.5c25.5,39,51,78,76.5,117C592.3,183.7,592.5,184,592.6,184.4z"/>
	<path id="Path_40530" class="st2" d="M455.9,219.4c-1.1,1.7-2.9,1.2-4.4,1.2c-24.6,0-49.3,0.1-73.9,0.1c2.4-7.3,6.1-14.1,9.2-21.1
		c4.8-10.8,9.8-21.4,14.6-32.2c1.1-2.4,2.4-3.4,5.2-3.4c23.4,0.1,46.9,0.1,70.3,0.1c3.9,0,4,0,2.3,3.7
		c-7.2,15.8-14.4,31.6-21.6,47.4C457,216.6,456.5,218,455.9,219.4z"/>
	<path id="Path_40531" class="st0" d="M573.8,187.8l0.7,0.7c6.5,10,12.9,20,19.6,29.8c1.9,2.8,1.5,4.2-1.3,6
		c-32.6,21.2-65.1,42.5-97.5,63.9c-1,0.6-2,1.2-2.9,1.9c-2,1.6-3.2,1-4.5-1c-4.2-6.7-8.6-13.3-12.9-20c-0.7-0.7-0.3-1.2,0.3-1.7
		c2.4,0,3.8,1.4,4.9,3.4c2.6,4.3,5.4,8.4,8.3,12.6c2,2.9,3.1,3.2,6.1,1.2c6.2-4,12.3-8.1,18.4-12.1c24.6-16.2,49.2-32.2,73.8-48.4
		c4.7-3.1,4.8-3.6,1.6-8.2c-4.7-6.9-9.1-14.1-13.8-21.1c-1-1.4-2.1-2.9-1.3-4.8l0-0.7C573.3,188.8,573.5,188.3,573.8,187.8z"/>
	<path id="Path_40532" class="st0" d="M242.1,184.4c-3.3-8.9-4.8-18.3-6.3-27.6c-0.4-2.7-0.8-5.3-1.1-8c-0.1-0.8-0.7-2.2,0.7-2.3
		c1.3-0.1,1.1,1.3,1.2,2.1c0.8,7.4,2,14.8,3.6,22.1c0.7,3.2,1.6,6.3,2.4,9.5c0.1,0.4-0.1,1.4,0.8,1c0.3-0.1,0.5-0.8,0.7-1.2
		C244.8,182.1,243.4,183.2,242.1,184.4z"/>
	<path id="Path_40533" class="st2" d="M351.4,230.7c4.6,14.1,9.4,28.1,13.8,42.2c5.7,18.4,10.7,36.9,15.6,55.6
		c0.7,2.7,0.1,3.4-2.6,3.4c-11.3-0.1-22.6-0.1-33.9,0c-2.4,0-3.4-0.9-4.2-3.1c-2.8-8-5.8-15.9-8.8-23.9c-1.2-0.7-2.1-1.8-2.7-3.1
		c-7.9-21.9-16-43.9-23.4-66c-1-2.5-1.7-5.1-2.2-7.8c-0.4-2.4-1.3-3.9-4.1-3.6c-10.5,0.5-20.9,2.2-31.3,3.1
		c-9,0.9-18.1,1.9-27.4,2.3c1.8-1.2,3.6-2.4,5.4-3.6c17.9-11.5,36.3-22.1,55.7-30.8c5.8-2.6,11.9-4.3,18.1-5.2
		c7.1-0.9,12.5,1.3,16.4,7.5c4.2,6.9,7.8,14.1,10.9,21.5c0.4,0.8,0.8,1.7,1.2,2.5C348.7,224.8,349.9,227.8,351.4,230.7z"/>
	<path id="Path_40534" class="st2" d="M352.6,198.3c-4.1-1.9-3.7-5.4-4.3-8.3c-0.5-2.8-1.2-4.1-4.4-3.6c-3.3,0.4-6.6-0.6-9.2-2.7
		c-2.1-1.6-3.9-1.5-6.2-0.8c-13.5,4.2-26.6,9.6-39.1,16c-2.2,1.1-3.6,1.3-5-1.2c-2.3-4-5-7.9-7.5-11.8c-1-1.5-1.2-2.6,1-3.3
		c18-6.5,36.2-12.3,55.5-14.1c5.5-0.5,11-0.4,16.4,0.5c1.4,0.2,2.8,0.4,2.8,2.4C352.5,180.4,352.6,189.4,352.6,198.3z"/>
	<path id="Path_40535" class="st0" d="M298.9,224.3c2.1-0.7,3.6-0.8,4.6,1.9c9.2,26,18.4,51.9,27.7,77.9c0.1,0.2,0.1,0.5,0.1,0.7
		c-3.1,0.3-2.8,2.9-3.2,5c-0.2,1.3-0.2,2.5-0.3,3.8c0.7,0.4,1.2,1.1,1.3,1.9c0,3.1-0.6,6.2-1.6,9.2c-0.3,0.8-1.1,1.3-1.9,1.3
		c-0.9-1.8-0.7-4-2-5.6c-2.4-10.2-4.9-20.4-7.3-30.6c-4.6-19.6-9.2-39.2-13.7-58.8c-0.3-1.5-0.5-3-0.8-4.5
		C301.3,225,299.8,225,298.9,224.3z"/>
	<path id="Path_40536" class="st0" d="M222.5,231.3c-5.3-6.7-8.8-14.5-11.9-22.4c-4.7-11.4-7.8-23.4-9.2-35.7
		c-0.9-3.5,0.4-7.1-0.7-10.6c0-0.6,0-1.3,0-1.9c-0.4-5.7-0.4-11.4,0-17.1c0.1-1.1-0.5-3.3,0.9-3.1c1.7,0.4,0.5,2.5,0.5,3.9
		c-0.4,5.4-0.4,10.8,0,16.1c2.5,26.5,12.8,49.4,31.7,68.3c0.9,0.9,1.7,2.3,3.3,1c1.1,0.4,1.9,1.2,2.3,2.2c-2.2,0.8-4.5,1-6.8,0.8
		c-2.4-0.1-4.8-0.1-7.2,0.2C223.6,233.3,223,232.6,222.5,231.3z"/>
	<path id="Path_40537" class="st2" d="M435.6,243.3c6.9,10.4,13.8,20.8,20.7,31.1c0.8,1.3,1.7,2.5,2.5,3.8c-0.1,0.4-0.1,1-0.4,1.3
		c-7.4,8.9-12.2,19.6-19,28.9c-4.7,6.7-11.2,12-18.7,15.4c-2.4-4.9-4.8-9.7-7.3-14.6c-0.4-0.8-0.6-2-1.7-2c-1.2-0.1-1.3,1.2-1.7,1.9
		c-2.2,4.2-4.5,8.4-6.4,12.8c-1.5,3.6-3.6,6.1-7.5,6.7c-3.3,2.3-7.3,1.6-11,2.1c-1,0.1-1.7-0.7-2.3-1.3
		c-4.8-17.3-9.6-34.6-14.6-51.9c-4.2-14.7-9-29.2-14.2-43.6c-0.9-2.5-0.3-3,2.1-3c8.5,0.1,17,0.1,25.6,0.1c1.2,0,2.4-0.2,3.1,1
		c0.1,0.6,0.1,1.3,0.2,1.9c0.8,0.7,1.4,1.6,1.6,2.6c3.6,13.9,17.8,22.2,31.7,18.6c5.3-1.4,10-4.4,13.5-8.6
		C433,245.5,433.7,243.7,435.6,243.3L435.6,243.3z"/>
	<path id="Path_40538" class="st2" d="M460.1,277c-7.2-11-14.4-22-21.6-33.1c-0.8-1.3-1.8-2.5-1.4-4.1c0.9-1.2,1.4-2.7,1.4-4.2
		c-0.1-4.3,2.3-4.9,5.7-4.4c2.2,0.3,4.6-0.9,6.6,1.1c1.2,0.1,1.7,1.1,2.2,1.9c6.5,10.2,13.2,20.3,19.8,30.4c0.5,0.7,1.3,1.5,0.6,2.5
		c-0.1,0.3,0,0.9-0.2,1C468.9,271.1,464.5,274,460.1,277z"/>
	<path id="Path_40539" class="st2" d="M388.6,231.5c12.2,2.7,24.3,5.5,36.5,8.2c2.5,0.5,4.8,1.9,7.5,1.5c2.9,0.7,1.8,2.5,0.9,3.8
		c-4.9,7.4-13.3,11.7-22.1,11.4c-12-0.3-22.3-8.6-25-20.3c-0.2-1.3-0.3-2.5-0.1-3.8C386.4,230.7,387.3,230.5,388.6,231.5z"/>
	<path id="Path_40540" class="st6" d="M386.6,229c0.1-6.8,0.1-6.8,6.9-6.8c19.1,0,38.2,0,57.2,0c1.2,0,3.4-0.9,3.1,1.9
		c-0.5,1.5-0.1,3.5-2.1,4.3l0,0c-0.5,1.3-1.6,1.2-2.6,1.2c-20.3,0-40.6,0-60.9,0C387.5,229.6,386.9,229.6,386.6,229z"/>
	<path id="Path_40541" class="st6" d="M385,229.1c-10.2,0.6-20.5,0.1-30.7,0.3c-1.6,0-4.6-5.1-4-6.4c0.4-0.8,1.2-0.6,1.8-0.6
		c10.9,0,21.9,0.1,32.8,0.2C385,224.7,385,226.9,385,229.1z"/>
	<path id="Path_40542" class="st0" d="M388.6,231.5c-2.3-0.3-2,1.2-1.8,2.7c2.2,15.5,19.1,25.4,33.7,19.9c5.1-1.9,9.4-5.3,12.4-9.8
		c0.8-1.2,1.4-2.2-0.4-3c1.6-0.2,2.3,1,3.1,2.1c-5.7,9.5-14.1,14.4-25.2,13.9c-10.5-0.5-18.2-5.8-23-15.2c-1.4-2.4-2.1-5.2-2.3-8
		C386.2,233.1,385.9,229.2,388.6,231.5z"/>
	<path id="Path_40543" class="st0" d="M473.5,267.1l-22.7-34.9l1.5-1.5c0.1,0.9,0.5,1.8,1.1,2.5c7.4,11.3,14.8,22.6,22.2,33.9
		c0.2,0.2,0.3,0.3,0.2,0.5c-0.1,0.2-0.2,0.2-0.2,0.2l-0.7,1.4L473.5,267.1z"/>
	<path id="Path_40544" class="st0" d="M386.4,229c2.8,0.1,5.8,0.2,8.6,0.2c17.5,0,35,0.1,52.4,0c1.5,0,3.1,0.4,4.3-0.9
		c-0.6,1.7-2.1,1.5-3.5,1.5c-19.3,0-38.6,0-58,0C388.9,230,387.4,230,386.4,229z"/>
	<path id="Path_40545" class="st0" d="M451.6,228.4c0.4-1.6,1.1-3,2.1-4.3l0.8,1.6c-0.3,1.6-1,3.1-2,4.4
		C452.2,229.6,451.9,229,451.6,228.4z"/>
	<path id="Path_40546" class="st2" d="M607.8,393.8c-3.5,13.6-11.8,23.3-24.2,29.6c-25.7,13-57.5,0.5-67.3-26.4
		c-0.2-0.7-1.3-1.4-0.3-2.2c0.6-0.5,1.3,0,1.8,0.5c9.2,9.3,21,12.8,33.4,14.4c15.5,1.9,30.5,0.3,44.6-6.9
		C600.3,400.5,604.3,397.5,607.8,393.8z"/>
	<path id="Path_40547" class="st2" d="M75.4,107.4l0.7,0.5c0,7.1-0.1,14.2-0.1,21.3c0,1.5,0.2,3.1-1.5,3.9c-1.7,2.7-5,2.7-7.5,3.9
		c-3.2,1.5-6.5,3-9.7,4.6c-1.5,0.6-3,1-4.6,1.3l0,0c-1.1,0.1-1-0.7-1-1.3c0-7.2,0-14.5,0-21.7c-0.1-0.8,0.3-1.6,0.9-2.2l0.9-0.7
		c4.1-1.1,7.5-3.6,11.4-5.2C68.4,110.4,71.9,108.9,75.4,107.4z"/>
	<path id="Path_40548" class="st2" d="M52.9,144.5l1.2-0.9c6-4.4,12.8-6.9,19.7-9.3c1.3-0.5,2.5,0,2.5,1.9c-0.1,7.2,0,14.4,0,21.7
		c0.1,0.8-0.4,1.6-1.1,2l0,0c-1.2,1.5-3.1,2-4.7,2.7c-4.6,2.1-9.5,3.6-13.8,6.4c-1.1,0.7-2.3,0.2-3.4,0.7c-0.2,0-0.4,0.1-0.5,0.2
		c-1,0-1-0.8-1-1.5c0-7.2,0-14.4,0-21.6C51.7,145.7,51.8,144.8,52.9,144.5z"/>
	<path id="Path_40549" class="st3" d="M52.3,116.2c-0.8-7.7-0.1-15.4-0.4-23.1c0-1.4,0.8-2.1,1.9-2.7c6.2-3.4,12.7-6.4,19.4-9
		c2.1-0.8,2.9-0.5,2.8,2c-0.1,6.4-0.1,12.8,0,19.3c0,2.1-0.6,3-2.7,3.8c-7.2,2.6-14.3,5.6-20.9,9.7L52.3,116.2z"/>
	<path id="Path_40550" class="st1" d="M52,210.9c0-2.9,0.1-5.8,0-8.8c-0.3-2,0.9-4,2.7-4.8c5.9-3.1,11.9-5.9,18.1-8.3
		c2.3-0.9,3.2-0.5,3.2,2.1c-0.1,6.2-0.1,12.4,0,18.6c0.2,1.5-0.7,3-2.2,3.5c-6.5,2.6-12.9,5.6-19,8.9c-2.2,1.3-2.9,0.5-2.8-1.8
		C52,217.3,52,214.1,52,210.9z"/>
	<path id="Path_40551" class="st1" d="M75.9,181.6c0.6,3.3-0.8,5-4,6.1c-5.8,2-11.4,4.6-16.8,7.5c-1.5,0.8-3,1.5-3-1.2
		c-0.2-6.8,0.3-13.7-0.5-20.5c-0.1-0.5,0.4-1,0.7-1.5c2.1,1.5,4.5,2.3,7.1,2.4c4,0.3,8,1.4,11.6,3.2C73,178.3,74.7,179.7,75.9,181.6
		z"/>
	<path id="Path_40552" class="st1" d="M82.3,185.9c0.1,0.4,0.1,1,0.4,1.3c5.9,5.7,9.5,12.7,12.1,20.3c-4.5,1.1-9.1,2-13.6,3.3
		c-2.9,0.8-3.5-0.2-3.4-2.8c0.1-5.4,0.2-10.7,0-16.1C77.6,188.4,78.8,186.4,82.3,185.9z"/>
	<path id="Path_40553" class="st3" d="M75.9,181.6c-6.9-3.3-13.9-5.9-21.7-6c-2.6,0-1.9-2.1-2-3.6l2.6-1.7c1.1-1.9,3.1-2.5,4.9-3.3
		c4.3-2,8.7-4,13.3-5.6c1-0.4,1.9-0.9,2.9,0C75.9,168,75.9,174.8,75.9,181.6z"/>
	<path id="Path_40554" class="st0" d="M75.1,159.8c1-1.1,0.8-2.4,0.8-3.6c0-6-0.2-12.1,0.1-18.1c0.1-3.5-1.1-3.5-3.7-2.4
		c-5,2.1-10.1,4.2-14.9,6.8c-1,0.5-1.9,1.3-3.2,1.2l-1.4-0.6c6.8-4.2,14.1-7.5,21.8-9.8c1.5,0.8,2.3,2.4,2.2,4c-0.1,6.5,0,13,0,19.4
		C76.6,157.9,76.7,159.2,75.1,159.8z"/>
	<path id="Path_40555" class="st0" d="M75.9,161.3c-7.4,2.2-14,5.9-21,8.9l-1.6-0.7c6.9-4.2,14.2-7.5,21.9-9.8L75.9,161.3z"/>
	<path id="Path_40556" class="st0" d="M52.6,117.7c-1.3,5.5-0.4,11.1-0.5,16.7c0,2.8-0.9,5.8,0.7,8.5c-1.6,0.3-1.4-0.9-1.4-1.7
		c0-7.1,0-14.1,0-21.2C51.3,119.1,51.8,118.2,52.6,117.7z"/>
	<path id="Path_40557" class="st0" d="M52.9,144.5c-0.6,0.6-0.9,1.4-0.9,2.2c0,7.2,0,14.4,0,21.6c0,0.6,0.2,1.2,0.7,1.5
		c-2,0-1.4-1.6-1.4-2.5c-0.1-6.5,0-13.1,0-19.6C51.3,146.3,51.4,145,52.9,144.5z"/>
	<path id="Path_40558" class="st3" d="M338.1,45.4c-1.7,0.5-2.9-0.8-4.1-1.5c-4.3-2.5-8.6-5-13.4-7.8c5.4-3.1,10.3-6,15.3-8.9
		c0.8-0.5,1.8-0.5,2.6,0.1c4.9,3.1,10.3,5.5,15,9L338.1,45.4z"/>
	<path id="Path_40559" class="st3" d="M373.2,23.2c-2.3-0.7-4.3-2.2-5.6-4.3c-0.8-4,1.3-6.5,4.6-8c5.9-2.7,12.7-2.7,18.6,0.1
		c2.9,1.3,5.1,3.4,4.6,7c-2.2,4.6-6.6,5.4-10.9,6.5c-2.6,0.7-5.2,0.3-7.8,0.4C375.2,25.1,373.9,24.4,373.2,23.2z"/>
	<path id="Path_40560" class="st3" d="M383,44.1c-3.1-0.5-6.2-0.4-9.2-1.5c-2.5-0.9-4.7-2.6-6.3-4.7v0c-0.7-5.1-0.2-10.2-0.3-15.3
		c0-0.5,0.4-0.8,0.9-0.6c0.7,1,1.7,1.7,2.8,1.9c2.3,0.7,5,0.3,7.1,2.1c2.2,1.5,4.8-0.1,7,0.7c0.4,5.6,0.8,11.2-0.2,16.8L383,44.1z"
		/>
	<path id="Path_40561" class="st0" d="M378.1,25.9c-2.5,0-5-0.7-7.1-2.1l2.1-0.7c3.7,1,7.5,1.5,11.2,1.4
		C382.5,25.9,380,24.7,378.1,25.9z"/>
	<path id="Path_40562" class="st0" d="M385,43.4l0.2-16.8C386.1,32.2,386.5,37.8,385,43.4z"/>
	<path id="Path_40563" class="st7" d="M388.5,72c-0.6,0.4-1.1,0.9-1.9,0.4c-5.8-3.2-11.3-6.7-16.7-10.5c7.8-1.2,15.5-2.4,23.3-3.5
		c0.8-0.1,0.9,0.6,1,1.2C392,63.6,390.1,67.7,388.5,72z"/>
	<path id="Path_40564" class="st2" d="M120.3,383.9l38.8-57.4c1.3,0.6,0.8,1.6,0.8,2.3c0,17.4,0,34.8,0,52.2c0,1.8,0.3,3.5-2.5,3.5
		c-11.9-0.1-23.8-0.1-35.7-0.1C121.2,384.2,120.7,384.1,120.3,383.9z"/>
	<path id="Path_40565" class="st3" d="M335.9,47c0.1,5.6,0.1,11.2,0.2,16.8c0,2-0.5,2.5-2.4,1.4c-4.1-2.5-8.2-4.9-12.4-7.2
		c-1.2-0.6-1.9-1.8-1.7-3.1c0-4.7,0-9.3-0.1-14c-0.1-2.5,0.8-2.8,2.8-1.6C326.8,41.9,331.4,44.5,335.9,47L335.9,47z"/>
	<path id="Path_40566" class="st3" d="M386.5,74.3c1.4,2.4,0.6,5,0.7,7.5c0.1,3.8,0,7.7,0,12.3c-4.8-2.8-9-5.6-13.6-7.7
		c-5.2-2.3-7.7-5.6-6.7-11.5c0.3-2.8,0.3-5.6,0.1-8.4c-0.1-2.6,0.5-3.2,2.9-1.7c4.9,3,9.9,5.8,14.8,8.6
		C385.2,73.8,385.9,74,386.5,74.3L386.5,74.3z"/>
	<path id="Path_40567" class="st2" d="M135.6,206.7c-1.6-0.2-2.8-1.8-2.6-3.4c0,0,0,0,0,0c0.2-6.2,0.1-12.4,0-18.6
		c0-2.2,0.5-3,3-2.7c6.1,1,12.2,2.3,18.1,3.9c1.4,0.4,2.6,0.7,2,2.8c-1.8,6.3-3.3,12.6-4.4,19.1c-0.2,1-0.4,1.8-1.7,1.8
		C145.5,208.2,140.6,207.2,135.6,206.7z"/>
	<path id="Path_40568" class="st0" d="M368.2,21.9c-1.7,2.8-0.5,5.8-0.8,8.7c-0.2,2.4,0.1,4.8,0.1,7.2c-1.6-5.1-0.5-10.3-0.6-15.5
		C367,21.8,367.5,21.4,368.2,21.9z"/>
	<path id="Path_40569" class="st2" d="M246.3,288.8c-2.4,0.4-4.9,0.2-7.2-0.5l7.9-0.9L246.3,288.8z"/>
	<path id="Path_40570" class="st2" d="M325.4,326c1.2-4,1.9-8.2,2.3-12.4l2-7.3c2.4,4.4,3.4,8.7,4.9,12.7c1.4,3.7,2.9,7.4,4,11.2
		c0.7,2.6,2,3.8,4.7,3.4c2.5-0.4,3.7,0.6,4.6,3c2,5.1,3.2,10.5,3.5,15.9c-5.9,6.9-11.2,14.3-18.5,19.9c-2.4,1.8-4.9,3.6-7.3,5.4
		c-9.2-2.6-17.4-6.5-21.7-15.9c-0.2-0.5-0.5-1.1-0.6-1.6c-1.6-5.8-1.2-6.3,4.8-6.3c3.4,0,6.8-0.1,10.1,0c1.7,0,2.6-0.6,2.9-2.3
		C322.4,343.1,324.5,334.6,325.4,326z"/>
	<path id="Path_40571" class="st2" d="M399.7,330.1c-3.7,7.2-7.3,14.4-11.1,21.6c-0.4,0.8-1.6,1.3-2.6,1.7
		c-8.9,3.8-17.9,7.5-26.8,11.3c-2,0.9-2.9,0.5-3.6-1.6c-2.1-6.3-2.7-12.9-4.1-19.3c-0.3-1.3,0.6-1.5,1.6-1.8
		c6.6-1.5,13.2-3.1,19.7-4.7c2.3-0.6,3.4,1,4.9,2.2c6.5,5.2,7.2,5.1,12.6-1.2c2.3-2.7,4.4-5.7,7.4-7.9
		C398.2,329.7,399.1,329.6,399.7,330.1z"/>
	<path id="Path_40572" class="st1" d="M383,329.5c4.4-0.8,8.8-1.1,13.3-0.8c-3.2,3.6-6.4,7.1-9.5,10.7c-1.8,2-3.6,2.3-5.7,0.4
		c-1.4-1.3-2.9-2.3-4.3-3.5c-0.6-0.5-1.5-1-1.3-1.9c0.3-1,1.3-0.6,2.1-0.7c0.6-0.1,1.2-0.1,1.7,0C382.5,334,384,332.8,383,329.5z"/>
	<path id="Path_40573" class="st8" d="M360.7,333.5c3.4,0,6.8,0,10.2,0c0.8,0,1.8,0,1.8,1.1c0,0.8-0.9,0.9-1.6,1.1
		c-6.1,1.5-12.2,3-18.4,4.4c-1.6,0.4-3.7-2.7-3.7-5.3c0.1-2.2,1.8-1.2,2.9-1.3C354.9,333.5,357.8,333.5,360.7,333.5z"/>
	<path id="Path_40574" class="st3" d="M289.1,354c1.8,0,3.5,0,5.3,0c6.4,0,6.4,0,7.1,6.3c0.1,1,0.3,1.8-1,2.1
		c-7.4,1.8-14,5.9-21.7,6.7c-2.6,0.3-4,0.1-3.3-3.1c0.7-3.2,1.1-6.4,1.5-9.7c0.2-1.7,1-2.4,2.7-2.3C282.8,354.1,286,354,289.1,354z"
		/>
	<path id="Path_40575" class="st0" d="M200.6,143.6c0,5.7,0,11.4,0,17.1C199.6,155,199.6,149.2,200.6,143.6z"/>
	<path id="Path_40576" class="st0" d="M202,160.5c-1.2-5.3-1.2-10.8,0-16.1C202,149.8,202,155.2,202,160.5z"/>
	<path id="Path_40577" class="st0" d="M200.6,162.6c1.4,3.5,0.7,7.1,0.7,10.6C200.6,169.8,200.3,166.2,200.6,162.6z"/>
	<path id="Path_40578" class="st9" d="M128.5,152.7c-6.7,1.2-13.6,1.2-20.4,0C114.9,151.8,121.7,151.8,128.5,152.7z"/>
	<path id="Path_40579" class="st0" d="M498.8,304.4l80.8-53c-1.2,3.1-76.1,52.7-80.2,53.9L498.8,304.4z"/>
	<path id="Path_40580" class="st0" d="M561.6,285.1l-52.8,34.6l-0.9-1.4l52.8-34.6C560.9,284.1,561.2,284.6,561.6,285.1z"/>
	<path id="Path_40581" class="st0" d="M577.1,326.3c0-6.7,5.4-12.1,12-12.2c0.1,0,0.1,0,0.2,0c6.7,0.2,12.1,5.7,12.2,12.4
		c-0.1,6.8-5.7,12.2-12.4,12.1c-6.5,0.1-11.9-5.2-12-11.7C577.1,326.7,577.1,326.5,577.1,326.3z"/>
	<path id="Path_40582" class="st0" d="M547,390.5c-6.7-3.5-7.4-10.2-1.4-14.8c7.8-6.1,24.6-6,32.4,0.2c4.3,3.4,4.9,7,2.2,11.9
		c-0.5,0.2-1,0.2-1.4,0c-7.1-5.8-15.2-7.3-24-5c-5.3,1.4-6,2.4-5.9,7.5c-0.3,0.6-1,0.8-1.6,0.5C547.2,390.6,547.1,390.6,547,390.5z"
		/>
	<path id="Path_40583" class="st0" d="M579.2,386.7l1,1c-3.9,5.1-9.6,6.1-15.5,6.6c-6.2,0.5-12.3-0.2-17.7-3.8l1.4-0.7
		c1.8-2.1,3.7-0.6,5.4-0.1c6.8,2,14,1.4,20.4-1.6C575.9,387.4,577.3,386.3,579.2,386.7z"/>
	<path id="Path_40584" class="st1" d="M475.6,267.8l0-0.7c10.9-3.7,22.2-4.1,33.5-4.7c15.6-0.8,26.9-8.8,34.7-22.1
		c5.6-9.6,9.1-20.2,13.9-30.2c3.7-7.8,8.1-15,15.4-20c6.5,9.8,13,19.7,19.6,29.5c1.7,2.5-0.3,3-1.7,3.9c-14.6,9.6-29.3,19.2-44,28.8
		c-17.7,11.6-35.4,23.1-53,34.9c-2.9,1.9-4.4,1.7-6.3-1.3C483.8,279.7,480.1,273.4,475.6,267.8z"/>
	<path id="Path_40585" class="st0" d="M428.2,209.7c-4.1,0-8.2,0-12.3,0c-0.8,0-1.8,0.4-2.2-0.6c-0.4-1.2,0.8-1.5,1.5-2
		c9.5-6.3,19.1-12.7,28.6-19c3.5-2.3,7-4.7,10.5-6.9c0.7-0.5,1.5-1.6,2.4-0.7c0.8,0.8-0.1,1.7-0.5,2.5c-4,8.2-8,16.3-12,24.6
		c-0.6,1.4-2,2.3-3.6,2.1C436.6,209.6,432.4,209.7,428.2,209.7z"/>
	<path id="Path_40586" class="st0" d="M407.2,189.1c0.4-4.9,7.1-9.9,12-9c2.3,0.4,3.9,2.6,3.6,4.9c0,0.2-0.1,0.4-0.1,0.6
		c-0.9,4.3-6.4,8.6-10.8,8.4C408.8,193.9,407,191.9,407.2,189.1z"/>
	<path id="Path_40587" class="st0" d="M420.8,270.6c4.6,3.6,6.4,9.8,4.5,15.3c-1.8,5.6-7,9.4-12.8,9.6c-5.6,0.1-10.2-1.9-12.8-7.3
		c-0.3-0.6,0-1,0.4-1.4c1.7-0.6,3.4,0.1,5.2,0.1c8,0.2,13.3-5,13.1-12.9c0-1.1-0.5-2.3,0.4-3.4C419.4,270.3,420.1,270,420.8,270.6z"
		/>
	<path id="Path_40588" class="st0" d="M420.8,270.6l-1.4,0.7c-1.3,1.1-2.6,0.5-4,0.1c-8.7-2-14.6,3.1-13.9,11.9c0.1,1.4,0.9,3.1-1,4
		l-0.9,0.9c-3.6-5.8-2.4-13.3,2.9-17.7C408,266,415.2,266,420.8,270.6z"/>
	<path id="Path_40589" class="st3" d="M579.2,386.7c-8.4,7-17.9,7.1-27.8,4c-1-0.3-1.8-1.1-2.9-0.9c-4.4-3.5-4.5-4.1,0.5-6.6
		c8.8-4.4,17.7-4.3,26.5,0C577.1,383.9,578.4,385.2,579.2,386.7z"/>
	<path id="Path_40590" class="st3" d="M400.6,287.4c-0.3-1.4-0.7-2.7-0.9-4.1c-0.8-4.5,1-9,4.7-11.7c3.5-2.8,8.2-3.4,12.2-1.6
		c1,0.4,1.9,0.9,2.8,1.3c2,4.8,0.5,10.4-3.7,14.1C411.6,289.3,405.5,290,400.6,287.4z"/>
</g>
</svg>
