<?xml version="1.0" encoding="utf-8"?>
<!-- Generator: Adobe Illustrator 24.2.1, SVG Export Plug-In . SVG Version: 6.00 Build 0)  -->
<svg version="1.1" id="Layer_1" xmlns="http://www.w3.org/2000/svg" xmlns:xlink="http://www.w3.org/1999/xlink" x="0px" y="0px"
	 viewBox="0 0 386.4 313.9" style="enable-background:new 0 0 386.4 313.9;" xml:space="preserve">
<style type="text/css">
	.st0{fill:#5ED58C;}
	.st1{fill:#060D43;}
	.st2{fill:#FEFEFE;}
</style>
<g>
	<path id="Path_40947" class="st0" d="M191.7,237.3l-1,0.1c-1.3-0.8-0.7-1.6-0.1-2.5c0.7-1.2,1.9-2.2,2-3.7c0.4-2.5-1.3-4.9-3.9-5.3
		c-0.2,0-0.5-0.1-0.8-0.1c-3.4-0.3-5.6,1.5-5.8,4.8c0,0.7,0.1,1.3,0.2,2c0.1,0.8,0.9,1.7,0,2.3c-0.9,0.6-1.8-0.2-2.6-0.3
		c-1.1-0.1-1.1-1.2-1-2c0.3-3.3,1.2-6.5,1.6-9.9c1.4-5.9,2.2-12,3.3-18c0.7-3.7,1.2-7.4,1.8-11c0.2-0.9,0.3-1.8,0.4-2.7
		c0.2-0.7,0.4-1.3-0.4-1.8c-0.8-0.5-1.4-0.1-2.1,0.4c-3.8,2.8-8.4,4.2-12.3,6.8c-0.6,0.5-1.4,0.7-2.1,0.7c-3.1-0.9-6,0.3-9,1
		c-1.6,0-3.1,0.1-4.7,0c-1.2-0.2-2.4-0.6-3.5-1.2c-2.2-1.3-3.8-2.9-3.5-5.8c0.2-2.4-0.9-4.7-0.6-7.1c2.8-2.1,6.3-1.9,9.4-2.3
		c8.1-1.2,15.9-3.6,23.8-5.5c5.3-1.3,10.7-2.2,15.9-4.2c2.1-0.6,4-1.7,5.6-3.2c1.3-0.2,1.5,0.7,1.6,1.7c1,7.5,3.6,14.4,6.7,21.2
		c5.5,12,11.8,23.6,17.5,35.5c1,2.1,2.8,4,2.6,6.7c0,3.8-3,7-6.8,7.3c-1.3,0.1-2.5,0-3.8,0c-0.5,0-1.2-0.1-1.3,0.1
		c-2.4,2.7-5.3,1.2-7.9,0.6C204.6,240.3,198.1,239,191.7,237.3z"/>
	<path id="Path_40948" class="st1" d="M321.6,221.7c0.8,2,1.6,4.1,2.2,6.2c0.7,3.6,3,6.7,6.4,8.2c3.4,1.7,3.3,2,0.5,4.7
		c-0.5,0.4-1,0.9-1.4,1.4c-0.6,0.8-2.2,1.2-1.9,2.2c0.4,1.2,2,1,3.1,1.2c2.9,0.3,5.8,0.8,8.3,2.6c1.4,1.1,2.1,2,0.4,3.6
		c-1.3,1.4-2.6,2.9-3.7,4.5c-0.4,2.9-2.1,5.1-4.1,7.2c-1.3,1.4-2.3,2.7-0.4,4.4c0.2,0.2,0.1,0.6-0.1,0.9c-0.5,0.3-1.2,0.4-1.8,0.1
		l-23.1-5.1c-0.2-1.1,0.6-1.5,1.3-1.9c1-0.2,1.8,0.3,2.7,0.5c2.4,0.6,4.9,0.3,7.1-0.9c2.5-1.2,3.1-3.8,0.8-5.3
		c-2.8-1.9-5.4-4-8.2-5.9c-10.6-7-20.5-14.7-28.6-24.6c-1.4-1.5-2.5-3.2-3.4-5c-5.2-7-9.3-14.8-11.9-23.1c-0.5-1.9-2-3.4-3.9-3.9
		c-0.9-0.2-1.6-0.9-2.5-1.2c-0.9-0.7-1.4-1.7-1.2-2.8c0.1-1.8,0-3.5,0.1-5.3c0.3-1.6,0.5-3.3,0.5-4.9c0.1-0.9,0.5-1.7,1.2-2.3
		c1.7-0.7,2.1,0.4,2.2,1.7c0.3,2.8,0.9,5.6,1.5,8.5c0.5,2.3,1.7,3.6,4,4c4.1,0.6,8.3,0.9,12.3-0.1c5.7-1.5,8.9-5.8,10.5-11.3
		c0.3-1.7,0.7-3.4,0.9-5.1c0.1-1.2,0.4-2.5,2-2.6l0,0c0.7,3-0.2,6.1,0.5,9.1c0.3,5.2-0.4,10.4,0.1,15.5c0.4,3.7,1,7.3,2.9,10.5
		c1,1.7,2.1,3.4,3.9,4.5c1.8,1,2.1,3.2,3.6,4.4c0.6,0.4,1.4,0.2,1.9,0.7c3.2,3.1,7.1,3.3,11.2,2.7
		C319.3,219.2,321.1,219.3,321.6,221.7z"/>
	<path id="Path_40949" class="st0" d="M150.6,289.7c0.1-13.8,10-24.1,24.5-24.1c13.6-0.1,24.4,10.4,23.9,24.9
		c-0.5,14.3-10.7,23.3-24.4,23.5C161.2,314.2,150.6,303,150.6,289.7z"/>
	<path id="Path_40950" class="st1" d="M120.8,65.4c3.9,12.7,10.2,24.1,18,34.8c2.8,3.8,5.8,7.4,8.8,11c0.1,0.4,0,0.8-0.3,1
		c-1.1,0.6-1.9-0.1-2.6-0.8c-0.9-0.9-2.1-1.4-3.4-1.5c-0.7,0-1.5,0.1-2.2,0.1c-1.4-0.6-2.6-1.6-3.6-2.8c-4.4-5-9.1-9.7-13.4-14.8
		c-1-1.2-1.9-2.5-2.5-3.9c0,0.1-0.1,0.6,0.2,0.4c0.1-0.1,0.2,0,0.2,0.2c1.2,7.1,2,14.3,3.4,21.3c0.1,1.8-0.2,3.4-2.1,4.1
		c-1.1,0.6-2.2,0.3-3.3,0.2c-0.9-0.2-1.8,0.3-2.7,0.1c-1.3-1.3-1.7-3.1-2.2-4.8c-1.8-6.5-3.2-13-4.8-19.5c-0.1-0.6-0.3-1.1-0.4-1.7
		c-0.5-1.8-1.6-2-3.1-1.2c-1.4,0.8-2.5,2-3.1,3.5c-0.3,1-0.8,1.8-1.5,2.6c-0.6,0.5-1.3,1-2,1.4c-3.5,0.1-6.8-1-10.2-1.7
		c-4.4-1-8.9-2-13.3-3c-2.9-0.7-3.5-0.3-4.4,2.5c-0.2,0.7-0.4,1.5-0.5,2.2c-0.2,1-0.7,1.7-1.9,1.6c-0.8-0.5-0.6-1.2-0.3-1.9
		c1.6-10.2,8.5-15.8,17.3-19.7c1.3-0.6,2.7-1,4.1-1.4c5.7-1.4,9.2-5.4,12-10.1c1.5-2.7,3.1-5.4,5-7.9c2.8-3.5,6-4,9.6-1.3
		c0.5,0.4,0.9,1,1.7,1c0.4-0.2,1-0.2,1.4,0.1c1,2.6,2.3,5.1,2.3,8C121,64.3,121,64.9,120.8,65.4z"/>
	<path id="Path_40951" class="st1" d="M120.8,65.4l-1-1.2c1.2-2.1,2.9-4,4.9-5.5c0.5-0.1,1-0.2,1.5-0.1c1,0.4,1.7,1.4,2.6,2
		c2.1,1.5,3.6,1.4,5.2-0.7c0.9-1.1,1.7-2.3,2.3-3.6c0.7-1.5,0.2-2.3-1.4-2.3c-1.6,0-3.2-0.4-4.5-1.3c-1-0.7-1.6-1.5-0.8-2.8
		c-1.5,3.8-5,4.4-8.2,5.4c-0.5-0.3-0.9-0.6-0.6-1.2l0.5-0.8c-0.2-0.5-0.2-1.1,0-1.5c0.8-0.5,1.2-1.6,0.8-2.5
		c-1.1-4.9,1.3-10.7,7.6-11.8c4.3-0.8,10.8,0.7,11.7,7.6c0.7,4.8,2.9,8.3,7.5,10.2c1.5,0.7,3,1.5,4.4,2.4c3,1.9,3.1,4.3,0.5,6.7
		c-4.5,4.3-10.2,4.8-15.8,5.6c-0.9,0.1-1.9-0.3-2.5,0.8c-0.3,0.2-0.7,0.3-1.1,0.1c-2.2-2.5-5.2-2.5-8.2-2.9c-2.9-0.4-3.8-1.4-3.7-4
		C121.6,64.1,121.5,65.2,120.8,65.4z"/>
	<path id="Path_40952" class="st1" d="M191.7,237.3c5.8,0.3,11.4,2.1,17,3.4c2,0.5,4.1,0.9,6.2,1.3c0.5,0.1,1.1,0.2,1.5-0.2
		c1.8-1.9,4.2-1.5,6.4-1.6c6.6-0.3,9-4.9,5.9-10.8c-6.1-11.7-12.2-23.4-17.8-35.4c-2.9-6.4-5.4-13.1-7.2-19.9
		c-0.5-1.7,0.1-3.6-0.9-5.2c-2.3-2.4-2.5-6.2-0.3-8.7c2,0,2.3,1.4,2.3,2.9c-0.1,3.4,0.3,6.7,1.2,10c2.1,8.2,5.1,16.1,8.7,23.7
		c4.6,9.7,9.8,19,14.3,28.7c1.3,2.9,3.3,4.6,6.5,4.8c0.9,0.1,1.8,0.3,2.7,0.5c3.6,0.7,4.2,0,3.4-3.7c-0.5-2.5-1.3-4.9-1.9-7.3
		c-3.2-13.4-7.3-26.5-13.3-38.9c-0.6-1.3-1.3-2.5-2.1-3.8c-0.6-1-1.2-2-0.2-3c1-1,2.1-0.4,3,0.1c1.8,1,3.7,2,5.5,3
		c2.8,1.6,5.7,3,8.5,4.5c1.1,0.6,2.2,1,2.9-0.6c0.3-0.9,1.2-1.4,2.1-1.4c1,0.5,1.7,1.5,1.7,2.6c1.8,9.4,3.2,18.9,4,28.4
		c0.1,1-0.4,2-1.2,2.7c-1.8,0.7-2-0.5-2.2-1.7c-0.9-6.2-1.9-12.5-2.6-18.7c-0.4-3.9-2.1-6.3-5.8-7.7c-3.6-1.4-6.9-3.3-10-5.5
		c3.7,7.8,6.8,15.8,9.3,24.1c2.7,9,5,18.2,6.8,27.5c0.3,1.4,0.3,2.9-1,4c-0.5,0.5-0.8,1.1-0.8,1.8c0,1.4-0.4,3.4,1.1,3.8
		c1.4,0.4,1.4-1.7,2-2.7c0.7-1.3,0.6-3.1,2.7-3.1c0.4,0.1,0.7,0.3,1,0.6c0.1,0.1,0.1,0.1,0.2,0.2c0.9,3.7-3,10.4-7,11.6
		c1.3-0.3,2.7-0.5,4-0.6c3.6-0.2,5.5-1.8,6.6-5.2c0.3-1,0.4-2.2,0.8-3.2c0.5-1.4,1.3-2.4,3-1.6c1,1.1,0.5,2.4,0.2,3.6
		c-0.5,2.2-0.4,4.5,0,6.7c0.2,2,1.7,3.6,3.7,3.9c8.5,2.1,17,3.8,25.5,5.8c3.2,0.7,6.4,1.3,9.6,2.1c1.1,0.3,2.2,0.4,2.1,2
		c-0.5,0.9-1.2,0.6-1.9,0.4c-6.8-1-13.5-2.8-20.2-4.3c-9.6-2.1-19.2-4.2-28.8-6.3c-15.9-3.6-31.8-7.3-47.7-10.9
		c-2.7-0.6-5.4-1.2-8.1-1.8C192.6,238.4,192,237.9,191.7,237.3z"/>
	<path id="Path_40953" class="st1" d="M214.3,111.8c2.9-6.6,10.5-10.7,17.1-9.3c4.4,0.9,5.5,2.8,3.8,6.8c-0.3,0.6-0.2,1.3,0.2,1.8
		c1.9,3.2,1.5,4.3-2.1,5.4c-1.6,0.5-1.8,1.5-1.7,2.8c0.2,0.3,0.1,0.8-0.3,1c-1.8,0.7-2.6-0.9-3.5-1.8c-1.4-1.3-2.5-2.6-4.3-0.6
		c-0.5,0.5-1.2,0.7-1.9,0.4c-2.4-1.2-5-1.6-7.4-2.6C214,114.5,214,113.1,214.3,111.8z"/>
	<path id="Path_40954" class="st1" d="M42.2,204.5c-8-1.8-16.1-3.6-24.1-5.5c-5.3-1.2-10.7-2.4-16-3.6c-0.8-0.1-1.5-0.3-2.1-0.8
		c0.5-1.1,1.3-0.5,1.9-0.4c3.8,0.8,7.6,1.5,11.3,2.6c2.6,0.8,4,0.2,4.9-2.2c0.2-0.3,0.4-0.6,0.6-0.8c0.6-0.2,0.9,0.2,1.2,0.7
		c0.3,2.1,1.7,2.8,3.5,3.3c4.4,1.2,8.9,1.7,13.3,2.9c-2-0.8-3.9-2-5.5-3.5c-1.9-1.7-3.2-3.8-2.3-6.5c0.5-1.5-0.8-2.5-0.6-3.9
		c0.3-0.6,0.7-1.1,1.3-1.5c1.9-0.1,3.6-0.9,4.9-2.3c5.2-4.7,11.3-8.2,17.4-11.7c8-4.6,16.3-8.8,24.1-13.8
		c9.2-5.9,14.4-14.2,15.3-25.1c-0.1-3.7,1.2-7.3,1.1-11c0-0.4,0.2-0.8,0.5-1.1c1.1-0.5,1.8,0.2,1.7,1.1c-0.3,5.4,3.9,8.2,7,11.4
		c6.4,6.6,12.4,13.5,18,20.7c4.2,5.5,8.1,11.3,11.7,17.3c0.6,1,1.4,2,1,3.3c-0.2,0.4-0.6,0.9-1,1.2c-1.6,0.6-2.1-0.7-2.6-1.6
		c-3.8-6.4-7.9-12.5-12.4-18.4c-6-7.6-12.4-14.9-19.1-21.8c-0.4-0.4-0.8-1-1.4-0.8c-0.8,0.2-0.8,1-0.9,1.7
		c-1.1,11.8-7.6,20.1-17,26.5c-6.7,4.6-14,8.1-21,12.1c-6.6,3.5-12.9,7.6-18.9,12.1c-1.5,1.1-2.8,2.5-3.9,4c-2.1,3-2,4.6,1,6.5
		c2.9,1.8,5.6,4,7.9,6.6c0.6,0.7,1.4,1.3,0.8,2.4C43.2,204.7,42.6,204.8,42.2,204.5z"/>
	<path id="Path_40955" class="st0" d="M330.7,268.2c-4.2-1.1-4.2-1.1-1.4-4.5c2.1-2.5,4-5.1,6.1-7.7c-0.2,1.3,0.7,1.7,1.6,2.2
		c3.6,2,7.1,4.1,10.5,6.4c2.9,2.1,5,5,6,8.5c-1.6,1.2-3-0.3-4.5-0.5c-5.5-0.8-10.9-2.4-16.4-3.5
		C331.9,269.1,331.2,268.7,330.7,268.2z"/>
	<path id="Path_40956" class="st1" d="M293.3,172.1c-0.9,1.9-0.2,4-0.8,6c-0.1,0.9-0.4,1.8-0.9,2.6c-0.8-0.4-1.2-1.3-1-2.1
		c0-0.6,0.1-1.2,0.2-1.8c0.6-5.2,0.1-5.9-4.8-7.3c-5.7-1.7-11.4-3-17.2-4c-2.1-0.4-4.1-1-6.1-1.7c-0.8-0.3-1.6-0.5-1.7-1.6
		c0-0.6,0.5-0.9,0.9-1.3c1.2-0.9,2.4-0.5,3.6-0.2c6.8,1.6,13.7,2.7,20.4,4.8c0.7,0.2,1.6,0.7,2.1-0.1c0.4-0.8-0.4-1.4-1-1.9
		c-2-1.7-3.9-3.5-5.7-5.4c-1.6-1.8-1.6-2.8-0.2-4.6c1.9-2.2,4.3-3.8,7-4.9c1.4-0.7,3.4-1,3.6-2.8c0.1-1.9-1.9-2.4-3.2-3.1
		c-8.6-4.6-17.5-8.6-26.7-12c-1.1-0.4-2.7-0.4-2.1-2.4c0.4-0.4,0.9-0.5,1.4-0.2c10.9,3.6,21.5,8.3,31.4,14.2
		c0.7,0.4,1.3,0.8,1.9,1.3c1.8,1.5,1.9,3,0,4.4c-1.6,1.2-3.4,2.2-5.2,3c-1.8,0.9-3.5,1.9-5.2,3.1c-1.7,1-1.6,2.2-0.2,3.4
		c2,1.6,3.8,3.3,5.6,5.1C291.7,165.1,293.6,168.1,293.3,172.1z"/>
	<path id="Path_40957" class="st1" d="M121.7,24.2c3.2-8.9,9.4-15.2,17.6-19.3c14.3-7.2,28.3-6.4,41.6,2.8
		c6.6,4.5,11.5,11.1,13.8,18.8c-0.1,0.6,0.1,1.3-0.6,1.7c-1.6,0.2-1.7-1.2-2-2.1c-3.1-7.8-8-14-15.3-18.2c-9.9-5.6-20.3-6.8-31.1-3
		c-9.3,3-16.9,9.7-21.1,18.4c-0.5,1-0.8,2.4-2.5,2C121.7,25,121.5,24.6,121.7,24.2z"/>
	<path id="Path_40958" class="st1" d="M67.6,95l0.5,1.7c1.4,0.4,1.1,1.5,1,2.5c-0.6,10.7-0.2,21.3,2.5,31.8c0.6,2.5,0.9,5.1,1.6,7.6
		c0.6,2.2-0.4,3.7-2.1,4.9c-6.5,4.7-12.5,9.9-18.8,14.9c-3.1,2.5-5.7,5.5-8.8,7.9c-0.8,0.7-1.5,1.7-2.8,1.1
		c-0.4-0.2-0.6-0.7-0.4-1.1c4.3-4.5,8.9-8.7,13.8-12.5c5.3-4.2,10.6-8.3,15.9-12.4c0.9-0.5,1.3-1.6,0.9-2.6
		c-2.4-8.5-3.9-17.2-4.4-26.1C66.1,106.8,65.8,100.9,67.6,95z"/>
	<path id="Path_40959" class="st1" d="M194.1,27.9l0.6-1.6c8.8,23.3-7.3,49-31.9,52.1c-1.5-0.6-3,0.1-4.5-0.3c-0.6-1.9,1-1.8,2-1.9
		c4.8-0.3,9.5-1.6,13.8-3.8c12.6-6.5,19.5-16.8,20.3-31.1c0.3-3.6,0.1-7.2-0.8-10.8C193.3,29.7,192.9,28.6,194.1,27.9z"/>
	<path id="Path_40960" class="st0" d="M321.6,221.7c-1.5-1.2-3.4-1.5-5.2-0.9c-5.2,1.5-8.9-0.7-11.9-4.6c4.2-0.8,8.4-1.5,12.8-0.6
		C320.9,216.2,322,217.7,321.6,221.7z"/>
	<path id="Path_40961" class="st1" d="M157.4,118.4c6.1,4.1,13.4,3.5,20.1,5c1.3,0.3,2.6,0.5,4,0.7c0.2,1.1-0.5,1.5-1.3,1.9
		c-1.8-0.1-3.6-0.3-5.4-0.6c-2.5-0.3-2.9,0.1-2.7,2.6c0.1,0.6,0,1.2-0.2,1.7c-0.7,0.8-1.7,0.6-2.6,0.6c-0.3,0-0.5,0-0.8-0.2
		c-0.8-0.5-0.5-1.4-0.5-2.1c-0.3-3.3-4.6-6-7.7-4.8c-0.8,0.3-0.8,0.8-0.4,1.4c0.5,0.9,0.8,1.7,0,2.5c-0.9,0.4-1.6,1-2.1,1.8
		c-2.3,1.6-4.6,1.8-6.9-0.2c-0.9-0.8-2.2-0.8-3.3-1.2c-1.5-0.6-2.9-1.4-1.6-3.4c0.4-0.3,0.9-0.4,1.5-0.3c1.3,0.4,2.5,1.9,4.1,0.6
		c1.2-0.5,0.9-1.9,1.5-2.7c0.4-1.3,0.2-3.2,2.5-2.6c0.3-0.2,0.4-0.5,0.6-0.7C156.4,118.2,156.9,118.2,157.4,118.4z"/>
	<path id="Path_40962" class="st1" d="M181,223.2c-0.5,2.8-1,5.6-1.4,8.4c-0.3,2.1-0.2,2.2,2.3,2.8c-0.6-2.4-1.4-4.7,0.4-6.9
		c2.2-2.8,5.9-3.6,8.7-1.6c3.1,2.3,3.6,6.1,1.1,9c-0.7,0.8-1.5,1.4-1.3,2.6c-1.3,1.1-2.3-0.3-3.4-0.5c-3-0.5-6-1.4-8.9-2.1
		c-0.4-1.1-2.5-0.2-2.2-2c1.4-2.3,1.4-5,2.1-7.5c0.3-1.2,0.2-2.6,1.7-3.2C180.6,222.3,181.1,222.3,181,223.2z"/>
	<path id="Path_40963" class="st1" d="M192.5,126.3c4-0.8,7.8,0.5,11.7,0.6c2.8,0.1,5.7,0.6,8.5,0.8c3.3,0.2,3.3,0.2,2.1-2.9
		c-0.1-0.6-0.4-1.3,0.1-1.9c1.4-0.6,1.7,0.6,2.2,1.4c1.4,2.2,2.4,2.2,3.9,0.1c0.9-1.4,1.6-3,1.9-4.6c0.1-0.9,0.9-1.5,1.8-1.4
		c0,0,0,0,0,0c0.9,0.1,1.9,0.7,1.7,1.5c-0.6,2.5,0.4,5,0.2,7.4c-0.3,0.4-0.7,0.7-1.2,0.8c-1-0.1-2.3-1.7-2.8,0.6
		c-0.3,0.5-0.6,0.8-1.1,1.1c-1.2,0.5-2.2,1.6-3.7,1.2c-4.9-1-10-1.1-15-1.6c-3.2-0.4-6.3-0.9-9.5-1.2c-0.7,0-1.3-0.3-1.7-0.9
		C191.3,126.4,191.7,126.2,192.5,126.3z"/>
	<path id="Path_40964" class="st1" d="M120.8,222.1c-8.6-2-17.2-3.9-25.8-5.9c-5.7-1.3-11.3-2.5-17-3.7c-0.7-0.2-1.4-0.4-2.2-0.6
		c-0.2-0.8,0.4-1,0.8-1.4c1.1-0.3,2.3-0.3,3.5,0.1c9.8,1.4,19.2,4.3,28.8,6.2c3.4,0.7,6.7,1.6,10,2.5c0.7,0.2,1.5,0.3,1.9,1.1
		C121.1,221,121.1,221.6,120.8,222.1z"/>
	<path id="Path_40965" class="st1" d="M164.3,231.8c-4.9-0.4-9.4-2.3-14.2-3.2c-7.3-1.4-14.5-3.2-21.7-4.8c-0.2-0.2-0.2-0.6-0.1-0.8
		c0.8-1.2,2.1-0.9,3.2-0.7c11.1,2.2,22.2,4.2,33.1,7.2c0.9,0.2,1.9,0.3,2,1.5C166.1,232.1,165,231.6,164.3,231.8z"/>
	<path id="Path_40966" class="st1" d="M40.3,166.3l0.6,0.7c1,1.3-0.1,2-0.8,2.8c-3.4,3.6-6.7,7.3-10,11c-0.7,0.8-1.7,1.5-1.8,2.6
		c-0.2,1.5,1.4,1.5,2,2.3c0.2,0.3,0.3,0.6,0.2,1l-1.7,0.6c-0.1,0.7-0.7,1.1-1.4,1c0,0-0.1,0-0.1,0c-2-0.2-3.1,0.9-4,2.4
		c-0.7,1.1-1.4,2.2-2.1,3.4c-0.5,0.7-1,1.4-2,0.9l-0.5-1C24,183.2,31.8,174.5,40.3,166.3z"/>
	<path id="Path_40967" class="st1" d="M128.4,223.1l-0.1,0.8l-7.5-1.7l-0.5-1c2.6-1.7,5.3-3.1,8-4.6c3.7-2,7.4-3.9,11.2-5.8
		c2-1,2.7-2.3,2.3-4.4c-0.2-1-0.6-2,0.3-2.9c0.3-0.3,0.7-0.5,1.1-0.5c2.5,0.7,2.2,2.9,2.6,4.8c0,0.9,1,1.5,0.9,2.5
		c-0.2,1.1-1.1,1.4-1.9,1.8c-4.6,2.4-9.1,5-13.8,7.2C129.2,220,128.2,221,128.4,223.1z"/>
	<path id="Path_40968" class="st1" d="M330.7,268.2l22.8,5l7.8,1.9c-0.6,0.9-1.2,0.5-2.2,0.5c-10-2.4-20.1-4.1-30-6.9L330.7,268.2z"
		/>
	<path id="Path_40969" class="st1" d="M365.1,275.9c7.1,2,14.4,2.8,21.3,5.5c-8-1.1-15.8-2.8-23.6-4.9
		C363.4,275.5,364,276,365.1,275.9z"/>
	<path id="Path_40970" class="st1" d="M134.3,71l0.7-0.7c1-0.8,1.9-0.4,2.8,0.2c4.8,3,10.3,5,15.9,5.8c0.9,0.1,1.9,0.4,1.6,1.7
		c-0.9,1-2.2-0.3-3.1,0.4C145.5,77.8,139.7,74.9,134.3,71z"/>
	<path id="Path_40971" class="st1" d="M164.3,231.8c0.7-0.4,1.5-0.7,2.3-0.7c0.2-0.6,0.8-0.9,1.4-0.9c2.6,0.2,5.2,0.8,7.7,1.6
		c0.6,0.2,0.9,0.8,0.8,1.4c0.5,0.7,2.2,0,1.9,1.6C173.6,234,168.9,233.1,164.3,231.8z"/>
	<path id="Path_40972" class="st1" d="M42.2,204.5l1.2-0.6c0.5-0.9,1.6-1.4,2.6-1c3.8,0.9,7.7,1.5,11.5,2.6c0.8,0.2,1.6,0.5,1.8,1.5
		c0,0.9-0.7,0.8-1.2,1C52.7,207.2,47.5,205.7,42.2,204.5z"/>
	<path id="Path_40973" class="st1" d="M76.9,211.5l-1.1,0.5c-4.5-0.7-8.9-1.6-13.3-2.9c0.1-0.6,0.5-1.1,1-1.4c1.7-0.5,3.3,0,4.9,0.3
		c2.2,0.4,4.3,1.1,6.6,1.5C76.1,209.6,77.2,210,76.9,211.5z"/>
	<path id="Path_40974" class="st1" d="M244.8,122.9c3.3,0.8,6.8,1.2,10,2.5c0.8,0.4,1.7,0.7,2.6,1.1c0.2,0.8-0.3,1.1-0.8,1.4
		c-4.4-0.3-8.4-2.1-12.6-3c-0.7-0.2-1.1-0.8-1-1.5C243.4,122.5,244.1,122.7,244.8,122.9z"/>
	<path id="Path_40975" class="st1" d="M121.7,24.2l0.6,0.7c0.9,0.5,0.8,1.4,0.6,2.2c-0.7,3.3-1.9,6.4-2.1,9.8c0,0.7-0.5,1.3-1.2,1.4
		c-1-0.2-0.7-1.1-0.9-1.8C118.7,32.2,119.7,28,121.7,24.2z"/>
	<path id="Path_40976" class="st1" d="M192.5,126.3l-0.7,0.2c-0.4,0.4-0.7,1-1.4,1c-3.4,0-6.7-0.4-9.9-1.4c-0.7-0.1-1.2-0.8-1.1-1.5
		l2.1-0.6c2.9,0.4,5.8,0.7,8.6,1.2C190.9,125.4,192,125.3,192.5,126.3z"/>
	<path id="Path_40977" class="st1" d="M157.4,118.4l-1.2,0.6c-0.2,0.2-0.5,0.2-0.7,0.2c-3.5-0.3-5.7-2.5-7.9-4.9
		c-0.6-0.7-1.4-1.4-0.5-2.4l0.6-0.6C150.5,114.2,153.7,116.6,157.4,118.4z"/>
	<path id="Path_40978" class="st1" d="M231,120l0.6-0.6c0.8,1.4,2.2,1.5,3.6,1.7c1.7,0.3,3.5,0,5.1,0.8c-0.1,0.7-0.5,1.3-1.1,1.7
		c-2,0.2-4.1,0-5.8,1.5c-0.4,0.3-1,0.1-1.4-0.1C230.9,123.5,230.1,122,231,120z"/>
	<path id="Path_40979" class="st1" d="M215.3,123c-0.2,0.6-0.4,1.2-0.5,1.8c-1.4-4.2-1.6-8.7-0.5-13c0.1,1.4-0.3,2.8,0.5,4.1
		C216.6,117.8,216.9,121.3,215.3,123z"/>
	<path id="Path_40980" class="st1" d="M121.7,52.2l-0.5,1.1c-1.6-2.7-1.9-5.7-2.5-8.7c0.5-0.5-0.3-1.5,0.8-1.7c0.2,0,0.4,0,0.5,0.1
		C121.6,44.6,122.6,50.2,121.7,52.2z"/>
	<path id="Path_40981" class="st1" d="M298.2,261.7l1.7-0.6c0.2-0.5,0.6-1,1.1-0.9c2.4,0.1,4.8,0.7,6.9,2c0.3,0.2,0.3,0.6,0.2,0.9
		l-2.1,0.6C303.3,263.3,300.7,262.6,298.2,261.7z"/>
	<path id="Path_40982" class="st1" d="M152.2,78.5c1-0.6,2.1-0.3,3.1-0.5c0.9-1.1,1.9-1.2,2.8,0c1.5,0.3,3.2-0.2,4.6,0.5
		C159.2,78.7,155.7,79.2,152.2,78.5z"/>
	<path id="Path_40983" class="st1" d="M238.6,122.6l1.7-0.6c1.6,0,3.1,0.4,4.6,1l-1.6,0.5C241.4,125,239.7,124.7,238.6,122.6z"/>
	<path id="Path_40984" class="st1" d="M63.6,208.5l-1.1,0.6c-1.6,0.1-2.9-0.8-4.4-1.1l1.2-0.6C61.2,205.9,62.5,206.2,63.6,208.5z"/>
	<path id="Path_40985" class="st1" d="M293.8,181.2c-1-3-0.4-6.1-0.5-9.1C293.9,175.1,293.6,178.1,293.8,181.2z"/>
	<path id="Path_40986" class="st1" d="M365.1,275.9l-2.2,0.5l-3.8-0.7l2.2-0.5C362.6,275.2,363.9,275.4,365.1,275.9z"/>
	<path id="Path_40987" class="st1" d="M120.7,54.2l0.9,0.5c-0.2,2.3-1.2,2.7-3.4,1.6l-1.1-0.6L120.7,54.2z"/>
	<path id="Path_40988" class="st1" d="M256.2,127.1l1.1-0.6l3.7,1.4l-1.3,0.7C257.7,129.7,256.8,129.3,256.2,127.1z"/>
	<path id="Path_40989" class="st1" d="M119.4,43l-0.6,1.6c-0.1-0.1-0.1-0.3-0.1-0.4c-0.3-2.6-0.3-5.2,0-7.7v0l0.6,1.6
		C120.9,39.7,120.9,41.4,119.4,43z"/>
	<path id="Path_40990" class="st1" d="M118.7,36.5c0,2.6,0,5.1,0,7.7C118,41.7,118,39,118.7,36.5z"/>
	<path id="Path_40991" class="st2" d="M168.4,129.6c0.1,0.1,0.3,0.1,0.4,0.1c2.7,0.2,5.3,0.6,8,1.3c8.2,2.4,16.4,4.9,24.8,6.6
		c6.6,1.4,13.2,3.2,20,3.8c4.2,0.4,8.5,1.1,12.7,1.8c2.7,2.8,6.1,5.1,6.9,9.3c0.1,0.4,0.2,0.8,0.3,1.2c0.3,3.1-0.4,3.8-3.5,3.1
		c-5.3-1.2-10.6-2.6-15.8-4.1c-0.5-0.1-1-0.2-1.5-0.2c-2.6,0-5.1-1.3-7.8-0.5c-3.9,0.6-7.2,2.1-8.6,6.3c-0.2,0.8-0.7,1.5-1.4,2.1
		c-0.6,2.8-0.6,5.7,0,8.5c0.3,1.8-0.7,2.6-2.4,3.2c-10.5,3.6-21.5,5.5-32.2,8.5c-6.6,1.8-13.4,2.6-20.1,3.5
		c-1.2,0.3-1.2-0.6-1.3-1.3c-0.9-6.6-3.6-12.7-5.9-18.8c-1.5-3.8-3.2-7.6-5.1-11.2c-1.6-4-3.9-7.5-6-11.2c-1-1.8-1.9-3.5-2.7-5.4
		c-0.7-2.6-2.8-4.6-3.3-7.3c0-3.1-1.7-5.9-1.3-9.1c-0.4-3.4-0.5-6.7-0.7-10.1c-1.2-7.6-2.4-15.2-3.1-23.5c6.9,8.2,13.6,15.9,20.9,23
		c3.4,2.2,6,5.2,8.5,8.3c0.6,0.5,0.7,1.4,0.2,2c-0.1,0.2-0.3,0.3-0.5,0.4c-0.7,0.4-0.4,1-0.5,1.6c-0.1,0.4-0.2,0.8-0.3,1.2
		c0.1,0.7-0.2,1.5-0.8,1.9c0.1,1.8,1.5,1.7,2.7,2c1.3,0.3,2.7,0.4,3.4,1.8c0.1,0.3,0.5,0.4,0.7,0.6c1.1-1.8,3,0.4,4.3-0.9
		c1.2-0.9,2.6-0.5,3.8-0.2C163.5,128.3,166.2,127.7,168.4,129.6z"/>
	<path id="Path_40992" class="st1" d="M136.4,152.4c2.9,5.5,5.4,11.2,7.5,17.1c1.8,4.8,3,9.8,4.3,14.7c0.4,2.2,1,4.5,1,6.7
		c-0.1,3.5,1.9,4.9,4.7,5.9l1.4,0.5c-0.1,0.5-0.3,0.9-0.7,1.3c-2,1.1-3.5-0.3-4.9-1.3c-0.7-0.7-1.6-1.1-2.6-1.3
		c-2,0-3.1,1.2-3.3,3.2c-0.1,1.4,1.2,3.1-0.7,4.3l-0.5,0.6c-1.2,0.2-1.4-0.6-1.7-1.4c-1.9-6-3.9-12-6.2-17.8c-1.3-2-2.4-4.3-3.6-6.4
		c-0.5-1-1.1-2.2-0.1-3.3l0.4-1c1.3-0.3,1.8,0.7,2.3,1.5c2.7,4.5,5.1,9.3,6.9,14.3c0.5,1.5,0.8,3.5,3.2,3c1.9-0.4,2.9-1.9,2.5-4.3
		c-0.7-5.2-1.9-10.2-3.7-15.1c-2.2-6.3-4.3-12.6-7.4-18.4c-0.4-0.6-0.4-1.3-0.1-1.9C135.4,152.6,135.7,152.2,136.4,152.4z"/>
	<path id="Path_40993" class="st1" d="M181,223.2l-0.9-0.5c-0.8-0.3-0.9-0.9-0.9-1.6c0-1.1,0-2.2,0.2-3.3c1.8-7.1,2.6-14.4,4-21.6
		c0.1-0.9,0.4-1.8,0.9-2.6c0.6-0.5,1.4-0.6,2.1-0.2c-1.5,9-3.1,18-4.6,27C181.6,221.3,181.4,222.2,181,223.2z"/>
	<path id="Path_40994" class="st1" d="M186.5,193.3l-1.3,0.5c-0.4,0-0.7-0.2-0.8-0.5c-0.6-1.9-1.5-1.3-2.8-0.7
		c-3.6,1.6-6.9,3.7-10.4,5.5c-1.1,0.6-2.1,1.4-3.5,1c-0.5-0.1-0.9-0.5-1.1-1c0-0.4,0.1-0.8,0.3-1.1c0.7-0.8,1.8-0.1,2.6-0.6
		c5-2.7,9.9-5.5,15-8.2c0.8-0.4,1.8-1.4,2.7-0.7c0.8,0.6,0.1,1.7,0,2.6C186.8,191.2,186.6,192.3,186.5,193.3z"/>
	<path id="Path_40995" class="st1" d="M169.3,196.4l-2,1c-1.9,0.9-4,1.3-6.1,1.3c-0.5-0.3-0.9-0.8-1.1-1.4
		C163.2,196.3,166.2,195.6,169.3,196.4z"/>
	<path id="Path_40996" class="st1" d="M160.2,197.3l1.1,0.6c-1.6,2.4-5.7,2.4-7.1-0.1l1.1-0.6L160.2,197.3z"/>
	<path id="Path_40997" class="st0" d="M308,263.1c-2.7-0.8-5.4-1.5-8.1-1.9c-5.9-1.3-11.8-2.6-17.7-3.9c-7.1-1.6-14.3-3.2-21.4-4.8
		c-1.5-0.3-2.1-1.1-2.5-2.7c-1.2-4.2-0.4-8.3,0.2-12.5c-0.2-0.2-0.3-0.6-0.3-0.9c1.1-5.5,1-11.2,1-16.8c0-1.1-0.4-2.4,0.9-3.2
		c0.3-0.1,0.7-0.1,0.9,0.2c1.8,2.6,4.5,2.5,7.2,2.8c3.5,0.4,7.1-0.6,10.5,0.7c7.3,10.5,16.7,18.8,27.3,25.9c4.4,2.9,8.5,6.4,13,9.1
		c1.7,1,1.6,2.8,1.6,4.5c-0.1,1.6-1.3,2.1-2.5,2.9C314.8,264.7,311.4,263.9,308,263.1z"/>
	<path id="Path_40998" class="st2" d="M261.3,162c6.2,2.2,12.8,2.8,19.1,4.6c3.3,0.9,6.7,1.7,10.1,2.4c1.4,0.3,1.7,1.1,1.8,2.3
		c0.2,3.1-0.3,6.2-0.6,9.3c-1.1,3.2-2.9,6.1-5.4,8.4c-2.6,2.4-5.9,3.7-9.4,3.8c-4,0.1-8.1,0.3-12-0.9c-1.2-0.2-2.1-1.1-2.2-2.3
		c-0.7-4.2-1.5-8.4-2.2-12.6c-1.4-0.2-1.5-1.4-1.7-2.4c-0.4-3.5-1.1-7-1.4-10.6c-0.1-1.1-0.8-2.4,0.6-3.1
		C259.5,160.2,260.5,161,261.3,162z"/>
	<path id="Path_40999" class="st2" d="M278.6,220.1c-5.7,1.6-11.4,0.7-17.1-0.3c-1.7-0.3-0.9-2.1-1.2-3.2c-1-1-0.7-2.3-0.7-3.6
		c-0.1-4.5,0.3-9.1-0.5-13.6c0-2-0.2-3.9,0.1-5.9c0.1-0.9,0-1.6,1.2-1.7c4.6,0.2,6,3.3,7.2,7.1C270.2,206.6,273.9,213.7,278.6,220.1
		z"/>
	<path id="Path_41000" class="st1" d="M261.3,162c-0.3,0-0.7-0.1-1-0.1c-1.8-0.5-2.4-0.3-2.1,1.9c0.6,4.4,1.6,8.8,2.3,13.2l-1.6,7.3
		c-0.3,0.2-0.6,0.2-0.9,0.1c-1.4-0.7-1.3-2.1-1.3-3.3c-0.4-10.4-1.3-20.8-2.4-31.2c0-0.2,0-0.3-0.1-0.5c0-1.2-0.4-2.8,1.2-3.2
		c1.7-0.5,2,1.1,2.4,2.3c1.6,4.3,3.3,8.6,4.6,13.1L261.3,162z"/>
	<path id="Path_41001" class="st1" d="M258.3,184.2l0.5,0c0,1.5,0.1,3,0,4.5c-0.1,1.3,0.5,2.5,1.5,3.2c-1.3,2.4,0,5-0.5,7.4
		c0,1.4,1,2.9-0.6,3.9c-1.3-0.2-1.5-1.2-1.5-2.3c-0.1-4.5-0.9-9-0.6-13.6C257.3,186.2,257,184.9,258.3,184.2z"/>
	<path id="Path_41002" class="st2" d="M135.9,153.5c5.5,11.4,10,23.2,11.9,35.8c0.4,2.4-0.3,3.5-2.5,4.4c-4.4,1.8-4.3,1.9-5.8-2.6
		c-1.9-6.1-5.1-11.5-8.2-17c-5.8-10.4-12.6-20.1-20.5-28.9c-5.1-5.8-10.3-11.6-15.8-17c-0.8-0.8-1.3-1.8-1.3-2.9
		c-0.1-1.6-0.2-3.2-0.3-4.8c-0.8-0.6-0.7-1.5-0.9-2.3c-0.2-0.6-0.4-1.2-0.5-1.4c0.3,0.8,0.5,1.6,0.7,2.4c-0.2,4.8,0.3,9.6-0.3,14.4
		c-0.4,2.1-0.8,4.1-1.3,6.2c-2.1,8.9-8.2,14.7-15.5,19.5c-7.5,4.9-15.5,8.8-23.2,13.3c-6.8,4-13.6,7.8-19.2,13.4
		c-0.8,0.7-1.8,0.9-2.8,0.6c-1.2-0.3-2.4-0.7-3.7-0.9c-1.5-0.2-1.6-0.8-0.7-1.9c3.7-5.1,8.2-9.6,12.5-14.2c0.8-0.9,1.6-1.8,2.3-2.6
		c9.6-8.9,19.7-17.3,30.3-25.1c1.4-1.1,1.1-2.2,0.8-3.6c-2.5-10.1-4.4-20.4-4.4-30.9c0-3.6,0.2-7.2,0.6-10.8c0.6-2,1.2-4,1.7-6
		s1.6-2.3,3.5-1.8c8.1,2.1,16.3,3.9,24.6,5.4c1,0.1,1.9,0.6,2.5,1.4c3.5,3.9,6.6,8.2,9.4,12.7c2.2,3.5,4.8,6.8,7.5,9.9
		c0.9,3.8,3.6,6.7,5.4,10c0.5,0.7,0.9,1.4,1.3,2.1c1.4,2.3,2.5,4.8,3.8,7.1c1.9,4.2,4.5,8.1,6.6,12.2
		C135.2,150.8,135.6,152.2,135.9,153.5z"/>
	<path id="Path_41003" class="st2" d="M99.5,93.2c1.2-3.4,3-6.1,6.5-7.6c1.8-0.8,2.6-0.3,3,1.5c1,4.8,2.1,9.7,3.2,14.5
		c1,4.3,2.2,8.6,3.3,12.9c0.8,0.4,0.7,0.9,0.2,1.4c-0.5,0.4-0.9,0-1.2-0.4c-2.2-2.8-4-5.8-6.1-8.7c-2.4-3.7-5.1-7.3-8-10.7
		C99.7,95.3,99,94.4,99.5,93.2z"/>
	<path id="Path_41004" class="st2" d="M118.3,56.3c1.3-0.2,2.5-0.7,3.4-1.6c1.7-0.9,3.4-1.8,5-2.9c1.4-1,3-2.1,1.6-4.3
		c-0.3-0.4-0.2-1,0.2-1.3c0.1-0.1,0.2-0.1,0.3-0.2c0.7-0.3,1.1,0.1,1.5,0.6c0.5,0.7,0.6,1.6,0.2,2.4c-1.1,2.4,0.5,3,2.2,3.4
		c1.5,0.3,3,0.3,4.5,0.1c2-0.2,1.9,0.5,1.4,2c-0.9,2.3-2.1,4.4-3.6,6.3c-2.2,3-4.4,3.2-7.2,0.7c-0.6-0.6-1.2-1.2-1.8-1.8
		c-0.4-0.1-0.4-1.3-1.2-0.5c-1.2,2-2.5,4-4.9,4.9c-0.3-2.1-0.8-4.1-1.7-6C117.8,57.5,117.3,56.8,118.3,56.3z"/>
	<path id="Path_41005" class="st2" d="M147.1,111.9c2.2,3.2,5.4,5.2,8.6,7.1c0.2,0.5,0.4,1.1-0.5,1c-0.9-0.4-0.9,0.1-0.8,0.8
		c0.1,0.9,0.5,1.9-0.2,2.8c-0.4-0.2-0.2-1.1-0.9-1.1c-0.5,0-0.4,0.4-0.5,0.8c-0.1,0.5,0.3,1.4-0.6,1.4c-0.8,0-1.3-0.7-1.4-1.5
		c-0.1-0.7-0.3-1.4-0.7-2c-2.1-3.9-5.3-6.8-8.3-9.9c-0.5-0.5-1.2-1-1.5-1.7c-0.3-0.9,0.1-1.3,1-0.8
		C143.6,109.4,145.7,110,147.1,111.9z"/>
	<path id="Path_41006" class="st2" d="M117.8,113.4l2.9,0.6c1.1,0.3,1.4,1,1.7,2.1c0.6,2.4,0.2,4.8,0.7,7.2c0.3,1,0.5,2,0.6,3
		c0.2,0.7,0.3,1.4-0.5,1.7c-0.7,0.2-1.4-0.2-1.6-0.8c0,0,0,0,0-0.1c-1.3-3-3.7-5.3-4.5-8.6c-0.1-0.3-0.3-0.6-0.5-0.8
		c-0.5-1.2-0.5-2.6-0.1-3.9C116.7,113.2,117.1,113,117.8,113.4z"/>
	<path id="Path_41007" class="st1" d="M117.8,113.4c-1.2,0.2-1.1,1-0.9,1.8c0.2,0.9,0.3,1.8,0.5,2.6c0.2,0.6-0.1,0.8-0.6,0.6
		c-2.3-1.4-3.4-3.8-4.9-5.9c-3.8-5.2-7.1-10.8-11.3-15.7c-0.8-0.9-1.8-1.8-2.6-2.7l1.6-1.1c0.1,0.5,0.3,0.9,0.5,1.4
		c5.4,6.1,9.7,13,14.3,19.7c0.5,0.7,0.5,0.7,1.2,0.3C116.2,114,116.4,112.7,117.8,113.4z"/>
	<path id="Path_41008" class="st1" d="M141.5,108.8c-0.9,1.2,0.4,1.5,0.9,2c3,3.3,6.4,6.3,8.9,10.1c-1.4,1-3.3,1.1-4.9,0.5
		c-0.2-1-1.8-2.2,0.7-2.7c1.2-0.2,0.1-1-0.2-1.4c-1.8-2-3.7-4-5.6-6c-0.6-0.7-1.2-1.4-1.8-2C140.1,108.9,140.7,108.2,141.5,108.8z"
		/>
	<path id="Path_41009" class="st1" d="M122.7,123.6c-0.3-2.3-0.6-4.6-0.9-7c0-1-0.4-2-1.2-2.7c1.9-1,0.8-2.8,1.2-4.2
		c0.6,3.4,1.5,6.7,1.5,10.1C122.6,121.1,123.6,122.5,122.7,123.6z"/>
	<path id="Path_41010" class="st2" d="M119.4,43c0-1.6,0-3.3,0-4.9c0.6-4.5,1.6-8.9,3-13.2c1.4-3.1,3.1-6,5.1-8.7
		c10.8-13.7,29.4-18.5,45.4-11.8C183.6,9,190.4,17,194.1,27.9c2.3,7.8,2.2,16.1-0.3,23.8c-4,13.1-17.4,24.2-31,25.6
		c-1.6,0.2-3.2,0.4-4.7,0.6l-2.8,0c-7.3-0.9-14.2-3.5-20.3-7.6c-0.5-0.6-1.5-1.5,0.4-1.4c3.4,0.1,6.7-0.9,10-1.4
		c3.2-0.5,5.6-2.2,7.9-4.3c1.9-1.7,1.8-2.8-0.3-4.2c-1.7-1.2-3.6-2.2-5.5-3c-4.4-1.9-6.5-5.2-7.1-9.9c-0.6-5-2.8-6.9-7.8-7.3
		c-6.2-0.5-10.3,3.9-9.3,10.1c0.2,0.9,0.3,1.8,0.3,2.7c-0.1,0.8-0.6,2.1-1.7,0.6C120.9,49.2,120.1,46.1,119.4,43z"/>
	<path id="Path_41011" class="st1" d="M124.7,59.3c-1.1-1.1-1.3-2.8-0.6-4.2c0.7,1.8,1.3,3.3,1.8,4.7L124.7,59.3z"/>
	<path id="Path_41012" class="st2" d="M258.3,184.2c0,6.3,0.3,12.5,1,18.7c1,1.9,0.4,4,0.4,5.9c0.1,8.3-0.4,16.5-1,24.8
		c0.1,1-0.3,1.9-1,2.6c-0.3,0.1-0.6,0.2-0.9,0.2c-1.1-0.6-2.4-0.9-3.6-0.9c-1.4-0.1-2.5-0.8-2.4-2.4c0.7-6.7-0.4-13.4-0.3-20.2
		c0-0.7-0.2-1.4,0.2-2c-0.8-8.2-2-16.3-3.4-24.4c-0.4-2.1-0.8-4.3-1.2-6.4c-1.9-1.6-1.2-3.9-1.6-5.8c-0.6-2.4-0.8-4.8-1.6-7.2
		c-0.3-1.4-0.5-2.8-0.6-4.2c-0.7-4-1.1-8-2.1-11.9c-0.5-2-0.6-3.9-1-5.9c-0.1-2.3-1-4.5-1.3-6.3c0.7,2.2,1.1,4.9,1.6,7.6
		c-0.2,1.1-0.9,1.7-1.7,0.8c-3.5-4-7.6-7.6-9.9-12.5c-0.2-0.4-0.3-0.8-0.3-1.2c-0.1-0.4-0.1-0.8,0.1-1.1c2.4-1.8,1.8-5,3.4-7.2
		c0.1-0.4,0.4-0.6,0.8-0.7c0.2,0,0.7,0,0.7-0.1c1.1-3.1,3.6-2.1,5.8-1.9c1.5,0.6,3.1,0.9,4.6,0.9l13,3.7l3.6,1.6
		c11.4,3.7,22.3,8.7,32.5,14.8c2.8,1.7,2.7,2.7-0.2,4.4c-2.5,1.4-5.1,2.6-7.5,4.1c-4,2.4-4.1,3.9-0.7,7c2.4,2.1,5.1,3.9,6.6,6.9
		c0.5,0.6,0.6,1.3,0.3,2c-9.4-2.4-18.8-4.6-28.4-6.4c-1.3-0.3-1.8-1.4-2.2-2.5c-1.4-4-2.8-8-4.3-12c-0.9,0.1-0.8,0.6-0.7,0.9
		c1.6,11.8,2.1,23.8,2.9,35.7C258.2,183.7,258.3,184,258.3,184.2z"/>
	<path id="Path_41013" class="st2" d="M245.7,182.4c0.2,3.2,0.2,3.3-2.5,1.9c-5.5-2.8-10.8-5.8-16.3-8.7c-0.6-0.3-1.2-0.6-1.7-0.9
		c-0.6,0.6-0.2,1,0,1.4c4.9,7.8,7.9,16.5,10.8,25.2c3.1,9.1,5.2,18.5,7.4,27.8c0.1,0.2,0.1,0.5,0.2,0.7c0.6,3.3,0.4,3.4-2.7,2.8
		c-2.5-0.5-4.9-1.1-7.5-1.4c-1.9-0.1-3.5-1.2-4.3-3c-6.6-13.4-13.9-26.4-19.6-40.1c-3.2-7.7-5.7-15.7-6.2-24.1
		c0.6-1.8-0.2-3.6,0.4-5.5c1.5-3.9,4.4-5.9,8.3-6.8c0.5-0.1,1-0.2,1.5-0.4c1.7-0.5,3.3,0.1,5,0.5c7,1.3,13.9,3.4,20.9,4.8
		c1.5,0.2,2.7,1.4,2.8,2.9c0.4,1.7,0.3,3.5,0.9,5.2c0,1.3,0.6,2.5,0.7,3.7C244.4,173.2,245.6,177.7,245.7,182.4z"/>
	<path id="Path_41014" class="st0" d="M250.2,235.7c-1.3,2.5-1.9,5.2-3.4,7.6c-0.5,0.7-0.9,1.7-1.8,1.6c-0.9-0.1-0.8-1.2-0.9-1.9
		c-0.5-1.8-0.9-3.6-0.9-5.5c0-1.3-0.6-2.8,1.4-3.5c0.9-0.3,0.7-1.5,0.5-2.3c-2-9.7-4.4-19.3-7.3-28.8c-2-6.4-4.4-12.7-7.1-18.9
		c-0.9-2-1.8-3.9-2.9-6.2c3.7,1.1,6.6,3.4,9.9,4.9c2.3,1.1,4.5,2.2,6.8,3.4c1.4,0.6,2.3,1.9,2.4,3.4c1,8.1,2.3,16.1,3.4,24.2
		c0.4,0.2,0.6,0.6,0.6,1.1c0.3,6.5,1,13,0.3,19.5C250.9,234.9,250.8,235.4,250.2,235.7z"/>
	<path id="Path_41015" class="st2" d="M217.7,242.4c1.6-0.7,3.4-1,5.1-0.9c5.2-0.2,7.9-2.6,8.3-7.7c0.1-1.3,0.6-1.6,1.7-1.4
		c2.4,0.5,4.8,0.9,7.2,1.4c0.9,0.2,1.6,0.6,1.6,1.6c-0.1,3,1,5.8,1.5,8.7c0.2,1.4-0.1,1.8-1.6,2.4c-5.5,2.1-10.3-1.2-15.4-1.8
		C223.4,244.3,220.6,244,217.7,242.4z"/>
	<path id="Path_41016" class="st2" d="M257,235.8l0.3,0c0.5,0.2,1.1,0.4,1,1.1c0,0.1,0,0.2,0.1,0.3c-1.3,0.7-1.4,1.9-1.6,3.2
		c-1,5.9-3.9,8.3-9.8,8.2c-1.9,0-3.8,0.2-6-0.9c7.2-0.8,8.3-6.3,9.8-11.5c0-1.3,0.6-1.5,1.8-1.2C254,235.5,255.5,235.7,257,235.8z"
		/>
	<path id="Path_41017" class="st1" d="M257,235.8c-0.9,0.9-1.9,0.5-2.9,0.2c-1.1-0.2-2.3-1.1-3.4,0.2l-0.6-0.6
		c1.2-7.3,0.3-14.6,0-21.9c0-0.9,0.2-1.9,0.6-2.7c0.9,6.8,1.3,13.7,0.9,20.6c-0.1,2.1,0.3,3.2,2.5,3.2
		C255.3,234.7,256.3,235.1,257,235.8z"/>
	<path id="Path_41018" class="st1" d="M213.5,152c-0.3,0.2-0.6,0.3-0.9,0.4c-5.8,1-8.6,4.6-9,10.3c-0.1,0.5-0.2,1-0.3,1.5
		c-0.2-1.2,0.1-2.5-0.5-3.7c0.8-5.2,3.9-8.2,9.6-9.1C212.6,151.7,213.3,151.4,213.5,152z"/>
	<path id="Path_41019" class="st1" d="M245.7,182.4c-1.1-4.6-1.9-9.2-2.4-13.9c0.5-0.4-0.1-1.2,0.5-1.6c1.3,4.3,1.7,8.8,2.4,13.3
		C246,180.9,245.8,181.7,245.7,182.4z"/>
	<path id="Path_41020" class="st0" d="M250.9,249.9c1.2-0.4,2-2.3,3.5-1c0.4,0.4,0.8,1.2,0.4,1.6
		C253.5,251.5,252.3,250.3,250.9,249.9z"/>
	<path id="Path_41021" class="st2" d="M256.1,246.1c-0.2,1.5,1.3,2.9,0.4,4.4C256.1,249.1,254.6,247.8,256.1,246.1z"/>
	<path id="Path_41022" class="st2" d="M232.1,124.6l0,0.9c-1,1.4-1.8,3-2.3,4.6c-0.3,0.9-0.6,1.8-1.9,1.5c-1.1-1.3-2.2-2.6-2-4.5
		c-1.8-2.4-1-5.1-0.7-7.9c-1.3,0.3-1.2,1-1.3,1.6c-0.6,2.4-1.8,4.5-3.4,6.3c-1.4,1.7-2.7,1.4-3.7-0.4c-0.6-1.2-1.1-2.4-1.6-3.7
		c-0.2-2.4-0.3-4.7-0.5-7.1c2-1.4,3.9-0.3,5.6,0.6c2.1,1.1,2.8,0.9,3.5-1.4c0.2-0.7-0.1-1.7,1-1.8c1-0.1,1,0.9,1.3,1.6
		c0.9,2.3,3.4,3.2,4.8,5C232,121.4,233.3,122.7,232.1,124.6z"/>
	<path id="Path_41023" class="st2" d="M130.9,175.1l4.6,9.1c0.6,1.6-0.5,2.1-1.7,2.4c-1.6,0.4-3.3,0.7-5,0.9
		c-12.8,1.9-24.2,7.2-35.1,13.9c-2.4,1.7-4.7,3.6-6.8,5.6c-2.2,2-4.4,3.9-7.3,4.9l-2.8-0.4c-4.3-1.5-8.7-2.5-13.2-3
		c-1.5-0.4-2.8-1.4-4.4-1.1c-5.2-1.5-10.5-2.7-15.8-3.4c-1-0.3-1.9-1-2.4-2c-1.2-2.1-3.2-3.3-5.3-4.5c-5.8-3.4-6.1-5.6-1.6-10.6
		c4.5-5,10.3-8.1,15.9-11.5c8.4-5.1,17.4-9.3,25.6-14.6c6.2-4,11.8-8.6,14.9-15.6c1.9-4.3,3-9,3.3-13.7c0-0.7-0.2-1.6,0.4-1.9
		c0.8-0.4,1.3,0.5,1.8,1c12.5,13,24.4,26.5,33.4,42.2C129.9,173.6,130.4,174.3,130.9,175.1z"/>
	<path id="Path_41024" class="st2" d="M19.1,194.9c1.1-1.5,2-3,2.9-4.7c1.4-3.1,3.5-4.2,6.7-3c2,0.4,2.9,1.1,1.6,3.3
		c-1.2,2.1-0.3,4.4,2,6.1c1.6,1.2,3.4,2.1,5.1,3.2c1.2,0.6,2.1,1.6,2.5,2.9c-6.9-1.6-13.6-3.1-20.3-4.5
		C16.6,197.5,19,196,19.1,194.9z"/>
	<path id="Path_41025" class="st1" d="M93,117.9c0.4,0.8,0.5,1.7,0.5,2.6c-1,3.2-0.2,6.5-0.5,9.7c-0.1,1.2,0.1,2.4-0.5,3.4
		c0-5.1,0.3-10.1-0.4-15.2C92.3,118.2,92.6,118,93,117.9z"/>
	<path id="Path_41026" class="st2" d="M228.5,132.9c0,0.2,0,0.3,0,0.5c-0.9,2.4,1.3,3.7,2.2,5.4c0.5,0.9,1.1,1.7,1.8,2.4
		c0.5,0.6,0.6,1.2-0.2,1.7c-6.6-0.5-13.2-1.4-19.7-2.7c-11.5-2.2-22.9-5.2-34.2-8.4c-0.2,0-0.5-0.1-0.8-0.1
		c-2.1-0.9-4.5-0.8-6.3-2.4c-2.4-5.7-2.4-5.7,3.5-5.1c1.5,0.2,3,0.4,4.5,0.6c4,1.3,8.2,1.5,12.4,1.9c3.1,1,6.4,1.1,9.7,1.4
		c5.1,0.5,10.2,1.4,15.3,1.2c0.4,0.1,0.8,0.2,1.2,0.4c1.4,0.7,2.8-0.2,4.3-0.1c1.5,0.1,3-0.4,4.4,0.4c0.6,0.3,0.9,0.9,1.3,1.5
		C228.4,131.6,228.7,132.3,228.5,132.9z"/>
	<path id="Path_41027" class="st2" d="M159.4,126.6c-0.7-1.3-1.8-2.3-2-3.9c-0.1-1.3,0.2-1.8,1.4-1.4c2.4,0.7,4.9,1.1,7.4,1.3
		c1.7,0.2,2.4,1.2,2.7,2.8c0.2,1.1,0.6,2.1,0.9,3.1c-1.2,0.6-2.6,0.7-3.8,0.2c-1.6-0.3-3.1-0.6-4.7-0.7
		C160.5,128,159.3,128.1,159.4,126.6z"/>
	<path id="Path_41028" class="st1" d="M146.4,121.4c1.6-0.6,3.2-1,4.9-0.5c0.2,0.9,0.5,1.8,0.7,2.7c1.1-0.5,0-2.2,1.2-2.1
		c1,0,0.9,1.2,1,2c-1.5-0.7-1,0.6-1.1,1.1c-0.3,1.2-0.7,1.4-1.6,0.5l-0.3,0c-0.8-0.3-1.6-0.5-1.9-1.3c-0.4-1.1-1.4-0.9-2.2-0.9
		c-0.7,0-1.3,0.7-2.1,0.2c-0.5-0.3-1-0.7-0.7-1.3C144.8,120.8,145.7,121.3,146.4,121.4z"/>
	<path id="Path_41029" class="st1" d="M159.4,126.6c3.4,1.1,6.9,1.7,10.4,1.8l-1.4,1.1l-11.2-1.5c0.3-0.6-0.6-0.9-0.5-1.6
		C157.6,126.2,158.5,126.6,159.4,126.6z"/>
	<path id="Path_41030" class="st1" d="M171.3,129.1c2.1,0.4,4.2,1,6.1,2c-0.2,0.3-0.5,0.5-0.9,0.4c-2.7,0-5.2-1.2-7.7-1.9
		C169.6,129.5,170.6,129.7,171.3,129.1z"/>
	<path id="Path_41031" class="st1" d="M145,123.1c1.8-0.7,3.7-2.4,5.1,0.5c-0.5,0.8-1.4,0.7-2.2,0.9l-0.3,0l-1.4,0.1
		C146.5,123.5,145.4,123.6,145,123.1z"/>
	<path id="Path_41032" class="st1" d="M155.2,119.9l0.5-1c0.1,0,0.3,0,0.4,0c0.3,1.2,0.8,2.4,0.2,4
		C155.6,122.2,155.1,121.1,155.2,119.9z"/>
	<path id="Path_41033" class="st2" d="M151.6,125.1c-1.6,1.9-2.8,0.5-4-0.6l0,0C149.1,123.5,150.4,124.3,151.6,125.1L151.6,125.1z"
		/>
	<path id="Path_41034" class="st2" d="M167.7,198.4l17.8-9.3c0.5,1.8-0.6,3.2-0.4,4.8c-1.4,7.8-2.3,15.7-4.2,23.4
		c-0.4,1.8-0.6,3.6-0.8,5.4c-0.5,2.9-1.1,5.9-1.6,8.8c-0.2,1.3-0.7,2-2.1,1.8c-3.3-0.9-6.6-1.6-9.9-2.1c-11.4-2.8-22.9-5.2-34.4-7.5
		c-1.2-0.4-2.4-0.6-3.7-0.6c-0.8-1-2.2-0.7-3.7-1.6c7-4.4,14.3-7.7,21.3-11.5c0.9-1.8,2.7-2.4,4.3-3.3c4.2-2.2,8.5-4.4,12.6-6.8
		C164.5,199,166.1,198.8,167.7,198.4z"/>
	<path id="Path_41035" class="st2" d="M192.6,231c-0.1,2.6-2.3,4.7-4.9,4.7c-2.8,0.1-5.2-2.1-5.4-4.9c0,0,0,0,0,0
		c0.1-2.7,2.3-4.9,5-5C190.1,226,192.4,228.2,192.6,231z"/>
	<path id="Path_41036" class="st1" d="M227.5,131.3c-0.5,0-0.6-0.5-0.9-0.7c-0.6-0.9-1.6-1-2.6-1c-0.9,0-1.8,0.3-2.5-0.5l0.5-1
		c0.8-1.5,2-0.6,3.1-0.4l0.9-0.5c1,1.2,1.6,2.6,1.9,4.1C227.9,131.4,227.7,131.4,227.5,131.3z"/>
	<path id="Path_41037" class="st2" d="M221.5,129.1c1.1,0.1,2.1,0.1,3.2,0.2c1,0,1.8,0.2,2,1.3c-2-0.8-4.2-0.4-6.3-0.6
		c-0.8-0.1-1.7,0.1-2.4-0.5L221.5,129.1z"/>
	<path id="Path_41038" class="st2" d="M225.1,127.6c-0.9,0.9-2,0.4-3.1,0.4c-0.3-1,0.2-2.1,1.3-2.5c0,0,0.1,0,0.1,0
		C224.6,125.2,224.4,126.9,225.1,127.6z"/>
	<path id="Path_41039" class="st0" d="M79.7,211.9c1.2-2,3.4-3,5-4.6c9.2-9,20.5-14.4,32.6-18.5c5.1-1.7,10.3-2.5,15.5-3.3
		c1-0.2,2.3,0,2.8-1.4c3.1,6.3,5,13.1,7,19.8c1.5,5.5,1.4,5.5-3.4,8.3c-4.9,2.9-10.3,4.8-14.9,8.2c-1.1,0.8-2.5,1-3.8,0.6
		c-5.7-1.9-11.6-2.9-17.4-4.2c-6.5-1.5-12.9-3.1-19.4-4.5C82.2,212.1,80.9,212,79.7,211.9z"/>
	<path id="Path_41040" class="st2" d="M154.2,197.8c2.3,0.7,4.8,0.7,7.1,0.1c2,0.1,4-1,6-0.5l-0.5,0.6c-1.2,1.5-3.1,1.9-4.6,2.8
		c-4.8,2.9-10,5.1-14.9,8c-0.9,0.5-2,1.2-2.7-0.3c-0.3-1.7-0.5-3.5-1.6-4.9c-0.1-1.3-0.3-2.6-0.5-3.9c-0.4-1.6-1.1-3.1,1.1-3.8
		c2-0.6,3.9-3.1,6.1-0.1C150.7,197,152.4,197.9,154.2,197.8z"/>
	<path id="Path_41041" class="st1" d="M144.6,208.4c1.2,1.1,2,0,2.9-0.5c6.5-3.2,12.7-7,19.3-9.9l0.9,0.4
		c-5.3,2.8-10.6,5.7-15.9,8.5c-1.9,1-3.8,2-5.8,3C145.5,209.5,144.7,209.2,144.6,208.4z"/>
	<path id="Path_41042" class="st1" d="M232.5,142.1c-1.6-2-3.1-4.1-4.4-6.4c-0.6-1-0.9-1.8,0.4-2.4c0.6,2.5,2.1,4.5,3.7,6.5
		c1.8,2.2,3.7,4.4,5.6,6.5c0.4,0.4,0.8,1.4,1.3,0c-0.1-0.7-0.8-1.5,0.6-1.7l3.4,18.3c-0.5,0.6,0.3,1.6-0.5,2.1
		c-0.4-1.3-0.7-2.6-0.8-3.9c-0.1-2.7-1.4-3.7-3.9-4.2c-6.5-1.4-13-3.1-19.5-4.6c0.6-0.7,1.5,0.1,2.1-0.5c5.8,0.7,11.3,2.7,16.9,3.9
		c3.4,0.7,3.3,0.6,2.9-2.7c-0.3-2.8-2.2-4.5-3.8-6.4c-0.8-1-1.6-1.9-2.4-2.9C233.7,143.2,231.7,143.9,232.5,142.1z"/>
	<path id="Path_41043" class="st1" d="M232.5,142.1c0.3,0.8,1,1.2,1.6,1.7c-14-1.4-27.8-4-41.4-7.6c-5.4-1.4-11-2.5-16.2-4.7
		l0.9-0.4c2.7,0.1,5.2,1.1,7.8,1.8c14.5,4.2,29.3,7.2,44.3,9.1C230.5,142.3,231.6,142.3,232.5,142.1z"/>
	<path id="Path_41044" class="st1" d="M122.8,123.6c0.2-1.2-0.1-2.5,0.6-3.7c-0.3,3.2,1.3,6.1,1.4,9.2c-0.3,0.7-0.4,1.7-1.5,1.6
		c-2.3-3.1-4-6.5-6.1-9.8c-0.5-0.7-0.7-1.5-0.5-2.4l0.6-0.6c1.4,3.5,3.4,6.7,5.8,9.6L122.8,123.6z"/>
	<path id="Path_41045" class="st1" d="M135.9,153.5l-8.5-15.9c0.1-0.6-0.3-1.3,0.5-1.6c2.1,4.9,5.1,9.3,7.5,14.1
		c0.4,0.7,0.6,1.5,1,2.3L135.9,153.5z"/>
	<path id="Path_41046" class="st1" d="M128,136l-0.5,1.6l-4.2-7l1.5-1.6C125.3,131.7,127.4,133.5,128,136z"/>
	<path id="Path_41047" class="st1" d="M220.4,151.9l-2.1,0.5l-4.9-0.4l-1.1-0.6C215.1,150.4,217.8,151.3,220.4,151.9z"/>
	<path id="Path_41048" class="st1" d="M258.3,236.9l-1-1.1c1.9-5.1,1.1-10.5,1.7-15.7c0.6-5.7-0.3-11.4,0.3-17.1
		c0.8-1.1,0.5-2.5,0.6-3.7c0.9,3.5,0.2,7,0.4,10.5c0.1,2.3,0,4.5,0,6.8c-0.5,1.4-0.6,2.8-0.4,4.2c0.1,4.4-0.1,8.9-0.6,13.3
		C259.3,235.1,258.9,236.1,258.3,236.9z"/>
	<path id="Path_41049" class="st1" d="M93,117.9c-0.1,0.5-0.1,1.3-0.9,0.6c-0.8-2.2-0.8-4.6-0.2-6.9C93.1,113.6,91.8,116,93,117.9z"
		/>
	<path id="Path_41050" class="st1" d="M239.7,144.7l-0.6,1.7c-0.9-3.8-1.8-7.6-2.6-11.4l0.8-0.2C238.6,138,239.4,141.3,239.7,144.7z
		"/>
	<path id="Path_41051" class="st1" d="M227.5,131.3c0.1-0.1,0.2-0.2,0.4-0.2c1.8-0.6,1.6-2.5,2.5-3.8c0.5-0.7,0.4-1.8,1.7-1.9
		c-1,2.6-1.2,5.5-3.6,7.4L227.5,131.3z"/>
	<path id="Path_41052" class="st1" d="M242.6,165.1c0.2-0.7,0.3-1.4,0.5-2.1c0.2,1.3,0.4,2.6,0.7,3.9l-0.5,1.6L242.6,165.1z"/>
	<path id="Path_41053" class="st2" d="M151.6,125.1l-4-0.5c0.3-1.8,1.6-0.8,2.5-1C150.7,124,151.4,124.3,151.6,125.1z"/>
</g>
</svg>
