<?xml version="1.0" encoding="utf-8"?>
<!-- Generator: Adobe Illustrator 24.2.1, SVG Export Plug-In . SVG Version: 6.00 Build 0)  -->
<svg version="1.1" id="Layer_1" xmlns="http://www.w3.org/2000/svg" xmlns:xlink="http://www.w3.org/1999/xlink" x="0px" y="0px"
	 viewBox="0 0 656.2 423.2" style="enable-background:new 0 0 656.2 423.2;" xml:space="preserve">
<style type="text/css">
	.st0{fill:#060D43;}
	.st1{fill:#5ED58C;}
	.st2{fill:#FEFEFE;}
	.st3{fill:#FDFDFD;}
	.st4{fill:#FAFAFA;}
	.st5{fill:#F4F4F4;}
	.st6{fill:#FBFBFB;}
	.st7{fill:#FCFCFC;}
	.st8{fill:#F9F9F9;}
	.st9{fill:#131313;}
</style>
<g>
	<path id="Path_40459" class="st0" d="M25,378.5c0.2-2.2,1.9-1.1,2.8-1.1c8.4-0.1,16.8-0.1,25.2-0.1h4.6c-2.1-2.7-3.7-4.8-5.4-6.8
		c-1.3-1.5-1.1-2.5,0.4-3.7c18.4-14.7,36.8-29.5,55.1-44.4c1.8-1.4,2.7-1,3.9,0.6c1.7,2.4,3.5,4.7,5.5,6.8c1.7,1.8,1.3,2.8-0.5,4.2
		c-8,6.3-15.9,12.7-23.8,19.1c-1.2,0.9-2.3,1.9-3.7,3.1l4.4,1.3c-0.7,3.1-3.5,2.6-5.6,3.2c-3.6,0.7-4.8,4.1-7.1,6.4
		c-0.8,0.5-1.6,0.2-2.4,0.3c-3.6,2.3-7.1,4.6-9.5,8.2c1.8,1.1,3.9,1.4,6,1c2.3-0.5,4.7-0.6,7-1.2c0.3-0.2,0.6-0.3,0.9-0.5
		c0.5-0.2,1-0.4,1.5-0.4c3.3,1.6,6.9,0.2,10.3,0.9c1.4,0.1,0.7,2.3,2.2,2.3l-0.1,0.2l-0.2-0.1c11.2-1.2,22.4-1.6,33.7-1
		c4.6,0.2,9-0.9,13.6-1.3c2.7-0.3,3.2-2.2,3.6-4.4c1.9-9.7,0.7-19.6,1.1-29.3c0.4-8.2-1.4-16.2-1.2-24.4c-0.1-1,0.6-1.5,1.3-2.1
		c0.5-0.4,1.1-0.5,1.7-0.3c2,1.2,1.6,3.3,1.6,5c0.1,15.1,0,30.1,0.1,45.2c0,1.9-0.9,4.4,1.2,5.4c2.1,1,3.6-1.2,5.1-2.3
		c22.9-16.7,45.7-33.5,68.8-50.1c4-2.9,5.9-6.2,5.6-11.1c-0.3-5.1,0-10.3-0.1-15.4s-1-6.1-6.2-6.1c-23.2,0-46.5,0-69.7,0
		c-2.3,0-4.7,0.2-6.8-1.1c-0.6-0.5-0.8-1.4-0.5-2.2l0,0c10.7-0.5,21.3-0.1,32-0.2c3.4-0.1,7,0.8,9.5-2.6c0.7-0.9,2.2-0.6,3.3-0.5
		c7.5,0.6,14.9,0.6,22.4,0c2.5-0.2,4.9-0.1,7.2,1.4c2,1.3,4.7,0.8,7,1c1.7,0.1,3.5-0.1,5.2,0.2c1.6,0.6,1.9,1.9,2,3.4
		c0.2,1.9,0.1,3.7,0.1,5.6c0,25.3,0,50.6,0,75.9c0,1.4,0,2.8,0.1,4.2c0.2,2.9,1.8,4.5,4.7,4.6c4.1,0.2,8.2,0.1,12.2,0
		c3.5-0.1,4.4-3,6-5.2c2.2-0.5,2.8,1.1,3.4,2.6c0.6,1.4,1.3,2.6,2.9,2.7c3.6,0.3,7.1,1.4,10.7,1.4c11.3-0.1,22.6,0.1,33.9-0.1
		c3.8,0.1,7.6-0.3,11.3-1.1c0.4-0.2,0.7-0.4,1.1-0.6c0.6-0.5,1.4-0.9,2.3-0.9c4,1.5,8.3,1.2,12.4,1.2c5.2,0,10.5,0,15.7,0
		c2.2,0.1,4.4-0.3,6.4-1.3c1.7-0.5,3.3,1,5,0c8.8-4.2,18.1-7.2,27.2-10.8c9-3.6,18-7,27-10.5c1.4-0.5,2.8-1.2,4-2.1
		c0.5-0.5,1.2-0.9,1.9-0.9c2,0.2,2.5,1.9,3.2,3.3c3.1,6,6,12,9.1,18c0.9,1.8,1.8,3.5,4,4.1c6.4,0.6,12.7,1.8,19.2,1.7
		c12.3-0.2,24.5-0.1,36.8-0.1c0.9,0,1.9,0,2.8,0.1c0.5,0,0.9,0.4,0.9,0.9c0.1,0.6-0.4,1.1-0.9,1.1c-0.1,0-0.1,0-0.2,0
		c-0.8,0-1.6,0-2.5,0c-156.9,0-313.8,0-470.8,0C27.3,378.9,26.1,379.1,25,378.5z"/>
	<path id="Path_40460" class="st1" d="M84.7,202.6c-0.2,5.9,0.6,11.8-0.8,17.8c-4.8,20.4-23.8,34.7-44,33
		C17.4,251.4,1.2,234.9,0,212.5c-1.1-20.6,13.7-39.1,34.4-43.2c1.5-0.3,3-0.3,4.5-0.5c1.6,1.1,1.1,2.7,1.1,4.2c0,12.1,0,24.3,0,36.4
		c0,2.1-0.2,4.2,1.2,6c0.9,1,1.9,1,3.1,0.3c11.1-6.1,23-10.6,35.4-13.2C81.3,202.1,83.1,200.9,84.7,202.6z"/>
	<path id="Path_40461" class="st0" d="M64.9,71.3c14.2-5,29.2-7.5,44.3-7.2c23.1,0.2,44.3,6.8,64.3,18.1c1.7,1,2,2.3,2,4
		c0,9.6,0,19.1,0,28.7c0,1.2-0.3,2.6,0.4,3.8c1.4-0.1,1.8-1.3,2.5-2.2c6.5-8.3,14.1-15.6,22.7-21.7c2.2-1.5,4.5-2.9,6.9-4.1
		c5.9-2.8,11.2-6.3,14.7-12c0.7,0.1,1.3,0.6,1.6,1.2c0.8,1.8-0.3,3.1-1.4,4.4c-2.3,2.6-5,4.9-8,6.7c-2.8,1.8-2.8,2.5-0.1,4.1
		c6,3.7,11.9,7.3,17.8,11.1c2.2,1.4,4.5,0.3,6.5,1.6c0.3,3.4,0.3,6.8,0,10.2c-1.8,1-2.3-0.4-2.8-1.5c-1-2-2.6-3.6-4.6-4.6
		c-7.2-4.5-14.5-8.9-21.7-13.5c-4-2.5-4.8-2.5-8.4,0.2c-14.1,10.5-24.7,24-33.5,39c-6.6,11.4-12.2,23.4-16.5,35.9
		c-0.6,1.8-0.8,4.5-3.9,3.8c-0.9-0.5-1.5-1.4-1.7-2.4c0-7.4,0.6-14.8-0.5-22.2c1.8-8.5,2.4-16.9,0.2-25.4c-0.1-0.4-0.2-0.8-0.2-1.2
		c0.1-1,0.3-1.9,0.6-2.8c0-5.8,0-11.7,0-17.5c0-4.1-1-5.2-5-6.5c-3.7-1.2-7.5-1.9-11.2-2.8c-1.6-0.4-3.3-0.7-3.3-2.9
		c0.8-1.6,2.4-1.7,3.9-1.8c3.6-0.2,6.9,0.8,10.3,1.7c4,1,5.2,0.1,5.3-3.9c0.1-3.7,0-7.5,0-11.2c0-3.1-1.4-5.1-4.4-5.9
		c-4-1.2-8.1-2.1-12.3-2.9c-3.7-0.6-5,0.5-5.1,4.2c-0.1,6.1,0,12.1-0.1,18.2c-1.3,4.1-1.5,4.2-5.2,3.6c-6.1-1.9-12.3-1.1-18.4-0.9
		c-3,0.1-4.2,1.8-4.3,5.3c-0.2,5.9,0.1,11.9-0.3,17.8c0.2,0.8,0.3,1.6,0.2,2.4c0,0.4,0,0.8,0,1.2c0,3-0.4,6-1,8.9
		c-0.5,1.8-0.5,3.7-0.1,5.5c0.9,3.5,0.9,7.1,1.1,10.7c0,5.8,0,11.7,0,17.5c0.1,5,1.1,6,6,5.6c3-0.2,6.1-0.2,9.1,0
		c1.9,0.1,4,0.2,5.1,2.4c-0.2,1.8-1.6,1.6-2.9,1.7c-4.7,0.3-9.3,1.3-14,1.7c-2.6,0.7-3.3,2.7-3.3,5c-0.1,4.3,0,8.5,0,12.8
		c0,1.8,0,3.7-1,5.4c-0.9,0.9-2.3,1-3.3,0.3c-1.2-1.6-1.2-3.5-1.2-5.3c0-4.2,0.1-8.4-0.1-12.6c-0.1-3.4-1.3-4.3-4.7-3.8
		c-3.1,0.5-6.2,1.1-9.2,1.9c-1.7,0.5-3.5,0.6-5.2,0.2c-0.9-0.4-1.9-0.6-2.4-1.5c-0.3-2.2,1.5-2.4,2.8-2.9c4.4-1.7,9-2.2,13.6-3.2
		c4.4-1,5.2-1.9,5.2-6.4c0-3.7,0.1-7.5,0-11.2c-0.1-3.3-1.4-4.4-4.7-3.9c-4.4,0.7-8.7,1.6-12.9,2.9c-2,0.6-4,1.4-6-0.1
		c-1-0.6-1.6-1.8-1.5-3c-0.1-7.3-0.1-14.7,0-22.1c-0.1-0.8,0.2-1.6,0.9-2.2c2.5,0.3,2.4,2.3,2.5,4.1c0.2,4.4,0,8.9,0.1,13.3
		c0.1,4.3,1,5,5.1,4.1c3.9-0.9,7.7-1.8,11.6-2.4c4.1-0.7,4.9-1.8,5-5.8c0.1-3.7,0.1-7.5,0-11.2c-0.1-4-1.2-5-5.2-4.4
		c-4.6,0.6-9.1,2-13.7,3.1c-1.3,0.3-2.7,1-4-0.2c-0.5-0.9-1.8-0.8-2.2-1.9c-0.5-8.2-0.1-16.5-0.2-24.7c-0.2-9.2,0.4-18.4-0.3-27.5
		C65,72.1,64.9,71.7,64.9,71.3z"/>
	<path id="Path_40462" class="st0" d="M223.6,80.6l-1-1.7c2.1-5.7,1.4-11.2-0.3-16.8c-0.7-2.5-1.5-4.9-2.1-7.4
		c-2.6-11.4,1.9-20.4,12.8-24.9c7.5-3.2,16-3.3,23.6-0.2c10.1,4,14.3,12.2,15.1,22.4c0.3,3.6,0.6,7.2,0.9,10.8
		c0.4,2.9,0.7,5.7,0.7,8.6c-0.2,0.7-0.7,1.4-1.5,1.6c-2.1-0.2-1.8-1.9-1.7-3.2c0.1-3.1-1-6-1.3-9c-0.1-1.3-1.1-2.4-2.4-2.7
		c-2.9-0.9-5.9-1.5-8.8-2.2c-2.8-0.8-5.7,0.2-7.5,2.5c-1.9,2.2-3.8,4.4-6.5,5.8c-1.5,0.7-3,1.3-4.6,0.1c-1.6-1.2-1.5-2.7-1.2-4.4
		c0.2-1.1,0.6-2.3,0.7-3.4c0.1-1,0.4-2.1-0.6-2.9c-0.4-0.3-0.9-0.3-1.3,0c-1,1-0.7,2.1-0.3,3.2c0.5,1.5,1.2,3,1,4.7
		c-1,8.1-5.9,13.7-11.6,18.9C225.2,81.1,224.3,81.1,223.6,80.6z"/>
	<path id="Path_40463" class="st0" d="M25,378.5l337.1,0c45.2,0,90.4,0,135.6,0c1.5,0.2,3,0,4.4-0.7h-6.4c-16.9,0-33.9,0-50.8,0
		c-1.6,0-3.3,0.2-4.8-0.7c1.2-2.2,3.4-1.7,5.3-1.7c15.7-0.1,31.3,0,47,0c4.9,0,7.2,0.7,8.4-5.9c0.2-1,0.6-2,1.3-2.9
		c2.9-3.5,2-6.6-0.4-10.1c-16.7-25.5-33.4-51-50.1-76.5c-1.8-2.7-3.7-5.4-3.9-8.8c0.2-0.5,0.5-1,1-1.2c2.3-0.6,3.3,1.1,4.3,2.7
		c14.9,22.3,29.4,44.9,44.2,67.4c4.3,6.5,4.3,6.4,10.7,2.2c29.3-19.2,58.6-38.5,87.9-57.6c11.1-7.3,22.2-14.8,33.4-21.9
		c4.3-2.7,4.3-3.5,1.5-7.8c-15.8-24.3-31.8-48.4-47.5-72.7c-1-1.6-2.7-3.1-1.3-5.4c0.3-0.4,0.9-0.6,1.4-0.3
		c8.2,12.4,16.5,24.9,24.7,37.3c15.7,23.9,31.3,47.8,47.1,71.7c1.7,2.6,1.7,3.8-1.1,5.7c-28.6,18.6-57,37.2-85.4,56
		c-0.4,0.3-4.4,0.7-0.7,2.6c0.1,1.6-1,2.1-2.2,2.7c-10.3-1.2-20.7-1.7-30.9,0.5c-7.3,1.6-14.4,3.9-20.6,8.3
		c-8,5.7-10.1,11.1-7.6,20.7c0.2,0.7,0.2,1.4-0.1,2c-0.9,2-2.4,1.8-3.9,0.8c-1.5-5.8-1.5-5.8-7.8-5.8c-42.2,0-84.3,0.1-126.5,0.1
		c-100.5,0-201.1-0.1-301.6-0.1c-12.6,0-25.2,0-37.8,0C27.5,379,26.1,379.5,25,378.5z"/>
	<path id="Path_40464" class="st0" d="M583.3,176.5l-0.9,0.9c-0.3,0.2-0.6,0.3-1,0.2c-4.4-3.1-6.7-8-9.5-12.4
		c-11.6-17.7-23.2-35.4-34.7-53.1c-10.3-15.9-20.8-31.6-31-47.5c-2.8-4.4-3.7-4.6-8-1.8c-31.4,20.7-62.9,41.3-94.3,61.9
		c-9.6,6.3-19.1,12.7-28.7,18.8c-4,2.6-4.1,3.5-1.5,7.6c2.5,3.9,5,7.9,7.6,11.7c1.9,2.8,2.9,2.7,4.3-0.2c4.6-9.5,2.2-8.8,14.7-8.9
		s25-0.1,37.5,0c3.2,0.1,6.3-0.9,8.9-2.6c21.1-13.8,42.2-27.7,63.3-41.5c0.6-0.4,1.2-0.8,1.8-1.1c3.5-2.1,4.8-1.8,7.3,1.6
		s4.6,7.1,6.9,10.6c12.1,18.4,24.4,36.8,36.2,55.4c0.9,1.4,2.3,2.8,1.7,4.8c-0.3,0.6-0.7,1.2-1.3,1.6c-3,0.6-3.7-2-4.8-3.7
		c-7.7-11.7-15.4-23.4-23-35.2c-5.9-9-11.8-18-17.7-27c-1.9-2.9-3-3.3-5.7-1.5c-18.7,12.4-37.6,24.4-56.2,36.9c-0.5,0.3-1,0.6-1,1.5
		c4,0.4,8.1,0.1,12.2,0.2c1.4,0,2.8,0,4.2,0.2c2.8,0.4,3.5,1.7,2.8,4.4c-1.2,4.1-3.4,7.7-5.1,11.5c-6.1,13.7-12.5,27.1-18.6,40.8
		c-0.7,1.7-1.3,4-4.1,3.3c-0.6-0.4-1.1-1-1.5-1.7c-0.6-1.6,0.4-2.9,1-4.3c6.4-14.7,13.5-29.2,19.9-44c1.9-4.5,1.4-5.4-3.5-5.4
		c-20.9,0-41.8,0-62.6-0.1c-3.8,0-6,1.4-7.6,4.8c-6.8,15-13.6,29.9-20.5,44.9c-0.9,2-2,3.9-3.4,5.6c-0.8,0.7-2.1,0.7-2.8-0.1
		c-0.1-0.1-0.1-0.2-0.2-0.2c6.1-13.2,12.2-26.5,18.4-39.7c0.8-1.6,0-2.6-0.7-3.8c-4.7-7.2-9.4-14.5-14.3-21.6
		c-1.6-2.3-1.2-3.4,1.1-4.9c44.1-28.8,88.1-57.7,132.1-86.6c2.2-1.4,3.4-2,5.2,0.7c25.6,39.2,51.2,78.4,76.9,117.5
		C583,175.7,583.2,176.1,583.3,176.5z"/>
	<path id="Path_40465" class="st0" d="M239.6,132.4c5.4,13.7,10.7,27.5,16.1,41.2c0.3,0.9,0.6,1.8,0.8,2.6c-0.1,1.7,2.5,1,2.4,2.6
		c-0.1,1.7-1.5,2.3-2.8,2.8c-5.8,2.4-11.5,5.1-17.4,7.4c-3.4,1.3-4.5,0.8-6.1-2.4c-1.5-2.8-2.6-5.8-3.1-8.9c0.2-2.2,2.5-3.3,2.7-5.6
		c-0.2-8.5,1.8-16.8,2.5-25.2c0.1-2.9,0.4-5.8,0.9-8.7c0.3-1.9,0.1-3.9,0.6-5.8c0.3-1.3,0.8-2.6,2.4-3
		C239.7,130.3,238.9,131.6,239.6,132.4z"/>
	<path id="Path_40466" class="st0" d="M258.5,178.7c-0.9-0.6-1.9-1.1-2-2.4c1.2,1.6,2.5,0.5,3.7,0c16-6.2,32.3-11.7,49.2-14.8
		c10-1.8,20.1-2.9,30.3-1.1c2.6,0.5,3.8,1.3,3.7,4.3c-0.3,8.9-0.3,17.8-0.4,26.6c0,1,0.4,2.3-0.9,2.8c-1.1,0.4-2-0.5-2.8-1.1
		c-2.8-2.1-3.1-5.4-3.5-8.5c-0.3-2.4-1-3.5-3.7-3.2c-2.5,0.3-5-0.3-7-1.7c-3.4-2.6-6.8-2.4-10.4-0.8c-1.8,0.6-3.5,1.4-5.1,2.5h2.9
		c4.8-0.1,9.3,2.2,12,6.1c5.8,7.8,9.9,16.6,13.2,25.7c-0.4,0.5,0,1.5-1,1.7c-2,0.1-2.4-1.6-3-2.9c-2.9-7-6.4-13.8-10.4-20.2
		c-3.8-5.8-9-7.7-15.6-6.6c-8.1,1.3-15.5,4.2-22.8,7.7c-17.3,8.4-34,17.8-50.1,28.2c16.3-1.9,32.5-3.4,48.7-5.3
		c1.7-0.3,3.5-0.1,5.2,0.3c1.1,1,3.3,1.3,2.2,3.6c-1.4,0.8-3,1.3-4.6,1.3c-17.9,1.6-35.6,3.8-53.5,5.6c-1.4,0.2-2.8,0.1-4.2-0.2
		c-1.4-0.5-1.9-1.8-2.8-2.8c-1.1-2.4,0.8-3.4,2.3-4.4c9-6.2,18.5-11.7,27.9-17.3c3.8-2.3,7.8-4.1,11.6-6.3c2.4-1.4,2.9-3.1,1.3-5.4
		c-1.9-2.5-3.6-5.2-5.1-7.9C262.7,179.8,259.7,180.7,258.5,178.7z"/>
	<path id="Path_40467" class="st0" d="M364.2,213.7l2.5,0c1.3-1.4,3.1-1.6,4.8-1.6c23.7-0.1,47.4-0.1,71.1,0c0.8,0,1.6,0.1,2.4,0.3
		l0.7,1.5c1.3,3.1,0.9,4.1-2.2,5.5c-0.9-0.1-1.7-0.5-2.3-1.1c-1.8-1.1-3.9-1.6-6-1.4c-17.2,0-34.5-0.1-51.7,0.1
		c-1.6,0-4.7-1.3-4.1,2.6c2.8,1.9,6.1,1.8,9.1,2c13.5,0.6,26.9,0.5,40.4,0.1c3.5-0.1,7.1-1.1,10.7-1.1c0.4,0,0.9,0.1,1.3,0.2
		c0.8,0.3,1.4,1,1.5,1.9c0.1,0.4,0.1,0.8,0,1.2c-0.4,0.9-1.1,1.6-2,2c-1.8,0.4-3.7,0.1-5.6,0.1c-4.2,0.1-4.8,0.5-5.9,4.4
		c-0.3,1-0.6,2-1.1,3c-0.7,1.2-1.6,2.2-2.6,3.2c-0.3,0.2-0.6,0.3-1,0.4c-1.2-0.1-2.2-1-3.5-1c-10.4-2-20.7-4.5-31.1-6.8
		c-4-1-8-1.8-12-2.3c-1.5-0.2-2.8,1.4-4.4,0.8c-0.7-0.3-1.2-0.8-1.9-1.1c-8.8-2.3-17.8-1.8-26.7-1.9c-1.4,0-3.1,0.5-4.2-1
		c0.1-2.2,1.8-1.8,3-1.8c4.8-0.1,9.6,0,14.3,0c4.3-0.2,8.6-0.8,12.7-1.8c1.4-1,1.4-1.9-0.1-2.7c-8.7-2.1-17.6-2.1-26.4-1.4
		c-1.8,0.3-3.7,0.2-5.5-0.2c-1.1-0.3-1.6-0.9-0.8-2L364.2,213.7z"/>
	<path id="Path_40468" class="st0" d="M502.5,384.9l3-1c1.3-0.6,2.2,0,3.1,0.9c8.4,9.2,19.4,12.5,31.2,14.3
		c11.7,1.8,23.7,0.8,35-2.8c5.9-1.8,11.5-4.8,16.2-8.9c7.8-6.8,7.5-17.4-0.6-24c-6.2-4.9-13.4-8.3-21-10c-1.7-0.4-4.3,0-4.4-3
		l2.9-0.8c8.8,1.3,17.2,4.9,24.2,10.4c8.1,6.3,9.6,14.7,7.7,24.2c-4.7,23.5-26.7,40.2-51.3,38.7c-21.2-1.3-38.3-13.9-44.7-33.1
		C503,388.3,502.3,386.7,502.5,384.9z"/>
	<path id="Path_40469" class="st0" d="M92.3,199l2.4-0.1c0.7-0.8,1.8-0.9,2.6-0.2c0,0,0.1,0.1,0.1,0.1c0.5,1.3-0.1,1.9-1.4,1.9
		c-1,0.1-2-0.3-3,0.3l-8.3,1.5c-14.4,2.7-28.3,7.6-41.1,14.8c-1.2,0.6-2.2,1.8-3.8,1.3c-0.7-1.2-0.3-2.5-0.3-3.8
		c0-42.4,0-84.7,0-127.1c-0.2-1.4,0-2.8,0.4-4.1c2.6,2.3,1.5,5.1,1.6,7.5c0,2.6,0.2,5.1,0.7,7.6c0.5,2.6,0.7,5.3,0.6,8
		c0.1,0.4,0.2,0.8,0.3,1.2c0.2,0.6,0.3,1.2,0.4,1.8c0,0.6,0,1.2-0.2,1.7c-2,7.3-2.1,15-0.4,22.4c0.2,0.3,0.4,0.6,0.6,0.9
		c0.5,0.5,0.7,1.3,0.7,2c-0.1,0.7-0.4,1.4-0.8,2c-2,7.2-2.5,14.3-0.1,21.5c0.2,0.3,0.4,0.6,0.6,0.9c0.5,0.5,0.8,1.2,0.9,1.9
		c0,1.4-1.1,2.1-1.7,3.2c-0.5,0.5-0.7,1.2-0.6,2c0.7,4.8,0.3,9.5,0.5,14.3c0.1,2.8,1.1,3.5,3.5,2.3c4.5-2.2,9.1-4.2,13.8-6
		c2.6-1,2.7-3.2,3.3-5.3c-0.3-6.2-0.4-12.3,0-18.5c-0.2-0.6-0.2-1.2-0.2-1.8c0-0.4,0-0.8,0-1.2c0.2-3.1,0.6-6.2,1-9.3
		c0.8-5.7-0.8-11.2-1.7-16.8c1.1-6.5,0.5-13,0.7-19.5c0.1-1.9-0.2-4,1.5-5.5c2,0.1,1.2,1.7,1.2,2.6c0.1,5.9,0,11.8,0.1,17.7
		c-0.2,1.1-0.1,2.3,0.3,3.4l1.5,1.5l-0.5,0.1c-0.6,0.7-1,1.6-0.9,2.6c0,6.9,0,13.8,0,20.6c0,1.3,0.5,2.5,1.4,3.5
		c1.2,1.7,0.9,3.6,1,5.4c0.1,6.5-0.2,13.1,0.2,19.6l2.3,0.8c0,0.2,0,0.3,0,0.5c-2.3,2.9-2.7,6.3-2.5,9.9c0.2,2.9-0.1,5.8,0.1,8.7
		c0.1,3.2,1.1,3.9,4.2,3.2c3.6-0.8,7.3-1.7,11-2.2C86.8,198.7,89.6,196.5,92.3,199z"/>
	<path id="Path_40470" class="st0" d="M344.9,28.6c1.2,5.2-0.1,10.6,0.6,15.8c0.6,5-1.3,7.9-5.8,9.9c-4,1.8-7.7,4.3-11.5,6.6
		c-1.3,0.8-2.5,1.3-3.7-0.1c-0.9-3-0.9-6.3-0.1-9.3c0.7-2.4-0.4-4.6-0.6-6.9c-0.1-1.3-0.1-2.6,0-3.8c0.1-0.4,0.2-0.8,0.3-1.1
		c0.4-1,1.1-2,2-2.7c5.2-3.3,10.3-7,16.3-8.8C343.2,28.1,344.1,28.2,344.9,28.6z"/>
	<path id="Path_40471" class="st0" d="M194.9,281c-15,2.9-30.1,1.1-45.1,1.4c1.3-0.9,2.7-0.5,4.1-0.5c11.1,0,22.2,0,33.3-0.3
		c-7.5-2.2-14.7-5.2-21-9.8c-13.1-9.5-21.2-22.4-25.9-37.7c-0.2-1.1-0.3-2.3-0.3-3.5c0.4-1.7-0.5-3.6,0.8-5.1c1-0.1,1.9,0.5,2.1,1.4
		c1.1,3.3,3.8,3.5,6.6,3.2c6.7-0.8,13.4-1.5,20.2-2.1c13.2-1.3,26.4-3.1,39.6-4.1c0.6-0.1,1.1-0.2,1.7-0.4c3,0.1,5.9,0.6,8.9,0.8
		c0.8,0,1.6,0.6,1.8,1.4c0,1.9-1.4,2.2-2.8,2.4c-8.9,0.9-17.8,2-26.7,2.9c-13.9,1.5-27.8,2.8-41.7,4.5c-4.9,0.6-5.7,1.8-3.6,6.5
		c8.4,18.5,21.7,31.5,42.1,36.1c1.3,0.3,2.5,0.5,3.8,0.8C193.9,279,195,279.4,194.9,281z"/>
	<path id="Path_40472" class="st0" d="M385.6,31.8c-2,4-5.7,5.5-9.8,6.1c-1.3,0.3-2.7,0.6-3.9-0.3c-0.4-0.9-0.3-1.9,0.2-2.7
		c0.9-4.3,2-8.5-0.2-12.7c-0.8-0.7-1.8-1.1-2.9-1.2c-1.3-0.4-2.3-1.1-2.2-2.7c1.3-2.5,3.7-2.3,5.9-2.6c3.6-0.4,6.9-1.9,9.7-4.3
		c1-0.9,2.1-1.4,3.2,0C385.8,18.2,386,25,385.6,31.8z"/>
	<path id="Path_40473" class="st0" d="M381.9,49.7c4.2-1,4.2-1,4.2,3.4c0,0.7,0,1.4,0,2.1c1.6,11.7-2.1,22.3-7.4,32.4
		c-0.9,1.8-1.6,2.5-3.2,0.8c-0.7-2.9-0.7-5.9-0.2-8.9c0.8-3.8-0.8-7.5-0.9-11.3c0-0.4,0-0.8,0.1-1.1c0.2-1.1,1.1-1.8,1.5-2.8
		c1.4-4.2,3.2-8.3,5.5-12.1C381.7,51.5,381.2,50.5,381.9,49.7z"/>
	<path id="Path_40474" class="st0" d="M41.4,109.2c-1.2-1.2-1-2.8-1-4.3c0.1-6.4-0.1-12.8-0.7-19.2v133c-0.9-1.5-0.6-3.2-0.6-4.8
		c-0.1-15-0.1-30.1-0.2-45.1c0.1-9.7,0.2-19.3,0.3-29c0-17.6,0-35.2-0.1-52.8c-0.3-2.3,1.1-4.5,3.3-5.4c7.4-3.8,14.6-7.7,22.5-10.2
		l0.2,0.3c1,1,0.9,2.3,0.9,3.6c0,7.4-0.1,14.8,0,22.2c0.2,1.2-0.2,2.3-1.1,3.1c-0.7,1.3-1.8,2.4-3.2,3c-5.1,1.9-10,4.2-14.8,6.6
		c-1.4,0.7-2.9,1.8-4.3-0.1l-1-0.8c0.2-2.1,1.7-3.2,3.4-4.1c4.4-2.3,9-4.4,13.7-6.2c3.3-1.3,4.7-3.4,4.6-7
		c-0.2-3.8,0.1-7.7-0.1-11.6c-0.1-3.1-1.1-3.8-4-2.7c-4.3,1.6-8.4,3.5-12.5,5.6c-2.5,1.2-4.1,3.8-3.9,6.5c0.1,4-0.1,7.9,0,11.9
		C43.1,104.3,42.6,106.9,41.4,109.2z"/>
	<path id="Path_40475" class="st0" d="M147.7,317.4c1.5,0.9,2.4,2.6,2.2,4.4c0,17.4,0,34.8,0,52.2c0,2.9-1.1,3.9-4,3.9
		c-16.4-0.1-32.7-0.1-49.1-0.1c1-0.5,2.3-0.7,3.4-0.4c4.9,0.9,7.7-1.3,10.4-5.4c11.4-17.4,23.2-34.6,34.9-51.8
		C146.2,319.2,147,318.3,147.7,317.4z"/>
	<path id="Path_40476" class="st0" d="M325,40c1.8,4.2,0.6,8.7,0.8,13c0.1,2.7,0.9,5.6-1.4,7.9c-5.3-3-10.5-6-15.8-8.9
		c-1.2-0.6-1.9-1.8-1.8-3.1c0-6.1,0.1-12.1-0.1-18.2c-0.1-1.4,0.7-2.7,2-3.3c5.2-2.9,10.3-5.9,15.4-8.9c0.9-0.7,2.2-0.8,3.3-0.2
		c5.7,3.6,11.9,6.4,17.3,10.4l-2.5,0.7c-4.5,0.3-7.6-2.7-10.9-4.8c-3.8-2.3-6.9-2.7-10.5,0.1c-1.6,1.1-3.3,2.1-5.1,3
		c-1.7,1-1.7,2-0.1,3.1c2.6,1.6,5.2,3.1,7.8,4.6c1.5,0.6,2.8,1.8,3.6,3.2L325,40c-1.1,1.2-2.3,0.6-3.5,0c-2.8-1.2-5.2-3.1-8-4.3
		c-2.6-1.2-3.5-0.6-3.2,2.2c0.2,1.5,0.3,3,0.3,4.5c0.1,2.4-0.6,5.1,1.3,7c2.6,2.5,5.9,4,9.2,5.6c1.5,0.7,2-0.6,2.1-1.9
		c0.1-2.9,0-5.8,0.1-8.7C323.4,42.7,323.5,41.1,325,40z"/>
	<path id="Path_40477" class="st0" d="M377.7,65c-0.2,1.2-1.2,1.6-2,2.3c-1.6,1.5-3.1,0.4-4.5-0.4c-3.3-1.8-6.4-3.7-9.7-5.5
		c-2.7-1.5-3.5-0.9-3.7,2.1c0,0.5,0-0.1,0,0.3c0.1,11.8-1.4,9.8,8.6,15.5c1.5,0.9,3,1.8,4.6,2.6c2.9,1.5,3.6,1,3.7-2.3
		c0.1-2.9,0-5.8,0-8.7c0-1.3-0.2-2.6,1-3.6c1,0.5,1.5,1.5,1.4,2.6c0,5.1,0,10.2,0,15.2c0,1.3-0.6,2.5-1.5,3.4
		c-6.6-3.7-13.2-7.4-19.8-11.1c-1.4-0.8-1.4-2-1.4-3.3c0-5.8,0-11.7,0-17.5c0-1.6,0.2-2.7,2.1-3c8.5-1.2,17.1-2.5,25.6-3.8
		c0.8,0.8,2.5,1,1.4,2.8c-6.1,1.5-12.4,2.2-19.3,3.6C368.6,59.8,373.6,61.6,377.7,65z"/>
	<path id="Path_40478" class="st0" d="M272.5,71.3c-0.6-2.8,0.3-5.6,0.1-8.5c1,4.3,1.9,8.6,3,12.9c0.4,1.5,0,2.4-1.6,2.2
		c-2.4-0.3-2.8,1.1-3.3,3c-0.7,3-1.6,5.8-2.8,8.6c-3,6.9-8.5,9.7-15.9,8.2c-3.1-0.5-6.1-1.5-8.9-2.9c-1.9-1-2.7-0.7-2.8,1.6
		c-0.1,3.1-0.5,6.3-0.8,9.4c-3.4-1.2-2.7-4.2-2.9-6.8c0.9-3.2-0.2-6.7-2.8-8.8c-1.1-1-2-2.3-2.7-3.6c-0.8-1.1-0.5-2.6,0.6-3.4
		c0,0,0,0,0,0c1-0.8,2.5-0.6,3.3,0.4c0,0,0.1,0.1,0.1,0.1c1.5,1.6,2.6,3.6,4.4,4.9c4.4,3.4,9.6,5.4,15.1,5.9
		c3.9,0.3,7.1-1.1,9.1-4.7c4.9-9,5.3-18.7,4.8-28.6c-0.1-2.2-2.9-2.8-2.5-5.1c4.6,0.1,4.9,0.5,5.1,5c0.2,3.9-0.6,7.9,0.5,11.8
		C272.5,72.6,272.5,71.9,272.5,71.3z"/>
	<path id="Path_40479" class="st0" d="M140.8,225.5c-0.3,1.7,0.2,3.6-0.9,5.2c-1.2-7.4-0.8-14.9,0.1-22.2c0.3-2.8-0.4-4-3.1-4.4
		c-5.1-0.8-10.1-1.9-15.1-2.8c-7.4-1.5-14.9-0.9-22.5-1.8c5.9-1.3,11.7-2.5,17.7-2.5c1.1,0.1,2,0.6,3.1,0.7c1.6,0.2,3.2,0,4.8,0.1
		c5.1,1.2,10.5,1,15.2,3.9c2.6,1,4.1,3.8,3.4,6.6c-0.3,4.3-0.8,8.7-1.1,13C142.3,222.7,142.5,224.5,140.8,225.5z"/>
	<path id="Path_40480" class="st0" d="M385.6,31.8c0-5.5-0.1-11-0.1-16.4c0-1.5,0.1-3.1-1-4.3c-4.5-7-11.1-8.2-18.7-6.7
		c-3.6,0.7-6.7,2.2-7.6,6.3c-0.1,0.8-0.8,1.5-1.7,1.5c-2.2-1-0.7-3-1.2-4.5c0.4-2.5,2.2-3.8,4.2-4.8c6.9-3.8,15.2-3.8,22.1,0
		c3.2,1.4,5.1,4.7,4.9,8.2c-0.1,5.6,0,11.2,0,16.8C386.4,29.2,386.6,30.6,385.6,31.8z"/>
	<path id="Path_40481" class="st0" d="M337.8,213.6c0.7,1.5,2,0.9,3.1,0.9c9.6,0,19.3,0,28.9,0c1.5,0,3.1-0.2,4.3,1
		c-1.4,1.6-3.4,1.4-5.2,1.5c-7,0.1-14,0-21,0.1c-1.5,0-4-0.5-4.1,1.5c-0.1,2.3,2.5,1.9,4.2,1.9c7,0.1,14,0,21,0.1
		c1.9,0,3.8-0.1,5.2,1.6c-1.3,1.1-2.8,0.9-4.3,0.9c-8.2,0-16.5,0-24.7,0c-1.5,0-3-0.2-4.4,0.5l-0.5,0.3c-3.2-1.3-4.9-6.2-3.2-9.1
		l0.8-1.6C337.8,213.2,337.9,213.4,337.8,213.6z"/>
	<path id="Path_40482" class="st0" d="M86.7,358.9c2.1-1.6,4.8-0.2,7-1.3c5.8,1.9,8.9,8.2,7,14c-0.4,1.2-1,2.3-1.8,3.3
		c-0.6,0.9-2,1.3-1.7,2.8c-0.9-0.4-1.8-0.8-2.7-1.2c-0.9-1.5,0.4-2.3,1.1-3.3c4-5.7,1.4-11.6-5.4-12.5
		C88.9,360.4,87.3,360.7,86.7,358.9z"/>
	<path id="Path_40483" class="st0" d="M149.7,282.3l0.9,1.6c1.5,1.3,1.6,3,1.6,4.8c0.1,7.3,0.1,14.7,0,22c0,1.7,0.3,3.6-1.7,4.7
		l-1.6-0.1c0-9.8,0.1-19.6,0.1-29.4C149.1,284.7,148.5,283.4,149.7,282.3z"/>
	<path id="Path_40484" class="st0" d="M355.3,7.6l1.4,4.2c2.7,0.1,5.1,1.9,6.1,4.5c-0.2,1-1,1.4-1.8,1.8s-1.8,0.2-2.4,0.8
		c-1.2,2-1.4,4.4-0.7,6.6c0.4,1.7,0.5,3.4,0.4,5.1c-0.1,0.4-0.3,0.7-0.5,1c-0.5,0.7-1,1.1-1.9,0.7c-0.3-0.5-0.6-1-0.7-1.5
		C354.7,23.1,354.3,15.3,355.3,7.6z"/>
	<path id="Path_40485" class="st0" d="M238.8,97.9c0.5,2.6-0.5,5.4,0.8,7.9l-0.1,26.6l-1-1.5c-0.8,2.6,0.3,5.4-1.1,7.8
		c-1.4-0.7-1.5-2-1.6-3.2c-0.4-5,0.7-9.9,0.8-14.9c0-1,0.6-1.8,1.4-2.2c1.1-3.4,1.1-7.1,0-10.5C235.6,104.6,235.9,99.8,238.8,97.9z"
		/>
	<path id="Path_40486" class="st0" d="M117.8,198.9h-16.7c6.9,1.3,14-0.1,20.7,2.2c-9.6-0.8-19.2-0.8-28.7,0c1.2-1,3.4-0.2,4.2-2.2
		c0.3-2.1,2-2.1,3.5-2.2c4.5-0.2,9.1-0.2,13.7,0C115.8,196.8,117.5,196.9,117.8,198.9z"/>
	<path id="Path_40487" class="st0" d="M355.8,32.3l0.9-1.5c0.6-0.5,1.4-0.5,1.9,0c3,2.7,6.7,3.6,10.5,4.3c1.2,0.2,2.6,0.4,3,1.9
		c1.1,0.8,2.4,0.6,3.7,0.8C368.1,39.9,359.5,37.5,355.8,32.3z"/>
	<path id="Path_40488" class="st2" d="M194.9,281c-6.9-1.4-13.7-2.8-20-6c-15.9-8.2-25.7-21.5-31.9-37.9c-1.1-3.1,0.8-2.9,2.8-3.1
		c24.6-2.6,49.2-5.2,73.8-7.8c0.7-0.1,1.4-0.3,2-0.4c2.1-2.1,4.4-1.6,6.8-0.8c10.3-1,20.6-2,30.9-3.1c9.6-1,19.2-2,28.8-3.1
		c0.9-0.2,1.9,0,2.6,0.7c1.9,1.8,2,4.4,2.7,6.7c7.4,26.9,12.7,54.3,19.4,81.4c0.5,1.9,1,3.8,1.6,5.7c-0.1,8.7-2.4,17-3.9,25.4
		c-1.6,8.5-0.1,7.2-9.1,7.3c-10.4,0.1-20.7,0-31.1,0c-4.3,0-4.7-0.5-3.9-4.8c4.1-22.3,8.7-44.6,13.3-66.8c0.3-1.4,1.4-3.2-0.3-4.5
		c-1.7-1.3-3.3-0.2-4.9,0.3c-10.8,3.7-21.8,6.5-33,8.5c-5,0.9-10,1.9-15.1,2.3c-3.2,0.2-6.4-0.8-9.5,0.1L194.9,281z"/>
	<path id="Path_40489" class="st1" d="M448.6,271.2c0.9,3,2.9,5.3,4.6,7.8c17.3,26.6,34.7,53.2,52.2,79.7c1.6,2.5,1.8,4.2-0.2,6.4
		c-2.1,2.4-3.3,5.5-3.5,8.6c-0.2,2.4-1.1,3.5-3.7,3.5c-19.3-0.1-38.5-0.1-57.8-0.2l-13.4-26.6c-1.8-0.6-2.3-2.3-3-3.7
		c-4.5-9.3-9.3-18.4-13.8-27.7c-0.4-0.7-0.7-1.5-0.7-2.3c0.7-1.5,1.9-2.7,3.4-3.3c7.9-4.4,13.6-10.8,18.2-18.4
		c4.6-7.6,8.8-15.4,14.5-22.2c0.7-0.8,1.2-1.7,2.3-2C448,270.9,448.3,271,448.6,271.2z"/>
	<path id="Path_40490" class="st2" d="M150.5,315.4l0.1-31.5c1.2-0.1,2.3-0.3,3.5-0.3c25.6,0,51.2,0,76.8-0.1c3.2,0,4.2,0.8,4.1,4.1
		c-0.2,8.1-0.2,16.1,0,24.2c0.1,2-0.8,3.9-2.5,4.9c-26.3,19.1-52.5,38.2-78.7,57.4c-0.7,0.5-1.5,1.6-2.4,1.3
		c-1.2-0.5-0.6-1.9-0.6-2.8c0-17.6,0-35.3,0-52.9C150.7,318.2,150.6,316.8,150.5,315.4z"/>
	<path id="Path_40491" class="st2" d="M262.1,370.1c-0.7,7.3-0.7,7.3-8.1,7.3c-4.2,0-8.4,0-12.6,0c-4.6,0-4.6,0-4.6-4.5
		c0-28.8,0-57.6,0-86.5c0-1.3,0.5-2.8-0.6-4c-0.5-0.3-1-0.5-1.1-1.2c0-0.8,0.5-1.5,1.2-1.8c12.2-2.1,24.3-5,36.2-8.8
		c1.7-0.5,3.2-1.3,4.9-1.8c2.9-0.8,3.7-0.2,3.1,2.8c-1.4,7.6-3.1,15.1-4.6,22.6c-3.1,15.5-6.4,31.1-9.1,46.7
		c-1.7,8.7-2.9,17.5-3.6,26.3C263,368.3,263,369.4,262.1,370.1z"/>
	<path id="Path_40492" class="st2" d="M426,352.2c-4.8,3-10.2,4.4-15.4,6.4c-14.4,5.8-29,11.4-43.4,17.1c-0.9,0.3-2,1.4-2.8,0.6
		c-0.8-0.9-0.3-2.2,0.2-3.3c3.2-6.6,6.6-13.1,9.8-19.7c7.6-15.4,15.4-30.8,23-46.2c0.8-1.6,1.1-4,3.4-4.1c2.3,0,2.5,2.5,3.3,4
		c7,13.8,13.6,27.8,20.8,41.5C425.4,349.7,425.8,350.9,426,352.2z"/>
	<path id="Path_40493" class="st1" d="M363,375c-1.1,1.8-2.6,2.3-4.7,2.3c-8.7-0.1-17.4-0.1-26.1,0c-2.1,0-3.8-0.9-5.6-1.7
		c-4.4-0.8-8.9-1.5-12.7-4.3c-0.5-1.7,0.5-2.7,1.7-3.4c8.5-5.5,15.1-13,21.2-21c1-1.3,2.1-2.6,4.1-1.6c1.5,3.3,1.6,7,3,10.3
		c1.2,2.9,2.4,3.5,5.4,2.2c7.7-3.4,15.4-6.5,23.1-9.8c1.1-0.5,2.2-1,3.2,0c0.7,0.7,0.8,1.8,0.2,2.5c-3.9,7.9-7.8,15.8-11.8,23.6
		C363.8,374.5,363.4,374.8,363,375z"/>
	<path id="Path_40494" class="st0" d="M363,375c3.5-7.2,7-14.5,10.6-21.7c0.4-0.7,0.8-1.4,1.1-2.2c0.3-0.7,1-1.5,0.3-2.2
		c-0.7-0.7-1.5,0-2.3,0.3c-6.4,2.7-12.7,5.3-19.1,8c-1.9,0.8-3.9,1.5-5.8,2.4c-2,1-3.3,0.4-4.1-1.7c-1.6-4-2.7-8.2-3.3-12.5
		c-1.9-0.9-2-2.8-2.2-4.5c-0.4-2.3-0.9-4.6-1.6-6.8c-0.9-3.4-2.4-6-6.5-6c-2.4,0-3.1-2.2-3.8-4.1c-2-5-3.6-10.1-5.5-15.2
		c-0.8-2-1.2-4.1-4-2.3c-0.2,0.1-0.6-0.3-0.9-0.5c-1.4-2.6-0.3-5.2,0.4-7.6c0.6-1.8,2.4-1.9,4.1-1.6c2.2,0.3,2.6,2.2,3.1,3.8
		c1.9,5.6,4,11.2,6,16.8c1.5,4.5,2.7,5.3,7.5,5.3c8.6,0,17.3,0.1,25.9,0c4.4,0,5.2-1.2,4.1-5.3c-6.5-24.7-13.6-49.3-21.5-73.5
		c-1.8-5.4-3.9-10.7-5.6-16.2c-0.5-1.5-1.2-2.9,0.6-4l0.2-0.2c9.8,0,19.5,0.1,29.3,0.1c1.5,0,3.4-0.5,4.2,1.6
		c-1.5,1-3.1,0.9-4.7,0.9c-6.2,0-12.4,0-18.5,0c-4.7,0-5.5,1-4,5.4c5.3,15.4,10.4,30.9,14.8,46.6c4.1,14.5,8.5,28.8,11.7,43.5
		c0.1,2.3,1.9,5.1-1.8,6.4c-0.8,0.3-1.9,0-2.5,0.8c2.8,3.4,4.7,3.7,7.1,0.5c2.5-3.3,6.2-5.5,8.4-9c3.3-1.3,5.9-3.9,7.1-7.2
		c1.5-3.6,3.6-7,5.3-10.6c0.8-1.7,1.7-3.5,4-3.5c2.2,0,2.8,1.8,3.6,3.3c1.7,3.2,3.2,6.5,4.9,9.7c0.8,1.4,1,3.1,0.4,4.7
		c5.6,11.3,11.1,22.5,16.7,33.8l-0.7,1.6c-5.7-11.1-11.3-22.2-17-33.3c-2.6-5.1-5.1-10.1-8.1-16l-36.5,72.8c1.1,0.9,1.9-0.3,2.7,0.1
		C365.5,377.4,364.1,377.1,363,375z"/>
	<path id="Path_40495" class="st2" d="M325.1,376.4l0.3,0c0.1,0,0.2,0.1,0.3,0.1c0.1,0,0.2,0.1,0.2,0.2c-0.6,1.1-1.6,0.7-2.5,0.7
		c-19.3,0-38.5,0-57.8,0.1c-1.9,0-2.8-0.5-2.6-2.5c0.4-3.2-0.6-6.4,0.1-9.6c0.4-1.7,1-2.5,2.6-2.5c6.7-0.2,12.7-2.7,18.8-5.1
		c0.8-0.3,1.5-0.6,2.3-0.8c5-1.5,5-1.5,7.9,2.8c3.5,5.1,8.7,7.6,14.1,10c4.7,2.1,9.5,3.9,14.5,5.3
		C324.1,375.1,324.8,375.7,325.1,376.4z"/>
	<path id="Path_40496" class="st0" d="M325.1,376.4c-7.7-2.2-15.4-4.6-22.5-8.6c-4-2.3-7.6-5.1-9.9-9.2c-0.9-1.7-2-1.9-3.7-1.3
		c-4.8,1.7-9.6,3.5-14.5,5.1c-2.4,0.8-5,1.3-7.5,1.5c-2.4,0.1-3.2,1.2-3.3,3.4c0,2.3-0.1,4.7-0.4,7c-0.2,2.2,0.5,3.1,2.9,3.1
		c18.9-0.1,37.8,0,56.7-0.1c0.9,0,1.9,0.2,2.5-0.9c0.4,2.6-1.6,1.3-2.4,1.3c-5.9,0.1-11.9,0.1-17.8,0.1c-12.3,0-24.7,0-37,0
		c-5.1,0-5.1,0-5.5-5.1c-0.1-0.9-0.3-1.8-0.6-2.7c0-12.5,2.7-24.6,5.1-36.7c4-20.4,8.2-40.7,12.3-61.1c0.2-0.9,0.2-1.8,0.4-3.3
		c-14.2,5-28.9,8.8-43.8,11.3c-1.3,1-2.9,0.5-4.1,1c1.1-0.1,2.4-0.8,3.4,0.4l0.7,0.7c-6.5,0.9-12.8-1.1-19.2-1.5
		c9.2-1.3,18.5-2.1,27.7-4c11.6-2.4,22.9-5.5,34.1-9.4c1-0.4,2.1-1.6,3.2-0.5c1,1,0.1,2.2-0.1,3.3c-5.1,23.8-9.8,47.6-14.4,71.4
		c-0.6,3,0.4,3.3,2.9,3.3c11.6-0.1,23.1-0.1,34.7,0.1c2.5,0,3.5-0.7,3.9-3.2c1.3-7.6,2.7-15.2,4.2-22.7c0.4-2.1-0.6-3.9-0.5-5.9
		c2.9,0.6,2.4,3.5,3.6,5.3c0.1,5.3-1.5,10.3-2.3,15.5c-0.5,3.1-1.2,6.2-1.8,9.3c-0.8,4.5-1.5,5.1-6.3,5.2c-2.6,0.1-5.1-0.1-7.7,0.1
		c-3.7,0.2-4.7,1.7-3.5,5.3c1.1,3.2,3.2,6,5.9,8c3.3,2.4,6.8,4.5,10.6,6c1.4,0.6,2.8,1.2,3.5,2.7c3.7,2.4,8.4,2.4,12,4.9
		L325.1,376.4z"/>
	<path id="Path_40497" class="st3" d="M86.7,358.9c8.2-0.7,13.2,3.4,12.5,10.2c-0.3,3.3-2.5,5.4-4.8,7.3c-3.5,1-7.1,1.9-10.3-0.9
		c-3.4-1.1-5.2-4.8-4.1-8.2c0.1-0.3,0.2-0.5,0.3-0.8C81.1,362.9,83.7,360.7,86.7,358.9z"/>
	<path id="Path_40498" class="st4" d="M63.7,376.5c5.1-3.7,10-7.6,14.7-11.8c0.9-0.5,1,0.2,1,0.8c0.2,4,1.5,7.8,3.8,11l-0.1,0
		c0.2,0.8-0.3,1-0.9,1c-5.8,0-11.6,0-17.5,0C64.1,377.4,63.5,377.3,63.7,376.5z"/>
	<path id="Path_40499" class="st0" d="M83.2,376.5c-3.2-2-4.1-5-4.3-8.5c-0.1-1.1,0.6-2.3-0.5-3.3c2-0.7,1.2,1.4,2,1.9
		c0,3.4,1.4,6.6,3.8,9L83.2,376.5z"/>
	<path id="Path_40500" class="st0" d="M63.7,376.5c0.6,1,1.6,0.8,2.4,0.8c4.8,0,9.7,0,14.5,0c0.9,0,1.9,0.2,2.4-0.9
		c0.5,1.6-0.7,1.4-1.5,1.4c-5.4,0-10.9,0-16.3,0C64.5,377.8,63.2,378,63.7,376.5z"/>
	<path id="Path_40501" class="st2" d="M238.1,118.4c-0.2,6.8-0.5,13.5-0.7,20.3c-1.4,11.4-2.8,22.8-4.2,34.2c-0.7,0.6,0.3,2.2-1,2.2
		c-1.3,0-1.4-1.4-1.6-2.4c-2.5-9.3-4.3-18.8-5.4-28.3c1.1,9.4,2.8,18.7,5.3,27.8c0.3,1.7,0.6,3.3,0.7,5c0.5,3.6,2.2,6.8,3.5,10
		c0.5,1.3,1.4,1.2,2.5,0.7c7.1-3.2,14.2-6.3,21.3-9.4c3.6-1.9,5.4-0.5,7.1,3c1.8,3.5,4,6.9,6.4,10c1.5,2.1,1.2,2.9-1,4.1
		c-14.4,7.5-28.4,15.8-41.9,24.8c-1.1,0.7-2,1.5-3.1,2.3c-1.1,3.3-2.7,1.9-4.3,0.4c-5.9-5.6-11.1-12-15.4-19
		c-7.3-11.8-13.1-24.2-14.8-38.2c-0.5-4.4-1.1-8.8-1.4-13.2c-0.3-4.6-0.1-9.2-0.1-13.7v0c0.2,4.8-0.3,9.5,0.3,14.2
		c0.1,0.8,0.1,1.6,0.1,2.3c0.1,3.3,0.9,6.5,1.1,9.8c3.3,19,8.7,37.3,18.6,54c0.9,1.4,2.3,2.8,1.4,4.8c-0.8,1.7-2.4,1.2-3.7,1.4
		c-20.8,2.2-41.5,4.3-62.3,6.6c-3,0.3-4.5-0.1-4.3-3.4c-0.1-1.2-0.2-2.3-0.5-3.4c0.2-5.7,0.4-11.4,0.6-17.2c0-6.2,0.8-12.4,2.4-18.4
		c0.8-3.7,2.2-7.2,2.9-10.9c0.2-0.9,0.9-1.3,1.5-1.8c4.5-12.5,9.4-24.9,16-36.5c10-17.5,21.8-33.4,38.6-45.1c2-1.4,3.4-1.5,5.5-0.1
		c8.1,5.3,16.3,10.4,24.7,15.3C236.2,112.7,238.3,114.7,238.1,118.4z"/>
	<path id="Path_40502" class="st2" d="M238.8,97.9c-0.7,3.3-0.9,6.7-0.7,10l-0.8,3.5L207.7,93c6.6-3.2,12.3-6.5,15.9-12.4
		c4.3-3.6,7.8-8,10.4-13c1.9-3.5,2.5-7.2,0.2-11c-1.2-1.8-0.8-4.2,0.9-5.4c0.1,0,0.1-0.1,0.2-0.1c1-0.8,2.4-1.1,3.6-0.6
		c1.2,0.5,2,1.8,1.8,3.1c0.1,2.5-0.9,4.8-1.3,7.2c-0.2,0.9-0.9,1.9,0.1,2.6c0.9,0.6,1.8,0,2.6-0.3c2.2-1,4.1-2.7,5.5-4.7
		c3.1-4.2,6.8-5.6,11.8-3.7c2.1,0.6,4.3,1.1,6.4,1.5c3.9,0.5,4.8,2.8,4.7,6.5c-0.1,9.1-0.7,18.2-4.6,26.6c-2.7,5.9-6.5,8-12.9,6.9
		c-7.8-1.3-14.7-4.3-19.3-11.3c-0.4-0.6-0.7-1.8-1.7-1.1c-0.9,0.6-0.1,1.5,0.3,2.1c0.7,1.2,1.6,2.3,2.6,3.3
		C238.2,91.4,239.5,94.2,238.8,97.9z"/>
	<path id="Path_40503" class="st2" d="M94.5,118.9c-0.1-7.5-0.1-15.1-0.3-22.6c0-2.1,1-2.6,2.7-2.7c7.8-0.6,15.6-0.5,23.3,0.3
		c2.2,6.1,0.9,12.5,1.1,18.8c0.3,6.8,0,6.9-6.7,6.8c-6-0.1-12,0-18,0C95.9,119.5,95.1,119.6,94.5,118.9z"/>
	<path id="Path_40504" class="st2" d="M94.6,120.5c0.2,0.1,0.4,0,0.5-0.1c1.9-1.5,4.1-1.1,6.2-1.2c5.5-0.3,11-0.2,16.6,0.3
		c2.4,0.2,3.6,1.2,3.5,4c0,6.6-0.1,13.1,0,19.7c0,2.4-0.9,3.7-3.4,3.6c-7-0.9-14.1-0.9-21.1,0c-1.5-0.3-2.9-0.5-2.9-2.7
		c0.1-7.5,0-15.1,0-22.6C94.1,121,94.4,120.8,94.6,120.5z"/>
	<path id="Path_40505" class="st2" d="M116.2,172.4c-6.1-0.7-12.3-0.7-18.4-0.1c-2.9,0.3-3.6-0.8-3.5-3.4c0.2-6.2,0-12.3,0.1-18.5
		c0-1.1-0.2-2.4,0.9-3.2c1.2-0.8,2.6-1.1,4-1c6.3-0.1,12.6-0.3,18.9,0.2c2.6,0.2,3.5,1.4,3.5,3.7c-0.2,6.5,0.1,13-0.2,19.6
		C121.2,173.5,119.8,174.2,116.2,172.4z"/>
	<path id="Path_40506" class="st2" d="M107.3,91.1c-3.5,0.2-7,0.3-10.5,0.6c-1.8,0.1-2.6-0.4-2.5-2.3c0.1-6.8,0.1-13.5,0-20.3
		c0-1.8,0.8-2.4,2.5-2.5c7-0.4,14-0.4,21,0c1.9,0.1,2.7,0.7,2.7,2.7c-0.1,6.7-0.1,13.3,0,20c0,2-0.6,2.6-2.6,2.5
		C114.3,91.4,110.8,91.3,107.3,91.1z"/>
	<path id="Path_40507" class="st2" d="M117.8,198.9c-6.8-0.9-13.7-0.9-20.6,0l-2.6,0c-0.8-7.6-0.3-15.2-0.3-22.8
		c0-2.9,2.9-1.4,4.3-2.3c6.7-0.8,13.4-0.3,20.1-0.3c1.3-0.1,2.5,0.8,2.6,2.1c0,0.1,0,0.3,0,0.4c0.1,6.9,0.1,13.9,0,20.8
		c0,0.8-0.5,1.6-1.2,2L117.8,198.9z"/>
	<path id="Path_40508" class="st2" d="M123.2,92.5c-1.1-0.7-1-1.8-1-2.8c0-6.5,0.1-13.1,0-19.6c0-2.4,0.8-2.9,3.1-2.6
		c6.6,1,13.1,2.5,19.4,4.3c2.1,0.6,3.1,1.5,3,3.8c-0.2,6.3-0.1,12.6,0,18.9c0,2.3-0.5,3-3,2.3c-5.9-1.6-11.7-4-18.1-3.1l-0.5,0
		C125.1,93.5,123.9,93.6,123.2,92.5z"/>
	<path id="Path_40509" class="st2" d="M126.7,93.8c0.8,1.5,2.4,1.2,3.7,1.4c4.7,1,9.3,2.1,13.9,3.4c2.6,0.7,3.6,1.8,3.5,4.5
		c-0.2,7.1-0.1,14.2-0.1,21.3c-1.2,1.1-2.6,0.6-3.8,0.2c-5.8-1.7-11.7-3-17.7-3.9c-4.3-0.7-4.8-1.2-4.8-5.5c0.1-5.5-0.1-11,0.1-16.5
		c0.3-5.9,1.9-6.6,5.3-4.9L126.7,93.8z"/>
	<path id="Path_40510" class="st2" d="M67.3,126.2c0.2,0.1,0.4,0,0.5-0.1c7-1.8,13.9-3.7,21.1-4.8c2.9-0.4,3.6,0.4,3.5,3.2
		c-0.2,6.3-0.1,12.6,0,18.9c0,1.8-0.4,2.8-2.4,3c-7,0.7-13.7,2.5-20.5,4.4c-1.2,0.3-2.7,1.2-2.6-1.1C67.1,141.8,66.3,134,67.3,126.2
		z"/>
	<path id="Path_40511" class="st2" d="M92.1,79.9c0,4,1.4,8.8-0.4,11.6C90,94.1,84.7,93.1,81,94c-3.7,0.9-7.5,1.8-11.2,2.9
		c-2.1,0.6-3,0.5-2.9-2c0.1-6.5,0.1-13.1,0-19.6c-0.2-1.6,0.8-3,2.4-3.2c6.7-2,13.5-3.5,20.5-4.6c2-0.3,2.8,0.1,2.7,2.2
		c-0.1,3.4,0,6.8,0,10.1L92.1,79.9z"/>
	<path id="Path_40512" class="st2" d="M92.4,106.8c0,3.3-0.1,6.5,0,9.8c0,1.6-0.3,2.5-2.2,2.8c-7.1,0.9-14,2.5-20.8,4.6
		c-1.8,0.6-2.5,0.2-2.5-1.8c0.1-6.8,0.1-13.6,0-20.3c-0.1-1.3,0.8-2.5,2.1-2.7c6.9-2.1,14-3.7,21.2-4.8c1.8-0.3,2.3,0.2,2.3,1.9
		C92.3,99.8,92.4,103.3,92.4,106.8z"/>
	<path id="Path_40513" class="st2" d="M146.4,126c0.2,0.1,0.4,0.2,0.6,0.2c1.5,0.8,1.1,2.2,1.1,3.4c0,6.2,0,12.4,0,18.6
		c0,3.8-0.5,4.2-4.3,3.4c-3.9-0.8-7.5-2.4-11.5-2.9c-2.4-0.3-4.8-1-7.2-1.1c-2.4-0.1-3.4-1-3.5-3.8c-0.2-6.8,0-13.6-0.1-20.4
		c0-1.9,0.7-3.4,2.7-3.1c7.3,1,14.5,2.3,21.4,5C146,125.4,146.1,125.7,146.4,126z"/>
	<path id="Path_40514" class="st2" d="M69,177.9c-1.2-0.6-2.2-1.3-2.2-2.8c0-6.8,0-13.6,0-20.4c0.1-0.7,0.4-1.3,0.9-1.8
		c6.9-1.7,13.7-3.6,20.7-4.7c2.8-0.5,4-0.2,3.9,3.1c-0.2,6.2-0.2,12.3,0,18.5c0.1,2.3-0.6,3.2-3,3.5C82.5,174,75.6,175.6,69,177.9z"
		/>
	<path id="Path_40515" class="st2" d="M146.3,152.8c1.6,0.8,1.4,2.3,1.4,3.7c0,6.2,0,12.4,0,18.6c-0.8,4-1.1,4.3-5,3.1
		c-6-1.8-12.1-3.1-18.3-3.9c-1.9-0.3-2.9-1-2.9-3.1c0-7-0.1-14.1,0-21.1c0-1.6,0.6-2.9,2.3-2.7C131.5,148.2,139.3,149,146.3,152.8z"
		/>
	<path id="Path_40516" class="st2" d="M149.7,85.8c0-3.1,0.1-6.3,0-9.4c-0.1-2,0.3-2.9,2.5-2c6.7,2.6,13.3,5.6,19.6,9.1
		c1.2,0.6,1.9,1.8,1.7,3.1c-0.1,6.6,0,13.3,0,19.9c0,1.7-0.4,2.4-2.2,1.5c-6.4-3.5-13.2-6.5-20.1-8.9c-1.4-0.5-1.6-1.5-1.6-2.7
		C149.7,92.8,149.7,89.3,149.7,85.8z"/>
	<path id="Path_40517" class="st2" d="M173.5,117.5c1.4,6.1-3.4,9.6-5.9,14c-0.6,1.2-1.5,0.6-2.4,0.2c-4.5-1.9-9-3.9-13.5-5.7
		c-1.4-0.4-2.3-1.7-2.1-3.1c0.1-6.6,0.1-13.3,0-19.9c0-1.9,0.5-2.5,2.4-1.8c6.8,2.5,13.3,5.6,19.7,9
		C175.1,112.1,172.8,115.2,173.5,117.5z"/>
	<path id="Path_40518" class="st0" d="M146.3,152.8c-6.8-1.7-13.5-3.5-20.4-4.6c-2.7-0.4-3.8-0.1-3.7,3c0.2,6.2,0.1,12.4,0,18.5
		c0,2.3,0.7,3.2,3.1,3.5c6.1,0.7,12.2,2,18.1,4c2.6,0.9,3.6,0,4.3-2.2l0.7,2.3c-2.9,10.2-5.2,20.6-6.9,31c-0.2-2.1,0.4-4.5-2.2-5.7
		c0-5.5,1.7-10.8,2.9-16.1c1.1-5.1,0.7-5.9-4.2-7.2c-2.8-0.7-5.7-1.3-8.5-1.8c-4.2-0.7-5.2,0.1-5.2,4.1c0.1,5.7-0.7,11.4,0.7,17
		c0.1,0.3-0.1,0.7-0.3,1c-1.6,0-3.1-0.2-4.6-0.7c0.1-7.4,0.1-14.9,0.3-22.3c0-2-1.1-2.2-2.6-2.4c-6.4-0.7-12.8-0.3-19.2-0.3
		c3-1.4,6.2-0.5,9.3-0.8c2.8-0.2,5.6,0.6,8.3-0.7c3.6,0.6,4.5-1.1,4.3-4.5c-0.3-5.5-0.3-11,0-16.5c0.2-3.5-1.1-4.2-4.3-4.4
		c-7-0.4-14,0-21,0.1c-0.9-0.9-1.4-2.2-1.4-3.5c0-6.9,0-13.7,0-20.6c0-0.9,0.3-1.9,0.9-2.6c-0.7,7.8-0.1,15.5-0.3,23.3
		c-0.1,2.4,1.7,1.6,2.9,1.9c6.8,0.1,13.6,0.1,20.4,0c1.9,0.1,2.9-0.3,2.8-2.7c-0.2-6.6-0.1-13.3,0-19.9c0-2-0.7-2.5-2.6-2.7
		c-7.6-0.8-15.1-0.4-22.7,0c-0.2-0.5-0.4-1-0.6-1.6c7.6-0.8,15.3-0.9,23-0.2c2.4,0.2,3-0.5,2.9-2.8c-0.1-7.3-0.1-14.6-0.1-22
		c2.3,2.3,1.6-1.5,2.9-1.4c1.3,0.2,3-0.7,3.6,1.4c-4.5-0.1-4.5-0.1-4.5,4.3c0,6,0,11.9,0,17.9c0,1.6,0,2.9,2.2,3.2
		c7.9,1,15.6,3.1,23.2,5.1l-1.3,1.5c-6.7-1.7-13.3-3.5-20.1-4.6c-3.4-0.6-4.2,0.5-4.1,3.7c0.2,6.1,0.1,12.1,0,18.2
		c0,1.8,0.5,2.8,2.4,3.1c7.1,0.9,14,2.4,20.8,4.5c1.4,0.4,2.2,0.4,2.2-1.4c0-7.2,0-14.5-0.1-21.7c-0.1-0.6-0.3-1.1-0.6-1.6
		c1.5,0.7,1.5,2,1.5,3.3c0,6.4,0,12.8,0,19.3C148.6,150.4,147.8,152,146.3,152.8z"/>
	<path id="Path_40519" class="st3" d="M92.3,199l-8.4,1.4c-1.4-0.6-2.5-1.7-3-3.2c-2.1-5.3-5.1-10.3-8.9-14.5
		c-1-1.2-2.1-2.4-0.5-3.9l-0.1-0.1c6-1.1,11.8-2.9,17.8-3.7c2.4-0.3,3.4-0.1,3.3,2.6C92.2,184.8,92.3,191.9,92.3,199z"/>
	<path id="Path_40520" class="st3" d="M149.7,139.8c0-3.3,0.1-6.5,0-9.8c0-2,0.4-2.9,2.6-1.9c3.9,1.8,7.9,3.4,11.9,5
		c1.9,0.8,1.6,1.7,0.8,3.1c-2.8,5.1-5.5,10.3-8.2,15.4c-0.5,1-0.6,3-2.5,2.1c-1.8-0.8-4.7-0.4-4.5-3.8
		C149.8,146.6,149.7,143.2,149.7,139.8z"/>
	<path id="Path_40521" class="st0" d="M64.5,100.3c1-1.7,1.4-3.6,1.2-5.6c-0.1-5.7-0.1-11.3,0-17c0.1-2.1-0.6-4.1-0.7-6.1
		c2,0.2,1.2,1.7,1.2,2.7c0,6.3,0,12.6,0,18.9c0,10.5,0,20.9,0,31.4c-1.2-3.8-0.3-7.8-0.6-11.7c-0.3-4,0.6-8.1-0.6-12
		C64.9,100.9,64.6,100.6,64.5,100.3z"/>
	<path id="Path_40522" class="st5" d="M149.7,166.4c0-3.2,0-6.4,0-9.6c0-0.8-0.3-1.9,0.5-2.2c1.2-0.4,2.4,0.5,3.6,1
		c1.3,0.6,0.5,1.6,0.2,2.4c-1.1,2.8-2.3,5.6-3.4,8.3L149.7,166.4z"/>
	<path id="Path_40523" class="st2" d="M272.5,71.3c0.8,0.6,0.8,1.6,0.9,2.5s1.1,2.3-0.6,2.4c-1.6,0.1-0.9-1.4-1.1-2.3
		c0-0.3,0-0.7-0.1-1L272.5,71.3z"/>
	<path id="Path_40524" class="st1" d="M581.7,177.3c0.2,0,0.5,0.1,0.7,0.1c2.4,3.9,4.7,7.8,7.2,11.6c14.7,22.5,29.4,45,44.2,67.4
		c2.5,3.8,2.5,3.8-1.5,6.4c-42.6,27.9-85.2,55.9-127.7,83.8c-2.8,1.8-4.1,1.7-6-1.2c-15.6-24-31.3-47.9-47-71.8
		c-0.7-1.1-1.2-2.3-2.4-2.9c-0.2-0.3-0.3-0.6-0.3-1c3.4-5,8.5-7.7,13.7-10.2c1.3,0,1.6,1.1,2.2,2c4.2,6.1,8,12.6,12.2,18.7
		c1.4,2,2.5,2.8,5,1.3c6.2-3.8,12.2-8.1,18.4-12.1c14-8.9,27.8-18.2,41.8-27.3c12.7-8.2,25.3-16.5,37.9-24.9
		c3.3-2.2,3.6-3.5,1.4-6.8c-5.8-8.3-11-17-16.7-25.4c-0.8-1.2-2.5-2.4-1-4.3C568,176.8,577.7,174.9,581.7,177.3z"/>
	<path id="Path_40525" class="st1" d="M559.9,348.4c-11.9-1.4-23.9-0.1-35.3,3.7c-4.9,1.5-9.5,4-13.6,7.1c-1.8,1.4-2.8,1.3-3.7-0.7
		c-0.2-0.3-0.3-0.6-0.5-0.9c-4.7-7.3-4.7-7.3,2.7-12.2c41.4-27.1,82.8-54.3,124.2-81.5c2.6-1.7,4-1.7,5.8,1.1
		c4.3,7,8.8,13.8,13.4,20.5c1.4,2.1,1.3,3.3-0.9,4.7c-28.9,18.8-57.7,37.7-86.5,56.7C563.9,348.1,561.9,348.6,559.9,348.4z"/>
	<path id="Path_40526" class="st2" d="M564.8,350.5c7.5,1.9,14.9,3.7,21.6,7.9c2.4,1.5,4.6,3.2,6.6,5.2c7.4,7.6,7.4,16.6,0,24.2
		c-6.1,6.2-13.8,9.5-22.1,11.4c-17.1,4-34,3.4-50.4-3.7c-5.9-2.5-11.1-6.5-15-11.7c-4-9.7-2.3-16.5,6.1-23c10-7.7,21.8-10.3,34-11.1
		C552,349.5,558.4,349.8,564.8,350.5z"/>
	<path id="Path_40527" class="st0" d="M449.2,269.9c0,0.2,0,0.5-0.1,0.7l-0.6,0.6l-0.3,0l-0.3,0c-1.8,0.4-2.6-0.9-3.3-2
		c-6.5-9.4-12.6-19.1-18.8-28.6c-1-1.2-1.4-2.8-1.1-4.3l1.4-3.6c1.1,0.6,2.1,1.5,2.7,2.7c6.3,10.1,13.1,20,19.6,30.1
		C449.2,266.8,450.5,268.1,449.2,269.9z"/>
	<path id="Path_40528" class="st2" d="M441.4,223.6c0.2-0.1,0.3-0.3,0.3-0.5c0.5-1.6-0.1-3.6,2-4.4c1.1-1.4,1.8-3,2.2-4.8
		c3.4-7.3,6.9-14.5,10.3-21.8c5.1-11,10-22.1,15.2-33.1c1.3-2.8,0.8-3.7-2.3-3.6c-5.7,0.2-11.4,0.1-17.2,0c-1.2,0-2.5-0.3-3.5-0.9
		c4.3-2.8,8.5-5.6,12.8-8.4c17.2-11.3,34.4-22.5,51.5-33.8c2.1-1.4,2.9-1.2,4.3,0.9c14.6,22.4,29.2,44.8,43.9,67.1
		c0.4,0.7,1,1.3,1.5,1.9c0.2,0.3,0.4,0.6,0.3,1c-0.3,1.1-0.9,2.2-1.8,3c-7,5.9-10.8,14-14.4,22.1c-4,9.1-7.3,18.4-12.6,26.9
		c-8,12.8-19.1,20.3-34.3,21.8c-6.2,0.6-12.4,0-18.5,1.1c-3.6,0.6-7.1,1.3-10.6,2.3c-1.8,0.7-3.7,0.8-5.5,0.5
		c-2.8-2.2-4.5-5.3-6.3-8.3c-5.2-8.4-11-16.4-16.1-24.8C441.5,226.4,440.9,225.2,441.4,223.6z"/>
	<path id="Path_40529" class="st2" d="M581.7,177.3c-6.3,0.2-12.3,2-18.2,4.2c-0.4,0-0.7-0.3-0.7-0.6c0,0,0,0,0,0
		c-8.4-12.9-16.7-25.9-25.1-38.8c-6.8-10.4-13.6-20.7-20.3-31.1c-1.4-2.2-2.4-2.4-4.6-1c-22.1,14.6-44.4,29.1-66.5,43.7
		c-1.8,1.2-4,1.9-6.2,1.8c-15.2-0.1-30.4,0-45.6-0.1c-2.8,0-4.2,0.8-5.2,3.4c-1.4,3.7-3.3,7.2-5.2,11.4c-1.5-2.3-2.8-4-4-5.8
		c-3.4-5.2-6.7-10.4-10.2-15.5c-1.4-2.1-1.4-3.1,0.9-4.6c27.1-17.6,54.2-35.4,81.2-53.2c16.4-10.8,32.8-21.5,49.2-32.3
		c1.5-1,2.3-1.3,3.5,0.5c25.5,39,51,78,76.5,117C581.4,176.7,581.6,177,581.7,177.3z"/>
	<path id="Path_40530" class="st2" d="M445,212.4c-1.1,1.7-2.9,1.2-4.4,1.2c-24.6,0-49.3,0.1-73.9,0.1c2.4-7.3,6.1-14.1,9.2-21.1
		c4.8-10.8,9.8-21.4,14.6-32.2c1.1-2.4,2.4-3.4,5.2-3.4c23.4,0.1,46.9,0.1,70.3,0.1c3.9,0,4,0,2.3,3.7
		c-7.2,15.8-14.4,31.6-21.6,47.4C446.1,209.5,445.6,211,445,212.4z"/>
	<path id="Path_40531" class="st0" d="M562.9,180.8l0.7,0.7c6.5,10,12.9,20,19.6,29.8c1.9,2.8,1.5,4.2-1.3,6
		c-32.6,21.2-65.1,42.5-97.5,63.9c-1,0.6-2,1.2-2.9,1.9c-2,1.6-3.2,1-4.5-1c-4.2-6.7-8.6-13.3-12.9-20c-0.7-0.7-0.3-1.2,0.3-1.7
		c2.4,0,3.8,1.4,4.9,3.4c2.6,4.3,5.4,8.4,8.3,12.6c2,2.9,3.1,3.2,6.1,1.2c6.2-4,12.3-8.1,18.4-12.1c24.6-16.2,49.2-32.2,73.8-48.4
		c4.7-3.1,4.8-3.6,1.6-8.2c-4.7-6.9-9.1-14.1-13.8-21.1c-1-1.4-2.1-2.9-1.3-4.8l0-0.7C562.4,181.7,562.6,181.3,562.9,180.8z"/>
	<path id="Path_40532" class="st0" d="M231.2,177.3c-3.3-8.9-4.8-18.3-6.3-27.6c-0.4-2.7-0.8-5.3-1.1-8c-0.1-0.8-0.7-2.2,0.7-2.3
		c1.3-0.1,1.1,1.3,1.2,2.1c0.8,7.4,2,14.8,3.6,22.1c0.7,3.2,1.6,6.3,2.4,9.5c0.1,0.4-0.1,1.4,0.8,1c0.3-0.1,0.5-0.8,0.7-1.2
		C233.9,175.1,232.5,176.2,231.2,177.3z"/>
	<path id="Path_40533" class="st2" d="M340.5,223.6c4.6,14.1,9.4,28.1,13.8,42.2c5.7,18.4,10.7,36.9,15.6,55.6
		c0.7,2.7,0.1,3.4-2.6,3.4c-11.3-0.1-22.6-0.1-33.9,0c-2.4,0-3.4-0.9-4.2-3.1c-2.8-8-5.8-15.9-8.8-23.9c-1.2-0.7-2.1-1.8-2.7-3.1
		c-7.9-21.9-16-43.9-23.4-66c-1-2.5-1.7-5.1-2.2-7.8c-0.4-2.4-1.3-3.9-4.1-3.6c-10.5,0.5-20.9,2.2-31.3,3.1
		c-9,0.9-18.1,1.9-27.4,2.3c1.8-1.2,3.6-2.4,5.4-3.6c17.9-11.5,36.3-22.1,55.7-30.8c5.8-2.6,11.9-4.3,18.1-5.2
		c7.1-0.9,12.5,1.3,16.4,7.5c4.2,6.9,7.8,14.1,10.9,21.5c0.4,0.8,0.8,1.7,1.2,2.5C337.8,217.8,339,220.8,340.5,223.6z"/>
	<path id="Path_40534" class="st2" d="M341.7,191.3c-4.1-1.9-3.7-5.4-4.3-8.3c-0.5-2.8-1.2-4.1-4.4-3.6c-3.3,0.4-6.6-0.6-9.2-2.7
		c-2.1-1.6-3.9-1.5-6.2-0.8c-13.5,4.2-26.6,9.6-39.1,16c-2.2,1.1-3.6,1.3-5-1.2c-2.3-4-5-7.9-7.5-11.8c-1-1.5-1.2-2.6,1-3.3
		c18-6.5,36.2-12.3,55.5-14.1c5.5-0.5,11-0.4,16.4,0.5c1.4,0.2,2.8,0.4,2.8,2.4C341.6,173.4,341.7,182.3,341.7,191.3z"/>
	<path id="Path_40535" class="st0" d="M288,217.3c2.1-0.7,3.6-0.8,4.6,1.9c9.2,26,18.4,51.9,27.7,77.9c0.1,0.2,0.1,0.5,0.1,0.7
		c-3.1,0.3-2.8,2.9-3.2,5c-0.2,1.3-0.2,2.5-0.3,3.8c0.7,0.4,1.2,1.1,1.3,1.9c0,3.1-0.6,6.2-1.6,9.2c-0.3,0.8-1.1,1.3-1.9,1.3
		c-0.9-1.8-0.7-4-2-5.6c-2.4-10.2-4.9-20.4-7.3-30.6c-4.6-19.6-9.2-39.2-13.7-58.8c-0.3-1.5-0.5-3-0.8-4.5
		C290.4,218,288.9,218,288,217.3z"/>
	<path id="Path_40536" class="st0" d="M211.6,224.3c-5.3-6.7-8.8-14.5-11.9-22.4c-4.7-11.4-7.8-23.4-9.2-35.7
		c-0.9-3.5,0.4-7.1-0.7-10.6c0-0.6,0-1.3,0-1.9c-0.4-5.7-0.4-11.4,0-17.1c0.1-1.1-0.5-3.3,0.9-3.1c1.7,0.4,0.5,2.5,0.5,3.9
		c-0.4,5.4-0.4,10.8,0,16.1c2.5,26.5,12.8,49.4,31.7,68.3c0.9,0.9,1.7,2.3,3.3,1c1.1,0.4,1.9,1.2,2.3,2.2c-2.2,0.8-4.5,1-6.8,0.8
		c-2.4-0.1-4.8-0.1-7.2,0.2C212.7,226.2,212.1,225.5,211.6,224.3z"/>
	<path id="Path_40537" class="st2" d="M424.8,236.3c6.9,10.4,13.8,20.8,20.7,31.1c0.8,1.3,1.7,2.5,2.5,3.8c-0.1,0.4-0.1,1-0.4,1.3
		c-7.4,8.9-12.2,19.6-19,28.9c-4.7,6.7-11.2,12-18.7,15.4c-2.4-4.9-4.8-9.7-7.3-14.6c-0.4-0.8-0.6-2-1.7-2c-1.2-0.1-1.3,1.2-1.7,1.9
		c-2.2,4.2-4.5,8.4-6.4,12.8c-1.5,3.6-3.6,6.1-7.5,6.7c-3.3,2.3-7.3,1.6-11,2.1c-1,0.1-1.7-0.7-2.3-1.3
		c-4.8-17.3-9.6-34.6-14.6-51.9c-4.2-14.7-9-29.2-14.2-43.6c-0.9-2.5-0.3-3,2.1-3c8.5,0.1,17,0.1,25.6,0.1c1.2,0,2.4-0.2,3.1,1
		c0.1,0.6,0.1,1.3,0.2,1.9c0.8,0.7,1.4,1.6,1.6,2.6c3.6,13.9,17.8,22.2,31.7,18.6c5.3-1.4,10-4.4,13.5-8.6
		C422.1,238.4,422.8,236.7,424.8,236.3L424.8,236.3z"/>
	<path id="Path_40538" class="st2" d="M449.2,269.9c-7.2-11-14.4-22-21.6-33.1c-0.8-1.3-1.8-2.5-1.4-4.1c0.9-1.2,1.4-2.7,1.4-4.2
		c-0.1-4.3,2.3-4.9,5.7-4.4c2.2,0.3,4.6-0.9,6.6,1.1c1.2,0.1,1.7,1.1,2.2,1.9c6.5,10.2,13.2,20.3,19.8,30.4c0.5,0.7,1.3,1.5,0.6,2.5
		c-0.1,0.3,0,0.9-0.2,1C458,264,453.6,266.9,449.2,269.9z"/>
	<path id="Path_40539" class="st2" d="M377.7,224.4c12.2,2.7,24.3,5.5,36.5,8.2c2.5,0.5,4.8,1.9,7.5,1.5c2.9,0.7,1.8,2.5,0.9,3.8
		c-4.9,7.4-13.3,11.7-22.1,11.4c-12-0.3-22.3-8.6-25-20.3c-0.2-1.3-0.3-2.5-0.1-3.8C375.5,223.7,376.4,223.5,377.7,224.4z"/>
	<path id="Path_40540" class="st6" d="M375.7,222c0.1-6.8,0.1-6.8,6.9-6.8c19.1,0,38.2,0,57.2,0c1.2,0,3.4-0.9,3.1,1.9
		c-0.5,1.5-0.1,3.5-2.1,4.3l0,0c-0.5,1.3-1.6,1.2-2.6,1.2c-20.3,0-40.6,0-60.9,0C376.6,222.5,376.1,222.6,375.7,222z"/>
	<path id="Path_40541" class="st6" d="M374.2,222c-10.2,0.6-20.5,0.1-30.7,0.3c-1.6,0-4.6-5.1-4-6.4c0.4-0.8,1.2-0.6,1.8-0.6
		c10.9,0,21.9,0.1,32.8,0.2C374.1,217.6,374.1,219.8,374.2,222z"/>
	<path id="Path_40542" class="st0" d="M377.7,224.4c-2.3-0.3-2,1.2-1.8,2.7c2.2,15.5,19.1,25.4,33.7,19.9c5.1-1.9,9.4-5.3,12.4-9.8
		c0.8-1.2,1.4-2.2-0.4-3c1.6-0.2,2.3,1,3.1,2.1c-5.7,9.5-14.1,14.4-25.2,13.9c-10.5-0.5-18.2-5.8-23-15.2c-1.4-2.4-2.1-5.2-2.3-8
		C375.3,226,375,222.1,377.7,224.4z"/>
	<path id="Path_40543" class="st0" d="M462.6,260l-22.7-34.9l1.5-1.5c0.1,0.9,0.5,1.8,1.1,2.5c7.4,11.3,14.8,22.6,22.2,33.9
		c0.2,0.2,0.3,0.3,0.2,0.5c-0.1,0.2-0.2,0.2-0.2,0.2l-0.7,1.4L462.6,260z"/>
	<path id="Path_40544" class="st0" d="M375.5,222c2.8,0.1,5.8,0.2,8.6,0.2c17.5,0,35,0.1,52.4,0c1.5,0,3.1,0.4,4.3-0.9
		c-0.6,1.7-2.1,1.5-3.5,1.5c-19.3,0-38.6,0-58,0C378,222.9,376.5,223,375.5,222z"/>
	<path id="Path_40545" class="st0" d="M440.7,221.4c0.4-1.6,1.1-3,2.1-4.3l0.8,1.6c-0.3,1.6-1,3.1-2,4.4
		C441.3,222.5,441,221.9,440.7,221.4z"/>
	<path id="Path_40546" class="st2" d="M596.9,386.8c-3.5,13.6-11.8,23.3-24.2,29.6c-25.7,13-57.5,0.5-67.3-26.4
		c-0.2-0.7-1.3-1.4-0.3-2.2c0.6-0.5,1.3,0,1.8,0.5c9.2,9.3,21,12.8,33.4,14.4c15.5,1.9,30.5,0.3,44.6-6.9
		C589.4,393.5,593.4,390.4,596.9,386.8z"/>
	<path id="Path_40547" class="st2" d="M64.5,100.3l0.7,0.5c0,7.1-0.1,14.2-0.1,21.3c0,1.5,0.2,3.1-1.5,3.9c-1.7,2.7-5,2.7-7.5,3.9
		c-3.2,1.5-6.5,3-9.7,4.6c-1.5,0.6-3,1-4.6,1.3l0,0c-1.1,0.1-1-0.7-1-1.3c0-7.2,0-14.5,0-21.7c-0.1-0.8,0.3-1.6,0.9-2.2l0.9-0.7
		c4.1-1.1,7.5-3.6,11.4-5.2C57.5,103.4,61,101.8,64.5,100.3z"/>
	<path id="Path_40548" class="st2" d="M42,137.4l1.2-0.9c6-4.4,12.8-6.9,19.7-9.3c1.3-0.5,2.5,0,2.5,1.9c-0.1,7.2,0,14.4,0,21.7
		c0.1,0.8-0.4,1.6-1.1,2l0,0c-1.2,1.5-3.1,2-4.7,2.7c-4.6,2.1-9.5,3.6-13.8,6.4c-1.1,0.7-2.3,0.2-3.4,0.7c-0.2,0-0.4,0.1-0.5,0.2
		c-1,0-1-0.8-1-1.5c0-7.2,0-14.4,0-21.6C40.8,138.7,40.9,137.8,42,137.4z"/>
	<path id="Path_40549" class="st3" d="M41.4,109.2c-0.8-7.7-0.1-15.4-0.4-23.1c0-1.4,0.8-2.1,1.9-2.7c6.2-3.4,12.7-6.4,19.4-9
		c2.1-0.8,2.9-0.5,2.8,2c-0.1,6.4-0.1,12.8,0,19.3c0,2.1-0.6,3-2.7,3.8c-7.2,2.6-14.3,5.6-20.9,9.7L41.4,109.2z"/>
	<path id="Path_40550" class="st1" d="M41.1,203.9c0-2.9,0.1-5.8,0-8.8c-0.3-2,0.9-4,2.7-4.8c5.9-3.1,11.9-5.9,18.1-8.3
		c2.3-0.9,3.2-0.5,3.2,2.1c-0.1,6.2-0.1,12.4,0,18.6c0.2,1.5-0.7,3-2.2,3.5c-6.5,2.6-12.9,5.6-19,8.9c-2.2,1.3-2.9,0.5-2.8-1.8
		C41.1,210.2,41.1,207,41.1,203.9z"/>
	<path id="Path_40551" class="st1" d="M65,174.5c0.6,3.3-0.8,5-4,6.1c-5.8,2-11.4,4.6-16.8,7.5c-1.5,0.8-3,1.5-3-1.2
		c-0.2-6.8,0.3-13.7-0.5-20.5c-0.1-0.5,0.4-1,0.7-1.5c2.1,1.5,4.5,2.3,7.1,2.4c4,0.3,8,1.4,11.6,3.2C62.1,171.2,63.8,172.7,65,174.5
		z"/>
	<path id="Path_40552" class="st1" d="M71.4,178.8c0.1,0.4,0.1,1,0.4,1.3c5.9,5.7,9.5,12.7,12.1,20.3c-4.5,1.1-9.1,2-13.6,3.3
		c-2.9,0.8-3.5-0.2-3.4-2.8c0.1-5.4,0.2-10.7,0-16.1C66.7,181.3,67.9,179.3,71.4,178.8z"/>
	<path id="Path_40553" class="st3" d="M65,174.5c-6.9-3.3-13.9-5.9-21.7-6c-2.6,0-1.9-2.1-2-3.6l2.6-1.7c1.1-1.9,3.1-2.5,4.9-3.3
		c4.3-2,8.7-4,13.3-5.6c1-0.4,1.9-0.9,2.9,0C65,161,65,167.7,65,174.5z"/>
	<path id="Path_40554" class="st0" d="M64.2,152.7c1-1.1,0.8-2.4,0.8-3.6c0-6-0.2-12.1,0.1-18.1c0.1-3.5-1.1-3.5-3.7-2.4
		c-5,2.1-10.1,4.2-14.9,6.8c-1,0.5-1.9,1.3-3.2,1.2l-1.4-0.6c6.8-4.2,14.1-7.5,21.8-9.8c1.5,0.8,2.3,2.4,2.2,4c-0.1,6.5,0,13,0,19.4
		C65.7,150.8,65.8,152.1,64.2,152.7z"/>
	<path id="Path_40555" class="st0" d="M65,154.2c-7.4,2.2-14,5.9-21,8.9l-1.6-0.7c6.9-4.2,14.2-7.5,21.9-9.8L65,154.2z"/>
	<path id="Path_40556" class="st0" d="M41.7,110.7c-1.3,5.5-0.4,11.1-0.5,16.7c0,2.8-0.9,5.8,0.7,8.5c-1.6,0.3-1.4-0.9-1.4-1.7
		c0-7.1,0-14.1,0-21.2C40.4,112.1,40.9,111.2,41.7,110.7z"/>
	<path id="Path_40557" class="st0" d="M42,137.4c-0.6,0.6-0.9,1.4-0.9,2.2c0,7.2,0,14.4,0,21.6c0,0.6,0.2,1.2,0.7,1.5
		c-2,0-1.4-1.6-1.4-2.5c-0.1-6.5,0-13.1,0-19.6C40.4,139.3,40.5,137.9,42,137.4z"/>
	<path id="Path_40558" class="st3" d="M327.2,38.4c-1.7,0.5-2.9-0.8-4.1-1.5c-4.3-2.5-8.6-5-13.4-7.8c5.4-3.1,10.3-6,15.3-8.9
		c0.8-0.5,1.8-0.5,2.6,0.1c4.9,3.1,10.3,5.5,15,9L327.2,38.4z"/>
	<path id="Path_40559" class="st3" d="M362.3,16.1c-2.3-0.7-4.3-2.2-5.6-4.3c-0.8-4,1.3-6.5,4.6-8c5.9-2.7,12.7-2.7,18.6,0.1
		c2.9,1.3,5.1,3.4,4.6,7c-2.2,4.6-6.6,5.4-10.9,6.5c-2.6,0.7-5.2,0.3-7.8,0.4C364.3,18,363,17.3,362.3,16.1z"/>
	<path id="Path_40560" class="st3" d="M372.1,37c-3.1-0.5-6.2-0.4-9.2-1.5c-2.5-0.9-4.7-2.6-6.3-4.7v0c-0.7-5.1-0.2-10.2-0.3-15.3
		c0-0.5,0.4-0.8,0.9-0.6c0.7,1,1.7,1.7,2.8,1.9c2.3,0.7,5,0.3,7.1,2.1c2.2,1.5,4.8-0.1,7,0.7c0.4,5.6,0.8,11.2-0.2,16.8L372.1,37z"
		/>
	<path id="Path_40561" class="st0" d="M367.2,18.8c-2.5,0-5-0.7-7.1-2.1l2.1-0.7c3.7,1,7.5,1.5,11.2,1.4
		C371.6,18.8,369.1,17.6,367.2,18.8z"/>
	<path id="Path_40562" class="st0" d="M374.1,36.3l0.2-16.8C375.2,25.2,375.6,30.8,374.1,36.3z"/>
	<path id="Path_40563" class="st7" d="M377.7,65c-0.6,0.4-1.1,0.9-1.9,0.4c-5.8-3.2-11.3-6.7-16.7-10.5c7.8-1.2,15.5-2.4,23.3-3.5
		c0.8-0.1,0.9,0.6,1,1.2C381.1,56.5,379.2,60.7,377.7,65z"/>
	<path id="Path_40564" class="st2" d="M109.4,376.8l38.8-57.4c1.3,0.6,0.8,1.6,0.8,2.3c0,17.4,0,34.8,0,52.2c0,1.8,0.3,3.5-2.5,3.5
		c-11.9-0.1-23.8-0.1-35.7-0.1C110.3,377.2,109.8,377,109.4,376.8z"/>
	<path id="Path_40565" class="st3" d="M325,40c0.1,5.6,0.1,11.2,0.2,16.8c0,2-0.5,2.5-2.4,1.4c-4.1-2.5-8.2-4.9-12.4-7.2
		c-1.2-0.6-1.9-1.8-1.7-3.1c0-4.7,0-9.3-0.1-14c-0.1-2.5,0.8-2.8,2.8-1.6C315.9,34.9,320.5,37.4,325,40L325,40z"/>
	<path id="Path_40566" class="st3" d="M375.6,67.2c1.4,2.4,0.6,5,0.7,7.5c0.1,3.8,0,7.7,0,12.3c-4.8-2.8-9-5.6-13.6-7.7
		c-5.2-2.3-7.7-5.6-6.7-11.5c0.3-2.8,0.3-5.6,0.1-8.4c-0.1-2.6,0.5-3.2,2.9-1.7c4.9,3,9.9,5.8,14.8,8.6
		C374.3,66.7,375,66.9,375.6,67.2L375.6,67.2z"/>
	<path id="Path_40567" class="st2" d="M124.7,199.7c-1.6-0.2-2.8-1.8-2.6-3.4c0,0,0,0,0,0c0.2-6.2,0.1-12.4,0-18.6
		c0-2.2,0.5-3,3-2.7c6.1,1,12.2,2.3,18.1,3.9c1.4,0.4,2.6,0.7,2,2.8c-1.8,6.3-3.3,12.6-4.4,19.1c-0.2,1-0.4,1.8-1.7,1.8
		C134.6,201.1,129.7,200.1,124.7,199.7z"/>
	<path id="Path_40568" class="st0" d="M357.3,14.8c-1.7,2.8-0.5,5.8-0.8,8.7c-0.2,2.4,0.1,4.8,0.1,7.2c-1.6-5.1-0.5-10.3-0.6-15.5
		C356.1,14.7,356.6,14.3,357.3,14.8z"/>
	<path id="Path_40569" class="st2" d="M235.4,281.8c-2.4,0.4-4.9,0.2-7.2-0.5l7.9-0.9L235.4,281.8z"/>
	<path id="Path_40570" class="st2" d="M314.6,318.9c1.2-4,1.9-8.2,2.3-12.4l2-7.3c2.4,4.4,3.4,8.7,4.9,12.7c1.4,3.7,2.9,7.4,4,11.2
		c0.7,2.6,2,3.8,4.7,3.4c2.5-0.4,3.7,0.6,4.6,3c2,5.1,3.2,10.5,3.5,15.9c-5.9,6.9-11.2,14.3-18.5,19.9c-2.4,1.8-4.9,3.6-7.3,5.4
		c-9.2-2.6-17.4-6.5-21.7-15.9c-0.2-0.5-0.5-1.1-0.6-1.6c-1.6-5.8-1.2-6.3,4.8-6.3c3.4,0,6.8-0.1,10.1,0c1.7,0,2.6-0.6,2.9-2.3
		C311.5,336.1,313.6,327.6,314.6,318.9z"/>
	<path id="Path_40571" class="st2" d="M388.8,323c-3.7,7.2-7.3,14.4-11.1,21.6c-0.4,0.8-1.6,1.3-2.6,1.7
		c-8.9,3.8-17.9,7.5-26.8,11.3c-2,0.9-2.9,0.5-3.6-1.6c-2.1-6.3-2.7-12.9-4.1-19.3c-0.3-1.3,0.6-1.5,1.6-1.8
		c6.6-1.5,13.2-3.1,19.7-4.7c2.3-0.6,3.4,1,4.9,2.2c6.5,5.2,7.2,5.1,12.6-1.2c2.3-2.7,4.4-5.7,7.4-7.9
		C387.4,322.7,388.2,322.6,388.8,323z"/>
	<path id="Path_40572" class="st1" d="M372.1,322.4c4.4-0.8,8.8-1.1,13.3-0.8c-3.2,3.6-6.4,7.1-9.5,10.7c-1.8,2-3.6,2.3-5.7,0.4
		c-1.4-1.3-2.9-2.3-4.3-3.5c-0.6-0.5-1.5-1-1.3-1.9c0.3-1,1.3-0.6,2.1-0.7c0.6-0.1,1.2-0.1,1.7,0
		C371.6,326.9,373.1,325.8,372.1,322.4z"/>
	<path id="Path_40573" class="st8" d="M349.8,326.5c3.4,0,6.8,0,10.2,0c0.8,0,1.8,0,1.8,1.1c0,0.8-0.9,0.9-1.6,1.1
		c-6.1,1.5-12.2,3-18.4,4.4c-1.6,0.4-3.7-2.7-3.7-5.3c0.1-2.2,1.8-1.2,2.9-1.3C344,326.4,346.9,326.5,349.8,326.5z"/>
	<path id="Path_40574" class="st3" d="M278.2,347c1.8,0,3.5,0,5.3,0c6.4,0,6.4,0,7.1,6.3c0.1,1,0.3,1.8-1,2.1
		c-7.4,1.8-14,5.9-21.7,6.7c-2.6,0.3-4,0.1-3.3-3.1c0.7-3.2,1.1-6.4,1.5-9.7c0.2-1.7,1-2.4,2.7-2.3C271.9,347,275.1,347,278.2,347z"
		/>
	<path id="Path_40575" class="st0" d="M189.8,136.5c0,5.7,0,11.4,0,17.1C188.7,148,188.7,142.2,189.8,136.5z"/>
	<path id="Path_40576" class="st0" d="M191.1,153.5c-1.2-5.3-1.2-10.8,0-16.1C191.1,142.7,191.1,148.1,191.1,153.5z"/>
	<path id="Path_40577" class="st0" d="M189.8,155.6c1.4,3.5,0.7,7.1,0.7,10.6C189.7,162.7,189.4,159.1,189.8,155.6z"/>
	<path id="Path_40578" class="st9" d="M117.6,145.7c-6.7,1.2-13.6,1.2-20.4,0C104,144.7,110.9,144.7,117.6,145.7z"/>
	<path id="Path_40579" class="st0" d="M487.9,297.3l80.8-53c-1.2,3.1-76.1,52.7-80.2,53.9L487.9,297.3z"/>
	<path id="Path_40580" class="st0" d="M550.7,278l-52.8,34.6l-0.9-1.4l52.8-34.6C550,277.1,550.4,277.5,550.7,278z"/>
	<path id="Path_40581" class="st0" d="M566.2,319.3c0-6.7,5.4-12.1,12-12.2c0.1,0,0.1,0,0.2,0c6.7,0.2,12.1,5.7,12.2,12.4
		c-0.1,6.8-5.7,12.2-12.4,12.1c-6.5,0.1-11.9-5.2-12-11.7C566.2,319.7,566.2,319.5,566.2,319.3z"/>
	<path id="Path_40582" class="st0" d="M536.1,383.4c-6.7-3.5-7.4-10.2-1.4-14.8c7.8-6.1,24.6-6,32.4,0.2c4.3,3.4,4.9,7,2.2,11.9
		c-0.5,0.2-1,0.2-1.4,0c-7.1-5.8-15.2-7.3-24-5c-5.3,1.4-6,2.4-5.9,7.5c-0.3,0.6-1,0.8-1.6,0.5C536.3,383.5,536.2,383.5,536.1,383.4
		z"/>
	<path id="Path_40583" class="st0" d="M568.3,379.7l1,1c-3.9,5.1-9.6,6.1-15.5,6.6c-6.2,0.5-12.3-0.2-17.7-3.8l1.4-0.7
		c1.8-2.1,3.7-0.6,5.4-0.1c6.8,2,14,1.4,20.4-1.6C565,380.3,566.4,379.3,568.3,379.7z"/>
	<path id="Path_40584" class="st1" d="M464.7,260.7l0-0.7c10.9-3.7,22.2-4.1,33.5-4.7c15.6-0.8,26.9-8.8,34.7-22.1
		c5.6-9.6,9.1-20.2,13.9-30.2c3.7-7.8,8.1-15,15.4-20c6.5,9.8,13,19.7,19.6,29.5c1.7,2.5-0.3,3-1.7,3.9c-14.6,9.6-29.3,19.2-44,28.8
		c-17.7,11.6-35.4,23.1-53,34.9c-2.9,1.9-4.4,1.7-6.3-1.3C472.9,272.7,469.2,266.4,464.7,260.7z"/>
	<path id="Path_40585" class="st0" d="M417.3,202.6c-4.1,0-8.2,0-12.3,0c-0.8,0-1.8,0.4-2.2-0.6c-0.4-1.2,0.8-1.5,1.5-2
		c9.5-6.3,19.1-12.7,28.6-19c3.5-2.3,7-4.7,10.5-6.9c0.7-0.5,1.5-1.6,2.4-0.7c0.8,0.8-0.1,1.7-0.5,2.5c-4,8.2-8,16.3-12,24.6
		c-0.6,1.4-2,2.3-3.6,2.1C425.7,202.5,421.5,202.6,417.3,202.6z"/>
	<path id="Path_40586" class="st0" d="M396.3,182c0.4-4.9,7.1-9.9,12-9c2.3,0.4,3.9,2.6,3.6,4.9c0,0.2-0.1,0.4-0.1,0.6
		c-0.9,4.3-6.4,8.6-10.8,8.4C397.9,186.8,396.1,184.9,396.3,182z"/>
	<path id="Path_40587" class="st0" d="M409.9,263.6c4.6,3.6,6.4,9.8,4.5,15.3c-1.8,5.6-7,9.4-12.8,9.6c-5.6,0.1-10.2-1.9-12.8-7.3
		c-0.3-0.6,0-1,0.4-1.4c1.7-0.6,3.4,0.1,5.2,0.1c8,0.2,13.3-5,13.1-12.9c0-1.1-0.5-2.3,0.4-3.4C408.5,263.3,409.2,262.9,409.9,263.6
		z"/>
	<path id="Path_40588" class="st0" d="M409.9,263.6l-1.4,0.7c-1.3,1.1-2.6,0.5-4,0.1c-8.7-2-14.6,3.1-13.9,11.9c0.1,1.4,0.9,3.1-1,4
		l-0.9,0.9c-3.6-5.8-2.4-13.3,2.9-17.7C397.1,259,404.3,259,409.9,263.6z"/>
	<path id="Path_40589" class="st3" d="M568.3,379.7c-8.4,7-17.9,7.1-27.8,4c-1-0.3-1.8-1.1-2.9-0.9c-4.4-3.5-4.5-4.1,0.5-6.6
		c8.8-4.4,17.7-4.3,26.5,0C566.2,376.9,567.5,378.1,568.3,379.7z"/>
	<path id="Path_40590" class="st3" d="M389.7,280.3c-0.3-1.4-0.7-2.7-0.9-4.1c-0.8-4.5,1-9,4.7-11.7c3.5-2.8,8.2-3.4,12.2-1.6
		c1,0.4,1.9,0.9,2.8,1.3c2,4.8,0.5,10.4-3.7,14.1C400.7,282.2,394.7,283,389.7,280.3z"/>
</g>
</svg>
