<?xml version="1.0" encoding="utf-8"?>
<!-- Generator: Adobe Illustrator 24.2.1, SVG Export Plug-In . SVG Version: 6.00 Build 0)  -->
<svg version="1.1" id="Layer_1" xmlns="http://www.w3.org/2000/svg" xmlns:xlink="http://www.w3.org/1999/xlink" x="0px" y="0px"
	 viewBox="0 0 630 406.5" style="enable-background:new 0 0 630 406.5;" xml:space="preserve">
<style type="text/css">
	.st0{fill:#060D43;}
</style>
<g id="Group_21737" transform="translate(-3074.419 -330.854)">
	<path id="Path_41055" class="st0" d="M3704.3,737.3h-629.7l-0.2-1.6c2.3-0.2,4.6-0.5,6.9-0.5c15.2,0,30.4-0.4,45.6,0.1
		c7,0.2,8.4-2.2,8.3-8.7c-0.2-54.3-0.1-108.5-0.1-162.8c0-12.2,0.6-24.3,3.5-36.2c9.2-38.2,34.2-59.7,72-67.3
		c8.2-1.8,16.5-2.6,24.9-2.3c7,0.4,9.6-2.5,11.7-8.7c5.1-14.6,11.8-28.6,21.2-41c7.6-10,16.3-18.7,27.2-25.1
		c2.4-1.4,5.2-2.5,3.7-6.3c-1.3-3.2-1.5-6.4-6.4-7.2c-10.9-1.9-16.5-8-17.4-17.2c-0.9-9,3.7-16.8,11.7-20.2
		c7.7-3.3,16.7-1.2,22.2,5.1c5.7,6.5,6.4,16,1.9,23.4c-0.5,0.9-1.1,1.7-1.8,2.5c-3.7,3.7-0.8,7.3,0.7,10.4c1.5,3.3,4.5,1,6.7,0.3
		c28.9-8.8,54-2.5,75.5,18.6c9,8.9,14.7,19.4,14.5,32.4c-0.1,3.8,1.9,6,3.9,8.6c10.3,13.7,6,39.1-9.4,43.8
		c-10.5,3.2-13.8,9.7-17.9,17.6c-5.2,9.8-12.9,16.6-24.2,19.3c-7.8,1.8-4.3,9.1-5.9,14c-1.1,3.5,1.1,5.2,4.2,5.8
		c28.5,5.6,44.9,27,61.7,47.7c6.3,7.8,14.6,13.2,22,19.8c3.6,3.2,4.8-0.6,6.1-2.7c8.8-13.3,17.5-26.7,26.4-40
		c6.5-9.6,13.5-18.7,26.9-18.3c3,0.1,3-1.9,2.4-4.2c-1.2-4.4-2.2-8.8-3.3-13.3c-0.5-2.1-0.8-4,1.9-4.9s3.6,0.8,4.1,3
		c0.4,1.2,0.7,2.4,1,3.7c1.5,12.7,7,22.4,17.8,30c9.9,7,10.1,19.8,1.4,28.3c-3.9,3.9-1.6,9.3-4.7,13.1c-2.7-1.1-4.6-3.7-4.7-6.6
		c-0.3-6.3-6-7.7-9.3-11.2c-2.4-2.5-3.3,0.7-4,2.4c-2.2,5.4-4.5,10.8-6.4,16.3c-5.7,16.1-11,32.4-19,48.1c3.9,0.2,5.4-2.2,7.2-3.7
		c16.2-13,32.2-26.3,48.5-39.2c4-3.2,5.5-6.5,5.5-11.6c-0.2-48.7-0.2-97.4-0.1-146c0-4.5-0.8-9.5,5.5-11c6.9-1.6,10.5,1.7,10.5,9.8
		c0.1,40.1,0.1,80.1,0,120.2c-0.1,2-0.1,4.1,0.1,6.1c0.9,6.1,7.2,8.8,12,5.1c1.8-1.4,3.5-2.9,5.3-4.3c8.5-7,11.4-6.4,16.7,3.2
		c4.7,8.3,3.1,16.7,0,25c-1.2,3.1-1.5,5.4,0.5,8.4c24.9,35.8,34,76.5,35.1,119.3c0.2,7.1,2.4,8.9,9.2,8.8
		c20.8-0.4,41.6-0.2,62.4-0.1c2.6,0,5.1,0.2,7.7,0.4L3704.3,737.3z M3382.7,438.8c-6.8,9-7.2,23.3-0.9,31.8c1.5,2,3,4.7,5.7,4.5
		c3.2-0.3,2.8-3.7,3.3-6c0.9-4.5,1.5-9,1.9-13.5c0.7-7.6,1.7-15.5-9.8-15.7c-0.1,0-0.3-0.9-0.4-1.4c2.2-0.1,4.4-0.2,6.6-0.2
		c1.6,0,3.2,0.2,3.1-2c0-1.5-0.3-2.9-1-4.2c-1.1-1.7-2.7-0.6-3.8,0.3C3385.4,434.2,3383,435.7,3382.7,438.8z M3137.9,639.2
		c0,29.7,0.1,59.3-0.1,89c0,5,1.1,7.2,6.7,7.2c32.7-0.2,65.4-0.2,98.1,0c4.9,0,7.2-1.5,6.6-6.5c-0.5-4.3,2.2-10-5.9-10.6
		c-7.1-0.6-14.1-1.6-21-3.1c-12.9-2.6-21.2-10.6-22.5-23.4c-4.4-42.5,1.4-83.4,21.2-121.7c6.1-12.2,16.6-21.5,29.3-26.3
		c9.9-4,20.3-6.6,30.9-7.8c14.6-1.5,20.9-9,22.8-22.8c0.8-5.6,0.4-7.5-5.5-8.3c-18.3-2.5-36.6-5.6-54.8-8.5
		c-8.5-1.4-9.8-3.5-7.4-11.9c1.7-5.8,3-11.8,5.2-17.5c2.3-6-0.1-7.1-5.4-6.7c-9.1,0.7-18.2,1.3-27.1,3.2c-36.4,8-59.8,29.5-68,66.4
		c-2.1,9.7-3.1,19.5-3.1,29.4C3137.9,585.9,3137.9,612.5,3137.9,639.2z M3421.2,723c-12.3-20.4-29-30-55.2-33.3
		c-35-4.4-69.9-9.1-104.8-13.5c-5.3-0.7-6.7-2.3-5.5-7.8c3.1-13.6,5.3-27.4,8.2-41c1.1-5.1,0.3-8.3-4.4-11.4
		c-12.5-8.2-24.8-16.7-36.8-25.6c-5.2-3.9-7.3-3.2-9.4,2.8c-10.2,30.4-14.2,62.5-11.6,94.4c1.2,15.1,8.8,22.8,23.8,25.2
		c48.3,8,96.9,8,145.6,5.1c7.1-0.4,13.5,0.3,19.8,3.6c3,1.6,6.1,2.9,9.9,1.3c-3.5-5.2-9.8-6.1-13.8-11.7
		c9.6,1.6,14.4,10.7,24.7,12.2c-6.5-8.7-13.5-14-20.4-19.4C3403.1,706.3,3408.4,719,3421.2,723z M3555.5,735.5
		c9.6-0.9,18.1,2.9,20.6-8.2c0.5-2.3,4.2-2.2,6.8-2.2c7.6,0,15.2-0.2,22.8,0c4.3,0.1,5.8-1.4,5.5-5.8c-1.6-31.5-8.3-61.7-23.6-89.6
		c-10.1-18.4-10.1-18.1-26.3-5.2c-4.5,3.5-6.4,7.2-6,12.9c0.4,6.3,0.1,12.7,0.1,19c0,5.6-2.9,8.4-8.5,8.3c-5.5-0.1-7.4-3.5-7.4-8.5
		c0-2.5-0.1-5.1,0-7.6c0.1-4.1-1.2-5.3-4.7-2.4c-5.7,4.6-11.3,9.4-17.3,13.7c-4.3,3.1-4.8,6.2-2.6,11c8,17.2,16.3,34.3,23.3,52
		C3542.1,732.7,3547.1,738.2,3555.5,735.5L3555.5,735.5z M3431.8,629.7l-1.9-1.1c1.8-3.2,3.6-6.5,5.4-9.6
		c7.4-12.7,7.5-12.7-3.9-22.5c-13-11.2-12.8-11-25.2,1.1c-4.8,4.6-6.9,9.2-6,16c1.1,8.3,0.8,16.8-2.7,24.6c-1.7,3.6-0.3,5.6,2.5,7.6
		c9,6.6,17.8,13.5,26.9,19.8c9.5,6.6,20.1,6.2,29.6-0.5c9-6.1,16.3-14.5,21.1-24.3c8.6-17.6,13.9-36.4,21-54.5
		c1.9-5,7.3-11-4.6-12.5c8.1-1.7,13.9,0.5,19.4,6.2c-0.2-5.1-0.8-8.8-3.1-11.9c-2.4-2.8-4.9-5.5-7.5-8.1c1.2-2.3,7.4,0.4,5-5.2
		c-1.9-4.4,0.4-11.4-8-11.5c-8.9-0.1-14.6,5-19.5,11.4c-11.8,15.8-22.4,32.5-32.8,49.3C3442.4,612.6,3437.1,621.1,3431.8,629.7z
		 M3312.8,489.9c-2.5,9.4-5.3,17-6.5,24.9c-2.1,13.3-7.4,22.4-22.4,23.1c-6.6,0.3-4.9,3.7-1.6,7.1c13.2,13.1,28.9,21.2,47.4,23.1
		c8.6,0.9,17.2,0.2,25.1-4.1c6-3.3,8.5-8.7,7.5-15.3c-0.7-4.5-0.4-10.3-6.8-11.2c-5.6-0.8-5.2-4.3-4.6-8.3c0.5-3.3,1-6.5,1.3-9.8
		c0.2-2.1,0.4-4.2-2.5-4.6C3333.8,513,3322,504.6,3312.8,489.9z M3360.1,472c10.7,1.7,10-4,9.3-9.7c-0.3-2.8-0.1-5.6-0.3-8.3
		c-0.3-3.1,0.9-7-3.9-7.8c-4.9-0.8-4.1,3.6-4.9,6.1c-4.4,12.5-13.8,19.7-23.9,18.2c-9.7-1.5-16.6-12-16.6-25c0.1-0.5,0.1-1,0-1.5
		c-0.4-2.5,2.2-6.7-3.3-6.5c-4.2,0.2-8.7,0-9.5,6.1c-2.4,19.2,1.3,36.9,13.3,52.3c9.8,12.6,23.1,18.4,38.8,15.7
		c15.3-2.6,22-14.9,27.4-27.9c1.1-2.8,0.9-4.6-1.7-6.4c-7.6-5.2-9.8-13.1-10.1-21.8c-0.1-2.3,0.9-4.9-1.8-7.8
		c-2.1,7-0.5,13.2-0.4,19.2C3372.5,476.4,3371.7,476.9,3360.1,472L3360.1,472z M3441.1,722.4c2.9,2.4,5.6,1.5,8,1.6
		c10.6,0.1,21.3,0.1,31.9,0c4.9,0,8.6,1.2,8.2,7.2c-0.3,3.7,2.1,4,4.9,4c7.8,0,15.7-0.1,23.5,0c4.5,0.1,6-1.2,3.9-5.8
		c-7.3-15.9-14.5-31.8-21.6-47.7c-2.2-4.9-4.4-4.2-7.9-1.3c-13.4,11.2-27,22.2-40.5,33.3C3448.2,716.5,3444.7,719.4,3441.1,722.4
		L3441.1,722.4z M3444.6,674.8l-0.4-2c-10.1,2-17.1-3.6-24.2-8.8c-7.2-5.2-14.2-10.7-21.3-16c-1.3-1-3-3.3-4.5-1.7
		c-3.7,4.1-9.7,7.8-9.8,13c-0.3,9.9,0.8,19.7,3.3,29.3c1.3,5.1,9.2,4,13.6,6.9c2.3,1.6,4.8,2.7,7.2,4.2c1.9,1.2,3.7,1.5,5.6-0.1
		C3424.2,691.4,3434.4,683.1,3444.6,674.8L3444.6,674.8z M3359.3,440.1c-0.4-1.8-0.9-4.8-1.7-7.7c-1.4-5.2-3.7-7.6-9.8-4.8
		c-6.1,2.8-12.9,4.4-19.5,6c-3.3,0.8-4.8,2.5-5.3,5.5c-1.1,6.9-1,13.6,2.5,19.9c5.8,10.6,17.6,12.1,25.8,3.1
		C3356.6,456.3,3359.2,449.2,3359.3,440.1z M3369.7,436.2c0.4,0.7,0.7,1.5,0.9,2.2c0.4,2.4-0.2,5.6,3.3,5.9c2.9,0.2,3.2-2.8,4.2-4.7
		c1.7-3.4,4.1-6.4,7-8.9c6-4.9,5.2-10.4-1.5-18.9c-5.6-7.2-8.1-1-11.6,1.9c-1,0.8-1.8,1.9-2.9,2.4c-10.1,4-13.2,10.5-8,20.6
		c1.3,2.5,0.1,6.6,4.6,6.5C3370.4,443.1,3366.8,438.4,3369.7,436.2L3369.7,436.2z M3414.2,451c-0.5-5.2-1.3-10.4-4.6-14.9
		c-1.3-1.8-2.9-3.5-4.3-0.2c-4,9-12.1,16.3-10.8,27.5c0.3,2.4-1,4.9-1.3,7.4c-0.3,1.9-2,4.1,0,5.6c2,1.5,4.4,0.7,6.5-0.4
		C3410,471,3413.2,461.8,3414.2,451L3414.2,451z M3304.5,443.7c1.3-4.7-1.4-5.9-6.2-5.3c-8.1,0.9-12.7,7.2-11.8,16.4
		c0.8,7.8,7.9,14.1,14.8,13.5c3.5-0.3,3.3-2.5,2.9-4.9C3303.3,457.1,3303.6,450.8,3304.5,443.7L3304.5,443.7z M3521.4,577.5
		c5.4-12.4,3-20.8-8.7-27.4C3516.8,558.8,3519.7,568,3521.4,577.5L3521.4,577.5z"/>
</g>
</svg>
