<?xml version="1.0" encoding="utf-8"?>
<!-- Generator: Adobe Illustrator 24.2.1, SVG Export Plug-In . SVG Version: 6.00 Build 0)  -->
<svg version="1.1" id="Layer_1" xmlns="http://www.w3.org/2000/svg" xmlns:xlink="http://www.w3.org/1999/xlink" x="0px" y="0px"
	 viewBox="0 0 518.8 509.5" style="enable-background:new 0 0 518.8 509.5;" xml:space="preserve">
<style type="text/css">
	.st0{fill:#060D43;}
	.st1{fill:#FEFEFE;}
	.st2{fill:#FDFDFD;}
	.st3{fill:#FCFCFC;}
	.st4{fill:#FBFBFB;}
	.st5{fill:#FFFFFF;}
	.st6{fill:#FAFAFA;}
	.st7{fill:#F6F6F6;}
	.st8{fill:#F7F7F7;}
	.st9{fill:#F5F5F5;}
	.st10{fill:#F9F9F9;}
	.st11{fill:#F3F3F3;}
	.st12{fill:#F1F1F1;}
	.st13{fill:#F8F8F8;}
	.st14{fill:#F4F4F4;}
	.st15{fill:#F0F0F0;}
	.st16{fill:#F2F2F2;}
	.st17{fill:#EDEDED;}
</style>
<g>
	<path id="Path_41056" class="st0" d="M289.9,384.9c3.5,5.1,6.9,10.2,10.4,15.4c1.9,2.7,2.7,5.3-0.5,7.7c-1.8,1.4-1.4,4-2.9,5.6
		c-5.5,5.7-11.7,10.6-18.5,14.7c-1.3,0.8-2.7,1.5-4.3,0.7c-8,3.7-8,3.7-13.9-4.6c-4.9-7-9.8-14-15-21.3c-2.3,2.3-1.5,4.8-1.5,6.9
		c-0.1,18-0.2,36.1,0,54.1c0,4.8-0.5,8.1-6.5,7.2c-3.5-0.6-4.5,1.3-4.3,4.5s0.1,6.4,0.2,9.7c0.3,1.3-0.4,1.9-1.5,2.3
		c-0.7,0.1-1.4-0.1-2-0.4c-0.7-0.6-1.2-1.5-1.3-2.5c-2.4-9.4-10.6-13.4-19.6-9.5c-3.9,1.7-3.7,5.3-4.3,8.6c0,1.3,0.1,2.6-1,3.6
		c-0.9,0.6-1.9,0.8-2.9,0.5c-1-0.5-1.7-1.1-1.3-2.4c0.8-4.7,0.8-9.5,0-14.2c-0.2-0.1-0.4-0.2-0.6-0.3c-10.4-1.3-10.4-1.3-10.4-12.1
		c0-31.5,0-63,0-94.4c0-3.4,0-6.5-4.1-7.4c-5.5-4.2-11.7-7.9-13.9-15.1c-1.1-3.5-2.3-6.9-1.3-10.6c0.1-0.8,0.4-1.5,0.7-2.2
		c0.5-0.6,1.2-1.1,1.9-1.4c15.4-0.9,30.9-0.3,46.3-0.4c16.1,0,32.2-0.4,48.3,0.2c0.8,0.2,1.4,0.6,2,1.1c0.7,0.8,0.9,1.9,0.8,3
		c0,0.6-0.1,1.3-0.3,1.9c-4.5,9.2-4.2,10.6,3.7,18.5c2.4,1.6,3.4,4.1,4.2,6.7c2.7,4.3,3.6,9.7,7.9,13.1
		C287,376,286.6,381.2,289.9,384.9z"/>
	<path id="Path_41057" class="st1" d="M22.5,251.6c-1.1-4.7-1.6-9.6-1.3-14.5c-0.9-4.7,2.6-3.9,5.1-3.9c8.8-0.1,17.6,0,26.4,0
		c24.7,0,49.4,0,74.1,0c3.7,0,6.9,0.2,8,4.5c0.6,4.2,1.6,8.3,1.3,12.5c-0.1,12.9,3.6,25.2,5.7,37.8c0.2,4.2,0.6,8.3,1.3,12.4
		c0,1.7-0.3,3.2-1.7,4.3c-2.4,1.2-5.1,0.8-7.6,0.8c-31.8,0-63.7,0-95.5,0c-9.3,0-9.8-0.8-10.7-10.3c-0.5-5.9-0.9-11.8-2.4-17.5
		C25.2,268.9,22.4,260.4,22.5,251.6z"/>
	<path id="Path_41058" class="st0" d="M197.6,200.5c-12.7-3.2-12.7-3.2-9-16c2.8-9.5,5.4-19.1,8.1-28.6c7.7-3.1,11.6-0.9,12.2,7
		c0.1,1.9,0,3.9,0.3,5.8c0.5,4.3,2.3,7.1,7.2,5.5c3.7-1.2,6.1,0.5,8.4,3.1c4.1,4.5,7.7,4.5,12,0.3c1.8-1.8,3.3-4,4.4-6.4
		c3.1-6.6,1.7-9.1-5.3-11.1c-6.9-2-14-3.6-21.2-4.5c-6.4-0.9-10.2-4.9-11.7-11.1c0.3-0.9,0.8-1.7,1.4-2.5
		c4.8-9.3,10.6-17.2,22.2-18.3c13.5-1.3,24,6.4,27.1,20.2c1.1,5,1.8,10.1,0.1,15.2c-3.1,4.2,2.7,4.7,3.1,7.5
		c1.1,2.3-0.2,4.1-1.3,5.9c-3.9,6.2-7.7,12.4-12,18.3c-2.2,3.1-3.7,6.3-3.6,10.1c0,1.3,0.1,2.6,0.1,3.8c0.1,2.4-0.8,4.6-2.5,6.3
		c-0.6,0.3-1.3,0.5-1.9,0.4c-1.4-0.4-2-1.5-2.6-2.6c-1-2.5-1.3-5.4-3-7.7c-3.7-2.4-7.3-1.8-10.8,0.2c-1.5,0.8-2.8,2-4.7,1.6
		c-0.9-0.3-1.7-0.8-2.2-1.6c-0.8-1-0.6-2.4-1.4-3.8c-2.9,2.7-1.6,6.4-2.6,9.4c-0.7,1.1-2,1.8-3.3,1.7c-2.8,0.1-4-1.8-5-4
		C199.1,203.2,198.5,201.8,197.6,200.5z"/>
	<path id="Path_41059" class="st1" d="M513.4,248.1l1.1,0.8c3.1,2.6,3.9,6,3.1,9.8c-0.8,6.3-0.2,12.7-0.4,19V288
		c0,3,0.1,6.1-0.1,9.1c-2.2,7.1-0.7,14.4-1.2,21.6c-0.3,4.4-2.1,7.8-6.5,9.3c-4,1.3-7.6,0.2-10.5-2.8c-2.4-2.5-2.1-5.9-2.9-8.9
		c-3.5-6.7-3.3-14.3-5.6-21.4c-1.4-4.3-1.5-8.9-3-13.1c-1.6-4.9-3-9.8-4.7-14.6c-2.6-7.6,1.3-14.5,5.4-21
		C496.6,245.8,505.3,243.3,513.4,248.1z"/>
	<path id="Path_41060" class="st0" d="M141.2,303.3v-3.4c-0.9-1.8-0.5-2.9,1.5-3.4c1.1,0.1,2.2,0.6,3,1.4c6.8,4.3,14.6,4,22.1,4.9
		c4.6,0.5,9.3,0.1,14,0.1c10.3,0.9,20.3-3,30.5-1.5c1.7,0,3.5-0.6,5.2-0.2c0.6,0.1,1.3,0.1,1.9,0.1c2.8,0.4,5.4-1.3,8.1-0.8
		c7.3,0.1,14.5,2.3,21.7,1.1c-0.2,0,0,0-0.2,0c-3.6-0.8-7.8,0.1-10.2-3.8c0.2-1,1-1.9,2-2.3c7.3,0.1,14.4-3.8,21.8-1.2
		c1.5,0.4,2.8,1.3,3.7,2.5c3.3,6,9.7,4.9,14.8,5.6c10.8,1.5,21.9,0.5,32.2-2.9c3.3-3.1,1.8-7.8,3.5-11.4c4.4-7.8,11.6-7.6,19-6.8
		c2.9,0.3,5.9,1.7,6.4,4.6c0.7,4.8,3.5,5,7.2,4.8c2.6-0.1,5.1-0.2,7.7,0c2.5,0.1,4.1-0.3,5.2-3.3c2.2-6.1,8.4-8,17.5-6.1
		c5.8,1.2,7.3,5.3,7,10.5c-0.1,1.7,0.3,3.5-0.1,5.1c-1,5.1,1.3,7.4,6.2,7.9c0.2,2.3-1.6,2.7-3.1,3.5c-3.8,1.1-7.7,0.9-11.5,0.9
		c-120.7,0-241.3,0-362,0c-3.9,0-7.8,0.2-11.5-0.9c-0.8-0.2-1.6-0.5-2.4-0.8c-0.7-0.4-1.4-0.9-2-1.5l0.2-1.2
		c9.1-2,18.4-1.2,27.4-1.1c35.4,0.7,70.8,0,106.2,0.3C136.7,304.2,139.1,305,141.2,303.3z"/>
	<path id="Path_41061" class="st1" d="M475.8,202.1l-2.5-3.1c-2.7-2.9-5.9-5-10-5.2c-1.9,0-3.9,0.2-5.2-1.7
		c-7.2-4.6-10.4-11.5-8.9-19.7s6.6-13.6,15.1-15.4c6.7-1.4,16.2,3.6,19.2,10.7c1.6,3.7,3.2,7.4,4.7,11.2c1.4,3.7,3,7.3,4.6,10.9
		c2.7,7,5.7,13.8,8.6,20.7c1.3,3.1,2,6,1.2,9.3c-4.7,5.5-8.4,5.4-12.9,0C485,213.9,480.2,208.1,475.8,202.1z"/>
	<path id="Path_41062" class="st1" d="M494,340.1l2.5,6.2c-0.4,6.1,2.2,11.6,3.8,17.3c2.9,10.3-1.2,16-11.8,16.2
		c-0.6,0-1.3,0.1-1.9,0.1c-6.8,0.8-6.6-6-9.8-9.1c-3.7-4.8-6.5-10.3-8.2-16.2c-1.1-5.8-4.7-10.4-7.8-15.3c-1.6-3.4-2.7-7.1-3.2-10.8
		c-0.8-4.8,0.5-8.1,5-10c7.1-2.6,14.3-0.7,21.4-0.2c3.9,0.3,6,4.3,7.2,8.2C492.3,331,492.7,335.6,494,340.1z"/>
	<path id="Path_41063" class="st1" d="M398.4,216.3l3.8-3.7c3.1-4,6.6-7.6,10.5-10.7c7.8-4.2,11,2.5,15.3,6.5c1.8,3.1,2,6.9,4.1,10
		c1.4,2.7,1.8,5.8,1.2,8.8c-1.1,3.3-3.4,5.4-6.4,6.9c-12,6.3-23.9,12.5-36,18.6c-7.5,3.8-10.6,2.8-15.6-4.2
		c-1.4-7,3.7-10.6,7.7-14.8c3.2-2.4,4.4-6.6,7.8-8.8C393.2,221.9,396.3,219.6,398.4,216.3z"/>
	<path id="Path_41064" class="st0" d="M500.3,474.2l1.4,10.2c1.4,3.7,0.9,6.4-3.8,6.4c-24.6,0-49.2,0.1-73.8-0.1
		c-0.9,0-1.7-0.3-2.4-0.8c-0.4-5.3,0.6-10.4,1.8-15.5c0.7-2.9,3-3.5,5.5-3.5c21.9-0.1,43.8-0.1,65.6,0
		C497.1,470.9,499.2,471.6,500.3,474.2z"/>
	<path id="Path_41065" class="st0" d="M424.3,470c0.8-5.5,1.7-11,2.5-16.5c2-2.2,4.6-2,7.2-2c18.4,0,36.8,0,55.3,0
		c2.6,0,5.2-0.2,7.1,2.1c0.9,3.8,1.8,7.7,2.6,11.5c1.9,4.4,0.3,6.4-4.4,6.4c-21.9,0-43.7,0-65.6,0
		C427.3,471.4,425.6,471.4,424.3,470z"/>
	<path id="Path_41066" class="st2" d="M204.6,144.7c3.7,4.4,7.6,8,14,8.6c4,0.4,5.8-2.7,8.5-2.9c2.8-0.2,1.2,6.1,6,5.9
		c2.5-0.1,5.1,0.8,7.6,1.3c7.5,1.4,7.6,1.6,5.5,9.3c-1.9,6.9-5,12.9-11.5,16.3c-6.1,3.2-10,1.8-12.5-4.4c-1.6-4-3.6-2.3-6-1
		c-6.2,3.7-7,3.3-9.1-3.5c-0.6-1.6-1-3.3-1-5c0.6-7.1-0.3-13-9.3-13.5l-1.3-3.5C194.3,145.1,197.4,142.5,204.6,144.7z"/>
	<path id="Path_41067" class="st0" d="M427.8,444.3c0.5-3.4,1-6.8,1.6-10.2c2.2-2.4,5.1-2,7.8-2c15.6,0,31.2-0.1,46.8,0
		c9.1,0.1,10.1-2.3,11.9,10.9c0,9,0,9-9.2,9c-17.4,0-34.8,0-52.2,0C427.1,452.1,427.1,451.9,427.8,444.3z"/>
	<path id="Path_41068" class="st0" d="M430.5,424.9l1.5-10.2c1.2-2.9,3.7-3.3,6.4-3.3c15.5,0,31,0,46.4,0c4.3,0,6.8,1.5,7.4,6.1
		c0.3,2.5,1.2,5,1.1,7.6c-0.1,7.6-0.1,7.6-7.3,7.6c-16.3,0-32.6,0-48.9,0C429.7,432.7,429.6,432.4,430.5,424.9z"/>
	<path id="Path_41069" class="st0" d="M488.6,395.5l1.6,10.1c1,7,1,7.1-5.4,7.1c-15.8,0-31.6,0-47.3,0c-1.8,0-3.9,1-5.2-1.1
		c0.8-5,1.6-9.9,2.4-14.9c1.4-2.7,3.8-3.3,6.5-3.3c13.9-0.1,27.8-0.1,41.7,0C485,393.4,487.1,393.6,488.6,395.5z"/>
	<path id="Path_41070" class="st0" d="M215,13.8c2.1,2,4.8,1.6,7.4,1.6c11.2,0,22.4,0.2,33.6-0.1c4.3-0.1,5.6,1.5,5.5,5.6
		c-0.2,20.7-0.1,41.3,0,62c0,4.5-1.5,6-5.9,6c-32.3-0.1-64.6-0.1-96.9,0c-4.4,0-6.1-1.4-6-5.9c0.2-20.7,0.2-41.3,0-62
		c0-4.1,1.2-5.8,5.5-5.7c12.5,0.3,25,0.2,37.4,0.3c2.5,0.8,4-1.8,6.3-2C206.2,12.3,210.6,12,215,13.8z"/>
	<path id="Path_41071" class="st0" d="M478.4,369.4c2.5,3.1,3.7,7.3,7.7,9.2c2.2,1.9,6-1.4,7.7,2.4c-5.7-0.2-8.5,1.8-6.2,7.9
		c0.9,2.7,0.5,5-2.7,5c-15.8,0.2-31.6,0.6-47.4-0.2c-0.7,0-1.1-0.6-1.6-1l0.1-0.1c-0.8-5.3,0.6-10.2,1.7-15.3c0.7-3,3-2.6,5.1-2.6
		c7.3,0,14.6,0,21.9,0c-7,0-14,0.1-21,0c-2.1,0-5.2,0.5-3.9-3.5c2-2.1,4.7-2,7.2-2.1C457.5,368.9,468,368.4,478.4,369.4z"/>
	<path id="Path_41072" class="st0" d="M1.7,306.1l1.5,0.2c2.9,2.3,2.7,5.6,3.1,8.8c0.8,7.1,3.1,9.3,10.3,9.8
		c2.4,0.2,4.7,0.1,7.1,0.1c115.9,0,231.7,0,347.6,0c1.5,0,3,0,4.5,0c10-0.2,12-2.1,12.9-11.9c0.2-2.4,0.4-4.7,1.7-6.8l2.6-1.2
		c1.9,2,1.1,4.5,1.1,6.8c0.1,63.5,0.1,127,0,190.5c0,2.3,0.7,4.8-0.9,6.9c-1.3-2.4-0.6-5.1-0.7-7.6c-0.1-56.3,0.2-112.5-0.2-168.8
		c-1.4-2.8-4.1-2-6.3-2c-26.9-0.1-53.8-0.3-80.7,0.1c-10.1,0.2-20.2,0.4-30.3,0.5c-2.6,0-5.2,0.2-7.4-1.5l-96.4,0
		c-7.5,3.1-15.3,1.2-22.9,1.3c-3.2,0-6.4-0.4-9.6-0.4c-43,0-86.1,0-129.1,0c-8.4,0-8.5,0-8.3-8.6C1.3,316.8,0.5,311.4,1.7,306.1z"/>
	<path id="Path_41073" class="st0" d="M85.5,13.1c1.2,3.7,4.4,2.8,7,2.8c12.2,0.1,24.5,0,36.7,0.1c2.3,0,4.7-0.4,7,0.6
		c0.5,0.7,0.4,1.6-0.2,2.2c-0.9,0.8-2,1.4-3.2,1.8c-7.1,0.9-14.3,0-21.4,0.1c-25.6,0.3-51.1,0-76.7,0.1c-5.7,0-7.7,2.6-8.6,7.3
		c-0.5,3.2-0.6,6.4-0.5,9.6c0,35.7,0,71.3,0,107c0,4.3,0.3,8.6-1.6,12.7c-1,1.4-2,2.8-4,1.6c-0.1-46-0.1-92.1-0.3-138.1
		c0-4.4,2.2-4.9,5.6-4.8c12.9,0,25.8,0,38.7,0c2.5,0,5.2,0.5,7.2-1.9c3.8-1.4,7.9-0.5,11.8-1.3C83.9,12.5,84.8,12.7,85.5,13.1z"/>
	<path id="Path_41074" class="st3" d="M321.4,419.8l8.4,3.6c1.7,2.5,1.7,4.9-0.6,6.8c-10.1,8.4-20.8,16.3-31.9,23.4
		c-0.6,0.2-1.3,0.3-1.9,0.1c-4.7-2.9-6.5-8.2-9.7-12.3c-1.6-2-0.4-3.7,1.1-5c6.9-6,13.1-13.2,22.9-14.9
		C313.6,420.8,317.4,419.7,321.4,419.8z"/>
	<path id="Path_41075" class="st0" d="M289.7,78.9c-0.6-3.4,2-2.6,3.8-2.8c0.8-0.7,1.7-1.2,2.7-1.7c4.5-1.8,4.4-6,4.6-9.8
		c0.4-5.8,0-11.6,0.2-17.3c0.1-2.7-0.3-5.7,2.5-7.5c0.7-0.3,1.5-0.2,2.1,0.2l-0.2-0.2c2.4,1.9,5.3,1.1,7.9,0.9
		c4.5-0.4,5.9,1.7,5.6,5.6c-0.5,6.7,1.7,13.1,2.3,19.7c0.1,1.7,0.8,3.4,1.9,4.7c3,3.2,7.4,2.4,10.9,4c0.9,0.4,1.8,1,2.5,1.7l16.5,0
		c1.2-0.9,0.7-3.1,2.5-3.7c4.5,0.6,9-0.1,13.4-1.1c2.5,0.6,0.8,3.6,2.6,4.6l6.1,0.3c-0.9,4.5-4.7,3-7.3,3c-17.4,0.2-34.8,0.2-52.2,0
		c-8.2-0.1-16,3.5-24.3,1.8c-0.7-0.3-1.5-0.7-2.2-1C291,79.8,290.3,79.4,289.7,78.9z"/>
	<path id="Path_41076" class="st0" d="M478.4,369.4c-1.7,3.1-4.6,2.6-7.3,2.6c-10.4,0-20.9,0-31.3,0c-1.3,0.5-1.8,0.1-1.4-1.3
		c1.6-4.8-0.1-10.8,5.2-14.2c4.4-1.3,8.8-2.8,13.5-1.8c1.2-0.4,1.7-1.8,3-2.1c3.6-0.6,7,0.3,10.4,1.4
		C473.1,359.2,476.7,363.8,478.4,369.4z"/>
	<path id="Path_41077" class="st0" d="M295,452c10.4-7.7,20.7-15.3,31.1-23c2-1.4,3.8-2.8,3.7-5.6c1.6,1.1,3.1,2.2,4.5,3.5
		c3.4,3.7,4,6.7-1,10.2c-10.8,7.7-21.1,16-31.6,24c-2.5,3.3-3.1,0.1-4.3-1.2l-3.6-5.3C292.9,453.2,294.1,452.7,295,452z"/>
	<path id="Path_41078" class="st0" d="M171,330.7l-0.1,1.4c-1.8,2.5-4.5,2.9-7.4,3c-7.5,0.4-7.5,0.5-7.5,8.1c0,0.9-0.3,1.7-0.9,2.4
		c-0.7,0.7-1.6,1.1-2.6,1.1c-3-2.8-4.3-6.4-5-10.2c-0.6-3.8-2.7-4.6-6.2-4.6c-44.3,0.1-88.5,0.2-132.8-0.1c-6.1,0-5.8,3.2-5.8,7.3
		c0,53.9,0,107.9,0,161.8c0,2.7,0.7,5.6-0.9,8.2c-1.3-2-0.7-4.2-0.7-6.3c0-55.2,0-110.4,0-165.7c0-7,0-7,6.9-7
		c52.2,0,104.4,0,156.6,0C166.8,330.1,169,329.5,171,330.7z"/>
	<path id="Path_41079" class="st0" d="M171,330.7c-54.2,0-108.4-0.1-162.6-0.2c-4.4,0-6.8,1.2-6.8,6.2C1.7,394.2,1.8,451.6,1.9,509
		c-2.8-0.3-1.6-2.5-1.6-3.8c0-65.7,0-131.5,0-197.2c0-0.6,0.1-1.3,0.3-1.9c0.4,0,0.8,0,1.2-0.1c0,5.8,0,11.6-0.1,17.4
		c-0.1,4.4,1.9,6.3,6.2,6.1c2.6-0.1,5.2,0,7.7,0l155.6,0.2C171.1,330.1,171.1,330.4,171,330.7z"/>
	<path id="Path_41080" class="st0" d="M20.1,158.9l2.5-1.4c1.7-1.8,4.2-2.7,6.7-2.4c31.3,1.3,62.6,0.3,93.9,0.6
		c4.5,0,6.6-2.3,7.7-6.2c0.9-3.4,0.9-6.8,0.9-10.2c0-36.3,0-72.6,0-108.9c0-4-0.5-8.2,1.5-12l2.9-0.2c1.2,2,0.6,4.2,0.6,6.3
		c0,42.8,0,85.5,0,128.3c0,2.6,1.1,5.7-2,7.7c-15,0.1-30,0.3-44.9,0.4c-21,0.1-42,0-63,0C24.6,160.7,21.7,162,20.1,158.9z"/>
	<path id="Path_41081" class="st4" d="M237.1,201.1c-0.4-5.1,1.4-9.3,4.4-13.5c4.9-6.7,9.1-13.8,13.7-20.8c0.3-1.9,1-3.7,2-5.3
		c1.2-1.7,2.1-4,4.7-3.4c2.7,0.7,2.1,3.2,2.2,5.3c-1.4,7.8-5.7,14.9-6.4,22.9c-0.8,2.8-1.7,5.6-2.5,8.5
		C250.8,201.9,243.1,204.6,237.1,201.1z"/>
	<path id="Path_41082" class="st0" d="M289.7,78.9l1.7,0.2c2.9,3.6,7.3,5.6,11.9,5.6c20.2,0.1,40.4,0.1,60.6,0c1.5,0,3-0.3,4.2-1.1
		c-2.4-2-5-1.4-7.3-1.5c-19.8-0.1-39.5,0-59.3-0.1c-3.6,0-7.4,0.4-10.1-2.9c2.6-2.3,5.7-1.6,8.6-1.6c23.2-0.1,46.3,0,69.5,0
		c2.8,0,5.6,0.4,8.2-1.1c4.6,3.4,2.3,8.2,1.8,12.1c-0.4,3.7-4.6,2.2-7.1,2.2c-24.2,0.1-48.4,0.1-72.6,0.1
		C288.4,90.7,288.4,90.7,289.7,78.9z"/>
	<path id="Path_41083" class="st0" d="M236.2,121.6c-6,0.2-11.1-4.5-11.3-10.5s4.5-11.1,10.5-11.3c0.2,0,0.4,0,0.7,0
		c6-0.2,11.1,4.5,11.3,10.5s-4.5,11.1-10.5,11.3C236.7,121.6,236.4,121.6,236.2,121.6z"/>
	<path id="Path_41084" class="st0" d="M115.4,213.1c0-2.3-0.2-4.3-3.4-4.1c-2.4,0.1-4.7-0.1-7.1,0c-3.5,0.2-5.1-1.3-5-4.9
		c0.2-7.1,0.1-14.2,0-21.3c0-2.7,0.6-4.7,3.8-4.7c17,0,34,0,50.9,0.2c0.7,0,1.3,0.9,2,1.3c-0.7,0.8-1.2,1.7-1.9,2.4
		c-0.6,0.4-1.2,0.7-1.9,0.9c-6.7,2.1-13.6,0.9-20.4,1.1c-6.4,0.2-12.8-0.1-19.3,0.2c-4.9,0.2-7.3,3-7.4,7.9c-0.1,4.5,0.5,8.5,5.9,10
		c9.3,2.5,9.3,2.6,8.6,12.5C117.4,218.6,116.6,215.1,115.4,213.1z"/>
	<path id="Path_41085" class="st0" d="M294.9,134.2c9.8-1.9,19.7-0.8,29.6-0.7c5.7,0,9.4-1.3,11.6-6.7c1.6-4,4.1-6.2,6.5-0.4
		c2.4,5.8,6.6,7.3,12.7,7.2c8.3-0.2,16.7-1.3,25,0.8c-0.2,0.4-0.3,0.7-0.5,1.1c-0.9,1.3-2.2,2.3-3.7,2.8
		c-12.4,1.5-24.9,0.7-37.3,0.6c-14.1,0-28.3,0.9-42.4-0.6C294.8,137.3,293.9,136.1,294.9,134.2z"/>
	<path id="Path_41086" class="st0" d="M141.2,303.3c-1.5,2.1-3.8,1.7-5.9,1.7c-44.9,0-89.7-0.1-134.6-0.1c6-2.3,12.1-0.8,18.2-1
		c8.4-0.3,8.3-0.1,7.3-8.6c-0.5-4.4-0.9-8.9-1.4-13.3c-0.2-2-2.1-4.6,1.5-5.6c1.1,7.6,2.2,15.3,3.2,22.9c0.4,3,1.4,4.6,4.7,4.5
		c35-0.1,70-0.2,105-0.2C140,303.7,140.6,303.5,141.2,303.3z"/>
	<path id="Path_41087" class="st0" d="M295,452c-0.4,0.9-0.9,1.8-1.3,2.7L274.2,429c0.9-0.9,1.7-1.9,2.6-2.8c4.4,1.8,8,6.5,13.7,1.9
		c7.5-6,7.9-6.1,4.5-16.3c3.2-3.2,7.4-5.9,5.3-11.6c2.8,2.3,4.4,4.7,0.6,7.6c-1.9,1.4-1.1,2.8,0.1,4.3c1.9,2.5,3.8,5.1,5.6,7.6
		c0.7,1.8,4.4-0.7,3.9,2.8c-0.8,2.4,2.2,4.2,1.1,6.8c-2.9-0.7-3-5.7-6.1-4.8c-2.7,0.8-4.9,3.3-7.3,5c-0.3,0.3-0.7,0.5-1,0.8
		C285.1,439.7,285.1,439.7,295,452z"/>
	<path id="Path_41088" class="st0" d="M336.5,76.2l-3.2-0.2c-2.6-2.2-2.6-5.3-2.6-8.3c-0.1-6.9,0-13.8-0.1-20.7
		c0.1-2.2-0.1-4.3-0.7-6.4c-0.7-2-1.8-3.5-4.1-3.4c-2,0.1-3,1.5-3.6,3.2c-0.6,2.1-0.8,4.2-0.7,6.4c0,7.1,0,14.2,0,21.3
		c0,2.8,0,5.6-1.8,8.1c-3.2-1.3-2.6-4.1-2.6-6.6c-0.1-6.8-0.2-13.6,0-20.4c0.2-5.1-1.1-8.3-7-7.8c-1.7,0.3-3.5-0.4-4.6-1.7
		c8.9,1,8.9,1,10.6-7.1c0.1-0.4,0-1,0.2-1.2c5-4.1,10.9-1.3,16.4-1.9c3.6-0.4,3.1,2.8,3.1,5c0.1,11.3,0,22.7,0.1,34
		C335.7,71.1,335.4,73.7,336.5,76.2z"/>
	<path id="Path_41089" class="st5" d="M424.3,470c23.2,0,46.3,0,69.5,0.2c4.1,0,5.3-1.6,5.2-5.2c2.1,2.8,1.3,6,1.3,9.1
		c-1.8-2.1-4.3-1.6-6.6-1.6c-21,0-42,0.2-63-0.1c-5.2-0.1-7.4,1.6-7.7,6.7c-0.2,3.4-0.8,6.8-1.3,10.2c0.6,0.8,0.5,1.9-0.2,2.6
		c0,0,0,0,0,0c-0.3,0.2-0.7,0.3-1.1,0.4C420.7,484.7,421,477.1,424.3,470z"/>
	<path id="Path_41090" class="st0" d="M185,354.1c3.6,3,4.1,6.9,4.1,11.5c-0.2,32.5-0.1,64.9-0.2,97.4c0,5.2,1.6,7.7,7,7.4
		c1.2-0.1,2.4,0.8,3.6,1.2c-13.8-0.1-11.6,1.6-11.7-11.4c-0.1-31.9-0.1-63.9,0.1-95.8c0-4.3-1.1-5.7-5.3-5.5
		c-5.6,0.4-11.2-0.1-16.6-1.3c-0.5-2.3,1.1-3.4,2.6-4.5C174.2,350.8,179.5,353.7,185,354.1z"/>
	<path id="Path_41091" class="st0" d="M392.8,331.6c0.1,10.1,0.3,20.2,0.3,30.3c0,49.1,0.1,98.1,0.1,147.2c-2.8-0.2-1.9-2.5-1.9-3.9
		c0-57.6,0.1-115.2,0.2-172.8l0.4-0.8L392.8,331.6z"/>
	<path id="Path_41092" class="st0" d="M487.4,179.8c-1.5-3.3-3.1-6.6-4.6-9.9c-3.3-7.4-9.7-11.9-16.3-11.6c-6.5,0.3-13.1,5-15,11.5
		c-2.2,7.3-0.8,14,5.1,19.4c0.8,0.7,1.5,1.5,2.3,2.2c-0.6,0.6-1.4,1-2.3,1c-7.2-4.7-10.5-13.5-8.4-21.8
		c2.5-10.4,12.9-16.9,23.3-14.5c5.8,1.4,10.7,5.4,13.2,10.8c1.6,3.3,2.7,6.8,4,10.2C488.2,177.9,488.6,179.2,487.4,179.8z"/>
	<path id="Path_41093" class="st0" d="M296.5,76.1l-3.1,0c0.1-18.9,0.3-37.8,0.2-56.7c0-4.5,0.8-6.6,5.9-6.6c4.9,0,6.3,1.7,6.1,6.4
		c-0.3,6.9-0.1,13.7-0.1,20.6l-1.6,0.1c-5.3-3.4-1.7-9.2-3.8-13.9c-1.2,4.1-0.6,8-0.6,11.8c-0.1,9.8,0,19.6-0.1,29.5
		C299.4,70.6,299.4,73.9,296.5,76.1z"/>
	<path id="Path_41095" class="st0" d="M494,340.1c-2.8-2.5-2.5-6.2-3.2-9.4c-2.4-10.1-4.2-11.6-14.4-11.4c-4.5,0.1-9,0-13.4,1.2
		c-1.1-0.3-2.1-0.9-2.7-1.9c-0.4-1.1-0.6-2.2-0.4-3.3c0.1-11.4,3.5-22.5,2.5-33.9c-0.2-1.5,0.4-3.1,1.7-4c2.5-1.1,4.3-0.1,5.6,2
		c0.3,0.6,0.3,1.3,0.1,1.9c-3.7,8.2-2.4,16.7-1.6,25c1.4-7.9,0-15.8,0.7-23.6c0.2-0.6,0.7-1.1,1.2-1.5c1.6,0,2.8,0.3,2.2,2.3
		c0,9.4,0.1,18.8,0,28.2c0,2.9,0.5,4.7,4.1,5c13.8,0.9,17.7,5.4,17.8,19.7C494.2,337.5,494.1,338.8,494,340.1z"/>
	<path id="Path_41096" class="st5" d="M430.5,424.9c-0.8,5.1,1.6,6.5,6.5,6.4c16.5-0.3,32.9-0.3,49.4,0c4.9,0.1,7.3-1.2,6.4-6.4
		l0.7-0.9l0.3,1.1c0.8,6,1.6,12,2.5,18.1l-0.6,0.9l-0.4-1c-1.9-9.3-1.9-9.3-11.8-9.3c-18.1,0.1-36.1,0.2-54.2,0.3
		C429.3,431,428.6,427.8,430.5,424.9z"/>
	<path id="Path_41097" class="st5" d="M495.3,443c0.3,0,0.6,0.1,0.9,0.1c0.8,3.5,0.4,6.9,0.1,10.4l-69.6-0.1c-0.2-3.1-0.9-6.3,1-9.2
		c-0.7,5.3,2,6.4,6.8,6.3c17.8-0.2,35.6-0.3,53.4,0C493.9,450.7,496.5,449.1,495.3,443z"/>
	<path id="Path_41098" class="st0" d="M380.3,134.3c1.9,2.5,1,5.4,1,8.1c0.1,15.7,0,31.4,0.1,47.1c0,3.7-0.6,6.2-5.2,6.2
		c-26.2-0.1-52.5-0.1-78.7-0.1c-0.8-0.1-1.7-0.3-2.5-0.6c-1.2-1.9,0-2.9,1.5-3.8c13.7-1.2,27.4-0.3,41.1-0.5c9.2-0.1,18.4,0,27.7,0
		c3.2,0,6.5,0,9-2.6c3.1-5.9,3.7-12.3,3.9-18.6c0.3-9,0-18,0.1-27c0-2.5-0.4-5.2,1.7-7.3C380.1,134.8,380.2,134.6,380.3,134.3z"/>
	<path id="Path_41099" class="st0" d="M134.8,160.4c1.1-2.6,1.6-5.4,1.4-8.2c0-44.7-0.1-89.4-0.1-134.1l0.1-1.5
		c1.9,1.1,1.4,3,1.4,4.6c0,44.6,0,89.2,0,133.8C137.6,157.2,138.6,160.1,134.8,160.4z"/>
	<path id="Path_41100" class="st0" d="M376.5,248c4.6,6.3,6.7,6.8,13.4,3.4c11.7-5.9,23.3-11.9,35-17.8c3-1.5,5.5-3.3,7.2-6.2
		c2.4,0,1.9,1.3,1.3,2.7c-0.8,2.4-2.8,3.8-4.9,4.9c-13,6.7-26,13.5-39.1,19.9c-6.2,3.1-9.9,1.7-14.2-4.2
		C374.3,249.2,374,247.9,376.5,248z"/>
	<path id="Path_41101" class="st0" d="M317,288.2c4.4,5.3,3.1,10.9,1.2,16.7c-0.4-0.4-0.8-0.9-1.2-1.4c-1.7-5.8-5.2-8-11.4-7.3
		c-7.5,0.9-13-3-17.2-9c-0.5-1.6-1-3.1-0.1-4.7c0-1.5,0-3,0.2-4.5c0.4-2.2,2.1-3.8,4.3-4.2c1.7-0.4,3.5,0.3,4.4,1.9
		c1.3,2,1.5,4.5-0.1,6c-6,5.5-0.1,6.6,3.1,8C305.9,292.3,311.5,289.5,317,288.2z"/>
	<path id="Path_41102" class="st0" d="M134.8,237.7c-2-2.4-5.1-3.6-8.2-3.5c-32.9,0.2-65.8,0.1-98.7,0.2c-2.5,0-5.9-1.4-6.8,2.8
		c-3.2-2.6-3.4-4.5,1.3-5.1c0.9-0.1,1.7-0.1,2.6-0.1c34.3,0,68.6,0,102.9,0C132.2,231.9,135.3,232.4,134.8,237.7z"/>
	<path id="Path_41103" class="st0" d="M266.6,332l1.1-1.6c9.6-0.8,19.1-0.2,28.7-0.4c1.9,0,3.3,0.6,4,2.5c0.6,1.1,0.5,2.4-0.2,3.4
		c-1.4,9.1-6.6,15.4-14.8,19.4c-2.4,0.7-0.6,3.6-2.4,4.6c-3.2,1.6-6.6,0.3-9.9,0.5c0.1-2.7-2.5-3.6-3.7-5.5c1.4-2.8,4.2-2.5,6.7-2.9
		c5.7-1,10.6-3.3,14.1-8.1c1.4-1.9,2.8-4.1,1.5-6.5c-1.2-2.2-3.5-2.1-5.7-2.2c-4.3-0.1-8.5,0-12.8-0.1
		C270.5,335,267.9,334.9,266.6,332z"/>
	<path id="Path_41104" class="st0" d="M296.4,192.5c-0.5,0.8-0.9,1.6-1.4,2.4c-1.3-0.8-1.2-2.2-1.2-3.4c0-18.1,0-36.3,0.1-54.4
		c0.2-1,0.5-2,1-2.8c0.5,0.9,1,1.9,1.5,2.8c2.8,1.8,2.9,4.6,3,7.4c0.3,13.5,0.3,27.1,0,40.6C299.3,187.8,299.2,190.7,296.4,192.5z"
		/>
	<path id="Path_41105" class="st0" d="M469.4,281.6v-1.3c5.8-7.6,7.7-16.8,11-25.4c1.3-3.4,1.8-7.6,6.4-8.8c1,0.2,1.8,0.9,2,1.9
		c-6.2,11-3.7,22-0.2,33c0,0.2,0.1,0.4,0.1,0.6c-0.6,0.8-1,1.9-2.4,1.2l-3.7-13.2c-2.9,6.2-3.9,12.1-10.3,13.7L469.4,281.6
		L469.4,281.6z"/>
	<path id="Path_41106" class="st5" d="M435.9,392.6c15.2,0,30.4-0.1,45.7-0.1c2.8,0,5.8,0.4,6.1-3.7c1.5,2.1,1,4.4,1,6.7
		c-16.9-1.2-33.8-0.3-50.7-0.5c-1.3,0-2.5,0.6-3.3,1.6C434.3,395,435.2,393.8,435.9,392.6z"/>
	<path id="Path_41107" class="st0" d="M156.5,207.9c-7,2.3-14.2,0.5-21.2,1.1c-2.7,0.2-5.5,0.2-8.2,0.3c-0.9-0.8-1.3-1.9-1.1-3.1
		c0.6-2.4,2.4-3.3,4.7-3.5c1.3-0.1,2.5-0.2,3.8-0.3c14.9-0.6,15-0.6,16.6-15.2c0.3-2.4,0.9-4.6,2.9-6.1c0.3-0.1,0.6-0.2,0.9-0.3
		c2.5,4.4,0.7,9.1,1.1,13.7C156.5,198.9,155.7,203.4,156.5,207.9z"/>
	<path id="Path_41108" class="st0" d="M496.6,315c0.5,1.4,1,2.8,1.3,4.2c1.1,4.9,3.8,8.4,9.2,7.7c5.5-0.7,6.9-4.8,7.2-9.7
		c0.3-6.8-0.3-13.6,1.4-20.3c2.5,4.6-0.5,9.7,1.3,14.4c0.1,2.4,0.2,4.7,0.1,7.1c-0.2,7-4.1,11.4-10.2,11.9
		c-5.9,0.4-10.6-3.6-11.9-10.3c-0.2-1.1-0.3-2.1-0.3-3.2C495,315.8,495.7,315.2,496.6,315z"/>
	<path id="Path_41109" class="st5" d="M438.4,370.7l1.4,1.3c9.6,2,19.2,0.4,28.8,0.9c2.9,0.2,6-0.4,8.9,0.7c-0.9,3.1-3.2,2-4.9,2
		c-9.2,0.1-18.5,0.4-27.7,0c-5.2-0.2-7.5,1.5-7.7,6.7c-0.2,3.4-0.8,6.8-1.2,10.2c-2.7-4.3,0.2-8.5,0.3-12.7
		C436.4,376.8,437.7,373.8,438.4,370.7z"/>
	<path id="Path_41110" class="st0" d="M297.3,460c1.4,0.7,2.6,1.7,4.3,1.2c0.1,10.5,2.1,20.9,3.1,31.3c0.5,5.1,1.5,10.2-0.9,15.5
		C301.6,492,299.5,476,297.3,460z"/>
	<path id="Path_41111" class="st0" d="M461.2,318.9l1.7,1.5c-4.9,3.7-5.3,8.2-2.4,13.4c1,1.8,1.8,3.8,2.7,5.7c0.6,1.2,0,1.8-1,2.2
		c-1.3,0.1-2.6-0.6-3.2-1.7c-0.5-1.5-1.3-2.9-2.4-4.1c-1.3-13.3-2.6-26.7-3.9-40c0.7-0.7,1.6-1,2.6-0.9c4.7,3.9,3.4,9.7,4.3,14.7
		C460.1,312.8,458.7,316.2,461.2,318.9z"/>
	<path id="Path_41112" class="st0" d="M416.4,302.5c-2.3-1.7-2.9-4-2.6-6.7c1.3-10.9,2.6-21.9,4-32.8c0.8-6.5,4.1-8.3,10.7-6.1
		c-0.1,1.4-1.1,2.5-1.7,3.7c-2.1,2.8-3,6.1-3.5,9.6c-1.5,10.4-2.4,20.9-5.4,31C417.5,301.7,417,302.2,416.4,302.5z"/>
	<path id="Path_41113" class="st0" d="M451.1,351.7c-1.3-14.3-2.6-28.6-3.7-42.9c-0.1-1.6,0.7-3.3,1.1-4.9c-1.2-1.4-1.2-2.7,0.2-4
		c2.7,13.6,3.1,27.4,4,41.1C450.5,344.3,454.7,348.6,451.1,351.7z"/>
	<path id="Path_41114" class="st0" d="M425.5,258.1l3-1.3c2.7,1,5,1.4,7.2-1.4c1.6-2,5.2-2.2,5.9,0.2c1.5,5.4,6.9,9.3,5.8,15.6
		c-0.5,0.5-1,0.8-1.7,1c-0.6,0.1-1.3,0-1.9-0.2c-3.4-3.5-7.5-6.2-12-7.8C429,263.2,425.5,262.3,425.5,258.1z"/>
	<path id="Path_41115" class="st0" d="M235.6,210.6l1.7-0.2c5.2-2,10.9-0.9,16.1-2.8c1.9-0.1,3.3-2.6,5.5-1l6.6,13.9
		c0.5,1.2,0.7,2.4-0.5,3.4c-2.2,0.9-3.5-0.2-4.9-1.8c-5.2-6-8.8-6.5-15.5-2.3c-1.3,0.8-2.1,2.1-3.5,2.6c-0.8,0.5-1.7,0.7-2.7,0.5
		c-2.3-1.9-3.6-4.5-5.6-6.7C232.3,213.7,232.9,211.7,235.6,210.6z"/>
	<path id="Path_41116" class="st0" d="M455.2,295.8l-2.5,0c-1.8-15.9-3.9-31.8-3.9-47.9c0.4-0.9,0.9-1.8,2-2.1
		c1.1-0.2,2.1,0.3,2.8,1.1c0.6,1,0.7,2.1,0.4,3.2c-1.7,8.5,2.4,16.4,2.5,24.8c0.1,4.9,0.5,9.9,1.2,14.8
		C458.1,292.2,457.9,294.6,455.2,295.8z"/>
	<path id="Path_41117" class="st0" d="M300.2,335.9c-0.1-1.1-0.2-2.1-0.2-3.2c-0.2-4.4,3.2-2.6,5-2.6c19.5-0.1,39-0.1,58.4-0.1
		c7.9,0,15.8-0.1,23.8,0.1c1.7,0,4-1.1,4.9,1.6c-0.2,0.2-0.3,0.5-0.5,0.7c-3.3-1.1-6.8-0.6-10.2-0.6c-24.6,0-49.3,0-73.9-0.1
		C304.1,331.7,300.9,331.6,300.2,335.9z"/>
	<path id="Path_41118" class="st0" d="M139.8,288.5c-2.8-11.1-3-22.5-5-33.7c-0.3-1.6-0.5-3.5,1.4-4.5c2.4,5,2.6,10.4,2.9,15.7
		c0.5,9.3,0.2,9.3,9,6.5c1.6-0.5,3.3-0.8,4.9-1.3c0.9,0.2,1.6,0.9,2,1.7c0.1,3.3-2.5,4.1-4.8,5c-3.2,1.3-5.3,3.3-6,6.7
		C143.6,286.7,141.8,288.2,139.8,288.5z"/>
	<path id="Path_41119" class="st0" d="M475.8,202.1c6.7,3.8,9.8,10.9,14.6,16.4c3.6,4.1,7,5.4,11.2,1c0.7-0.6,1-1.9,2.4-1.2
		c-1.4,6.1-7.2,9.6-11.5,5.7C485.6,218,478.9,211.3,475.8,202.1z"/>
	<path id="Path_41120" class="st5" d="M215,13.8c-4.4,3.2-9.6,0.8-14.3,1.9c-0.2,0-0.6,0-0.6-0.1c-0.9-2.3,0.1-5,3.8-10.2
		c1.4-2,2.8-3.3,5.2-1.5L215,13.8z"/>
	<path id="Path_41121" class="st0" d="M493.8,380.9c-2.3-1.5-5.6-0.1-7.7-2.4c11.5,0.8,15.1-4.4,12.2-15.6
		c-1.4-5.3-5.6-10.7-1.9-16.7c2.1,7,4.6,13.9,6.1,21.1C504,373.6,500.6,378.1,493.8,380.9z"/>
	<path id="Path_41122" class="st5" d="M493.8,425.1c-0.3-0.1-0.7-0.1-1-0.2c-1.9-11-1.9-11-13.4-11c-13.3,0-26.6,0-39.9,0
		c-2.5,0-5.2-0.4-7.6,0.9c0.1-1.1,0.1-2.2,0.2-3.3c18.2,1.2,36.5,0.2,54.7,0.5c5.7,0.1,2.3-4.3,3.3-6.5
		C492.8,411.8,493.4,418.5,493.8,425.1z"/>
	<path id="Path_41123" class="st0" d="M416.4,302.5c0.1-0.7,0.2-1.3,0.3-2c7.7-4.4,11.7-12,16.7-18.9c1.8-2.5,3.3-5.8,7.4-4.8
		c0.9,0.4,1.5,1.3,1.5,2.2c-5.1,7.4-10.1,14.8-15.4,22.1C424,304.9,420.3,305.7,416.4,302.5z"/>
	<path id="Path_41124" class="st0" d="M450,246.8l-1.1,1.2c-1.6-4.5-1.3-9.2-1.5-13.9c-0.4-9.1-3.2-17.3-10.6-23.2
		c0.1-1,0.9-1.2,1.6-1.5c7.3,4,9.9,10.9,10.6,18.5c0.2,2.7,0.6,5.4,1.3,8C452.6,239.6,452.7,243.2,450,246.8z"/>
	<path id="Path_41125" class="st0" d="M504,218.4l-2.4,1.2c1.1-4.8-1.8-8.6-3.3-12.6c-2.2-5.7-4.5-11.4-6.8-17.1
		c0.4-0.9-0.1-2.3,1.3-2.8c3.6,8.4,7.3,16.7,10.9,25.1C504.6,214.2,504.1,216.3,504,218.4z"/>
	<path id="Path_41126" class="st0" d="M145.3,481.8c0.6-11.1,2.9-21.9,4.8-32.7c2,2,0,4.8,1.4,6.9c-1.2,8.7-1,17.7-4.6,26
		C146.3,482.9,145.7,482.9,145.3,481.8z"/>
	<path id="Path_41127" class="st0" d="M457.9,232.1l2.2-0.8c1-1.2,2.2-0.9,3.3-0.2c6.2,0.4,12.4,0.8,18.6,1.2
		c3.7,0.3,6.6,1.7,7.8,5.5c-0.6,1.2-0.2,3-2.1,3.3c-7.8-2.9-16-4.3-24.3-4.3c-2.3,0-4.8-0.1-6-2.7
		C457.2,233.4,457.4,232.6,457.9,232.1z"/>
	<path id="Path_41128" class="st0" d="M151.5,455.9c-1.3-2.1-1.1-4.5-1.4-6.9c0.7-10.8,2.3-21.5,4.7-32.1l2.2,0.3
		C155.2,430.2,153.3,443,151.5,455.9z"/>
	<path id="Path_41129" class="st0" d="M515.9,288.1c-0.3-3.5-0.6-6.9,0.2-10.4c1.3-6.6-0.5-13.4,1-20c0.1-3.2-1.9-5.8-2.6-8.8
		c2.8,0.2,4.3,1.8,4.3,4.5c-0.3,16,0.3,31.9-1.5,47.9C515.2,297.1,517.8,292.3,515.9,288.1z"/>
	<path id="Path_41130" class="st0" d="M282.2,359.1c0,0,1.8-1.4,1.7-2.1c-0.2-1.6,1.5-1.6,1.5-1.6c-0.3,10,1.3,20,4.5,29.5
		c-4-2.9-3.9-8.6-7.9-11.5c0.6-2.8-1-5.3-1.8-7.8C279.4,362.8,279.2,360.6,282.2,359.1z"/>
	<path id="Path_41131" class="st0" d="M457.9,232.1l-0.1,1.6c0.3,6.5,1.5,13,3.4,19.2c0.9,2.9,1.3,5.9-2.2,7.7
		c-3.6,0.7-4.9-1.7-5.4-4.5c-0.4-2.3-0.7-4.6-1-6.9c0-0.8,0-1.7,0-2.5c-1.9-3.6-1.9-8,0-11.6C454,233.4,454.7,230.5,457.9,232.1z"/>
	<path id="Path_41132" class="st0" d="M488.5,240.6c0.4-0.9,0.9-1.8,1.3-2.7c-0.2,5.5,2.5,7.3,7.8,6.6c3.6-0.3,7.3-0.3,10.9,0
		c2.3,0.1,4.9,0.3,5,3.6c-8.2-1.5-16.5-2.1-24.7-0.1l-1.6-1.6C485.1,243.9,486.1,242,488.5,240.6z"/>
	<path id="Path_41133" class="st0" d="M446.2,271.3c0.4,0,0.8,0,1.2,0c-0.5,9.6,2.2,19,1.3,28.6c-0.1,1.3-0.1,2.7-0.2,4
		c-2.8-1-2-3.4-2.1-5.4c-0.5-6.1-0.8-12.2-1.2-18.3C446.7,277.4,442.7,273.9,446.2,271.3z"/>
	<path id="Path_41134" class="st0" d="M353.1,60.7c-3.6-2.1-3.5-4.4,0.5-5.3c5.6-1.2,11.3-0.8,17-0.1c4,0.5,3.3,3,2,5.6
		c-0.6,0-1.2,0-1.8,0c-5.6,0.6-11.2,0.5-16.8-0.3L353.1,60.7z"/>
	<path id="Path_41135" class="st0" d="M159.6,383.7c0.3-7.4,1.7-14.7,4.1-21.6c1.3,9.3-0.7,18.2-2.7,27.2
		C158.9,387.8,160.8,385.4,159.6,383.7z"/>
	<path id="Path_41136" class="st0" d="M26.4,276.4c-0.5,1.9-1,3.7-1.5,5.6c-1.2-9-2.5-18.1-3.6-27.1c-0.2-1.3-0.2-2.6,1.3-3.3
		C25.7,259.6,25.7,268.1,26.4,276.4z"/>
	<path id="Path_41137" class="st0" d="M157,266.2c2.1-7.7,4.6-15.3,8.7-22.3c1.4,0.4,2.6,1.3,3.3,2.6c-0.8,8.7-3.1,16.7-9.9,22.8
		C157.1,269.1,157.7,267.2,157,266.2z"/>
	<path id="Path_41138" class="st0" d="M159.6,383.7l1.4,5.6c-1.9,7.9-1.1,16.3-4.4,24C156.5,403.3,157.5,393.4,159.6,383.7z"/>
	<path id="Path_41139" class="st0" d="M262.8,164.1c-0.2-1.4,0.7-3.3-1-4.1c-1.8-0.8-2.5,0.9-3.4,2.2c-1.1,1.6-2.2,3.1-3.3,4.7
		c-1.8-2.4-4.7-4.6-1.4-7.9c0.7,0.6-1.1,4.2,1.6,1.9c2.6-2.2,4.2-6.1,8.2-3.4c3.9,2.6,2.2,6.3,0.6,9.7
		C262.9,166.5,263.7,164.9,262.8,164.1z"/>
	<path id="Path_41140" class="st0" d="M264.3,223.5c0.4-1,0.8-1.9,1.2-2.9c4,6.7,7.4,13.8,10.1,21.1c-0.2,1-1.1,1.8-2.1,2
		C266.9,240.5,261.7,229.2,264.3,223.5z"/>
	<path id="Path_41141" class="st0" d="M145.3,481.8l1.6,0.1c-0.9,9.3-1,18.6-4.4,27.5C142.3,500.2,143.3,490.9,145.3,481.8z"/>
	<path id="Path_41142" class="st0" d="M127,206.5c0,0.9,0,1.8,0,2.7c-2.6,3.1-5.1,6.2-7.7,9.2c-1.1,1.2-2,3.4-3.8,2.7
		c-2.4-0.9-0.9-3.2-0.9-4.9c0.1-1,0.4-2.1,0.8-3c1.2,0.8,2.1,2.5,3.9,1.1C120.6,210.4,120.2,204.9,127,206.5z"/>
	<path id="Path_41143" class="st0" d="M167,246.7l-1.3-2.9c2.3-6.3,5.4-12.2,9.2-17.8c1.9-0.4,2.5,0.8,3.1,2.2
		C177.6,236.3,172.2,245.2,167,246.7z"/>
	<path id="Path_41144" class="st0" d="M310.5,422.5l-3.9-2.8c2.9,0.9,5.3-1.1,8-1.3c2.4-0.2,5.1-1.8,6.7,1.5c-1.4,1.6-4.1,2.6-1.2,6
		C315.8,425.3,314.2,420.9,310.5,422.5z"/>
	<path id="Path_41145" class="st0" d="M238.1,508.8c-0.4-3.5,1-7.2-1.5-10.4c-3-3.1-6.8-5.9-5.1-11.2l1.7-1.7
		C239.9,490.3,241.8,499.6,238.1,508.8z"/>
	<path id="Path_41146" class="st0" d="M451.1,351.7c0.5-3.6-0.5-7.4,1.5-10.7c0.4,3.2,0.9,6.4,1.1,9.6c0.2,2.6,1,4.1,4,3.3
		c0.7,0.4,0.8,0.9,0.2,1.5l-14.3,1.2C445.3,353.7,450.3,356,451.1,351.7z"/>
	<path id="Path_41147" class="st0" d="M209.1,4c-5.7,1.8-7.3,6.6-8.4,11.7c-1.5,1.2-3.6,1.1-5.1-0.1c3.9-3.5,5.4-8.6,8.2-12.8
		c0.8-1.2,0.9-3,3-2.8C209.3,0.3,208.4,2.6,209.1,4z"/>
	<path id="Path_41148" class="st0" d="M237.1,201.1c6.8,0.2,12.6-2.3,18-6.3c0.1,1.3,0.1,2.5,0.2,3.8c0.7,1.3,0.4,2.9-0.6,3.9
		c-3.3,1.6-6.8,2.4-10.3,3.4c-2.4,0.7-4.7,0.9-6.1-1.7L237.1,201.1z"/>
	<path id="Path_41149" class="st0" d="M196.9,498.5c-2.8-1-2.5,1-2.5,2.6c0,2.7-0.1,5.4,1.1,7.9c-4.9-5.9-2.8-18.4,3.9-23.3l1.6,1.6
		C202.4,492,199.7,495.3,196.9,498.5z"/>
	<path id="Path_41150" class="st0" d="M376.5,248l-1.4,2.7c-4.5-9,2.6-13.3,7.6-18.5c0.9,0.2,1.5,0.9,1.7,1.7
		C381.6,238.6,375.7,241.4,376.5,248z"/>
	<path id="Path_41151" class="st0" d="M438.3,209.4l-1.6,1.5c-4.9-1.6-7.7-1.2-4.8,4.9c0.8,1.4,1.1,2.6-1.1,2.6
		c-1.4-2.9-2.8-5.8-4.2-8.8c-0.7-1-0.6-2.5,0.3-3.4C430.5,208.2,435.1,206.3,438.3,209.4z"/>
	<path id="Path_41152" class="st5" d="M78.6,5.1h0.2c3.2,2.6,5.2,5.7,4.8,10c-0.1,0.2-0.3,0.4-0.4,0.4c-3.2,0.7-7.6,2.3-9.1-0.9
		C72.3,11.1,75.8,7.8,78.6,5.1z"/>
	<path id="Path_41153" class="st0" d="M168.4,355.2l-2.5,2.3c-5.3-2.6-10.2-5.7-13.3-10.9l1.6-1.8
		C160.5,346.2,165.9,348.7,168.4,355.2z"/>
	<path id="Path_41154" class="st0" d="M262.8,164.1c0.5,1,0.9,2,1.4,3c-1.9,6.6-3.2,13.3-6.7,19.3c-2.2-1.4-1.2-3.1-0.6-5
		C259,175.7,260.9,169.9,262.8,164.1z"/>
	<path id="Path_41155" class="st0" d="M426.9,206.1c-0.1,1.1-0.2,2.2-0.3,3.4c-3.4-4.6-6.6-9.5-13.6-6.4c-1.5,0.4-2-0.2-1.8-1.7
		C418.7,197.8,422.8,199,426.9,206.1z"/>
	<path id="Path_41156" class="st0" d="M78.6,5.1c-0.4,1.2-0.9,2.3-1.3,3.5c-0.6,2.2-4.2,4.5-1.8,6.4c2.5,1.7,5.9,1.4,8.1-0.8
		c0.4-0.6,0.7-0.6,1.1,0c-4.5,4.6-9,3.4-13.3-0.2C73.1,10.6,73.3,5.8,78.6,5.1z"/>
	<path id="Path_41157" class="st0" d="M182.4,215.5l5.3-6.3c1.1-0.3,2.3,0.1,3,1.1c2,3.2,3,6.9,3,10.7c-0.3,1.8-1.4,3.4-3.1,4.3
		c-2.8,0.8-4.4-0.8-5.2-3.2c-0.4-1.6-1.4-3-2.7-4C182.2,217.4,182,216.4,182.4,215.5z"/>
	<path id="Path_41158" class="st0" d="M496.6,315l-1.8,1.7c-2.9-5.8-3.6-12.1-4.5-18.4c0.9-1.2-0.4-3,1.2-3.9
		C493.2,301.2,494.9,308.1,496.6,315z"/>
	<path id="Path_41159" class="st0" d="M457.9,355.4c-0.1-0.5-0.1-1-0.2-1.5l-1.2-18c1.6,0.3,2.9,1.2,3.8,2.5c-0.5,3.1,1,5.7,1.7,8.6
		c0.5,2.1,1.4,4.3-0.4,6.2c-0.5,0.5-1.2,0.8-1.9,0.8L457.9,355.4z"/>
	<path id="Path_41160" class="st0" d="M282.3,255.5c3.8,6.2,4,12.4-0.1,18.6c-1.4-0.5-2.5-1.3-3.3-2.6c-0.8-4.5-0.8-9.1,0-13.6
		C279.7,256.8,280.9,255.9,282.3,255.5z"/>
	<path id="Path_41161" class="st0" d="M282.3,255.5l-1.3,2.9c-6.1-1.8-9.2-8.5-7-15l1.6-1.8C277.8,246.2,280.1,250.8,282.3,255.5z"
		/>
	<path id="Path_41162" class="st0" d="M189.4,211l-1.7-1.8l9.9-8.7l4.5,1.2C199.7,208.4,195,211.9,189.4,211z"/>
	<path id="Path_41163" class="st0" d="M204.6,144.7c-5.4-0.2-9,1.7-9.1,7.8c-3.2-4.3-1.9-8.4,3.3-10.1c1.7-0.6,3.7-0.3,5.6-0.5
		C204.5,142.8,204.5,143.7,204.6,144.7z"/>
	<path id="Path_41164" class="st0" d="M182.4,215.5l1.6,1.6c1.7,6.2-1.5,10.9-7.8,11.6l-1.3-2.6C176.6,222,179.1,218.4,182.4,215.5z
		"/>
	<path id="Path_41165" class="st0" d="M463.4,231.1l-3.3,0.2c0.2-4.2,0.4-8.5,0.8-12.7c0-0.5,0.8-0.9,1.8-2
		C462.9,221.9,463.2,226.5,463.4,231.1z"/>
	<path id="Path_41166" class="st0" d="M156.5,207.9c-1.7-6.7-0.4-13.5-0.8-20.2c-0.2-2.3-0.5-4.6-0.7-6.9c0.6-0.4,1.2-0.7,1.7-1.1
		C157.2,189,157.6,198.4,156.5,207.9z"/>
	<path id="Path_41167" class="st0" d="M372.6,60.2c0,0.3,0,0.5,0,0.8c0.7,5.1-2.2,10-1.1,15.2c-1.9-0.5-1.6-2.6-2.7-3.7
		c-2.9-3.5-3.1-9.4-0.1-12.2C369.7,59.3,371.2,57.7,372.6,60.2z"/>
	<path id="Path_41168" class="st0" d="M288.3,282.5c0.9,1.1,1.8,2.1,2.7,3.2c-5.7,4-10.2,3.3-14-2.3c-0.2-1.3,0.3-2.6,1.4-3.4
		C281.5,281.5,284.8,282.7,288.3,282.5z"/>
	<path id="Path_41169" class="st0" d="M464.2,192.5c4.2,0.6,8.1,1.5,9.1,6.5c-4.5-0.3-7.6-5.5-12.7-3.5
		C459.2,191.5,463.6,194.2,464.2,192.5z"/>
	<path id="Path_41170" class="st0" d="M384.3,233.9l-1.7-1.7c2.6-3,4.2-6.8,7.8-8.8c2.1-0.2,2.5,0.6,1.4,2.3L384.3,233.9z"/>
	<path id="Path_41171" class="st0" d="M464.2,192.5l-3.7,3.1v11.4c-2.6-4.7-0.9-10.2-4-14.7l2.3-1
		C460.3,193,462.5,191.7,464.2,192.5z"/>
	<path id="Path_41172" class="st0" d="M491.5,294.3l-1.2,3.9l-4-15.3l2.4-1.2L491.5,294.3z"/>
	<path id="Path_41173" class="st0" d="M411.2,201.4l1.8,1.7c-3.8,3-5.6,8.2-10.9,9.5C403.2,207.2,407.3,204.4,411.2,201.4z"/>
	<path id="Path_41174" class="st0" d="M278.4,280c-0.1,1-0.1,2-0.2,3c-1.3,1.1-2.6,0.7-3.8-0.3c-1-1-1.6-2.3-1.8-3.7
		c1-4.5,3.6-7.3,8.4-7.8c0.4,0.9,0.8,1.9,1.3,2.8C280.9,276.1,279.7,278.1,278.4,280z"/>
	<path id="Path_41175" class="st0" d="M355.6,73.7l-2.7,2.5c1.8-5.2-3-10.4,0.2-15.5l-0.1,0.1C358.7,63.3,359.7,68.6,355.6,73.7z"/>
	<path id="Path_41176" class="st0" d="M430.8,218.3c0.4-0.9,0.8-1.7,1.1-2.6c3,4.6,4.8,9.3,1.3,14.4c-0.4-0.9-0.8-1.8-1.3-2.7
		C432.3,224.3,431.8,221.2,430.8,218.3z"/>
	<path id="Path_41177" class="st0" d="M253.5,201.7c0.6-1,1.1-2,1.7-3c1.8,2.4,3.1,5.1,3.7,8c-1.4,1.3-1.8,3.7-4.2,3.7
		C253.5,207.6,249.6,205.2,253.5,201.7z"/>
	<path id="Path_41178" class="st0" d="M157,266.2l1.3,2.8c0.7,0.5-0.2-0.1,0.6,0.2c2.4,1,3.8,2.5,3.3,5.2c-0.1,1.3-1.1,2.3-2.4,2.6
		c-3.2,0.4-4.3-1.9-5.2-4.3l-1.6-1.5C154.9,270.2,156.4,268.4,157,266.2z"/>
	<path id="Path_41179" class="st0" d="M492.8,187.1l-1.3,2.8c-1.4-3.4-2.7-6.7-4.1-10.1l1.2-2.7L492.8,187.1z"/>
	<path id="Path_41180" class="st0" d="M515.9,288.1c2.2,4.2,0.4,8.9,1.5,13.2l-0.3,10c-1.9-4.7-0.3-9.6-1.3-14.4
		C515.8,293.9,515.8,291,515.9,288.1z"/>
	<path id="Path_41181" class="st0" d="M452.6,235.1c0,3.9,0,7.8,0,11.6l-2.6,0c0.1-3.6,0.2-7.2,0.2-10.8L452.6,235.1z"/>
	<path id="Path_41182" class="st0" d="M446.2,271.3c-0.3,3,0.4,6.1-1.1,8.9c-0.3-2-0.6-3.9-2.9-1.2l-1.5-1.7c-1.5-4,0.1-5.9,4.2-6
		C445.3,271.3,445.8,271.3,446.2,271.3z"/>
	<path id="Path_41183" class="st0" d="M391.8,225.7l-1.4-2.3c2.4-2.7,4.2-6,8-7C398.1,220.8,394.7,223.1,391.8,225.7z"/>
	<path id="Path_41184" class="st0" d="M84.6,14.3c-0.4,0-0.7,0-1.1,0l-4.8-9.1c5.1,0.3,5.1,4.8,6.8,8L84.6,14.3z"/>
	<path id="Path_41185" class="st2" d="M266.6,332c9-0.1,18-0.1,27-0.3c4.2-0.1,4.6,1.8,3.7,5.2c-3.1,12.4-15.4,20.2-27.9,17.9
		c-1.3-1.9-2.5-3.9-3.8-5.8C259.5,340.2,259.5,340.2,266.6,332z"/>
	<path id="Path_41186" class="st3" d="M168.4,355.2c-5.6-2.3-10.5-5.4-14.2-10.3c-6.3-13.1-6.3-13.1,8.4-13.1c2.8,0,5.6,0.2,8.3,0.3
		c1.9,9.1,5.3,17.3,14,22C179.6,357.1,174,355.1,168.4,355.2z"/>
	<path id="Path_41187" class="st5" d="M196.9,498.5c-1.3-4.8,0.7-8.3,4.1-11.3l2.2-0.5c1.9-2.1,4.3-1.8,6.7-1.2
		c3.9,2.6,7.7,0.7,11.6-0.4c3.1,0.1,6.4-0.8,9,1.8c0.3,0.2,0.7,0.3,1,0.3c3.5,2.6,5.4,6.8,5.1,11.2L196.9,498.5z"/>
	<path id="Path_41188" class="st3" d="M202.2,484.1c-0.4-12.9-0.4-12.9,12.5-12.9h5.1c12.6,0,12.6,0,10.6,13.1
		C221,486.5,211.6,487.5,202.2,484.1z"/>
	<path id="Path_41189" class="st4" d="M294.9,411.8c4.4,0.7,5.7,4.8,8,7.6c1.6,1.9-0.5,3.1-1.7,4.1c-3,2.4-6.1,4.7-9.1,7.1
		c-9.1,7.1-10.5,6.7-15.4-4.4L294.9,411.8z"/>
	<path id="Path_41190" class="st0" d="M392,331.7c-2.6-1.3-5.4-1.1-8.2-1.1c-25.2,0-50.3,0-75.5,0c-2.9,0-6.1-0.7-8.4,2.1
		c-2.8-2.6-6.4-2.1-9.8-2.2c-7.5-0.1-15-0.1-22.5-0.2l0-0.6c40.1-0.1,80.1-0.2,120.2-0.2c1.9,0,4-0.2,5,2
		C392.6,331.7,392.3,331.7,392,331.7z"/>
	<path id="Path_41191" class="st2" d="M191.4,355.6c3.9-16.2,30.1-24,42.1-9C216.7,337.1,202.6,339.6,191.4,355.6z"/>
	<path id="Path_41192" class="st2" d="M282.2,359.1c-1,4.8,3.2,9.6-0.1,14.3c-3-4.3-6-8.7-9-13C275.8,357.9,278.8,356.9,282.2,359.1
		z"/>
	<path id="Path_41193" class="st2" d="M242,396.7c-1.8-6.9-0.8-14-0.8-21c0-9.5,0.5-19.1-6.1-27.3c5.4,2.6,7,7.2,8.1,12.1
		c-1,9.8-0.1,19.5-0.5,29.3C242.6,392.1,243.3,394.5,242,396.7z"/>
	<path id="Path_41194" class="st0" d="M202.2,484.1l28.2,0.2l0.1,2.5l-10.2,0.1c-3.1,4.1-6.7,2.9-10.5,1.3c-1.8-2.3-4.5-0.7-6.6-1.5
		L202.2,484.1z"/>
	<path id="Path_41195" class="st0" d="M242,396.7c0.1-9.8,0.1-19.5,0.2-29.3c0-2.3-0.3-4.7,1-6.8c0.1,11.3,0.3,22.6,0.4,34
		C243.6,395.5,243.5,396.7,242,396.7z"/>
	<path id="Path_41196" class="st2" d="M252.3,332.2c3.6,1,4.9,4.2,5.9,7.4C254.7,338.5,253.4,335.5,252.3,332.2z"/>
	<path id="Path_41197" class="st0" d="M70.4,274.1c0-5.9,2.3-8.3,5.9-8.6c4.4-0.5,7.4,2.5,7.5,6.6c0.3,3.5-2.4,6.6-5.9,6.8
		c-0.3,0-0.5,0-0.8,0C73.5,278.9,70.2,277,70.4,274.1z"/>
	<path id="Path_41198" class="st0" d="M139.8,288.5l1.3-5.5c5.1,4.7,5.5,9.5,1.4,14.2l-1.3,2.8C139.6,296.2,139.9,292.3,139.8,288.5
		z"/>
	<path id="Path_41199" class="st2" d="M189.4,211l12.7-9.3c2.2,1.1,0.3,3.9,2.1,5.3c1.3,0.7,2.1,2,2.3,3.4
		c1.4,6.8,2.3,13.8,3.8,20.6c0.2,2.8,0.9,5.5,1.4,8.3c1,7.9,2.4,15.7,4,23.5c1.5,10.1,2.8,20.3,4.5,30.4c0.6,3.6,1.6,7.3-1.5,10.3
		c-1.5,0.7-3.3,0.7-4.8-0.1c-2.3-1.5-3-3.8-3.6-6.4c-1.1-4.7-2.8-9.3-5.1-13.5c-3-6.2-4-13.1-6-19.6c-1.2-4.1-5.2-7-4.8-11.7
		c0.5-3.9,2.1-7.6,1.3-11.6c-0.3-4.5-5.3-6.8-5.1-11.9c0.1-2.6,1.7-5.4,0.1-8.1L189.4,211z"/>
	<path id="Path_41200" class="st6" d="M214.8,201.4c3.1-4.1,6.7-6.7,12.4-5.5c2.1,0.5,4.5-0.5,6.8-0.8c2.2,8.1,1.1,10.9-5.6,14.6
		c-3.3,0.9-6.6,1.9-10.2,1.1C210.8,208.2,210.1,206.3,214.8,201.4z"/>
	<path id="Path_41201" class="st7" d="M253.5,201.7c0.6,2.9,4.3,5.3,1.2,8.7c-2.9,0.8-5.9,1.4-8.6,2.6c-3.9,1.9-6.6,0.9-8.8-2.5
		c0-2.1-1.2-4.4,0.9-6.2C243.5,204.7,247.9,199.4,253.5,201.7z"/>
	<path id="Path_41202" class="st6" d="M207.2,205.3c-3.3-5.2,0.5-9.8,1.2-14.7c0.4-2.5,2.4-1.5,3.3-0.4c1.6,2,6.5,1.4,4.9,5.8
		c-0.5,1.5-2.1,2.7-3.1,4C212.4,203,213.2,208.2,207.2,205.3z"/>
	<path id="Path_41203" class="st0" d="M207.2,205.3c4.2,0.8,3.9-3.8,6.3-5.2l1.3,1.3c-2.9,5.2,0.4,6.6,4.6,7.6
		c-0.1,1.6-1.5,2.4-2.3,3.6c-1.1,1.5-0.8,3.5-2.1,4.9c-0.9,0.8-1.8,1.7-3.1,1.7c-3.8-0.8-3.6-4.6-5.3-7c-0.5-0.6-1-1.2-1.6-1.7
		l-0.5-3.6L207.2,205.3z"/>
	<path id="Path_41204" class="st0" d="M235.6,210.6c-0.3,2.3-0.7,4.6-1,6.9c2.5,6.8,2.7,13.3-2.4,19.1c-2.7,0.4-3.2-1.5-3.7-3.5
		c0.4-8.4-1.1-17,4.3-24.5c0.5-0.5,1.2-0.9,1.9-1C235,208.7,235.3,209.6,235.6,210.6z"/>
	<path id="Path_41205" class="st0" d="M227.8,208c6.2-2.3,8.1-6.6,6.1-12.8c3.8,3.9,0.9,8.3,0.7,12.5c-0.2,0.2-0.5,0.4-0.7,0.6
		c-1.2,1.1-2.2,2.5-4.1,2.4C228.5,210.3,227.3,209.8,227.8,208z"/>
	<path id="Path_41206" class="st0" d="M517.1,257.6c-0.3,6.7,1.2,13.4-1,20C515.6,271,515.9,264.3,517.1,257.6z"/>
	<path id="Path_41207" class="st2" d="M390.5,306.2c1.6,6.1,0.5,12.4,0.8,18.6c0.1,2.8-1.5,3.8-4,3.7c-1.5,0-3,0-4.5,0
		c-123.6,0-247.1,0-370.7,0c-9.3,0-9.4,0-9.3-9.5c0-4.3-0.5-8.6,0.6-12.9L390.5,306.2z"/>
	<path id="Path_41208" class="st1" d="M199.4,239.5l-1.3,12.5c-1,1.7-1.1,3.8-0.2,5.6c3.9,9.8,5.4,20.3,9.6,30
		c1.2,3.9,2.6,7.7,3.7,11.6c1,3.6,0.4,5.3-3.6,5.2c-8.8-0.3-17.6,0.4-26.3-0.3c-1.2-1.1-1.2-2.6-0.9-4c1.8-3,4.8-1.8,7.4-2.1
		c3-0.4,6.5,0.6,8-3.3c0.3-4.9-3-5.8-6.7-5.6c-5,0.3-6.8-1.7-6.6-6.8c0.4-9,1.8-17.9,2.1-23.4c-0.6,5.4-1.9,14.2-2,23.1
		c0.1,2.4-0.6,4.7-1.9,6.7c-2.1,3.1-3.1,6.4-1.4,10.3c1.6,3.6,0.4,5.7-4,5.6c-9.2-0.2-18.5-0.3-27.7,0.1c-4,0.2-4.6-2-5-4.8
		l-0.2-2.4l-1.4-14.2c-0.7-4.1,1.4-6.1,5.2-7.1c2.8-0.9,5.6-1.9,8.2-3.1c2.8-0.5,3.5,2.8,5.8,3.3c1.5-3.1-2.6-4.4-2.1-7
		c2.9-7.4,5.8-14.8,8.7-22.3l9.2-18l7.8-11.6c1.3-0.9,2.9-3.5,3.7,0.4c0.5,2.4,1,4.9,1.5,7.3c0.5,0.4,0.8,1,1,1.6
		C190.9,232.4,193.2,237.3,199.4,239.5z"/>
	<path id="Path_41209" class="st6" d="M260,299.9c0,1.1,0,2.2,0,3.4c-9.7,2.1-19.5,0.7-29.3,0.7c-3.3,0-3-3.5-2.7-6.1
		c0.8-6.8,3.5-13.1,5.6-19.6c1.5-4.4,4.2-6,8.9-4.2c4.8,1.8,9.7,3.3,14.9,2.9c0.8,0.1,1.5,0.4,2.1,0.9c1.3,1.4,2.4,2.9,3.3,4.6
		c0.6,1.4,0.5,2.9-0.1,4.3c-0.3,0.6-0.8,1.1-1.4,1.5c-4.6,1.1-9.4,0.1-14.1,0.7c-5.7,0.6-8.3,4-7.9,9.9
		C246.3,300,253.3,297.8,260,299.9z"/>
	<path id="Path_41210" class="st0" d="M181.4,300.4l0.1,2.8c1,0.5,1,1-0.1,1.4c-11.1,0.1-22.1,0.3-33.2,0.4c-3.7,0-6.4-1-5.5-5.6
		c0.9,2.6,2,4.4,5.4,4.3c8.8-0.2,17.6,0,26.4-0.1c1.4,0,3.2,0.2,3.8-1.6c0.5-1.5-0.7-2.1-1.6-3.1c-3.8-4.2-2.9-10,2-12.6
		c2.2-1.2,2.1-3,2.3-4.9c0.9-9.3,1.7-18.7,2.7-28c0.3-2.5,1-5,2.1-7.3c2,7.7-0.4,15.2-1,22.7c-0.4,4.6,0,9.3-0.9,14
		c-0.4,2.3,0.7,3.6,3.2,3.6c1.5,0,3,0,4.5,0c11.2,0,11.2,0,10.2,11.8c-4.9,1.5-10,0.2-14.9,0.7C185.1,299.3,182.8,297.9,181.4,300.4
		z"/>
	<path id="Path_41211" class="st0" d="M218.6,303.5c-0.4-10.8-2.6-21.3-4.3-32c-0.5-2.9-0.8-5.8-0.9-8.8c-0.3-2.1-1.5-4.4,1-6
		c5.7,3.5,4.6,9.7,5.6,14.9c0.3,2,0.9,3.9,1.7,5.7c-0.6,4.4,4.1,7.3,3.5,11.8c-0.1,1.2-0.3,2.3-0.5,3.5c-0.7,4.1,0.1,8.9-4.7,11.3
		L218.6,303.5z"/>
	<path id="Path_41212" class="st0" d="M181.4,304.7l0.1-1.4c8.3,0.2,16.6,0.2,24.9,0.5c3.8,0.1,4.2-1.6,3.2-4.8
		c-1.3-4-2.4-8.2-3.5-12.2c0.3-1.4-0.6-3.1,1.2-4.1c2.8,6.7,5,13.7,6.5,20.8C203.2,306.7,192.2,304.7,181.4,304.7z"/>
	<path id="Path_41213" class="st0" d="M237.8,298.6c-2-2.5-0.6-5.3-1-8c-0.4-3.2,1.4-4,4.2-4c6.8,0.1,13.6,0.1,20.4,0.1
		c1.3,0.3,2.1,1.5,1.8,2.8c0,0.1,0,0.2-0.1,0.3c-3.7,4.1-8.6,2.3-13.1,2.8c-3,0.3-6.6-0.8-8.1,3.2c-0.4,0.5-0.8,1-1.2,1.4
		c-0.3,0.2-0.6,0.5-0.8,0.8c-0.2,0.7-1,1-1.7,0.8C238.1,298.8,237.9,298.7,237.8,298.6z"/>
	<path id="Path_41214" class="st0" d="M318.2,303.4c0,0.5,0,1,0.1,1.4c-17.2,0.1-34.4,0.3-51.5,0.2c-5.8,0-6.5-1.9-3.2-7
		c0.7,0.1,1.4,0.3,2,0.7c3.6,1.8,7.4,1.6,11.3,1.6c10.7,0.1,21.3,0,32,0.1C312.2,300.5,315.7,300.3,318.2,303.4z"/>
	<path id="Path_41215" class="st0" d="M230.2,297c-1.9,5.2-0.5,7.3,5.4,6.9c8.1-0.7,16.3,0.5,24.4-0.6c-6.1,3.6-12.8,1.4-19.1,1.6
		c-4.6,0.1-9.8,1.9-14-2.1c-0.7-0.2-1.3-0.6-1.8-1.1c-1.7-3.6-0.8-6.2,3-7.7C230.2,294.1,229.5,296.1,230.2,297z"/>
	<path id="Path_41216" class="st0" d="M240.7,297.2c0-0.4,0-0.8,0-1.1c2-4.3,6-3.2,9.3-3.3c3.9-0.2,8-0.7,11.6,1.6
		c0.7,0.5,1.2,1.2,1.4,2C255.7,298.4,248.2,297.1,240.7,297.2z"/>
	<path id="Path_41217" class="st0" d="M262.7,289.5l-1.3-2.8c0.1-0.3,0-0.6-0.1-0.8c3.1-0.9,5.8,0,6.3,3.3c0.6,3.5,1.8,7.8-3.3,9.5
		c-0.2-0.2-0.5-0.4-0.7-0.7c-0.1-0.5-0.3-1.1-0.4-1.6c-0.2-0.2-0.3-0.4-0.5-0.6C260.7,293.7,260.7,291.6,262.7,289.5z"/>
	<path id="Path_41218" class="st0" d="M237.8,298.6c0.7-0.2,1.4-0.3,2.1-0.5c6.7,0.9,13.7-2.1,20.1,1.9
		C252.7,298.3,245.1,300.6,237.8,298.6z"/>
	<path id="Path_41219" class="st0" d="M220,303.9c0.4-4-0.6-8.1,1.2-12c2.8,0.6,2.9,2.7,2.9,4.9c-0.1,2.1-0.2,4.3,2.3,5.3
		c0.2,0.3,0.3,0.5,0.5,0.8C225,305.5,222.6,305.3,220,303.9z"/>
	<path id="Path_41220" class="st0" d="M461.6,341l1.5-1.6c3.2,4.5,6.1,9.1,7.4,14.6c-3.6,2.1-7.2,3.9-10.8,0l0.6-0.1
		c3.4-1.5,2.3-4.3,1.7-6.7C461.6,345.2,459.4,343.3,461.6,341z"/>
	<path id="Path_41221" class="st2" d="M207.2,86c-15.1,0-30.1-0.2-45.2,0.1c-4.8,0.1-6.8-1.1-6.7-6.4c0.3-18.5,0.3-37,0-55.5
		c-0.1-4.9,1.5-6.1,6.2-6.1c30.3,0.2,60.7,0.2,91,0c5,0,6.2,1.6,6.1,6.3c-0.2,18.5-0.2,37,0,55.5c0.1,4.9-1.7,6.3-6.3,6.2
		C237.3,85.9,222.3,86,207.2,86z"/>
	<path id="Path_41222" class="st3" d="M133.2,18.6c1.8,1.3,1.8,3.3,1.8,5.2c0,42.9,0,85.9,0.1,128.8c0,4.2-1.5,5.6-5.6,5.5
		c-34.6-0.1-69.1-0.1-103.7-0.1c-1.1-0.1-2.1-0.2-3.2-0.4c0-44.1,0.1-88.2-0.1-132.3c0-5.4,1.7-6.8,6.9-6.8
		C64,18.8,98.6,18.7,133.2,18.6z"/>
	<path id="Path_41223" class="st5" d="M319.6,76.2c-2-13.7-1-27.4-0.6-41.1c0.2-6.1,6.1-2.5,9.4-3.2c3.4-0.7,5,1,5,4.7
		c-0.2,13.1-0.1,26.2-0.1,39.3L319.6,76.2z"/>
	<path id="Path_41224" class="st5" d="M296.5,76.1c-1.1-18.9-0.2-37.8-0.5-56.8c0-2.6,0.9-3.9,3.7-3.9c3,0,3.6,1.5,3.7,4
		c0.1,6.9,0.3,13.7,0.5,20.6c-0.1,9.8-0.6,19.5-0.2,29.3C303.9,75.1,302.1,77.2,296.5,76.1z"/>
	<path id="Path_41225" class="st5" d="M355.6,73.7c-0.4-4.4-0.3-8.9-2.6-12.9c3.4-3.6,13.6-3.9,19.5-0.7c-4.9,3-2.8,8.1-3.8,12.3
		C366.5,77.2,360.3,77.8,355.6,73.7z"/>
	<path id="Path_41226" class="st5" d="M291.4,79.1c27-0.1,54.1-0.1,81.1-0.3c3.6,0,5,1.2,4.9,4.8c0,3.7-1.6,4.8-5.1,4.8
		c-25.3-0.1-50.7-0.1-76,0C288.6,88.4,292.4,82.5,291.4,79.1L291.4,79.1z"/>
	<path id="Path_41227" class="st2" d="M127,206.5c-4,1.2-5.1,5.2-7.8,7.8c0.2-7.7-4-9.5-10.8-8.4c-4.1,0.7-5.5-1.2-5.7-5.4
		c-0.6-19.5-0.8-19.5,18.5-19.5c10.9,0,21.9,0,32.8,0.1c0.1,6.4,0.1,12.9,0.4,19.3c0.2,4.1-1.3,5.7-5.5,5.7
		C141.6,206.1,134.3,205.3,127,206.5z"/>
	<path id="Path_41228" class="st2" d="M296.4,192.5l0-55.5c2.3-1.6,5-1,7.5-1c24.6-0.1,49.2-0.2,73.7-0.2c2,0.8,2,2.5,2,4.3
		c0,16.8,0.1,33.7,0,50.5c-0.1,0.6-0.4,1.2-0.8,1.7c-1.5,0.8-3.2,1.2-4.9,1.1c-24.4,0-48.7,0-73.1,0
		C299.3,193.1,297.8,192.8,296.4,192.5z"/>
	<path id="Path_41229" class="st0" d="M378.8,192.2c-0.1-16.5-0.1-33.1-0.2-49.6c0-2.3,0.6-4.8-1-6.9c0.8-0.2,1.6-0.5,2.4-0.7
		c0,17.5,0.1,35.1,0.1,52.6C380.1,189.2,380.9,191.2,378.8,192.2z"/>
	<path id="Path_41230" class="st5" d="M339.4,127.5c1.9,0.5,2.6,2.2,3,3.8c0.6,2.2-1.1,2.5-2.7,2.5c-1.5,0-3.4,0.1-3.1-2.2
		C336.8,129.9,337.8,128.4,339.4,127.5z"/>
	<path id="Path_41231" class="st2" d="M488.5,240.6l-1.4,5.8c-4.6,8.4-6.7,17.7-9.4,26.7c-1.3,4.4-3.6,7.1-8.3,7.2
		c-1.6-0.2-3.1-1.1-3.8-2.6c-3.7-1.8-3.9-6.4-7.1-8.6c-0.8-2.9-2.9-5.9,0.8-8.3c0.1-6.1-2.5-11.5-4.2-17.1c-1.3-4.1-1-7.5,2.7-10
		c7.8,0.5,15.7,1,23.5,1.5C484.9,235.4,486.8,237.8,488.5,240.6z"/>
	<path id="Path_41232" class="st3" d="M459.3,260.9l1.7,6.5c2.5,5.7,2.9,11.7,2.6,17.8c-0.5,10.8,1.1,21.8-0.8,32.6l-1.5,1.1
		c-1.7,0.3-5,4.5-4.5-0.9c0.6-7.5-2.2-14.7-1.5-22.1c-1.2-11.6-2.4-23.1-3.4-34.7c-0.3-4-1.5-8.1,0.8-11.9
		C456.4,252.2,455,258.2,459.3,260.9z"/>
	<path id="Path_41233" class="st0" d="M462.7,317.7c-0.4-15.5,3.4-31.3-2-46.6c-0.4-1.1,0.1-2.5,0.2-3.8c3.6,2.6,3.4,6.8,4.6,10.4
		c-2.7,9.9-0.6,20-1.3,30C464,311.1,464.9,314.6,462.7,317.7z"/>
	<path id="Path_41234" class="st0" d="M469.4,281.6c0,0.4,0.1,0.8,0.1,1.3l-0.3,1c-0.8,10.5-0.8,21.1,0,31.7l0.3,1
		c-3.9,1.6-3.9-1.4-3.9-3.6c-0.1-8.8-0.1-17.6-0.1-26.3C465.5,283.9,466.4,281.9,469.4,281.6L469.4,281.6z"/>
	<path id="Path_41235" class="st0" d="M469.5,282.9c2,11.1,2,22.5,0,33.7l-0.2-0.1c-2-11-2-22.4-0.1-33.4L469.5,282.9z"/>
	<path id="Path_41236" class="st2" d="M264.2,298.6c1.4-4.8,4.2-10-3-12.8c0.1-0.8,0.1-1.7,0.2-2.5c4.3-4.1,9.2-2.4,14-1.3l2.8,1
		c3.9,2.9,8.4,2.5,12.8,2.7c5.1,7.4,12.3,9.3,20.2,6.5c6.8-2.4,7.6,0.5,7.1,6c-0.2,1.7-0.1,3.4-0.1,5.1c-17.2,0.1-34.4,0.3-51.6,0.3
		C262.2,303.7,261.4,302,264.2,298.6z"/>
	<path id="Path_41237" class="st1" d="M461.6,341c1.1,2.5,2.3,5,3.4,7.5c0.7,1.7,3,3.4,1.7,5.1c-1.6,2.1-4.2,1.1-6.4,0.3
		c0.5-5.2-2.8-10.4,0-15.5L461.6,341z"/>
	<path id="Path_41238" class="st2" d="M444.9,271.3l-4.2,6c-4.8,6.6-9.8,13-14.4,19.8c-2.6,3.8-5.4,5.3-9.7,3.4
		c0.2-12.3,3.1-24.3,4-36.6c0.2-3,1.4-5.3,4.8-5.8c5,2.2,10,4.4,15.1,6.4C443.8,265.8,445.5,267.7,444.9,271.3z"/>
	<path id="Path_41239" class="st1" d="M258.9,280.3c-0.4,0-0.8,0-1.2,0c-5.9-2-8.5-6.7-10-12.2c-1.5-5.3-2.3-10.8-3.6-16.2
		c-0.2-3.4-1.8-6.7-1.6-10.2c-0.9-4.5-0.7-9.4-3-13.6c-1.4-2.5,0.5-4.9,0.1-7.4c0-1.5-0.3-3.1,1.8-3.6c1.5-0.4,2.9-0.9,4.3-1.4
		c12.6-4,12.6-4,18.6,7.7c2.7,6.9,5.9,13.6,9.7,19.9c2.3,5,4.7,10,7,15c1.2,4.2,1.2,8.7,0,13c-1.6,3-3.9,5.6-6.7,7.6
		C269.5,283.7,264.2,281.8,258.9,280.3z"/>
	<path id="Path_41240" class="st0" d="M231.5,236.3c1-6.3,2.1-12.5,3.1-18.8c0.8-0.7,1.5-3.5,2.6-0.2c0.5,1.6,0.8,3.2,1.2,4.8
		c3.2,6.9,4.4,14.4,5.5,21.8c0.5,2.7,0.5,5.4,0,8c-0.8,2.2-1.4,4.5-3.4,6.1c-1.9,0.9-4,0.3-6,0.8c-2.9-0.2-6.4,2.5-8.2-2
		C227.3,249.8,226.6,242.4,231.5,236.3z"/>
	<path id="Path_41241" class="st0" d="M243.2,244.4c-2.3-7.3-4.3-14.6-4.9-22.3c0.4-0.5,0.8-0.9,1.3-1.4c2.6,6.8,4.6,13.6,4.9,20.9
		C243.7,242.4,244.4,243.9,243.2,244.4z"/>
	<path id="Path_41242" class="st0" d="M199.4,239.5c-9.2-1.4-9.3-1.6-10.2-14.7c0.5-1.4,0.9-2.7,1.4-4.1c0.6,2.4,1.4,4.9,1.9,7.3
		c0.8,3.9,0.8,8.2,6.6,8.4C201.2,236.4,200.9,238.2,199.4,239.5z"/>
	<path id="Path_41243" class="st0" d="M258.9,280.3c5.2,0.2,10.4,0.7,15.4-1.4c0.4,1.1,0.8,2.1,1.1,3.2c-4.5,2.2-9.4-0.5-14,1.3
		C260.1,282.8,259.2,281.7,258.9,280.3z"/>
	<path id="Path_41244" class="st0" d="M209.8,488.3c3.5,0,7.1,0.2,10.5-1.3c0.4,1.6,1.3,3.7-1.5,3.5
		C215.8,490.2,211.8,492.8,209.8,488.3z"/>
	<path id="Path_41245" class="st1" d="M76.9,275.4c-1.7,0-3-1.4-2.9-3.1c0-0.2,0-0.3,0-0.5c0-1.5,1.2-2.8,2.7-2.8c0.1,0,0.1,0,0.2,0
		c1.7-0.1,3.2,1.2,3.3,2.9c0,0.1,0,0.2,0,0.3C80.4,274.3,79,275.3,76.9,275.4z"/>
	<path id="Path_41246" class="st0" d="M207.3,282.6c-0.4,1.4-0.8,2.7-1.2,4.1c-3.2-9.9-6.5-19.9-9.5-29.8c-0.5-1.7-1-3.9,1.6-4.9
		L207.3,282.6z"/>
	<path id="Path_41247" class="st0" d="M214.7,257.1c-0.4,1.9-0.8,3.8-1.2,5.7c-1.7-8-4-15.8-3.4-24.1c-0.8-3.7,0.8-3.5,3.2-1.9
		c2,5,1.8,10.5,3.4,15.6C217.4,254.2,216.5,256.3,214.7,257.1z"/>
	<path id="Path_41248" class="st0" d="M204.8,210.5l2.6-2.5c1.9,4.5,1.6,9.7,4.1,14c0.2,1.4,0.3,2.8,0.3,4.3
		c-0.6,2.1-1.2,4.2-3.4,5.2C206.4,224.7,205.6,217.6,204.8,210.5z"/>
	<path id="Path_41249" class="st0" d="M208.3,231.6c0.5-1.8,0.9-3.7,1.4-5.5c5.1,3.6,5.3,5.4,1.2,10.3c-0.3,0.7-0.5,1.5-0.8,2.2
		C208.1,236.7,208.5,234,208.3,231.6z"/>
	<path id="Path_41250" class="st0" d="M227.8,208l2.5,1.3c-0.3,5.3-4.7,4.6-7.9,5.2c-3.2,0.6-6.5,0.2-7.4-4l4.4-1.5L227.8,208z"/>
	<path id="Path_41251" class="st4" d="M214.9,210.5c5,1.9,10.7,1.4,15.4-1.2l3.7-0.9c-1.3,7.9-2.5,15.7-3.8,23.6
		c-0.2,5.8-0.9,11.7-2.3,17.3c-0.5,2,0.2,4.5-2.3,5.4c-2.9,1.1-3.9-1.9-5.6-3.1c-3.3-6.3-4.2-12.8-1.8-19.5c0.3-0.9,0.9-1.8,1.6-2.4
		c2.9-2.5-0.7-1.2-1.1-1.8c-6-2.3-5.8-7.7-6.2-12.7C212.8,213.3,211.8,210.8,214.9,210.5z"/>
	<path id="Path_41252" class="st0" d="M212.5,215.1c2,3.8,2,9.1,7.3,10.8c3.4,0.3,2.2,1.9,1,3.6c-1,0.5-2.1,0.8-3.2,1
		c-6.7-0.3-5.6-6.4-7.4-10.2c0-0.7,0.4-1.4,0.9-1.9C211.6,217.3,212.1,216.2,212.5,215.1z"/>
	<path id="Path_41253" class="st2" d="M211.2,218.3l-0.2,1.4c-0.4,0.9,0,2.3-1.5,2.7c-1.6-4.6-2.3-9.5-2.2-14.3
		C211.7,210.3,208.8,215.3,211.2,218.3z"/>
	<path id="Path_41254" class="st0" d="M221.5,250.3c1.2,0.8,1.5,3.1,3.2,2.8c1.9-0.3,1.4-2.4,1.7-3.7c1.3-5.8,2.5-11.6,3.8-17.4
		c0.4,1.5,0.9,2.9,1.3,4.4c-1.1,6.9-2.1,13.8-3.2,20.7c-1.6,1.3-3.6,1.9-5.7,1.8c-3.3-1.1-4.7-3.3-3.7-6.7
		C219.5,251.1,220.4,250.4,221.5,250.3z"/>
	<path id="Path_41255" class="st0" d="M181.4,300.4c0.7-4.1,13.7-1.2,20.5-2c-4.4,2-9.1,0.6-13.7,0.9
		C185.9,299.5,183.5,299.8,181.4,300.4z"/>
	<path id="Path_41256" class="st0" d="M246.2,251.5c0.8,3.1,1.9,6.1,2.3,9.2c0.8,7.6,3.6,14.3,9.2,19.6c-5.6-0.1-10.9-2.1-16-4.1
		c-3.6-1.4-5-0.5-5.9,3c-1.7,6-3.7,11.9-5.5,17.8l-1.3-2.8c-3-1.8-2.1-4.4-1.4-6.8c1.7-6.2,3.5-12.3,2.6-18.9c0.5-1,1.2-1.8,2.1-2.3
		c1.7-0.7,3.5-0.9,5.2-0.5c1.3,0.4,2.5,1,3.6,1.7c0.9,0.2,2.4,3.2,2.6-0.4c0.3-4.3,0.1-8.6-0.8-12.8c0.1-0.6,0.4-1.2,0.7-1.7
		C244.3,251.9,245.2,251.5,246.2,251.5z"/>
	<path id="Path_41257" class="st3" d="M199.4,289.1c2,1.7,0.6,4.1,1.2,6.2c-7.6,1.9-15.5,1.9-23.1,0.1c0.4-2.1-0.6-4.4,1.2-6.2
		C185.6,288.4,192.5,288.4,199.4,289.1z"/>
	<path id="Path_41258" class="st0" d="M177.6,295.4c7.7,0.8,15.4,1.1,23-0.1C193,298.3,185.3,297.9,177.6,295.4z"/>
	<path id="Path_41259" class="st0" d="M199.4,289.1l-20.6,0.1C185.5,287.4,192.6,287.4,199.4,289.1z"/>
	<path id="Path_41260" class="st8" d="M219.8,252c0.8,2.1,2.3,3.8,4.2,4.9c3.3,1.2,3.7,3.8,3.2,6.7c-0.5,3.7,0.5,7.5-1.4,11
		c-1.8,1.3-3.3,3.1-5.9,2.9c-1.5,0.1-2.2-0.6-2.4-2.2c-0.9-6.1-1.9-12.2-2.9-18.3c-1-6.9-1.1-14-3.8-20.7c0.7-3.6-0.4-6.9-1.2-10.3
		c-0.1-1.2-0.1-2.5-0.2-3.7l1.4-2.7c1.7,3.3,3.2,6.9,6.6,8.9c1,0.8,1.5,2.2,1.1,3.5C216.1,239,219.1,245.4,219.8,252z"/>
	<path id="Path_41261" class="st9" d="M223.9,274c0.3-3.5-0.2-7.1,1.5-10.5c5.6-2.5,5.9,1.4,6.4,5.2c2.6,3.2,2.9,6.5,1.4,10.5
		c-1.8,4.9-2.9,10-4.3,15.1c-1.4,2.4-2.3,5.1-2.6,7.9c-3.6,3-5.3,1.8-5.4-2.5c-0.1-2.5,0.2-5.1,0.3-7.6l0.3-1.9
		C223,284.8,220.3,278.9,223.9,274z"/>
	<path id="Path_41262" class="st0" d="M223.9,274c0.7,5.6-1,10.8-2.4,16.1c-0.5-4.2-1-8.3-1.5-12.5
		C221.2,276.2,221.8,274.3,223.9,274z"/>
	<path id="Path_41263" class="st2" d="M262.7,289.5c0,2.1,0,4.2,0,6.2l-21.9,0.4c-2.4-4.5-1.7-7,4.1-6.8
		C250.8,289.5,256.7,289.5,262.7,289.5z"/>
	<path id="Path_41264" class="st0" d="M186.4,28.3c1.7-2,4-1.2,6-1.2c9.6-0.1,19.3,0.6,28.9-0.2c8.2-0.7,13.5,2.3,17,9.2
		c0.6,2.6,5.2,3.9,3.4,6.9c-1.7,2.9-5.5,1.6-8.4,1.7c-11.7,0.3-23.5-0.7-35.2,1.1c-6.8-1.4-8.7-7.3-11.2-12.5
		C186.4,31.6,185.7,30,186.4,28.3z"/>
	<path id="Path_41265" class="st0" d="M196.6,42.8l37.2-0.2c7.1,0,7.1,0,4.5-6.6c4.5,3.1,6,7.4,5.7,12.8c-0.3,6.9-0.2,13.7,0,20.6
		c0.1,4.2-1.1,6.3-5.8,6.2c-19.5-0.2-39.1-0.1-58.6,0c-3.3,0-5.3-0.9-5.2-4.7c0.2-9.4,0.3-18.9,0.4-28.3c4.1,0.1,2.9,3.3,3.3,5.6
		c1.2,6.7,0.9,13.7,4.4,19.9c2.2,2.1,5,2.4,7.8,2.4c12.7,0.1,25.4,0.2,38.1,0c8.4-0.1,10.5-2.7,10.4-11.9
		c-0.1-8.6-2.3-11.1-10.4-11.3c-8.4-0.2-16.8,0.2-25.2-0.2C200.4,46.8,196.9,47.2,196.6,42.8z"/>
	<path id="Path_41266" class="st0" d="M177.8,73.4c-2.8-2.1-1.7-5.1-1.9-7.8c-0.6-7.7,1.2-15.5-1.2-23c0.6-3.1,2.9-4.9,5-6.8
		c1.2,0.2,2.2,1,2.7,2.1c-2.1,9.7-1.7,19.5-1.9,29.3C180.6,69.5,179.6,71.8,177.8,73.4z"/>
	<path id="Path_41267" class="st0" d="M181.5,37.6l-1.7-1.8c2.1-2.6,3.7-5.6,6.6-7.5l2.5,3.1C186.4,33.5,187.5,39.8,181.5,37.6z"/>
	<path id="Path_41268" class="st0" d="M126.9,151.2c0.2,0.6-0.1,1.2-0.6,1.4c-0.1,0-0.1,0-0.2,0.1c-4.2,1-8.5,0.4-12.8,0.4
		c-24.9,0.1-49.8,0.1-74.8,0c-2.3,0-4.7,0.6-6.9-0.7l-0.1,0c-0.5-0.3-0.6-1-0.3-1.6c0,0,0.1-0.1,0.1-0.1c0.4-0.5,0.8-0.9,1.4-1.2
		c9.6-1.4,8.5-8.9,8.9-15.6c0.2-1.3,0.2-2.6,0.2-3.9c-0.5-5.3-0.7-10.5-0.6-15.8c0.1-1.8,0-3.7,0-5.5c0.6-5.3-1.3-10.9,2.6-15.7
		c0.7-0.4,1.5-0.5,2.2-0.3c3.8,3.3,2.6,7.8,2.9,12c0.2,2.3,0.2,4.7,0.2,7c0.9,6.6,0.9,13.4-0.1,20c-0.2,3.5-0.2,7.1,0.1,10.6
		c0.3,2.3,0.8,5,4.2,2.9c2.2-3.2,1.1-6.9,2-10.3c0.7-3,1.4-5.7,5-6.3c4.8-1.9,9.1,0,13.5,1.7c2.7,2,2.6,5.2,2.9,8.1
		c0.3,2.5,0,5.2,1.6,7.4c1.7,2,4.2,3,6.8,2.8c1.3,0,2.5,0,3.8-0.1c3-0.4,6.1-0.4,9.1,0.1c1,0,1.9,0,2.9,0c7.5-1.3,8.2-2,8.8-9.1
		c0.1-1.9,0.1-3.8,1-5.6c0.2-0.9,0.7-1.8,1.3-2.5c0.5-0.4,1.1-0.6,1.8-0.6c3.5,0.5,3.1,3.6,3.7,5.8c0.8,3,0.3,6.3,1.9,9.2
		c1.3,2.1,3.4,2.4,5.5,2.7C126,149,126.4,150.2,126.9,151.2z"/>
	<path id="Path_41269" class="st0" d="M126.9,151.2l-2.3-1.3c-5.3-3.9-2.7-9.5-3.1-14.4c0.2-1.1,0.4-2.2,0.5-3.2
		c-0.1-6-0.7-12,0-17.9c0-0.6,0.1-1.3,0.1-1.9c0-0.6-0.1-1.2-0.1-1.8c-0.6-2.9-0.6-5.9-1-8.9c-0.4-3.5-2.1-6.1-6.2-6
		c-0.7,0-1.3,0-2,0c-3.8,0.5-7.7,0.5-11.5-0.1c-1.1,0-2.1,0-3.2,0c-3.3,0.4-6.6,0.4-9.9,0.1c-1.5,0-3-0.1-4.5,0
		c-3.5,0.1-7.1,0.8-9.9-2.1c-0.4-0.7-0.4-1.5-0.1-2.2c3.7-2.9,8.2-0.9,12.2-1.8c4.1-1.4,8.2-2.4,12.5-1.3c0.6,0,1.3,0.1,1.9,0.1
		c3.2,0.1,6.3-0.3,8.6-2.8c2.2-3.4,1.4-7.4,2.2-11.1c0.5-2,0.1-4.3,2.7-5.2c4.8-1.6,8.1-4.3,8.3-9.9c0.1-2.8,1.1-5.5,2.9-7.6
		c0.5-0.4,1.2-0.4,1.7,0.1L126.9,151.2z"/>
	<path id="Path_41270" class="st0" d="M31.6,43.6c-2.8-5.7-1.4-11.7-1.1-17.6c0.2-4.1,4.2-2.8,6.7-2.8c26.4-0.1,52.8-0.1,79.2,0
		c3.5,0,7.3-1.5,10.4,1.4c-0.9,1.2-1.7,2.6-3.3,3c-3.4,1.6-7.1,1.3-10.7,1.3c-20.8,0.1-41.5,0-62.3,0c-11.8,0-12.3,0.4-15.9,11.4
		C34.3,42,33.1,43.2,31.6,43.6z"/>
	<path id="Path_41271" class="st0" d="M31.6,43.6l1.3-2.4c1.7-2,4.2-3.1,6.9-2.9c26.2-0.3,52.3-0.3,78.5,0c1.7,0,3.4,0.3,5,1.1
		c1.8,0.4,2.7,1.8,3.7,3.2c-1,2-2.9,1.5-4.5,1.5c-29.4,0-58.8,0-88.2,0C33.2,44,32.4,43.9,31.6,43.6z"/>
	<path id="Path_41272" class="st0" d="M126.9,51.8l-0.5,0l-0.5,0c-0.7,0.7-1.1,1.7-1.8,2.4c-2.3,1.9-4.9,1.7-7.6,1.3
		c-1.6-0.1-3.3-0.1-4.9,0.1c-3.3,0.6-6.8,0.6-10.1-0.2c-1-0.1-2.1-0.2-3.1-0.2c-5.3-0.3-8.6,1.6-9.4,7.3
		c-1.6,11.1-7.6,13.9-18.4,8.7c-0.8-0.9-1.4-2.2-1.4-3.4c-0.1-6.4-3.2-10.9-8.3-14.4c0.8-4.5,4.1-1.9,6.7-2.7
		c18.4-0.1,36.9-0.1,55.3-0.2C124.4,50.5,126.1,50,126.9,51.8z"/>
	<path id="Path_41273" class="st0" d="M31.8,151.5c0,0.3-0.1,0.7-0.2,1c-2.1-1.6-1.3-4-1.3-6c-0.1-29.9-0.1-59.7,0-89.6
		c0-2-0.7-4.4,1.3-6c3,5.6,3.6,11.7,3.1,17.9c-0.3,2.2-0.1,4.5,0.5,6.6c1,4.4,1.1,9,0,13.5c-0.4,1.9-0.4,3.9,0,5.8
		c-0.3,12.8-2.6,25.6-1.7,38.5c0.3,3.8,0,7.7,0,11.6C33.4,147.1,33.4,149.5,31.8,151.5z"/>
	<path id="Path_41274" class="st0" d="M31.8,70.2c-0.1-6.5-0.2-12.9-0.3-19.4l36.1-0.2l-6.4,2.3c2.2,5.6,3,11.1,0,16.7
		c-0.5,0.5-1.2,0.8-1.9,0.9c-5.4-2.3-3.7-8.2-6.1-12c-1.2-1.5-2.9-2.5-4.8-2.9c-0.5-0.1-1.1-0.1-1.6-0.2c-1.1-0.1-2.2-0.1-3.3,0
		c-0.6,0.1-1.1,0.1-1.7,0.2c-3.9,0.9-5.8,3.4-5.9,7.3c-0.1,2.6-0.3,5.2-2.4,7.1C33,70.2,32.4,70.3,31.8,70.2z"/>
	<path id="Path_41275" class="st0" d="M31.6,152.4c31.5-0.2,63-0.6,94.5,0.2c-1.4,0.3-2.9,0.6-4.4,0.7c-28.4,0-56.8,0-85.2,0
		C34.9,153.3,33.1,153.7,31.6,152.4z"/>
	<path id="Path_41276" class="st0" d="M126.9,42.6l-2.5-1.5c-3.8-5.3-3.9-9.5-0.1-14.9l2.6-1.6C127.4,30.6,127.4,36.7,126.9,42.6z"
		/>
	<path id="Path_41277" class="st0" d="M116.2,190.8c1.9,0.3,3.2,1.3,3.2,3.3c0.2,1.6-1.1,3.1-2.7,3.2c-0.2,0-0.3,0-0.5,0
		c-1.7,0.1-3.2-1.3-3.2-3c0-0.1,0-0.2,0-0.3C112.9,192.1,114.2,191.1,116.2,190.8z"/>
	<path id="Path_41278" class="st0" d="M131.8,194c-0.1,2-1.1,3.3-3.1,3.4c-2.1,0.1-3.1-1.2-3.2-3.2c0-2,0.9-3.4,3-3.4
		C130.6,190.7,131.6,192,131.8,194z"/>
	<path id="Path_41279" class="st0" d="M144.3,194c-0.3,2.2-1.3,3.5-3.4,3.4c-2-0.1-3-1.6-3-3.5c-0.1-1.6,1.2-3,2.8-3.1
		c0.2,0,0.3,0,0.5,0C143.4,190.9,144.2,192.4,144.3,194z"/>
	<path id="Path_41280" class="st0" d="M306.8,182.3h59.7l0,1h-59.8L306.8,182.3z"/>
	<path id="Path_41281" class="st0" d="M328.8,168.3c-2.5,2.9-4.3,7.3-9.4,2.9c-1.7-1.4-4.4-0.7-6.3,1.4c-1.1,1.3-2.2,3.1-4.8,3.1
		c0.6-4.6,4.9-6.4,6.6-9.9c0.7-1.3,4.1-1.3,4.9,0.6c2.5,6,4.9,2.1,7.3,0.2C328.5,166.3,329.1,166.8,328.8,168.3z"/>
	<path id="Path_41282" class="st0" d="M350.5,163.9c3.7-4.6,7.3-9.4,12.6-13.6c-1.7,7.1-11.1,16.9-15.4,16.7
		C346.8,164.5,349.8,165.2,350.5,163.9z"/>
	<path id="Path_41283" class="st0" d="M350.5,163.9l-2.9,3.2c-3-2.4-5.6-5.2-7.7-8.5c-0.5-0.8-1.1-2.1,0.1-2.8
		c1.1-0.6,1.8,0.1,2.6,1C345,159.5,346.5,163.1,350.5,163.9z"/>
	<path id="Path_41284" class="st0" d="M328.8,168.3l-1.6-1.7c2.8-3.3,5.2-7.1,10.5-9.7C335.7,162.6,332,165.2,328.8,168.3z"/>
	<path id="Path_41285" class="st2" d="M469.3,283c0.6,11.1,0.5,22.3,0.1,33.4c-2.3,0.1-2.8-1.4-2.8-3.3c0-8.9,0-17.9,0-26.8
		C466.5,284.4,466.8,282.8,469.3,283z"/>
	<path id="Path_41286" class="st0" d="M246.2,251.5c-0.4,0.5-0.9,1-1.3,1.6c-1.4,0.4-3.2,1.8-3-1.3c0.4-2.4,0.8-4.9,1.3-7.3
		c0.4-0.9,0.9-1.8,1.3-2.8C245.1,244.9,245.6,248.2,246.2,251.5z"/>
	<path id="Path_41287" class="st1" d="M236.9,267.4c-1.4,1.6-2.6,0.7-3.8-0.2c-6.4-4.6-1.1-7.9,1.2-11.6c2.8-3.5,3.7-0.1,5.1,1.5
		C241.4,261.2,240.7,264.7,236.9,267.4z"/>
	<path id="Path_41288" class="st0" d="M234.3,255.6c1,4-4.9,7.3-1.2,11.6l-1.3,1.5c-3.1-0.6-1.8-6.5-6.4-5.2l-1.4-6.5
		c1.4-1,2.8-0.4,4.2,0.1C230.5,257.6,232.4,256.3,234.3,255.6z"/>
	<path id="Path_41289" class="st0" d="M236.9,267.4c0.8-3.5,1.6-6.9,2.5-10.4c0.8-1.8,1.7-3.5,2.5-5.3l3,1.3c-0.1,0.5-0.2,1-0.3,1.5
		c-1.2,3.1-0.3,6.4-1.1,9.5c-0.7,2.9-1,6.2-5.2,6.2C237.9,269.3,237.4,268.4,236.9,267.4z"/>
	<path id="Path_41290" class="st0" d="M219.8,252c-5-7.4-2.7-15.5-2.3-23.4l2.5,0.1c0.8,0.8,0.9,2,0.2,2.9
		c-1.9,6.4-1.2,12.6,1.3,18.7L219.8,252z"/>
	<path id="Path_41291" class="st0" d="M220.2,231.6c-0.1-1-0.1-1.9-0.2-2.9c0.7-0.9,0.6-2.1-0.2-2.8c1.6-2.3,3.6-3,6.1-1.6
		c1.6,0.8,2.3,2.8,1.6,4.4C226.1,232.2,222.9,231.3,220.2,231.6z"/>
	<path id="Path_41292" class="st7" d="M238.4,270.3c3-4.9,2.5-11.1,6.2-15.7c1.7,6.8,2.2,13.8,5,20.9
		C244.8,274.8,240.5,274.9,238.4,270.3z"/>
	<path id="Path_41293" class="st3" d="M181.5,37.6c2.8-1.6,3.2-6.1,7.4-6.1c2.3,4,4.5,8,7.7,11.4c1.9,2.1,4.4,1.2,6.7,1.2
		c11.2,0.1,22.3,0.2,33.5,0c3.6-0.1,5,1.2,4.9,4.8c-0.2,6.2-0.3,12.5,0,18.7c0.2,4.5-1.4,5.9-5.9,5.9c-19.3-0.2-38.6,0-57.9,0
		c-1.8-9.3-0.6-18.8-0.7-28.1C177.1,41.9,180.3,40.3,181.5,37.6z"/>
	<path id="Path_41294" class="st0" d="M58.7,70.1c0.4-0.1,0.8-0.1,1.2-0.3c0.6,0.3,1,0.7,1.3,1.3c0.3,1.2,0.5,2.4,0.7,3.6
		c0.2,0.6,0.4,1.2,0.5,1.9c0.7,9.7,0.7,9.7,9.7,12.4c1.3,0.5,2.1,1.7,2,3c0,0.4,0,0.8,0,1.1c5,5.4,3,11.6,1.9,17.6
		c-0.2,0.8-0.5,1.5-1,2.2c-4.6,2.9-9.4,4.5-14.8,2.8c-2.1-0.6-4.2-1.4-5.6-3.3c-0.3-0.8-1-1.6-0.8-2.4c1.9-7.8-1.3-13.2-8-16.9
		L44,93.3c-3.2,3.7-6.8,3-10.6,1.2c-0.6-0.5-1.2-1-1.7-1.6l0.8-3.5c0.6-0.1,1.2-0.2,1.7-0.5c2.9-1.5,6.3-2,6.3-6.7s-3.5-5.2-6.3-6.7
		c-0.5-0.3-1.1-0.4-1.7-0.5c-0.2-1.6-0.5-3.1-0.7-4.7c0.3-0.1,0.6-0.2,0.9-0.4c0.3-0.1,0.6-0.2,0.9-0.3c3.3-2.6,7.1-2.2,10.9-1.7
		c0.6,0,1.3,0,1.9-0.1C50.9,66.4,54.9,67.8,58.7,70.1z"/>
	<path id="Path_41295" class="st0" d="M74.1,112.3l0.3-1.5c4.5-3.1,7.6-7.1,7.2-13c-0.1-2.1,1.4-3.4,2.8-4.7l4,0
		c1.6,1.5,3.1,3.2,2.9,5.5c-0.5,6.1,3.3,9.4,8,12c0.5,0.8,0.7,1.8,0.5,2.8c-0.4,1.4-1.5,1.8-2.7,2.5c-7.3,4.3-7.2,8.3,0.3,12.7
		c1,0.4,1.8,1.1,2.3,2.1c0.3,0.9,0.2,2-0.3,2.8c-5,2.8-8.7,6.5-8.2,12.8c0.1,2-1.3,3.5-2.7,4.8l-4.3,0c-4.2-2.7-1.9-8-4.5-11.9
		c-4.3,3.2-0.9,9.3-5.3,11.8c-3-6.3-2-12.6-0.4-19c-0.4-0.5-0.5-1.1-0.4-1.7c0.2-0.4,0.4-0.7,0.8-1c9-5.9,9-8.4,0-14.3
		c-0.3-0.3-0.6-0.6-0.8-1C73.5,113.4,73.7,112.8,74.1,112.3z"/>
	<path id="Path_41296" class="st0" d="M98.7,113.7l-0.2-2.8c0.2-0.3,0.5-0.6,0.7-0.9c1.3-0.9,2.8-1.1,4.3-1.6
		c4-0.6,7.9-0.7,11.4,1.8c0.5,0.6,0.9,1.4,1,2.2c-0.3,6.4,2,13.1-1.6,19.3l-1.7,0.2c-3.5,4.2-7.8,4.3-12.6,2.7
		c-0.6-0.3-1.2-0.7-1.6-1.3l0.4-2.8C94.5,125,94.5,119.3,98.7,113.7z"/>
	<path id="Path_41297" class="st10" d="M45.9,93.1c14,0.1,11.6-2.1,11.8,11.7c0,2.3,0.6,4.8-1.5,6.6c-2.7,3.8-5.7,3.9-9.2,1
		C44.4,106.1,46.1,99.6,45.9,93.1z"/>
	<path id="Path_41298" class="st8" d="M33,93.1l11,0.1c0.1,5.4,0.1,10.7,0.2,16.1c-1.7,4.9-5.7,3.8-9.1,3.2
		c-3.6-0.6-2.9-3.7-2.8-6.2C32.4,102,31.3,97.5,33,93.1z"/>
	<path id="Path_41299" class="st8" d="M57,151c-11.4,0.1-11.4,0.1-11.3-11.4c0-2.2-0.9-4.7,1.3-6.6c7.3-3.7,11.1-1.7,10.9,6.2
		C57.8,143.2,59.2,147.3,57,151z"/>
	<path id="Path_41300" class="st11" d="M44.2,134.8c-0.1,1.9-0.1,3.8-0.2,5.7c-0.1,12,1.1,10.6-11,10.6c-1.7-6-0.9-12.1-0.5-18.1
		C36.9,130.7,41.1,129.2,44.2,134.8z"/>
	<path id="Path_41301" class="st12" d="M112.8,134.5c0,1.9,0,3.8,0,5.7c0,11.2,0,11.2-11.2,10.7c-4.1-4.8-2.8-10.5-1.4-15.6
		C101.3,131.5,108,131.3,112.8,134.5z"/>
	<path id="Path_41302" class="st13" d="M43,113.8c2.2,5.3,0.4,10.9,1.2,16.3c-3.8,2.8-7.7,2.2-11.7,0.5c-0.8-3.3-0.3-6.7-0.3-10.1
		C32.1,111.8,34.2,110.6,43,113.8z"/>
	<path id="Path_41303" class="st3" d="M88.5,151c-0.3-1.9-0.6-3.7-0.7-5.6c-0.3-11.2-0.3-11.2,10.5-12l0,0c2.5,5.6,2.5,12,0,17.6
		L88.5,151z"/>
	<path id="Path_41304" class="st7" d="M74.5,150.9c-0.1-4.1,0-8.2-0.3-12.2c-0.3-4.1,1.7-5,5.4-5.1c3.9-0.1,5.5,1.4,5.2,5.3
		c-0.3,4-0.3,8.1-0.5,12.2L74.5,150.9z"/>
	<path id="Path_41305" class="st7" d="M124.5,134.4c0.1,5.1,0.1,10.3,0.2,15.4c-2.7,2.3-5.9,0.7-8.9,1.1c-1.9-5.1-1.2-10.5-0.7-15.6
		C115.6,130.6,120.3,130.3,124.5,134.4z"/>
	<path id="Path_41306" class="st0" d="M57,151c0.2-1.9,0.4-3.8,0.5-5.7c0.2-11.1,0.2-11.1-10.4-12.3c-2.2-6.9-2.6-13.8,0-20.7
		c3.1,0.4,6.3,0.6,9.2-1l3.5,1.9c0.7,0.3,1.3,0.8,1.8,1.4c2.2,4.6,2.2,10-0.1,14.6c-0.5,0.6-1.1,1.1-1.8,1.4
		c-2.3,4-0.1,8.3-0.8,12.5C58.4,145.9,59.5,148.9,57,151z"/>
	<path id="Path_41307" class="st0" d="M43,113.8c-10.2,0.1-10.2,0.1-10.2,10.3c0,2.2,0,4.3,0,6.5c0.8,0.9,0.9,2.2,0.2,3.2l0,17.4
		c-0.4,0.1-0.9,0.3-1.3,0.4c0-19.6,0-39.1,0-58.7l1.3,0.4c-0.1,3.2-0.2,6.3-0.2,9.5c0,9.1,2.6,10.7,11.4,6.7
		C44.3,110.9,43.9,112.5,43,113.8z"/>
	<path id="Path_41308" class="st0" d="M124.5,134.4c-8.6-1.7-9.3-1.3-9.2,7.1c0,3.1,0.4,6.3,0.6,9.4c-4.1-6.1-1.3-12.8-1.5-19.2
		c-0.3-6.4-0.6-12.8,0.2-19.2c3.3-3,6.7-2.7,10.1-0.2v0.1c0.5,0.7,0.7,1.7,0.4,2.6c-8.1,5.7-8.1,8.5-0.1,15.3
		c0.3,0.5,0.2,1.2-0.2,1.6C124.6,132.7,124.5,133.6,124.5,134.4z"/>
	<path id="Path_41309" class="st0" d="M59.8,114.6l-0.1-1.3c4.7-2.2,9.6-0.6,14.4-1c0.1,0.5,0.1,1.1,0.2,1.6c4,5.4,4,11.1-0.1,16.4
		c0,0.5-0.1,1-0.1,1.5c-4.8-0.4-9.8,1.2-14.5-1.1c0.2-0.2,0.4-0.4,0.7-0.5c0.9-1.2,2.2-2.1,3.5-2.7c2.6-1,4.3-2.7,4.2-5.7
		c-0.2-3-2.3-4.3-4.9-5.2C61.8,116.3,60.7,115.6,59.8,114.6z"/>
	<path id="Path_41310" class="st0" d="M98.4,151c0-5.9,0-11.7,0-17.6c4.6-1.7,9.4-1.6,14.1-1.4c0.1,0.8,0.2,1.6,0.3,2.5
		c-2.2-1.1-4.6-0.7-6.9-0.9c-3.2-0.1-4.7,1.3-4.5,4.5c0.2,4.2,0.2,8.5,0.2,12.7L98.4,151z"/>
	<path id="Path_41311" class="st0" d="M33,133.6l-0.2-3.2c3.8,0.7,7.6,0.9,11.4-0.4l0,4.7C40.7,132.6,36.8,133.8,33,133.6z"/>
	<path id="Path_41312" class="st11" d="M114.1,110.9l-11.6,0.3c-4.1-4.3-4.5-12-1-17.9l12.5-0.1C117.3,98.6,117.3,105.4,114.1,110.9
		z"/>
	<path id="Path_41313" class="st14" d="M112.8,90.2c-3.9-1.1-7.6,3.7-11.5,0.3c-3.2-5.7-2.5-11.5-0.5-17.4c2.2-2,4.9-1.3,7.4-1.3
		c3.5-0.1,6,1.5,5.5,5.8C113,81.7,114.4,86.1,112.8,90.2z"/>
	<path id="Path_41314" class="st3" d="M98.5,110.9c-10.8-0.4-10.8-0.4-10.7-11.5c0-2.1,0.4-4.3,0.6-6.4l10.1,0.1
		C100.8,98.9,100.8,105.2,98.5,110.9L98.5,110.9z"/>
	<path id="Path_41315" class="st10" d="M84.4,93.1c0.1,2.3,0.4,4.7,0.3,7c0,12.8,0.9,10.4-10.3,10.7c-0.9-5.9-0.5-11.8-0.2-17.7
		L84.4,93.1z"/>
	<path id="Path_41316" class="st12" d="M115.5,93.1c10.8,0,9-1.2,9.1,8.9c0,3-0.2,5.9-0.3,8.9c-9.1,2.1-9.6,1.8-9.5-7
		C114.9,100.3,114.1,96.6,115.5,93.1z"/>
	<path id="Path_41317" class="st0" d="M112.8,90.2c0-3.2-0.4-6.4,0.1-9.5c0.8-6.2-1.7-8.6-7.7-7.5c-1.2,0.2-2.5,0.4-3.7,0.6
		c-0.8,0.8-1.8,1.4-2.9,1.8c-3.6,1.4-7.6,1.4-11.1-0.1c-1-0.4-1.7-1.2-2-2.2c1.2-2.6,2.8-4.7,5.9-5c4.3-0.5,5.6-3.2,5.6-7.1
		c0-3.4-0.1-6.9,3.1-9.2l1.5,1.5c1.3,1.1,2.7,2.3,2.7,4.1c-0.3,6.6,3.9,9.3,9.3,11c0.8,0.6,1.2,1.7,0.8,2.6
		C113.2,77.4,116,84,112.8,90.2z"/>
	<path id="Path_41318" class="st0" d="M114.2,71.1l-1.4-1.3c-3.9-5.4-4-10.8-0.2-16.3c0.7-0.9,2-1,2.9-0.4c3.4,2.1,2.6,6.1,4.2,9.8
		c2.7-3.1,0.9-7.8,4.7-9.6l1.6-1.5c0,2.8-0.1,5.5-0.1,8.3C125.9,71.6,125.9,71.6,114.2,71.1z"/>
	<path id="Path_41319" class="st0" d="M85.7,72.4l1.7,1.4c1.1,1.2,2.6,2.4,2.5,4.2c-0.2,6.5,3.8,9.3,9.2,11c0.5,0.4,0.8,0.9,1.1,1.5
		c-4.2,2.5-8.8,1.1-13.2,1.1c-1-0.8-2.5-0.4-3.5-1.3c-0.7-0.6-1.1-1.3-1.3-2.2c-0.1-6.5-3.5-11.1-8.5-14.7c-0.1-0.7,0.4-1.4,1.1-1.6
		C78.4,72,82.1,71,85.7,72.4z"/>
	<path id="Path_41320" class="st0" d="M74.1,72.4l0,1.4c1.2,1.2,2.8,2.3,2.7,4.2c-0.2,5.9,3.6,9.3,7.6,12.6l2.5,1.2
		c-4.3,0.1-8.6,0.2-12.9,0.3l-2.3-1.2c-0.7-0.3-1.3-0.8-1.8-1.4c-2.5-5.2-2.1-10.4,0.1-15.6C70.9,72.4,72.6,71.8,74.1,72.4z"/>
	<path id="Path_41321" class="st0" d="M98.5,110.9c0-5.9,0-11.8,0-17.8l3,0.1c0.3,6-1.2,12,1,17.9L98.5,110.9z"/>
	<path id="Path_41322" class="st0" d="M100.2,90.6l-1.6-0.2c-4.1-5.6-4.1-11.3,0-16.8l2.6,0.1c0,5.6-0.1,11.2-0.1,16.7
		C100.9,90.5,100.6,90.6,100.2,90.6z"/>
	<path id="Path_41323" class="st0" d="M115.5,93.1c-0.2,2.9-0.5,5.9-0.5,8.8c-0.1,9.2,0,9.2,9.4,9c0.1,0.5,0.1,1,0.2,1.4
		c-3.4,0.1-6.8,0.2-10.2,0.2c-0.1-0.6-0.2-1.1-0.3-1.7c0.8-5.9,0.8-11.9-0.1-17.7L115.5,93.1z"/>
	<path id="Path_41324" class="st0" d="M124.5,115.1c0-0.9,0.1-1.8,0.1-2.7c2,6.3,2,13.1,0,19.5c-0.1-0.5-0.1-1-0.2-1.5
		C120.5,125,120.5,120.2,124.5,115.1z"/>
	<path id="Path_41325" class="st6" d="M124.3,26.2c0.6,5,0.6,9.9,0.1,14.9l-91.5,0.1c-0.7-15-0.7-15,14.3-15
		C72.9,26.3,98.6,26.3,124.3,26.2z"/>
	<path id="Path_41326" class="st0" d="M74.1,72.4l-2.7,1.4c-3.2,3.7-6.9,3.1-10.8,1.5c-0.7-0.4-1.3-0.9-1.9-1.5l1.4-3
		c3.4-3,6.9-5.8,11.2-1.2c1.6,0.7,3.2,1.2,4.8,1.6c8.1,1.3,9.9-0.3,10-8.5c0-0.9,0-1.7,0-2.6c0.1-8.4,0.1-8.4,8.8-8.4
		c1.7,0,3.4,0.1,5.1,0.1c0,5.3-0.1,10.7,0.1,16c0.1,2.7-0.5,4-3.5,3.5c-3.6-0.5-7.3-0.1-10.8,1.1L74.1,72.4z"/>
	<path id="Path_41327" class="st12" d="M71.2,69.6c-3.8-0.4-7.3,2.3-11.2,1.2c0.1-0.3,0-0.7-0.2-1c1.4-5.6-0.7-11.4,1.3-16.9
		c1.7,0.1,3.4,0.2,5.1,0.2c3.7-0.3,5,1.5,4.9,5C71.1,61.9,71.2,65.7,71.2,69.6z"/>
	<path id="Path_41328" class="st15" d="M112.6,53.5l0.2,16.3c-1,0.3-2.1,0.5-3.1,0.6c-8.3,0.5-8.5,0.3-8.5-8.1c0-3,0.2-5.9,0.3-8.9
		L112.6,53.5z"/>
	<path id="Path_41329" class="st10" d="M84.8,62.1c-1.1,2.5,2.6,7.8-4.3,8.1c-4.6,0.2-7-1-6.3-6c0.2-1.7,0.2-3.4,0-5.1
		c-0.4-4.3,1-6.1,5.7-6.1c4.7,0,5.2,2.5,5,6.1C84.8,60,84.8,60.8,84.8,62.1z"/>
	<path id="Path_41330" class="st12" d="M124.4,53.3c0.1,4,0,8.1,0.2,12.1c0.2,3.4-0.8,5.1-4.6,5c-3.3-0.1-5.3-0.9-5.1-4.6
		c0.2-4.2-0.5-8.5,0.6-12.7L124.4,53.3z"/>
	<path id="Path_41331" class="st13" d="M32.5,74.9l0.3-1.3c11-1.7,11-1.7,11,9.1c-0.1,0.8-0.1,1.7,0,2.5c0.8,4.9-1.4,6.6-6,5.9
		c-1.6-0.3-3.4,0.4-4.9-0.7c0-0.4-0.1-0.8-0.3-1.1C32.5,84.5,32.5,79.7,32.5,74.9z"/>
	<path id="Path_41332" class="st15" d="M47.2,53.2l9.6-0.1c2.4,5.1,1.1,10.4,0.9,15.6c-0.1,2.7-3,1.7-4.8,1.7
		c-2.6,0-6.4,1.2-7.1-2.5C44.9,63,43.4,57.7,47.2,53.2z"/>
	<path id="Path_41333" class="st8" d="M32.7,69.8c0-2.1,0.1-4.3,0.1-6.4c0-10.1,0-10.1,10.1-10.3c3.6,4.4,2,9.4,1.6,14.2
		c-0.2,2.1-1.8,3.4-4.1,3.1C37.9,70.2,35.2,71,32.7,69.8L32.7,69.8z"/>
	<path id="Path_41334" class="st0" d="M47.2,53.2c-0.2,3.6-0.2,7.2-0.5,10.9c-0.3,3.9,0.4,6.4,5.4,6.3s5.6-2.5,5.4-6.4
		c-0.2-3.6,0.4-7.3-0.6-10.8c3.5,5.3,1.1,11.3,1.9,17c-4.2,1.9-9.1,1.9-13.3-0.1c-1.1-5.8-2.7-11.6,1-17.1
		C46.7,52.9,47,53,47.2,53.2z"/>
	<path id="Path_41335" class="st0" d="M32.8,69.9c11,0.8,11.1,0.8,10.9-9.9c0-2.3-0.5-4.6-0.7-6.9l1.5-0.1
		c1.2,5.6,0.5,11.3,0.3,16.9C40.8,71.9,36.8,72.5,32.8,69.9z"/>
	<path id="Path_41336" class="st0" d="M44.8,69.9c-0.1-5.6-0.2-11.3-0.3-16.9c0.4-0.6,1.2-0.8,1.8-0.4c0.1,0,0.1,0.1,0.2,0.1
		c-1.7,5.6-0.5,11.4-1,17.1L44.8,69.9z"/>
	<path id="Path_41337" class="st0" d="M232.7,56.6c1.2,5.4-0.8,7.1-6,7c-5-0.1-6.1-2-6.2-6.5c-0.1-5.1,1.8-6.7,6.8-6.6
		C232.2,50.5,234.3,52,232.7,56.6z"/>
	<path id="Path_41338" class="st0" d="M196.8,51.7c8.4-2.6,11.2-1.6,11.6,3.8c0.6,8.2-2.5,9.9-11.8,6.6c0.3-1.1,1-2.1,1.9-2.8
		c2.6-1.6,2.5-3.1,0-4.7C197.7,53.8,197.1,52.8,196.8,51.7z"/>
	<path id="Path_41339" class="st0" d="M196.8,51.7l2.7,1.4c2.2,2.6,1,5.1-0.1,7.7l-2.8,1.4C195.5,58.8,195.6,55.1,196.8,51.7z"/>
	<path id="Path_41340" class="st0" d="M32.8,90.4c0.2,0.1,0.4,0.1,0.6,0.1c3.3-0.1,7.8,1.8,9.5-1.4c2-4.3,2-9.3,0.2-13.7
		c-1.8-4.1-6.7-1.6-10.3-1.7c3.8-2.3,8.8-3.2,10.8,0.4c2.6,5,2.6,11,0,16C41.6,93.6,36.6,92.7,32.8,90.4z"/>
	<path id="Path_41341" class="st0" d="M58.7,73.8l1.5,0c0.8,0.9,2.3,1.8,2.2,3c-0.2,6.6,3.9,10.2,8.8,13.3l0.7,0.7
		c-11,3.1-13.1,1.5-13.2-9.4C58.7,78.9,58.7,76.3,58.7,73.8z"/>
	<path id="Path_41342" class="st2" d="M98.7,113.7c0,5.6,0,11.3,0,16.9c-0.2,0-0.4,0.1-0.6,0.1c-3.3-0.2-7.9,1.8-9.5-1.5
		c-2-3.9-1.8-9.2-0.2-13.2C90.1,111.3,95.1,114.3,98.7,113.7z"/>
	<path id="Path_41343" class="st16" d="M74.2,130.4l0.1-16.4c3.4-0.1,8.1-2.4,9.8,1.4c1.9,4.4,1.9,9.3,0,13.7
		C82.4,132.7,77.6,130.5,74.2,130.4z"/>
	<path id="Path_41344" class="st14" d="M59.8,114.6c3.6-1.6,8.4-3,10.4,0.3c2.5,4,2.1,9.9,0.3,14.1c-1.7,3.9-6.7,1.7-10.3,1.2
		C60.1,125,60,119.8,59.8,114.6z"/>
	<path id="Path_41345" class="st17" d="M57.5,123c-0.8,2.8,2.2,7.8-4.6,8.1c-4.7,0.2-7-1.1-6.3-6.1c0.2-1.7,0.2-3.4,0-5.1
		c-0.1-3.7-0.2-6.7,5.1-6.7c5.3,0,6.1,2.7,5.7,6.9C57.5,120.9,57.5,121.7,57.5,123z"/>
	<path id="Path_41346" class="st1" d="M124.5,115.1l0,15.3c-3,0.1-7.3,2.1-8.6-1.5c-1.6-4.3-1.8-9.7,0.2-13.7
		C117.6,112,121.6,113.4,124.5,115.1z"/>
	<path id="Path_41347" class="st10" d="M98.7,73.7l0,16.8c-1.3,0-2.6,0-3.9,0.2c-5.6,0.9-7.9-1.4-7.3-7.1c0.3-3.2-0.1-6.4-0.1-9.6
		C91.1,72.9,95,72.8,98.7,73.7z"/>
	<path id="Path_41348" class="st17" d="M84.6,90.5c-2.1,0.1-4.2,0.1-6.3,0.2c-3,0.1-4.2-1.4-4.1-4.2c0.1-4.2,0-8.4,0-12.7
		c1.9-0.2,3.8-0.3,5.7-0.5c3.9-0.4,5.3,1.4,5,5.2C84.6,82.5,84.6,86.5,84.6,90.5z"/>
	<path id="Path_41349" class="st14" d="M71.2,90.1c-1.7,0.2-3.4,0.3-5.1,0.5c-4,0.5-6-1-5.8-5.3c0.2-3.8-0.1-7.7-0.2-11.5
		c3.6-1.1,7.6-1.1,11.2-0.1L71.2,90.1z"/>
	<path id="Path_41350" class="st3" d="M230.6,56.8c0.2,2.6-1,3.9-3.7,3.8c-2.4,0-3.4-1.1-3.5-3.4c-0.1-2.6,1-3.9,3.7-3.9
		C229.5,53.4,230.7,54.5,230.6,56.8z"/>
	<path id="Path_41351" class="st3" d="M199.4,60.8c-1.3-2.4-1.3-5.3,0.1-7.7c2.7,0.5,6.5-0.6,6.2,4.3
		C205.4,62,201.8,60.2,199.4,60.8z"/>
</g>
</svg>
