<?xml version="1.0" encoding="utf-8"?>
<!-- Generator: Adobe Illustrator 24.2.1, SVG Export Plug-In . SVG Version: 6.00 Build 0)  -->
<svg version="1.1" id="Layer_1" xmlns="http://www.w3.org/2000/svg" xmlns:xlink="http://www.w3.org/1999/xlink" x="0px" y="0px"
	 viewBox="0 0 713.1 534.5" style="enable-background:new 0 0 713.1 534.5;" xml:space="preserve">
<style type="text/css">
	.st0{fill:#5ED58C;}
	.st1{fill:#060D43;}
	.st2{fill:#FEFEFE;}
	.st3{fill:#F2F2F2;}
	.st4{fill:#464646;}
</style>
<path id="Path_40712" class="st0" d="M43.2,230.3c0-25.3,0-50.6,0-76c0-5.8,0.1-5.9,5.6-3.6c22.6,9.4,45.2,18.8,67.7,28.2
	c10.6,4.4,21.1,8.8,31.7,13.1c2.8,1.1,3.6,2,1.2,4.6c-16.3,17.5-32.4,35.1-48.6,52.7c-16.7,18.2-33.4,36.5-50.1,54.8
	c-1.5,1.7-3.1,3.3-4.7,4.9c-0.6,0.7-1.1,2-2.3,1.5c-1.1-0.5-0.7-1.7-0.7-2.7c0-11.7,0-23.5,0-35.2C43.2,258.6,43.2,244.5,43.2,230.3
	L43.2,230.3z"/>
<path id="Path_40713" class="st0" d="M680.4,37.3c9.5,0.1,19,0.3,28.4,0.2c3.1,0,4.2,0.9,4.2,4.1c-0.2,12.4-0.1,24.8,0,37.2
	c0,14.8,0.1,29.6,0.1,44.5c0,15.4-0.2,30.8-0.2,46.2c0,20,0.2,40.1,0.2,60.1c0,9-0.1,18.1,0,27.1c0,3.2-1.9,2.8-3.9,2.8
	c-7.9-0.1-15.8-0.1-23.7-0.2c-1.7,0-3.4-0.2-5,0.8c-2-1.2-1.4-3.2-1.4-5c-0.1-14.3,0-28.5,0-42.8c0-56.2,0-112.5,0-168.7
	C679,41.5,678.1,39,680.4,37.3z"/>
<path id="Path_40714" class="st1" d="M680.4,37.3c0,32.1-0.1,64.2-0.1,96.3c0,39.8,0,79.5,0,119.3c0,2.4,0.1,4.8,0.1,7.2
	c0,51.9,0,103.8,0,155.7c0,37.2,0,74.4-0.1,111.6c0,3.9,1.3,4.9,4.8,4.8c3.8-0.1,7.6,0,11.4,0c1.1,0,2.7-0.5,2.7,1
	c0.1,1.7-1.7,1.1-2.7,1.1c-8.5,0.1-17,0.2-25.5,0.2c-57.9,0-115.7,0-173.6-0.1c-11,0-22.1-0.1-33.1-0.2c-0.2-0.2-0.3-0.5-0.3-0.7
	c0-0.3,0.1-0.4,0.1-0.4c0.5-0.7,1.4-1.1,2.2-0.9c6.5,0.2,13.1-0.6,19.6,0.5c0-0.1,0-0.2,0-0.2c0-0.2,0-0.3-0.1-0.5
	c3.6-3.3,4.5-7.7,5.1-12.3c0.2-1.7,0.4-3.8,3.1-3.5c1.4,1.1,1.8,2.8,2.7,4.3c0.1,1,0.1,2,0.1,3c0.3,4.5,1.7,5.7,6.3,5.1
	c21.2-2.7,42.3-5.8,63.4-8.6c29.3-3.8,58.5-8.4,87.8-11.7c4.1-0.5,8.1-1.4,12.2-1.8c1.9-0.1,3.6-0.9,5-2.2c1.3-0.6,2.2-1.7,3.7-1.9
	c1,0.3,1.8,1.2,1.7,2.3c-2-7.4-1-14.7-1-21.9c-0.1-12-0.2-24,0-36c0.2-9.7-0.5-19.4-0.2-29.2c0.3-8.4,1-16.9,0.1-25.4
	c-0.3-4.1-0.3-8.2,0-12.2c0.4-12.4-0.4-24.8-0.2-37.2c0.3-16.1,0.7-32.1-0.3-48.2c-0.7-6.3,2.4-12.4,1.4-18.5
	c-1.7-10.2-0.4-20.3-1-30.4c-0.2-3.7,0.3-7.3,0.3-11c-0.1-25.5,0.1-50.9-0.1-76.4c-0.1-18.1,0.3-36.2,0-54.3
	c-0.4-22,0.4-44.1-0.2-66.1c-0.1-4.5,0.2-9,0.9-13.5c1.1-6.5-0.9-12.9-1.7-19.3c-0.8-2.6-2.8-3.1-5.2-2.8c-1.6,0.2-3.2,0.6-4.9,0.7
	c-5.7,0-11.3,0.1-17-0.1c-5.9-1-11.9-1-17.8,0.1c-13.8,0-27.6,0.1-41.4,0c-1.3-0.3-2.6-0.6-3.2-2.1c0.7-1.2,2-0.9,3.1-0.9
	c29.1,0,58.2,0,87.4-0.1c3.3,0,4.1,1.2,4.1,4.3C680.2,15.3,680.4,26.3,680.4,37.3z"/>
<path id="Path_40715" class="st1" d="M75.6,532.5c0.1-0.1,0.3-0.1,0.4,0c0,0,0,0,0,0c2.4-2.1,5-3.6,8.3-3.5c1.2,1,2.9,1.1,4.2,1.9
	c0.8,0.6,1.8,0.9,2.7,1.1c8.4,0.3,16.9,0.3,25.3-0.1c1.4-0.1,2.7-0.9,3.5-2c-1.8-4.4-5.6-6.9-8.9-9.8c-3.3-2.8-6.4-5.9-9.2-9.1
	c-0.3-0.5-0.8-0.8-1.4-0.9c-5.4-3.9-9.5-9.2-14.7-13.3c-3.8-3.1-3.9-5.9,0.1-10c5.2-5.4,9.9-11.2,15.3-16.3
	c3.6-3.4,6.7-7.2,10.7-10.2c1.3-0.4,2.7-0.4,3.9,0.2c8.1,6.7,14.4,15.4,22.4,22.3c1.5,1.3,2.8,2.8,2.1,5.1c-0.3,0.6-0.7,1.1-1.1,1.6
	c-1.1,7.3-1.4,14.6,0.5,21.7c0.8,2.9,4.6,3.5,7.3,4.7c4.5,1.9,9.2,3.9,11.3,8.4c2.6,5.3,6.5,5.7,11.7,5.8
	c15.1,0.1,30.2-0.9,45.2,0.5c2.3,0.2,4.5,0.1,6.8,0c10.7,2.6,21.6,1.4,32.4,1.9c0.6,0,1.1,0.2,1.6,0.6c0.4,0.3,0.5,0.9,0.3,1.4
	c-18.9,0.1-37.8,0.2-56.8,0.2c-32.1,0-64.1,0-96.2,0c-9.3,0-18.6-0.1-27.9-0.1c-0.3-0.2-0.5-0.5-0.5-0.9
	C75.1,533,75.3,532.7,75.6,532.5z"/>
<path id="Path_40716" class="st1" d="M101,509.6c0.4-0.3,0.9-1,1.2-0.9c0.9,0.2,0.4,1.1,0.5,1.7c1.3,1.6,0.5,2.9-0.7,4.1
	c-4.5,4.3-8.1,9.4-12.7,13.6c-1.4,1.3-2.7,2.9-5,2.1c-2.5,1.8-4.9,3.6-8.3,2.3c-5.3-6.9-12.2-12.1-18.4-18
	C42.9,500.6,28,486.9,13,473.4c-2.4-2.2-1.8-3.5,0.1-5.5c15-16.2,30-32.3,44.9-48.6c19-20.6,38-41.1,57-61.7
	c20.8-22.5,41.7-45,62.5-67.5c23.4-25.3,46.8-50.7,70.2-76c2.7-2.9,3.2-6.9,4.6-10.4c13.7-33.4,34.2-62,60.5-86.5
	c28.3-26.4,61.4-47.1,97.5-61.1c4.1-1.6,8.3-2.8,11.6-5.9c1.2-0.4,1.6,0.3,2,1.2c0.5,2.1-0.7,3.4-2.4,4.4c-1.8,1-2.8,2.9-2.7,4.9
	c0,2.2-0.5,4.1-2.5,5.4c-2,0.8-3.4,0-3.9-2c-0.9-3.4-3.2-3.1-5.6-2.1c-8.1,3.4-16.1,6.9-23.9,11c-18.4,9.6-35.9,21-52.1,34
	c-25,20.2-45.9,43.8-61.8,71.9c-7.2,12.8-13.2,26.3-18.1,40.1c-0.5,1.3-0.6,2.8-2.1,3.6c-1.2,0.3-2.4,0.4-3.6,0.4
	c-2.8,0.4-3,3.2-4.5,4.8c-7,7.2-13.6,14.8-20.4,22.1c-17.1,18.3-33.9,36.8-50.9,55.1c-8.2,8.8-16.3,17.6-24.5,26.4
	c-12.5,13.5-25,27-37.4,40.5c-7.6,8.3-15.4,16.6-23.1,24.9c-16.7,18-33.4,36.1-50.1,54.2c-4.7,5.1-9.6,10-14.2,15.2
	c-3.2,3.7-3.5,4.9,0,8.1c6.7,6.3,13.5,12.5,20.2,18.8c9.5,8.9,19.3,17.4,28.7,26.4c2.4,2.4,5.1,4.5,7.7,6.7c2.1,1.8,4.1,1.8,5.9-0.4
	c3.9-4.9,8.8-8.8,12.7-13.7C96.7,510.5,98,508,101,509.6z"/>
<path id="Path_40717" class="st1" d="M585.9,1l2.6,0.6c0.2,0.8,0.4,1.6,0.7,2.3c0.5,1.8,0.7,3.6,0.6,5.5c0,24.4,0,48.9,0,73.3
	c0.1,1.7-0.1,3.4-0.4,5.1c-0.4,1.4-1.5,1.9-2.7,2.3c-1.2,0.5-2.1,1.3-2.8,2.3c-10.4,18.5-21.9,36.3-33,54.3
	c-14.7,24-29.4,47.9-44.1,71.9c-2.4,3.9-3.5,8.3-4.8,12.6c-0.7,2.1-1.1,4.7-4.4,4c-1.1-0.6-1.9-1.6-2.2-2.8
	c0.4-3.8,1.7-7.4,2.7-11.1c4.3-16.2,8.8-32.4,10.4-49.2c0.2-1.8,0.8-3.3,3-3.5c3,0.9,3.4,3.4,3.4,6c-1.5,10.2-2.6,20.4-5.5,28
	c4.8-9.2,11.8-19.8,18.5-30.6c12.5-20.4,25-40.8,37.5-61.1c4.4-7.1,8.7-14.3,13.1-21.3c2.8-4.4,2.4-5.8-2.1-8.5
	c-21.1-12.9-42.2-25.9-63.3-38.8c-4.1-2.5-5.4-2.2-7.8,1.8c-14.3,23.1-28.4,46.3-42.8,69.3c-3.7,5.9-6.9,12-10.7,17.8
	c-0.5,0.8-1.4,1.8-0.8,2.7c0.7,1.3,2,0.3,3.1,0.3c1.7,0,3.3-0.9,5-0.2c1.1,0.6,1.8,1.6,2,2.8c-0.1,1.9-1.4,2.6-3,3
	c-8.7,2.3-17.3,4.8-26,7.1c-1.3,0.5-2.8,0.4-4.1-0.3c-1.1-0.4-1.7-1.7-1.2-2.8c0,0,0,0,0,0c1.7-2.8,4.5-3.7,7.5-4.2
	c3.5-0.6,6.6-2.7,8.3-5.9c2.8-4.9,6.1-9.5,9.1-14.3c1.9-3,1.8-5.3-1.1-7.7c-4.6-3.9-9-8.1-13.8-11.9c-3.8-2.9-7.1-6.3-9.8-10.3
	c-0.3-1.6,0-2.7,2-1.8c8.6,7.3,17.3,14.5,25.8,22c2.5,2.2,3.8,2.4,5.6-0.7c12.6-20.6,25.3-41.2,38-61.8c2.2-3.6,4.5-7.2,6.6-10.9
	c1.4-2.4,2.8-2.7,5.2-1.2c18,11.2,36.1,22.3,54.1,33.4c4.3,2.7,4.9,2.6,7.3-2c3.4-6.9,5.3-14.3,7.3-21.7c2-7.2,3.9-14.4,6.2-21.6
	c1.8-5.3,0.3-11.2,0.6-16.8C585.6,4.6,585.1,2.7,585.9,1z"/>
<path id="Path_40718" class="st1" d="M428.8,87.6c-0.6,0.1-1,0.8-0.9,1.4c0,0.1,0,0.1,0.1,0.2c0.9,3.5,1.4,7.1,1.3,10.7
	c-0.1,11.6,0,23.2,0,34.8c0.2,3.1-0.3,6.1-1.3,9c0.1,0.6,0.2,1.2,0.3,1.8c0.3,2.9-2.1,3-3.9,3.6c-5,1.6-9.9,3.2-14.9,4.6
	c-3.8,0.8-6.8,3.7-7.7,7.5c-0.8,2.7-1.8,5.3-2.9,7.9c-0.7,1.7-1.6,3-3.7,2.5c-3.5-2-2.4-5-1.8-8c2.4-2,3.1-4.9,3.8-7.7
	c3.4-13.9,8.5-27.4,11.4-41.5c2.8-14.2,5-28.4,4.8-42.9c0-2.2-0.6-4.7,2-6.1c1.2-1.9,0.8-4.1,1-6.2c2.3-0.3,2.7,1.3,2.7,2.9
	c0,4.9,1.5,9.7,0.9,15c0.8-0.7,1.7-1.4,2.4-2.2c1.8-0.5,3.3-2.1,5.4-0.9C426.7,78.7,425.6,83.3,428.8,87.6z"/>
<path id="Path_40719" class="st1" d="M422.9,51.9c-0.3-0.6-0.6-1.2-1-1.8c2.3-5.3-0.7-9.9-2.3-14.6c-1.7-4.8-2.1-10-1.2-15
	c0.7-4.2,3.2-8,6.8-10.2c14.7-9.8,36.8-0.5,40.1,17c-0.6,2.4-1.9,3.5-4.5,2.7c-2-0.6-4.1-0.7-5.7,1.3c-3.2,0.9-5.6,3.4-6.6,6.6
	c-0.5,1.9-1.5,3.7-2.9,5.1c-1.6,1.3-3.5,2-5.5,0.9c-1.8-1.1-1.7-2.8-0.9-4.4c0.4-0.7,0.4-1.5,0.2-2.2c0.2,3.1-1,6.2-3.2,8.5
	c-2.7,2.6-5.8,4.9-9.1,6.7C425.8,53.2,424.1,54.1,422.9,51.9z"/>
<path id="Path_40720" class="st1" d="M256.5,534.2c0-0.3,0-0.5,0-0.8c-0.3-0.5-0.3-1.1,0.1-1.5c1-1,2.3-1.5,3.7-1.6
	c9.4,2.7,19,1.9,28.6,1.4c1.8-0.1,3.1-1.4,4.8-1.5c2.3,0,4.6,0.8,6.9,0.4c2.2-0.6,4.1-1.9,6.3-2.3c2.5-0.6,3.6-2.7,4.7-4.6
	c10.4-17.6,21.5-34.7,31.9-52.3c1.2-2.1,2.6-4,4-5.9c1-1.3,2-2.4,3.9-1.8c2.5,1.5,1.6,3.5,0.7,5.4c-10.3,18.5-22.1,36.1-32.8,54.4
	c-1.1,1.9-3.3,3.7-2.3,6.4c1.8,2.3,3.8,0.8,5.7,0.4c0.5-0.2,0.9-0.2,1.4-0.2c7.8,2.6,15.8,2.4,23.7,0.9c2.2-0.4,4.5-0.7,6.7-0.7
	c0.5,0,1,0,1.5-0.1c0.8-0.2,1.7-0.2,2.5-0.2c6.1,1.4,12.2,0.9,18.3,0.2c2.9,0,5.8,0,8.8,0c3.5,0.1,7,1.1,10.4,0.1
	c0.6-0.3,1.1-0.5,1.7-0.9c0.9-0.2,1.7-0.2,2.6-0.3c1.2-0.2,2.3,0.4,2.9,1.4c0.6,2.2-1.3,2.5-2.4,3.5c-31.5,0-62.9-0.1-94.4-0.1
	c-15.2,0-30.5,0.1-45.7,0.1C259.3,534.4,257.9,534.3,256.5,534.2z"/>
<path id="Path_40721" class="st1" d="M454.3,29.8c-0.7-0.7-1.9-1.5,0.2-1.6c2.2-0.1,4.4,0,6.6,0.2c1.5,0.3,3.1-0.1,4.2-1.2
	c3.2,10.2,1.3,20.7,1.7,31c0,0.5-0.1,1.5-0.3,1.6c-5.1,1-4.8,6-6.6,9.3c-3.4,6-6.3,7.2-12.8,4.9c-3.8-1.4-7.4-3.5-10.5-6.3
	c-2.3-2-3.8-1.6-5.3,0.8c-1.2,1.9-2.7,3.6-4.1,5.4c-1.4,0.6-1.8,2.9-3.9,2.3c-1.6-1.2-0.9-2.4-0.1-3.7c0.9-1.6,2-3.1,3-4.6
	c1.9-2.5,2.6-5,0.8-7.8c-0.2-0.5-0.4-1-0.6-1.6c-0.7-1.9-0.7-3.7,1.4-4.7s3.5,0.1,4.4,2c2.2,4.8,6,8.1,10.3,10.9
	c8.7,5.7,11.6,4.8,15.3-4.8c2-5.4,3.4-11.1,4.1-16.8c-0.1-4,1.4-8.1-0.9-11.9c-1.1-1-2.6-1.6-4.1-1.6
	C456.1,31.7,454.6,31.6,454.3,29.8z"/>
<path id="Path_40722" class="st1" d="M400.8,534.3c0.6-1,1.1-2,1.7-3c-0.1-0.4,0.1-0.8,0.3-1.2c1.4-1.1,2.9-0.4,4.4-0.5
	c1.1,0.4,2.2,0.7,3.3,0.8c12.5,2.3,25.2,1.8,37.8,1.7c4.6,0,9.3,0.3,13.8-0.8c0.8-0.1,1.6,0.2,2.2,0.7c0.4,0.4,0.5,1,0.2,1.4
	c0,0.3,0,0.6,0,0.9L400.8,534.3z"/>
<path id="Path_40723" class="st1" d="M56.9,534.2c-18.2,0.1-36.3,0.1-54.5,0.2c-0.9,0-2.3,0.3-2.4-1c-0.1-1.4,1.4-1.2,2.3-1.2
	c2.7,0,5.3-0.4,8,0.4c2.2,0.7,4.5,0.4,6.7,0.3c9.1-0.5,18.2,0.1,27.4,0c1.4,0,2.8,0.4,4.1-0.4c0.3-0.1,0.6-0.1,0.8,0
	c1.8,0.9,3.8,0.2,5.7,0.5C55.7,533.1,57,532.5,56.9,534.2z"/>
<path id="Path_40724" class="st1" d="M48.4,532.5c-1.1,0.6-2.4,0.9-3.7,0.9c-10.4,0-20.8,0-31.3,0c-1.1-0.1-2.2-0.4-3.3-0.7
	C22.9,532.1,35.7,531.8,48.4,532.5z"/>
<path id="Path_40725" class="st1" d="M56.9,534.2c-2.4-1.5-5.3-0.1-7.6-1.7c8.8-0.1,17.6-0.8,26.3-0.1l0,1
	c-3.8,0.9-7.8,0.2-11.6,0.4c-1.5,0.1-3.1-0.4-4.5,0.4L56.9,534.2z"/>
<path id="Path_40726" class="st1" d="M59.4,534.2c5.3-1.7,10.8-0.5,16.1-0.8c0,0.3,0,0.5,0,0.8L59.4,534.2z"/>
<path id="Path_40727" class="st2" d="M587.6,88.4c0-23.7,0-47.5,0-71.2c0-4.8,0.1-9.6,0.2-14.4c1.2-1.1,2.7-0.5,4.1-0.5
	c8.6-0.1,17.3,0.1,25.9-0.1c14.9-0.2,29.9-0.4,44.8,0c4.1,0.1,8.2-0.4,12.3-0.4c2.3,0,3.3,0.8,3.3,3.2c-0.1,10-0.1,20.1,0,30.1
	c0,3.2-1.6,4.3-4.4,4.4c-5.7,0.2-11.3,0-17,0.1c-7.7,0.1-8.7,1.5-8.8,9.3c-0.1,8.9-0.6,17.8-0.4,26.7c0.4,20.5-0.2,41,0,61.4
	c0.3,32.4-0.1,64.8-0.1,97.1c0,5.5,0.6,11,0.3,16.5c-0.2,4.3,1.7,6,6.2,6.3c5.9,0.4,11.9-0.1,17.8,0.2c6.1,0.2,6.2,0.5,6.3,6.7
	c0.1,10.6-0.3,21.2,0.2,31.8c-0.1,16.1-0.2,32.2-0.2,48.3c0,45.6,0,91.2,0,136.8c0,9.3,0,18.6,0,28.2c-2.4-1.6-1.6-4.5-3-6.3
	c-3.3-1.9-3.2-5.7-4.6-8.6c-7-14.1-16.1-26.4-29.2-35.5c-9.8-6.8-20.2-12.2-31.8-15.1c-3.5-0.9-7.2-1-10.9-1.5
	c-0.6-0.2-1.2-0.4-1.7-0.8c-4.4-2.3-4.5-3.5-0.6-6.4c6.1-4.5,8.8-10.6,7.6-18c-1.1-7.2-5.5-11.8-12.1-14.4c-1.8-0.7-3.9-0.8-5.2-2.6
	c-1.4-4.7,0.8-7.6,4.4-10.3c15.7-11.9,31.4-23.7,47.1-35.6c3.8-2.9,3.9-3.2,0.3-7.7c-10.3-13.2-20.2-26.6-30.4-39.9
	c-6.9-9-13.8-18.1-20.7-27.2c-1.2-1.5-1.9-3.3-2-5.2c0-16.5-0.1-33.1,0-49.6c0.1-0.7,0.2-1.4,0.3-2.1c0.4-3.8,0.6-7.6,0.4-11.5v-1.5
	c0.1-4.3,0-8.6-0.4-12.8c-0.3-1.8-0.5-3.6-0.5-5.5c0-32.4,0-64.8,0-97.2C585.6,91.9,584.8,89.5,587.6,88.4z"/>
<path id="Path_40728" class="st2" d="M674.3,506.2c-0.5,1.9-2.1,1.6-3.5,1.7c-18.6,2.5-37.2,5.1-55.8,7.6
	c-34.3,4.7-68.6,9.4-102.8,14.1c-4.6,0.6-9.2,1.2-13.8,2c-2.9,0.5-3.9-0.7-3.7-3.4c0.2-2.5,0.3-5.1,0.5-7.6
	c-0.6-10.4,3.2-19.5,7.7-28.5c7.1-14.6,18-27.1,31.5-36.2c15.6-10.5,32.8-16.4,51.9-15.5c3.8,0.2,7.6-0.5,11.4,0.5
	c4.2,1.2,8.6,1.3,12.9,2.5c25.5,7.5,45.1,22.3,57.7,46C671,494.7,674.2,499.9,674.3,506.2z"/>
<path id="Path_40729" class="st0" d="M678.4,295.8c-1.2-7.9-0.4-15.8-0.5-23.7c-0.1-3-0.1-5.9,0-8.9c0.1-3-1.2-3.8-4.1-3.8
	c-8,0.2-16.1-0.1-24.2,0c-2.9,0-4-0.8-4-3.8c0.1-29.8,0.2-59.7,0.2-89.5c0-24-0.1-48.1-0.1-72.1c0-17.4,0.2-34.8,0.1-52.2
	c0-3.5,1.4-4.3,4.5-4.3c7.5,0.1,15-0.1,22.5,0.1c3.7,0.1,5.4-1,5.3-5c-0.2-8.6-0.2-17.3-0.1-25.9c0-2.8-0.8-4.1-3.9-4.1
	c-28.7,0.1-57.4,0.2-86.1,0.2l0.7-1.2l42.7,0c5.8-0.4,11.7-0.3,17.5,0l17.3,0c4.2-0.2,8.3-0.9,12.5,0.4c0,21.5,0,42.9,0,64.4
	c0,23.9,0,47.8,0,71.6c0,39.6-0.2,79.1,0,118.7C678.4,269.8,678.6,282.8,678.4,295.8z"/>
<path id="Path_40730" class="st2" d="M464.5,532.6l-1.7,0c-16.3,0.7-32.6,0.1-49,0.4c-1.8,0-3.6-0.3-5.4-0.3c-1.1,0-1.9-0.4-1.8-1.7
	c0.4-2.7,3-3.5,4.7-4.8c15.6-11.5,30.9-23.4,46.3-35.1c23-17.5,46.1-34.8,69-52.4c11.9-9.2,24-18.2,36-27.3c1.5-1.1,3.1-3.4,5.6-1.5
	c1.3,1.3,0.9,2.9,0.5,4.4c-2.6,9.1,0.7,15.9,8,21.3c3.1,2.4,3.1,2.9,0.2,5.2c-24,2.6-44.1,12.9-60.1,30.9
	c-10.5,11.9-18,25.7-21.2,41.5c-0.2,1.1-0.2,2.5-1.5,3.1c-1.1,2.9-1.6,6-1.4,9.1c0.1,4.6-0.9,7.6-6.2,7.2
	C479.2,533.1,471.8,533.2,464.5,532.6z"/>
<path id="Path_40731" class="st1" d="M494.1,516.2c2.7-18.4,11.2-34,23.7-47.3c15.9-16.8,35.4-26.8,58.7-29
	c5.6-3.3,11.5-2.5,17.3-0.7c1.4,0.4,2.8,0.1,4.1,0.7l0.9,0.9c-0.1,0.5-0.5,1-1,1c-16.4-1.1-32.5,0.1-47.7,7
	c-29.6,13.5-47.7,36.2-54.1,68.2c-0.3,1.2-0.6,2.5-0.8,3.7C494.2,519.3,494.3,517.7,494.1,516.2z"/>
<path id="Path_40732" class="st1" d="M597.8,441.8l1-1c13.8,0.5,26,5.8,37.5,12.9c18.4,11.2,32.1,28.6,38.8,49
	c-0.3,1.2-0.6,2.3-0.8,3.5c-5.9-17.2-15.2-32.1-29.4-43.7c-13.1-10.7-27.9-17.6-44.6-20.1C599.4,442.3,598.6,442.1,597.8,441.8z"/>
<path id="Path_40733" class="st1" d="M464.5,532.6c7.3-0.7,14.6-0.4,21.9-0.1l4.1,0.3l0,0.6h-26
	C464.5,533.1,464.5,532.8,464.5,532.6z"/>
<path id="Path_40734" class="st1" d="M648.6,1.6l-17.5,0C636.9,0.6,642.8,0.6,648.6,1.6z"/>
<path id="Path_40735" class="st1" d="M678.4,2l-12.5-0.4C670.1,0.9,674.3,0,678.4,2z"/>
<path id="Path_40736" class="st2" d="M101,509.6c-6.2,6.6-12.4,13.1-18.5,19.8c-2,2.2-3.3,2.2-5.4,0.2c-17.6-16.4-35.2-32.7-52.8-49
	c-2.8-2.6-5.5-5.3-8.4-7.7c-2.1-1.7-1.9-2.8-0.2-4.7C38,444.1,60.4,420,82.7,395.8c23.2-25.1,46.4-50.3,69.5-75.4
	c19.3-20.9,38.6-41.7,57.9-62.5c10.2-11,20.3-22,30.5-33c1.4-1.5,2.6-3.4,4.8-4c1.7,1.4,1.3,3.1,0.7,4.9c-1.4,5-3.2,9.9-3.8,15.1
	c-1.9,14.7-1.1,29,6.5,42.3c1.4,2.7,3,5.3,4.7,7.8c1.4,2.9,1.4,6.2,1.6,9.3c0.6,11.6,3.1,22.8,4.9,34.2c0.2,1.1,0.3,2.2,0.3,3.4
	c0,1.4-0.9,2.3-1.8,3.2c-8,7.9-15.4,16.3-22.7,24.9c-4,4.8-9.9,7.1-15.2,10.2c-11.3,6.6-22.3,13.8-32.8,21.5
	c-7.7,5.7-15.2,11.6-22.6,17.6c-7.1,5.7-14.1,11.5-20.7,17.7c-8.7,8.1-17.7,16.1-25.9,24.8c-1.5,1.8-3.5,3.2-5.8,4
	c-9.2,8.6-17.5,18-26.1,27.2c-2.5,2.6-1.7,4.1,0.6,6.2c4.1,3.5,7.9,7.2,11.9,10.9C100.1,507,101.5,507.9,101,509.6z"/>
<path id="Path_40737" class="st2" d="M139.4,487.5c-6-6.3-12.1-12.4-17.9-18.8c-2.1-2.3-5.4-3.7-5.7-7.4c2.2-4.7,6.5-7.5,10-10.9
	c19.4-18.9,39.8-36.8,61.8-52.8c13.4-9.6,27.4-18.6,41.7-26.8c10-5.8,20.6-9.6,31.2-13.6c2.5-0.2,3.4-1,2.6-3.8
	c-1.5-5.6-2.6-11.2-3.3-16.9c0-0.5-0.1-0.9-0.1-1.4c-2.3-12.9-4.5-25.9-5.4-39c-0.3-3.8-1.5-7.5-2.2-11.3c-1-4.5-0.9-9.3,0.1-13.8
	c0.2-0.7,0.6-1.4,1.1-1.9c1.8-0.7,2.2,0.7,3.2,1.7c6.2,5.9,12,12.3,19.8,16.6c8.2,4.6,17.4,7.2,26.8,7.8c9.7,0.6,19.1-1,28.5-3.5
	c4.2-1.1,4.5-0.6,4.9,3.5c0.2,2.8-1,5.7-0.5,8.3c1.6,7.5-2.1,12.8-6.1,18.2c-20.4,29-42,57.2-63,85.8c-8.3,11.3-16.7,22.5-24.9,33.8
	c-1.8,2.6-4,4.8-6.5,6.6c-14.4,7.6-29.2,14.6-43.9,21.7c-14.6,7-29.1,14.2-43.2,22.1C143.8,494.3,141.5,493.2,139.4,487.5z"/>
<path id="Path_40738" class="st2" d="M259.8,532.5l-3.3,0c-11.9,0.6-23.8,0.5-35.7,0.1c-14.1-0.7-28.1-0.4-42.2-0.4
	c-5.5,0-11,0-16.5,0.1c-1.8,0-3-0.5-3.3-2.4c-0.9-5.7-4.9-8.7-9.7-10.9c-2.8-1.3-5.7-2.5-8.5-3.7s-4.3-3-4.1-6.5
	c0.4-5.5,0.2-11,0.4-16.5c0-1.3-0.6-3,1.3-3.6c0.6-0.1,1.2,0,1.6,0.4c4.9,4.3,4.9,4.2,10.5,1.1c22.5-12.6,46.1-23,69.1-34.6
	c6-3,12.5-5.3,17.9-9.4c5-3.1,10.2-6,15.5-8.4c1.8-0.9,3.7-1.7,5.1,0.8c0.2,2.2-1.3,3.6-2.3,5.3c-7.8,12.5-15.4,25.2-23.2,37.8
	c-1.6,2.5-1.2,4.4,1.5,5.9c8.8,4.8,17.2,10.3,25.6,15.6c7.4,4.6,15,8.9,22.3,13.7c5.9,3.9,12.1,7.2,18,11c1.5,0.9,3.1,1.7,2,3.9
	c-2.2,1.8-4.9,0.4-7.2,1C283,532.7,271.4,533.2,259.8,532.5z"/>
<path id="Path_40739" class="st3" d="M84.3,530.1c6.4-6.4,12.6-12.8,18.4-19.8c3.8,1.5,6.2,4.7,8.9,7.4c5,4.8,11,8.7,14.9,14.6
	c-5.2,1.5-10.5,0.4-15.7,0.4c-7.7,0.1-15.4,0.9-23.1-0.4C86.6,531.5,83.9,533.1,84.3,530.1z"/>
<path id="Path_40740" class="st1" d="M260.7,358.6c-22,7.4-41.9,18.8-61,31.8c-24.2,16.5-46.5,35.4-67.7,55.5l-16.2,15.4
	c-1,0.5-1.8,1.4-3,0.5c14.6-15.1,30-29.5,46.1-43c18.9-16,38.4-31.3,60.2-43c11.6-6.3,19.7-15.7,28.4-24.9c3.8-4,7.1-8.4,11.4-11.9
	c1.3-0.4-0.4-2.9,1.9-2.6l0,0c1.1,2.9,0.1,5.2-1.7,7.4c-4.9,6.4-10.1,12.5-15.4,17c4.3-1.7,9.4-4.9,15.6-5
	C260.2,356.5,261.3,357.1,260.7,358.6z"/>
<path id="Path_40741" class="st1" d="M237.7,447.5c-10,5.8-20.7,10.4-31,15.5c-20.1,9.9-40.6,19.1-59.9,30.5
	c-2.1,1.2-3.6,1.4-5.1-0.7c-1.1-1.5-2.3-2.8-3.5-4.2l1.2-1.2c5.5,4.7,5.4,4.5,12,0.9c22-11.9,44.6-22.4,67.1-33.4
	c5.6-2.7,11.2-5.4,16.7-8.1C236.3,446.2,237.4,445.7,237.7,447.5z"/>
<path id="Path_40742" class="st1" d="M220.8,532.6c11.9-0.6,23.8-0.7,35.7-0.1l0,0.9c-10.1,0-20.2,0-30.3,0
	C224.3,533.4,222.5,533.5,220.8,532.6z"/>
<path id="Path_40743" class="st1" d="M87.7,532.4l38.8-0.1c-1.1,0.7-2.3,1.1-3.6,1c-12.5,0-25,0-37.6,0
	C85.9,532.1,87,532.8,87.7,532.4z"/>
<path id="Path_40744" class="st2" d="M415.2,65.5c0.7,18.4-1.3,36.7-5.8,54.6c-3.5,14.3-7.9,28.3-12.7,42.2
	c-0.3,0.9-0.2,2.2-1.8,1.7c-2-4.2-0.8-8.6-0.7-12.9c0.3-8.6,0.2-17.1,0.9-24c-0.8,12.3-1.5,26.3-1.2,40.3
	c0.3,16.2,0.1,32.3,0.8,48.5c0.5,11.7,0.8,23.5,1.7,35.2c0.7,9.5,0.9,19,2.1,28.5c0.9,7.2,1.1,14.5,1.9,21.7c0,3.2,0.2,6.3,0.8,9.4
	c0.1,2.4,0.4,4.8,0.9,7.2c0.5,9,1.7,17.9,3.1,26.9c0.8,5,1.3,10,2,14.9c0.4,3.1-0.8,4.4-4.1,4.3c-4.3-0.3-8.5-0.3-12.8,0.1
	c-4.2,0.5-5.6-1.8-6.6-4.8c-5.1-16.6-10.9-32.9-15.2-49.8c-2.4-9.6-4.5-19.3-7.4-28.8c-3.7-13.4-5.7-27.1-7.8-40.8
	c-3.3-21.3-5.7-42.7-5.9-64.2c-0.1-10.2,0-20.3,0-25.5c-0.9,20.3,0.6,45.5,1.5,70.6c0.7,18.6,2,37.3,5.5,55.6c0.4,2.3,1.7,5-0.8,7.2
	c-8,4.5-16.6,7.2-25.5,9.3c-14.1,3.4-28.1,4-42.1-1c-12.5-4.5-22.2-12.4-30.4-22.5c-0.3-0.3-0.6-0.6-0.9-0.9
	c-6.7-6.1-10.6-14-13.2-22.3c-1.4-4.5,1.3-9.5,2.6-14.1c1-3.5,1.1-7.4,3.8-10.3c9.8-30.3,25.6-58.4,46.6-82.5
	c17.8-20.5,38.5-38.3,61.5-52.9c16.7-10.9,34.5-20,53-27.4c5-2,5-1.9,5.6,3.7C414.7,63.6,414.9,64.6,415.2,65.5z"/>
<path id="Path_40745" class="st2" d="M454.3,29.8c3.3,0.7,6.7-0.4,10,0.9c1.3,5.1,0.7,10.1,0.3,15.2c-1.3,7.8-2.8,15.5-6.7,22.6
	c-2.6,4.7-4.7,5.6-9.6,3.5c-7.4-3.1-13.9-7.5-17.6-15c-0.4-0.8-0.5-2.3-1.8-1.8c-1.2,0.5-0.7,1.9-0.1,2.6c4.7,5.1,2,9.1-1.6,13.3
	c-1.3,1.5-3.2,2.9-3.5,5.1l-6.2,7.5c0.3-8.7,0.4-16.7-1.2-24.5c-0.5-1.8,0.5-3.7,2.3-4.2c0,0,0.1,0,0.1,0c1.7-0.6,3.2-1.7,4.3-3.2
	c5.8-2,10.2-5.8,14.2-10.3c2-2.3,2.2-4.8-0.1-7.2c-0.9-0.9-1.8-1.9-0.9-3.3c0.5-0.7,1.4-1.1,2.2-0.9c1.6,0.3,1.8,1.7,1.9,3
	c0.1,2.1,0.1,4.2,0.1,6.3c0,1.2-0.1,2.4,1.2,2.9c1.3,0.5,2.7-0.1,3.3-1.3c1-1.8,1.9-3.8,2.6-5.7C448.4,31.9,450.5,29.8,454.3,29.8z"
	/>
<path id="Path_40746" class="st1" d="M248,221.8c-1.6,6.4-3.2,12.8-4.9,19.1c-0.7,2.4-0.4,5,0.9,7.2c3.4,6.8,7.3,13.3,11.6,19.5
	c-0.1,1-1,1.4-1.6,2c-0.1,0.4-0.1,0.9-0.2,1.3c-1.5,1.1-0.7,2.6-0.5,3.9c0.6,4.9-0.1,9.8,0.4,14.7c0.1,0.9-0.5,1.7-1.4,1.9
	c-9-9.9-12.2-21.9-12.8-34.9c-0.6-10.6,2.6-20.6,5.3-30.6c0.5-1.6,0.8-3.3,0.8-5C247,219,247.2,221.3,248,221.8z"/>
<path id="Path_40747" class="st2" d="M498.5,234.5c5.7-21.5,20.1-38.4,31.1-57c14.2-24.1,29.2-47.7,43.9-71.5
	c3.8-6.1,7.7-12.2,11.5-18.3c1.6,2.2,1.5,4.8,1.4,7.2c-0.5,11.3,0,22.7-0.1,34c-0.1,5.2,0.3,10.4-0.1,15.5
	c-0.4,5.5,0.3,10.9,0.1,16.4c-0.5,4.2-0.5,8.4,0.1,12.5c-0.6,12.6,0.2,25.3,0.3,37.9c-0.2,8.6-0.9,17.1-0.6,25.7
	c0,11.7,0,23.5,0.2,35.2c0.1,4.3-1.2,6.4-4.4,8.8c-19.7,14.6-38.8,29.9-58.7,44.3c-3.5,2.5-6.9,5.3-10.3,8c-8.9,0-16.2,4.4-23.9,8.1
	c-5,2.6-10.5,4.4-16,5.3c-6.6,1.1-12.9-3.1-14.4-9.6c-1-4,0.1-6.1,3.8-8.3c2.7-1.6,6.1-2.4,7.6-5.6c7.8-28.8,17.8-57,26.6-85.5
	C496.8,236.4,497.5,235.3,498.5,234.5z"/>
<path id="Path_40748" class="st2" d="M395.7,170.9c1.6-4.2,3.3-8.4,4.6-12.6c0.7-3,3.1-5.4,6.2-6.1c7.3-2,14.5-4.4,21.7-6.7l32-8.6
	c3.4-3.4,8.1-2.7,12.2-3.7c5.1-1.2,10.4-1.7,15.7-2.6c10.1-1.6,19.6,4.7,22.5,14.8c1.9,6.8,1.9,13.8,1.8,20.7c0.1,1.1-0.4,2.3-1.3,3
	c-2.2,21.4-8.1,42-13.6,62.7c-0.8,10-5.1,19-8,28.5c-5.6,18.4-12,36.5-17.1,55.1c-0.6,1.9-1,3.9-1.2,5.9c-0.5,2.3-2,4.2-4.1,5.2
	c-8.6,4.9-16.4,11.1-25.2,15.8c-0.8,0.5-1.7,1-2.6,1.4c-2.2,0.7-4.2,3.1-6.7,1.6c-2.8-1.7-2.1-5.1-2-7.6c0.1-3.2,0.2-6.5,0.3-9.8
	c0.8-12.4,1.6-24.8,3.2-37.1c2-15.5,4.9-30.7,8-45.9c1.2-5.9,3.2-11.7,5-17.4c0.2-0.5,0.6-1,0.6-1.6c0.1-1.5,1.4-3.3-0.1-4.3
	c-1.7-1.2-2.7,0.9-3.8,1.8c-11.7,9.9-23.7,19.5-36.3,28.3c-2.2,1.5-4.3,3.2-6.6,4.6c-3,1.8-4.4,1.2-4.8-2.2c-0.3-3.5-0.3-7-0.4-10.6
	c-0.4-12.7-1.3-25.4-1.4-38.2c-0.1-10.1-0.3-20.2-0.5-30.3C393.8,173.2,393.9,171.7,395.7,170.9z"/>
<path id="Path_40749" class="st2" d="M457.5,135.9c-4.1,0-7.9,2-12.8,2.4c4-6.6,7.6-12.5,11.3-18.5c16.3-26.6,32.7-53.2,49-79.9
	c1.7-2.8,2.8-3.7,6-1.7c23.5,14.7,47.2,29.1,70.8,43.5c2,1.2,2.5,2.1,1.1,4.3c-25.1,40.7-50.1,81.3-75.1,122.1
	c-0.4,0.6-1,1.1-1.7,1.4c1.8-11.2,5.1-22,5.9-33.3c0.9-3.2,0.1-6.5-0.1-9.7c-0.1-3.2,0.7-6.5,0-9.7c-0.2-5.3-0.8-10.6-3.2-15.4
	c-3.8-7.8-11.9-11.8-20.6-10.7c-8.4,1.1-16.8,2.7-25,4.6C461.3,135.9,459.3,134.9,457.5,135.9z"/>
<path id="Path_40750" class="st2" d="M428,143.7c-2-2.5-1.1-5.4-1.1-8.1c-0.2-14.1-0.2-28.1-0.1-42.2c0-1.4-0.4-3.2,1.2-4.2
	c8.5,7.4,16.9,14.9,25.6,22.1c2.7,2.3,3,4,1,7c-4,5.8-7.7,11.8-11.2,17.9c-1.3,2.5-3.7,4.3-6.5,4.8C433.9,141.7,431,142.8,428,143.7
	z"/>
<path id="Path_40751" class="st1" d="M585.9,160.2c-0.9-3.1-0.7-6.3-0.7-9.5c-0.1-17-0.1-33.9,0-50.9c0-4.1,0.3-8.1-0.2-12.2
	l2.6,0.8c-1.6,5.2-0.4,10.5-0.6,15.8c-0.3,8.1-0.4,16.2-0.1,24.3c0.6,15.4-0.4,30.8,0.3,46.3c0.3,7.2-0.5,14.4,0.4,21.6
	c-0.6,4.5-0.6,9.1,0,13.6c0,0.3,0,0.6-0.1,0.9c-0.5,4.2-0.5,8.5,0.1,12.7c-1.3,2.7-0.7,5.6-0.7,8.3c-0.1,13,0,26,0,39
	c-0.1,3.5,1.1,7,3.3,9.7c17.4,22.8,34.7,45.7,52.1,68.4c2,2.6,0.4,3.3-1.3,4.5c-16.4,12.4-32.8,25-49.4,37.3c-3.1,2.3-4.5,4.8-4,8.5
	c-2.7,1.9-6.1,1.5-9.1,2.3c-0.8-0.3-1.5-0.8-2-1.4c-1.2-2.4,0.5-3.6,2.1-4.8c17.7-13.4,35.4-26.7,53-40.3c0.7-0.5,1.3-1,2-1.6
	c3.2-2.6,3.4-3.8,0.7-7.5c-7-9.4-14.1-18.8-21.2-28.1c-7.9-10.2-15.5-20.5-23.3-30.8c-3.9-5.1-4.6-5.1-9.8-1.2
	c-18.6,14.3-37.3,28.4-56.1,42.5c-2.3,1.7-4.4,3.5-6.7,5.1c-1.4,1-2.8,1.4-4.2,0.2c-0.5-0.5-0.5-1.2-0.2-1.8
	c10.2-8.7,21.3-16.3,31.9-24.5c12.4-9.6,24.9-19.1,37.5-28.5c2-1.3,3.2-3.5,3-5.9c-0.2-10.8-0.1-21.7-0.1-32.5
	c-0.2-0.8,0.1-1.7,0.8-2.3c-0.6-9.3-0.5-18.7,0-28c-1.6-6.4-0.8-13-0.6-19.5c0.1-5.7-1.1-11.4,0.6-17
	C585.3,169.3,585.3,164.7,585.9,160.2z"/>
<path id="Path_40752" class="st2" d="M585.4,31.1c0,9.8,0,18.8,0,27.8c0,4-0.1,7.9,0,11.9c0,2.3-0.6,4.5-1.6,6.5
	c-0.8,1.7-1.8,2.5-3.6,1.1c-0.5-0.4-1.2-0.7-1.8-1.1c-2.4-1.5-5.5-2.6-6.9-4.8c-1.5-2.4,2-4.4,2.9-6.8c3.6-9.5,6.1-19.4,8.7-29.2
	C583.5,34.9,583.6,33.1,585.4,31.1z"/>
<path id="Path_40753" class="st1" d="M470.3,320.7c1.5-9.4,4.7-18.3,7.5-27.3c6.6-20.6,13.1-41.1,19.7-61.7c0.3,0.9,0.6,1.8,0.9,2.7
	c-2.7,12.3-7.3,24.1-11.1,36c-5.6,17.6-11.2,35.3-16.1,53.1C469.2,323.2,470.3,321.8,470.3,320.7z"/>
<path id="Path_40754" class="st1" d="M457.5,135.9c10.4-3.2,21.1-5.3,32-6.2c11.8-0.9,19.6,5.4,22.4,16.9c0.9,3.4,1.3,7,1.1,10.5
	c-0.1,2.9-0.8,5.7-0.1,8.6c0.3,3.5,0,7.1-0.8,10.6c-0.2-2.4,0.4-5-1-7.2c-0.1-6.2,0.3-12.4-0.7-18.6c-2.3-14.2-10.1-20.2-24.4-18.1
	c-8.7,1.2-17.2,3-25.8,4.6L457.5,135.9z"/>
<path id="Path_40755" class="st1" d="M395.7,170.9c-1.6,4.6-0.8,9.3-0.7,13.9c0.3,22.5,1.1,44.9,2.3,67.4c0.1,1.2-0.4,3,0.7,3.6
	c1.4,0.8,2.6-0.7,3.7-1.5c15.3-10.5,29.9-21.9,43.9-34c1.5-1.3,3.3-4.1,5-3.1c2,1.2-0.1,3.8-0.7,5.7c-9.8,31.1-15.1,62.9-17,95.4
	c-0.2,3.2-0.4,6.5-0.6,9.7c-1.6,0.2-1.7-1-2.1-2c-1.2-3.9-1.8-8-1.5-12.1c1.3-16.8,3.1-33.5,6.5-50c2.2-10.7,4.6-21.3,7.4-31.8
	c0.3-1.1,0.9-2.1,0.4-3.6c-5.9,4.4-11.6,9.1-17.2,13.7c-6.6,5.3-13.7,10-20.6,14.9c-3.5,2.5-5.1,5.5-4.8,9.7c0.7,10,1.5,20,2.3,30
	c0,2.5-0.4,4.8-3.6,5c-1.6-12.8-2.3-25.6-3.2-38.4c-2-29.3-3.1-58.7-3-88.1c0-18.2,0.2-36.5,1.7-54.6c0.1-1.1-0.7-3.1,1.2-3
	c1.5,0.1,0.9,2.1,0.8,3.3c-1.2,14.4-1,28.8-1.7,43.2C393.5,166.2,393.9,169.1,395.7,170.9z"/>
<path id="Path_40756" class="st2" d="M514.1,333.2c20.1-15.1,40.1-30.3,60.2-45.4c3-2.3,6.2-4.5,9-7c2.2-2,3.4-1.4,5,0.7
	c7.8,10.4,15.6,20.8,23.5,31.1c8.5,11.3,17.1,22.5,25.7,33.7c3.5,4.6,3.6,4.5-1,8c-18.9,14.3-37.9,28.6-56.8,42.9
	c-0.8,0.6-1.5,1.3-2.2,2c-0.8,3.8-5,4.4-7,7.1c-12.7,8.3-24.4,18-36.5,27.1c-14.4,10.8-28.8,21.7-43.2,32.6
	c-17.2,13.1-34.3,26.2-51.6,39.2c-10.6,7.9-20.8,16.3-31.7,23.8c-1.3,0.9-2.5,1.9-4.1,2.1l-0.9,0.2c-0.9,0.1-1.8,0.3-2.5-0.5
	c-4.6-3.4-7.4-8.4-10.8-12.8c-11-14.4-21.9-28.7-32.8-43.2c-0.3-1.4-0.3-2.8,0.2-4.2c5-11,10.8-21.6,17.4-31.8
	c0.8-1.2,1.8-2.3,2.9-3.1c9.8-7.6,19.7-15.2,29.7-22.7c9.7-7.2,19.2-14.6,29-21.7c3.7-2.7,7.7-5.2,10.4-9.2
	c17.3-12.4,34-25.6,51-38.4c3.3-2.5,6.7-4.7,9.8-7.4C508.8,334.5,511.4,333.4,514.1,333.2z"/>
<path id="Path_40757" class="st2" d="M350.5,464.5c-11.3,18.2-22.5,36.4-33.8,54.6c-1.9,3-3.7,6-5.5,9c-0.7,1.5-2.1,2.6-3.8,3
	c-5-0.3-8.6-3.7-12.6-6.1c-15.3-9.4-30.6-18.8-45.9-28.2c-5-3.1-10-6.2-15-9.2c-3.5-2.1-3.6-3-1.3-6.7c6.3-10.2,12.7-20.4,18.9-30.8
	c2.2-3.6,4.5-7.1,6.6-10.7c2.3-6.9,6.6-12.8,10.4-18.9c15.2-24.7,30.4-49.4,45.5-74.1c4.9-8,9.4-16.2,15.1-23.7
	c7.5-11.3,14.5-22.8,21.6-34.3c1-1.7,1-3.9,2.7-5.1c0.7-0.9,1.5-1.6,2.4-2.4c3.4-2.3,4.9-1.8,6.6,2.2c5.7,25.9,13,51.3,21.9,76.3
	c3.4,9.7,7.2,19.2,11.1,28.8c1,2.6,0.5,4.4-0.9,6.6c-8.3,13.9-17.1,27.5-25.4,41.4c-0.7,1.2-1.3,2.5-1.9,3.8
	c-3.6,7.1-8.1,13.5-12.1,20.4C354.3,462.5,352.6,464,350.5,464.5z"/>
<path id="Path_40758" class="st2" d="M322.7,532.5l-0.4-0.1l-0.4,0.1c-3.4-0.1-6.8,1.5-10.2-0.2c4-8.1,9.2-15.5,13.8-23.2
	c8.1-13.4,16.2-26.8,24.4-40.1c3.8-1.2,4.9,1.7,6.3,4.2c2.3,5.5,6.7,9.5,10.1,14.2c10.1,13.7,20.4,27.1,30.7,40.6
	c0.7,0.9,1.4,1.7,1.3,3c0,0.5,0,1,0,1.5c-3.9,1-7.9,0.7-11.9,0.2c-3.1-0.8-6.2,0.3-9.4,0.1c-7.1,0-14.2,0.8-21.2-0.2l-0.4-0.1
	l-0.4,0.1c-7.9,0.7-15.8,0.3-23.6,0.2C328.5,532.7,325.5,533.5,322.7,532.5z"/>
<path id="Path_40759" class="st1" d="M354.9,474.1c-2-1.4-2.5-4.2-5-5.2c0.5-1.4,1.8-2.8,0.6-4.4c4.9-8.4,9.8-16.8,15.3-24.7
	c1.1,0,1.8-0.8,2.7-1.1c1.6-0.7,2.9-1.7,4-3c1-1.1,2.1-2,3.7-1.1c0.8,0.4,1.4,1.1,1.6,2c-1.9,1.9-3.4,4.1-4.6,6.6
	c-4.8,9.1-9.7,18.2-14.6,27.3c-0.7,1.4-1.6,2.7-1.1,4.4C356.4,475.8,355.9,473.8,354.9,474.1z"/>
<path id="Path_40760" class="st1" d="M259,440c-8.3,13.6-16.5,27.3-25,40.8c-2,3.2-1.6,4.7,1.5,6.6c21.1,12.8,42.1,25.8,63.2,38.7
	c2.9,1.7,5.3,4.3,8.7,5.2c-1.7,1.9-3.8-0.9-5.5,0.5c-0.4-1.5-1.7-2.2-2.9-2.9c-21.2-13-42.4-25.9-63.5-39c-8.4-5.2-7.3-3.2-2.6-11
	c8-13.3,16.2-26.4,24.4-39.6c0.4-0.7,1-1.2,1.6-0.8C259.5,438.6,259.6,439.3,259,440z"/>
<path id="Path_40761" class="st1" d="M354.9,474.1c1.2-0.7,1.9,0.1,2.8,0.7c10.4,13.6,20.8,27.1,31.1,40.7c3.8,5,8.2,9.7,11.2,15.3
	l-1.7,0.1c-7.1-8-13.2-16.9-19.7-25.4C370.6,495.1,362.8,484.6,354.9,474.1z"/>
<path id="Path_40762" class="st1" d="M259.8,532.5c11.6-0.2,23.2-0.9,34.8,0.2c-6.8,1.5-13.7,0.6-20.6,0.6
	C269.3,533.4,264.5,534.3,259.8,532.5z"/>
<path id="Path_40763" class="st1" d="M322.7,532.5c10.8-0.6,21.5-0.6,32.3,0c-2.2,1.3-4.7,0.8-7.1,0.9c-6.9,0-13.8,0-20.7,0
	C325.6,533.5,324.1,533.2,322.7,532.5z"/>
<path id="Path_40764" class="st1" d="M355.8,532.5c7.1-0.7,14.1-0.1,21.2,0.2C370,533.9,362.8,533.9,355.8,532.5z"/>
<path id="Path_40765" class="st1" d="M386.4,532.6c3.9-0.6,7.9-0.6,11.9-0.2C394.3,534.1,390.4,533.8,386.4,532.6z"/>
<path id="Path_40766" class="st1" d="M311.7,532.3c3.4,0.5,6.8-0.7,10.2,0.2C318.4,533.8,315,534.1,311.7,532.3z"/>
<path id="Path_40767" class="st4" d="M464.6,46c-0.1-5.1,0.8-10.2-0.3-15.2C466.2,35.8,465.7,40.9,464.6,46z"/>
<path id="Path_40768" class="st1" d="M403.4,531.1c17.5-13.4,35.1-26.7,52.6-40.1c37.5-28.5,75-56.9,112.5-85.4
	c0.4-0.2,0.7-0.4,1.1-0.6c0.7-0.2,1.4,0.1,1.7,0.7c0.3,3-1.3,4.2-4.1,4.4c-5.9,2.6-10.4,7.2-15.4,11c-30.4,22.8-60.7,45.8-91,68.8
	c-16.9,12.8-33.7,25.7-50.6,38.6c-1.1,0.9-2.4,1.6-3.5,2.3C405.6,531.1,404.6,531.5,403.4,531.1z"/>
<path id="Path_40769" class="st1" d="M408.5,532.6c10.5-0.8,21-0.4,31.5-0.4c7.6,0,15.2-0.6,22.8,0.3c-1.5,0.7-3.2,1-4.9,0.9
	c-14.7,0-29.3,0-44,0C412.1,533.5,410.2,533.2,408.5,532.6z"/>
<path id="Path_40770" class="st0" d="M567.3,410.2c0.8-1.6,2-3,3.4-4.1c1.7-3.6,5.1-4.7,8.4-6c1.6-1,3.2-2,4.8-3
	c2.8-1.8,1.7,2.8,3.8,2.2c12.5,2.5,19,10,18.7,21.7c-0.2,6.9-3.4,12.2-9.2,15.8c-3.2,2-1.3,2.4,0.6,3.1c-7.1,1.3-14.3-0.5-21.4,0
	c0.6-0.6,1.3-1.3,0.1-2C565.3,431.4,564,421.6,567.3,410.2z"/>
<path id="Path_40771" class="st1" d="M587.6,209.9c-1.3-4.4-1.3-9.1,0-13.6C587.6,200.8,587.6,205.3,587.6,209.9z"/>
<path id="Path_40772" class="st1" d="M587.6,223.5c-1.2-4.1-1.2-8.5-0.1-12.7L587.6,223.5z"/>
<path id="Path_40773" class="st1" d="M252.2,291.4c1.2-5.6,1.3-11.4,0.3-17c-0.4-2.5-0.4-2.5,1.3-3.4c0.5,21,3.3,41.8,6.8,62.5
	c0.1,1,0.2,2,0.2,2.9l-1.9,2.6c-0.9-6-1.7-11.9-2.6-17.9C254.9,311.2,253.5,301.3,252.2,291.4z"/>
<path id="Path_40774" class="st1" d="M259,440c-0.3-0.9-1-1-1.8-0.9c-1.5-1.2-2.5,0.3-3.6,0.8c-5.3,2.5-10.5,5.1-15.8,7.6l-2.5-0.8
	c24.4-33,48.8-66.1,73.2-99.1c6.6-9,13.4-17.8,20.2-26.7c1.6,0.3,1.6,1.6,1.9,2.7c-16.4,26.7-32.9,53.4-49.3,80.1
	c-6.3,10.2-12.5,20.5-18.7,30.8C261.4,436.5,260.2,438.2,259,440z"/>
<path id="Path_40775" class="st1" d="M330.5,323.8c-1-0.6-1.7-1.6-1.9-2.7c7.3-7.1,6.6-16.1,6.4-25.2c-0.1-3.7-1.4-3.4-3.9-2.7
	c-6.7,1.9-13.5,3-20.4,3.3c-21.3,0.9-38.9-6.9-52.9-22.9c-1.2-1.4-2.5-2.6-3.8-3.9l1.6-2c8.5,10.5,18.4,19.1,31.4,23.4
	c16.9,5.6,33.4,3.7,49.8-2c5.3-1.8,10.5-4.1,15.7-6.2c1.6-0.2,2.2,0.5,1.9,2c-6.9,11.4-13.9,22.8-20.8,34.2
	C332.5,320.7,331.5,322.2,330.5,323.8z"/>
<path id="Path_40776" class="st1" d="M257.3,343c1-2.3,4.2-3.5,3.5-6.7c1.3,6.2,2.7,12.4,4,18.6c0.8,3.6-1.6,3.6-4,3.6l-2.6-0.9
	c0.5-4,2.1-7.9,0.5-12C258.3,344.6,257.9,343.8,257.3,343z"/>
<path id="Path_40777" class="st2" d="M257.3,343c1.3-1,2.5-1.5,3,0.8c0.6,3.3,1.3,6.7,1.9,10c0.7,3.5-2.8,2.4-4.1,3.8
	c-6.8,1.3-12.7,5.2-20.3,7.2L257.3,343z"/>
<path id="Path_40778" class="st1" d="M368.5,440.2c-1.1,1.1-2,0.7-2.7-0.4c9.1-14.9,18.1-29.9,27.3-44.8c1.6-2.1,1.8-5,0.6-7.4
	c-11.5-28-20.5-56.8-28.2-86c-1.5-5.9-2.6-11.8-3.9-17.8c-0.3-1.3-1.5-2.9,0.9-3.5c4.6,18.5,9.1,37,14.9,55.2
	c2.5,7.9,5.2,15.8,7.7,23.8c0.8,2.5,2.1,3.7,4.9,3.5c4.1-0.2,8.2-0.1,12.3,0.1c3,0.1,3.8-0.9,3.4-3.9c-1.7-11.6-3.2-23.2-4.7-34.8
	c-0.3-2.1-0.2-4.2-0.4-6.3c0.4-2-0.4-4.1,0.6-6c3.3-1,3.1,1.7,3.2,3.4c1.2,13.7,3.3,27.2,5.2,40.8c0.1,0.6,0.1,1.1,0.2,1.7
	c0.2,0.8,0.2,1.9,1.1,2.2c1.3,0.4,1.7-0.8,2.2-1.6c2.7-4.3,5.1-8.8,8.1-12.9c1.1-1.5,2-3.6,4.5-3.2c0.9,0.2,1.6,0.9,1.8,1.8
	c1.1,2-0.3,3.5-1.2,5.1c-3.3,5.8-6.9,11.4-10.4,17s-3.6,8.6,0,13.5c3.7,5.1,8.1,6.6,14.1,4.8c0.5-0.2,1.1-0.4,1.6-0.7
	c2.9-0.8,5.5-1.2,5.9,3c-5.1,6-16.4,6.4-22.7,1.1c-4.4-3.7-6.8-8.5-8.5-13.9c-1.8-5.8-7.2-8.4-12.8-6.1c-1.3,0.3-2,1.6-1.7,2.9
	c0,0.2,0.1,0.4,0.2,0.5c2.6,6.4,4.2,13.3,8,19.1c5.9,8.9,16.9,10.8,25.6,4.8c3.1-2.1,6-4.5,9.5-6c1.5-0.5,2.5-1.8,2.6-3.4
	c1.5-2.4,4-3,6.4-3.7c1.6-0.5,3.1-0.3,3.3,1.9c-10.3,7.9-20.5,15.8-30.8,23.6c-12.9,9.8-25.8,19.5-38.8,29.2l-1.7-0.9
	c-1.3-2.1,0.3-3.1,1.6-4.1c5.2-4.3,10.6-8.4,16.1-12.3c3.4-2.5,5.2-5.4,4.8-9.7c-0.2-2.1,0-4.2-0.1-6.3c-0.1-1.5,0.3-3.5-1.4-4.1
	c-1.9-0.6-2.5,1.4-3.3,2.6c-1.8,2.9-3.5,5.8-5.3,8.7c-4.4,7.4-9.1,14.6-13.5,22C373.4,435.4,370.4,437.3,368.5,440.2z"/>
<path id="Path_40779" class="st1" d="M362.6,280.4c-0.3,1.2-0.6,2.3-0.9,3.5c-3.2-5-5,0.2-7.4,1.1l-1.9-2c0.9-1.2,0.5-2.4,0.3-3.7
	c-4.6-25-5.9-50.2-6.6-75.5c-0.6-21.6,0.1-43.2,0.3-64.8c0-1.1-0.6-3.1,1.1-3.1c1.7,0,1.1,2,1.1,3.1c-0.6,26.7,0.7,53.4,3.9,79.9
	c2.3,19.5,5.6,38.9,9.6,58.1C362.4,278.1,362.5,279.2,362.6,280.4z"/>
<path id="Path_40780" class="st1" d="M325,260.8c-0.1,8.1-0.1,8.3-8.4,7.7c-18-1.3-31.3-10.3-41-25.1c-0.6-0.9-2-2-0.8-2.9
	c1.7-1.2,2,0.9,2.6,1.8c7.5,11.2,17.3,19.3,30.6,22.7c3.9,0.9,7.8,1.4,11.8,1.3c2.2,0,3.1-0.8,2.9-3.1c-0.2-2.4,0-4.8,0-7.2
	c0-1-0.3-2.4,1-2.4c1.6-0.1,1.2,1.6,1.3,2.6C325.1,257.7,325,259.3,325,260.8z"/>
<path id="Path_40781" class="st1" d="M401.7,311.8c0,2,0.3,4.1-0.9,5.9l-0.9-6.6c-0.7-2.5-0.2-4.9-0.3-7.4c0-1,0.4-1.6,1.5-1.5
	C404.3,305.4,404.5,308.5,401.7,311.8z"/>
<path id="Path_40782" class="st1" d="M400.9,302.4c-1.6,2.8-0.5,5.8-1,8.7c-0.7-3.1-1-6.3-0.8-9.5c1.2-1.9,0.8-4.1,1.1-6.2
	C403.3,297.5,403.4,299.2,400.9,302.4z"/>
<path id="Path_40783" class="st1" d="M426.3,344.8c-0.3-0.6-0.6-1.1-0.9-1.7c-1.2-0.7-1.5-2.3-0.8-3.4c0.1-0.1,0.1-0.2,0.2-0.3
	c4-5.9,3.6-12.6,3.6-19.3c-0.2-2.1,0-4.3,0.5-6.3c0.3-1,1.3-1.6,2.3-1.5c0.8,5.2-0.9,10.5,1,15.6c0,4.5,0.1,9,0.1,13.5
	c0,2.3,0.6,3.2,3,1.8c10.6-6.1,21.2-12.2,31.9-18.1c1.9-1,2.1-2.9,3.1-4.3c0.3,1,0.6,1.9,0.9,2.9c-0.1,3.2-3.1,3.4-5,4.5
	c-6.5,3.8-7,4.4-5.3,9.5c1.8,5.4,5.7,7.8,11.4,7c7.8-1.1,14.8-4.6,21.7-8.1c5.9-3,11.7-6.2,18.7-4.5l1.2,1.2
	c-21.9,17.2-44.2,34.1-66.6,50.6c-3.3-0.6-5.7,1.5-8.4,2.8c-0.8,0.6-1.7,0.9-2.5,0.1c-1.4-2.4-3-0.6-4.6-0.2
	c-2.1-4.9-2-10.2-2.5-15.3c-0.6-6.7-1.5-13.4-1.1-20.1C428.6,348.7,428.2,346.5,426.3,344.8z"/>
<path id="Path_40784" class="st1" d="M585.9,210.3c0,9.3,0,18.6,0,28C585.1,228.9,585.1,219.6,585.9,210.3z"/>
<path id="Path_40785" class="st1" d="M585.8,160.2c0,4.5,0,9,0,13.5C585.1,169.3,585.1,164.7,585.8,160.2z"/>
<path id="Path_40786" class="st1" d="M513,165.7c-1.3-2.7-1.3-5.9,0.1-8.6C513.6,160,513.6,162.9,513,165.7z"/>
<path id="Path_40787" class="st1" d="M579.1,400l-8.4,6l-1.1-1c2.2-2.5,5.1-4.1,7.8-5.8L579.1,400z"/>
<path id="Path_40788" class="st2" d="M431.2,312.3c-1,5-1.3,10.1-0.8,15.1c0.7,6.2-2.8,10.7-5.1,15.7l-15.7,24.4
	c-2.1-8.1-2.8-15.5-3.8-22.8c-1.5-11-2.8-22-4.3-33c0.1-3.2,0.2-6.3-0.8-9.4c0-2.4,0.4-4.8-0.8-7c-0.7-11-1.3-22-2.2-32.9
	c-0.2-2.1,0.3-3.5,2-4.6c15.9-10.4,30.7-22.1,45.2-34.3c0.5-0.4,1.1-0.8,2-1.5c0.1,1.7-0.2,3.4-0.9,5
	C438.1,254.8,433,283.4,431.2,312.3z"/>
<path id="Path_40789" class="st2" d="M368.5,440.2c-1-3,2-4,3.1-5.9c7.4-12.4,15-24.6,22.7-36.8c0.7-1.2,1.1-3.7,2.8-3.1
	c1.9,0.7,3.3,2.4,3.5,4.5c0.2,5.5,0.2,11,0.3,16.5c0,1.5-1.4,2-2.3,2.8c-7.3,6-15.3,11.1-22.3,17.5L368.5,440.2z"/>
<path id="Path_40790" class="st2" d="M337.2,307.2c0-4.6,0-9.2,0-13.9c-0.1-1.3,0.8-2.5,2.1-2.8c3.6-1.3,7.1-2.6,11.8-4.4
	c-4.7,7.7-8.8,14.5-13,21.3L337.2,307.2z"/>
<path id="Path_40791" class="st2" d="M436.5,386.6l2.5-0.1c-6.2,5.7-11.7,12.4-20.6,13.8c-9.4,1.6-18.7-3.5-22.3-12.4
	c-2.7-6.4-4.9-12.9-7.5-19.3c-1.2-3-0.2-3.7,2.7-3.5c3.4,0.3,6.8,0.2,10.2-0.1c4.2-0.5,5.8,1.2,6.2,5.2c0.6,4.1,2,8,4.2,11.4
	c3.9,6.6,10.7,9.2,18.7,7.2C432.6,388.2,434.8,387.9,436.5,386.6z"/>
<path id="Path_40792" class="st2" d="M426.3,344.8l3.1-4c1.6,3.2,0.9,6.3,1,9.2c0.3,10.6,1.2,21.1,2.5,31.6c0.2,1.6,0.9,3.4-0.9,4.7
	c-11.6,2.1-16.8-0.8-20.7-11.3c-1-2.4-0.7-5.1,0.8-7.1C417,360.3,421.6,352.6,426.3,344.8z"/>
<path id="Path_40793" class="st2" d="M402.7,413.4c0-3.6,0-7.2,0-10.9c0-1.1-0.6-3.1,1.6-2.4c1.4,0.4,4,0.5,3.4,2.9
	c-1,3.7-1.8,7.5-3.8,10.8L402.7,413.4z"/>
<path id="Path_40794" class="st2" d="M418.1,403c-3.1,3.4-6.5,5.3-9.7,7.7C408,403.8,409.8,402.3,418.1,403z"/>
</svg>
