<?xml version="1.0" encoding="utf-8"?>
<!-- Generator: Adobe Illustrator 24.2.1, SVG Export Plug-In . SVG Version: 6.00 Build 0)  -->
<svg version="1.1" id="Layer_1" xmlns="http://www.w3.org/2000/svg" xmlns:xlink="http://www.w3.org/1999/xlink" x="0px" y="0px"
	 viewBox="0 0 547.3 371.5" style="enable-background:new 0 0 547.3 371.5;" xml:space="preserve">
<style type="text/css">
	.st0{fill:#060D43;}
	.st1{fill:none;stroke:#5ED58C;stroke-miterlimit:10;}
	.st2{fill:#262626;}
	.st3{fill:#EEFBF3;}
	.st4{fill:#1E1D1D;}
	.st5{fill:#5ED58C;}
	.st6{fill:#FFFFFF;}
</style>
<g id="Group_21688" transform="translate(589 -13530)">
	<g id="Group_21536" transform="translate(-589 13710.703)">
		<g id="Group_21534" transform="translate(0 52.576)">
			<path id="Path_40608" class="st0" d="M5,21.9c-2.7,4.9-4.4,10.2-5,15.8l4.6,0.5c-0.6,5-0.1,10.1,1.3,15l-4.5,1.3
				C3,59.8,5.6,64.8,9,69.2l0.8-0.6l2.8-2.3c3.1,4,7.1,7.2,11.5,9.7L21.9,80c4.9,2.7,10.2,4.4,15.8,5l0.5-4.6c5,0.6,10.1,0.2,15-1.3
				l1.3,4.5c5.3-1.6,10.3-4.1,14.7-7.6l0,0l-0.8-1.1l-2.1-2.6c4-3.1,7.2-7,9.7-11.5l4.1,2.3c2.7-4.9,4.4-10.2,5-15.8l-4.6-0.5
				c0.6-5,0.1-10.1-1.3-14.9l4.5-1.3c-1.6-5.3-4.1-10.3-7.6-14.7l-3.7,2.9c-3.1-4-7-7.2-11.5-9.7L63.1,5c-4.9-2.7-10.2-4.4-15.8-5
				l-0.5,4.6c-5-0.6-10.1-0.1-14.9,1.3l-1.3-4.5C25.2,3,20.2,5.6,15.9,9l0,0l1.9,2.4l1,1.2c-4,3.1-7.2,7-9.7,11.5L5,21.9z
				 M24.4,32.6c5.5-10,18.1-13.7,28.1-8.2c10,5.5,13.7,18.1,8.2,28.1c-5.5,10-18.1,13.7-28.1,8.2C22.6,55.2,18.9,42.6,24.4,32.6
				C24.4,32.6,24.4,32.6,24.4,32.6L24.4,32.6z"/>
		</g>
		<g id="Group_21535" transform="translate(67.138 0)">
			<path id="Path_40609" class="st1" d="M7.7,6.2c-2.3,2.1-4.1,4.6-5.5,7.4l2.4,1.1c-1.2,2.5-1.9,5.3-2,8.1L0,22.7
				c-0.1,3.1,0.3,6.2,1.4,9.1l0.5-0.2L3.8,31c1,2.6,2.4,5.1,4.3,7.1l-1.9,1.8c2.1,2.3,4.6,4.1,7.4,5.4l1.1-2.4
				c2.5,1.2,5.3,1.9,8.1,2l-0.1,2.6c3.1,0.1,6.2-0.3,9.1-1.4l0,0l-0.2-0.7L31,43.7c2.6-0.9,5.1-2.4,7.1-4.3l1.8,1.9
				c2.3-2.1,4.1-4.6,5.5-7.4L43,32.8c1.2-2.5,1.9-5.3,2-8.1l2.6,0.1c0.1-3.1-0.3-6.2-1.4-9.1l-2.4,0.9c-0.9-2.6-2.4-5.1-4.3-7.1
				l1.9-1.8c-2.1-2.3-4.6-4.1-7.4-5.5l-1.1,2.4c-2.5-1.2-5.3-1.9-8.1-2L24.8,0c-3.1-0.1-6.2,0.3-9.1,1.4l0,0L16.3,3l0.3,0.8
				c-2.6,1-5.1,2.4-7.1,4.3L7.7,6.2z M16,15.3c4.7-4.3,12-4,16.2,0.7c4.3,4.7,4,12-0.7,16.2c-4.7,4.3-12,4-16.2-0.7c0,0,0,0,0,0
				C11,26.9,11.3,19.6,16,15.3C16,15.3,16,15.3,16,15.3L16,15.3z"/>
		</g>
	</g>
	<path id="Path_40610" d="M-44.7,13901.5h-508.4c-1.6,0-3-1.3-3-3l0,0c0-1.6,1.3-3,3-3h508.4c1.6,0,3,1.3,3,3l0,0
		C-41.7,13900.2-43.1,13901.5-44.7,13901.5z"/>
	<path id="Rectangle_7408" class="st2" d="M-491,13623.7h386.7c4.6,0,8.3,3.7,8.3,8.3v240.8c0,4.6-3.7,8.3-8.3,8.3H-491
		c-4.6,0-8.3-3.7-8.3-8.3V13632C-499.3,13627.4-495.6,13623.7-491,13623.7z"/>
	<path id="Rectangle_7409" d="M-97.6,13632.2v240.4c0,3.8-3,6.8-6.8,6.8h-386.4c-3.8,0-6.8-3-6.8-6.8v-240.4c0-3.8,3-6.8,6.8-6.8
		h386.4C-100.7,13625.4-97.6,13628.5-97.6,13632.2z"/>
	<g id="Group_21537" transform="translate(-485.714 13634.1)">
		<rect id="Rectangle_7410" x="0" y="0" class="st3" width="376.6" height="235.5"/>
	</g>
	<path id="Path_40611" class="st4" d="M-68.3,13881.2v6.3c0,0.3,0,0.6-0.1,0.9c-0.5,4.1-4,7.2-8.1,7.2H-524c-4.1,0-7.6-3.1-8.1-7.2
		c0-0.3-0.1-0.6-0.1-0.9v-6.3H-68.3z"/>
	<path id="Path_40612" class="st2" d="M-68.4,13888.4c-0.5,4.1-4,7.2-8.1,7.2H-524c-4.1,0-7.6-3.1-8.1-7.2H-68.4z"/>
	<path id="Path_40613" class="st5" d="M-211.8,13534.3c-0.1-0.1-0.1-0.1-0.2-0.2c-23.5,25.2-61,45.8-101.2,54.6
		c0,2.7-0.1,17.5-0.4,86c-0.4,91.3,86.5,136,100,142.8c13.1-6,101.1-50.6,101.5-141.9c0.3-68.5,0.4-83.3,0.4-86
		C-151.6,13580.5-188.5,13559.6-211.8,13534.3z"/>
	<path id="Path_40614" class="st6" d="M-213.6,13820.7l-1.2-0.6c-20.6-10.4-39.5-24-55.9-40.3c-30.4-30.5-45.8-65.9-45.6-105.1
		l0.1-31.8c0.2-41.6,0.2-52,0.2-54.2l0-2.3l2.2-0.5c39-8.5,76.2-28.6,99.7-53.8l2.1-2.2l2.3,2.4c23.3,25.3,60.2,45.7,98.7,54.5
		l2.2,0.5l0,2.3c0,2.7-0.1,17.5-0.4,86c-0.4,94.5-92.6,139.6-103.2,144.5L-213.6,13820.7z M-310.3,13591c0,4.9-0.1,18.2-0.2,52
		l-0.1,31.8c-0.4,80.2,66.9,124,97.2,139.7c14.6-7,98.2-50.8,98.6-138.8c0.3-57.9,0.3-77.5,0.4-83.8c-37.8-9.1-73.9-28.9-97.5-53.6
		C-235.8,13562.7-272.2,13582.3-310.3,13591L-310.3,13591z"/>
	<path id="Path_40615" class="st0" d="M-213.4,13801.3l-1.6-0.8c-16.7-8.8-32.1-20-45.5-33.3c-27-26.9-40.6-57.9-40.4-92.2l0.3-75.6
		l2.5-0.7c32.5-8.4,62.1-23.8,83.4-43.3l2.4-2.2l2.3,2.3l-2.2,2.6l2.3-2.5c21.1,19.7,50.6,35.3,82.9,43.9l2.5,0.7l-0.3,75.6
		c-0.1,34.3-14,65.2-41.3,91.9c-13.2,12.8-28.2,23.7-44.5,32.2L-213.4,13801.3z M-293.8,13604.6l-0.3,70.4
		c-0.1,32.5,12.8,61.9,38.4,87.4c12.5,12.4,26.8,22.9,42.3,31.3c15.6-8.2,29.9-18.6,42.6-30.9c25.9-25.3,39.1-54.6,39.2-87l0.3-70.4
		c-31.3-8.8-59.9-23.9-81.1-42.9C-233.7,13581.2-262.4,13596.1-293.8,13604.6L-293.8,13604.6z M-212.1,13558L-212.1,13558
		L-212.1,13558z"/>
	<g id="Group_21538" transform="translate(-252.825 13620.445)">
		<path id="Path_40616" class="st6" d="M0,41.9v60c0,6.7,81.5,6.7,81.5,0v-60H0z M44.9,73.8v17c0,2.3-1.8,4.1-4.1,4.1
			s-4.1-1.8-4.1-4.1v-17c-5-2.3-7.3-8.2-5-13.3c2.3-5,8.2-7.3,13.3-5c5,2.3,7.3,8.2,5,13.3C48.9,71,47.1,72.8,44.9,73.8z"/>
		<path id="Path_40617" class="st6" d="M74.4,37.7h-8.3v-4c0-14-11.4-25.4-25.4-25.4c-14,0-25.4,11.4-25.4,25.4v4H7.1v-4
			C7.1,15.1,22.2,0,40.8,0s33.6,15.1,33.6,33.6L74.4,37.7z"/>
	</g>
	<g id="Group_21543" transform="translate(-449.345 13728.369)">
		<g id="Group_21540" transform="translate(0 29.384)">
			<path id="Rectangle_7411" class="st6" d="M3,0h106.1c1.7,0,3,1.3,3,3v16.1c0,1.7-1.3,3-3,3H3c-1.7,0-3-1.3-3-3V3C0,1.3,1.3,0,3,0
				z"/>
			<g id="Group_21539" transform="translate(17.563 6.998)">
				<circle id="Ellipse_3047" class="st0" cx="4.8" cy="4.8" r="4.8"/>
				<circle id="Ellipse_3048" class="st0" cx="21.4" cy="4.8" r="4.8"/>
				<circle id="Ellipse_3049" class="st0" cx="38" cy="4.8" r="4.8"/>
				<path id="Path_40618" class="st0" d="M59.4,4.8c0,2.7-2.2,4.8-4.8,4.8s-4.8-2.2-4.8-4.8c0-2.7,2.2-4.8,4.8-4.8
					C57.3,0,59.4,2.2,59.4,4.8C59.4,4.8,59.4,4.8,59.4,4.8z"/>
				<circle id="Ellipse_3050" class="st0" cx="71.2" cy="4.8" r="4.8"/>
			</g>
		</g>
		<g id="Group_21542" transform="translate(0 0)">
			<path id="Rectangle_7412" class="st6" d="M3,0h106.1c1.7,0,3,1.3,3,3v16.1c0,1.7-1.3,3-3,3H3c-1.7,0-3-1.3-3-3V3C0,1.3,1.3,0,3,0
				z"/>
			<g id="Group_21541" transform="translate(17.563 6.998)">
				<circle id="Ellipse_3051" class="st0" cx="4.8" cy="4.8" r="4.8"/>
				<circle id="Ellipse_3052" class="st0" cx="21.4" cy="4.8" r="4.8"/>
				<circle id="Ellipse_3053" class="st0" cx="38" cy="4.8" r="4.8"/>
				<path id="Path_40619" class="st0" d="M59.4,4.8c0,2.7-2.2,4.8-4.8,4.8s-4.8-2.2-4.8-4.8c0-2.7,2.2-4.8,4.8-4.8
					S59.4,2.2,59.4,4.8L59.4,4.8z"/>
				<circle id="Ellipse_3054" class="st0" cx="71.2" cy="4.8" r="4.8"/>
			</g>
		</g>
		<path id="Rectangle_7413" class="st5" d="M39.7,67.3h31.7c3.8,0,6.9,3.1,6.9,6.9v1.7c0,3.8-3.1,6.9-6.9,6.9H39.7
			c-3.8,0-6.9-3.1-6.9-6.9v-1.7C32.9,70.3,35.9,67.3,39.7,67.3z"/>
	</g>
	<g id="Group_21546" transform="translate(-411.047 13683.621)">
		<circle id="Ellipse_3055" class="st6" cx="18" cy="18" r="18"/>
		<g id="Group_21545" transform="translate(8.004 5.927)">
			<g id="Group_21544" transform="translate(4.361)">
				<path id="Path_40620" class="st0" d="M5.7,11.4c1.7,0,3.4-0.8,4.4-2.2c0.8-1,1.2-2.2,1.2-3.5C11.3,2.6,8.8,0,5.7,0S0,2.6,0,5.7
					C0,7,0.4,8.2,1.2,9.2C2.3,10.6,3.9,11.4,5.7,11.4z"/>
			</g>
			<path id="Path_40621" class="st0" d="M20,21.5c0,3.6-20,3.6-20,0l0-4.2c0.8-5.7,18.4-6,20,0L20,21.5z"/>
		</g>
	</g>
</g>
</svg>
