<?xml version="1.0" encoding="utf-8"?>
<!-- Generator: Adobe Illustrator 24.2.1, SVG Export Plug-In . SVG Version: 6.00 Build 0)  -->
<svg version="1.1" id="Layer_1" xmlns="http://www.w3.org/2000/svg" xmlns:xlink="http://www.w3.org/1999/xlink" x="0px" y="0px"
	 viewBox="0 0 769.9 436" style="enable-background:new 0 0 769.9 436;" xml:space="preserve">
<style type="text/css">
	.st0{fill:#060D43;}
	.st1{fill:#5ED58C;}
	.st2{fill:#FEFEFE;}
	.st3{fill:#FDFDFD;}
	.st4{fill:#FDFDFE;}
	.st5{fill:#FCFCFC;}
	.st6{fill:#F9F9F9;}
	.st7{fill:#FAFAFA;}
</style>
<g>
	<path id="Path_40120" class="st0" d="M54,411c-3.5-7.1-6.9-14.3-10.5-21.4c-1.1-2.2-0.8-3.5,1-5c6.8-5.7,14.7-9.2,23.1-11.7
		c1.8-0.5,3.4-1.4,4.8-2.5c42-35.6,73.7-79.1,97.2-128.7c12.2-25.7,22.6-52.3,35.1-77.9c0.3-0.6,0.7-1.2,1.1-1.9
		c1.3-1.5,2.2-0.5,3,0.6c3.1,6.8,5,14,8,20.9c6.5,15.4,15.2,29.9,25.8,42.9c1.3,1.6,2.8,3.1,3.5,5.1c0.1,1.2-0.6,2-1,3
		c-3.2,7-7.6,13.4-11.8,19.9c-16.6,26-35.5,50.4-55.5,73.9c-1.4,1.6-2.9,3-4.3,4.5c-1.2,1.2-2.1,2.8-3.3,4
		c-5.9,6.9-12.5,13-18.5,19.8c-6.8,7.7-14.7,14.3-22.2,21.4c-9.1,8.6-18.7,16.5-28.8,23.9c-2.1,1.5-4.3,2.9-6.4,4.4
		c-2,1.4-3.6,1-4.9-1c-1.6-2.3-2.9-4.8-4.5-7.2c-1.3,0.5-1.2,1.6-1.5,2.4c-1.6,5.4-3.1,10.8-4.8,16.2c-0.7,2.2-0.3,3.4,1.6,4.5
		c2.3,1.3,4.5,2.9,6.5,4.7c2.6,2.3,5,4.7,4.8,8.6c-0.3,0.8-1.1,1.3-1.9,1.3c-7.8,0-15.6,0-23.4,0c-1.6-0.1-1.5-1.7-2.1-2.6
		c-2.9-5.7-5.8-11.5-8.7-17.3C54.6,414.3,54.1,412.7,54,411z"/>
	<path id="Path_40121" class="st0" d="M414,80c0.2,1.7-0.1,3.4-0.7,5c-2.1,5.7-1,11,1.2,16.6c10.4,26.5,19.8,53.4,32.4,79
		c3.2,6.5,6.8,12.7,10.4,19c0.7,1.1,0.1,1.5-0.8,1.7c-6.3,0.2-12.7-0.7-19,0.5c-1.2,0.2-2.1-0.6-3-1.2c-6.1-5.1-10.3-11.8-14.9-18
		c-7.8-10.5-15.1-21.4-21.7-32.7c-0.9-1.8-2.1-3.5-3.6-4.9c-1.9,4.3-3.5,8.5-5.2,12.6c-7.7,18.4-15.6,36.7-23,55.2
		c-0.3,0.9-0.8,1.8-1.3,2.6c-0.7,0.8-1,2-2.4,1.9c-2.4-1.4-3.3-3.9-4.5-6.1c-2.4-4.5-5-9-6.4-14c-0.3-1.6-1.7-2.8-3.4-2.7
		c-3.3,0-6.6,0-10.1,0c1,3.6,4.2,5.7,4.7,9.2c0,0.7-0.3,1.5-0.9,1.9c-1.4,0.4-2.3-0.5-3.2-1.4c-6.8-6.5-13.8-12.7-20.7-19.2
		c-1.8-1.7-3.5-3.4-6.2-3.5c-0.5-0.2-0.9-0.6-1.1-1.1c1.8-4.9,5.2-8.5,9.1-11.8c0.7-0.4,1.5-0.4,2.2-0.1c3.7,3.6,5.2,8.5,8,12.7
		c0.2,0.3,0.3,0.6,0.5,1c6,10.8,3.9,8.7,15.5,8.9c3.5,0.1,3.8-0.4,3.2-3.9c-1.8-10-3.8-20-5.7-29.9c-0.9-3.7-1.4-7.4-1.7-11.2
		c-0.1-1.6,0.4-3.1,1.5-4.3c9.6-9.9,19.2-19.8,29.4-29.2c9-8.3,18.2-16.3,27.8-24c3.2-2.6,5.5-5.8,5.6-10.3
		c-0.1-2.1,0.3-4.2,1.1-6.1c0.7-0.8,2-0.8,2.6-1.8c1.3-1.2,1.8-3.9,4.5-2.4C414.4,72.1,414.4,76.1,414,80z"/>
	<path id="Path_40122" class="st0" d="M725.4,181.1c8.1,8,16.5,15.6,23.7,24.5c9.1,11.2,17.2,23.1,19.7,37.6
		c3.9,22.6-3,41.3-21,55.6c-10.3,8.2-22.2,13.9-34.3,18.9c-3,1.2-3.3,2.2-2,5.2c11.4,25.5,22.5,51,33.9,76.5
		c1.4,3.2,0.6,4.1-2.2,5.3c-20.6,8.9-41.2,18.1-61.8,27.1c-1.1,0.4-2.2,1.2-3,2.1c10.7,0,21.4,0,32.1,0c1,0,2.6-0.9,3,1
		c0,0.1-0.1,0.2-0.2,0.2c-0.1,0.1-0.2,0.1-0.3,0.1l-0.7,0c-10.8,0-21.6,0-32.4,0c-1.7,0-3.5,0.3-4.7-1.3c-1.4-2.5,0.9-2.9,2.3-3.5
		c8.7-3.9,17.5-7.7,26.2-11.6c12.1-5.4,24.3-10.5,36.3-15.9c2.7-1.2,3-2.6,1.9-5.2c-20.3-45.5-40.3-91-60.4-136.6
		c-2.3-5.3-4.7-10.5-7-15.8c-1-2.3-2.3-2.7-4.6-1.7c-20.6,9.1-41.2,18.2-61.8,27.3c-1.7,0.7-3.4,1.3-4.6,3c-0.7,1.5-0.1,3.2-0.6,4.6
		c-0.3,0.8-0.3,2.6-2,1.2c-1.1-3.1-0.8-6.3-0.8-9.4c0.1-7.1,0.1-14.2,0.1-21.2c0-4.1-0.4-4.5-4.3-4.5c-8.4-0.1-16.8,0-25.3-0.1
		c-3,0-4.1,1.1-4.1,4.1c0.1,8.8,0.1,17.6,0,26.4c0,1.8,0.3,3.7-1.1,5.2c-2.1-0.4-1.7-2.1-1.8-3.5c-0.1-10.1,0-20.3-0.1-30.4
		c0-2.9,1-4.1,4.1-4c10.5,0.2,21,0,31.5,0.1c1.2,0,3.2-0.7,3,2c0.3-1.9-0.8-2-2-2c-11.5,0-23-0.6-34.5,0.1
		c-13.8,0.9-27.6,0.2-41.4,0.5c-1,0.1-2-0.1-2.9-0.5c-1.5-2.2-0.2-2.9,1.8-3c1.5,0.8,3.1,0.6,4.6,0.6c24.3,0.1,48.6-0.1,72.8,0.1
		c1.3,0.2,2.7,0.4,3.3,1.9c0.8,7.1,0.2,14.2,0.3,21.3c0.1,4.8,0.3,5,4.7,3c17.9-7.9,35.8-15.9,53.7-23.7c1.6-0.6,3.1-1.2,4.6-2
		c0.3-0.2,0.7-0.3,1-0.4c6.3-2.5,6.3-2.5,9.1,3.6c9.8,22.2,19.7,44.3,29.4,66.5c2.7,6.1,2.8,6.1,8.8,3.4c6.5-2.8,12.9-6,19-9.5
		c11.3-6.8,21.3-14.9,27.1-27.1c5.8-11.9,6.9-25.6,3-38.3c-3.7-12.5-10.9-22.9-19.1-32.8c-6.1-7.4-13.2-13.8-19.9-20.6
		c-12.2-11-25.1-21.3-38.3-31.2c-2.6-2-5.4-3.8-8-5.8c-0.9-0.9-1.9-1.6-2.9-2.3c-23.1-16.4-46.3-32.6-68.2-50.5
		c-3.3-2.6-6.4-5.3-9.3-8.3c-1.3-1.6-3.4-2.1-5.3-1.3c-24.1,8.8-49.4,13.2-74.1,19.8c-5.9,1.6-11.9,3-17.3,6.1
		c-4.6,2.6-4.8,5.5-0.4,8.5c4.5,3.1,9.7,4.7,14.9,6.1c11.8,3.2,23.9,5.2,35.8,8c7.9,1.8,15.8,3.3,23,7.3c2.9,1.6,5.5,3.5,5.5,7.1
		c0,3.8-2.7,5.9-5.9,7.3c-6.8,2.9-14.1,4-21.4,5.1c-15,2.2-30.2,3.4-45,6.5c-3.8,0.8-7.6,1.9-11.3,3.2c-2.7,0.9-5.1,2.4-7,4.6
		c-2.1,2.6-2.1,4.8,0.2,7.2c2,1.9,4.3,3.2,6.9,4c4,1.4,8.1,2.7,12.2,4.1c4.1,1.5,7.9,3.4,10.8,6.7c1.9,2.1,3.7,4.4,2.8,7.5
		c-0.5,0.7-1,1.2-2,0.8c-0.2-5-3.4-7.9-7.5-10.1c-4.4-2.4-9.3-3.7-14.1-5.3c-2.9-0.9-5.8-2-8.5-3.4c-7-3.9-7.5-11-0.9-15.5
		c5.7-3.9,12.3-5.4,18.9-6.8c16.6-3.5,33.5-4.5,50.1-7.3c4.6-0.7,9.1-1.8,13.5-3.4c2.4-0.9,5.3-1.9,5.4-4.8c0.2-3-2.6-4.3-4.9-5.4
		c-7.5-3.7-15.7-5.3-23.8-7.1c-12.5-2.8-25.2-4.8-37.5-8.6c-4.5-1.4-8.8-2.9-12.7-5.7c-5.7-4.2-5.6-9.3,0.6-12.7
		c7.9-4.4,16.7-6.3,25.3-8.4c22.1-5.5,44.4-9.9,65.9-17.5c3.7-1.3,3.6-1.2,0.9-4.2c-6.6-6.9-12.9-14.1-16.3-23.3
		c-6.3-17.2,2.9-33.8,21-37.3c12.9-2.5,24.6-0.2,32.8,10.9c7.6,10.4,6.9,24.6-1.5,34.3c-6.7,7.8-15.6,12.5-24.8,16.7
		c-1.4,0.6-2.9,1.3-4.9,2.1c2.4,2.2,4.4,4.2,6.6,6c18.7,16.2,39,30.3,59.1,44.8c4.9,3.5,9.8,6.9,14.7,10.4c1.6,0.1,2.7,1.1,3.8,2
		c13.7,10.2,27.2,20.5,40.1,31.7C724.1,179.1,724.8,180,725.4,181.1z"/>
	<path id="Path_40123" class="st1" d="M725.4,181.1c-15-12.7-30.6-24.6-46.2-36.5l3-3.7l-3.3-0.7c0.4-1,1.3-1.1,2.1-1.1
		c6.3-0.1,9.4-3.9,10.9-9.4c0.3-0.9,0.3-1.9,1.2-2.6c9.3-11.5,18.7-22.9,28-34.3c1-1.2,1.8-3.7,3.5-3.1c1.7,0.6,0.7,3.1,0.7,4.6
		C725.5,123.2,725.4,152.2,725.4,181.1z"/>
	<path id="Path_40124" class="st0" d="M521.8,206.1l1.6-0.7c4.6-0.6,9.2-0.2,13.9-0.2c1.6-0.1,3,1.1,3.1,2.7c0,0.1,0,0.2,0,0.2
		c0.9,9.5-4.7,25.3-13.9,31.2c-0.9,0.6-1.8,1.3-3,0.7c-1.5-0.1-2.3,0.6-2.4,2.1c0.1,0.7-0.4,1.3-1.1,1.4c-0.1,0-0.1,0-0.2,0
		c-4.8,0.6-9.7,0.5-14.5-0.2c-0.7-0.2-1.3-0.6-1.8-1.1c-3.3-2-6.3-4.5-8.9-7.4c-2.1-2.4-5.2-3.1-7.8-4.5c-2.7-1.1-6.3-0.7-7.7-4.3
		c1.4-2.3,3-1.6,4.7-0.5c0.7,0.5,1.5,0.9,2.3,1.3c1.1,0.4,2.3,0.7,3.6,0.7c0.7,0,0-0.6-0.1-1c-0.4-0.7-0.8-1.4-1-2.2
		c-0.5-1.1-1-2.1-0.2-3.3c1.1-1.4,2.6-2.2,4.1-3.1c-1.3,0.4-2.6,0.6-4,0.8c-1.3,0-2.6,0.1-3.5-1c-0.3-0.7-0.2-1.4,0.2-2.1
		c0.1-1.2,2.9-1,1.4-2.9c-0.1-0.2-0.2-0.4-0.3-0.7c-0.9-5.9-0.9-5.9,5.1-5.9C501.5,206.2,511.7,206.1,521.8,206.1z"/>
	<path id="Path_40125" class="st0" d="M418.9,34.6c4.1-2.3,5.8-6.3,6.9-10.6c1.2-5.5,3.2-10.8,6-15.7c4.3-7.4,10.8-10.1,18.9-7.3
		c10.2,3.4,17.8,10.4,24.3,18.7c1.6,2,0.9,4.2,0.1,6.3c-1.7,4.6-3.8,9-6.1,13.3c-1.8,0.2-1.9-2.3-3.5-2.4c-3-1.9-5.2-4.8-7.8-7.2
		c-2.1-1.8-3.9-2.1-6.1-0.2c-1.6,1.3-3.3,2.5-5.2,3.5c-1.1,0.6-2.2,1.2-3.4,0.4c-1-0.8-1.4-2.1-1.1-3.3c0.2-1.7,0.6-3.4,0.2-5.1
		c-0.3-1.1-0.9-2.2-2.2-2c-1.4,0.2-1.1,1.3-1.1,2.3c0,4.4-0.7,5.6-4.8,7.1c-4.7,1.7-9.3,3.9-14.3,4.5
		C417.7,36.7,418.1,35.7,418.9,34.6z"/>
	<path id="Path_40126" class="st0" d="M418.9,34.6c-0.1,0.8-0.5,1.7,0.9,1.8c-0.4,2-2.2,2.2-3.6,2.4c-3.2,0.4-4.2,2-4.4,5.1
		c-0.5,6.8-1,13.6-1.2,20.4c-0.1,2.4-0.6,4.8-0.5,7.2c-0.5,1.5-1.8,0.8-2.8,1c-1.8-2.8-1-5.9-0.7-8.9c0.7-6.6,0.3-13.2,1.7-20.4
		c-4.9,4.1-8.3,8.5-11.9,12.6c-5.2,5.8-10.5,11.5-15.6,17.5c-1.7,2-1.9,3.2,0.6,4.4c1.7,0.9,3.4,1.9,5,3c2.8,2,2.9,3,0.5,5.6
		c-9.3,10.1-18.1,20.5-26.7,31.2c-4.8,5.9-9.5,11.8-14,17.9c-1.5,2-2.7,4.1-2.3,6.7c-1.1,1-1.6,2.5-1.5,3.9c-1.8-0.4-1.6-2-1.8-3.2
		c-1.2-6.9-2.8-13.7-3.9-20.6c-0.1-0.5-0.2-1-0.2-1.5c0-1.2-0.1-2.8,1.4-3s1.9,1.4,2.2,2.5c1.1,4.1,1.4,8.4,2.4,12.5
		c1.3,0.3,1.6-0.7,2-1.3c11.3-15.4,23.7-29.9,36.4-44.1c3-3.3,3-3.8-1-6.2c-0.8-0.5-1.7-1-2.5-1.5c-3.8-2.4-4.2-3.8-1.1-7.2
		c9.6-10.8,19.3-21.5,29-32.3c-13.3,0.6-26.5,2.2-39.6,4.9c-15.9,2.9-31.5,7.3-46.6,13c-25.1,9.6-48.2,22.7-68.6,40.4
		c-15.6,13.6-29.1,29-39.5,47c-0.9,1.5-1.6,3.1-2.5,4.5c-1.5,2.3-1.8,5.2-0.7,7.7c0.6,1.6,1.6,3.4,0.2,5.2c-0.7-0.6-1.3-1.5-2.4-0.8
		c0-0.4,0.2-0.8,0-1.1c-3.3-6.9,0.1-12.4,3.5-18c17.9-30,42.8-52.9,72.8-70.3c31.8-18.5,66.5-28.8,102.9-33.4
		c8.6-1.1,17.2-2,25.9-2.4C413.7,36.7,416.4,35.9,418.9,34.6z"/>
	<path id="Path_40127" class="st1" d="M54,411l10.9,21.5c0.6,1.8-0.7,2.1-1.9,2.3c-1.1,0.2-2.2,0.2-3.3,0.1c-16.3,0-32.7,0-49,0
		c-1.8,0-3.7,0.5-5.2-1.1C23.3,429.7,38.9,420.8,54,411z"/>
	<path id="Path_40128" class="st0" d="M160.9,119.5c-1.5-0.1-1.9-1-2.5-1.8c-1.6-2.1-3.1-4.4-4.8-6.4c-1.1-1.3-2.2-2.2-3.3,0.3
		c-1,1.8-2.1,3.6-3.4,5.2c-0.5,0.7-0.8,1.8-1.7,1.7c-1.3-0.1-1.2-1.4-1.4-2.3c-2.3-8.9-4.7-17.7-6.9-26.6c-0.6-2.4-2.9-5.4-0.9-7
		c1.3-1,4.2,1.8,6.3,2.9c8,4.4,16,9,24,13.5c0.7,0.4,1.8,0.7,1.9,1.6c0,1.3-1.3,1.1-2.1,1.5c-2.7,1.3-7.3,1-7.8,3.5
		c-0.4,2.1,3.2,4.8,4.8,7.4c0.7,1.1,2.6,2.1,1.5,3.7C163.4,117.7,162.2,118.7,160.9,119.5z"/>
	<path id="Path_40129" class="st0" d="M65.6,435.2l24.9,0c1.9-1,4-0.9,6.1-0.9c33.2,0,66.3,0,99.5,0c27.2,0,54.3,0.1,81.5,0
		c17,0,34,0.1,51,0c23.8-0.2,47.6-0.2,71.4,0c17.5,0.1,35,0.1,52.5,0c35.5,0,71-0.1,106.5-0.1c37.9,0.1,75.9-0.4,113.8,0.3
		c13.3,0.2,26.6-0.1,39.9,0.7l0.3,0.2c-1.1,0.8-2.4,0.4-3.6,0.4c-32.7,0-65.4,0-98.1,0c-65,0.1-130,0.1-195.1,0.2
		c-106.8,0-213.6,0-320.3-0.1c-30.5,0-61,0-91.5,0c-1.3,0-2.7,0.3-4-0.3c0.9-1.1,2.2-0.8,3.4-0.8c19.5,0,39,0,58.5,0
		C63.5,434.5,64.6,434.7,65.6,435.2z"/>
	<path id="Path_40130" class="st0" d="M466.1,36.4c2.1-0.1,1.8,2.1,2.9,3c-3.2,9.3-8.2,17.5-15.8,23.8c-8,6.6-15.9,4.9-21.4-4.4
		c-1.5-2.6-2.6-2.7-4.5-0.8c-1.2,1.1-2.4,2.1-3.7,3c-5.8,4.1-10.9,8.7-9.2,16.9c0.1,0.6-0.3,1.4-0.5,2.1c-0.8-4,0.8-8.1-0.9-12
		c-0.4-1.3,0.5-2.1,1.3-2.8c4.3-3.6,8.4-7.4,12.9-10.8c2.7-2,3.6-1.8,5.5,1.1c1,1.7,2.2,3.2,3.5,4.7c4.7,4.9,9.7,5.3,14.9,0.9
		c6.5-5.5,10.8-12.5,14.3-20.1C466.4,39.4,465.5,37.8,466.1,36.4z"/>
	<path id="Path_40131" class="st0" d="M693.2,127.1c-0.5,8.6-5,12.7-14.3,13.1c-6.8-1.2-11-5.9-10.9-12.5c0-6.1,4.5-11.3,10.6-12.1
		c6.6-0.9,11.9,2.5,14,9.1C692.8,125.4,693,126.3,693.2,127.1z"/>
	<path id="Path_40132" class="st0" d="M488.8,221.4c-0.9,1.1,0.7,1.7,0.6,2.6c-1.8,1-3.6,1.8-5.5,2.5c-1.4-1.1-2.8-2-4.5-0.5
		l-0.5-0.1c-0.5-0.2-1-0.4-1.2-0.8c-1.7-4.5-5.9-6.2-9.4-8.7c-4.8-3.5-8.4-8.2-11.7-13.1c-0.5-0.6-0.7-1.3-0.5-2.1l0.4-0.4
		c0.6-0.3,0.6-0.8,0.6-1.3c3.3,4.2,6.1,8.8,10.1,12.4c1.8,1.8,3.9,3.3,6.1,4.5c1.7,0.9,2.8,1,4.1-1c1.6-2.6,4.2-3.1,7-2.2
		c0.8,0.3,1.8,1.1,2.1-0.6c1.9,1.6-0.5,2.2-0.8,3.2c-1.5,0.5-3.1-0.4-4.8,0.3c1.4,0.4,3-0.3,4.2,0.7c1,1.4,2.6,0.7,3.9,1
		c0.4,1.8-0.9,1.7-2,1.6c-1.7-0.1-3.4,0.1-5.1,0.5c-0.9,0.2-2.2,0.3-1.9,1.7c0.3,1.3,1.4,1.6,2.6,1.3c1.4-0.4,2.6-1.3,4-1.7
		C487.4,221,488.2,221,488.8,221.4z"/>
	<path id="Path_40133" class="st0" d="M65.6,435.2c-17.8,0.1-35.6,0.1-53.4,0.2c-3.9,0-7.8,0.1-11.7,0.1c-1-1-0.4-1.5,0.7-1.5
		c1.4-0.1,2.9-0.1,4.3-0.2c19,0.1,38,0.1,57,0.2c1.1,0,2.3,0.2,2.3-1.5C65.9,433.2,65.4,434.3,65.6,435.2z"/>
	<path id="Path_40134" class="st2" d="M208.1,162.8c0-0.2,0.1-0.5,0-0.7c-3.3-6.6-1-12.2,2.6-18c16.4-27.3,38.6-48.8,65.4-65.7
		c30.5-19.2,63.9-30.3,99.3-35.9c10.4-1.7,20.8-2.8,32.1-3.5c-2.4,2.8-4.4,5.1-6.5,7.4c-8.2,9.1-16.3,18.2-24.6,27.2
		c-2.1,2.3-2.1,3.5,0.8,5.1c2.7,1.5,7.1,2.4,7.4,5.2c0.2,2.1-3.5,4.6-5.5,6.9c-12.1,13.8-23.8,27.9-34.8,42.6
		c-0.5,0.7-0.8,1.8-2.2,2c-1.1-5.8-2.2-11.5-3.4-17.3l-1.6,0.3c1.5,9.3,3.1,18.5,5.3,27.7c2.6,14,5.1,28.1,7.8,42.1
		c0.6,3.2,0.3,4.6-3.3,4c-0.7-0.1-1.5-0.1-2.2,0c-8.1,1.8-12.5-2.1-15.6-9.1c-2.2-5-5.3-9.6-8-14.3c-2.9-3.3-4.1-7.5-5.9-11.3
		c-4.3-9.1-7.7-18.5-10-28.3c-1.6-6.5-1.9-13.3-1.1-20c0.6-4.4,2.9-8,5.5-11.4c8.5-11.4,19-20.7,30.6-28.9
		c14.3-10.1,29.5-18.4,46.2-23.5c-22.5,7-42.1,19-59.9,34.3c-4.9,4.2-9.2,9.1-13.7,13.8c-8.7,9.3-10.9,20.1-8.4,32.3
		c2.7,13,7.4,25.3,13.1,37.3c1,2,3.2,3.8,1.8,6.6c-3.2,3.4-6.1,7-8.7,10.9c-2.1,4.8-5.7,8.5-8.7,12.6c-12.7,17.6-24.1,36-32.6,56
		c-1.6,3.8-2.6,4.1-5.8,1.4c-5.9-4.9-12-9.7-16.6-16c-0.6-0.7-1.1-1.6-1.5-2.5c-12.6-15.1-23.1-31.5-30.4-49.8
		C212.6,175.7,210.4,169.2,208.1,162.8z"/>
	<path id="Path_40135" class="st1" d="M91.3,433.9c-1.9-6-6.9-9-11.7-12.1c-2-1.3-2.8-2.4-2-4.9c2.3-6.8,4.1-13.8,6.3-21.1
		c2.7,2.8,4.3,5.8,6,8.6c1.3,2.2,2.4,2.4,4.6,0.9c15.4-10.6,29.3-22.9,42.8-35.7c11.3-10.7,21.8-22.2,32.6-33.4
		c18.8-11.7,38.3-22.1,58.9-30.1c12.4-4.8,25.2-8.7,38.5-10.3c21.9-2.6,42.6,1.1,60.8,14.4c2.7,1.9,5.6,3.7,5.3,7.7
		c-1.2,15.2-0.9,30.5-0.6,45.8c0.1,5.1,0.4,10.2,0.9,15.3c0.4,1.2,0.3,2.6-0.1,3.8c-1.6,1.4-2.1-0.3-2.6-1.2
		c-1.4-2.2-2.5-4.5-4.1-6.5c-9.9-13.3-27.2-18.7-42.9-13.3c-1.6,0.5-3.9,2.5-5,0.7c-1.1-1.9,1.5-3.3,2.8-4.6
		c11.3-11.4,22.7-22.7,34-34c3-3,3-3.1,0.1-6.1c-3-3-6.2-6-9-9.1c-2.1-2.3-3.5-2.1-5.6,0.1c-11.4,11.6-23,23-34.5,34.5
		c-24.4,24.4-48.8,48.8-73.2,73.2c-3.5,3.5-3.5,3.5,0,7c2.6,2.6,5.2,5.1,7.7,7.8c0.6,0.7,1.5,1.5,0.9,2.6c-0.5,0.9-1.5,0.7-2.3,0.8
		c-0.6,0-1.2,0-1.8,0c-34.1,0-68.3,0-102.4,0C94.1,434.6,92.5,435.1,91.3,433.9z"/>
	<path id="Path_40136" class="st2" d="M172.4,332.8c25.9-29.2,49.4-60.3,69.4-93.9c0.9-1.5,1.6-3,2.4-4.5c2.1-1.6,3,0.5,4,1.5
		c5.2,5.5,10.8,10.7,16.6,15.5c2.2,1.8,3.2,1.5,4.2-1c1.2-3.2,2.6-6.3,4.2-9.4c1.8-3.5,2.7-3.7,5.7-0.9
		c13.6,12.6,27.9,24.5,42.8,35.7c5.1,3.8,10.3,7.4,15.6,11c2.5,1.7,3.4,3.4,1.9,6.4c-2.3,5-3.8,10.4-4.5,15.8
		c-0.2,1.5-0.2,3.2-2,4.1c-2.9-0.5-4.8-2.9-7.1-4.4c-16.7-11.2-35.1-14.8-54.8-12.9c-23,2.1-44.1,10.4-64.6,20.4
		c-10.1,4.9-20,10.2-29.7,16C175.4,332.6,174.2,334.2,172.4,332.8z"/>
	<path id="Path_40137" class="st0" d="M91.3,433.9h111.2c-3.8-3.8-7-7-10.2-10.2c-4.1-4.2-4.4-3.1-0.1-7.5
		c36.2-36.2,72.4-72.4,108.5-108.6c2.5-2.5,3.9-2.7,6.3,0c3.3,3.7,6.7,7.1,10.4,10.4c2.2,2,2.3,3.3,0.1,5.5
		c-12.1,11.8-23.9,23.8-35.9,35.7c-0.9,0.9-2.2,1.5-2.9,2.8c5.6-1.6,10.9-3.3,16.6-3.3c16.2-0.1,28,7.2,35.8,21.3
		c0.6,1,0.7,2.4,1.9,3c1,1.6,0.3,3-0.5,4.4c-2.2,0.2-2.1-1.7-2.6-2.9c-5.1-12.4-14.2-20-27.3-22.6c-18.3-3.8-37.6,9.6-41.2,27.9
		c-3.8,19.6,8.9,38.5,28.5,42.3c2.7,0.5,5.5,0.7,8.2,0.6c17.9-0.5,33.9-16.6,34-34.5c0-2.5-0.9-5.2,1.1-7.3c2,0.8,1.5,2.6,1.5,4.1
		c0,3-0.1,6,1.1,8.9c-3,10.8-8.2,20.1-18,26.3c-1,0.7-2.1,1.3-3.1,1.9c-1.1,0.6-2.3,0.9-3.5,1c5.9-0.5,11.8-0.9,17.8,0.1
		c1,0.7,0.5,1.3-0.2,1.8c-1.2,0-2.4,0.1-3.7,0.1c-77,0-153.9,0-230.9,0c-1.2,0-2.4-0.1-3.7-0.1L91.3,433.9z"/>
	<path id="Path_40138" class="st0" d="M333,312.7c1.6-7.5,2.5-15.2,6.3-22.1c1-1.7-0.9-2-1.7-2.6c-16.2-11-31.7-22.9-46.4-35.8
		c-4.5-3.9-9-7.9-13.2-12.1c-2-1.9-2.8-1.5-3.7,0.8c-1.4,3.5-3.2,6.9-4.6,10.4c-1,2.7-1.9,3.4-4.6,1.4c-6.4-5.1-12.4-10.7-18-16.7
		c-0.7-0.8-1.1-2.4-2.8-1.5c0-1.1,1.1-1.7,1.4-2.6c5.9,6,11.6,12.2,18.2,17.4c3.4,2.7,3.4,2.7,5-1.1c10.4-24.2,24.7-46,40.7-66.7
		c0.4-0.4,0.8-0.9,1.3-1.2l0.9,1c0.5,2.1-1.1,3.4-2.2,4.8c-10.4,13.6-19.9,27.9-28.3,42.9c-3.8,6.7-4,6.8,1.7,12.2
		c14,13,28.7,25.2,44.3,36.3c4.2,3,8.2,6.2,12.6,8.9c2.5,1.6,3.2,3.5,1.8,6.2c-5.1,10-5.8,20.9-6.9,31.7c-0.9,9.9-1.1,19.8-0.7,29.7
		c0.3,10.6,1,21.2,1.9,31.8c0.2,2,0.9,4.2-1,5.8c-2.5-1.7-1.5-4.3-1.7-6.5c-0.1-1.8,0-3.6,0.1-5.4c0-0.3,0.1-0.6,0-0.9
		c-0.1,0.4,0,0.8-0.5,1.1c-1.1-5.2-1-10.4-1.2-15.6c-0.7-15.6-0.5-31.3,0.6-46.8C333.3,315.8,332,314.1,333,312.7z"/>
	<path id="Path_40139" class="st0" d="M333,312.7c-0.1,1.5,0.3,3.1-0.6,4.5c0.1-1.6-0.7-3.1-2-4c-10.3-8.4-22.7-13.9-35.9-16
		c-15.8-2.7-31.2-0.6-46.5,3.5c-18,4.9-34.9,12.5-51.3,21c-8.1,4.2-16,8.9-23.9,13.5c-0.9,0.7-1.9,1-3,0.9l2.6-3.3
		c7.6-4.1,15.2-8.3,22.9-12.3c19.1-10,38.7-18.8,60-23.4c22.5-4.9,44.5-4.1,65.3,7.2C325,306.7,328.9,309.8,333,312.7z"/>
	<path id="Path_40140" class="st2" d="M335.2,391.3c-0.6-9.6-1.1-19.3-1.7-28.9c-0.9-17.3-0.7-34.5,1.8-51.6
		c1-6.8,2.3-13.6,5.9-19.5c1.2-2,0.4-2.8-1.1-3.8c-18.8-12.6-36.7-26.5-53.5-41.7c-1.6-1.5-3.3-3-4.9-4.5c-5.4-5.1-5.4-5.1-1.7-11.7
		c8.8-16,18.9-31.2,30.1-45.6c0.7-0.9,1.2-1.8,1.8-2.7c1.6-1.6,2.6-0.2,3.6,0.7c7.5,6.9,15.1,13.9,22.6,20.9c1,0.9,2,1.8,3,2.6
		c2.3,0.6,3.6,2.5,5,4.1c8.6,9.7,17.3,19.3,26,28.8c5.3,5.9,9.7,12.6,13,19.9c1.8,4.3,2.5,9,1.8,13.7c-1.2,10.7-2.2,21.3-3.3,32
		c-0.9,8.6-1.7,17.2-2.5,25.8c-1.1,10.9-2.2,21.8-3.3,32.7c-0.9,8.6-1.8,17.2-2.5,25.8c-0.3,3.5-1,7-0.9,10.6c-1,2,0.1,4.5-1.9,6.2
		c-0.9,0.4-1.9,0.6-2.8,0.5c-10.8-0.1-21.7,0.4-32.5-0.3c-2-0.7-1.2-2.8-2-4c-0.3-2.5,0.2-5.1-0.4-7.6
		C334.5,392.8,334.7,392,335.2,391.3z"/>
	<path id="Path_40141" class="st2" d="M487.4,229.5c5.3,1.6,8.6,5.9,12.6,9.2c1.1,0.7,2.2,1.4,3.4,1.9c-0.5,2.3-2.4,1.7-3.8,1.8
		c-5.4,0.1-10.8,0.1-16.2,0.1c-23,0-46,0-69,0c-4.6,0-4.6,0-4.6,4.7c0.1,49.6-0.1,99.1,0.1,148.7c0,10.8,0,21.5-0.1,32.3
		c0,6.8-2.4,8.2-8.6,5c-0.5-0.3-1.1-0.6-1.6-0.9c-0.9-0.6-1.7-1.3-2.4-2.1c-8-8-12.5-18-16.5-28.3c-2-5.1-4.7-10-5.4-15.6
		c1.8-20.2,4.1-40.3,6-60.5c1.8-18.7,3.8-37.4,5.6-56.1c0.5-5.6-1-11.1-4.2-15.7c-5.5-8.6-10.3-17.7-14.2-27.2
		c-1.1-2.4-2.4-4.8-3.9-7.1c-0.8-1.4-1.9-2.9-0.9-4.8c7-16.6,13.9-33.1,20.9-49.7c3.1-7.4,6.2-14.9,9.4-22.6
		c4.8,7.6,9.3,14.9,13.9,22c7.2,11.2,15.1,22,23.6,32.3c0.8,0.9,1.7,1.7,2.5,2.6c7,5.9,12.8,13,20,18.7c7.4,5.8,16.2,9.3,25.4,10.4
		C482.3,228.9,484.8,229.3,487.4,229.5z"/>
	<path id="Path_40142" class="st2" d="M466.1,36.4c1.3,1,1.5,2.9,0.7,4.2c-3.3,7.1-7.1,13.9-12.9,19.4c-8,7.7-15.2,6.7-20.9-2.8
		c-2.5-4.1-2.5-4.2-6.4-1.1c-4.8,3.6-9.3,7.5-13.5,11.8l-3,3.4c-1.6,0.2-1-0.9-1-1.6c0.6-9.6,1.2-19.1,1.7-28.7
		c0.1-1.8,0.7-2.5,2.5-2.7c2.3-0.1,4.6-0.8,6.6-1.9c4.9-1.7,9.8-3.6,14.8-5.2c2.9-0.9,3.9-2.8,3.2-5.6c-0.4-1.7-0.7-3.4,1.5-3.8
		c2.2-0.5,3.5,0.9,3.9,2.9c0.3,1.6,0.2,3.2-0.2,4.7c-0.3,1.1-1.2,2.4,0.2,3.3c1.3,0.8,2.4-0.2,3.4-0.8c2.3-1.4,4.5-3,6.6-4.7
		c1.3-1.1,2.1-1,3.3,0.1C459.5,30.5,462.9,33.4,466.1,36.4z"/>
	<path id="Path_40143" class="st2" d="M344,142.1c-2-2.1-0.9-3.9,0.5-5.8c13-17.5,26.9-34.3,41.6-50.4c2.2-2.5,2-3.5-0.8-5
		c-2.7-1.5-7.1-2.5-7.5-5.2c-0.3-2,3.5-4.6,5.5-6.9c8.1-9,16.2-18,24.3-27c0.3-0.2,0.7-0.5,1.1-0.6c-0.5,10.6-0.9,20.9-1.4,31.1
		c-1.3,13.9,0.2,11.5-12.1,21.6C377.1,108.9,360,124.9,344,142.1z"/>
	<path id="Path_40144" class="st0" d="M363.9,214.9c0.3,3.2,2.7,5.4,4,8.1c1,2.2,2.5,4.2,3.3,6.5c3.1,8.6,7.8,16.2,12.4,24
		c3.4,5.4,4.8,11.9,4.1,18.2c-4.1,38.6-7.8,77.1-11.6,115.7c-0.5,2.7,1.8,5.7-0.7,8.3c-0.5,0-1,0-0.7-0.7c-0.9,0.1-0.1,0.5-0.1,0.7
		c0.1,1.2,0.7,2.6-1.3,2.9c0.2-9.1,1.6-18,2.5-27c2.2-23.7,4.7-47.4,7.1-71.2c1-10,1.9-20,3-29.9c0.5-4.4-0.3-8.8-2.3-12.8
		c-3.1-6.8-7.3-13-12.3-18.6c-10.2-11.2-20.3-22.5-30.4-33.8c0.7-0.4,0.8-1,0.9-1.7c3.6,1.2,5.2,4.6,7.5,7.1
		c6.8,7.5,13.8,14.8,20.5,22.8c-1.7-4.7-4.2-8.5-6.3-12.5c-0.7-1.2-1.8-2.4-1.1-4L363.9,214.9z"/>
	<path id="Path_40145" class="st3" d="M362.5,217.1c2.9,6.2,7.3,11.6,9,19.4l-29.6-32.8l-5.9-9.9c5,0,9.6,0,14.1,0
		c1.6,0,1.6,1.3,1.9,2.2C354.2,203.7,358.2,210.5,362.5,217.1z"/>
	<path id="Path_40146" class="st0" d="M319.6,169.3c-3.3-7.6-6.7-15.2-9.8-22.9c-3.6-8.8-6-18.1-7-27.6c-1-9.9,2.5-18.2,9-25.5
		c19.9-22.9,45.8-39.9,74.8-49c0.1,0,0.2-0.1,0.3-0.1c1.1-0.2,2.8-1.3,3.1,0.2c0.3,1.5-1.7,1.3-2.8,1.6
		c-30.3,9.8-55.8,26.7-76.2,51.2c-6.8,8.1-7.3,17.3-5.7,27c2.3,13.6,7.7,26.2,13.5,38.6c0.9,1.8,2.1,3.6,2.3,5.7L319.6,169.3z"/>
	<path id="Path_40147" class="st0" d="M487.4,229.5c-12.3,0.7-23.4-2.5-33.1-10.2c-7.5-5.7-14.1-12.3-19.9-19.8c1.3,0.1,2,1.3,3.9,1
		c6-0.6,12.2-1.2,18.3,0.3l-0.2,0.3c-3,1.6-6.2,0.5-9.3,0.8c-2,0.2-4.1,0-6.5,0.1c0.8,1.7,1.9,3.2,3.4,4.4c5,5.2,10.6,9.7,16.6,13.7
		c4.7,3,9.6,5.4,15.4,4.9c1.1-0.1,2.2,0.2,3.2,0.7c0.1,0.1,0.2,0.2,0.4,0.3C481.5,228.6,484.7,228.4,487.4,229.5z"/>
	<path id="Path_40148" class="st2" d="M523.6,240c9.1-5.2,13.2-13.7,15.2-23.4c2.1-10.4,1.9-10.3-8.6-10.5c-2.2,0-4.6,0.9-6.7-0.8
		c0-4.5-2.7-7.4-6.2-9.8c-4.1-2.8-8.8-4.2-13.5-5.7c-3-1-6.1-1.9-9-3.2c-3.1-1.4-6.5-2.9-6.6-7c-0.2-4.3,3-6.2,6.2-7.8
		c5.6-2.9,11.7-4.2,17.8-5.4c15-2.9,30.3-4.1,45.4-6.4c5.9-0.9,11.9-1.9,17.4-4.3c2.7-1.2,5.5-2.6,5.6-6.1c0.1-3.4-2.4-5.2-5.1-6.6
		c-9.4-4.9-19.7-6.5-29.8-8.7c-12.3-2.7-24.8-4.7-36.7-8.9c-3-1-5.9-2.4-8.4-4.3c-4.2-3.3-4-6.5,0.6-9.2c5.9-3.4,12.4-5.1,18.9-6.8
		c19.8-5.2,39.8-9,59.4-15c5-1.5,10-3.3,15-5c1.5-0.5,2.6-0.6,3.9,0.6c20.7,19.2,44.1,35,66.8,51.5c4.2,3,8.3,6.1,12.4,9.1
		c0.8,1.7-0.6,2.5-1.4,3.4c-19.3,24-38.7,48-58.1,72c-4.5,5.6-9.2,11.1-13.6,16.8c-0.8,1.2-2,2.2-3.3,2.8c-25.5,0-51,0.1-76.5,0.1
		c-0.5,0.1-1,0-1.4-0.1C522.3,240.7,523.5,240.5,523.6,240z"/>
	<path id="Path_40149" class="st1" d="M676.7,243.9c-0.3-0.5-0.5-1.1-0.7-1.6c-0.8-2.8-2.4-3.7-5.1-2c-1.1,0.5-2.2,1-3.4,1.3
		c-19.7,0.3-39.4,0.1-59.1,0.1c-1.4,0-3.3,0.4-4.1-1c-0.9-1.7,0.8-2.9,1.8-4.1c17.6-21.7,35.2-43.5,52.8-65.3
		c5.8-7.2,11.7-14.4,17.4-21.7c0.9-1.1,1.8-2.5,3.6-1.6c15.1,10.6,29.7,22.1,43.5,34.3c0.8,0.7,1.6,1.4,2.4,2.2
		c0.5,1.6,0.7,3.4,0.7,5.1c0,15.7,0,31.3,0,47c0,6.6-0.9,7.5-7.4,7.5C705.1,244,690.9,244.3,676.7,243.9z"/>
	<path id="Path_40150" class="st3" d="M602.8,273c4.8-3.4,10.5-5.1,15.8-7.5c17.4-7.8,34.9-15.4,52.3-23.2c2.1-0.9,2.8-0.6,3.7,1.5
		c16.4,37.3,32.8,74.5,49.3,111.7c6.3,14.3,12.5,28.7,19,42.9c1.4,3,0.8,4.1-2,5.3c-21.1,9.2-42.1,18.5-63.1,27.7
		c-1.1,0.5-2.1,1.1-3.2,1.7c-0.3,0.2-0.7,0.3-1,0c-2.9-3-3.8-7.1-5.5-10.7c-13.2-29.8-26.3-59.8-39.5-89.6
		c-7.6-17.2-15.3-34.4-22.8-51.6c-0.4-0.9-0.9-1.8-1.4-2.6C603.3,276.8,602.1,275.2,602.8,273z"/>
	<path id="Path_40151" class="st2" d="M676.7,243.9c0.7-1.9,2.3-1,3.5-1.1c13.7-0.1,27.4-0.1,41.1,0c3.3,0,4.4-0.7,4.4-4.2
		c-0.2-16.7-0.1-33.5-0.1-50.2c0-1.3-0.4-2.7,0.5-3.9c13.1,12.1,25.5,24.7,34.1,40.6c15.7,28.7,8.3,58.2-18.9,76.4
		c-9,6-18.8,10.5-28.6,14.9c-2.5,1.1-3.7,0.8-4.8-1.9C697.5,290.9,687.1,267.4,676.7,243.9z"/>
	<path id="Path_40152" class="st0" d="M674.2,433.1c0.1-0.1,0.2-0.1,0.3-0.1c0,0,0.1,0,0.1,0.1c2.2,1.6,4.7,1.6,7.2,1.6
		c9.1-0.1,18.3,0,27.4,0c1.2,0,2.4-0.5,3.5,0.5c-1.2,0-2.4,0.1-3.7,0.1c-101.7,0-203.4,0-305,0c-1.3,0-2.7-0.1-4-0.1
		c-0.7-1.3-2-2.4-0.7-4c2.5,0.9,4.6,2.7,7.5,2.7c1.5,0,2.3-0.3,2.2-2c-0.1-1.1,0-2.2,0-3.3V246.1c0-4.7,0-4.7,4.8-4.7
		c28.5,0,57,0,85.6,0c1.4,0,2.9,0.7,4.1-0.7c1.2,1.7,3.3,2.6,5.3,2.2c4.1-0.4,8.4,0.8,12.4-0.7c25.8,0,51.7,0.1,77.5-0.1
		c3.4,0,4.8,0.9,3.5,5.5c0.4-4.3-1.4-4.8-4.2-4.8c-10,0.2-20.1,0.1-30.1,0c-2.2,0-3.4,0.4-3.3,3c0.1,10.7,0,21.3,0.1,32
		c0,0.9-0.2,2,1.1,2.4c1.2-1.1,2.7-1,4.2-1c9,0,18.1,0,27.1,0c1.5,0,3-0.1,4.2,1c1.7-0.7,0.8-2.3,1.1-3.5c0.2-1.3-0.5-2.7,0.8-3.7
		l2.3,4.9c-1,2.2-1.1,4.8-2.6,7.3c-1.8-3.2-4.6-3.1-7.4-3.1c-8.4,0.1-16.9,0-25.3,0c-3.8,0-4.2,0.4-4.2,4.2c0,9.3,0.1,18.6-0.1,27.8
		c0,3,1,4.1,4.1,4.1c9.3-0.1,18.6,0,27.8,0c1.1,0.1,2.2-0.1,3.2-0.6c0.8-0.5,1.6-2.4,2.8-0.3c0.8,1.5,0.4,6-0.7,6.2
		c-1.4,0.3-1.5-1.4-2.5-1.8c-1-0.5-2.1-0.7-3.2-0.6c-8.8,0-17.6,0-26.3,0c-1.4,0-3.1-0.3-3.5,1.8c-0.2,0.8-0.9,1.4-1.7,1.5
		c-3.6,0.2-6.9-1.4-10.4-2.1c-14-2.8-27.1-0.1-39.1,7.1c-26.4,15.9-35,50.1-19.1,76.5c13,21.6,38.9,31.8,63.1,24.9
		c1.2-0.4,2.4-0.7,3.6-0.7c1-0.1,2,0.4,2.5,1.2c0.1,0.4,0.1,0.7,0.1,1.1c0.4,1.2,1.4,1.2,2.4,1.2c9.8,0,19.6,0,29.4,0
		c1.2,0,2.4-0.1,2.8-1.3c1.5-4,2.4-1.5,3.4,0.2c0.3,0.3,0.7,0.5,1,0.7c1.3,0.4,2.7,0.5,4,0.3c19.2,0,38.3,0,57.5,0.1
		C669.2,433.7,671.6,432.7,674.2,433.1z"/>
	<path id="Path_40153" class="st2" d="M576.2,45.9c0.1-13.5,10-23.5,25-25.5c14.8-1.9,28,6.2,31.3,19.4c2.4,9.5,0.3,17.9-6.6,25
		c-7.6,7.8-17.1,12.4-27,16.5c-1,0.5-2.2,0.2-2.9-0.7c-7.1-7.3-13.9-14.8-17.9-24.4C576.7,53,576.1,49.5,576.2,45.9z"/>
	<path id="Path_40154" class="st2" d="M601,280.2c-11.8-0.3-23.6-0.3-35.4,0c-0.5-1-0.7-2.1-0.6-3.2c0-10.1,0.1-20.3-0.1-30.4
		c0-2.6,0.8-3.2,3.3-3.2c10.1,0.1,20.3,0.1,30.4,0c1.7,0,3.1-0.2,3,2.3c-0.5,8.6,0.6,17.2-0.6,25.9
		C600.7,274.4,602.3,277.3,601,280.2z"/>
	<path id="Path_40155" class="st2" d="M664.1,243.3c-18.7,8.2-37.3,16.4-56,24.6c-4.6,2-4.6,2.1-4.6-3.1c0-7.3,0.1-14.7,0.1-22
		c1.1-1.2,2.7-1.1,4.1-1.1c17.3,0,34.5,0,51.8,0C661.2,241.8,663.1,241.5,664.1,243.3z"/>
	<path id="Path_40156" class="st0" d="M664.1,243.3c-0.7-0.5-1.6-0.7-2.4-0.6l-58,0.1c-0.3-1.3-1.3-1.5-2.4-1.6
		c24.8-30.7,49.5-61.4,74.3-92.1c0.8-0.9,1.4-2,2.1-2.9c0.9,0.3,1.8,1,2.3,1.8c-4.2,1.7-5.9,6-8.6,9.2
		c-9.8,11.8-19.2,23.9-28.8,35.8c-10,12.4-20,24.8-30,37.2c-2.7,3.3-5.4,6.5-8.7,10.5h58.6c1.7,0,3.4-0.2,5,0.8L664.1,243.3z"/>
	<path id="Path_40157" class="st2" d="M488.8,221.4c-1.8,0.7-3.5,1.5-5.2,2.4c-2.3,1.4-3.6,0.3-4.6-1.6c-0.9-1.7-0.7-2.7,1.5-2.9
		c2.7-0.2,5.3-1.6,8.1-0.5c0.2-0.3,0.3-0.6,0.5-0.9c1.8-0.7,3.7-1.1,5.6-1.1C493.1,219.2,490.5,219.8,488.8,221.4z"/>
	<path id="Path_40158" class="st2" d="M483.9,226.6c1.2-2.1,3-3.1,5.5-2.5c0,0.7,0.3,1.4,0.9,1.9c0.6,1,0.2,1.7-0.9,1.8
		c-1.2,0.2-2.4,0.2-3.6-0.2L483.9,226.6z"/>
	<path id="Path_40159" class="st2" d="M485.1,217l-6.4,0.9c1.6-3.6,3-3.9,7.1-1.9L485.1,217z"/>
	<path id="Path_40160" class="st0" d="M485.9,227.5c1.5-0.4,3.9,1.6,4.4-1.5c1.1,0.8,0.8,2.1,1.1,3.3
		C489.9,227.5,487.5,228.9,485.9,227.5z"/>
	<path id="Path_40161" class="st0" d="M399.2,431.2c-0.7,1.5,1.8,2.4,0.7,4h-71.2c0.2-0.5,0.4-0.9,0.6-1.4c-0.6-0.9-0.7-2.1-0.2-3.2
		c2.9-8.4,5-17.1,6-26c-2.8-4.1-0.1-9.2-2.2-13.4c-1.5-0.9-1.7-2.1-0.8-3.5c0.3-1.6,0.5-3.1,0.8-4.7c0-1.1-0.1-2.3-0.1-3.4
		c0.3-1-0.3-2.2,0.7-3.4c0.2,5.1-0.2,10.1,1.5,14.9l0.1,2c0.9,2.5-0.5,5.2,0.8,7.6c0.2,1.3-0.8,2.8,0.7,3.9
		c11.7,0.4,23.3,0.1,35,0.1c0.4,0,0.7-0.2,0.9-0.5c0.1-1.9-0.5-4,0.7-5.8c1.5-1.1,0.4-3,1.3-5c0.1,1.1,0.2,1.7,0.3,2.2
		c1.4,3.5,0.3,6.8-0.6,10.2c-1.9,1.5-4.2,0.7-6.4,1c-1.8,0.2-3.7-0.4-5.4,0.5c-1.2,1.9,0.2,3.3,1.1,4.6c2.2,2.9,5.2,4.7,8.4,6.3
		c5.1,2.4,10.3,4.4,15.7,6c3.6,1.2,7.1,2.6,9.9,5.2L399.2,431.2z"/>
	<path id="Path_40162" class="st3" d="M691.1,128c0,5.9-4.8,10.6-10.7,10.5c0,0-0.1,0-0.1,0c-5.9-0.1-10.6-5-10.4-10.9
		c0.1-5.8,4.9-10.4,10.7-10.4C686.4,117.2,691.1,122.1,691.1,128C691.1,128,691.1,128,691.1,128z"/>
	<path id="Path_40163" class="st3" d="M479,225.7c-7.1,1.7-13.2-1.1-19-4.7c-8.3-5.2-15.2-12.1-22.2-19.9h18.5
		c4.8,7.4,9.8,14.7,18.6,18c1.7,0.7,1.3,2.2,1.9,3.2C477.6,223.5,478.3,224.6,479,225.7z"/>
	<path id="Path_40164" class="st2" d="M332.2,387.8c-0.3,1.2,0,2.5,0.8,3.5c0.9,10.1-0.8,19.4-7,27.8c-12.1,16.3-35,19.7-51.3,7.6
		c-10.3-7.7-15.9-20.2-14.7-33c1.8-16.8,14.2-30.1,30.5-32.7c17.7-3,35,7.4,40.9,24.4C331.6,386.2,331.9,387,332.2,387.8z"/>
	<path id="Path_40165" class="st2" d="M204.8,433.3c-0.8-0.7-1.4-1.2-2-1.8c-3-3-5.9-6.2-9.1-9c-2.2-1.9-2-3.1,0-5.1
		c23.9-23.7,47.7-47.5,71.5-71.3c12.2-12.2,24.5-24.3,36.6-36.6c1.9-1.9,2.8-1.8,4.5,0.1c2.8,3.1,5.7,6.1,8.8,8.8
		c2.2,1.9,2.1,3,0.1,5.1c-23.3,23.1-46.5,46.3-69.6,69.5c-12.7,12.7-25.5,25.4-38.2,38.1C206.5,431.8,205.6,432.5,204.8,433.3z"/>
	<path id="Path_40166" class="st1" d="M207.9,433.7l54.1-54.2c-4.6,10.7-5.6,21.1-1.4,31.6c4.1,10.5,11.6,17.6,22,22.1
		C279.9,434.1,215.6,434.5,207.9,433.7z"/>
	<path id="Path_40167" class="st0" d="M335.2,404.7c1,8.7-2.1,16.6-4.6,24.6c-0.5,1.5-0.8,3.1-1.2,4.6h-19.7
		c2.7-1.4,4.8-2.4,6.8-3.6c8-4.8,14-12.4,16.8-21.3C333.7,407.5,333.6,405.7,335.2,404.7z"/>
	<path id="Path_40168" class="st0" d="M372.7,404.4c-0.4,1-1.3,0.9-2.2,0.9c-10.7,0-21.4,0-32.1,0c-0.6-0.1-1.1-0.3-1.7-0.6
		c10.7,0,21.3,0.1,32,0.1C370,405,371.4,404.8,372.7,404.4z"/>
	<path id="Path_40169" class="st0" d="M336.1,400.9c-1.7-2.4-0.6-5-0.8-7.6C336,395.7,336.2,398.3,336.1,400.9z"/>
	<path id="Path_40170" class="st1" d="M374,406l1.1-10.1c1.2-2.7,0.3-5.7,1.2-8.4c4.2,10.9,8.1,21.9,14,32c2.2,3.6,4.8,7,7.7,10.1
		c-8.3-4.4-17.7-6.2-26-10.4c-5.3-2.7-10.5-5.5-10.9-12.5c3-0.9,6-0.2,9-0.4C371.3,406.2,372.7,406.7,374,406z"/>
	<path id="Path_40171" class="st0" d="M601,320.2c1.6,0.3,0.7,1.9,1.6,2.9v-6.3c-0.6,1.9-1.6,2.6-3.3,2.6c-10.6-0.1-21.3-0.1-31.9,0
		c-2,0-2.8-0.6-2.8-2.7c0.1-10.9,0.1-21.8,0-32.7c0-2.3,0.9-2.9,3.1-2.9c10.5,0.1,21.1,0.1,31.6,0c2.2,0,3.2,0.7,3.1,3.1
		c1.1-2.2-0.7-5.4,2.8-6.2c5.1,11.5,10.3,22.9,15.4,34.4c17.2,39,34.4,78,51.6,117c0.6,1.3,1.4,2.6,2.1,3.8
		c-2.1,1.5-4.4,1.6-6.9,1.6c-19.9-0.1-39.8,0-59.7-0.1c-1.4,0-3,0.7-4-0.9c1.6-1.3,3.5-0.9,5.3-0.9c18.9,0,37.7,0,56.6,0
		c4.7,0,4.9-0.3,3-4.7c-21.4-48.3-42.7-96.7-64-145c0.1,1.3,0.2,2.7,0.1,4c0,46.9,0,93.8,0,140.6c0,2,0.5,4.2-0.9,6
		c-1.3-0.5-0.6-1.9-1.7-3.9c0.7,4.7-1.4,4.8-4.1,4.8c-10.1-0.1-20.3-0.1-30.4-0.1c-2,0-4-0.1-2-2.9c0.8,1.2,2.1,1,3.3,1
		c9.3,0.1,18.6,0,27.8,0.1c2.4,0,3.6-0.7,3.6-3.3c-0.1-9.6,0-19.3-0.2-29c-3.5,7.6-8.5,14.4-14.6,20.1c-4.6,4.3-10,7.9-15.7,10.6
		c-1.2,0.5-2.4,1.4-3.7,0.3c-0.6-0.8-1.5-0.6-2.3-0.7c0.4-2.2,2.5-2.2,3.9-2.8c17.5-8.2,28.3-21.6,32-40.6
		c4.5-23.2-5.7-45.3-25.3-57.7c-2.2-1.5-4.6-2.8-7.1-3.8c-1-0.4-2.1-0.8-2.2-2.1c0.7-0.1,1.3-0.2,1.7-0.9c1.7-1,3.1,0.2,4.4,0.8
		c11.6,5.5,21,14.8,26.7,26.3c0.5,1.4,1.3,2.6,2.2,3.8c0.4-4.6,0.1-8.9,0.2-13.2c0.1-5.5,0-11,0-16.5
		C600.3,322.7,600.1,321.4,601,320.2z"/>
	<path id="Path_40172" class="st0" d="M696.8,399.4c0.8-0.3,1.6-0.6,2.4-0.9c1.6-0.6,2.2-1.2,1.4-3.2c-2.7-6.5-2.5-6.5,4-9.4
		c0.6-0.2,1.1-0.5,1.7-0.8c2.7-1.8,4.2-1.2,5.4,1.9c1.9,4.9,4.1,9.7,6.3,14.4c1.1,2.2,0.5,3.2-1.6,4.1c-7.4,3.2-14.8,6.5-22.1,9.8
		c-1.9,0.9-2.7,0.3-3.5-1.6c-1.2-2.6-2.3-5.3-3.7-7.9c-1.6-3,1.6-2.8,3.2-3.6C691.9,400.2,694.4,399.9,696.8,399.4z"/>
	<path id="Path_40173" class="st0" d="M636.6,302.1c1.5-0.3,1.8,0.8,2.2,1.6c7.8,17.7,15.6,35.3,23.4,53c0.7,1.7,0.6,2.7-1.3,3.4
		c-2.5,1-5,2.1-7.4,3.3c-2,1-3,0.6-3.9-1.5c-4.7-11-9.6-21.9-14.5-32.9c-2.8-6.4-5.5-12.8-8.5-19.1c-1-2.2-0.6-3.3,1.6-4.2
		C631.2,304.6,633.9,303.3,636.6,302.1z"/>
	<path id="Path_40174" class="st0" d="M699.9,364.2c0.7-0.2,1.4,0,1.7,0.7c0.2,0.3,0.4,0.6,0.5,1c1.2,3.3,4.6,6.8,3.5,9.6
		c-1.3,3.2-6.4,3.3-9.6,5.1c-1.4,0.8-2,0-2.5-1.1c-1.3-2.9-2.6-5.8-3.9-8.6c-0.4-0.8-0.5-1.7,0.5-2.2
		C693.4,367,696.8,365.6,699.9,364.2z"/>
	<path id="Path_40175" class="st0" d="M694.5,307.7c0.2,1-0.4,1.9-1.4,2.2c-2.8,1.2-5.6,2.4-8.4,3.7c-1.5,0.7-2.2,0.3-2.8-1.1
		c-1.3-3.4-4.8-7-3.7-9.9c1.1-2.9,6.1-3.3,9.4-4.9c0.8-0.4,1.8-0.9,2.3,0C691.6,301.1,693.1,304.5,694.5,307.7z"/>
	<path id="Path_40176" class="st0" d="M690.9,381.3c0.2,0.6-0.1,1.3-0.6,1.7c-0.4,0.2-0.9,0.5-1.3,0.6c-10.1,4.9-10.4,4.7-14.3-5.9
		c-0.6-1.7-0.1-2.3,1.3-3.1c9.8-5.1,11-4.7,14.6,5.7C690.7,380.8,690.9,381.1,690.9,381.3z"/>
	<path id="Path_40177" class="st0" d="M716.3,388.9c-0.4-0.2-0.7-0.5-0.9-0.9c-0.3-0.5-0.6-1.1-0.8-1.6c-4.6-10.2-4.6-10.2,6-14
		c1.6-0.6,2.5-0.4,3.1,1.2c0.1,0.3,0.2,0.7,0.4,1c4.4,10.2,4.3,10.4-6.5,13.8C717.2,388.6,716.9,388.7,716.3,388.9z"/>
	<path id="Path_40178" class="st0" d="M644.7,280.5c1-0.3,2,0.3,2.3,1.2c0,0.1,0,0.1,0,0.2c1.2,2.7,2.3,5.4,3.5,8
		c0.8,1.7,0.5,2.7-1.3,3.4c-2.7,1.1-5.4,2.2-8,3.5c-1.5,0.7-2.2,0.4-2.8-1.1c-0.4-1-0.9-2-1.3-3c-1-2.4-3.8-5.7-2.3-7.1
		C637.6,282.9,641.7,281.9,644.7,280.5z"/>
	<path id="Path_40179" class="st0" d="M630.1,287c1-0.2,1.4,0.5,1.7,1.2c0.5,1,0.9,2,1.3,3c0.9,2.5,3.9,5.4,2.4,7.3
		c-2.3,3-6.8,3.5-10.3,5.2c-0.6,0.3-1.2-0.1-1.5-0.7c-0.3-0.6-0.5-1.1-0.8-1.7c-4.8-10.4-4.8-10.4,6.2-13.9
		C629.6,287.3,629.9,287.1,630.1,287z"/>
	<path id="Path_40180" class="st0" d="M672.8,299.4c0.2,0.6-0.1,1.4-0.7,1.6c-0.5,0.3-1.1,0.5-1.7,0.8c-9.8,4.5-9.7,4.5-13.7-5.5
		c-0.7-1.8-0.6-2.7,1.4-3.7c9.8-4.7,9.8-4.8,14,5.2C672.3,298.4,672.6,299,672.8,299.4z"/>
	<path id="Path_40181" class="st0" d="M651.4,295.6c1.8-0.3,1.9,0.8,2.4,1.6c5.1,9.8,4.8,10.7-5.7,14.5c-1.6,0.6-2.5,0.4-3.1-1.3
		c-0.4-1-0.9-2-1.2-3c-0.8-2.3-3.7-5.1-2.2-6.9C644,297.7,648.4,297.2,651.4,295.6z"/>
	<path id="Path_40182" class="st0" d="M682.2,350.7c-1.5,0.2-1.7-0.7-2-1.5c-1.2-2.7-2.3-5.4-3.6-8c-0.9-1.8-0.3-2.7,1.4-3.4
		c0.9-0.3,1.8-0.8,2.7-1.1c2.4-0.8,5.3-3.8,6.9-2.3c2.8,2.5,3.6,6.8,5.1,10.4c0.1,0.5-0.1,0.9-0.5,1.2
		C688.8,347.6,685.4,349.2,682.2,350.7z"/>
	<path id="Path_40183" class="st0" d="M669.4,320.4c-1.9,0.4-2.2-0.5-2.5-1.3c-1.4-3.3-4.8-7-3.7-9.9c1.1-3,6.1-3.2,9.3-4.9
		c1.7-0.9,2.5-0.2,3,1.3c0.4,0.9,0.8,1.8,1.2,2.7c0.7,2.5,4,5.5,2.3,7.2C676.4,318,672.2,319,669.4,320.4z"/>
	<path id="Path_40184" class="st0" d="M707.9,338c0,1.3-0.7,1.6-1.5,2c-2.7,1.2-5.4,2.3-8,3.6c-1.8,0.9-2.6,0.3-3.3-1.4
		c-1-2.6-2.1-5.2-3.4-7.7c-0.9-1.8-0.3-2.6,1.4-3.3c2.6-1,5.2-2.1,7.7-3.4c1.8-0.9,2.6-0.4,3.3,1.3
		C705.2,332.2,706.6,335.2,707.9,338z"/>
	<path id="Path_40185" class="st0" d="M633.5,282.2c-0.4-0.2-0.9-0.5-1.2-0.9c-0.2-0.3-0.4-0.6-0.5-1c-5.2-9.7-4.7-10.9,5.6-14.6
		c1.9-0.7,2.7-0.2,3.3,1.5c0.4,1.1,1.1,2.2,1.4,3.4c0.7,2.2,3.5,5,1.9,6.5C641.1,279.5,637.1,280.5,633.5,282.2z"/>
	<path id="Path_40186" class="st0" d="M660.3,273.7c0.6-0.1,1.3,0.2,1.5,0.8c0.3,0.5,0.5,1.1,0.8,1.7c4.7,10.2,4.6,10.2-6.2,13.9
		c-1.5,0.5-2.3,0.3-2.8-1.1c-0.2-0.5-0.4-0.9-0.6-1.3c-4.3-9.7-3.7-10.7,6.7-13.6C659.9,273.9,660.1,273.8,660.3,273.7z"/>
	<path id="Path_40187" class="st0" d="M663,362.5c1.6-0.3,1.9,0.5,2.2,1.3c1.2,2.8,2.4,5.6,3.7,8.4c0.7,1.5,0.2,2.3-1.1,2.8
		c-2.7,1.2-5.4,2.3-8,3.5c-1.8,0.9-2.7,0.3-3.3-1.5c-0.3-0.8-0.7-1.6-1-2.4c-0.9-2.5-3.9-5.5-2.4-7.2
		C655.4,364.6,659.8,364,663,362.5z"/>
	<path id="Path_40188" class="st0" d="M629.3,282.3c0.2,0.9,0,1.5-0.6,1.8c-0.3,0.2-0.6,0.3-1,0.5c-9.5,5.1-11.2,4.4-14.7-5.8
		c-0.5-1.5-0.3-2.3,1.1-2.9c2.8-1.2,5.6-2.5,8.4-3.7c0.8-0.3,1.8-0.8,2.3,0.3C626.4,275.9,627.9,279.2,629.3,282.3z"/>
	<path id="Path_40189" class="st0" d="M681.3,278.1c0,1.1-1,1.3-1.7,1.6c-9.5,5.2-11,4.6-14.6-5.6c-0.6-1.6-0.3-2.5,1.2-3.1
		c0.5-0.2,0.9-0.4,1.3-0.6c2.9-1,6.3-4.4,8.5-3c2.9,1.9,3.3,6.5,5,9.9C681.2,277.7,681.3,277.9,681.3,278.1z"/>
	<path id="Path_40190" class="st0" d="M695,312.4c1.2-0.3,1.6,0.1,1.8,0.7c0.3,0.6,0.6,1.3,0.9,2c4.4,10.2,4.4,10.1-6.3,13.5
		c-1.4,0.5-2.3,0.4-2.9-1.1c-1.2-2.8-2.4-5.6-3.6-8.4c-0.3-0.8-0.9-1.7,0.1-2.2C688.5,315.2,691.9,313.7,695,312.4z"/>
	<path id="Path_40191" class="st0" d="M685.9,329c0.4,1.6-0.3,2.1-1.1,2.4c-3.4,1.3-7,4.7-10,3.7c-3.1-1.1-3.3-6.1-5-9.3
		c-0.7-1.4-0.3-2.3,1.1-2.9c2.8-1.2,5.6-2.4,8.4-3.7c0.8-0.3,1.8-0.7,2.3,0.3C683.2,322.8,684.6,326.2,685.9,329z"/>
	<path id="Path_40192" class="st0" d="M709,342.3c0.4,0.2,0.7,0.5,1,0.8c0.3,0.5,0.6,1.1,0.8,1.6c4.7,9.9,4.2,10.9-6.3,14.1
		c-1.4,0.4-2.1,0.1-2.6-1.1c-0.2-0.4-0.5-0.9-0.6-1.3c-1-3.1-4.4-6.4-3.1-8.8c1.6-2.8,6.3-3.2,9.5-4.8
		C708.2,342.5,708.6,342.4,709,342.3z"/>
	<path id="Path_40193" class="st0" d="M688.4,366c-0.4-0.3-0.8-0.5-1.1-0.9c-0.3-0.4-0.5-0.8-0.7-1.3c-5-9.7-4.5-10.9,6-14.4
		c1.5-0.5,2.2-0.3,2.8,1.2c1.2,2.8,2.5,5.6,3.7,8.4c0.3,0.7,0.8,1.6,0.1,2C695.6,362.7,692.1,364.3,688.4,366z"/>
	<path id="Path_40194" class="st0" d="M658.2,310.6c1.5-0.1,1.8,0.7,2.1,1.5c1.2,2.8,2.4,5.6,3.8,8.3c0.8,1.6,0.1,2.2-1.2,2.8
		c-2.8,1.2-5.6,2.4-8.3,3.7c-1.5,0.7-2.2,0.2-2.7-1.2c-1.2-2.8-2.4-5.6-3.7-8.3c-0.4-0.8-0.8-1.7,0.2-2.2
		C651.7,313.5,655.1,312,658.2,310.6z"/>
	<path id="Path_40195" class="st0" d="M664.4,268.5c-1.2,0.3-1.7,0.1-2-0.5c-0.2-0.4-0.4-0.9-0.6-1.3c-4.9-10.2-4.9-10.3,5.8-14.3
		c1.6-0.6,2.5-0.5,3.1,1.2c0.3,0.9,0.8,1.8,1.1,2.7c0.9,2.4,3.8,5.4,2.4,7.2C671.9,266.5,667.3,266.9,664.4,268.5z"/>
	<path id="Path_40196" class="st0" d="M672.2,340.4c0.4,0.2,0.7,0.5,1,0.8c0.3,0.5,0.6,1.1,0.8,1.6c4.6,10.1,4.6,10.1-5.9,14
		c-1.6,0.6-2.5,0.5-3-1.2c-0.1-0.2-0.2-0.5-0.3-0.7c-4.8-10.5-4.8-10.5,6.3-14.1C671.4,340.8,671.7,340.6,672.2,340.4z"/>
	<path id="Path_40197" class="st0" d="M677.1,298.8c-1.3,0.2-1.5-0.9-2-1.8c-5.1-9.7-4.6-10.8,5.8-14.5c1.4-0.5,2.3-0.5,2.8,1.1
		c0.2,0.5,0.4,0.9,0.6,1.3c4.4,9.7,3.8,11-6.6,13.7C677.6,298.7,677.4,298.7,677.1,298.8z"/>
	<path id="Path_40198" class="st0" d="M659.4,269c0.3,1-0.3,2.1-1.3,2.4c0,0-0.1,0-0.1,0c-1.2,0.6-2.5,1.1-3.7,1.6
		c-6.6,2.9-6.6,2.9-9.4-3.6c-2.5-5.8-2.5-5.8,3.4-8.4c6.3-2.7,6.3-2.7,9.1,3.4C658.1,266.1,658.8,267.8,659.4,269z"/>
	<path id="Path_40199" class="st0" d="M684.3,366.4c0.1,1.5-1,1.7-1.8,2.1c-2.5,1.1-4.9,2.1-7.4,3.3c-1.8,0.9-2.8,0.6-3.7-1.4
		c-4.7-9.7-4.8-9.6,5-13.9c2.4-1.1,3.4-0.8,4.3,1.6C681.8,361,683.2,363.7,684.3,366.4z"/>
	<path id="Path_40200" class="st0" d="M721,367.8c0.3,1.4-0.4,1.8-1.2,2.2c-1.4,0.7-2.9,1.3-4.3,2c-6.2,2.7-6.2,2.7-9-3.7
		c-2.6-5.9-2.6-5.9,3.2-8.4c6.5-2.8,6.5-2.8,9.5,3.9C719.9,365.2,720.5,366.6,721,367.8z"/>
	<path id="Path_40201" class="st0" d="M671.2,336.4c-0.9,2.1-2.9,2.4-4.5,2.9c-2.6,0.8-5.6,4.2-7.4,2.3c-2.5-2.6-3.5-6.8-5-10.4
		c-0.3-0.6,0.4-1.1,1-1.4c3.1-1.4,6.2-2.8,9.3-4.1c0.6-0.3,1.3-0.5,1.6,0.1C668,329.4,669.6,332.9,671.2,336.4z"/>
	<path id="Path_40202" class="st0" d="M734.2,397.4c-0.2,0.4-0.5,0.8-0.9,1.1c-0.5,0.3-1.1,0.6-1.6,0.8c-9.9,4.7-9.8,4.7-13.8-5.5
		c-0.7-1.9-0.6-3,1.4-3.6c1.2-0.4,2.2-1,3.4-1.4c2.2-0.8,5-3.5,6.4-1.9C731.5,389.8,732.5,393.8,734.2,397.4z"/>
	<path id="Path_40203" class="st0" d="M676,388.1c0.2,1.3-0.7,1.5-1.4,1.9c-9.6,5.5-11.1,4.9-14.9-5.5c-0.7-1.9-0.2-2.6,1.5-3.3
		c2.5-1,4.9-2,7.3-3.2c2-1,3-0.5,3.8,1.6C673.3,382.5,674.7,385.3,676,388.1z"/>
	<path id="Path_40204" class="st0" d="M682.4,402.7c0,1.3-0.7,1.6-1.5,2c-2.8,1.2-5.6,2.4-8.3,3.7c-1.4,0.7-2.3,0.4-2.8-1.1
		c-0.1-0.2-0.2-0.5-0.3-0.7c-5.1-12.5-6.7-8.1,5.5-14c1.9-0.9,2.9-0.6,3.6,1.3C679.8,396.9,681.2,399.9,682.4,402.7z"/>
	<path id="Path_40205" class="st0" d="M688.7,417c0.3,1.5-0.6,1.9-1.5,2.3c-2.8,1.2-5.6,2.4-8.3,3.7c-1.2,0.6-2.1,0.5-2.6-0.9
		c-0.2-0.5-0.4-0.9-0.6-1.3c-4.6-9.8-4.6-9.8,5.7-13.7c1.9-0.7,2.9-0.5,3.6,1.4C686.2,411.5,687.6,414.3,688.7,417z"/>
	<path id="Path_40206" class="st0" d="M688.6,401.5c-2.4,1-3.7,0.2-4.5-2.3c-0.7-2.2-1.6-4.3-2.8-6.3c-1.1-2.1-0.4-2.9,1.5-3.8
		c9.8-4.5,9.7-4.5,14,5.3c1.1,2.4,0.2,3.3-1.7,4.1C693.5,400.5,691,400.9,688.6,401.5z"/>
	<path id="Path_40207" class="st3" d="M688.6,401.5c2-1.4,4.3-2.4,6.6-3c0.3,0.7,1,0.7,1.6,0.9c-2,1.4-4.3,2.3-6.6,2.9
		C689.9,401.6,689.1,401.7,688.6,401.5z"/>
	<path id="Path_40208" class="st2" d="M565.1,323.8c10.3,4.6,19.3,10.9,25.9,20.2c21.2,29.8,9.8,70.6-23.9,85.4
		c-1.1,0.5-2.2,1-3.3,1.5c-12.4,3.7-24.7,4.1-37.2,0c-24.5-8.1-40.1-31.8-38.4-58.8c1.5-24.1,21-45.9,45-50.7
		C544.1,319.3,554.6,320.5,565.1,323.8z"/>
	<path id="Path_40209" class="st2" d="M563.1,300.4c0,5.1-0.1,10.3,0,15.4c0.1,2-0.5,2.7-2.7,2.7c-10.4-0.1-20.8-0.1-31.2,0
		c-2,0-2.8-0.5-2.8-2.7c0.1-10.5,0.1-21.1,0-31.6c0-1.9,0.6-2.5,2.5-2.5c10.5,0.1,21.1,0.1,31.6,0c1.9,0,2.6,0.5,2.5,2.5
		C563,289.7,563.1,295,563.1,300.4z"/>
	<path id="Path_40210" class="st2" d="M524.6,300.2c0,5.1-0.1,10.3,0,15.4c0.1,2.2-0.4,3-2.8,3c-10.3-0.1-20.6-0.1-30.8,0
		c-2.1,0-3-0.4-3-2.8c0.1-10.4,0.1-20.8,0-31.2c0-2,0.4-2.8,2.6-2.8c10.4,0.1,20.8,0.1,31.2,0c2.4,0,2.9,0.8,2.8,3
		C524.6,289.9,524.6,295,524.6,300.2z"/>
	<path id="Path_40211" class="st4" d="M447.5,300.1c0,5.1-0.1,10.3,0,15.4c0,2.1-0.3,3.1-2.7,3c-10.4-0.1-20.8-0.1-31.2,0
		c-2.1,0-2.7-0.7-2.7-2.7c0.1-10.4,0.1-20.8,0-31.2c0-2.3,0.8-2.9,2.9-2.8c10.3,0.1,20.5,0.1,30.8,0c2.3,0,2.9,0.8,2.8,2.9
		C447.4,289.9,447.5,295,447.5,300.1z"/>
	<path id="Path_40212" class="st2" d="M411,261.6c0-5.1,0.1-10.3,0-15.4c0-2,0.5-2.8,2.7-2.8c10.4,0.1,20.8,0.1,31.2,0
		c2,0,2.8,0.5,2.7,2.7c-0.1,10.4-0.1,20.8,0,31.2c0,2-0.5,2.8-2.7,2.8c-10.4-0.1-20.8-0.1-31.2,0c-2.5,0-2.8-1-2.7-3
		C411.1,271.9,411,266.7,411,261.6z"/>
	<path id="Path_40213" class="st4" d="M524.7,261.7c0,5.1-0.1,10.3,0,15.4c0.1,2.2-0.5,3-2.8,3c-10.3-0.1-20.6-0.1-30.8,0
		c-2.6,0-3-0.9-3-3.2c0.1-10.2,0.1-20.3,0-30.5c0-2.2,0.5-3,2.8-3c10.3,0.1,20.6,0.1,30.9,0c2.6,0,3,0.9,3,3.2
		C524.6,251.6,524.7,256.6,524.7,261.7z"/>
	<path id="Path_40214" class="st2" d="M544.7,280c-5,0-10-0.1-15.1,0c-2.3,0.1-3.2-0.5-3.2-3c0.1-10.3,0.1-20.6,0-30.8
		c0-2.1,0.6-2.8,2.7-2.7c10.5,0.1,21.1,0.1,31.6,0c1.7,0,2.4,0.4,2.4,2.3c-0.1,10.6-0.1,21.3,0,31.9c0,2.1-0.9,2.4-2.6,2.4
		C555.2,279.9,549.9,280,544.7,280z"/>
	<path id="Path_40215" class="st2" d="M467.9,356.9c-5,0-10-0.2-15.1,0.1c-2.9,0.2-3.4-0.9-3.4-3.5c0.1-9.9,0.1-19.8,0-29.7
		c0-2.4,0.5-3.4,3.2-3.4c10.2,0.2,20.3,0.1,30.5,0c2.2,0,3,0.4,3,2.8c-0.1,10.4-0.1,20.8,0,31.2c0,2.2-0.8,2.6-2.8,2.6
		C478.2,356.8,473,356.9,467.9,356.9z"/>
	<path id="Path_40216" class="st2" d="M447.5,338.8c0,5.1-0.1,10.3,0,15.4c0,2-0.5,2.8-2.7,2.7c-10.4-0.1-20.8-0.1-31.2,0
		c-2,0-2.8-0.5-2.7-2.7c0.1-10.4,0.1-20.8,0-31.2c0-2.1,0.6-2.8,2.7-2.7c10.4,0.1,20.8,0.1,31.2,0c2,0,2.8,0.5,2.7,2.7
		C447.4,328.2,447.5,333.5,447.5,338.8z"/>
	<path id="Path_40217" class="st2" d="M447.5,377.2c0,5.3-0.1,10.5,0,15.8c0,1.9-0.5,2.6-2.5,2.6c-10.5-0.1-21-0.1-31.5,0
		c-2.2,0-2.6-0.9-2.6-2.8c0.1-10.4,0.1-20.8,0-31.2c0-2.1,0.6-2.7,2.7-2.7c10.4,0.1,20.8,0.1,31.2,0c2.4,0,2.8,0.8,2.8,3
		C447.4,366.9,447.5,372,447.5,377.2z"/>
	<path id="Path_40218" class="st2" d="M486,261.7c0,5.3-0.1,10.5,0,15.8c0,1.9-0.5,2.6-2.4,2.6c-10.5-0.1-21.1-0.1-31.6,0
		c-1.9,0-2.6-0.5-2.5-2.5c0.1-10.5,0.1-21.1,0-31.6c0-1.9,0.5-2.6,2.5-2.5c10.5,0.1,21.1,0.1,31.6,0c1.9,0,2.5,0.5,2.5,2.5
		C485.9,251.2,486,256.4,486,261.7z"/>
	<path id="Path_40219" class="st2" d="M486,300.2c0,5-0.1,10,0,15.1c0.1,2.4-0.4,3.4-3.1,3.4c-10.2-0.2-20.3-0.1-30.5,0
		c-2.1,0-3-0.4-3-2.8c0.1-10.4,0.1-20.8,0-31.2c0-2.4,0.8-2.8,3-2.8c10.2,0.1,20.3,0.1,30.5,0c2.7,0,3.2,0.9,3.1,3.3
		C485.9,290.1,486,295.1,486,300.2z"/>
	<path id="Path_40220" class="st2" d="M449.5,359.3c1-0.8,2.1-0.5,3.2-0.5c10.1,0,20.2,0,30.3-0.1c2.3,0,3.2,0.4,3.1,2.9
		c-0.2,9-0.2,18-0.3,27c-2.2,4.2-5.2,6.8-10.4,6.6c-7.5-0.2-14.9-0.2-22.4,0c-3,0.1-3.6-0.9-3.6-3.7
		C449.6,380.9,449.6,370.1,449.5,359.3z"/>
	<path id="Path_40221" class="st2" d="M417.7,433.7c-6.7,0.4-6.7,0.4-6.7-6.2c0-9.1,0.1-18.1,0-27.2c0-2.3,0.5-3.2,3-3.1
		c10.3,0.1,20.6,0.1,30.8,0c2,0,2.8,0.5,2.8,2.6c-0.2,7-0.1,13.9-0.2,20.9c-0.3,1-0.9,1.8-1.8,2.2
		C436.9,428.1,428.2,433.3,417.7,433.7z"/>
	<path id="Path_40222" class="st1" d="M475.9,397.4c2.2,0,4.4,0.1,6.6-0.1c2.6-0.2,3.7,0.5,3.6,3.4c-0.2,10-0.2,20.1,0,30.1
		c0,2.6-0.8,3.3-3.3,3.3c-10-0.1-20.1-0.1-30.1,0c-2.4,0-3.3-0.8-3.2-3.1c0.1-3.9-0.1-7.8,0.5-11.7c0.2-0.9,0.7-1.6,1.4-2.1
		c8.4-5.9,15.9-12.9,23.9-19.4C475.4,397.5,475.6,397.4,475.9,397.4z"/>
	<path id="Path_40223" class="st5" d="M488.1,338.7c0-5.1,0.1-10.3,0-15.4c-0.1-2.2,0.4-3,2.8-3c10.4,0.1,20.8,0,31.2,0.1
		c0.9,0,2.2-0.5,2.4,0.9c0.2,1.1-1,1.2-1.8,1.5c-15.1,6.5-25.9,17.2-32.3,32.3c-0.3,0.8-0.5,1.8-1.6,1.5s-0.7-1.4-0.7-2.2
		C488.1,349.2,488.1,343.9,488.1,338.7z"/>
	<path id="Path_40224" class="st1" d="M506.3,433.9c-5,0-10-0.1-15,0c-2.3,0.1-3.3-0.4-3.2-3c0.1-10.3,0-20.5,0.1-30.8
		c0-0.9-0.5-2.2,0.7-2.6c1.3-0.4,1.5,1,1.8,1.8c6.3,14.9,16.9,25.5,31.8,31.9c0.8,0.4,2.3,0.5,2.1,1.7c-0.2,1.6-1.8,0.9-2.7,0.9
		C516.6,434,511.5,433.9,506.3,433.9z"/>
	<path id="Path_40225" class="st3" d="M601,320.2c0.3,0.7,0.5,1.4,0.6,2.1c0,10.8,0,21.5,0,32.3c0,0.8,0.4,2-0.8,2.1
		c-1.3,0.1-1.3-1.2-1.7-2c-5.9-14-17-25.3-30.9-31.3c-0.5-0.2-0.9-0.3-1.4-0.4c-0.4-0.7-1.9-0.6-1.6-1.7c0.3-1.4,1.6-0.8,2.5-0.8
		C578.8,320.3,589.9,320.2,601,320.2z"/>
	<path id="Path_40226" class="st3" d="M566,431.6c15-5.6,25.4-15.9,32.3-30.2c0.7-1.4,0.7-4.2,2.6-3.8c1.6,0.4,0.7,3,0.7,4.6
		c0.1,9.5,0,19.1,0.1,28.6c0,2.4-0.7,3.1-3.1,3.1c-10.3-0.1-20.5,0-30.8-0.1c-1.2,0-3.4,0.7-2.3-2.1
		C565.7,431.9,565.9,431.8,566,431.6C566,431.6,566,431.6,566,431.6z"/>
	<path id="Path_40227" class="st5" d="M475.9,397.4c-6.4,6.9-13.8,12.6-21.2,18.3c-1.5,1.2-3.1,2.3-4.7,3.4l0,0.1
		c-1-7.1-0.2-14.2-0.4-21.3c2-1.2,4.2-0.5,6.3-0.6C462.6,397.3,469.2,397.3,475.9,397.4z"/>
	<path id="Path_40228" class="st1" d="M417.7,433.7c10.6-2.5,20.7-6.8,29.7-12.9c0.1,3.5,0.1,7.1,0.2,10.6c0.1,1.9-0.6,2.6-2.5,2.6
		C436,433.8,426.8,433.8,417.7,433.7z"/>
	<path id="Path_40229" class="st1" d="M449.5,359.3c0.1,10.7,0.3,21.4,0.2,32.1c0,3.1,0.8,3.9,3.8,3.8c6.5-0.2,12.9-0.3,19.4,0
		c4.1,0.2,7.4-0.6,10-3.9c0.9-1,1.9-1.9,3-2.6c0.5,6.5,0.5,6.6-6.1,6.8c-9.3,0.2-18.6,0.1-27.8,0.2c-1.7,0-2.8-0.3-2.8-2.4
		C449.4,382,448.8,370.7,449.5,359.3z"/>
	<path id="Path_40230" class="st0" d="M449.6,397.9c0.1,7.1,0.3,14.2,0.4,21.3c-1.4-1.8-0.7-3.9-0.7-5.9
		C449.3,408.2,448.8,403,449.6,397.9z"/>
	<path id="Path_40231" class="st0" d="M374,406c-4.2,1.7-8.7,0.2-13,0.8C365.2,405.1,369.6,406.4,374,406z"/>
	<path id="Path_40232" class="st2" d="M603.6,433.8V280.4l0.7-0.2l67.5,153c-0.4,0.3-0.5,0.6-0.7,0.6
		C648.6,433.8,626.1,433.8,603.6,433.8L603.6,433.8z"/>
	<path id="Path_40233" class="st2" d="M601.6,300.5c0,5-0.1,10,0,15.1c0.1,2.1-0.4,3-2.8,3c-10.4-0.1-20.8-0.1-31.2,0
		c-2.2,0-2.7-0.8-2.6-2.8c0.1-10.4,0.1-20.8,0-31.2c0-2.4,0.9-2.8,3-2.8c10.3,0.1,20.6,0.1,30.9,0c2.4,0,2.9,0.8,2.8,3
		C601.5,290,601.6,295.3,601.6,300.5z"/>
	<path id="Path_40234" class="st3" d="M660.3,357.4c0,1-0.8,1.2-1.4,1.5c-6.7,3.8-6.7,3.8-9.8-3.3c-6.5-14.7-13-29.5-19.6-44.2
		c-1.2-2.8-0.9-3.9,1.9-5c5.4-2.2,5.4-2.4,7.8,3.1c6.7,15.2,13.4,30.4,20.1,45.6C659.6,355.9,660,356.7,660.3,357.4z"/>
	<path id="Path_40235" class="st6" d="M665.9,391.8c-0.8,0-4.7-6.1-4.2-7.5c1.2-3.2,4.9-2.9,7.4-4.4c0.7-0.4,4.5,6.1,4.5,7.7
		C673.6,388.2,667.3,391.7,665.9,391.8z"/>
	<path id="Path_40236" class="st7" d="M676.3,394.3c1.7,2,2.4,4.9,3.6,7.5c0.4,0.8-5.9,4.5-7.6,4.5c-0.7,0-4.1-6.3-4.2-7.6
		C668.1,397.8,673.8,394.5,676.3,394.3z"/>
	<path id="Path_40237" class="st7" d="M686.4,416.6c0,0.7-6.7,4.5-7.9,4.4c-0.5,0-4.1-7-4.1-7.9c0-0.8,6.3-4.2,7.7-4.2
		C683,409,686.4,415.1,686.4,416.6z"/>
	<path id="Path_40238" class="st7" d="M687.2,399.8c-0.6,0-4.1-6.8-4.1-7.8c0-0.7,6.3-4.2,7.7-4.3c0.8,0,4.6,6.7,4.4,8
		C695.1,396.3,688.2,399.8,687.2,399.8z"/>
	<path id="Path_40239" class="st0" d="M546.6,396.9c5.1-5.2,9.9-10.1,14.7-14.9c0.6-0.6,1.3-2,2.3-1.2c1.2,0.9-0.2,1.7-0.8,2.3
		c-5.4,5.5-10.9,10.9-16.3,16.4c-1.3,1.3-2.1,1.1-3.3-0.1c-5.4-5.5-10.9-10.9-16.4-16.4c-0.6-0.6-1.6-1.2-0.9-2.1
		c1.1-1.2,1.7,0.3,2.3,0.9c5,5,9.9,10,15.7,15.9v-6.1c0-13.2,0-26.4,0-39.7c0-1-0.6-2.7,0.9-2.7c1.4,0,1,1.7,1,2.7
		c0,13.5,0,26.9,0,40.4C545.9,393.7,545.5,395,546.6,396.9z"/>
</g>
</svg>
