<?xml version="1.0" encoding="utf-8"?>
<!-- Generator: Adobe Illustrator 24.2.1, SVG Export Plug-In . SVG Version: 6.00 Build 0)  -->
<svg version="1.1" id="Layer_1" xmlns="http://www.w3.org/2000/svg" xmlns:xlink="http://www.w3.org/1999/xlink" x="0px" y="0px"
	 viewBox="0 0 627.7 459.6" style="enable-background:new 0 0 627.7 459.6;" xml:space="preserve">
<style type="text/css">
	.st0{fill:#5ED58C;}
	.st1{fill:#060D43;}
	.st2{fill:#FEFEFE;}
	.st3{fill:#FCFCFC;}
	.st4{fill:#FBFBFB;}
	.st5{fill:#F9F9F9;}
	.st6{fill:#FDFDFD;}
</style>
<g>
	<path id="Path_40240" class="st0" d="M421.4,142.9c10.9-1.7,21.8-4.8,33-2c18.3,4.6,31.5,15.2,38,33.3c1.9,5.4,3.4,11,5.4,16.5
		c9.4,25.5,32.1,38.6,58.9,34.3c9.7-1.6,19.3-4,29.2-2.3c1.3,0.2,2.6,0.4,3.8,0.7c14.6,3.7,15.2,4.5,15.2,19.2v203.6
		c0,1.3,0.1,2.6,0,3.9c-0.1,1.2,0.6,2.9-0.8,3.6c-1.3,0.6-2.3-0.7-3.4-1.5c-9.2-6.5-14.9-15.5-18.3-26.1c-2.8-8.5-4.8-17.3-9.5-25
		c-4.5-7.3-10.8-13.3-18.3-17.5c-1.1-0.6-2.5-2.1-3.3,0.4c-2,0.2-2-1.3-2.1-2.5c-1.3-12.8-4.2-25.3-6.4-37.9
		c-2.7-15.7-5.5-31.4-8.4-47c-3.3-17.7-6.1-35.4-9.6-53.1c-1.7-8.5-7.9-12.9-16.4-11.5c-1.4,0.2-2.8,0.6-4.2,0.8
		c-5.9,0.8-8.5,3.4-9.6,9.4c-3,16-5.7,32.1-8.6,48.1c-4.7,26.1-9.2,52.2-14,78.3c-0.3,1.5-0.4,2.9-2.2,3.2c-5.2-2.6-9.2-6.7-12.9-11
		c-1-1.2-1.6-2.8-3.5-2.8c-1-0.2-2-0.8-2.5-1.7c-4.5-9.4-7.2-19.3-10.2-29.2c-0.2-0.8-0.6-1.6-1-2.3c-0.5-1.1,0.3-2.1,0-3.2
		c-0.1-2-1.3-3.5-2.4-5c-12.9-17.2-29.9-24.6-51.3-21.6c-5.6,0.8-11.1,2-16.7,2.6c-23.8,3-46.5-11-54.5-33.6
		c-2.3-6.2-4.1-12.6-6.3-18.9c-1.6-4.7-3.9-9-7-12.9c1.6-2.1,4-1.4,6-1.4c33.6-0.1,67.2,0,100.8-0.1c3.2,0,6.7,0.5,9.3-2.4
		c2.8-2.4,2.3-5.8,2.3-8.9c0.1-23.6,0-47.2,0.1-70.8C420.1,146.8,419.3,144.5,421.4,142.9z"/>
	<path id="Path_40241" class="st0" d="M58,402.3c-13.7-0.7-27.4-0.1-41.1-0.3c-4.2-0.1-8.4-0.1-12.6,0c-3.1,0.1-4.4-0.9-4.3-4.2
		c0.2-5.6,0.3-11.3,0-16.9c-0.2-3.7,1.3-4.6,4.8-4.6c15.9,0.1,31.8,0.1,47.6,0c1.9,0,3.7-0.3,5.6-0.4c0.5,0.3,0.9,0.7,1.1,1.2
		c0.6,8,0.6,16,0,23.9C58.9,401.6,58.5,402.1,58,402.3z"/>
	<path id="Path_40242" class="st1" d="M469.8,371.9c2.3-12.2,4.7-24.4,6.8-36.6c5.6-31.6,11.2-63.1,16.8-94.7c0.5-4,3.3-7.3,7.2-8.3
		c3.6-1.2,7.3-1.7,11.1-1.4c10.8,1.1,13,3.1,14.8,13.7c7.9,44.1,15.8,88.1,23.7,132.2c0.4,2.4-0.2,5,1.2,7.2
		c2.9,16,5.8,32.1,8.7,48.1c1.2,6.5-1.5,11.3-6.2,15.2c-7.6,6.2-16.7,9.1-26.2,10.7c-16.6,2.8-33.1,2.2-49.1-3.5
		c-5-1.6-9.5-4.2-13.5-7.6c-5-4.5-6.8-9.6-5.5-16.6C463.3,410.9,467.1,391.4,469.8,371.9z"/>
	<path id="Path_40243" class="st1" d="M116.3,169.3c-1.9,5.9-3.5,11.9-5.7,17.7c-4.8,12.5-6.9,25.6-10,38.5c-0.8,3.5-1.7,7-2.3,10.6
		c-0.2,2.5-2.1,4.6-4.5,5.2c-9.5,2.5-19.6,2.5-29.1,0.1c-3.4-0.8-4.3-3-4.2-6.4c0.4-19.6-1.7-38.9-8.9-57.4
		c-0.7-1.9-0.6-3.3,1.1-4.5c1.2-0.8,2.1-2,3.4-2.7c2.6-1.6,3.1-3.4,2.4-6.5c-3.8-16.9-7.4-33.9-11-50.8c-0.4-1.9-1.7-4.3,0.9-5.3
		c2.3-0.9,3.6,1.4,4.7,3c5.4,8.1,8.1,17.5,11.6,26.5c1.4,3.6,2.7,7.3,4.2,11.5c1.3-1.8,1.2-3.3,1.4-4.7c1.2-11.8,2.4-23.6,3.7-35.3
		c0.2-1.8-0.1-4.3,2.3-4.5c2.4-0.3,2.9,2.1,3.4,3.8c2.4,7.2,2.4,14.8,2.7,22.3c0.3,6.9,0.1,13.8,0.1,20.5c2.4,0.8,3.3-0.4,4.4-0.9
		c1.6-0.7,3.3-1.6,4.9-0.3c1.7,1.5,1.1,3.6,0.3,5.2c-1.5,3.1-3.4,6-5.1,9c0.7,0.7,2.3,0.4,2,2.1c-1.1,2.1-3.6,2.8-5.2,4.5
		c-2.2,2.3-2.8,4.5-0.7,7.3c4.3,5.9,7.8,12.1,9,19.4c0.4,2.4,0.5,4.9,0.1,7.3c-0.1,1.4-1.1,2.5-2.5,2.6c-1.4,0.2-2.6-0.7-2.9-2.1
		c-0.5-1.5-0.9-3-1.1-4.6c-0.9-7.8-4.3-15.1-9.8-20.7c-4.1-4.3-4-5.3,0-9.8c2.2-2.5,4.3-5.1,6.4-7.6c1.3-1.6,2.8-3.2,3.2-5.4
		c-1.7-0.5-2.7,0.5-3.8,1.1c-7.3,4.3-14.4,9.1-21.1,14.4c-4,3.1-4.3,4.5-2.7,9.3c4.5,13.7,6.4,27.8,6.9,42.1c0.1,2.9,0,5.8,0.1,8.7
		c-0.2,2.7,1.8,5.1,4.5,5.5c6.7,1.4,13.5,1.4,20.2-0.1c2.5-0.5,4.4-2.4,4.9-4.9c2.7-10.5,4.9-21.1,7.2-31.7c0.8-3.5-0.1-4.2-3.5-3.3
		c-3.2,0.9-4.9-0.7-6.3-3.2c-1.1-2-1-4.2-1-6.3c0.1-3.2-0.2-6.1-3.9-7.3c-1.2-0.4-1.8-1.6-1.6-2.8c0.2-1.3,1.3-2.4,2.7-2.4
		c1.7-0.2,3.5-0.3,5.2-0.1c3,0.3,4.4,1.9,4.1,4.9c-0.2,2-0.6,4-0.6,5.9c2.7-6.5,3.8-13.9,7.6-20.2c1.8-2.8,4-2.7,6.5-1.1
		c-1,4.3-3,8.3-4.2,12.6c-1,3-1.3,6.2-0.8,9.3c2.5-5.9,3.8-11.4,5.9-16.7c0.7-1.9,1.1-4.5,4.3-3.5
		C116.7,167.5,116.8,168.5,116.3,169.3z"/>
	<path id="Path_40244" class="st1" d="M595.5,131.1c-4.9-8.8-9.8-17.6-14.5-26.5c-1.5-2.8-3.2-3.8-6.3-3.8
		c-31.2,0.1-62.4,0.1-93.6,0.1c-1.7,0-3.5,0.4-5.1-0.4c-0.7-1.1-0.4-2.2-0.4-3.4c0-30.9,0-61.8,0-92.7c0-1.1-0.3-2.3,0.4-3.4l0,0
		c1.3-0.8,2.8-0.4,4.2-0.4c47.4,0,94.9,0,142.3,0c1.4,0,2.9-0.4,4.2,0.4l0,0c0.7,1,0.4,2.2,0.4,3.4c0,30.7,0,61.3,0,92
		c0,1.1,0.3,2.3-0.4,3.4c-1.3,1.6-3.1,1.2-4.8,1.2c-7.9,0-15.8,0-23.7,0c-0.4-0.4-0.5-0.9-0.2-1.4c2.1-1.9,4.6-1,6.9-1
		c5.5,0,11-0.8,16.3-2.6c0.3-0.4,0.6-0.7,0.9-1.1c1.5-4.7,2.3-9.5,2.4-14.4c0.1-13.8,0.1-27.7,0-41.5c0-5-1.8-9.9-1.5-15
		c-0.2-0.4-0.4-0.9-0.6-1.3c-0.4-0.8-0.8-1.7-1-2.6c0-0.6,0.1-1.1,0.3-1.7c2.8-8.9-1.9-14.5-11-13.2c-1.3,0.2-2.5,0.6-3.7-0.1
		c-6.1-0.8-12.3-1.8-18.4-1.8C557.8,2.9,527.1,3,496.3,3c-4.4,0-8.5,1.4-12.9,1.7c-2.3,0.2-3.5,1.8-3.8,4.1
		c-0.6,5.4-1.7,10.8-1.6,16.3c0.2,18.2,0.1,36.4,0.1,54.6c0,2.3-0.1,4.6,0.9,6.7c3.8-4.6,6.8-9.5,10.9-13.9c9.6-10.2,23.4-10,32,3.4
		c2.1,3.1,3.9,6.4,5.4,9.9c0.3,0.8,0.6,1.8,1.5,1.9c1.3,0.2,1.6-1.1,2-1.9c4.3-8,8.3-16.1,13.1-23.8c8.8-14.1,18.5-27.5,31.9-37.8
		c4.9-4,10.6-7,16.7-8.8c1-0.4,2-0.4,3-0.2c1.1,0.5,1.9,1.3,2.4,2.4c0.3,2-0.8,2.9-2.5,3.5c-17,5.8-28.1,18.8-38.3,32.6
		c-8.3,11.3-15,23.6-21.2,36.2c-2.6,5.3-1.6,6.6,4.3,6.7c11.8,0.1,23.7,0.1,35.5,0c4.1,0,6.5,1.5,8.5,5.2
		c4.5,8.5,9.2,16.8,12.8,25.8C597,128.9,597,130.4,595.5,131.1z"/>
	<path id="Path_40245" class="st1" d="M247,344.2c-2.3-2.7-4.3-5.8-5.8-9c-3.8-7.9-0.6-17.4,7.3-21.4c7.6-4,17-1.5,21.6,5.7
		c1.5,2.3,2.7,4.7,4.1,7.1c0.4,1.5,0.3,3.1-0.2,4.6c0.3,10.4-12.8,18-20.7,15.3C251.4,344.9,249.1,344.8,247,344.2z"/>
	<path id="Path_40246" class="st1" d="M58.3,401.4c-0.3-8.2-0.4-16.3,0-24.5c0.5-1.5,0.3-3.1,0.3-4.7c0-25.8,0-51.6,0.1-77.4
		c0-1.4-1.3-3.5,1.1-4.4c54.6,53,107.7,107.4,161.7,161c1.4,1.4,2.6,3,3.9,4.6c-0.6,2.4-2.6,1.2-3.9,1.2
		c-14.6,0.1-29.1,0.1-43.7,0.1c-37.9,0-75.9,0-113.8,0c-6,0-5.4,0.7-5.4-5.2c0-15.3,0-30.6,0-45.9C58.6,404.5,58.9,402.9,58.3,401.4
		z"/>
	<path id="Path_40247" class="st1" d="M247,344.2c2.1-2,4.1-1.4,6.1,0.1c-0.7,1.3,0.3,2.1,1,3c21.3,27,48.8,44.2,83,48.8
		c41.7,5.6,78.2-6.2,108.4-36.1c1.9-1.8,3.2-5.2,6.9-3.9c1.3,0.1,1.1,1,1,1.9c-51.4,59.2-147.1,58.3-197.8-2.1
		C252.5,352.2,249.2,348.6,247,344.2z"/>
	<path id="Path_40248" class="st1" d="M272.3,330.4c-0.2-1.6,0.8-2.7,1.8-3.8c8.2,10.6,17.3,20.1,28.7,27.2
		c45.3,28.7,105.2,15.9,134.8-28.8c0.7-1.1,1.4-2.2,2.1-3.3c1.1,0.6,1,1.7,0.9,2.7c0.9,2.8-0.7,4.9-2.2,7
		c-8.7,12.1-20.1,22.1-33.2,29.2c-28.5,15.5-58.1,16.9-88.2,5.4c-16.5-6.4-31-17.1-41.9-31.2C274.1,333.4,274.2,331.2,272.3,330.4z"
		/>
	<path id="Path_40249" class="st1" d="M60.9,262.6c-1.1-3.4-0.3-6.8-0.5-10.3c-0.1-1.9,1.2-2.9,2.8-3.4c10.2-3.2,21.1-3.3,31.3-0.1
		c2,0.6,3.1,1.9,2.7,4.2c-0.7,3.4,1.1,7.1-1.1,10.4c-0.8,0.8-1.6,0.4-2.3-0.2c-0.7-3.5-2.6-5.3-6.3-4.5c-5.9,1.1-12,1.1-17.9-0.1
		c-3.4-0.6-5.5,0.5-6.4,3.8C62.7,263.2,61.6,263.2,60.9,262.6C60.9,262.6,60.9,262.6,60.9,262.6z"/>
	<path id="Path_40250" class="st1" d="M58.3,401.4c1,1.9,0.7,3.9,0.7,5.9c0,14.7,0.1,29.4,0,44.1c0,3.9,1.2,5.4,5.2,5.4
		c52.2-0.1,104.4-0.1,156.7-0.1c1.6,0.2,3.2-0.1,4.6-0.9c1.1,0.7,0.8,1.5-0.2,1.7c-1.3,0.2-2.6,0.3-3.9,0.2c-52.6,0-105.1,0-157.7,0
		c-5.6,0-5.6,0-5.6-5.7c0-16.6,0-33.2,0-49.8L58.3,401.4z"/>
	<path id="Path_40251" class="st1" d="M200.3,57.2c1.4-1.6,3.2-0.9,4.9-0.9c62.2,0,124.5-0.1,186.7-0.1c4.4,0,6.1,1.2,5.5,5.6
		c-0.2,2.2-0.2,4.3-0.1,6.5c-0.2,0.4-0.6,0.7-1,0.8c-0.7,0.1-1.4-0.2-1.8-0.8c-1.6-2.3-0.6-5.7-3.4-7.4c-2.7-2.7-6.1-2.3-9.4-2.3
		c-58.2,0-116.3,0-174.5,0c-2.1,0-4.3,0.4-6.4-0.7L200.3,57.2z"/>
	<path id="Path_40252" class="st1" d="M420.6,231.5c-2,1.3-4.2,0.8-6.3,0.8c-37.5,0-75.1,0.1-112.6,0.1c-24.2,0-48.4-0.1-72.6,0
		c-4,0-5.9-0.9-5.4-5.2c0.2-2.3,0.2-4.6,0-6.9c-0.3-0.7,0-1,0.7-1.1c2,1.1,2.6,2.9,3,5c0.7,3.8,3.2,5.6,6.9,5.9c2,0.1,4,0.1,6.1,0.1
		c57.5,0,115,0,172.6,0c2.2-0.2,4.3-0.1,6.5,0.3C419.9,230.6,420.3,231,420.6,231.5z"/>
	<path id="Path_40253" class="st1" d="M626.8,0.9L476,0.9c1.3-1.3,3-0.7,4.5-0.7c47.2,0,94.5,0,141.7,0
		C623.7,0.1,625.4-0.5,626.8,0.9z"/>
	<path id="Path_40254" class="st1" d="M421.4,142.9c-0.1,27.4-0.1,54.8-0.2,82.2c0,2.1,0.3,4.3-0.7,6.4l-0.2-0.2
		c-1.7-1.8-1.2-4.1-1.2-6.2c0-27.9,0-55.8,0-83.7c0-18.5,0-37,0-55.5c0.1-1.3-0.1-2.7,0.7-3.9l0.6-0.5c1.1,1.4,0.6,3,0.6,4.6
		c0,17.1,0,34.2,0,51.3C421.1,139.2,421.3,141,421.4,142.9z"/>
	<path id="Path_40255" class="st1" d="M200.1,206.4c-0.1-1.6-0.4-3.1-0.4-4.7c0-46.6,0-93.3,0-139.9c0-1.6-0.3-3.2,0.5-4.7l0.4,0.4
		c1.2,1.5,0.9,3.3,0.9,5c0,46.3,0,92.6,0,138.8c0.1,1.3,0,2.6-0.3,3.9C201,205.7,200.6,206.2,200.1,206.4z"/>
	<path id="Path_40256" class="st1" d="M185.7,328.4c-1.5-1-2.8-2.4-3.7-4c4.4-0.7,8.6-0.2,12.8-0.3c1.5,0,1.9,0.9,1.9,2.2
		c0,4,0,7.9,0,12.7l-7.4-6.1c-1.1,0.3-1.6-0.2-1.5-1.2C187.9,330.1,186.8,329.3,185.7,328.4z"/>
	<path id="Path_40257" class="st1" d="M185.7,328.4c2.4,0.5,2.3,3,3.5,4.5c-8.6,8.7-17.3,17.3-25.9,26c-0.8,0.8-1.9,2.7-3,1.5
		c-1.5-1.5,0.8-2.4,1.6-3.3c7.8-7.9,15.6-15.8,23.5-23.5C187.5,331.8,187.6,330.3,185.7,328.4z"/>
	<path id="Path_40258" class="st1" d="M476,0.9c0,33.1,0,66.3,0,99.4c-1.2-1.2-0.7-2.7-0.7-4.1c0-30.4,0-60.8,0-91.2
		C475.3,3.6,474.8,2.1,476,0.9z"/>
	<path id="Path_40259" class="st1" d="M626.8,99.6c0-32.9,0-65.8,0-98.7c1.5,3.9,0.7,8,0.7,11.9c0.1,27.5,0,55.1,0,82.6
		C627.4,96.8,627.9,98.3,626.8,99.6z"/>
	<path id="Path_40260" class="st1" d="M94.5,262.5l1.6,1c-0.8,1.5-2.3,1.6-3.7,2c-8.9,2.1-18.1,2.1-27,0c-1.8-0.4-3.7-0.8-4.6-2.8
		l1.6-0.7c1.1-1.4,2.6-1.1,4-0.8c7.8,1.4,15.8,1.5,23.7,0.3C91.6,261.2,93.3,260.8,94.5,262.5z"/>
	<path id="Path_40261" class="st1" d="M143.5,157.7c0.3-3,1.9-4.8,5-4.7c2.4-0.1,4.5,1.8,4.6,4.2c0,0.1,0,0.3,0,0.4
		c0.3,2.5-1.5,4.7-4,4.9c-0.3,0-0.5,0-0.8,0C145.4,162.7,143.8,160.8,143.5,157.7z"/>
	<path id="Path_40262" class="st1" d="M59.8,290.4c-1.1,2-0.8,4.2-0.8,6.4c0,24.7,0,49.5,0,74.2c0,2,0.2,4-0.7,5.9
		c-0.1-0.3-0.2-0.6-0.3-0.9c0-27.2,0-54.4,0.1-81.6c0-1.5-1-3.5,1.2-4.6c0.1,0,0.2,0.1,0.3,0.1C59.7,290.1,59.7,290.2,59.8,290.4z"
		/>
	<path id="Path_40263" class="st1" d="M286.8,37.3c0.3-3,1.9-4.8,4.9-4.7c2.4-0.2,4.6,1.7,4.7,4.1c0,0.1,0,0.3,0,0.4
		c0.3,2.5-1.5,4.7-3.9,5c-0.3,0-0.5,0-0.8,0C288.9,42.2,287.1,40.5,286.8,37.3z"/>
	<path id="Path_40264" class="st1" d="M143.6,37.2c0.3-3,1.9-4.7,5-4.6c2.4-0.1,4.5,1.8,4.6,4.3c0,0.1,0,0.3,0,0.4
		c0.3,2.5-1.5,4.7-4,4.9c-0.3,0-0.5,0-0.8,0C145.4,42.1,143.8,40.3,143.6,37.2z"/>
	<path id="Path_40265" class="st1" d="M143.5,7.2c0.4-3.1,2-4.9,5.1-4.7c2.4-0.1,4.5,1.8,4.6,4.2c0,0.1,0,0.3,0,0.4
		c0.2,2.5-1.6,4.6-4.1,4.9c-0.3,0-0.5,0-0.8,0C145.3,12,143.8,10.1,143.5,7.2z"/>
	<path id="Path_40266" class="st1" d="M172.2,7.3c0.3-3,1.8-4.8,4.9-4.8c2.4-0.2,4.6,1.6,4.8,4c0,0.2,0,0.3,0,0.5
		c0.3,2.5-1.4,4.7-3.9,5c-0.2,0-0.5,0-0.8,0C174.2,12.1,172.5,10.3,172.2,7.3z"/>
	<path id="Path_40267" class="st1" d="M148.3,102.4c-3.1-0.4-4.8-2.1-4.6-5.1c-0.1-2.4,1.8-4.4,4.2-4.5c0.2,0,0.4,0,0.5,0
		c2.5-0.2,4.6,1.6,4.8,4.1c0,0.3,0,0.5,0,0.8C153.1,100.6,151.2,102.3,148.3,102.4z"/>
	<path id="Path_40268" class="st1" d="M148.6,122.9c3,0.4,4.7,2.2,4.5,5.1c0,2.5-1.9,4.5-4.4,4.6c-0.3,0-0.5,0-0.8-0.1
		c-2.4,0-4.4-2-4.4-4.4c0-0.2,0-0.3,0-0.5C143.7,124.6,145.5,123,148.6,122.9z"/>
	<path id="Path_40269" class="st1" d="M172.2,127.9c0.2-3,1.7-4.9,4.8-5c2.5-0.2,4.7,1.6,4.9,4.1c0,0.3,0,0.5,0,0.8
		c0.1,2.5-1.7,4.6-4.2,4.7c-0.1,0-0.2,0-0.3,0C174.2,132.7,172.6,130.9,172.2,127.9z"/>
	<path id="Path_40270" class="st1" d="M148.4,72.3c-3.2-0.3-4.9-2-4.8-5.1c-0.1-2.4,1.8-4.5,4.2-4.6c0.2,0,0.3,0,0.5,0
		c2.5-0.2,4.7,1.6,4.9,4.1c0,0.3,0,0.5,0,0.8C153.2,70.4,151.3,72.1,148.4,72.3z"/>
	<path id="Path_40271" class="st1" d="M172.2,157.9c0.2-3,1.7-4.9,4.8-4.8c2.5-0.2,4.6,1.7,4.8,4.1c0,0.3,0,0.5,0,0.8
		c0.1,2.5-1.8,4.6-4.3,4.7c-0.1,0-0.2,0-0.3,0C174.2,162.8,172.5,161,172.2,157.9z"/>
	<path id="Path_40272" class="st1" d="M177.1,102.4c-3.1-0.2-4.9-1.9-4.9-4.9c-0.2-2.4,1.6-4.5,4-4.7c0.2,0,0.4,0,0.5,0
		c3.1-0.1,5,1.7,5.1,4.6C182,100.4,180.1,102.1,177.1,102.4z"/>
	<path id="Path_40273" class="st1" d="M258.2,37.4c0.3-3,1.8-4.8,4.7-4.8c3.1,0,4.9,1.8,4.9,4.9c0.2,2.4-1.7,4.5-4.1,4.7
		c-0.2,0-0.4,0-0.5,0C260.1,42.2,258.5,40.3,258.2,37.4z"/>
	<path id="Path_40274" class="st1" d="M234,32.5c3.2,0.3,5.1,1.8,5.1,4.9c0.2,2.5-1.6,4.6-4.1,4.8c-0.3,0-0.5,0-0.8,0
		c-2.4,0.2-4.5-1.7-4.7-4.1c0-0.1,0-0.3,0-0.4C229.4,34.5,231.3,33,234,32.5z"/>
	<path id="Path_40275" class="st1" d="M205.7,32.5c3,0.4,4.9,1.9,4.8,5c0.1,2.5-1.8,4.6-4.3,4.7c-0.3,0-0.5,0-0.8,0
		c-2.4,0.1-4.5-1.9-4.5-4.3c0-0.1,0-0.3,0-0.4C200.9,34.3,202.8,32.8,205.7,32.5z"/>
	<path id="Path_40276" class="st1" d="M205.6,2.4c3,0.3,4.9,1.8,4.9,4.9c0.2,2.5-1.7,4.6-4.2,4.7c-0.3,0-0.5,0-0.8,0
		c-2.4,0.1-4.5-1.8-4.6-4.2c0-0.1,0-0.3,0-0.4C200.8,4.3,202.6,2.7,205.6,2.4z"/>
	<path id="Path_40277" class="st1" d="M234.4,2.4c3,0.3,4.9,2,4.7,5c0.1,2.5-1.8,4.5-4.3,4.6c-0.3,0-0.5,0-0.8,0
		c-2.4,0-4.5-1.9-4.5-4.4c0-0.1,0-0.3,0-0.4C229.6,4.2,231.5,2.7,234.4,2.4z"/>
	<path id="Path_40278" class="st1" d="M172.2,37.3c0.3-3,1.9-4.8,5-4.7c2.5-0.1,4.6,1.8,4.7,4.3c0,0.1,0,0.2,0,0.3
		c0.2,2.5-1.6,4.7-4,4.9c-0.2,0-0.5,0-0.7,0C174.1,42.2,172.4,40.3,172.2,37.3z"/>
	<path id="Path_40279" class="st1" d="M177.4,72.3c-3.2-0.2-5-1.7-5.1-4.8c-0.2-2.4,1.5-4.6,4-4.9c0.1,0,0.3,0,0.4,0
		c2.5-0.4,4.8,1.4,5.1,3.8c0,0.2,0,0.5,0,0.7C182,70.1,180.2,71.9,177.4,72.3z"/>
	<path id="Path_40280" class="st1" d="M262.7,2.4c3.2,0.2,4.9,1.7,5,4.6c0.1,3.1-1.6,5-4.7,5s-4.8-1.9-4.8-5
		C258.4,4.1,260.2,2.7,262.7,2.4z"/>
	<path id="Path_40281" class="st1" d="M286.8,7.6c0.3-3.2,1.8-5.1,4.9-5.1c2.4-0.2,4.6,1.6,4.8,4c0,0.1,0,0.3,0,0.4
		c0.2,3-1.6,4.9-4.6,5.1C288.9,12.2,287.3,10.3,286.8,7.6z"/>
	<path id="Path_40282" class="st1" d="M598.2,99.7l0.2,1.1c-0.1,9.9-0.1,19.8-0.2,29.7c0,0.9,0.4,2.3-0.9,2.6
		c-1.2,0.3-1.5-1.1-1.8-2l0.8-4c-3.1-8.2-1.9-16.7-1.6-25.1c0-0.9,0.5-1.7,1.1-2.2C596.5,99.1,597.5,99.1,598.2,99.7z"/>
	<path id="Path_40283" class="st1" d="M110.2,165.6c-2.3-1.7-3.6-0.6-4.4,1.7c-4.1,0.1-8.3,0.7-12.4,0.3c-1.8-0.2-3.8,0.1-4.9-2
		l-1.7-1.9c8.8,0,17.5-0.1,26.3-0.1c5.5,0,5.7,0.3,3.3,5.6l-1.1-2C113.6,166.5,111.2,168.4,110.2,165.6z"/>
	<path id="Path_40284" class="st1" d="M223.7,219.3c0,0.3,0,0.7,0,1c-3-0.1-6-0.2-9-0.1c-2.2,0.1-3-0.8-3.1-3
		c-0.1-3,1.3-6.7-0.7-8.7c-1.9-1.8-5.5-0.4-8.3-0.6c-1-0.1-2-0.1-2.4-1.4l0.5-0.3c3.7-1.6,7.4-0.2,11-0.1c2.1,0.1,2.8,1.9,2.8,3.7
		c0,4.5,1.8,7.4,6.7,7.7C222.3,217.4,223.4,218.1,223.7,219.3z"/>
	<path id="Path_40285" class="st1" d="M397.2,68.2c2.8,0.7,5.7,0.4,8.6,0.3c2.2,0,3.4,0.5,3.5,3.1c0,2.8-1.3,6.3,0.7,8.3
		s5.5,0.5,8.3,0.7c0.8,0.1,1.7,0,2.3,0.9l-0.3,0.3c-3.5,1.9-7.3,0.9-10.9,0.7c-2.2-0.1-2.8-2.3-2.9-4.2c-0.1-4.2-2-6.7-6.4-7.1
		c-1.5-0.1-2.8-0.6-2.9-2.5C397.2,68.5,397.2,68.4,397.2,68.2z"/>
	<path id="Path_40286" class="st2" d="M272.3,330.4c2.6-2,2.8,1.1,3.5,2c9.7,12.4,22.3,22.5,36.6,29.2c46,21.8,101,5.9,128.2-37.2
		c1.8,0.6,2,2.3,2.5,3.8c3.1,8.6,5.2,17.6,9.2,25.9c0.2,0.7,0.2,1.4,0.1,2.1c-15.7,17.5-35.7,30.5-58.1,37.7
		c-52,16.9-112-2.9-143.5-47.6c-0.3-0.5-0.6-1-0.9-1.6c1-1,2.2-0.1,3.2-0.4C262.6,346.3,271.1,340.1,272.3,330.4z"/>
	<path id="Path_40287" class="st2" d="M463.2,423.5c6.1-34.3,12.3-69,18.5-103.6c4.3-24.3,8.7-48.6,12.9-72.9
		c0.6-3.4,1.2-3.8,4.5-2.3c6.9,3.2,15,3.1,21.8-0.3c2.9-1.4,3.3-0.7,3.7,2c4.3,24.7,8.8,49.5,13.2,74.2
		c5.8,32.5,11.6,65.1,17.4,97.6c0.3,1.8,0.6,3.7,0.8,5.3C525,405.9,494.2,406,463.2,423.5z"/>
	<path id="Path_40288" class="st2" d="M513.3,412.8c10.7,0.2,21.2,2.5,31,6.8c3.6,1.5,6.9,3.7,9.6,6.5c5.8,5.9,5.8,12.3-0.1,18.2
		c-2.8,2.8-6.1,4.9-9.7,6.4c-23,9.2-46.1,9.2-69.1,0c-3.9-1.5-7.4-4-10.3-7.1c-5.1-5.6-5-11.5,0.1-17c4.7-5,10.7-7.7,17.1-9.7
		C491.1,414,500.3,412.8,513.3,412.8z"/>
	<path id="Path_40289" class="st3" d="M509.4,244.6c-3.6,0.1-7.2-0.7-10.4-2.4c-3.7-2-3.8-4.8-0.1-6.7c7.1-3.7,14.4-3.5,21.6-0.1
		c1.5,0.7,2.8,1.7,2.8,3.5c-0.1,1.8-1.5,2.7-2.9,3.4C516.9,244,513.1,244.8,509.4,244.6z"/>
	<path id="Path_40290" class="st2" d="M88.5,165.6c4.4,0.1,8.8,0.1,13.2,0.3c1.5,0.1,3.2-0.6,4.1,1.3c-3.1,8.7-6.1,17.3-9.4,26.8
		c-2.4-4.5-1.5-8.6-1.4-12.6c0-1.3,1-3.2-0.8-3.8c-2.5-0.7-5.2-0.7-7.6,0.1c-0.2,0.1-0.4,0.9-0.3,1c0.4,0.3,1,0.7,1.5,0.7
		c5.6-1,5.1,2.5,4.9,6.2c-0.1,2.4,0.1,4.9,0.6,7.3c0.3,1.5,1,3.3,2.8,3.5c1.9,0.2,2.6-1.5,3.1-3c0.3-0.9,0.8-1.7,1.3-2.9
		c3.3,4.1,4.5,7.9,3.1,13c-2.9,10.4-5,21.1-7.2,31.6c-0.3,2.2-2,3.9-4.2,4.3c-8.6,2-17.6,1.9-26.2-0.1c-2.5-0.6-3.4-1.9-3.4-4.6
		c0.4-19.5-1.5-38.6-8.4-57c-0.6-1.5-0.7-2.7,0.8-3.8c10.6-8.5,21.6-16.4,33.8-22.5c0.5-0.1,1-0.2,1.5-0.1c0.1,3.1-1.5,5.3-2.9,7.5
		c-3.2,5-7.4,9.2-11.3,13.7c-1.1,1.2-2.3,2.3-0.4,3.9c8.6,7.3,12.2,16.9,12.9,27.8c0,0.7,0.4,1.3,1.1,1.3c1.4-1.1,0.8-2.8,0.8-4.2
		c-0.6-9.3-3.9-17.5-10.6-24c-2.4-2.4-2.2-3.8,0-5.8C82.3,169.2,83.9,165.3,88.5,165.6z"/>
	<path id="Path_40291" class="st3" d="M50.3,112.6c2,1.2,3.5,3.1,4.3,5.3c5.7,12.9,10.1,26.4,14.8,39.7c1.1,3-1.2,3.5-2.7,4.5
		c-5.5,4-5.6,4-7-2.6c-3.4-15-6.6-30.1-10-45.1C49.5,113.8,49.7,113,50.3,112.6z"/>
	<path id="Path_40292" class="st4" d="M76.5,106.5c2.5,5,2.8,9.4,3,13.6c0.6,9.9,0.9,19.9,1.2,29.9c0.1,2.5-5.5,8.1-7.9,7.8
		c-2-0.3-1.6-2.1-1.5-3.5c0.5-5.8,1.1-11.5,1.6-17.3c0.9-9.1,1.9-18.1,2.8-27.1C75.9,109.1,76.1,108.3,76.5,106.5z"/>
	<path id="Path_40293" class="st5" d="M110.2,165.6c1.6,0.9,4-0.8,5.1,1.6c-3.1,8.9-6.2,17.8-9.6,27.5c-3.3-4.8-2.9-9.3-2.2-13.5
		c0.9-4.8,2.8-9.3,4.3-14C108.1,166.1,109.2,165.9,110.2,165.6z"/>
	<path id="Path_40294" class="st2" d="M594.6,17.3c-8.7,1.7-15.6,6.7-22,12.4c-14.9,13.3-25.3,29.9-34.7,47.2
		c-2.5,4.6-4.7,9.3-7,13.9c-0.6,1.3-1,2.8-2.9,3.3c-1.2-3-2.4-6-3.7-9c-1.7-4.1-4-8-7-11.4c-6.6-7.6-15.1-8.5-23-2.3
		c-7.3,5.7-12.1,13.4-16,21.7c-0.1,0.1-0.2,0.2-0.3,0.3c-0.1,0.1-0.2,0.2-0.3,0.3c-1-0.9-0.6-2.2-0.6-3.3c0-28.1,0-56.3-0.1-84.4
		c0-3.2,1.1-3.8,4-3.8c40.4,0.1,80.8,0.1,121.2,0.1c1.2,0,2.9-0.7,3.6,0.7c0.7,1.3-0.7,2.3-1.4,3.4c-1.5,2-2.4,4.4-2.5,6.9
		c0,4.3-0.9,4.7-5.4,3.8C596,16.8,595.2,16.9,594.6,17.3z"/>
	<path id="Path_40295" class="st2" d="M596.5,99.7c-0.7,9.1-0.3,18.3-0.2,27.4c-2.9-2.4-3.8-6-5.6-9.1c-2.9-5.1-5.7-10.3-8.3-15.7
		c-1.4-2.9-3.3-3.8-6.4-3.7c-14,0.2-28,0-42,0.1c-2.9,0-4-0.5-2.6-3.6c9.3-20.1,20-39.4,34.8-56c8.6-9.6,18.5-17.4,31.2-20.9
		c2.8-1.7,4.9-1.7,7,1.6c4.1,6.2,10.4,7.3,16.9,3.3c0.9-0.7,2-1.1,3.1-1.4l-0.1,0.1c1.4-0.4,1.3,0.7,1.3,1.5c0,24.8,0.1,49.6,0,74.4
		c0,0.5-0.3,0.8-0.5,1.1l0.2-0.2c-2.4,1.3-5,0.5-7.5,0.6C610.5,99.5,603.5,98.7,596.5,99.7z"/>
	<path id="Path_40296" class="st2" d="M477.6,98.7c5.6-9.7,9.9-19.5,18.8-26c6.6-4.9,12.6-4.5,18.2,1.1c6.2,6.2,9,14.3,11.6,22.4
		c0.5,1.6,0,2.5-1.8,2.5C509,98.6,493.6,98.7,477.6,98.7z"/>
	<path id="Path_40297" class="st6" d="M608.8,3.5c5.1-1.8,9.7-1.4,13.6,2.9s3.1,8.8,1,13.5c-1.3,4.8-6.1,6.1-12,5.4
		c-4.3-0.5-8.8-5.4-9.3-9.6C601.4,9.3,603.8,5.1,608.8,3.5z"/>
	<path id="Path_40298" class="st1" d="M608.8,3.5c-5.7,4.6-7.2,9.8-4.6,15c2.3,4.5,7.4,6.9,12.4,5.8c2.9-0.6,4.9-2.4,6.8-4.4
		c0.3,0.6,0.6,1.2,0.9,1.8c-4.8,7.1-16.3,7-21.1-0.8c-1.6-2.6-3.2-3.2-5.8-2.6l-2.8-1c1-0.7,2.1-1,3.3-0.8c1.7,0.2,2.8-0.4,2.8-2.3
		c-0.1-4.3,1.6-7.8,4.6-10.8c-1.1-1.5-2.5-0.9-3.6-0.9c-39.9,0-79.7,0-119.6-0.1c-3.8,0-4.5,1.2-4.5,4.7c0.1,27.2,0.1,54.3,0.1,81.5
		c0,1.5-0.6,3.2,0.9,4.5c-0.3,0.6-0.8,1.6-1.4,0.5c-0.3-1.1-0.4-2.3-0.3-3.4c0-27.4,0-54.9,0-82.3c0-5.8,0.2-6,6.2-6
		c39.3,0,78.6,0,117.9,0C603.6,1.6,606.4,2.2,608.8,3.5z"/>
	<path id="Path_40299" class="st1" d="M624.9,98.8c0.1-24.9,0.1-49.9,0.2-74.8c0-0.9,0-1.8-0.9-2.2c2.6-0.2,1.7,1.9,1.7,3
		c0.1,23.3,0.1,46.6,0.1,69.9C626,96.2,625.7,97.6,624.9,98.8z"/>
	<path id="Path_40300" class="st1" d="M596.5,99.7c1.1-1.7,2.9-1,4.3-1c8.1-0.1,16.2-0.1,24.2-0.1c-2.3,1.6-5,1-7.5,1
		c-6.5,0.1-12.9,0-19.4,0L596.5,99.7z"/>
	<path id="Path_40301" class="st2" d="M61.6,294.6l161.1,161.1H60.9c-1.1-1.1-0.6-2.5-0.6-3.7c0-15.4,0-30.9,0-46.3
		c0-4.6,0.7-5.5,5.6-5.6c7.9-0.3,15.9,0,23.8-0.1c7.1-0.1,8.7-1.6,8.8-8.7c0-2,0.1-4,0-6.1c-0.3-4.9-2-6.7-7-6.9
		c-8.1-0.3-16.2,0-24.3-0.1c-6.3-0.1-6.8-0.7-6.8-7c0-24.1,0-48.2,0.1-72.3C60.4,297.5,59,295.4,61.6,294.6z"/>
	<path id="Path_40302" class="st0" d="M61.6,294.6c-1.3,1.1-1,2.6-1,4c0,24.4,0,48.8-0.1,73.2c0,3.6,1.2,4.7,4.7,4.7
		c10.2-0.2,20.5,0.1,30.7-0.1c3.9-0.1,5,1.2,4.8,5c-0.3,5.5-0.2,11,0,16.4c0.1,3.2-1.1,4.3-4.3,4.2c-10.7-0.1-21.4,0-32-0.1
		c-2.2,0-4,0.2-3.9,3.2c0.2,16.9,0.2,33.8,0.3,50.6c-1.3-0.9-1.1-2.3-1.1-3.5c0-16.9,0-33.9,0.1-50.8c0.6-8.2,0.6-16.4,0-24.5
		c0-26.4,0-52.8,0-79.3C59.9,296.6,58.5,294.1,61.6,294.6z"/>
	<path id="Path_40303" class="st1" d="M59.9,376.9c1.1,8.1,1.1,16.4,0,24.5C59.9,393.3,59.9,385.1,59.9,376.9z"/>
	<path id="Path_40304" class="st4" d="M94.5,262.5c-10.7,2.9-21.4,3.2-32-0.5c-0.9-0.6-0.7-1.5-0.8-2.3c-0.4-3.4-0.2-5.1,4.4-3.9
		c9.5,2.5,19.1,2,29-0.6C95.4,257.7,96,260.1,94.5,262.5z"/>
	<path id="Path_40305" class="st1" d="M397.1,68.7c2.3,1.1,4.8,0.7,7.2,0.7c2.6,0,3.8,1,4,3.7c0.5,8.2,0.6,8.2,8.8,8.4
		c1,0,2,0.2,3,0.3c0.1,0.9,0.2,1.8,0.2,2.7c-3.8,0.9-7.7,1-11.6,0.2c-5-0.9-10-1.2-15.1-1.1c-48.9,0-97.8,0-146.7,0.1
		c-5.9-0.1-11.8,0.8-17.3,2.9c-2,1.7-2.1,4-2.1,6.3c-0.1,5.5,0.1,10.9-0.1,16.4c-0.1,1.3-0.1,2.6,0,4c0.1,34.8,0,69.7,0.1,104.5
		c0,3-0.4,6.1,2.1,8.5c5.1,2.5,10.6,2.9,16,3c51.4,0.2,102.8,0.1,154.2,0.1c4.4,0,8.5-1.4,12.9-1.7c2.5-0.2,3.7-2,4-4.4
		c0.6-5.9,1.7-11.6,1.7-17.6c-0.2-19.3-0.1-38.7-0.1-58c0-1.9-0.3-3.8,0.6-5.5c0.3-0.5,0.9-0.7,1.4-0.5c0,29.9,0,59.9,0.1,89.8
		c-39.4,0-78.9,0.1-118.3,0.1c-23.5,0-47.1,0-70.6,0c-6.8,0-6.8,0-6.8-6.6c0-1.9,0.2-3.8-0.9-5.5c-0.6,0-1.2,0-1.7,0
		c-8.6-0.1-8.7-0.1-9.5-8.7c-0.3-2.5-1.4-3.5-3.9-3.6c-2.7-0.1-5.5,0.6-8-0.9c0-46.9-0.1-93.8-0.1-140.8c0-2.6,0.1-5.2,0.2-7.8
		c1.6-0.1,3.2-0.3,4.7-0.3c61.7,0,123.4,0,185.1,0.1c1.6,0,4.2-1.5,4.7,1.8l-0.8,0.1c-10.8,0.3-21.6,0.1-32.5,0.1
		c-45.9,0-91.8,0-137.7-0.1c-5.4,0-10.6,1.2-15.9,1.7c-2.7,0.2-4,2-4.3,4.6c-0.7,5.9-1.6,11.7-1.6,17.6c0.1,33.6,0.2,67.2,0,100.9
		c0,4.8,1.5,9.4,1.7,14.2c0,1.2,0.7,2.2,1.7,2.8c2.6,0.7,3-1.2,3.3-2.9c0.3-2,0.4-4,0.3-6c0-38.4,0-76.8,0-115.2
		c0-10.2,0.3-10.5,10.3-10.5c55.6,0,111.2,0,166.8,0c2.9,0,6.2-0.8,8.5,2L397.1,68.7z"/>
	<path id="Path_40306" class="st6" d="M395.1,68.3c-1.9,0.1-3.7,0.3-5.6,0.3c-57.5,0-115,0-172.5-0.1c-4.5,0-5.4,1.3-5.4,5.6
		c0.2,41.7,0.1,83.5,0.1,125.2c0,6.3-3.2,8.3-9.8,6.1c-0.6-1.4-0.3-2.9-0.3-4.3c0-45.9,0-91.9,0-137.8c0-4.8,0-4.8,5-4.8
		c61.4,0,122.8,0,184.2,0c1.5,0,3.2-0.6,4.6,0.6l-0.1,0L395.1,68.3z"/>
	<path id="Path_40307" class="st1" d="M225.6,83.5c1.3-1.5,3.1-1.2,4.8-1.2c61.4,0,122.8,0,184.2,0c2.3,0,4.3,0.1,5.7,2.3
		c0,19,0,38-0.1,57c-0.2,0-0.4-0.1-0.5-0.1c-1.9-1.1-1.5-3-1.4-4.6c0.3-5.8-0.6-11.4-1.5-17c-0.3-1.6-0.6-3.1-1.9-4.2
		c-2.8-2.1-6.1-1.6-9.2-1.6c-57,0-113.9,0-170.9,0c-3.1,0-6.4,0.5-9.3-1.1c0-1.3,0-2.6,0-3.9c3-1.5,6.2-1,9.4-1
		c56.5,0,113,0,169.5,0c11.6,0,12.2-0.7,12.2-12.3c0-1.6,0-3.2-0.2-4.8c-0.2-2.9-2.5-5.2-5.3-5.3c-2.2-0.2-4.3-0.3-6.5-0.2
		c-56.6,0-113.3,0-169.9,0C231.6,85.3,228.3,86,225.6,83.5z"/>
	<path id="Path_40308" class="st1" d="M530.4,358.8c-6.2,3.9-12.5,7.7-18.7,11.7c-1.6,1-2.9,0.6-4.4-0.3
		c-5.5-3.4-11.1-6.8-16.7-10.1c-1.7-0.8-2.7-2.6-2.6-4.5c0.1-6.8,0.1-13.6,0-20.4c-0.2-1.7,0.8-3.4,2.3-4.2
		c5.7-3.4,11.4-6.8,17.1-10.3c1.2-0.7,2.2-1.3,3.6-0.4c6.5,4.2,13.6,7.4,19.7,12.4c-0.6,1.1-1.6,1.1-2.6,1
		c-5.4-0.5-9.6-3.7-13.9-6.4c-3.2-2.1-6-1.9-9.2,0c-9.8,5.8-9.8,5.6-0.1,11.5c3.6,2.2,6.7,2.2,10-0.1c2-1.4,4.2-2.5,6.3-3.8
		c2.6-1.6,5.2-2.4,8.1-0.8c0.7,0.3,1.2,0.9,1.2,1.7c0,7.3,0.6,14.6-0.3,21.9c-2.8,0.4-3.2-1.6-3.3-3.6c-0.3-3.3,0-6.6-0.2-10
		c-0.2-3.4-1-3.8-4-2.2c-2.2,1.1-4.2,2.5-6.4,3.7c-2.1,1.1-3.4,3.3-3.4,5.6c-0.1,2.7-0.2,5.5,0,8.2c0.2,3.5,1.3,4.1,4.4,2.5
		c2.7-1.4,5.1-3.2,7.9-4.5c1.1-0.5,2.2-0.9,3.2,0C528.8,358.2,529.8,358.1,530.4,358.8z"/>
	<path id="Path_40309" class="st1" d="M527.7,333.5l3-0.8c0.7,8.7,1.4,17.4-0.4,26l-1.7-1l0,0c2.4-5.2,0.7-10.6,1.1-16
		C529.9,339,530.5,335.8,527.7,333.5L527.7,333.5z"/>
	<path id="Path_40310" class="st2" d="M225.6,112.9c1.7-1.7,3.8-1,5.7-1c62.4,0,124.8-0.1,187.3,0c1.2,1.2,0.6,2.8,0.6,4.1
		c0,36.5,0,73.1,0.1,109.6c0,3.5-0.8,4.6-4.5,4.6c-61.8-0.1-123.6-0.2-185.5-0.1c-1.3,0-2.9,0.9-3.8-0.9c0.1-1,0.3-2,0.3-3
		c0-36.9,0-73.8,0-110.8C225.7,114.6,225.6,113.7,225.6,112.9z"/>
	<path id="Path_40311" class="st2" d="M225.6,83.5c1.9-0.1,3.7-0.4,5.6-0.4c60.7,0,121.3,0,182,0c5.6,0,5.6,0,5.6,5.6
		c0,5.9-0.1,11.8,0,17.8c0,2.4-0.7,3.5-3.2,3.3c-1-0.1-2,0-3,0c-60.4,0-120.7,0-181.1,0c-2,0-4.1,0.5-5.9-0.7L225.6,83.5z"/>
	<path id="Path_40312" class="st1" d="M395.3,59.1c-1.6-0.7-3.4-0.6-5.1-0.6c-60.9,0-121.8,0-182.7-0.1c-4.2,0-5.6,0.9-5.6,5.4
		c0.2,45.6,0.1,91.2,0.1,136.8c0,1.6-0.1,3.2-0.1,4.8c-1-1.7-0.8-3.6-0.8-5.5c0-45.2,0-90.4,0-135.5c0-6.4,0.1-6.5,6.6-6.5
		c60.5,0,121,0,181.5,0C391.3,57.9,393.6,57.3,395.3,59.1z"/>
	<path id="Path_40313" class="st1" d="M225.5,229.2c1.6,1,3.3,0.7,5.1,0.7c61.1,0,122.2,0,183.3,0c2.6,0,5,0.6,5-3.7
		c-0.2-37.4-0.1-74.8-0.1-112.2c0-0.7-0.1-1.4-0.2-2.2c1.3,1.6,1.1,3.5,1.1,5.4c0.1,8.1,0.1,16.1,0.1,24.2c0,27.6,0,55.2-0.1,82.8
		c0,6.4-0.1,6.5-6.6,6.5c-60.5,0-121,0-181.6,0C229.4,230.6,227.1,231.2,225.5,229.2z"/>
	<path id="Path_40314" class="st3" d="M508.6,356.8c0,2.7-0.1,5.5,0,8.2s-1,2.9-3.1,1.6c-5-3.2-11.7-5.2-14.4-9.7
		c-3.1-5-0.7-12.3-0.9-18.6c-0.1-2.5,0.9-2.6,2.8-1.5c4.4,2.7,8.8,5.4,13.3,8c1.6,0.8,2.5,2.4,2.4,4.2
		C508.5,351.6,508.6,354.2,508.6,356.8z"/>
	<path id="Path_40315" class="st6" d="M527.8,333.5c-5.1,3-10.2,6-15.2,9c-1.3,0.8-2.6,1.8-4.3,0.7c-5.4-3.3-10.8-6.5-16.8-10.1
		c6-3.6,11.4-6.9,16.7-10.2c0.8-0.6,2-0.6,2.8,0C516.5,326.6,522.7,329.1,527.8,333.5L527.8,333.5z"/>
	<path id="Path_40316" class="st3" d="M528.7,357.8c-4.8,2.8-9.7,5.6-14.5,8.6c-2.3,1.4-3.6,1.6-3.5-1.8c0.1-5.2,0.1-10.4,0-15.5
		c-0.2-1.6,0.6-3.2,2-4c4.6-2.7,9.1-5.5,13.7-8.3c1.5-0.9,2.8-1.2,2.7,1.2C529,344.6,529.8,351.3,528.7,357.8L528.7,357.8z"/>
	<path id="Path_40317" class="st1" d="M253.1,143.2c2.6-1.7,4.8-1,6.9,0.3c2.6,1.5,4.3,3.8,6.2,6c7,8.5,13,8.5,20.1-0.1
		c1.1-1.4,2.2-2.7,3.5-3.9c5.3-4.9,12.3-5,17.5,0c1.9,1.8,3.4,3.9,5.1,5.9c5.3,5.8,11.5,5.8,16.8,0.1c1.8-2,3.5-4.3,5.5-6.1
		c4.6-4.6,12.1-4.7,16.9-0.2c4.7,4.2,7.3,10.8,15,11.5c-3.7,1.9-6.4,0.4-8.8-1.6c-1.9-1.8-3.7-3.7-5.3-5.7
		c-6.2-7.1-12.4-7.2-18.5-0.1c-1.4,1.6-2.7,3.4-4.3,4.9c-5.3,5.1-12.6,5.1-17.8-0.1c-1.9-1.9-3.5-4.2-5.4-6.2c-5-5.2-11-5.1-15.9,0
		c-1.6,1.7-2.9,3.6-4.5,5.2c-6.1,6.5-14,6.4-19.9-0.3C262.5,148.8,259.7,143.7,253.1,143.2z"/>
	<path id="Path_40318" class="st1" d="M253.1,173.8c3.4-2,6.1-0.7,8.3,1.3c2.2,2.1,4.2,4.3,6.2,6.7c5.5,6.1,11.6,6.2,17.1,0.2
		c1.8-1.9,3.3-4,5.2-5.8c5.2-5,12.3-5,17.5,0c2.2,2.1,4,4.6,6,6.8c2.2,2.4,5.1,3.5,8.2,4.4c-3.1,1.5-5.8,0.6-8.1-1.3
		c-2.1-2-4.1-4.1-5.9-6.3c-5.8-6.7-12.2-6.8-17.9-0.2c-1.2,1.4-2.4,2.9-3.7,4.3c-6.2,6.5-14,6.4-20-0.4
		C262.4,179.3,259.6,174.3,253.1,173.8z"/>
	<path id="Path_40319" class="st1" d="M245.4,95.3c-0.1,3-1.7,4.8-4.5,5c-2.4,0.3-4.6-1.4-4.9-3.8c0-0.3,0-0.6,0-1
		c-0.1-2.4,1.7-4.5,4.1-4.6c0.2,0,0.4,0,0.6,0C243.6,90.9,245.1,92.6,245.4,95.3z"/>
	<path id="Path_40320" class="st1" d="M262,95.6c-0.5,3-2.1,4.9-5.1,4.7c-2.4,0.1-4.4-1.8-4.5-4.2c0-0.2,0-0.4,0-0.6
		c0.1-3,1.9-4.8,5-4.7C260.2,91,261.6,92.8,262,95.6z"/>
	<path id="Path_40321" class="st1" d="M273.2,90.8c2.9,0.1,4.7,1.6,5,4.4c0.2,3-1.5,5-4.5,5.2c-3,0.1-4.9-1.7-4.9-4.8
		C268.8,92.7,270.5,91.1,273.2,90.8z"/>
	<path id="Path_40322" class="st2" d="M259.5,95.6c-0.2,1.5-0.9,2.4-2.5,2.4c-1.2,0-2.2-1-2.2-2.2c0,0,0,0,0,0
		c-0.2-1.2,0.6-2.4,1.9-2.6c0.1,0,0.3,0,0.4,0C258.5,93.1,259.3,94.1,259.5,95.6z"/>
	<path id="Path_40323" class="st2" d="M273.6,98c-1.3,0.1-2.4-0.8-2.5-2.1c0-0.1,0-0.1,0-0.2c-0.1-1.3,0.8-2.4,2-2.5
		c0.1,0,0.2,0,0.3,0c1.2-0.2,2.3,0.7,2.5,1.9c0,0.1,0,0.3,0,0.4c0.2,1.2-0.7,2.4-2,2.5C273.8,98,273.7,98,273.6,98z"/>
</g>
</svg>
