<svg xmlns="http://www.w3.org/2000/svg" width="45.096" height="54.831" viewBox="0 0 45.096 54.831">
  <g id="secure-icon" transform="translate(-45.451 0)">
    <g id="Group_21734" data-name="Group 21734" transform="translate(45.451 0)">
      <g id="Group_21733" data-name="Group 21733" transform="translate(0 0)">
        <path id="Path_41054" data-name="Path 41054" d="M89.654,12.584,68.934.257a1.828,1.828,0,0,0-1.869,0L46.344,12.584a1.828,1.828,0,0,0-.893,1.571v7.037c0,14.821,8.563,28.357,21.888,33.517a1.828,1.828,0,0,0,1.32,0c13.293-5.146,21.888-18.653,21.888-33.517V14.155A1.827,1.827,0,0,0,89.654,12.584ZM77.029,23.309,65.574,34.764a1.828,1.828,0,0,1-2.585,0l-4.02-4.02a1.828,1.828,0,1,1,2.585-2.585l2.728,2.728L74.444,20.724a1.828,1.828,0,0,1,2.585,2.585Z" transform="translate(-45.451 0)" fill="#5ed58c"/>
      </g>
    </g>
  </g>
</svg>
