<svg id="writer-icon" xmlns="http://www.w3.org/2000/svg" width="21.487" height="21.487" viewBox="0 0 21.487 21.487">
  <g id="Group_21967" data-name="Group 21967" transform="translate(0 0)">
    <path id="Path_41442" data-name="Path 41442" d="M414.5,153.382a1.261,1.261,0,0,0-1.685-.086c-.071.058-.016.007-1.1,1.1l2.825,2.825,1.015-1a1.26,1.26,0,0,0,0-1.781Z" transform="translate(-394.433 -146.593)" fill="#060d43"/>
    <path id="Path_41443" data-name="Path 41443" d="M234.382,212l-1.662,3.561a.63.63,0,0,0,.837.837l3.561-1.662c.141-.066-.286.333,4.987-4.873l-2.82-2.82C234.058,212.268,234.449,211.854,234.382,212Z" transform="translate(-222.897 -198.352)" fill="#060d43"/>
    <path id="Path_41444" data-name="Path 41444" d="M15.287,17.155a1.884,1.884,0,0,1-.528.367L11.2,19.184a1.889,1.889,0,0,1-2.51-2.51l1.662-3.561a1.884,1.884,0,0,1,.376-.537L16.08,7.223V1.889A1.891,1.891,0,0,0,14.191,0H1.895A1.891,1.891,0,0,0,.006,1.889V19.6a1.891,1.891,0,0,0,1.889,1.889h12.3A1.891,1.891,0,0,0,16.08,19.6V16.373ZM3.363,4.071h9.4a.63.63,0,1,1,0,1.259h-9.4a.63.63,0,1,1,0-1.259Zm0,3.357H10.75a.63.63,0,0,1,0,1.259H3.363a.63.63,0,1,1,0-1.259Zm-.63,3.987a.63.63,0,0,1,.63-.63H8.735a.63.63,0,0,1,0,1.259H3.363A.63.63,0,0,1,2.734,11.415Z" transform="translate(-0.006 0)" fill="#060d43"/>
  </g>
</svg>
