<svg xmlns="http://www.w3.org/2000/svg" width="70" height="72" viewBox="0 0 70 72"><g transform="translate(-2 -1)"><path d="M45.528,23A23.528,23.528,0,1,0,69.055,46.528,23.528,23.528,0,0,0,45.528,23ZM60.221,36.686l2.038-1.176a1.177,1.177,0,0,1,1.176,2.038L61.4,38.724a1.177,1.177,0,0,1-1.176-2.038ZM44.351,26.529a1.176,1.176,0,0,1,2.353,0v2.353a1.176,1.176,0,1,1-2.353,0Zm-20,20a1.176,1.176,0,0,1,1.176-1.176h2.353a1.176,1.176,0,0,1,0,2.353H25.529A1.176,1.176,0,0,1,24.353,46.528Zm6.482,9.842L28.8,57.546a1.177,1.177,0,0,1-1.176-2.038l2.038-1.176a1.177,1.177,0,1,1,1.176,2.038Zm.431-18.076a1.178,1.178,0,0,1-1.607.431L27.62,37.547A1.177,1.177,0,0,1,28.8,35.509l2.038,1.176A1.177,1.177,0,0,1,31.265,38.293Zm6.459,24.1-1.176,2.038a1.177,1.177,0,1,1-2.038-1.176l1.176-2.038A1.177,1.177,0,1,1,37.724,62.4Zm-.431-30.132a1.178,1.178,0,0,1-1.607-.431L34.509,29.8a1.177,1.177,0,1,1,2.038-1.176l1.176,2.038A1.176,1.176,0,0,1,37.293,32.265ZM46.7,66.526a1.176,1.176,0,0,1-2.353,0V64.173a1.176,1.176,0,1,1,2.353,0ZM45.528,50.057a3.521,3.521,0,0,1-1.176-6.842V33.587a1.176,1.176,0,0,1,2.353,0v9.627a3.5,3.5,0,0,1,2.288,3.955l5.273,3.045a1.177,1.177,0,0,1-1.176,2.038L47.806,49.2A3.5,3.5,0,0,1,45.528,50.057ZM56.115,64.866a1.178,1.178,0,0,1-1.607-.431L53.331,62.4a1.177,1.177,0,1,1,2.038-1.176l1.176,2.038a1.176,1.176,0,0,1-.431,1.607Zm.431-35.07-1.176,2.038a1.177,1.177,0,0,1-2.038-1.176l1.176-2.038A1.177,1.177,0,1,1,56.546,29.8Zm7.32,27.319a1.178,1.178,0,0,1-1.607.431l-2.038-1.176A1.177,1.177,0,0,1,61.4,54.331l2.038,1.176a1.176,1.176,0,0,1,.431,1.607Zm1.66-9.411H63.173a1.176,1.176,0,0,1,0-2.353h2.353a1.176,1.176,0,0,1,0,2.353Z" transform="translate(2.945 2.944)" fill="#5ed58c"/><path d="M57.293,1H9.308A7.209,7.209,0,0,0,2,8.058v38.82a7.066,7.066,0,0,0,7.058,7.058h1.176a1.176,1.176,0,0,0,1.176-1.176V48.055H57.29a3.533,3.533,0,0,0,3.529-3.529v-40A3.531,3.531,0,0,0,57.293,1ZM9.058,51.584a4.711,4.711,0,0,1-4.706-4.706V13.319a7.076,7.076,0,0,0,4.706,1.8Zm49.408-7.058A1.178,1.178,0,0,1,57.29,45.7H11.411V13.94a1.176,1.176,0,0,0-1.176-1.176H9.058a4.716,4.716,0,0,1-3.483-1.541A4.655,4.655,0,0,1,4.353,8.1a4.841,4.841,0,0,1,4.955-4.75H57.293a1.176,1.176,0,0,1,1.173,1.176Z" fill="#060d43"/><path d="M32.176,6A1.176,1.176,0,0,0,31,7.176V21.293a1.176,1.176,0,0,0,1.176,1.176H46.293a1.176,1.176,0,0,0,1.176-1.176A15.31,15.31,0,0,0,32.176,6Zm1.176,14.117V8.406A12.962,12.962,0,0,1,45.064,20.117Z" transform="translate(4.748 0.882)" fill="#060d43"/><path d="M44.409,24.117H35a1.176,1.176,0,0,0-1.176,1.176,3.529,3.529,0,1,1-3.529-3.529,1.176,1.176,0,0,0,1.176-1.176V11.176A1.176,1.176,0,0,0,30.293,10,15.293,15.293,0,1,0,45.586,25.293a1.176,1.176,0,0,0-1.176-1.176ZM30.293,38.233a12.941,12.941,0,0,1-1.176-25.827v7.124a5.882,5.882,0,1,0,6.94,6.94H43.18A12.958,12.958,0,0,1,30.293,38.233Z" transform="translate(2.07 1.588)" fill="#060d43"/></g></svg>