<svg xmlns="http://www.w3.org/2000/svg" width="70" height="72" viewBox="0 0 70 72"><g transform="translate(-1.5 -1.007)"><path d="M61.466,24H24.65a1.152,1.152,0,0,0-1.15,1.15V53.913a1.152,1.152,0,0,0,1.15,1.15H61.466a1.152,1.152,0,0,0,1.15-1.15V25.15A1.152,1.152,0,0,0,61.466,24ZM37.629,43.7l-4.6,5.752a1.151,1.151,0,0,1-1.855-.081l-2.3-3.451a1.15,1.15,0,1,1,1.914-1.276l1.428,2.143,3.619-4.524a1.151,1.151,0,1,1,1.8,1.438Zm0-12.655-4.6,5.752a1.151,1.151,0,0,1-1.855-.081l-2.3-3.451a1.15,1.15,0,1,1,1.914-1.276l1.428,2.143,3.619-4.524a1.151,1.151,0,1,1,1.8,1.438Zm18.66,18.839H39.032a1.15,1.15,0,0,1,0-2.3H56.289a1.15,1.15,0,0,1,0,2.3Zm0-12.655H39.032a1.15,1.15,0,0,1,0-2.3H56.289a1.15,1.15,0,0,1,0,2.3Z" transform="translate(3.131 3.905)" fill="#5ed58c"/><path d="M65.67,19H21.951A3.455,3.455,0,0,0,18.5,22.451V58.117a3.455,3.455,0,0,0,3.451,3.451H35.757v2.3H31.643A1.64,1.64,0,0,0,30,65.507v2.476a1.64,1.64,0,0,0,1.638,1.638H55.978a1.64,1.64,0,0,0,1.638-1.638V65.507a1.64,1.64,0,0,0-1.638-1.638H51.864v-2.3H65.67a3.455,3.455,0,0,0,3.451-3.451V22.451A3.455,3.455,0,0,0,65.67,19Zm0,35.665a3.455,3.455,0,0,1-3.451,3.451H25.4a3.455,3.455,0,0,1-3.451-3.451V25.9A3.455,3.455,0,0,1,25.4,22.451H62.218A3.455,3.455,0,0,1,65.67,25.9Z" transform="translate(2.379 3.385)" fill="#5ed58c"/><g transform="translate(1.5 1.007)"><path d="M20.539,11.155,14.293,17.4l-2.011-2.01a1.15,1.15,0,1,0-1.627,1.627l2.824,2.823a1.15,1.15,0,0,0,1.627,0l7.06-7.059a1.15,1.15,0,1,0-1.627-1.627Z" transform="translate(-0.173 0.47)" fill="#060d43"/><path d="M55.573,29.773H4.951A3.455,3.455,0,0,0,1.5,33.224V51.632a3.455,3.455,0,0,0,3.451,3.451H55.573a3.455,3.455,0,0,0,3.451-3.451V33.224A3.455,3.455,0,0,0,55.573,29.773Zm-6.9,2.3V44.181L44.5,42.51a1.155,1.155,0,0,0-.855,0l-4.174,1.671V32.073Zm-27.612,0V44.181L16.884,42.51a1.155,1.155,0,0,0-.855,0l-4.174,1.671V32.073ZM3.8,51.632V33.224a1.152,1.152,0,0,1,1.15-1.15h4.6V45.879a1.152,1.152,0,0,0,1.578,1.068l5.325-2.13,5.325,2.13a1.152,1.152,0,0,0,1.578-1.068V32.073h5.752V52.782H4.951A1.152,1.152,0,0,1,3.8,51.632Zm52.922,0a1.152,1.152,0,0,1-1.15,1.15H31.413V32.073h5.752V45.879a1.152,1.152,0,0,0,1.578,1.068l5.325-2.13,5.325,2.13a1.152,1.152,0,0,0,1.578-1.068V32.073h4.6a1.152,1.152,0,0,1,1.15,1.15Z" transform="translate(-1.5 3.322)" fill="#060d43"/><path d="M56.127,5.339H27.64a15.266,15.266,0,1,0,1.072,20.709H56.127a2.867,2.867,0,0,0,2.864-2.864V8.2a2.867,2.867,0,0,0-2.864-2.864ZM17,29.238A12.969,12.969,0,1,1,29.968,16.269,12.969,12.969,0,0,1,17,29.238ZM56.69,23.184a.564.564,0,0,1-.563.563H30.3A15.194,15.194,0,0,0,29.585,7.64H56.127a.564.564,0,0,1,.563.563Z" transform="translate(-1.467 -1.007)" fill="#060d43"/><path d="M47.757,9.772H31.65a1.15,1.15,0,0,0,0,2.3H47.757a1.15,1.15,0,0,0,0-2.3Z" transform="translate(2.864 0.312)" fill="#060d43"/><path d="M47.757,15.773H31.65a1.15,1.15,0,1,0,0,2.3H47.757a1.15,1.15,0,1,0,0-2.3Z" transform="translate(2.864 1.215)" fill="#060d43"/></g></g></svg>