<svg xmlns="http://www.w3.org/2000/svg" width="70" height="72" viewBox="0 0 70 72"><g transform="translate(-1.5 -1)"><g transform="translate(21.713 32.475)"><path d="M24,41.5h4.631V61.183H24Z" transform="translate(-18.79 -25.869)" fill="#5ed58c"/><path d="M31.657,28H22.395A2.9,2.9,0,0,0,19.5,30.895V65.63a2.9,2.9,0,0,0,2.895,2.895h9.263a2.9,2.9,0,0,0,2.895-2.895V30.895A2.9,2.9,0,0,0,31.657,28Zm0,36.472A1.157,1.157,0,0,1,30.5,65.63H23.552a1.157,1.157,0,0,1-1.158-1.158v-22a1.157,1.157,0,0,1,1.158-1.158H30.5a1.157,1.157,0,0,1,1.158,1.158ZM30.5,37.842H23.552a1.158,1.158,0,1,1,0-2.316H30.5a1.158,1.158,0,1,1,0,2.316Zm0-4.631H23.552a1.158,1.158,0,1,1,0-2.316H30.5a1.158,1.158,0,1,1,0,2.316Z" transform="translate(-19.5 -28)" fill="#5ed58c"/><path d="M39,41.5h4.631V61.183H39Z" transform="translate(-16.422 -25.869)" fill="#5ed58c"/><path d="M46.657,28H37.395A2.9,2.9,0,0,0,34.5,30.895V65.63a2.9,2.9,0,0,0,2.895,2.895h9.263a2.9,2.9,0,0,0,2.895-2.895V30.895A2.9,2.9,0,0,0,46.657,28Zm0,36.472A1.157,1.157,0,0,1,45.5,65.63H38.552a1.157,1.157,0,0,1-1.158-1.158v-22a1.157,1.157,0,0,1,1.158-1.158H45.5a1.157,1.157,0,0,1,1.158,1.158ZM45.5,37.842H38.552a1.158,1.158,0,1,1,0-2.316H45.5a1.158,1.158,0,1,1,0,2.316Zm0-4.631H38.552a1.158,1.158,0,1,1,0-2.316H45.5a1.158,1.158,0,1,1,0,2.316Z" transform="translate(-17.132 -28)" fill="#5ed58c"/><path d="M54,41.5h4.631V61.183H54Z" transform="translate(-14.054 -25.869)" fill="#5ed58c"/><path d="M61.657,28H52.395A2.9,2.9,0,0,0,49.5,30.895V65.63a2.9,2.9,0,0,0,2.895,2.895h9.263a2.9,2.9,0,0,0,2.895-2.895V30.895A2.9,2.9,0,0,0,61.657,28Zm0,36.472A1.157,1.157,0,0,1,60.5,65.63H53.552a1.157,1.157,0,0,1-1.158-1.158v-22a1.157,1.157,0,0,1,1.158-1.158H60.5a1.157,1.157,0,0,1,1.158,1.158ZM60.5,37.842H53.552a1.158,1.158,0,1,1,0-2.316H60.5a1.158,1.158,0,1,1,0,2.316Zm0-4.631H53.552a1.158,1.158,0,1,1,0-2.316H60.5a1.158,1.158,0,0,1,0,2.316Z" transform="translate(-14.764 -28)" fill="#5ed58c"/></g><path d="M58.235,37.91h-1l1.825-14.548a3.434,3.434,0,0,0-1.874-3.514L59.057,4.905A3.475,3.475,0,0,0,55.611,1H40.867a1.157,1.157,0,0,0-1.13.906l-.814,3.652H21.969l-.814-3.652A1.157,1.157,0,0,0,20.026,1H5.282A3.475,3.475,0,0,0,1.836,4.905L3.71,19.848a3.436,3.436,0,0,0-1.874,3.514L3.661,37.91h-1a1.158,1.158,0,0,0-1.149,1.3l2.06,16.364a3.48,3.48,0,0,0,3.446,3.039H53.877a3.48,3.48,0,0,0,3.446-3.039l2.06-16.364a1.158,1.158,0,0,0-1.149-1.3ZM38.407,7.874l-.784,3.519H23.27l-.784-3.519ZM5.282,3.316H19.1L21.212,12.8a1.157,1.157,0,0,0,1.13.906h16.21a1.157,1.157,0,0,0,1.13-.906L41.8,3.316H55.611a1.157,1.157,0,0,1,1.149,1.3L54.9,19.457H40.867a1.157,1.157,0,0,0-1.13.906l-.83,3.725a1.132,1.132,0,0,0-.356-.072H21.97l-.814-3.653a1.157,1.157,0,0,0-1.13-.906H5.995L4.134,4.618a1.157,1.157,0,0,1,1.149-1.3ZM38.407,26.331l-.784,3.518H23.27l-.784-3.518ZM5.282,21.772H19.1l2.114,9.487a1.157,1.157,0,0,0,1.13.906h16.21a1.157,1.157,0,0,0,1.13-.906L41.8,21.772H55.611a1.157,1.157,0,0,1,1.149,1.3L54.9,37.91H40.867a1.158,1.158,0,0,0-1.13.9l-.818,3.659H21.974l-.818-3.659a1.158,1.158,0,0,0-1.13-.9H5.995L4.134,23.075a1.157,1.157,0,0,1,1.149-1.3ZM38.4,44.789l-.777,3.474H23.269l-.777-3.474Zm16.625,10.5A1.159,1.159,0,0,1,53.877,56.3H7.016a1.159,1.159,0,0,1-1.149-1.013l-1.9-15.061H19.1l2.113,9.448a1.158,1.158,0,0,0,1.13.9h16.21a1.158,1.158,0,0,0,1.13-.9l2.113-9.448H56.922Z" transform="translate(0 0)" fill="#060d43"/></g></svg>