<svg xmlns="http://www.w3.org/2000/svg" width="70" height="72" viewBox="0 0 70 72"><g transform="translate(-1.499 -1)"><g transform="translate(25.043 26.543)"><path d="M39.464,38.077c-.352,1.86.586,2.555,2.251,3.4V35.562a3.107,3.107,0,0,0-2.251,2.515Z" transform="translate(-19.774 -20.972)" fill="#5ed58c"/><path d="M43.393,43.652v7.7a4.316,4.316,0,0,0,3.083-3.443C46.893,45.435,45.336,44.361,43.393,43.652Z" transform="translate(-19.128 -19.667)" fill="#5ed58c"/><path d="M44.76,29a16.26,16.26,0,1,0,16.26,16.26A16.26,16.26,0,0,0,44.76,29Zm6.41,21.665A6.6,6.6,0,0,1,45.8,56.114v1.826a1.161,1.161,0,1,1-2.323,0V56.2a8.228,8.228,0,0,1-4.689-1.575,1.162,1.162,0,0,1,1.273-1.944,5.939,5.939,0,0,0,3.416,1.195V45.1c-3.094-1.355-5.191-2.9-4.534-6.394a5.467,5.467,0,0,1,4.534-4.477V32.58a1.161,1.161,0,0,1,2.323,0v1.56a7.013,7.013,0,0,1,3.675,1.566A1.161,1.161,0,1,1,47.9,37.42a4.658,4.658,0,0,0-2.107-.926v7.043c.43.165.885.335,1.391.513a5.782,5.782,0,0,1,3.983,6.613Z" transform="translate(-21.532 -22.032)" fill="#5ed58c"/><path d="M45.728,23A23.228,23.228,0,1,0,68.956,46.228,23.228,23.228,0,0,0,45.728,23Zm0,41.811A18.583,18.583,0,1,1,64.311,46.228,18.583,18.583,0,0,1,45.728,64.811Z" transform="translate(-22.5 -23)" fill="#5ed58c"/></g><path d="M56.086,21.9h-2.51L48.626,8.721A3.482,3.482,0,0,0,44.149,6.68l-9.57,3.495L25.613,1.921a3.478,3.478,0,0,0-4.925.21L1.814,22.272a1.069,1.069,0,0,0-.314.794v32.52A3.488,3.488,0,0,0,4.984,59.07h51.1a3.488,3.488,0,0,0,3.484-3.484v-30.2A3.488,3.488,0,0,0,56.086,21.9ZM3.823,24.227H10.7A8.135,8.135,0,0,1,3.823,31.1Zm0,9.223a10.467,10.467,0,0,0,9.223-9.223H48.025a10.467,10.467,0,0,0,9.223,9.223V47.524a10.467,10.467,0,0,0-9.223,9.223H13.046a10.467,10.467,0,0,0-9.223-9.223Zm53.425-8.061V31.1a8.135,8.135,0,0,1-6.876-6.876h5.714a1.163,1.163,0,0,1,1.161,1.161ZM9.228,21.9,37.4,11.617a10.419,10.419,0,0,0,11.885,5.464L51.094,21.9ZM44.955,8.858a1.16,1.16,0,0,1,1.495.679l2.009,5.35a8.137,8.137,0,0,1-8.879-4.067ZM6.842,20.3,16.833,9.641a10.4,10.4,0,0,0,13.18-.513l2.111,1.943ZM22.4,3.7A1.149,1.149,0,0,1,24.04,3.63l4.249,3.911a8.05,8.05,0,0,1-9.852.388ZM3.823,55.585V49.871A8.135,8.135,0,0,1,10.7,56.747H4.984a1.163,1.163,0,0,1-1.161-1.161Zm52.263,1.161H50.372a8.135,8.135,0,0,1,6.876-6.876v5.714A1.163,1.163,0,0,1,56.086,56.747Z" transform="translate(0)" fill="#060d43"/><path d="M27.791,49.55c5.123,0,9.291-5.731,9.291-12.775S32.914,24,27.791,24,18.5,29.73,18.5,36.775,22.668,49.55,27.791,49.55Zm0-23.228c3.843,0,6.968,4.689,6.968,10.453s-3.126,10.453-6.968,10.453-6.968-4.689-6.968-10.453S23.949,26.322,27.791,26.322Z" transform="translate(2.424 3.708)" fill="#060d43"/><path d="M38.661,36.322H45.63a1.161,1.161,0,1,0,0-2.323H38.661a1.161,1.161,0,1,0,0,2.323Z" transform="translate(5.236 5.322)" fill="#060d43"/><path d="M16.791,35.161A1.161,1.161,0,0,0,15.63,34H8.661a1.161,1.161,0,0,0,0,2.323H15.63a1.161,1.161,0,0,0,1.161-1.161Z" transform="translate(0.969 5.322)" fill="#060d43"/></g></svg>