<svg xmlns="http://www.w3.org/2000/svg" width="44.798" height="30.895" viewBox="0 0 44.798 30.895"><path d="M44.8,107.7a2.648,2.648,0,0,1-2.648,2.648H2.648A2.648,2.648,0,0,1,0,107.7V82.1a2.648,2.648,0,0,1,2.648-2.648h39.5A2.648,2.648,0,0,1,44.8,82.1v25.6Z" transform="translate(0 -79.451)" fill="#306fc5"/><path d="M1.883,107.7V82.1a2.648,2.648,0,0,1,2.648-2.648H2.648A2.648,2.648,0,0,0,0,82.1v25.6a2.648,2.648,0,0,0,2.648,2.648H4.531A2.648,2.648,0,0,1,1.883,107.7Z" transform="translate(0 -79.451)" fill="#202121" opacity="0.15"/><g transform="translate(3.215 9.077)"><path d="M74.59,202.982h1.339l-.669-1.7Z" transform="translate(-71.279 -199.696)" fill="#fff"/><path d="M155.946,286.107v.791H158.2v.852h-2.251v.913h2.494l1.156-1.278-1.1-1.278Z" transform="translate(-145.517 -277.103)" fill="#fff"/><path d="M349.283,201.278l-.73,1.7h1.4Z" transform="translate(-321.271 -199.696)" fill="#fff"/><path d="M213.85,284.709v-3.468l-1.582,1.7Z" transform="translate(-196.911 -272.663)" fill="#fff"/><path d="M244.114,286.655a.614.614,0,0,0-.67-.548h-1.277v1.1h1.339C243.871,287.2,244.114,287.02,244.114,286.655Z" transform="translate(-224.194 -277.103)" fill="#fff"/><path d="M295.324,287.718a.474.474,0,0,0,.183-.426.338.338,0,0,0-.183-.426,1.183,1.183,0,0,0-.486-.061h-1.217v.974h1.217A1.184,1.184,0,0,0,295.324,287.718Z" transform="translate(-271.146 -277.74)" fill="#fff"/><path d="M69.687,183.2v.73l-.365-.73H66.463v.73l-.365-.73H62.2a3.7,3.7,0,0,0-1.7.365V183.2H57.763v.365a1.755,1.755,0,0,0-1.156-.365h-9.8l-.67,1.521-.669-1.521h-3.1v.73l-.3-.73H39.39l-1.217,2.859-1.4,3.1-.026.061h3.167l.022-.061.365-.912h.791l.365.973h3.528v-.73l.3.73h1.764l.3-.73v.73h8.457v-1.582h.122c.122,0,.122,0,.122.183v1.338h4.38V188.8a3.639,3.639,0,0,0,1.642.365h1.825l.365-.973h.852l.365.973h3.529v-.912l.548.912h2.859V183.2H69.687Zm-20.624,5.111H48.09v-3.346l-.061.14v0l-1.415,3.208h-.9l-1.46-3.346v3.346H42.188l-.426-.913H39.694l-.426.913H38.2L40,184.05h1.521l1.7,4.076V184.05h1.612l.029.061h0l.768,1.671.551,1.252.02-.063,1.217-2.92h1.643v4.259Zm4.2-3.346H50.889v.791H53.2v.852H50.889v.852h2.373v.912H49.854V184.05h3.407v.912Zm4.339,1.569.006,0a.7.7,0,0,1,.06.072,1.17,1.17,0,0,1,.215.713v.017s0,.006,0,.01,0,0,0,.005c0,.034,0,.068,0,.1v.852h-.912v-.487a1.448,1.448,0,0,0-.183-.852.554.554,0,0,0-.179-.122,1.214,1.214,0,0,0-.551-.06h-1.1v1.521H53.93V184.05h2.312a2.333,2.333,0,0,1,1.217.183,1.028,1.028,0,0,1,.485.946,1.209,1.209,0,0,1-.728,1.122A.815.815,0,0,1,57.6,186.531Zm2.049,1.777H58.615V184.05h1.034Zm11.864,0H70.174l-1.947-3.225v2.677l-.006-.006v.557H67.193v0H66.159l-.365-.913h-2.13l-.365.973H62.144a1.829,1.829,0,0,1-2.007-2.129,2.494,2.494,0,0,1,.547-1.7,1.916,1.916,0,0,1,1.521-.487h.974v.912H62.2a1.121,1.121,0,0,0-.791.244,1.43,1.43,0,0,0-.3.973,1.324,1.324,0,0,0,.3,1.034.97.97,0,0,0,.73.244h.426l1.4-3.346H65.49l1.7,4.076v-4.076h1.521l1.764,2.981v-2.981h1.035v4.2h0Z" transform="translate(-36.748 -183.198)" fill="#fff"/><path d="M246.714,204.225a.327.327,0,0,0,.048-.065.657.657,0,0,0,.084-.459.338.338,0,0,0-.009-.055s0-.009,0-.014h0a.341.341,0,0,0-.185-.207,1.192,1.192,0,0,0-.487-.061h-1.217v.974h1.217a1.185,1.185,0,0,0,.487-.061.23.23,0,0,0,.05-.036h0Z" transform="translate(-226.729 -201.6)" fill="#fff"/><path d="M163.567,268.629a2.331,2.331,0,0,0-.3-1.156v-2.738h0v-.183h-2.93a1.731,1.731,0,0,0-.84.365v-.365h-2.8a1.933,1.933,0,0,0-1.217.365v-.365h-4.989v.365a2.354,2.354,0,0,0-1.339-.365h-3.285v.365a2.311,2.311,0,0,0-1.4-.365h-3.65l-.852.913-.791-.913H133.7V270.7h5.354l.88-.88.763.88H144.1v-1.4h.3a3.7,3.7,0,0,0,1.4-.183v1.643h2.738v-1.582h.121c.183,0,.183,0,.183.183v1.4h8.274a2.385,2.385,0,0,0,1.4-.365v.365h2.616a2.732,2.732,0,0,0,1.46-.3,2.043,2.043,0,0,0,.966-1.64c0-.021.006-.042.007-.063l0,0C163.565,268.707,163.567,268.668,163.567,268.629Zm-19.164-.365h-1.217v1.582h-2l-1.164-1.339,0,0-.057-.065-1.338,1.4h-3.894v-4.259h3.955l1.08,1.183.227.248.031-.032,1.278-1.4h3.224a1.579,1.579,0,0,1,1.592.791,1.72,1.72,0,0,1,.05.425C146.167,268.02,145.315,268.264,144.4,268.264Zm6.084-.061a1.381,1.381,0,0,1,.182.791v.852h-1.034V269.3a1.357,1.357,0,0,0-.183-.852c-.121-.182-.365-.182-.73-.182h-1.1v1.582h-1.034v-4.32H148.9a2.454,2.454,0,0,1,1.217.182,1.077,1.077,0,0,1,.547.974,1.211,1.211,0,0,1-.73,1.156A1.037,1.037,0,0,1,150.487,268.2Zm4.2-1.765h-2.373v.791h2.312v.852h-2.312v.852h2.373v.912h-3.407v-4.32h3.407Zm2.555,3.407h-1.947v-.913h1.947a.514.514,0,0,0,.426-.122.442.442,0,0,0,0-.608.516.516,0,0,0-.365-.122c-.973-.061-2.129,0-2.129-1.338,0-.608.365-1.278,1.46-1.278h2.008V266.5h-1.886a.9.9,0,0,0-.426.061c-.121.061-.121.183-.121.3,0,.183.121.243.243.3a.771.771,0,0,0,.365.061h.548a1.548,1.548,0,0,1,1.156.365,1.259,1.259,0,0,1,.3.913C158.822,269.419,158.274,269.845,157.24,269.845Zm5.232-.426a1.772,1.772,0,0,1-1.278.426h-1.946v-.913h1.946a.513.513,0,0,0,.426-.122.441.441,0,0,0,0-.608.514.514,0,0,0-.365-.122c-.973-.061-2.129,0-2.129-1.338a1.244,1.244,0,0,1,1.147-1.256,2.27,2.27,0,0,1,.314-.022h2.008V266.5h-1.886a.9.9,0,0,0-.426.061.464.464,0,0,0-.122.3c0,.183.061.243.244.3a.769.769,0,0,0,.365.061h.547a1.9,1.9,0,0,1,.651.1,1.31,1.31,0,0,1,.851.962,1.364,1.364,0,0,1,.019.218A1.237,1.237,0,0,1,162.472,269.419Z" transform="translate(-125.213 -257.434)" fill="#fff"/></g></svg>