<svg xmlns="http://www.w3.org/2000/svg" width="16" height="17.997" viewBox="0 0 16 17.997"><g transform="translate(-37.336)"><g transform="translate(45.122)"><g transform="translate(0)"><path d="M251.193,0a4.223,4.223,0,0,0-2.734,1.48,3.668,3.668,0,0,0-.9,2.85,3.564,3.564,0,0,0,2.759-1.409A3.96,3.96,0,0,0,251.193,0Z" transform="translate(-247.522)"/></g></g><g transform="translate(37.336 4.212)"><g transform="translate(0)"><path d="M52.794,121.666a4.8,4.8,0,0,0-3.579-1.826c-1.68,0-2.391.773-3.558.773-1.2,0-2.118-.77-3.571-.77a4.895,4.895,0,0,0-3.91,2.271c-1.355,2.018-1.123,5.812,1.072,9.043.786,1.156,1.835,2.457,3.207,2.468,1.221.011,1.565-.753,3.22-.76s1.968.77,3.187.758c1.373-.01,2.48-1.451,3.265-2.607a12.806,12.806,0,0,0,1.209-2.182A3.905,3.905,0,0,1,52.794,121.666Z" transform="translate(-37.336 -119.84)"/></g></g></g></svg>