<svg xmlns="http://www.w3.org/2000/svg" width="70" height="70" viewBox="0 0 70 70"><g transform="translate(-1 -1)"><path d="M49.781,40.035C48.846,34.522,46.633,31,44.594,31s-4.252,3.522-5.186,9.035Z" transform="translate(4.953 3.869)" fill="#5ed58c"/><path d="M37.924,41H31.41a14.19,14.19,0,0,0,0,6.776h6.513a39.05,39.05,0,0,1,0-6.776Z" transform="translate(3.87 5.16)" fill="#5ed58c"/><path d="M39.408,49c.935,5.513,3.147,9.035,5.186,9.035S48.846,54.513,49.781,49Z" transform="translate(4.953 6.189)" fill="#5ed58c"/><path d="M50.131,41H39.163a35.289,35.289,0,0,0,0,6.776H50.131a35.289,35.289,0,0,0,0-6.776Z" transform="translate(4.901 5.16)" fill="#5ed58c"/><path d="M57.383,47.776a14.19,14.19,0,0,0,0-6.776H50.87a39.05,39.05,0,0,1,0,6.776Z" transform="translate(6.43 5.16)" fill="#5ed58c"/><path d="M38.072,49H32a14.748,14.748,0,0,0,8.943,8.284A20.829,20.829,0,0,1,38.072,49Z" transform="translate(3.999 6.189)" fill="#5ed58c"/><path d="M46.458,25A21.458,21.458,0,1,0,67.917,46.458,21.458,21.458,0,0,0,46.458,25Zm0,38.4A16.941,16.941,0,1,1,63.4,46.458,16.941,16.941,0,0,1,46.458,63.4Z" transform="translate(3.083 3.083)" fill="#5ed58c"/><path d="M50.953,39.949h6.069a14.748,14.748,0,0,0-8.943-8.284,20.828,20.828,0,0,1,2.875,8.284Z" transform="translate(6.069 3.955)" fill="#5ed58c"/><path d="M50.953,49a20.828,20.828,0,0,1-2.875,8.284A14.748,14.748,0,0,0,57.022,49Z" transform="translate(6.069 6.189)" fill="#5ed58c"/><path d="M38.072,39.949a20.828,20.828,0,0,1,2.875-8.284A14.748,14.748,0,0,0,32,39.949Z" transform="translate(3.999 3.955)" fill="#5ed58c"/><g transform="translate(1 1)"><path d="M54.081,11.164H51.822V4.388A3.392,3.392,0,0,0,48.434,1h-38.4A3.392,3.392,0,0,0,6.647,4.388v6.776H4.388A3.392,3.392,0,0,0,1,14.553V54.081a3.392,3.392,0,0,0,3.388,3.388H54.081a3.392,3.392,0,0,0,3.388-3.388V14.553A3.392,3.392,0,0,0,54.081,11.164Zm0,2.259a1.131,1.131,0,0,1,1.129,1.129V20.2H51.822V13.423ZM49.564,4.388V31.493a1.131,1.131,0,0,1-1.129,1.129H30.364V3.259h18.07A1.131,1.131,0,0,1,49.564,4.388Zm-40.658,0a1.131,1.131,0,0,1,1.129-1.129h18.07V32.623H10.035a1.131,1.131,0,0,1-1.129-1.129ZM4.388,13.423H6.647V20.2H3.259V14.553a1.131,1.131,0,0,1,1.129-1.129ZM54.081,55.211H4.388a1.131,1.131,0,0,1-1.129-1.129V22.458H6.647v9.035a3.392,3.392,0,0,0,3.388,3.388h38.4a3.392,3.392,0,0,0,3.388-3.388V22.458h3.388V54.081A1.131,1.131,0,0,1,54.081,55.211Z" transform="translate(-1 -1)" fill="#060d43"/><path d="M11.129,9.259H23.553a1.129,1.129,0,0,0,0-2.259H11.129a1.129,1.129,0,0,0,0,2.259Z" transform="translate(0.164 -0.224)" fill="#060d43"/><path d="M11.129,13.259H23.553a1.129,1.129,0,1,0,0-2.259H11.129a1.129,1.129,0,0,0,0,2.259Z" transform="translate(0.164 0.294)" fill="#060d43"/><path d="M11.129,17.259H23.553a1.129,1.129,0,1,0,0-2.259H11.129a1.129,1.129,0,0,0,0,2.259Z" transform="translate(0.164 0.811)" fill="#060d43"/><path d="M11.129,25.259H23.553a1.129,1.129,0,1,0,0-2.259H11.129a1.129,1.129,0,0,0,0,2.259Z" transform="translate(0.164 1.847)" fill="#060d43"/><path d="M11.129,21.259H23.553a1.129,1.129,0,1,0,0-2.259H11.129a1.129,1.129,0,0,0,0,2.259Z" transform="translate(0.164 1.329)" fill="#060d43"/><path d="M30.129,9.259H42.553a1.129,1.129,0,0,0,0-2.259H30.129a1.129,1.129,0,0,0,0,2.259Z" transform="translate(2.623 -0.224)" fill="#060d43"/><path d="M30.129,13.259H42.553a1.129,1.129,0,0,0,0-2.259H30.129a1.129,1.129,0,1,0,0,2.259Z" transform="translate(2.623 0.294)" fill="#060d43"/><path d="M30.129,17.259H42.553a1.129,1.129,0,1,0,0-2.259H30.129a1.129,1.129,0,1,0,0,2.259Z" transform="translate(2.623 0.811)" fill="#060d43"/><path d="M42.553,23H30.129a1.129,1.129,0,1,0,0,2.259H42.553a1.129,1.129,0,1,0,0-2.259Z" transform="translate(2.623 1.847)" fill="#060d43"/><path d="M30.129,21.259H42.553a1.129,1.129,0,1,0,0-2.259H30.129a1.129,1.129,0,1,0,0,2.259Z" transform="translate(2.623 1.329)" fill="#060d43"/><path d="M15.47,33H9.823A2.826,2.826,0,0,0,7,35.823v7.906a2.826,2.826,0,0,0,2.823,2.823H15.47a2.826,2.826,0,0,0,2.823-2.823V35.823A2.826,2.826,0,0,0,15.47,33Zm.565,10.729a.565.565,0,0,1-.565.565H9.823a.565.565,0,0,1-.565-.565V35.823a.565.565,0,0,1,.565-.565H15.47a.565.565,0,0,1,.565.565Z" transform="translate(-0.224 3.14)" fill="#060d43"/><path d="M29.47,33H23.823A2.826,2.826,0,0,0,21,35.823v7.906a2.826,2.826,0,0,0,2.823,2.823H29.47a2.826,2.826,0,0,0,2.823-2.823V35.823A2.826,2.826,0,0,0,29.47,33Zm.565,10.729a.565.565,0,0,1-.565.565H23.823a.565.565,0,0,1-.565-.565V35.823a.565.565,0,0,1,.565-.565H29.47a.565.565,0,0,1,.565.565Z" transform="translate(1.588 3.14)" fill="#060d43"/><path d="M43.47,33H37.823A2.826,2.826,0,0,0,35,35.823v7.906a2.826,2.826,0,0,0,2.823,2.823H43.47a2.826,2.826,0,0,0,2.823-2.823V35.823A2.826,2.826,0,0,0,43.47,33Zm.565,10.729a.565.565,0,0,1-.565.565H37.823a.565.565,0,0,1-.565-.565V35.823a.565.565,0,0,1,.565-.565H43.47a.565.565,0,0,1,.565.565Z" transform="translate(3.399 3.14)" fill="#060d43"/></g></g></svg>