<svg xmlns="http://www.w3.org/2000/svg" width="70" height="75" viewBox="0 0 70 75"><g transform="translate(-3 -1)"><path d="M62.417,25H37V56.468H61.206V27.421h1.21a1.211,1.211,0,0,1,1.21,1.21v12.1a1.21,1.21,0,1,0,2.421,0v-12.1A3.635,3.635,0,0,0,62.417,25Z" transform="translate(6.952 5.021)" fill="#5ed58c"/><path d="M37.4,53.9l3.169,3.942H57.636l3.17-3.942a1.209,1.209,0,0,0,.4-.9H37a1.209,1.209,0,0,0,.4.9Z" transform="translate(6.952 10.897)" fill="#5ed58c"/><path d="M51.045,61.421H13.205a1.21,1.21,0,0,0,0,2.421H54.187a1.2,1.2,0,0,0,.806-.311L60.006,59H48.367Z" transform="translate(1.893 12.159)" fill="#5ed58c"/><path d="M61.206,21.631A3.635,3.635,0,0,0,57.575,18H40.631A3.635,3.635,0,0,0,37,21.631v2.421H61.206Z" transform="translate(6.952 3.564)" fill="#5ed58c"/><path d="M55.525,14.631A3.405,3.405,0,0,0,52.413,11h-8.3A3.405,3.405,0,0,0,41,14.631v2.421H55.525Z" transform="translate(7.792 2.096)" fill="#5ed58c"/><g transform="translate(3 1)"><path d="M52.623,8.262H50.2V4.631A3.635,3.635,0,0,0,46.571,1H12.683A3.635,3.635,0,0,0,9.052,4.631V8.262H6.631A3.635,3.635,0,0,0,3,11.893v37.52a3.635,3.635,0,0,0,3.631,3.631h15.71l-.968,4.841H16.313a1.21,1.21,0,1,0,0,2.421H42.94a1.21,1.21,0,1,0,0-2.421H37.881l-.968-4.841h15.71a3.635,3.635,0,0,0,3.631-3.631V11.893a3.635,3.635,0,0,0-3.631-3.631Zm0,2.421a1.211,1.211,0,0,1,1.21,1.21V42.151H50.2V10.683ZM11.472,4.631a1.212,1.212,0,0,1,1.21-1.21H46.571a1.211,1.211,0,0,1,1.21,1.21v37.52H11.472ZM6.631,10.683H9.052V42.151H5.421V11.893a1.212,1.212,0,0,1,1.21-1.21Zm28.782,47.2H23.841l.969-4.841h9.634Zm17.21-7.262H6.631a1.212,1.212,0,0,1-1.21-1.21V44.571H53.833v4.841a1.211,1.211,0,0,1-1.21,1.21Z" transform="translate(-3 -1)" fill="#060d43"/><path d="M14.21,37.468H27.524a1.21,1.21,0,0,0,1.21-1.21V7.21A1.21,1.21,0,0,0,27.524,6H14.21A1.21,1.21,0,0,0,13,7.21V36.258A1.21,1.21,0,0,0,14.21,37.468Zm1.21-29.048H26.313V35.048H15.421Z" transform="translate(-0.897 0.052)" fill="#060d43"/><path d="M30.21,8.421h7.262a1.21,1.21,0,0,0,0-2.421H30.21a1.21,1.21,0,1,0,0,2.421Z" transform="translate(2.468 0.052)" fill="#060d43"/><path d="M30.21,16.421h7.262a1.21,1.21,0,0,0,0-2.421H30.21a1.21,1.21,0,1,0,0,2.421Z" transform="translate(2.468 1.734)" fill="#060d43"/><path d="M30.21,24.421h7.262a1.21,1.21,0,0,0,0-2.421H30.21a1.21,1.21,0,1,0,0,2.421Z" transform="translate(2.468 3.417)" fill="#060d43"/><path d="M30.21,32.421h7.262a1.21,1.21,0,0,0,0-2.421H30.21a1.21,1.21,0,1,0,0,2.421Z" transform="translate(2.468 5.099)" fill="#060d43"/></g></g></svg>