<svg xmlns="http://www.w3.org/2000/svg" width="31.834" height="31.881" viewBox="0 0 31.834 31.881"><g transform="translate(0 0)"><path d="M25.517,45.311a3.136,3.136,0,0,0-2.274-1.043,3.242,3.242,0,0,0-2.3,1.036l-2.126,2.12c-.175-.094-.35-.182-.518-.269-.242-.121-.471-.236-.666-.357a23.109,23.109,0,0,1-5.538-5.046,13.633,13.633,0,0,1-1.817-2.866c.552-.5,1.063-1.029,1.561-1.534.188-.188.377-.384.565-.572a3.087,3.087,0,0,0,0-4.656l-1.837-1.837c-.209-.209-.424-.424-.626-.639-.4-.417-.828-.848-1.265-1.252a3.185,3.185,0,0,0-2.254-.989,3.3,3.3,0,0,0-2.288.989l-.013.013L1.832,30.716a4.923,4.923,0,0,0-1.46,3.129,11.8,11.8,0,0,0,.861,4.993,28.971,28.971,0,0,0,5.147,8.586A31.664,31.664,0,0,0,16.925,55.68a16.428,16.428,0,0,0,5.921,1.749c.141.007.289.013.424.013a5.07,5.07,0,0,0,3.882-1.669c.007-.013.02-.02.027-.034a15.3,15.3,0,0,1,1.178-1.218c.289-.276.585-.565.875-.868a3.357,3.357,0,0,0,1.016-2.328,3.234,3.234,0,0,0-1.036-2.308ZM27.926,52.4c-.007,0-.007.007,0,0-.262.283-.532.538-.821.821a17.693,17.693,0,0,0-1.3,1.346,3.244,3.244,0,0,1-2.53,1.07c-.1,0-.209,0-.31-.007a14.594,14.594,0,0,1-5.248-1.574,29.889,29.889,0,0,1-9.931-7.778,27.317,27.317,0,0,1-4.845-8.068,9.607,9.607,0,0,1-.754-4.212,3.089,3.089,0,0,1,.929-2L5.412,29.7a1.53,1.53,0,0,1,1.023-.478,1.439,1.439,0,0,1,.982.471l.02.02c.41.384.8.781,1.211,1.2.209.215.424.431.639.653l1.837,1.837a1.284,1.284,0,0,1,0,2.086c-.2.2-.384.39-.579.579-.565.579-1.1,1.117-1.689,1.642-.013.013-.027.02-.034.034a1.372,1.372,0,0,0-.35,1.527l.02.061a14.747,14.747,0,0,0,2.173,3.546l.007.007a24.7,24.7,0,0,0,5.975,5.437,9.186,9.186,0,0,0,.828.451c.242.121.471.236.666.357.027.013.054.034.081.047a1.459,1.459,0,0,0,.666.168,1.439,1.439,0,0,0,1.023-.464l2.3-2.3a1.522,1.522,0,0,1,1.016-.5,1.37,1.37,0,0,1,.969.491l.013.013,3.707,3.707A1.33,1.33,0,0,1,27.926,52.4Z" transform="translate(-0.344 -25.562)" fill="#060d43"/><path d="M245.691,87.727a8.66,8.66,0,0,1,7.052,7.052.9.9,0,0,0,.895.754,1.2,1.2,0,0,0,.155-.013.909.909,0,0,0,.747-1.05,10.471,10.471,0,0,0-8.532-8.532.913.913,0,0,0-1.05.74A.9.9,0,0,0,245.691,87.727Z" transform="translate(-228.486 -80.144)" fill="#060d43"/><path d="M263.88,14.063A17.242,17.242,0,0,0,249.83.014a.907.907,0,1,0-.3,1.79A15.4,15.4,0,0,1,262.09,14.359a.9.9,0,0,0,.895.754,1.2,1.2,0,0,0,.155-.013A.891.891,0,0,0,263.88,14.063Z" transform="translate(-232.059 0)" fill="#060d43"/></g></svg>