<svg xmlns="http://www.w3.org/2000/svg" width="45.554" height="29.846" viewBox="0 0 45.554 29.846"><rect width="25.133" height="29.846" transform="translate(10.21 0)" fill="#f5f5f5"/><g transform="translate(0 0)"><path d="M3.412,88.273A3.412,3.412,0,0,0,0,91.685v23.022a3.412,3.412,0,0,0,3.412,3.412h6.8V88.273Z" transform="translate(0 -88.273)" fill="#ff4b55"/><path d="M404.04,88.273h-6.8v29.846h6.8a3.412,3.412,0,0,0,3.412-3.412V91.685A3.412,3.412,0,0,0,404.04,88.273Z" transform="translate(-361.897 -88.273)" fill="#ff4b55"/><path d="M164.263,164.926l4.661-2.663-1.069-.535a.785.785,0,0,1-.427-.806l.348-2.609-1.973.574a.785.785,0,0,1-.986-.584l-.189-.854-1.853,2.168a.389.389,0,0,1-.679-.319l.791-4.6-1.211.331a.785.785,0,0,1-.9-.388L159.5,152.25v0l-1.276,2.391a.786.786,0,0,1-.9.388l-1.211-.331.791,4.6a.389.389,0,0,1-.679.319l-1.853-2.168-.189.854a.785.785,0,0,1-.986.584l-1.973-.574.348,2.609a.785.785,0,0,1-.427.806l-1.069.535,4.661,2.663a1.134,1.134,0,0,1,.5,1.382l-.4,1.066,3.994-.341a.371.371,0,0,1,.4.381l-.126,4.275h.785l-.126-4.275a.371.371,0,0,1,.4-.381l4,.341-.4-1.066A1.134,1.134,0,0,1,164.263,164.926Z" transform="translate(-136.72 -146.554)" fill="#ff4b55"/></g></svg>