<svg xmlns="http://www.w3.org/2000/svg" width="38.667" height="33.334" viewBox="0 0 38.667 33.334"><path d="M12.816,93.6A12.034,12.034,0,1,0,10.41,91.19L8,96Z" transform="translate(-7.336 -68.67)" fill="#5ed58c"/><g transform="translate(0 0)"><path d="M.071,56.372a.667.667,0,0,0,.895.895l4.451-2.225a12.539,12.539,0,0,0,7.251,2.3,12.78,12.78,0,0,0,1.533-.1,12.631,12.631,0,0,0,19.052,5.807L37.7,65.267a.667.667,0,0,0,.895-.895l-2.225-4.451a12.539,12.539,0,0,0,2.3-7.251A12.681,12.681,0,0,0,26,40H24.432A12.66,12.66,0,0,0,0,44.67a12.539,12.539,0,0,0,2.3,7.251ZM26,41.336A11.346,11.346,0,0,1,37.334,52.67a11.23,11.23,0,0,1-2.273,6.787.667.667,0,0,0-.063.7l1.513,3.025-3.025-1.513a.668.668,0,0,0-.7.063A11.3,11.3,0,0,1,15.536,57a12.6,12.6,0,0,0,9.338-15.66ZM1.334,44.67A11.333,11.333,0,1,1,12.667,56a11.23,11.23,0,0,1-6.787-2.273.669.669,0,0,0-.7-.063L2.157,55.18,3.67,52.155a.667.667,0,0,0-.063-.7A11.23,11.23,0,0,1,1.334,44.67Z" transform="translate(0 -32.003)" fill="#060d43"/><path d="M66,164a2,2,0,1,0-2-2A2,2,0,0,0,66,164Zm0-2.667a.667.667,0,1,1-.667.667A.667.667,0,0,1,66,161.336Z" transform="translate(-58.669 -149.336)" fill="#060d43"/><path d="M130,164a2,2,0,1,0-2-2A2,2,0,0,0,130,164Zm0-2.667a.667.667,0,1,1-.667.667A.667.667,0,0,1,130,161.336Z" transform="translate(-117.336 -149.336)" fill="#060d43"/><path d="M194,164a2,2,0,1,0-2-2A2,2,0,0,0,194,164Zm0-2.667a.667.667,0,1,1-.667.667A.667.667,0,0,1,194,161.336Z" transform="translate(-176.003 -149.336)" fill="#060d43"/><path d="M288,258a2,2,0,1,0,2-2A2,2,0,0,0,288,258Zm2-.667a.667.667,0,1,1-.667.667A.667.667,0,0,1,290,257.336Z" transform="translate(-264.003 -237.336)" fill="#060d43"/><path d="M354,260a2,2,0,1,0-2-2A2,2,0,0,0,354,260Zm0-2.667a.667.667,0,1,1-.667.667A.667.667,0,0,1,354,257.336Z" transform="translate(-322.669 -237.336)" fill="#060d43"/></g></svg>