<svg xmlns="http://www.w3.org/2000/svg" width="36" height="36" viewBox="0 0 36 36"><path d="M1685.708,821.647c-9.782.183-18.028-8.2-18-18.035a18,18,0,1,1,36,.169C1703.652,813.483,1695.49,821.825,1685.708,821.647Zm10.422-23.928a1.6,1.6,0,0,0-.908-1.582,1.774,1.774,0,0,0-2.178.481q-4.832,4.831-9.651,9.674c-.353.356-.587.4-.95.023-.475-.5-1.006-.946-1.518-1.409-1.01-.913-2.011-1.838-3.041-2.727a1.552,1.552,0,0,0-1.693-.162,1.485,1.485,0,0,0-.9,1.372,2.027,2.027,0,0,0,.858,1.729c1.858,1.673,3.706,3.357,5.559,5.036a1.743,1.743,0,0,0,2.667-.05q2.017-1.982,4.019-3.978,3.576-3.549,7.149-7.1A1.681,1.681,0,0,0,1696.13,797.719Z" transform="translate(-1667.708 -785.65)" fill="#5ed58c"/></svg>