<svg xmlns="http://www.w3.org/2000/svg" width="45.554" height="29.846" viewBox="0 0 45.554 29.846"><path d="M42.142,88.275H3.412A3.412,3.412,0,0,0,0,91.687v23.022a3.412,3.412,0,0,0,3.412,3.412H42.142a3.412,3.412,0,0,0,3.412-3.412V91.687A3.412,3.412,0,0,0,42.142,88.275Z" transform="translate(0 -88.275)" fill="#ff4b55"/><g transform="translate(3.526 2.243)"><path d="M43.665,138.5l.749,2.245,2.367.018a.319.319,0,0,1,.187.575l-1.9,1.406L45.778,145a.319.319,0,0,1-.49.356l-1.925-1.376-1.925,1.376a.319.319,0,0,1-.49-.356l.714-2.257-1.9-1.406a.319.319,0,0,1,.187-.575l2.367-.018.749-2.245A.319.319,0,0,1,43.665,138.5Z" transform="translate(-39.628 -136.075)" fill="#ffe15a"/><path d="M169.544,146.435l.537.732.867-.271a.122.122,0,0,1,.136.188l-.53.737.525.74a.122.122,0,0,1-.137.187l-.865-.277-.542.729a.122.122,0,0,1-.22-.072l0-.908-.86-.29a.122.122,0,0,1,0-.232l.862-.284.01-.908A.122.122,0,0,1,169.544,146.435Z" transform="translate(-156.912 -143.457)" fill="#ffe15a"/><path d="M143.465,114.283l.9.1.385-.822a.122.122,0,0,1,.231.027l.186.889.9.112a.122.122,0,0,1,.046.228l-.788.451.172.892a.122.122,0,0,1-.2.114l-.673-.61-.795.439a.122.122,0,0,1-.171-.157l.372-.828-.663-.62A.122.122,0,0,1,143.465,114.283Z" transform="translate(-134.103 -113.488)" fill="#ffe15a"/><path d="M144.894,220.8l-.537.732-.867-.271a.122.122,0,0,0-.136.188l.53.737-.525.74a.122.122,0,0,0,.137.187l.865-.277.542.729a.122.122,0,0,0,.22-.072l0-.908.86-.29a.122.122,0,0,0,0-.232l-.862-.284-.01-.908A.122.122,0,0,0,144.894,220.8Z" transform="translate(-134.104 -211.205)" fill="#ffe15a"/><path d="M169.864,190.125l-.9.1-.385-.822a.122.122,0,0,0-.231.027l-.186.889-.9.112a.122.122,0,0,0-.046.228l.788.451-.172.892a.122.122,0,0,0,.2.114l.673-.61.795.439a.122.122,0,0,0,.171-.157l-.372-.828.663-.62A.122.122,0,0,0,169.864,190.125Z" transform="translate(-155.806 -182.582)" fill="#ffe15a"/></g></svg>