<svg xmlns="http://www.w3.org/2000/svg" width="70" height="70" viewBox="0 0 70 70"><g transform="translate(-1 -1)"><path d="M66.2,59.64H63.94l4.151-29.06A2.26,2.26,0,0,0,65.854,28H23.606a2.26,2.26,0,0,0-2.237,2.58L25.52,59.64H23.26A2.26,2.26,0,0,0,21,61.9v3.39a2.26,2.26,0,0,0,2.26,2.26H66.2a2.26,2.26,0,0,0,2.26-2.26V61.9A2.26,2.26,0,0,0,66.2,59.64ZM44.73,40.43a5.65,5.65,0,1,1-5.65,5.65,5.65,5.65,0,0,1,5.65-5.65Z" transform="translate(2.54 3.45)" fill="#5ed58c"/><path d="M12.13,23.6h3.815a9.6,9.6,0,0,0,18.359,0H38.12a1.13,1.13,0,0,0,1.13-1.13V15.125a14.125,14.125,0,1,0-28.25,0V22.47A1.13,1.13,0,0,0,12.13,23.6Zm3.39-2.26H13.26V16.82h2.26Zm9.6,6.78a7.353,7.353,0,0,1-7.345-7.345v-5.65a7.345,7.345,0,1,1,14.69,0c0,.113.008,5.731-.029,6.215H27.95a1.13,1.13,0,0,0,0,2.26H31.9A7.355,7.355,0,0,1,25.125,28.12Zm9.6-6.78V16.82h2.26v4.52Zm-9.6-18.08a11.87,11.87,0,0,1,11.836,11.3H34.7a9.592,9.592,0,0,0-19.153,0h-2.26A11.87,11.87,0,0,1,25.125,3.26Z" transform="translate(1.284)" fill="#060d43"/><path d="M41.68,28H10.04A9.05,9.05,0,0,0,1,37.04V49.47a3.394,3.394,0,0,0,3.39,3.39H47.33a3.394,3.394,0,0,0,3.39-3.39V37.04A9.05,9.05,0,0,0,41.68,28Zm-9.787,2.26L26.6,34.888a1.134,1.134,0,0,1-1.488,0L19.827,30.26ZM48.46,49.47a1.131,1.131,0,0,1-1.13,1.13H39.42V39.3a1.13,1.13,0,0,0-2.26,0V50.6H14.56V39.3a1.13,1.13,0,0,0-2.26,0V50.6H4.39a1.131,1.131,0,0,1-1.13-1.13V37.04a6.787,6.787,0,0,1,6.78-6.78H16.4l7.232,6.328a3.4,3.4,0,0,0,4.465,0l7.232-6.328H41.68a6.787,6.787,0,0,1,6.78,6.78Z" transform="translate(0 3.47)" fill="#060d43"/></g></svg>