<svg xmlns="http://www.w3.org/2000/svg" width="70" height="73" viewBox="0 0 70 73"><g transform="translate(-2.5 -1)"><path d="M32.646,51H27.882a2.382,2.382,0,1,0,0,4.764h4.764a2.382,2.382,0,1,0,0-4.764Z" transform="translate(4.272 8.709)" fill="#5ed58c"/><path d="M66.328,27H21.073A3.577,3.577,0,0,0,17.5,30.573V66.3a3.577,3.577,0,0,0,3.573,3.573H66.328A3.577,3.577,0,0,0,69.9,66.3V30.573A3.577,3.577,0,0,0,66.328,27ZM34.173,62.728H29.409a4.764,4.764,0,1,1,0-9.527h4.764a4.764,4.764,0,1,1,0,9.527Zm27.391-1.191H52.037a1.191,1.191,0,1,1,0-2.382h9.527a1.191,1.191,0,0,1,0,2.382Zm0-4.764H47.273a1.191,1.191,0,1,1,0-2.382H61.564a1.191,1.191,0,0,1,0,2.382Zm4.764-9.527H21.073a1.191,1.191,0,0,1,0-2.382H66.328a1.191,1.191,0,1,1,0,2.382Zm0-8.336H21.073a1.191,1.191,0,0,1,0-2.382H66.328a1.191,1.191,0,1,1,0,2.382Z" transform="translate(2.599 4.127)" fill="#5ed58c"/><g transform="translate(2.5 1)"><path d="M6.073,60.546H39.419a3.577,3.577,0,0,0,3.573-3.573V46.255h8.336A3.577,3.577,0,0,0,54.9,42.682v-26.2a3.577,3.577,0,0,0-3.573-3.573H42.991V4.573A3.577,3.577,0,0,0,39.419,1H6.073A3.577,3.577,0,0,0,2.5,4.573v52.4a3.577,3.577,0,0,0,3.573,3.573ZM40.61,52.21H27.717l5.1-5.955H40.61ZM51.328,15.291a1.192,1.192,0,0,1,1.191,1.191v26.2a1.192,1.192,0,0,1-1.191,1.191H32.273a1.188,1.188,0,0,0-.9.416l-5.051,5.892V45.064a1.191,1.191,0,0,0-1.191-1.191H13.218a1.192,1.192,0,0,1-1.191-1.191v-26.2a1.192,1.192,0,0,1,1.191-1.191ZM4.882,4.573A1.192,1.192,0,0,1,6.073,3.382H39.419A1.192,1.192,0,0,1,40.61,4.573V6.955H4.882Zm0,4.764H40.61v3.573H13.218a3.577,3.577,0,0,0-3.573,3.573v26.2a3.577,3.577,0,0,0,3.573,3.573H23.937V52.21H4.882Zm0,45.255H40.61v2.382a1.192,1.192,0,0,1-1.191,1.191H6.073a1.192,1.192,0,0,1-1.191-1.191Z" transform="translate(-2.5 -1)" fill="#060d43"/><path d="M14.33,35A7.109,7.109,0,0,0,18.2,36.356v1.272a1.191,1.191,0,0,0,2.382,0V36.264a5.794,5.794,0,0,0,4.539-4.751,5.088,5.088,0,0,0-3.5-5.823c-.374-.132-.712-.258-1.036-.381V19.755a3.7,3.7,0,0,1,1.433.683,1.191,1.191,0,1,0,1.606-1.758,6.1,6.1,0,0,0-3.039-1.357V16.191a1.191,1.191,0,1,0-2.382,0v1.226c-.174.038-.349.079-.529.133-3.591,1.084-4.49,5.94-1.91,7.963a11.439,11.439,0,0,0,2.439,1.4v7.066a4.889,4.889,0,0,1-2.564-.966A1.191,1.191,0,0,0,14.33,35Zm6.249-7.154c1.775.636,2.443,1.777,2.191,3.27a3.46,3.46,0,0,1-2.191,2.663Zm-3.351-4.21c-1.016-.8-.662-3.088.969-3.729v4.349a7.012,7.012,0,0,1-.969-.62Z" transform="translate(-0.344 1.673)" fill="#060d43"/><path d="M27.691,21.382H41.982a1.191,1.191,0,0,0,0-2.382H27.691a1.191,1.191,0,1,0,0,2.382Z" transform="translate(2.082 2.437)" fill="#060d43"/><path d="M27.691,27.382H41.982a1.191,1.191,0,0,0,0-2.382H27.691a1.191,1.191,0,0,0,0,2.382Z" transform="translate(2.082 3.582)" fill="#060d43"/><path d="M27.691,33.382H41.982a1.191,1.191,0,1,0,0-2.382H27.691a1.191,1.191,0,1,0,0,2.382Z" transform="translate(2.082 4.728)" fill="#060d43"/></g></g></svg>