<svg xmlns="http://www.w3.org/2000/svg" width="70" height="68" viewBox="0 0 70 68"><g transform="translate(-1 -2)"><path d="M64.785,23H37.541A4.539,4.539,0,0,0,33,27.541v35.19a4.539,4.539,0,0,0,4.541,4.541H61.379a1.139,1.139,0,0,0,1.135-1.135V60.46h2.27a2.277,2.277,0,0,0,2.27-2.27V25.27A2.277,2.277,0,0,0,64.785,23ZM60.244,65h-22.7a2.27,2.27,0,1,1,0-4.541h22.7Zm0-9.081H39.811a1.135,1.135,0,1,1,0-2.27H60.244a1.135,1.135,0,0,1,0,2.27Zm0-6.811H39.811a1.135,1.135,0,1,1,0-2.27H60.244a1.135,1.135,0,0,1,0,2.27Zm0-6.811H39.811a1.135,1.135,0,1,1,0-2.27H60.244a1.135,1.135,0,0,1,0,2.27Zm1.135-6.811-2.724-2.043a1.136,1.136,0,0,0-1.362,0l-2.724,2.043V25.27h6.811Z" transform="translate(3.945 2.729)" fill="#5ed58c"/><g transform="translate(1 2)"><path d="M47.542,29.244H44.136V9.946a1.135,1.135,0,0,0-.333-.8L36.993,2.333A1.135,1.135,0,0,0,36.19,2H11.216A3.409,3.409,0,0,0,7.811,5.405V20.163H4.405A3.409,3.409,0,0,0,1,23.568V55.353a3.409,3.409,0,0,0,3.405,3.405H47.542a3.409,3.409,0,0,0,3.405-3.405v-22.7a3.409,3.409,0,0,0-3.405-3.405ZM37.325,5.876l2.935,2.935H37.325Zm-27.244-.47A1.137,1.137,0,0,1,11.216,4.27H35.055V9.946a1.135,1.135,0,0,0,1.135,1.135h5.676V29.244H23.7V25.838a5.682,5.682,0,0,0-5.676-5.676H10.081Zm5.676,23.838V25.838a5.621,5.621,0,0,0-1.164-3.405h3.435a3.409,3.409,0,0,1,3.405,3.405v3.405Zm32.92,26.109a1.137,1.137,0,0,1-1.135,1.135H4.405A1.137,1.137,0,0,1,3.27,55.353V23.568a1.137,1.137,0,0,1,1.135-1.135h5.676a3.409,3.409,0,0,1,3.405,3.405v3.405h-2.27a1.135,1.135,0,1,0,0,2.27H47.542a1.137,1.137,0,0,1,1.135,1.135Z" transform="translate(-1 -2)" fill="#060d43"/><path d="M12.135,8.27H29.163a1.135,1.135,0,0,0,0-2.27H12.135a1.135,1.135,0,1,0,0,2.27Z" transform="translate(0.352 -1.459)" fill="#060d43"/><path d="M38.244,14.135A1.135,1.135,0,0,0,37.109,13H12.135a1.135,1.135,0,1,0,0,2.27H37.109A1.135,1.135,0,0,0,38.244,14.135Z" transform="translate(0.352 -0.513)" fill="#060d43"/><path d="M35.487,20H24.135a1.135,1.135,0,1,0,0,2.27H35.487a1.135,1.135,0,1,0,0-2.27Z" transform="translate(1.974 0.433)" fill="#060d43"/><circle cx="1.5" cy="1.5" r="1.5" transform="translate(31 49)" fill="#060d43"/><ellipse cx="2" cy="1.5" rx="2" ry="1.5" transform="translate(36 49)" fill="#060d43"/><circle cx="1.5" cy="1.5" r="1.5" transform="translate(42 49)" fill="#060d43"/></g></g></svg>