<svg xmlns="http://www.w3.org/2000/svg" width="70" height="70" viewBox="0 0 70 70"><g transform="translate(-1.215 -1.071)"><g transform="translate(21.515 21.371)"><circle cx="2.312" cy="2.312" r="2.312" transform="translate(6.357 40.454)" fill="#5ed58c"/><path d="M66.811,51H22.89A2.893,2.893,0,0,0,20,53.89V61.98a2.893,2.893,0,0,0,2.89,2.89H66.811a2.893,2.893,0,0,0,2.89-2.89V53.89A2.893,2.893,0,0,0,66.811,51ZM64.5,59.091H33.128a4.623,4.623,0,1,1,0-2.312H64.5a1.156,1.156,0,1,1,0,2.312Z" transform="translate(-20 -15.169)" fill="#5ed58c"/><path d="M66.811,35.5H22.89A2.893,2.893,0,0,0,20,38.39V46.48a2.893,2.893,0,0,0,2.89,2.89H66.811a2.893,2.893,0,0,0,2.89-2.89V38.39a2.893,2.893,0,0,0-2.89-2.89ZM64.5,43.591H33.128a4.623,4.623,0,1,1,0-2.312H64.5a1.156,1.156,0,1,1,0,2.312Z" transform="translate(-20 -17.585)" fill="#5ed58c"/><circle cx="2.312" cy="2.312" r="2.312" transform="translate(6.357 22.539)" fill="#5ed58c"/><circle cx="2.312" cy="2.312" r="2.312" transform="translate(6.357 4.623)" fill="#5ed58c"/><path d="M66.811,20H22.89A2.893,2.893,0,0,0,20,22.89V30.98a2.893,2.893,0,0,0,2.89,2.89H66.811a2.893,2.893,0,0,0,2.89-2.89V22.89A2.893,2.893,0,0,0,66.811,20ZM64.5,28.091H33.128a4.623,4.623,0,1,1,0-2.312H64.5a1.156,1.156,0,1,1,0,2.312Z" transform="translate(-20 -20)" fill="#5ed58c"/></g><path d="M57.847,22.662a1.156,1.156,0,1,0-2.238.576,26.642,26.642,0,1,1-7.216-12.4l-4.478-.308a1.156,1.156,0,0,0-.158,2.307l7.5.515a1.156,1.156,0,0,0,1.221-1.33L51.339,4.587a1.156,1.156,0,1,0-2.285.352l.6,3.9a28.77,28.77,0,1,0,8.192,13.818Z" transform="translate(0)" fill="#060d43"/><path d="M22.091,13.737A3.471,3.471,0,0,0,18.623,17.2v1.159H17.467A3.471,3.471,0,0,0,14,21.831V44.092a3.471,3.471,0,0,0,3.467,3.467H32.493a3.471,3.471,0,0,0,3.467-3.467V42.937h1.156a3.471,3.471,0,0,0,3.467-3.467V17.2a3.471,3.471,0,0,0-3.467-3.467ZM33.649,44.092a1.157,1.157,0,0,1-1.156,1.156H17.467a1.157,1.157,0,0,1-1.156-1.156V21.831a1.157,1.157,0,0,1,1.156-1.156h1.156V39.469a3.471,3.471,0,0,0,3.467,3.467H33.649ZM38.272,17.2V39.469a1.157,1.157,0,0,1-1.156,1.156H22.091a1.157,1.157,0,0,1-1.156-1.156V17.2a1.157,1.157,0,0,1,1.156-1.156H37.117A1.157,1.157,0,0,1,38.272,17.2Z" transform="translate(1.527 1.362)" fill="#060d43"/><path d="M32.485,19.368H23.974a1.156,1.156,0,0,0,0,2.312h8.511a1.156,1.156,0,1,0,0-2.312Z" transform="translate(2.784 2.369)" fill="#060d43"/><path d="M32.485,25.368H23.974a1.156,1.156,0,1,0,0,2.312h8.511a1.156,1.156,0,1,0,0-2.312Z" transform="translate(2.784 3.146)" fill="#060d43"/><path d="M32.485,31.368H23.974a1.156,1.156,0,0,0,0,2.312h8.511a1.156,1.156,0,1,0,0-2.312Z" transform="translate(2.784 3.923)" fill="#060d43"/></g></svg>