<svg xmlns="http://www.w3.org/2000/svg" width="70" height="70" viewBox="0 0 70 70"><path d="M32.772,55.818a5.688,5.688,0,0,1-5.682-5.682,1.136,1.136,0,1,0-2.273,0,5.688,5.688,0,0,1-5.682,5.682,1.136,1.136,0,1,0,0,2.273,5.688,5.688,0,0,1,5.682,5.682,1.136,1.136,0,0,0,2.273,0,5.688,5.688,0,0,1,5.682-5.682,1.136,1.136,0,0,0,0-2.273Z" transform="translate(1.157 5.091)" fill="#5ed58c"/><path d="M63.772,24.818a5.688,5.688,0,0,1-5.682-5.682,1.136,1.136,0,0,0-2.273,0,5.688,5.688,0,0,1-5.682,5.682,1.136,1.136,0,1,0,0,2.273,5.688,5.688,0,0,1,5.682,5.682,1.136,1.136,0,0,0,2.273,0,5.688,5.688,0,0,1,5.682-5.682,1.136,1.136,0,0,0,0-2.273Z" transform="translate(5.091 1.165)" fill="#5ed58c"/><path d="M28.409,53.409a3.413,3.413,0,0,0,3.409,3.409,3.378,3.378,0,0,1,1.4.308A17.02,17.02,0,0,1,57.126,33.218a3.378,3.378,0,0,1-.308-1.4,3.413,3.413,0,0,0-3.409-3.409A3.4,3.4,0,0,1,50.03,25.3,21.448,21.448,0,0,0,25.3,50.03,3.4,3.4,0,0,1,28.409,53.409Z" transform="translate(1.95 1.953)" fill="#5ed58c"/><path d="M44.114,41.322c-1.167-1.965-2.637-3.009-4.134-3.009a3.5,3.5,0,0,0-1.643.427A4.492,4.492,0,0,0,36,42.755v.884c0,3.226,3.392,7.72,9.091,9.8,5.7-2.083,9.091-6.577,9.091-9.8v-.884a4.492,4.492,0,0,0-2.337-4.015c-2.023-1.066-4.182-.1-5.777,2.582a1.181,1.181,0,0,1-1.953,0Z" transform="translate(3.427 3.743)" fill="#5ed58c"/><path d="M59.259,34.26a3.372,3.372,0,0,1-1.166-.219A17.017,17.017,0,0,1,34.041,58.093a3.371,3.371,0,0,1,.219,1.166A3.408,3.408,0,0,1,32.1,62.425,21.568,21.568,0,0,0,62.425,32.1,3.408,3.408,0,0,1,59.259,34.26Z" transform="translate(2.786 2.786)" fill="#5ed58c"/><path d="M31,45.772A14.772,14.772,0,1,0,45.772,31,14.772,14.772,0,0,0,31,45.772Zm22.587-8.045a6.757,6.757,0,0,1,3.549,6.025v.884c0,4.748-4.727,9.944-11,12.084a1.136,1.136,0,0,1-.735,0c-6.269-2.14-11-7.335-11-12.084v-.884a6.757,6.757,0,0,1,3.549-6.025c2.692-1.424,5.633-.616,7.815,2.032,2.18-2.648,5.117-3.458,7.815-2.032Z" transform="translate(2.637 2.637)" fill="#5ed58c"/><path d="M30.139,21.6a1.136,1.136,0,0,0-1.607-1.607,7.963,7.963,0,0,1-11.249,0A1.136,1.136,0,1,0,15.676,21.6a10.238,10.238,0,0,0,14.463,0Z" transform="translate(0.822 1.405)" fill="#060d43"/><path d="M31.291,31.451a15.909,15.909,0,1,0-12.855,0A23.906,23.906,0,0,0,1,54.409v2.273a1.136,1.136,0,0,0,1.136,1.136H47.59a1.136,1.136,0,0,0,1.136-1.136V54.409A23.908,23.908,0,0,0,31.291,31.451ZM24.863,3.274A13.646,13.646,0,0,1,38.336,14.915a13.675,13.675,0,0,1-6.305-4.762,1.137,1.137,0,0,0-1.837,0,13.684,13.684,0,0,1-11.013,5.621h-7.9a13.647,13.647,0,0,1,13.578-12.5ZM11.285,18.047h7.9a15.959,15.959,0,0,0,11.931-5.41,15.933,15.933,0,0,0,7.364,4.724,13.623,13.623,0,0,1-27.192.686ZM24.863,32.819A21.444,21.444,0,0,1,32.132,34.1a13.5,13.5,0,0,1-14.537,0,21.443,21.443,0,0,1,7.268-1.286Zm21.59,22.727H3.273V54.409A21.6,21.6,0,0,1,15.145,35.156a15.79,15.79,0,0,0,19.436,0A21.6,21.6,0,0,1,46.454,54.409Z" transform="translate(-1 -0.989)" fill="#060d43"/><path d="M16.5,38.349a2.939,2.939,0,0,0-3.374.424,2.936,2.936,0,0,0-3.373-.424A3.328,3.328,0,0,0,8,41.313v.345c0,2.171,2,4.429,4.76,5.371a1.136,1.136,0,0,0,.735,0c2.758-.942,4.76-3.2,4.76-5.371v-.345A3.328,3.328,0,0,0,16.5,38.349Zm-.519,3.309c0,.955-1.081,2.351-2.855,3.082-1.773-.731-2.855-2.127-2.855-3.082v-.345a1.076,1.076,0,0,1,.543-.954.662.662,0,0,1,.313-.082c.45,0,.821.494,1.021.831a1.181,1.181,0,0,0,1.954,0c.246-.414.746-1.058,1.335-.749a1.077,1.077,0,0,1,.543.954Z" transform="translate(-0.046 3.738)" fill="#060d43"/></svg>