<svg xmlns="http://www.w3.org/2000/svg" width="44.798" height="30.895" viewBox="0 0 44.798 30.895"><path d="M44.8,107.7a2.648,2.648,0,0,1-2.648,2.648H2.648A2.648,2.648,0,0,1,0,107.7V82.1a2.648,2.648,0,0,1,2.648-2.648h39.5A2.648,2.648,0,0,1,44.8,82.1v25.6Z" transform="translate(0 -79.451)" fill="#34495e"/><path d="M1.883,107.7V82.1a2.648,2.648,0,0,1,2.648-2.648H2.648A2.648,2.648,0,0,0,0,82.1v25.6a2.648,2.648,0,0,0,2.648,2.648H4.531A2.648,2.648,0,0,1,1.883,107.7Z" transform="translate(0 -79.451)" fill="#202121" opacity="0.15"/><path d="M240.77,221.673a3.239,3.239,0,0,0-3.278-3.272h-.012a3.29,3.29,0,1,0,3.29,3.29C240.77,221.685,240.77,221.679,240.77,221.673Z" transform="translate(-213.699 -206.243)" fill="#f26e21"/><g transform="translate(2.965 12.094)"><path d="M176.826,222.422a2.022,2.022,0,0,1-1.434.695,2.043,2.043,0,0,1-2.066-2.15,2.387,2.387,0,0,1,.619-1.595h0a1.932,1.932,0,0,1,1.342-.556,1.994,1.994,0,0,1,1.518.7v-1.455a3.179,3.179,0,0,0-1.518-.38,3.665,3.665,0,0,0-2.144.893h0A3.445,3.445,0,0,0,172,221.031a3.215,3.215,0,0,0,3.29,3.226h.063a3.579,3.579,0,0,0,1.519-.379l-.042-1.456c-.021.021.021.041,0,.061Z" transform="translate(-159.912 -217.677)" fill="#e7e8e3"/><path d="M310.908,221.219h0l-1.433,3.523-1.645-4.176H306.5l2.594,6.39h.7l2.721-6.39h-1.328Z" transform="translate(-282.649 -220.313)" fill="#e7e8e3"/><path d="M380.983,223.35v3.417h3.48v-1.013h-2.214v-1.708H384.4V222.97h-2.151v-1.329h2.214v-1.076h-3.48Z" transform="translate(-350.613 -220.313)" fill="#e7e8e3"/><path d="M35.656,220.566H33.884v6.2h1.772a3.431,3.431,0,0,0,2.214-.7,3.128,3.128,0,0,0,1.139-2.4A3.062,3.062,0,0,0,35.656,220.566Zm1.455,4.682a2.433,2.433,0,0,1-1.645.506h-.38v-4.112H35.4a2.148,2.148,0,0,1,1.645.506,2.021,2.021,0,0,1,.7,1.519A1.892,1.892,0,0,1,37.111,225.248Z" transform="translate(-33.884 -220.313)" fill="#e7e8e3"/><rect width="1.202" height="6.201" transform="translate(5.695 0.252)" fill="#e7e8e3"/><path d="M121.019,222.314c-.759-.253-.949-.443-.949-.759a.8.8,0,0,1,.886-.7,1.224,1.224,0,0,1,1.012.506l.633-.822a2.756,2.756,0,0,0-1.835-.7,1.856,1.856,0,0,0-1.962,1.771c0,.886.38,1.266,1.519,1.708a2.461,2.461,0,0,1,.823.38.7.7,0,0,1,.379.632.882.882,0,0,1-.949.886,1.475,1.475,0,0,1-1.329-.823l-.759.759a2.482,2.482,0,0,0,2.151,1.2,2,2,0,0,0,2.151-2.025C122.79,223.263,122.411,222.82,121.019,222.314Z" transform="translate(-111.086 -219.657)" fill="#e7e8e3"/><path d="M432.748,224.172A1.669,1.669,0,0,0,434.2,222.4c0-1.139-.823-1.835-2.214-1.835h-1.835v6.2h1.2V224.3h.19l1.708,2.468h1.455Zm-1.013-.759h-.379v-1.9h.379c.759,0,1.2.316,1.2.949S432.495,223.413,431.736,223.413Z" transform="translate(-395.482 -220.313)" fill="#e7e8e3"/></g></svg>