<svg xmlns="http://www.w3.org/2000/svg" width="70" height="71" viewBox="0 0 70 71"><g transform="translate(-1.5 -0.998)"><path d="M66.653,34.574,58.617,25.39a1.126,1.126,0,0,0-.861-.39H35.944A3.454,3.454,0,0,0,32.5,28.444V65.181a3.454,3.454,0,0,0,3.444,3.444H63.5a3.454,3.454,0,0,0,3.444-3.444V35.332a1.153,1.153,0,0,0-.287-.758ZM56.608,52.552H42.832a3.444,3.444,0,1,0,0,6.888H58.9a1.148,1.148,0,0,1,0,2.3H42.832a5.74,5.74,0,1,1,0-11.48H56.608a3.444,3.444,0,0,0,0-6.888H42.832a5.74,5.74,0,1,1,0-11.48H49.72a1.148,1.148,0,1,1,0,2.3H42.832a3.444,3.444,0,1,0,0,6.888H56.608a5.74,5.74,0,1,1,0,11.48Zm2.3-17.22a1.151,1.151,0,0,1-1.148-1.148v-6.3l6.509,7.451Z" transform="translate(4.56 3.373)" fill="#5ed58c"/><g transform="translate(1.5 0.998)"><path d="M30.723,43.113,51.83,22a6.133,6.133,0,0,0,1.346-6.623l3.931-3.932a6.123,6.123,0,0,0-8.658-8.66L44.518,6.721a6.131,6.131,0,0,0-5.794.669,7.373,7.373,0,0,0-9.625.677L18.546,18.622a1.148,1.148,0,1,0,1.623,1.623L30.723,9.691a5.072,5.072,0,0,1,6.259-.711L16.787,29.176a3.535,3.535,0,0,0-1.043,2.8L7.831,39.892A12.316,12.316,0,0,0,4.456,51.04,5.6,5.6,0,0,0,5.273,53L1.836,56.441A1.148,1.148,0,1,0,3.46,58.065L6.9,54.628a5.6,5.6,0,0,0,1.965.817,12.314,12.314,0,0,0,11.147-3.375l7.913-7.914a3.533,3.533,0,0,0,2.8-1.043Zm19.349-38.7a3.827,3.827,0,0,1,5.412,5.413L51.891,13.42c-.023-.024-.038-.052-.061-.075L46.554,8.068c-.023-.023-.051-.038-.075-.061ZM18.411,30.8,39.518,9.692a3.832,3.832,0,0,1,5.413,0l5.276,5.277a3.825,3.825,0,0,1,0,5.412L29.1,41.49a1.371,1.371,0,0,1-1.894,0l-8.8-8.8a1.339,1.339,0,0,1,0-1.894Zm-.026,19.646a10.027,10.027,0,0,1-9.073,2.747,3.311,3.311,0,0,1-2.6-2.6,10.028,10.028,0,0,1,2.747-9.074l7.265-7.265,8.931,8.931Z" transform="translate(-1.5 -0.998)" fill="#060d43"/><path d="M54.13,42.022c-.044.044-4.519,4.407-13.244,6.588a9.448,9.448,0,0,1-4.681.172c2.42-1.427,4.343-3.283,4.926-5.674.9-3.708-.982-5.814-2.871-6.489a5.731,5.731,0,0,0-6.99,3.2,8.8,8.8,0,0,0,.508,8.55A45.906,45.906,0,0,1,21.516,50.88a1.148,1.148,0,1,0,.265,2.28,47.734,47.734,0,0,0,11.8-3.062c1.533.986,4.016,1.7,7.858.739,9.385-2.347,14.114-6.994,14.31-7.191a1.148,1.148,0,1,0-1.622-1.625ZM33.34,40.81a3.453,3.453,0,0,1,4.147-2.03c1.345.482,1.874,1.9,1.414,3.784-.488,2-2.456,3.605-4.954,4.851a6.423,6.423,0,0,1-.607-6.6Z" transform="translate(1.312 4.235)" fill="#060d43"/></g></g></svg>