<svg xmlns="http://www.w3.org/2000/svg" width="70" height="70" viewBox="0 0 70 70"><g transform="translate(-1 -1)"><path d="M64.57,13H28.392A3.4,3.4,0,0,0,25,16.392V66.137a3.4,3.4,0,0,0,3.392,3.392H64.57a3.4,3.4,0,0,0,3.392-3.392V16.392A3.4,3.4,0,0,0,64.57,13ZM30.653,22.045H39.7a1.131,1.131,0,1,1,0,2.261H30.653a1.131,1.131,0,0,1,0-2.261Zm31.656,38.44H48.742a1.131,1.131,0,0,1,0-2.261H62.309a1.131,1.131,0,1,1,0,2.261Zm0-9.045H30.653a1.131,1.131,0,0,1,0-2.261H62.309a1.131,1.131,0,1,1,0,2.261Zm0-9.045H30.653a1.131,1.131,0,0,1,0-2.261H62.309a1.131,1.131,0,1,1,0,2.261Zm0-9.045H30.653a1.131,1.131,0,0,1,0-2.261H62.309a1.131,1.131,0,1,1,0,2.261Z" transform="translate(3.038 1.471)" fill="#5ed58c"/><g transform="translate(1 1)"><path d="M49.615,1H4.392A3.4,3.4,0,0,0,1,4.392v40.7a3.4,3.4,0,0,0,3.392,3.392H49.615a3.4,3.4,0,0,0,3.392-3.392V4.392A3.4,3.4,0,0,0,49.615,1ZM4.392,3.261H49.615a1.132,1.132,0,0,1,1.131,1.131V6.185L29.4,27.528a3.4,3.4,0,0,1-4.8,0L3.261,6.185V4.392A1.132,1.132,0,0,1,4.392,3.261ZM49.615,46.223H4.392a1.132,1.132,0,0,1-1.131-1.131V9.382l15.36,15.36L8.115,35.249a1.13,1.13,0,1,0,1.6,1.6L20.22,26.341l2.786,2.786a5.659,5.659,0,0,0,7.995,0l2.786-2.786L44.293,36.847a1.13,1.13,0,1,0,1.6-1.6L35.386,24.742l15.36-15.36V45.093a1.131,1.131,0,0,1-1.131,1.131Z" transform="translate(-1 -1)" fill="#060d43"/><path d="M16.131,11.261H34.22A1.131,1.131,0,1,0,34.22,9H16.131a1.131,1.131,0,1,0,0,2.261Z" transform="translate(0.828 0.045)" fill="#060d43"/><path d="M29.175,13H20.131a1.131,1.131,0,1,0,0,2.261h9.045a1.131,1.131,0,1,0,0-2.261Z" transform="translate(1.351 0.567)" fill="#060d43"/></g></g></svg>