<svg xmlns="http://www.w3.org/2000/svg" width="32.164" height="24.741" viewBox="0 0 32.164 24.741"><g transform="translate(195.172 -18.146)"><g transform="translate(-195.172 18.146)"><path d="M145.327,173.491a3.715,3.715,0,0,0,3.711-3.711V152.461a3.715,3.715,0,0,0-3.711-3.711H120.586a3.715,3.715,0,0,0-3.711,3.711V169.78a3.715,3.715,0,0,0,3.711,3.711Zm-25.978-3.711V152.461a1.239,1.239,0,0,1,1.237-1.237h24.741a1.239,1.239,0,0,1,1.237,1.237V169.78a1.239,1.239,0,0,1-1.237,1.237H120.586A1.239,1.239,0,0,1,119.349,169.78Z" transform="translate(-116.874 -148.75)" fill="#060d43"/><path d="M131.293,200.458a3.726,3.726,0,0,0,3.32,0l13.738-6.869a1.237,1.237,0,0,0-1.106-2.213l-13.738,6.869a1.237,1.237,0,0,1-1.106,0l-13.738-6.869a1.237,1.237,0,1,0-1.106,2.213Z" transform="translate(-116.87 -186.298)" fill="#060d43"/></g></g></svg>