<svg xmlns="http://www.w3.org/2000/svg" width="211" height="60" viewBox="0 0 211 60"><g transform="translate(-2.275 -1.3)"><path d="M33.055,1.418a27.324,27.324,0,0,1,9.468,2.261,30.561,30.561,0,0,1,11.163,8.2c0,.141.141.141.141.283H34.61A18.324,18.324,0,0,0,22.316,17.1a17.787,17.787,0,0,0-5.935,11.022,18.338,18.338,0,0,0,5.087,16.109,18.138,18.138,0,0,0,10.174,5.511,25.227,25.227,0,0,0,3.25.283H53.828c-.707.848-1.413,1.7-2.12,2.4A29.559,29.559,0,0,1,38.99,59.779a31.992,31.992,0,0,1-6.218,1.13,12.445,12.445,0,0,1-2.4-.283,34.156,34.156,0,0,1-6.5-1.837,33.333,33.333,0,0,1-8.055-4.946,36.339,36.339,0,0,1-4.946-5.511,33.958,33.958,0,0,1-3.815-7.489,35.68,35.68,0,0,1-1.413-6.5C5.5,32.789,5.5,31.235,5.5,29.68a28.366,28.366,0,0,1,1.13-6.924A30.719,30.719,0,0,1,21.185,4.668a31.322,31.322,0,0,1,9.468-3.25A13.613,13.613,0,0,1,33.055,1.418Z" transform="translate(1.332 0.023)" fill="#fff"/><path d="M34.388,1.441A28.455,28.455,0,0,0,19.55,6.952,29.194,29.194,0,0,0,7.539,26.029c-1.7,9.892.989,18.512,7.772,25.86a29.879,29.879,0,0,0,16.392,8.9l2.544.424a25.094,25.094,0,0,1-6.5-.283,28.062,28.062,0,0,1-10.457-3.674A29.66,29.66,0,0,1,2.311,30.127,28.887,28.887,0,0,1,12.2,9.213a28.952,28.952,0,0,1,15.12-7.489A36.467,36.467,0,0,1,34.105,1.3.438.438,0,0,0,34.388,1.441Z" fill="#ebb433"/><path d="M25.112,15.3a.519.519,0,0,1,.424.141c6.218,3.391,12.435,6.642,18.653,10.033h0a.138.138,0,0,1-.141.141c-6.218,3.391-12.435,6.642-18.653,10.033-.141,0-.283.141-.424.141-.283,0-.424-.283-.707-.424a12.39,12.39,0,0,1-4.1-7.348,13.925,13.925,0,0,1,.707-7.631,10.684,10.684,0,0,1,3.533-4.8C24.829,15.3,24.97,15.3,25.112,15.3Z" transform="translate(7.298 5.783)" fill="#fff"/><path d="M26.578,15.318A13.154,13.154,0,0,0,22.9,19.982a13.4,13.4,0,0,0,2.12,14.272,7.407,7.407,0,0,0,1.554,1.413,9.49,9.49,0,0,1-6.359-2.261A9.79,9.79,0,0,1,16.4,25.917a10.2,10.2,0,0,1,8.761-10.6A4.711,4.711,0,0,1,26.578,15.318Z" transform="translate(5.831 5.765)" fill="#ebb433"/><path d="M132.8,34.042V27.824a.375.375,0,0,1,.424-.424h8.62c.283,0,.424,0,.424.424s.141.989-.141,1.272c-.283.141-.848,0-1.272,0h-5.794c-.283,0-.283,0-.283.283V32.77c0,.283.141.283.424.283h5.935a.375.375,0,0,1,.424.424v.848c0,.283,0,.424-.424.424h-5.794a.375.375,0,0,0-.424.424V38.7a.375.375,0,0,0,.424.424h7.066a.375.375,0,0,1,.424.424v.989c0,.141,0,.283-.283.283h-9.185c-.283,0-.283-.141-.283-.283A51.117,51.117,0,0,1,132.8,34.042Z" transform="translate(53.06 10.782)" fill="#fff"/><path d="M49.238,27.3a7.692,7.692,0,0,1,3.815.989c.283.141.283.283.141.565a6.889,6.889,0,0,0-.424.989c-.141.283-.141.283-.424.141a6.417,6.417,0,0,0-4.522-.848,5.02,5.02,0,0,0-1.272.565,1.658,1.658,0,0,0,.141,2.826,6.251,6.251,0,0,0,2.12.707,23.391,23.391,0,0,1,2.968.848,3.037,3.037,0,0,1,1.978,2.685A3.418,3.418,0,0,1,51.782,40.3a8.334,8.334,0,0,1-7.913-.707c-.283-.141-.283-.424-.141-.707l.424-.848c.141-.141.141-.283.283-.141A6.605,6.605,0,0,0,49.8,39.17a1.6,1.6,0,0,0,1.13-.424,1.722,1.722,0,0,0,0-2.968,14.928,14.928,0,0,0-2.685-.848,13.432,13.432,0,0,1-2.544-.848A2.9,2.9,0,0,1,43.868,31.4a3.251,3.251,0,0,1,1.554-3.25A7.2,7.2,0,0,1,49.238,27.3Z" transform="translate(16.837 10.741)" fill="#fff"/><path d="M59.771,40.917a8.535,8.535,0,0,1-4.239-.989c-.141-.141-.283-.141-.424-.283-.424-.283-.424-.283-.283-.848.141-.283.283-.848.424-.848.283-.141.565.283.848.424a7.013,7.013,0,0,0,5.087.707,1.221,1.221,0,0,0,.848-.424,1.722,1.722,0,0,0,0-2.968,14.928,14.928,0,0,0-2.685-.848,13.431,13.431,0,0,1-2.544-.848,2.9,2.9,0,0,1-1.837-2.685,3.132,3.132,0,0,1,1.7-3.25,7.718,7.718,0,0,1,2.544-.848,9.392,9.392,0,0,1,4.8.848c.283.141.424.283.283.565a6.889,6.889,0,0,1-.424.989c-.283.141-.707-.283-.989-.424a6.865,6.865,0,0,0-4.1-.424c-.283.141-.565.141-.848.424-1.413,1.13-1.413,2.685-.141,3.391a19.634,19.634,0,0,0,2.685.848,13.89,13.89,0,0,1,2.261.707A3.376,3.376,0,0,1,65,37.1a3.545,3.545,0,0,1-2.12,3.391A12.6,12.6,0,0,1,59.771,40.917Z" transform="translate(21.357 10.689)" fill="#fff"/><path d="M119.6,34.056a6.5,6.5,0,0,1,5.935-6.642,8.285,8.285,0,0,1,4.522.707,10.786,10.786,0,0,1,1.554,1.13.265.265,0,0,1,0,.424h0c-.283.283-.565.707-.989.848s-.707-.424-.989-.707a5.154,5.154,0,0,0-6.924,7.489,5.258,5.258,0,0,0,7.631.424.265.265,0,0,1,.424,0l.848.848a.265.265,0,0,1,0,.424,6.1,6.1,0,0,1-3.957,1.837,7.989,7.989,0,0,1-5.087-1.13A6.558,6.558,0,0,1,119.6,34.056Z" transform="translate(47.754 10.768)" fill="#fff"/><path d="M83.318,34.324c.848-1.272,1.554-2.544,2.261-3.674.565-.989,1.13-1.837,1.7-2.826a.777.777,0,0,1,.707-.424h1.413a14.12,14.12,0,0,0-1.13,1.978c-1.272,2.12-2.544,4.239-3.957,6.5a1.274,1.274,0,0,0-.141.707V40.4c0,.283,0,.424-.283.424h-1.13c-.283,0-.424,0-.424-.424V36.444c0-.283,0-.424-.141-.565-1.7-2.685-3.25-5.37-4.946-8.2A.493.493,0,0,1,77.1,27.4h1.978a.3.3,0,0,1,.283.283l3.815,6.359A.438.438,0,0,0,83.318,34.324Z" transform="translate(30.455 10.782)" fill="#fff"/><path d="M152.313,36.3a.519.519,0,0,1,.424-.141c3.109-1.413,2.968-5.511,1.272-7.207a6.073,6.073,0,0,0-3.957-1.554h-5.228c-.283,0-.424,0-.424.424V40.4c0,.283,0,.283.283.283h1.272c.283,0,.283-.141.283-.283V37.009a.375.375,0,0,1,.424-.424h3.391c.283,0,.424,0,.565.283.848,1.13,1.7,2.4,2.544,3.533.141.141.141.283.283.283h1.978A48.841,48.841,0,0,0,152.313,36.3Zm-1.7-1.413c-1.272.141-2.685,0-3.957.141-.283,0-.283-.141-.283-.283v-5.37c0-.141,0-.283.283-.283a18.553,18.553,0,0,1,3.957.141A2.875,2.875,0,0,1,153.3,31.5,2.737,2.737,0,0,1,150.618,34.889Z" transform="translate(57.852 10.782)" fill="#fff"/><path d="M105.768,28.954a6.073,6.073,0,0,0-3.957-1.554H96.583c-.283,0-.283.141-.283.283V40.259c0,.283,0,.424.424.424h1.13c.283,0,.283,0,.283-.283V37.15a.375.375,0,0,1,.424-.424h3.25a6.327,6.327,0,0,0,2.826-.565A4.7,4.7,0,0,0,105.768,28.954Zm-3.391,5.935c-1.413.141-2.685,0-4.1.141-.283,0-.141-.141-.141-.283v-5.37c0-.283,0-.424.283-.424a17.257,17.257,0,0,1,3.815.141,2.716,2.716,0,0,1,2.544,1.837C105.344,32.487,104.92,34.607,102.376,34.889Z" transform="translate(38.274 10.782)" fill="#fff"/><path d="M78.99,40.4c-1.7-3.815-3.533-7.631-5.228-11.587-.141-.424-.283-1.13-.707-1.272-.424-.283-.989,0-1.554-.141a.734.734,0,0,0-.565.283C69.1,31.639,67.4,35.6,65.565,39.553A4.231,4.231,0,0,1,65,40.683h1.7c.283,0,.283-.141.424-.283.424-.989.848-1.837,1.272-2.826.141-.141.141-.283.424-.283h6.5c.283,0,.283,0,.424.283.424.989.848,1.837,1.272,2.826a.3.3,0,0,0,.283.283h1.837A.438.438,0,0,1,78.99,40.4Zm-9.75-4.522c.989-2.12,1.837-4.239,2.826-6.5.989,2.261,1.837,4.381,2.826,6.5Z" transform="translate(25.527 10.782)" fill="#fff"/><path d="M119.86,39.27c-1.7-3.815-3.533-7.772-5.228-11.587-.141-.283-.283-.283-.424-.283h-1.272c-.283,0-.424.141-.424.283-1.978,4.239-3.815,8.479-5.794,12.718,0,.141-.141.141,0,.283h1.7c.141,0,.283,0,.424-.283.424-.989.848-1.837,1.272-2.826.141-.141.141-.283.424-.283h6.5c.283,0,.283,0,.424.283.424.989.848,1.837,1.272,2.826.141.141.141.283.424.283h1.7A4.306,4.306,0,0,1,119.86,39.27Zm-3.674-3.391h-5.511c.989-2.12,1.837-4.381,2.826-6.5.424.989.848,1.978,1.272,2.826.424,1.13.989,2.261,1.413,3.391C116.327,35.737,116.469,35.879,116.186,35.879Z" transform="translate(42.478 10.782)" fill="#fff"/></g></svg>