<svg xmlns="http://www.w3.org/2000/svg" width="70" height="68" viewBox="0 0 70 68"><g transform="translate(-1 -2.488)"><path d="M44.928,40.505,42.9,37.089l-2.027,3.417a1.14,1.14,0,0,1-.732.532l-3.877.872,2.624,2.984a1.141,1.141,0,0,1,.279.86L38.8,49.709l3.649-1.573a1.139,1.139,0,0,1,.9,0L47,49.709l-.369-3.956a1.141,1.141,0,0,1,.279-.86l2.624-2.984-3.877-.872a1.14,1.14,0,0,1-.732-.532Z" transform="translate(4.445 5.353)" fill="#5ed58c"/><path d="M67.122,37.219,53.949,34.257,47.062,22.644a2.338,2.338,0,0,0-4.023,0L36.15,34.257,22.978,37.219a2.339,2.339,0,0,0-1.243,3.826l8.916,10.14L29.4,64.629a2.339,2.339,0,0,0,3.255,2.365l12.4-5.346,12.4,5.347A2.34,2.34,0,0,0,60.7,64.629L59.45,51.186l8.916-10.14a2.338,2.338,0,0,0-1.244-3.826ZM54.18,44.747l-3.078,3.5.433,4.642a1.583,1.583,0,0,1-2.2,1.6L45.05,52.646l-4.282,1.846a1.583,1.583,0,0,1-2.2-1.6L39,48.249l-3.08-3.5a1.583,1.583,0,0,1,.842-2.59l4.55-1.023,2.379-4.01a1.635,1.635,0,0,1,2.724,0l2.378,4.009,4.549,1.023a1.583,1.583,0,0,1,.84,2.591Z" transform="translate(2.052 3.303)" fill="#5ed58c"/><g transform="translate(1 2.488)"><path d="M26.544,16.947a5.694,5.694,0,0,0,4.038-1.67,1.142,1.142,0,1,0-1.615-1.615,3.431,3.431,0,0,1-4.846,0,1.142,1.142,0,1,0-1.615,1.615A5.694,5.694,0,0,0,26.544,16.947Z" transform="translate(2.01 -0.946)" fill="#060d43"/><path d="M53.012,25.157a6.853,6.853,0,1,0-8.083,0,8.992,8.992,0,0,0-2,1.346,8.008,8.008,0,0,0-6.973-5.69,10.28,10.28,0,1,0-12.8,0,8.008,8.008,0,0,0-6.973,5.69,8.992,8.992,0,0,0-2-1.346,6.853,6.853,0,1,0-8.083,0A9.14,9.14,0,0,0,1,33.341V49.331a1.142,1.142,0,0,0,1.142,1.142H56.967a1.142,1.142,0,0,0,1.142-1.142V33.341a9.14,9.14,0,0,0-5.1-8.183ZM44.4,19.634A4.569,4.569,0,1,1,48.972,24.2,4.569,4.569,0,0,1,44.4,19.634ZM21.559,12.781a8,8,0,1,1,8,8,8,8,0,0,1-8-8ZM5.569,19.634A4.569,4.569,0,1,1,10.138,24.2,4.569,4.569,0,0,1,5.569,19.634ZM3.284,33.341a6.845,6.845,0,0,1,12.564-3.768V48.189h-8V34.519a1.142,1.142,0,1,0-2.284,0V48.189H3.284ZM37.55,48.189V31.056a1.142,1.142,0,0,0-2.284,0V48.189H23.844V31.056a1.142,1.142,0,1,0-2.284,0V48.189H18.133V28.772a5.718,5.718,0,0,1,5.711-5.711h4.569V40.194a1.142,1.142,0,1,0,2.284,0V23.061h4.569a5.718,5.718,0,0,1,5.711,5.711V48.189Zm18.275,0H53.541V34.52a1.142,1.142,0,0,0-2.284,0V48.189h-8V29.572a6.845,6.845,0,0,1,12.564,3.768Z" transform="translate(-1 -2.488)" fill="#060d43"/></g></g></svg>