<svg xmlns="http://www.w3.org/2000/svg" width="32" height="32" viewBox="0 0 32 32"><g transform="translate(-1542 -12889)"><path d="M629.92,234.947a16,16,0,1,1,16-16A16.018,16.018,0,0,1,629.92,234.947Z" transform="translate(928.08 12686.053)" fill="#060d43"/><path d="M635.584,225.742v11.379a.275.275,0,0,0,.246.3h3.507a.275.275,0,0,0,.246-.3V225.557h2.543a.269.269,0,0,0,.245-.271l.245-3.485a.28.28,0,0,0-.245-.322h-2.787v-2.472a.973.973,0,0,1,.871-1.05h1.96a.275.275,0,0,0,.246-.3v-3.484a.275.275,0,0,0-.246-.3H639.1c-1.944,0-3.519,1.9-3.519,4.239v3.359H633.83a.275.275,0,0,0-.246.3v3.485a.274.274,0,0,0,.246.3h1.754Z" transform="translate(919.861 12679.352)" fill="#fff" fill-rule="evenodd"/></g></svg>