<svg xmlns="http://www.w3.org/2000/svg" width="46" height="65" viewBox="0 0 46 65"><path d="M2.33,82.648A2.331,2.331,0,0,0,0,84.98V134.4a2.331,2.331,0,0,0,2.33,2.331H39.37A2.331,2.331,0,0,0,41.7,134.4V87.523a4.873,4.873,0,0,0-4.871-4.875Zm0,0" transform="translate(0 -71.731)" fill="#060d43"/><path d="M244.105,82.648h-6.988a4.875,4.875,0,0,1,4.875,4.875V134.4a2.331,2.331,0,0,1-2.331,2.331h6.988a2.331,2.331,0,0,0,2.331-2.331V87.524A4.875,4.875,0,0,0,244.105,82.648Zm0,0" transform="translate(-207.282 -71.732)" fill="#060d43"/><path d="M64.835,49.637H36.474a2.341,2.341,0,0,0-2.33,2.353v49.882a2.341,2.341,0,0,0,2.33,2.353h37.04a2.342,2.342,0,0,0,2.33-2.353V60.756Zm0,0" transform="translate(-29.843 -43.384)" fill="#fafaff"/><path d="M68.85,81.531v44.922a2.33,2.33,0,0,1-2.329,2.331H34.144v.481a2.33,2.33,0,0,0,2.33,2.331h37.04a2.331,2.331,0,0,0,2.33-2.331V88.53Zm0,0" transform="translate(-29.843 -70.755)" fill="#e6e6f2"/><path d="M277.984,59.54v-9.9L289,60.653h-9.9A1.113,1.113,0,0,1,277.984,59.54Zm0,0" transform="translate(-243.001 -43.384)" fill="#5ed58c"/><g transform="translate(9.476 28.53)"><path d="M105.842,225.632h-29.4a.959.959,0,1,1,0-1.917h29.4a.959.959,0,1,1,0,1.917Zm0,0" transform="translate(-75.484 -223.715)" fill="#060d43"/><path d="M105.842,283.324h-29.4a.959.959,0,1,1,0-1.918h29.4a.959.959,0,1,1,0,1.918Zm0,0" transform="translate(-75.484 -274.139)" fill="#060d43"/><path d="M105.842,341.023h-29.4a.959.959,0,1,1,0-1.917h29.4a.959.959,0,1,1,0,1.917Zm0,0" transform="translate(-75.484 -324.57)" fill="#060d43"/><path d="M105.842,398.718h-29.4a.959.959,0,1,1,0-1.918h29.4a.959.959,0,1,1,0,1.918Zm0,0" transform="translate(-75.484 -374.998)" fill="#060d43"/></g><path d="M63.3,0a3.61,3.61,0,0,0-3.606,3.606V6.252h1.918V3.606a1.689,1.689,0,0,1,3.377,0v9.865a.94.94,0,0,1-1.88,0V9.012a.959.959,0,0,0-1.918,0v4.459a2.858,2.858,0,0,0,5.715,0V3.606A3.61,3.61,0,0,0,63.3,0Zm0,0" transform="translate(-52.179 0)" fill="#5ed58c"/></svg>