<svg xmlns="http://www.w3.org/2000/svg" width="70" height="70" viewBox="0 0 70 70"><g transform="translate(-1 -1)"><path d="M43.176,50.373a1.132,1.132,0,0,1-1.749-.02l-6.781-8.476a1.131,1.131,0,0,1,1.766-1.413l5.919,7.4L52.845,35.326a12.47,12.47,0,1,0,1.353,1.9Z" transform="translate(3.844 3.853)" fill="#5ed58c"/><path d="M65.074,21H24.39A3.394,3.394,0,0,0,21,24.39V65.074a3.394,3.394,0,0,0,3.39,3.39H65.074a3.394,3.394,0,0,0,3.39-3.39V24.39A3.394,3.394,0,0,0,65.074,21ZM44.732,59.424A14.691,14.691,0,1,1,55.6,34.883L57.427,32.7a1.13,1.13,0,0,1,1.733,1.452l-2.138,2.549a14.673,14.673,0,0,1-12.29,22.717Z" transform="translate(2.536 2.536)" fill="#5ed58c"/><g transform="translate(1 1)"><path d="M45.074,1H4.39A3.394,3.394,0,0,0,1,4.39V54.115a3.394,3.394,0,0,0,3.39,3.39H45.074a3.394,3.394,0,0,0,3.39-3.39V4.39A3.394,3.394,0,0,0,45.074,1ZM46.2,54.115a1.131,1.131,0,0,1-1.13,1.13H4.39a1.131,1.131,0,0,1-1.13-1.13V4.39A1.131,1.131,0,0,1,4.39,3.26H45.074A1.131,1.131,0,0,1,46.2,4.39Z" transform="translate(-1 -1)" fill="#060d43"/><path d="M12.877,10.452,10.268,13.93,8.929,12.591a1.13,1.13,0,1,0-1.6,1.6l2.26,2.26a1.13,1.13,0,0,0,1.7-.121l3.39-4.52a1.13,1.13,0,1,0-1.808-1.355Z" transform="translate(-0.219 0.171)" fill="#060d43"/><path d="M12.877,36.452,10.268,39.93,8.929,38.591a1.13,1.13,0,1,0-1.6,1.6l2.26,2.26a1.13,1.13,0,0,0,1.7-.121l3.39-4.52a1.13,1.13,0,1,0-1.808-1.355Z" transform="translate(-0.219 3.554)" fill="#060d43"/><path d="M12.877,23.452,10.268,26.93,8.929,25.591a1.13,1.13,0,1,0-1.6,1.6l2.26,2.26a1.13,1.13,0,0,0,1.7-.121l3.39-4.52a1.13,1.13,0,1,0-1.808-1.355Z" transform="translate(-0.219 1.862)" fill="#060d43"/><path d="M38.472,11H18.13a1.13,1.13,0,0,0,0,2.26H38.472a1.13,1.13,0,1,0,0-2.26Z" transform="translate(1.082 0.301)" fill="#060d43"/><path d="M18.13,17.26h9.041a1.13,1.13,0,0,0,0-2.26H18.13a1.13,1.13,0,0,0,0,2.26Z" transform="translate(1.082 0.821)" fill="#060d43"/><path d="M38.472,23H18.13a1.13,1.13,0,0,0,0,2.26H38.472a1.13,1.13,0,0,0,0-2.26Z" transform="translate(1.082 1.862)" fill="#060d43"/><path d="M18.13,29.26h9.041a1.13,1.13,0,0,0,0-2.26H18.13a1.13,1.13,0,0,0,0,2.26Z" transform="translate(1.082 2.383)" fill="#060d43"/><path d="M38.472,35H18.13a1.13,1.13,0,0,0,0,2.26H38.472a1.13,1.13,0,1,0,0-2.26Z" transform="translate(1.082 3.424)" fill="#060d43"/><path d="M27.171,39H18.13a1.13,1.13,0,0,0,0,2.26h9.041a1.13,1.13,0,1,0,0-2.26Z" transform="translate(1.082 3.944)" fill="#060d43"/></g></g></svg>