<svg xmlns="http://www.w3.org/2000/svg" width="70" height="68" viewBox="0 0 70 68"><g transform="translate(-1 -2)"><path d="M48.155,38a9.155,9.155,0,1,0,9.155,9.155A9.155,9.155,0,0,0,48.155,38Zm4.385,9.789-4.577,6.866a1.144,1.144,0,1,1-1.9-1.27L49.45,48.3H44.722a1.145,1.145,0,0,1-.952-1.779l4.577-6.866a1.144,1.144,0,1,1,1.9,1.27L46.86,46.01h4.728a1.145,1.145,0,0,1,.952,1.779Z" transform="translate(4.536 4.536)" fill="#5ed58c"/><path d="M65.918,30H22.433A3.437,3.437,0,0,0,19,33.433V38.01a1.144,1.144,0,0,0,1.144,1.144,2.289,2.289,0,0,1,0,4.577A1.144,1.144,0,0,0,19,44.876v6.866a1.144,1.144,0,0,0,1.144,1.144,2.289,2.289,0,1,1,0,4.577A1.144,1.144,0,0,0,19,58.608v4.577a3.437,3.437,0,0,0,3.433,3.433H65.918a3.437,3.437,0,0,0,3.433-3.433V58.608a1.144,1.144,0,0,0-1.144-1.144,2.289,2.289,0,1,1,0-4.577,1.144,1.144,0,0,0,1.144-1.144V44.876a1.144,1.144,0,0,0-1.144-1.144,2.289,2.289,0,1,1,0-4.577,1.144,1.144,0,0,0,1.144-1.144V33.433A3.437,3.437,0,0,0,65.918,30ZM36.165,55.175H27.01a1.144,1.144,0,1,1,0-2.289h9.155a1.144,1.144,0,0,1,0,2.289Zm0-5.722H27.01a1.144,1.144,0,1,1,0-2.289h9.155a1.144,1.144,0,0,1,0,2.289Zm0-5.722H27.01a1.144,1.144,0,1,1,0-2.289h9.155a1.144,1.144,0,0,1,0,2.289ZM51.041,59.753A11.443,11.443,0,1,1,62.485,48.309,11.443,11.443,0,0,1,51.041,59.753Z" transform="translate(1.649 3.381)" fill="#5ed58c"/><path d="M54.784,12.3h-6.02A6.29,6.29,0,0,0,43.913,2a7.52,7.52,0,0,0-7.385,5.923l-.054.241-.054-.241A7.52,7.52,0,0,0,29.036,2a6.29,6.29,0,0,0-4.851,10.3h-6.02a3.437,3.437,0,0,0-3.433,3.433V23.6a6.062,6.062,0,0,0-4.139-2.588,5.382,5.382,0,0,0-5.16,8.45h-1A3.437,3.437,0,0,0,1,32.9V55.784a3.437,3.437,0,0,0,3.433,3.433H54.784a3.437,3.437,0,0,0,3.433-3.433V15.732A3.437,3.437,0,0,0,54.784,12.3ZM10.269,23.28a3.778,3.778,0,0,1,3.094,2.7l1,3.485H9.829a3.108,3.108,0,1,1,.439-6.184ZM3.289,46.629H9.583a.573.573,0,0,1,.572.572v3.433a.573.573,0,0,1-.572.572H3.289Zm11.443,10.3H4.433a1.145,1.145,0,0,1-1.144-1.144V53.5H9.583a2.863,2.863,0,0,0,2.861-2.861V47.2A2.863,2.863,0,0,0,9.583,44.34H3.289V40.907H14.732Zm0-18.309H3.289V32.9a1.145,1.145,0,0,1,1.144-1.144h10.3Zm14.3-34.33a5.243,5.243,0,0,1,5.15,4.131l.863,3.879H29.036a4.005,4.005,0,0,1,0-8.01Zm-.572,51.5a1.145,1.145,0,0,1-1.144,1.144h-10.3V40.907H28.464Zm0-17.165H17.021V31.753h10.3A1.145,1.145,0,0,1,28.464,32.9Zm-11.07-9.155,1-3.485a3.778,3.778,0,0,1,3.094-2.7,3.108,3.108,0,1,1,.439,6.184ZM35.33,56.928H30.542a3.392,3.392,0,0,0,.211-1.144V32.9a3.437,3.437,0,0,0-3.433-3.433h-1a5.161,5.161,0,0,0,.769-4.577h8.24Zm0-34.33H25.755a5.26,5.26,0,0,0-4.6-1.584A6.062,6.062,0,0,0,17.021,23.6v-7.87a1.145,1.145,0,0,1,1.144-1.144H35.33ZM38.763,8.42a5.243,5.243,0,0,1,5.15-4.131,4.005,4.005,0,1,1,0,8.01H37.9ZM55.928,36.33H50.206a1.144,1.144,0,0,0,0,2.289h5.722V43.2H50.206a1.144,1.144,0,0,0,0,2.289h5.722v4.577h-10.3a1.145,1.145,0,0,1-1.144-1.144V32.9a1.145,1.145,0,0,1,1.144-1.144h10.3Zm0-6.866h-10.3A3.437,3.437,0,0,0,42.2,32.9V48.918a3.437,3.437,0,0,0,3.433,3.433h10.3v3.433a1.145,1.145,0,0,1-1.144,1.144H37.619V24.887H55.928Zm0-6.866H37.619v-8.01H54.784a1.145,1.145,0,0,1,1.144,1.144Z" transform="translate(0 0)" fill="#060d43"/></g></svg>