<svg xmlns="http://www.w3.org/2000/svg" width="70" height="72" viewBox="0 0 70 72"><g transform="translate(-1.5 -1)"><g transform="translate(27.752 29.252)"><path d="M45.466,31A14.966,14.966,0,1,0,60.433,45.966,14.966,14.966,0,0,0,45.466,31Zm-9.21,18.42h-2.3a1.151,1.151,0,0,1,0-2.3h2.3a1.151,1.151,0,0,1,0,2.3Zm0-4.605h-2.3a1.151,1.151,0,1,1,0-2.3h2.3a1.151,1.151,0,1,1,0,2.3Zm15.484,6.43A6.458,6.458,0,0,1,46.5,56.566v1.775a1.151,1.151,0,1,1-2.3,0V56.662a8.045,8.045,0,0,1-4.567-1.54A1.152,1.152,0,1,1,40.887,53.2a5.757,5.757,0,0,0,3.306,1.166v-8.54a13.243,13.243,0,0,1-2.9-1.643,4.679,4.679,0,0,1-1.523-4.613,5.342,5.342,0,0,1,3.656-4.191c.262-.079.518-.141.768-.19V33.591a1.151,1.151,0,0,1,2.3,0V35.1a6.871,6.871,0,0,1,3.581,1.532,1.151,1.151,0,1,1-1.555,1.7,4.511,4.511,0,0,0-2.027-.9v6.843c.417.16.856.323,1.346.5a5.661,5.661,0,0,1,3.9,6.476Zm5.239-1.825h-2.3a1.151,1.151,0,0,1,0-2.3h2.3a1.151,1.151,0,1,1,0,2.3Zm1.151-5.756a1.151,1.151,0,0,1-1.151,1.151h-2.3a1.151,1.151,0,1,1,0-2.3h2.3a1.151,1.151,0,0,1,1.151,1.151Z" transform="translate(-23.592 -24.092)" fill="#5ed58c"/><path d="M44.394,44.663v7.473A4.2,4.2,0,0,0,47.368,48.8C47.768,46.409,46.281,45.349,44.394,44.663Z" transform="translate(-21.491 -22.026)" fill="#5ed58c"/><path d="M40.527,39.132a2.4,2.4,0,0,0,.681,2.373,9.01,9.01,0,0,0,1.481.91V36.7a3.024,3.024,0,0,0-2.162,2.436Z" transform="translate(-22.088 -23.231)" fill="#5ed58c"/><path d="M66.491,41.461c.663-2.551.347-3.582-2.092-5.009-1.3-.758-1.3-.776-1.507-2.258-.376-2.7-1.126-3.46-3.838-3.838-1.486-.207-1.507-.222-2.258-1.508-1.4-2.392-2.4-2.77-5.008-2.092-1.469.383-1.487.376-2.662-.514A4.653,4.653,0,0,0,46.374,25a4.65,4.65,0,0,0-2.753,1.243c-1.183.9-1.194.9-2.661.514-2.568-.669-3.593-.331-5.008,2.092-.756,1.29-.772,1.3-2.259,1.507-2.707.377-3.461,1.131-3.838,3.838-.207,1.484-.219,1.506-1.508,2.259-2.4,1.4-2.768,2.4-2.092,5.008.381,1.464.383,1.477-.514,2.661A4.652,4.652,0,0,0,24.5,46.874a4.645,4.645,0,0,0,1.243,2.752c.895,1.183.9,1.2.514,2.661-.663,2.551-.347,3.582,2.092,5.009,1.292.755,1.3.774,1.506,2.258.377,2.7,1.12,3.46,3.838,3.838,1.486.207,1.5.217,2.259,1.508,1.386,2.368,2.375,2.778,5.009,2.091,1.465-.381,1.477-.381,2.661.514a4.647,4.647,0,0,0,2.753,1.243A4.648,4.648,0,0,0,49.127,67.5c1.192-.9,1.2-.891,2.66-.514,2.583.67,3.6.327,5.008-2.091.754-1.289.772-1.3,2.259-1.507,2.706-.377,3.461-1.132,3.838-3.838.207-1.484.219-1.506,1.508-2.259,2.4-1.4,2.768-2.4,2.092-5.008-.381-1.464-.383-1.477.514-2.661a4.652,4.652,0,0,0,1.243-2.753,4.645,4.645,0,0,0-1.243-2.752c-.895-1.183-.895-1.2-.514-2.661ZM46.374,64.143A17.269,17.269,0,1,1,63.643,46.874,17.269,17.269,0,0,1,46.374,64.143Z" transform="translate(-24.5 -25)" fill="#5ed58c"/></g><path d="M55.609,7.908h-8.7a4.552,4.552,0,0,0,.641-2.3A4.61,4.61,0,0,0,42.945,1,14.951,14.951,0,0,0,32.3,5.408L30.282,7.431,28.258,5.408A14.951,14.951,0,0,0,17.618,1a4.61,4.61,0,0,0-4.605,4.605,4.552,4.552,0,0,0,.641,2.3h-8.7A3.458,3.458,0,0,0,1.5,11.361v2.3a3.448,3.448,0,0,0,2.3,3.242v38.2a3.458,3.458,0,0,0,3.454,3.454H53.307a3.458,3.458,0,0,0,3.454-3.454v-38.2a3.448,3.448,0,0,0,2.3-3.242v-2.3a3.458,3.458,0,0,0-3.454-3.454ZM33.933,7.036A12.665,12.665,0,0,1,42.946,3.3a2.3,2.3,0,1,1,0,4.605H33.061ZM23.374,17.118H37.189V56.261H23.374Zm13.815-2.3H23.374V10.21H37.189ZM15.315,5.605a2.3,2.3,0,0,1,2.3-2.3A12.665,12.665,0,0,1,26.63,7.036l.872.872H17.618A2.3,2.3,0,0,1,15.315,5.605ZM3.8,11.361A1.153,1.153,0,0,1,4.954,10.21H21.071v4.605H4.954A1.153,1.153,0,0,1,3.8,13.664Zm2.3,43.748V17.118H21.071V56.261H7.256a1.152,1.152,0,0,1-1.151-1.151Zm47.2,1.151H39.492V17.118H54.458V55.109A1.152,1.152,0,0,1,53.307,56.261Zm3.454-42.6a1.153,1.153,0,0,1-1.151,1.151H39.492V10.21H55.609a1.153,1.153,0,0,1,1.151,1.151Z" transform="translate(0 0)" fill="#060d43"/><path d="M9.651,42.3h6.908a1.151,1.151,0,1,0,0-2.3H9.651a1.151,1.151,0,0,0,0,2.3Z" transform="translate(1.059 6.303)" fill="#060d43"/><path d="M16.559,44H9.651a1.151,1.151,0,0,0,0,2.3h6.908a1.151,1.151,0,1,0,0-2.3Z" transform="translate(1.059 6.95)" fill="#060d43"/></g></svg>