<svg id="e0a1cc66-71e4-4761-b0f7-901be63fee4a" data-name="Layer 1" xmlns="http://www.w3.org/2000/svg" viewBox="0 0 512 512"><defs><style>.e6c8edd4-f3d7-4e9a-b626-c1df309ff5ab{fill:#b4b4b4;}</style></defs><path class="e6c8edd4-f3d7-4e9a-b626-c1df309ff5ab" d="M509,239.7A288.08,288.08,0,0,0,398.48,128.24l78.4-78.4a15,15,0,0,0,0-21.2h0a15,15,0,0,0-21.2,0L370.1,114.22A289.43,289.43,0,0,0,2.91,239.7a20,20,0,0,0,0,19.69A288.13,288.13,0,0,0,113.46,370.86l-78.4,78.4a15,15,0,1,0,21.2,21.2l85.58-85.58A289.44,289.44,0,0,0,509,259.39,20,20,0,0,0,509,239.7ZM43.47,249.59C106.19,147.42,230.68,106.39,339.27,145L293.6,190.72a69.85,69.85,0,0,0-96.5,96.5l-54,54A250.52,250.52,0,0,1,43.47,249.59Zm242.44,0a29.94,29.94,0,0,1-37.69,28.94l36.67-36.67A29.85,29.85,0,0,1,285.91,249.55Zm-59.92,0a30,30,0,0,1,37.72-28.94L227,257.31A30.13,30.13,0,0,1,226,249.55Zm29.92,118.87A250.58,250.58,0,0,1,172.77,354l45.53-45.53a69.84,69.84,0,0,0,96.49-96.5l54.12-54.11q8.8,4.49,17.4,9.75a249.22,249.22,0,0,1,82,82A250.75,250.75,0,0,1,255.91,368.42Z"/></svg>