<svg xmlns="http://www.w3.org/2000/svg" width="32" height="32" viewBox="0 0 32 32"><g transform="translate(-1630 -12889)"><path d="M712,235.631a16,16,0,1,1,16-16A16.018,16.018,0,0,1,712,235.631Zm5.395-22.492a1.184,1.184,0,1,0,1.184,1.184A1.184,1.184,0,0,0,717.4,213.139Zm-5.264,1.518a4.974,4.974,0,1,0,4.973,4.974A4.979,4.979,0,0,0,712.134,214.657Zm0,8.16a3.186,3.186,0,1,1,3.186-3.186A3.189,3.189,0,0,1,712.134,222.817Zm10.035-7.319a6.066,6.066,0,0,0-6.066-6.066H708.1a6.066,6.066,0,0,0-6.066,6.066V223.5a6.066,6.066,0,0,0,6.066,6.066H716.1a6.066,6.066,0,0,0,6.066-6.066Zm-1.9,8.007a4.166,4.166,0,0,1-4.167,4.166H708.1a4.166,4.166,0,0,1-4.166-4.166V215.5a4.166,4.166,0,0,1,4.166-4.166H716.1a4.166,4.166,0,0,1,4.167,4.166Z" transform="translate(933.997 12685.369)" fill="#060d43"/></g></svg>