<svg xmlns="http://www.w3.org/2000/svg" width="70" height="70" viewBox="0 0 70 70"><g transform="translate(-1 -1)"><path d="M68.909,56H48.05l-.57,2.282H35.57L35,56H14.141A1.141,1.141,0,0,0,13,57.141v2.282a4.564,4.564,0,0,0,4.564,4.564H65.486a4.564,4.564,0,0,0,4.564-4.564V57.141A1.141,1.141,0,0,0,68.909,56Z" transform="translate(0.95 7.013)" fill="#5ed58c"/><path d="M22,33H58.512V56.961H22Z" transform="translate(2.219 3.77)" fill="#5ed58c"/><path d="M17.141,57.807h3.423V32.7A1.141,1.141,0,0,1,21.7,31.564H60.5A1.141,1.141,0,0,1,61.64,32.7v25.1h3.423A1.141,1.141,0,0,0,66.2,56.666V30.423A3.427,3.427,0,0,0,62.781,27H19.423A3.427,3.427,0,0,0,16,30.423V56.666A1.141,1.141,0,0,0,17.141,57.807Z" transform="translate(1.373 2.924)" fill="#5ed58c"/><g transform="translate(1 1)"><path d="M50.063,1H4.423A3.427,3.427,0,0,0,1,4.423V51.2a3.427,3.427,0,0,0,3.423,3.423h45.64A3.427,3.427,0,0,0,53.486,51.2V4.423A3.427,3.427,0,0,0,50.063,1ZM51.2,4.423V6.7H21.538V3.282H50.063A1.142,1.142,0,0,1,51.2,4.423ZM12.41,6.7V3.282h6.846V6.7ZM4.423,3.282h5.7V6.7H3.282V4.423A1.142,1.142,0,0,1,4.423,3.282Zm45.64,49.063H4.423A1.142,1.142,0,0,1,3.282,51.2V8.986H51.2V51.2a1.142,1.142,0,0,1-1.141,1.141Z" transform="translate(-1 -1)" fill="#060d43"/><path d="M7.141,30.256H27.679a1.141,1.141,0,0,0,1.141-1.141V13.141A1.141,1.141,0,0,0,27.679,12H7.141A1.141,1.141,0,0,0,6,13.141V29.115A1.141,1.141,0,0,0,7.141,30.256Zm1.846-2.282,4-8,3.473,5.21a1.184,1.184,0,0,0,1.9,0l3.473-5.21,4,8ZM26.538,14.282v10l-3.543-7.087a1.141,1.141,0,0,0-1.97-.123L17.41,22.494,13.8,17.072a1.141,1.141,0,0,0-1.97.123L8.282,24.281v-10Z" transform="translate(-0.295 0.551)" fill="#060d43"/><path d="M42.692,12H30.141a1.141,1.141,0,0,0,0,2.282H42.692a1.141,1.141,0,0,0,0-2.282Z" transform="translate(2.948 0.551)" fill="#060d43"/><path d="M42.692,19H30.141a1.141,1.141,0,1,0,0,2.282H42.692a1.141,1.141,0,0,0,0-2.282Z" transform="translate(2.948 1.538)" fill="#060d43"/><path d="M42.692,26H30.141a1.141,1.141,0,1,0,0,2.282H42.692a1.141,1.141,0,0,0,0-2.282Z" transform="translate(2.948 2.525)" fill="#060d43"/><path d="M45.935,33H7.141a1.141,1.141,0,0,0,0,2.282H45.935a1.141,1.141,0,0,0,0-2.282Z" transform="translate(-0.295 3.512)" fill="#060d43"/><path d="M45.935,40H7.141a1.141,1.141,0,0,0,0,2.282H45.935a1.141,1.141,0,0,0,0-2.282Z" transform="translate(-0.295 4.499)" fill="#060d43"/></g></g></svg>