<svg xmlns="http://www.w3.org/2000/svg" width="114.207" height="38.584" viewBox="0 0 114.207 38.584"><path d="M662,3831.5a4.63,4.63,0,0,1,4.63-4.63h88.279a4.63,4.63,0,0,1,4.63,4.63v19.369a4.63,4.63,0,0,1-4.63,4.63H666.63a4.63,4.63,0,0,1-4.63-4.63Z" transform="translate(-662 -3820.025)" fill="#e1e0e0"/><path d="M784.7,3826.87H766.8v14.044c0,8.866,9.5,15.8,15.51,17.694H784.7Z" transform="translate(-685.929 -3820.025)" fill="#528667"/><path d="M766.8,3824.845V3818h17.9v6.845Z" transform="translate(-685.929 -3818)" fill="#62c47c"/><path d="M800.867,3826.87v14.044c0,8.866-9.461,15.8-15.433,17.694-5.973-1.9-15.433-8.828-15.433-17.7V3826.87Z" transform="translate(-686.66 -3820.025)" fill="#6ac783"/><path d="M770,3824.845V3818h30.867v6.845Z" transform="translate(-686.66 -3818)" fill="#a9f3bd"/><path d="M671.165,3841.4v-4.121h-.9V3836.1h2.207v5.3Zm4.429-5.417a2.208,2.208,0,0,1,.972.2,1.524,1.524,0,0,1,.648.579,2.7,2.7,0,0,1,.355.849,4.478,4.478,0,0,1,.108,1.065,5.118,5.118,0,0,1-.108,1.08,2.864,2.864,0,0,1-.355.849,1.614,1.614,0,0,1-.648.571,2.208,2.208,0,0,1-.972.2,2.256,2.256,0,0,1-.972-.2,1.567,1.567,0,0,1-.648-.579,2.693,2.693,0,0,1-.347-.849,4.7,4.7,0,0,1-.116-1.073,4.57,4.57,0,0,1,.116-1.073,3.07,3.07,0,0,1,.347-.849,1.558,1.558,0,0,1,.648-.571A2.256,2.256,0,0,1,675.594,3835.98Zm0,1.2a.766.766,0,0,0-.37.085.67.67,0,0,0-.247.216,1.125,1.125,0,0,0-.139.332,2.676,2.676,0,0,0-.062.4,6.192,6.192,0,0,0,.062,1.335,1.02,1.02,0,0,0,.139.332.685.685,0,0,0,.247.216.943.943,0,0,0,.748,0,.673.673,0,0,0,.239-.216.821.821,0,0,0,.139-.332,1.97,1.97,0,0,0,.069-.409,6.2,6.2,0,0,0-.069-1.327.876.876,0,0,0-.139-.332.67.67,0,0,0-.239-.216.768.768,0,0,0-.378-.085Zm4.831-1.2a2.231,2.231,0,0,1,.972.2,1.524,1.524,0,0,1,.648.579,2.894,2.894,0,0,1,.355.849,4.478,4.478,0,0,1,.108,1.065,5.118,5.118,0,0,1-.108,1.08,2.864,2.864,0,0,1-.355.849,1.614,1.614,0,0,1-.648.571,2.207,2.207,0,0,1-.972.2,2.256,2.256,0,0,1-.972-.2,1.566,1.566,0,0,1-.648-.579,2.688,2.688,0,0,1-.347-.849,4.7,4.7,0,0,1-.116-1.073,4.573,4.573,0,0,1,.116-1.073,2.85,2.85,0,0,1,.347-.849,1.558,1.558,0,0,1,.648-.571A2.232,2.232,0,0,1,680.425,3835.98Zm0,1.2a.766.766,0,0,0-.37.085.671.671,0,0,0-.247.216,1.125,1.125,0,0,0-.139.332,2.676,2.676,0,0,0-.062.4,6.2,6.2,0,0,0,.062,1.335,1.021,1.021,0,0,0,.139.332.685.685,0,0,0,.247.216.943.943,0,0,0,.748,0,.673.673,0,0,0,.239-.216.822.822,0,0,0,.139-.332,2.666,2.666,0,0,0,.069-.409,6.209,6.209,0,0,0-.069-1.327.877.877,0,0,0-.139-.332.67.67,0,0,0-.239-.216.768.768,0,0,0-.378-.085Zm7.346,3.04c0-.34-.116-.5-.355-.5s-.363.162-.363.5.123.5.363.5S687.771,3840.548,687.771,3840.217Zm-1.59,0a1.2,1.2,0,0,1,.347-.926,1.363,1.363,0,0,1,1.783,0,1.229,1.229,0,0,1,.34.926,1.148,1.148,0,0,1-1.235,1.25,1.158,1.158,0,0,1-1.235-1.25Zm-2.361,1.181,2.855-5.263h1.219l-2.855,5.263Zm.833-4.082c0-.332-.116-.5-.355-.5s-.363.17-.363.5.123.5.363.5S684.654,3837.647,684.654,3837.315Zm-1.59,0a1.228,1.228,0,0,1,.347-.926,1.245,1.245,0,0,1,.887-.324,1.157,1.157,0,0,1,1.235,1.25,1.169,1.169,0,0,1-1.235,1.258,1.234,1.234,0,0,1-.888-.332A1.2,1.2,0,0,1,683.064,3837.315Zm14.477-1.157v5.24h-1.266v-2.963l-1.211,2.963h-.941l-1.2-2.963v2.963h-1.266v-5.248H693.1l1.5,3.619,1.489-3.619Zm4.846,2.6a1.56,1.56,0,0,0-.378-1.1,1.436,1.436,0,0,0-2.006,0,1.608,1.608,0,0,0-.37,1.1,1.56,1.56,0,0,0,.378,1.1,1.265,1.265,0,0,0,1,.409,1.287,1.287,0,0,0,1-.409A1.607,1.607,0,0,0,702.387,3838.758Zm-4.044,0a2.663,2.663,0,1,1,4.553,1.929,2.579,2.579,0,0,1-1.883.756,2.611,2.611,0,0,1-2.662-2.686Zm9.53-2.624h1.266v5.263h-1.266l-2.122-3.318v3.318h-1.266v-5.263h1.266l2.122,3.311Zm5.525,0v.972h-1.883v1.126h1.659v.972h-1.659v1.219H713.4v.972H710.25v-5.263Zm3.712,5.263h-1.266v-1.7l-1.8-3.55h1.435l1,2.369.988-2.369h1.435l-1.8,3.55Zm4.692-5.248h2.261a1.927,1.927,0,0,1,1.258.386,1.253,1.253,0,0,1,.471.988,1.22,1.22,0,0,1-1.026,1.2,1.3,1.3,0,0,1,1.15,1.3,1.208,1.208,0,0,1-.463,1,1.947,1.947,0,0,1-1.266.371h-2.392Zm1.266.972v1.134h.826a.69.69,0,0,0,.448-.139.525.525,0,0,0,.162-.424.547.547,0,0,0-.162-.425.647.647,0,0,0-.448-.147Zm0,3.3h.957a.625.625,0,0,0,.424-.154.556.556,0,0,0,.177-.44.6.6,0,0,0-.17-.44.571.571,0,0,0-.417-.162h-.972Zm7.03.972-.286-.887h-1.875l-.293.887h-1.35l1.813-5.263h1.543l1.8,5.263Zm-1.837-1.852H729.5l-.617-1.867Zm3.511-.787a2.6,2.6,0,0,1,2.67-2.678,2.693,2.693,0,0,1,1.543.463,2.439,2.439,0,0,1,.934,1.281h-1.513a.979.979,0,0,0-.949-.571,1.315,1.315,0,0,0-1.026.409,1.806,1.806,0,0,0,0,2.191,1.315,1.315,0,0,0,1.026.409.979.979,0,0,0,.949-.571h1.513a2.417,2.417,0,0,1-.942,1.281,2.657,2.657,0,0,1-1.543.463,2.6,2.6,0,0,1-2.662-2.677ZM739,3841.4h-1.266v-5.248H739v2.3l1.721-2.3h1.659l-2.145,2.624,2.145,2.624h-1.636L739,3839.082Zm-67.907,9.877a2.662,2.662,0,0,1,1.867-4.56,2.685,2.685,0,0,1,1.466.409,2.315,2.315,0,0,1,.926,1.157h-1.011a1.437,1.437,0,0,0-1.381-.787,1.653,1.653,0,0,0-1.266.517,2.125,2.125,0,0,0,0,2.724,1.8,1.8,0,0,0,2.384.123,1.719,1.719,0,0,0,.532-1.065h-1.937v-.664h2.84v.664a2.619,2.619,0,0,1-4.414,1.481Zm5.247-1.2v-3.295h.841v3.295a1.172,1.172,0,0,0,.309.887,1.153,1.153,0,0,0,.849.3,1.074,1.074,0,0,0,1.173-1.188v-3.295h.849v3.295a1.822,1.822,0,0,1-.586,1.443,2.319,2.319,0,0,1-2.871.008,1.819,1.819,0,0,1-.571-1.451Zm8.589,1.9-.37-1.065H682.4l-.37,1.065h-.88l1.852-5.2h.972l1.844,5.2Zm-2.3-1.729h1.7l-.849-2.438Zm4.831-.386v2.114h-.849v-5.193H688.4a1.91,1.91,0,0,1,1.35.44,1.446,1.446,0,0,1,.471,1.1,1.442,1.442,0,0,1-1.281,1.482l1.366,2.161h-1.034l-1.289-2.1Zm0-2.415v1.76h.934a.979.979,0,0,0,.718-.232,1.01,1.01,0,0,0,.008-1.3,1.011,1.011,0,0,0-.725-.232Zm7.315,4.53-.37-1.065h-2.161l-.37,1.065H691l1.852-5.2h.972l1.844,5.2Zm-2.3-1.729h1.7l-.849-2.438Zm7.369-3.472h.849v5.2h-.849l-2.539-3.881v3.881h-.849v-5.2h.849l2.547,3.866Zm1.7.671v-.664h3.588v.664H703.76v4.53h-.849v-4.53Zm7.285-.671v.664h-2.006v1.574h1.783v.664h-1.775v1.628h2v.671h-2.847v-5.2Zm3.882,0v.664h-2.006v1.574h1.783v.664h-1.775v1.628h2v.671h-2.847v-5.2Z" transform="translate(-663.888 -3822.105)" fill="#314a57"/><g transform="translate(89.514 10.58)"><path d="M778,3840.114a8.334,8.334,0,1,1,8.334,8.4A8.369,8.369,0,0,1,778,3840.114Z" transform="translate(-778 -3831.71)" fill="#5c6670"/><path d="M790.755,3843.148a2.317,2.317,0,0,1-.671,1.644,2.7,2.7,0,0,1-1.752.795v.926h-.617v-.926a2.853,2.853,0,0,1-1.844-.718,2.3,2.3,0,0,1-.671-1.751h1.921c.039.509.232.81.586.911v-1.775a8.823,8.823,0,0,1-1.5-.548l-.309-.216a1.041,1.041,0,0,1-.293-.286q-.113-.167-.216-.34a2.008,2.008,0,0,1-.193-.957,2.154,2.154,0,0,1,.718-1.682,3.009,3.009,0,0,1,1.79-.756v-.918h.617v.918a2.78,2.78,0,0,1,1.759.648,2.38,2.38,0,0,1,.671,1.767H788.9a.967.967,0,0,0-.571-.849v1.8a9.825,9.825,0,0,1,1.381.486,1.93,1.93,0,0,1,1.042,1.837Zm-3.048-4.129a.673.673,0,0,0-.617.71.931.931,0,0,0,.617.88Zm.617,5.008a.681.681,0,0,0,.54-.7.9.9,0,0,0-.54-.826Z" transform="translate(-779.643 -3832.815)" fill="#fff"/></g></svg>