<svg xmlns="http://www.w3.org/2000/svg" width="99.545" height="38.584" viewBox="0 0 99.545 38.584"><path d="M501,3831.5a4.63,4.63,0,0,1,4.63-4.63h78.541a4.63,4.63,0,0,1,4.63,4.63v19.369a4.63,4.63,0,0,1-4.63,4.63H505.63a4.63,4.63,0,0,1-4.63-4.63Z" transform="translate(-501 -3820.025)" fill="#e1e0e0"/><path d="M604.579,3826.89H586.8V3840.9c0,8.859,9.445,15.781,15.4,17.671h2.392V3826.89Z" transform="translate(-520.591 -3820.03)" fill="#e0b03b"/><path d="M586.79,3824.86V3818h17.787v6.86Z" transform="translate(-520.588 -3818)" fill="#ffc843"/><path d="M620.853,3826.87v14.044c0,8.866-9.468,15.8-15.457,17.694-5.98-1.9-15.457-8.828-15.457-17.7V3826.87Z" transform="translate(-521.308 -3820.025)" fill="#ffc843"/><path d="M589.94,3824.845V3818h30.913v6.845Z" transform="translate(-521.308 -3818)" fill="#ffe09b"/><g transform="translate(75.523 9.445)"><path d="M614.477,3837.1h-2.315a4.619,4.619,0,0,0-9.237,0H600.61a6.934,6.934,0,0,1,13.867,0Z" transform="translate(-599.267 -3830.24)" fill="#333e48"/><path d="M598.87,3850.79v-11.66h16.552v11.66Z" transform="translate(-598.87 -3832.27)" fill="#5c6670"/><path d="M608.658,3842.019a2.091,2.091,0,1,0-1.127,3.874v2.454h2.253v-2.454a2.091,2.091,0,0,0-1.127-3.874Z" transform="translate(-600.378 -3832.859)" fill="#333e48"/></g><path d="M510.175,3840.6v-4.121h-.9V3835.3h2.215v5.3Zm4.437-5.417a2.271,2.271,0,0,1,.98.2,1.621,1.621,0,0,1,.648.579,2.88,2.88,0,0,1,.347.849,4.479,4.479,0,0,1,.108,1.065,4.653,4.653,0,0,1-.108,1.08,3.072,3.072,0,0,1-.347.849,1.663,1.663,0,0,1-.648.571,2.475,2.475,0,0,1-1.952,0,1.571,1.571,0,0,1-.648-.579,2.693,2.693,0,0,1-.347-.849,4.722,4.722,0,0,1-.116-1.073,4.572,4.572,0,0,1,.116-1.073,2.844,2.844,0,0,1,.347-.849,1.56,1.56,0,0,1,.648-.571A2.235,2.235,0,0,1,514.612,3835.18Zm0,1.2a.775.775,0,0,0-.37.085.676.676,0,0,0-.247.216,1.126,1.126,0,0,0-.139.332,2.683,2.683,0,0,0-.062.4,6.183,6.183,0,0,0,.062,1.335,1.019,1.019,0,0,0,.139.332.688.688,0,0,0,.247.216.946.946,0,0,0,.748,0,.669.669,0,0,0,.247-.216.964.964,0,0,0,.131-.332,1.973,1.973,0,0,0,.069-.409,6.185,6.185,0,0,0-.069-1.327,1.021,1.021,0,0,0-.131-.332.671.671,0,0,0-.247-.216A.77.77,0,0,0,514.612,3836.376Zm4.838-1.2a2.271,2.271,0,0,1,.98.2,1.621,1.621,0,0,1,.648.579,2.88,2.88,0,0,1,.347.849,4.479,4.479,0,0,1,.108,1.065,4.653,4.653,0,0,1-.108,1.08,3.072,3.072,0,0,1-.347.849,1.663,1.663,0,0,1-.648.571,2.263,2.263,0,0,1-.98.2,2.228,2.228,0,0,1-.972-.2,1.571,1.571,0,0,1-.648-.579,2.9,2.9,0,0,1-.355-.849,4.711,4.711,0,0,1-.108-1.073,5.046,5.046,0,0,1,.108-1.073,2.86,2.86,0,0,1,.355-.849,1.56,1.56,0,0,1,.648-.571A2.211,2.211,0,0,1,519.451,3835.18Zm0,1.2a.775.775,0,0,0-.37.085.676.676,0,0,0-.247.216,1.124,1.124,0,0,0-.139.332l-.069.4a6.191,6.191,0,0,0,.077,1.335,1.02,1.02,0,0,0,.131.332.687.687,0,0,0,.247.216.792.792,0,0,0,.37.077.772.772,0,0,0,.378-.077.668.668,0,0,0,.239-.216.832.832,0,0,0,.139-.332,1.969,1.969,0,0,0,.069-.409,6.193,6.193,0,0,0-.069-1.327.875.875,0,0,0-.139-.332.671.671,0,0,0-.239-.216.765.765,0,0,0-.378-.085Zm7.362,3.041c0-.34-.123-.5-.363-.5s-.355.162-.355.5.116.5.355.5S526.812,3839.748,526.812,3839.417Zm-1.6,0a1.205,1.205,0,0,1,.347-.926,1.224,1.224,0,0,1,.9-.332,1.157,1.157,0,0,1,1.227,1.258,1.223,1.223,0,0,1-.34.926,1.387,1.387,0,0,1-1.783,0A1.227,1.227,0,0,1,525.215,3839.417Zm-2.361,1.181,2.855-5.263h1.219l-2.855,5.263Zm.833-4.083c0-.332-.116-.5-.355-.5s-.363.17-.363.5.116.5.363.5C523.564,3837.017,523.687,3836.847,523.687,3836.515Zm-1.6,0a1.227,1.227,0,0,1,.347-.926,1.265,1.265,0,0,1,.9-.324,1.158,1.158,0,0,1,1.235,1.25,1.168,1.168,0,0,1-1.235,1.258,1.236,1.236,0,0,1-.9-.332A1.205,1.205,0,0,1,522.09,3836.515Zm9.978-.1a.434.434,0,0,0-.154.363.556.556,0,0,0,.147.386.91.91,0,0,0,.363.224l.509.154a3.468,3.468,0,0,1,.548.169,2.343,2.343,0,0,1,.5.247,1.051,1.051,0,0,1,.37.424,1.389,1.389,0,0,1,.139.648,1.467,1.467,0,0,1-.54,1.142,2.08,2.08,0,0,1-1.412.471,2.222,2.222,0,0,1-1.42-.424,1.469,1.469,0,0,1-.54-1.212h1.35c.039.425.247.633.641.633a.6.6,0,0,0,.432-.154.476.476,0,0,0,.154-.362.482.482,0,0,0-.139-.363.982.982,0,0,0-.37-.231l-.5-.154a5.12,5.12,0,0,1-.556-.169,2.734,2.734,0,0,1-.5-.247,1.04,1.04,0,0,1-.363-.425,1.388,1.388,0,0,1-.147-.64,1.444,1.444,0,0,1,.54-1.173,2.126,2.126,0,0,1,1.389-.44,2.167,2.167,0,0,1,1.358.386,1.43,1.43,0,0,1,.54,1.212h-1.374a.7.7,0,0,0-.185-.44.525.525,0,0,0-.386-.154.571.571,0,0,0-.386.131Zm6.582-1.08v.972h-1.891v1.126h1.667v.973h-1.667v1.219h1.891v.972h-3.164v-5.263Zm.779,2.624a2.608,2.608,0,0,1,2.67-2.678,2.641,2.641,0,0,1,1.543.463,2.386,2.386,0,0,1,.949,1.281h-1.513a.994.994,0,0,0-.949-.571,1.321,1.321,0,0,0-1.034.409,1.806,1.806,0,0,0,0,2.191,1.321,1.321,0,0,0,1.034.409.994.994,0,0,0,.949-.571h1.513a2.416,2.416,0,0,1-.942,1.281,2.676,2.676,0,0,1-1.543.463,2.609,2.609,0,0,1-2.678-2.678Zm5.957.525v-3.133h1.266v3.133a1.049,1.049,0,0,0,.232.725.861.861,0,0,0,.671.255.9.9,0,0,0,.687-.255,1.049,1.049,0,0,0,.232-.725v-3.133h1.273v3.133a2.149,2.149,0,0,1-.324,1.2,1.909,1.909,0,0,1-.818.733,2.48,2.48,0,0,1-1.073.232,2.189,2.189,0,0,1-1.528-.563,2.052,2.052,0,0,1-.617-1.6Zm6.714.077v2.037h-1.273v-5.248h2.06a1.957,1.957,0,0,1,1.4.471,1.486,1.486,0,0,1,.509,1.134,1.6,1.6,0,0,1-.278.888,1.5,1.5,0,0,1-.9.617l1.273,2.138H553.42l-1.173-2.045Zm0-2.238v1.265h.787a.61.61,0,0,0,.455-.177.617.617,0,0,0,.162-.448.595.595,0,0,0-.617-.641Zm3.689,4.275v-5.248h1.266v5.248Zm2.022-4.275v-.973h4.113v.973H560.5v4.275H559.23v-4.275Zm7.493,4.275h-1.266v-1.7l-1.806-3.55h1.443l1,2.369.988-2.369h1.443l-1.806,3.55Zm-55.19,9.877a2.659,2.659,0,0,1,1.867-4.561,2.711,2.711,0,0,1,1.466.41,2.316,2.316,0,0,1,.926,1.157h-1.011a1.445,1.445,0,0,0-1.381-.787,1.681,1.681,0,0,0-1.273.517,2.125,2.125,0,0,0,0,2.724,1.668,1.668,0,0,0,2.917-.941H511.7v-.664h2.84v.664a2.625,2.625,0,0,1-4.422,1.481Zm5.247-1.2v-3.295h.849v3.295a1.169,1.169,0,0,0,.3.888,1.19,1.19,0,0,0,.864.3,1.155,1.155,0,0,0,.857-.309,1.142,1.142,0,0,0,.309-.88v-3.295h.849v3.295a1.822,1.822,0,0,1-.586,1.443,2.11,2.11,0,0,1-1.443.5,2.084,2.084,0,0,1-1.435-.494,1.843,1.843,0,0,1-.571-1.45Zm8.6,1.9-.37-1.065h-2.161l-.37,1.065h-.887l1.852-5.2h.98l1.852,5.2Zm-2.3-1.729h1.7l-.849-2.438Zm4.838-.386v2.114h-.849v-5.193h1.775a1.929,1.929,0,0,1,1.358.44,1.446,1.446,0,0,1,.471,1.1,1.441,1.441,0,0,1-1.281,1.481l1.366,2.161h-1.034l-1.289-2.1Zm0-2.416v1.76h.926a1,1,0,0,0,.725-.231,1.024,1.024,0,0,0,0-1.3.991.991,0,0,0-.718-.231Zm7.323,4.53-.37-1.064H531.3l-.37,1.064h-.887l1.852-5.2h.98l1.844,5.2Zm-2.3-1.729h1.7l-.849-2.438Zm7.377-3.472h.849v5.2H538.9l-2.547-3.881v3.881h-.849v-5.2h.849l2.547,3.866Zm1.7.671v-.664h3.6v.664h-1.374v4.53h-.849v-4.53Zm7.3-.671v.664H545.9v1.574h1.775v.664H545.9v1.628H547.9v.671h-2.855v-5.2Zm3.882,0v.664h-2.006v1.574h1.79v.664h-1.783v1.628h2.006v.671h-2.855v-5.2Z" transform="translate(-502.891 -3821.922)" fill="#314a57"/></svg>