<svg xmlns="http://www.w3.org/2000/svg" width="70" height="69" viewBox="0 0 70 69"><g transform="translate(-1 -1.494)"><path d="M64.71,55.446A15.96,15.96,0,0,0,52.8,31.612a18.169,18.169,0,0,1-16.9,21.45,15.916,15.916,0,0,0,18.525,9.99l9.15,3.662a2.39,2.39,0,0,0,3.21-2.786Z" transform="translate(4.147 3.608)" fill="#5ed58c"/><path d="M52.94,36.433A15.99,15.99,0,1,0,23.1,44.405l-2.072,8.483a2.39,2.39,0,0,0,3.21,2.786l9.15-3.662A15.95,15.95,0,0,0,52.94,36.433ZM30.1,37.575a1.713,1.713,0,1,1,1.713-1.713A1.713,1.713,0,0,1,30.1,37.575Zm6.853,0a1.713,1.713,0,1,1,1.713-1.713,1.713,1.713,0,0,1-1.713,1.713Zm6.853,0a1.713,1.713,0,1,1,1.713-1.713A1.713,1.713,0,0,1,43.8,37.575Z" transform="translate(2.36 2.265)" fill="#5ed58c"/><g transform="translate(1 1.494)"><path d="M54.681,11.447H44.916a8.023,8.023,0,0,0-13.465-7.6l-1.9,1.9-1.9-1.9a8.023,8.023,0,0,0-13.464,7.6H4.426A3.43,3.43,0,0,0,1,14.874V52.565a3.43,3.43,0,0,0,3.426,3.426H54.681a3.43,3.43,0,0,0,3.426-3.426V14.874a3.43,3.43,0,0,0-3.426-3.426ZM17.918,5.463a5.75,5.75,0,0,1,8.123,0l2.7,2.7a1.142,1.142,0,0,0,1.615,0l2.7-2.7a5.75,5.75,0,0,1,8.123,0,5.67,5.67,0,0,1,1.041,6.647c-.008.017-.019.032-.026.049a5.715,5.715,0,0,1-1.015,1.426L29.554,25.221,17.918,13.585A5.715,5.715,0,0,1,16.9,12.159c-.007-.018-.018-.032-.026-.049a5.671,5.671,0,0,1,1.041-6.647Zm37.905,47.1a1.143,1.143,0,0,1-1.142,1.142H4.426a1.143,1.143,0,0,1-1.142-1.142V14.874a1.143,1.143,0,0,1,1.142-1.142H15.149A8.068,8.068,0,0,0,16.3,15.2L28.746,27.644a1.142,1.142,0,0,0,1.615,0L42.8,15.2a8.068,8.068,0,0,0,1.154-1.469H54.681a1.143,1.143,0,0,1,1.142,1.142Z" transform="translate(-1 -1.494)" fill="#060d43"/><path d="M46.691,28.208H10.142a1.142,1.142,0,1,0,0,2.284H46.691a1.142,1.142,0,1,0,0-2.284Z" transform="translate(0.137 2.303)" fill="#060d43"/><path d="M46.691,34.208H10.142a1.142,1.142,0,1,0,0,2.284H46.691a1.142,1.142,0,1,0,0-2.284Z" transform="translate(0.137 3.156)" fill="#060d43"/><path d="M46.691,40.208H10.142a1.142,1.142,0,1,0,0,2.284H46.691a1.142,1.142,0,1,0,0-2.284Z" transform="translate(0.137 4.009)" fill="#060d43"/></g></g></svg>