<svg xmlns="http://www.w3.org/2000/svg" width="30.13" height="34.281" viewBox="0 0 30.13 34.281"><g transform="translate(0)"><path d="M51.788,22.65c3.648-5.724,3.189-5.01,3.294-5.159a10.965,10.965,0,0,0,2.03-6.376,11.048,11.048,0,1,0-20.007,6.458l3.236,5.078C36.882,23.182,31,24.766,31,28.255c0,1.272.83,3.084,4.785,4.5a31.7,31.7,0,0,0,10.28,1.529c7.233,0,15.065-2.04,15.065-6.026C61.13,24.766,55.255,23.183,51.788,22.65Zm-13-6.183q-.017-.026-.035-.051a9.039,9.039,0,1,1,14.7-.1c-.1.128.408-.657-7.389,11.578Zm7.281,15.805c-7.9,0-13.056-2.322-13.056-4.017,0-1.139,2.649-3.013,8.52-3.743L45.218,30.3a1,1,0,0,0,1.694,0L50.6,24.512c5.871.73,8.52,2.6,8.52,3.743C59.121,29.936,54.012,32.272,46.065,32.272Z" transform="translate(-31)" fill="#060d43"/></g><g transform="translate(10.043 6.093)"><path d="M186.022,91a5.022,5.022,0,1,0,5.022,5.022A5.027,5.027,0,0,0,186.022,91Zm0,8.035a3.013,3.013,0,1,1,3.013-3.013A3.016,3.016,0,0,1,186.022,99.035Z" transform="translate(-181 -91)" fill="#060d43"/></g></svg>