<svg xmlns="http://www.w3.org/2000/svg" xmlns:xlink="http://www.w3.org/1999/xlink" width="44.798" height="30.898" viewBox="0 0 44.798 30.898"><defs><clipPath id="a"><path d="M14,26.317A2.223,2.223,0,0,1,16.1,24H56.7a2.223,2.223,0,0,1,2.1,2.317V52.581A2.223,2.223,0,0,1,56.7,54.9H16.1A2.223,2.223,0,0,1,14,52.581Z" transform="translate(-14 -24)"/></clipPath><clipPath id="b"><path d="M112.34,71.415V71.17h.105v-.035H112.2v.035h.105l.035.245Zm.49,0V71.1h-.07l-.1.21-.105-.21h-.07v.315h.07V71.17l.07.21h.07l.07-.21v.245Z" transform="translate(-112.2 -71.1)"/></clipPath><clipPath id="c"><path d="M49.19,86.34V85.01a.78.78,0,0,0-.8-.84.791.791,0,0,0-.735.385.767.767,0,0,0-.7-.385.744.744,0,0,0-.63.315V84.24H45.9v2.1h.42V85.15a.506.506,0,0,1,.525-.56c.315,0,.455.21.455.56v1.19h.42V85.15a.506.506,0,0,1,.525-.56c.315,0,.49.21.49.56v1.19Zm6.79-2.1h-.77v-.63h-.42v.63h-.455v.385h.455v.98c0,.49.175.77.7.77a.968.968,0,0,0,.56-.175l-.14-.385a.912.912,0,0,1-.385.1c-.21,0-.315-.14-.315-.35v-.98h.77Zm3.885-.035a.594.594,0,0,0-.56.315v-.245h-.42v2.1h.42v-1.19c0-.35.175-.56.455-.56a.421.421,0,0,1,.28.07l.14-.385A.423.423,0,0,0,59.864,84.2Zm-5.88.21a1.574,1.574,0,0,0-.84-.21c-.525,0-.84.245-.84.665,0,.35.245.56.7.595l.21.035c.245.035.385.1.385.245,0,.175-.175.28-.49.28a1.277,1.277,0,0,1-.7-.21l-.21.315a1.7,1.7,0,0,0,.91.28c.595,0,.945-.28.945-.665,0-.35-.245-.56-.7-.63l-.21-.035c-.21-.035-.385-.07-.385-.21s.175-.245.42-.245a1.52,1.52,0,0,1,.665.175Zm6.335.875A1.029,1.029,0,0,0,61.4,86.375a1.04,1.04,0,0,0,.735-.245l-.21-.315a1.058,1.058,0,0,1-.56.175.7.7,0,0,1,0-1.4,1.058,1.058,0,0,1,.56.175l.21-.315A1.04,1.04,0,0,0,61.4,84.2,1.029,1.029,0,0,0,60.319,85.29ZM57.379,84.2a1.012,1.012,0,0,0-1.015,1.085,1,1,0,0,0,1.05,1.085,1.222,1.222,0,0,0,.84-.28l-.21-.315a.95.95,0,0,1-.595.21.606.606,0,0,1-.63-.525h1.575V85.29A1.013,1.013,0,0,0,57.379,84.2Zm0,.385a.545.545,0,0,1,.56.525h-1.12A.545.545,0,0,1,57.379,84.59Zm-5.635.7V84.24h-.42v.245a.866.866,0,0,0-.665-.315,1.012,1.012,0,0,0-1.015,1.085A1.033,1.033,0,0,0,50.66,86.34a.769.769,0,0,0,.665-.315v.245h.42Zm-1.715,0a.652.652,0,0,1,.665-.7.645.645,0,0,1,.63.7.627.627,0,0,1-.63.7A.673.673,0,0,1,50.03,85.29ZM66.164,84.2a.594.594,0,0,0-.56.315v-.245h-.42v2.1h.42v-1.19c0-.35.175-.56.455-.56a.421.421,0,0,1,.28.07l.14-.385A.423.423,0,0,0,66.164,84.2Zm3.36,1.82h.07c.035,0,.035.035.07.035.035.035.035.035.035.07v.14c0,.035-.035.035-.035.07-.035.035-.035.035-.07.035h-.14c-.035,0-.035-.035-.07-.035-.035-.035-.035-.035-.035-.07v-.14c0-.035.035-.035.035-.07.035-.035.035-.035.07-.035Zm0,.385h.07a.034.034,0,0,0,.035-.035l.035-.035V86.2a.034.034,0,0,0-.035-.035l-.035-.035h-.14a.034.034,0,0,0-.035.035l-.035.035v.14a.034.034,0,0,0,.035.035l.035.035Zm0-.28h.07l.035.035V86.2a.034.034,0,0,0-.035.035l.07.07h-.035l-.07-.07h-.035v.07h-.035v-.21h.035Zm-.035.035h0l.07.035v-.07l-.07.035Zm-4.935-.875V84.24h-.42v.245a.866.866,0,0,0-.665-.315,1.012,1.012,0,0,0-1.015,1.085,1.033,1.033,0,0,0,1.015,1.085.769.769,0,0,0,.665-.315v.245h.42Zm-1.68,0a.652.652,0,0,1,.665-.7.645.645,0,0,1,.63.7.627.627,0,0,1-.63.7A.652.652,0,0,1,62.874,85.29Zm5.88,0V83.4h-.42v1.085a.866.866,0,0,0-.665-.315,1.012,1.012,0,0,0-1.015,1.085,1.033,1.033,0,0,0,1.015,1.085.769.769,0,0,0,.665-.315v.245h.42Zm-1.68,0a.652.652,0,0,1,.665-.7.645.645,0,0,1,.63.7.627.627,0,0,1-.63.7A.652.652,0,0,1,67.074,85.29Z" transform="translate(-45.9 -83.4)"/></clipPath><clipPath id="d"><rect width="7.56" height="12.354"/></clipPath><clipPath id="e"><path d="M51.895,43.54a7.813,7.813,0,0,1,3.01-6.16,7.844,7.844,0,1,0-4.865,14A7.951,7.951,0,0,0,54.9,49.7a7.762,7.762,0,0,1-3.01-6.16" transform="translate(-42.2 -35.7)"/></clipPath><clipPath id="f"><path d="M91.1,43.54a7.827,7.827,0,0,1-7.84,7.84A7.951,7.951,0,0,1,78.4,49.7a7.808,7.808,0,0,0,0-12.319,7.851,7.851,0,0,1,12.7,6.16" transform="translate(-78.4 -35.7)"/></clipPath></defs><g transform="translate(-14 -24)"><g transform="translate(14 24)"><path d="M14,26.317A2.223,2.223,0,0,1,16.1,24H56.7a2.223,2.223,0,0,1,2.1,2.317V52.581A2.223,2.223,0,0,1,56.7,54.9H16.1A2.223,2.223,0,0,1,14,52.581Z" transform="translate(-14 -24)"/><g clip-path="url(#a)"><path d="M14,26.317A2.223,2.223,0,0,1,16.1,24H56.7a2.223,2.223,0,0,1,2.1,2.317V52.581A2.223,2.223,0,0,1,56.7,54.9H16.1A2.223,2.223,0,0,1,14,52.581Z" transform="translate(-14 -24)" stroke="#000" stroke-miterlimit="10" stroke-width="2"/></g></g><g transform="translate(48.368 40.484)"><g clip-path="url(#b)"><rect width="4.165" height="3.815" transform="translate(-1.785 -1.75)" fill="#f79e1b"/></g></g><g transform="translate(0.13 1.906)"><g transform="translate(25.165 44.789)"><g clip-path="url(#c)"><rect width="27.334" height="6.545" transform="translate(-1.75 -1.75)" fill="#fff"/></g></g><g transform="translate(32.759 29.775)"><g transform="translate(0 0)"><g clip-path="url(#d)"><rect width="11.059" height="15.854" transform="translate(-1.75 -1.75)" fill="#ff5f00"/></g></g></g><g transform="translate(23.87 28.095)"><g clip-path="url(#e)"><rect width="16.204" height="19.214" transform="translate(-1.785 -1.75)" fill="#eb001b"/></g></g><g transform="translate(36.539 28.095)"><g clip-path="url(#f)"><rect width="16.204" height="19.214" transform="translate(-1.75 -1.75)" fill="#f79e1b"/></g></g></g></g></svg>