<svg xmlns="http://www.w3.org/2000/svg" width="70" height="70" viewBox="0 0 70 70"><g transform="translate(-1 -1.002)"><path d="M63.959,25H34.41A3.413,3.413,0,0,0,31,28.41V64.779a3.413,3.413,0,0,0,3.41,3.41h29.55a3.413,3.413,0,0,0,3.41-3.41V28.41A3.413,3.413,0,0,0,63.959,25Zm-25,37.506a1.137,1.137,0,0,1-2.273,0V30.683a1.137,1.137,0,0,1,2.273,0ZM56,61.369H49.185a1.137,1.137,0,0,1,0-2.273H56a1.137,1.137,0,0,1,0,2.273Zm3.41-20.458H45.775a1.137,1.137,0,1,1,0-2.273H59.413a1.137,1.137,0,1,1,0,2.273Zm0-6.819H45.775a1.137,1.137,0,1,1,0-2.273H59.413a1.137,1.137,0,1,1,0,2.273Z" transform="translate(3.631 2.813)" fill="#5ed58c"/><g transform="translate(1 1.002)"><path d="M7.861,10.18,21.5,13.589a1.137,1.137,0,1,0,.552-2.205L8.412,7.975a1.137,1.137,0,1,0-.552,2.205Z" transform="translate(-0.181 -0.054)" fill="#060d43"/><path d="M7.861,16.18,21.5,19.589a1.137,1.137,0,1,0,.552-2.205L8.412,13.974a1.137,1.137,0,1,0-.552,2.205Z" transform="translate(-0.181 0.765)" fill="#060d43"/><path d="M7.861,22.18,21.5,25.59a1.137,1.137,0,1,0,.552-2.205L8.412,19.975a1.137,1.137,0,1,0-.552,2.205Z" transform="translate(-0.181 1.584)" fill="#060d43"/><path d="M7.861,28.18,21.5,31.59a1.137,1.137,0,1,0,.552-2.205L8.412,25.975a1.137,1.137,0,1,0-.552,2.205Z" transform="translate(-0.181 2.403)" fill="#060d43"/><path d="M53.59,1.1,29.413,7.148,5.236,1.1A3.409,3.409,0,0,0,1,4.412v29.41a3.4,3.4,0,0,0,2.273,3.2v3.119a3.413,3.413,0,0,0,3.41,3.41H52.144a3.413,3.413,0,0,0,3.41-3.41V37.024a3.4,3.4,0,0,0,2.273-3.2V4.412A3.409,3.409,0,0,0,53.59,1.1ZM3.273,4.412a1.136,1.136,0,0,1,1.412-1.1l23.592,5.9V40.96L4.134,34.924a1.135,1.135,0,0,1-.861-1.1ZM5.546,40.143V37.621L20.18,41.279H6.683a1.138,1.138,0,0,1-1.137-1.137Zm46.6,1.137h-13.5l14.634-3.658v2.522a1.138,1.138,0,0,1-1.137,1.137Zm3.41-7.457a1.135,1.135,0,0,1-.861,1.1L30.55,40.96V9.207l23.592-5.9a1.136,1.136,0,0,1,1.412,1.1Z" transform="translate(-1 -1.002)" fill="#060d43"/><path d="M45.5,7.975l-13.638,3.41a1.137,1.137,0,0,0,.552,2.205l13.638-3.41A1.137,1.137,0,0,0,45.5,7.975Z" transform="translate(3.096 -0.054)" fill="#060d43"/><path d="M45.5,13.975l-13.638,3.41a1.137,1.137,0,1,0,.552,2.205l13.638-3.41a1.137,1.137,0,0,0-.552-2.205Z" transform="translate(3.096 0.765)" fill="#060d43"/><path d="M45.5,19.975l-13.638,3.41a1.137,1.137,0,1,0,.552,2.205l13.638-3.41a1.137,1.137,0,0,0-.552-2.205Z" transform="translate(3.096 1.584)" fill="#060d43"/><path d="M45.5,25.975l-13.638,3.41a1.137,1.137,0,1,0,.552,2.205l13.638-3.41a1.137,1.137,0,0,0-.552-2.205Z" transform="translate(3.096 2.403)" fill="#060d43"/></g></g></svg>