<svg xmlns="http://www.w3.org/2000/svg" width="70" height="63" viewBox="0 0 70 63"><g transform="translate(-1 -4)"><path d="M61.917,36H50.774a3.4,3.4,0,0,0-2.9,1.645l-2.382,3.969a2.256,2.256,0,0,0,0,2.324l2.381,3.968a3.4,3.4,0,0,0,2.9,1.645H61.917A3.391,3.391,0,0,0,65.3,46.163V39.388A3.391,3.391,0,0,0,61.917,36Zm-9.034,9.034a1.129,1.129,0,0,1-2.258,0V40.517a1.129,1.129,0,1,1,2.258,0Z" transform="translate(5.696 3.963)" fill="#5ed58c"/><path d="M53.9,53.359a5.673,5.673,0,0,1-4.842-2.743l-2.38-3.966a4.51,4.51,0,0,1,0-4.647l2.382-3.97A5.673,5.673,0,0,1,53.9,35.292H65.039a5.647,5.647,0,0,1,1.129.114V27.388A3.391,3.391,0,0,0,62.78,24H24.388A3.391,3.391,0,0,0,21,27.388V61.264a3.391,3.391,0,0,0,3.388,3.388H62.78a3.391,3.391,0,0,0,3.388-3.388V53.245a5.647,5.647,0,0,1-1.129.114Z" transform="translate(2.573 2.349)" fill="#5ed58c"/><g transform="translate(1 4)"><path d="M54.073,4H11.163A3.391,3.391,0,0,0,7.775,7.388v3.388H4.388A3.391,3.391,0,0,0,1,14.163V39.005a3.391,3.391,0,0,0,3.388,3.388H47.3a3.391,3.391,0,0,0,3.388-3.388V35.618h3.388A3.391,3.391,0,0,0,57.46,32.23V7.388A3.391,3.391,0,0,0,54.073,4ZM4.388,13.034h6.7A9.042,9.042,0,0,1,3.258,20.86v-6.7A1.131,1.131,0,0,1,4.388,13.034Zm33.933,0A11.311,11.311,0,0,0,48.427,23.139v6.89A11.311,11.311,0,0,0,38.321,40.134H13.364A11.311,11.311,0,0,0,3.258,30.029v-6.89A11.311,11.311,0,0,0,13.364,13.034ZM48.427,20.86A9.042,9.042,0,0,1,40.6,13.034h6.7a1.131,1.131,0,0,1,1.129,1.129ZM3.258,39.005v-6.7a9.042,9.042,0,0,1,7.826,7.826h-6.7a1.131,1.131,0,0,1-1.129-1.129Zm45.168,0A1.131,1.131,0,0,1,47.3,40.135H40.6a9.042,9.042,0,0,1,7.826-7.826ZM55.2,32.23a1.131,1.131,0,0,1-1.129,1.129H50.685v-19.2A3.391,3.391,0,0,0,47.3,10.775H10.034V7.388a1.131,1.131,0,0,1,1.129-1.129h42.91A1.131,1.131,0,0,1,55.2,7.388Z" transform="translate(-1 -4)" fill="#060d43"/><path d="M23.9,35.326c4.359,0,7.9-4.559,7.9-10.163S28.263,15,23.9,15,16,19.559,16,25.163,19.546,35.326,23.9,35.326Zm0-18.067c3.113,0,5.646,3.546,5.646,7.9s-2.533,7.9-5.646,7.9-5.646-3.546-5.646-7.9S20.791,17.258,23.9,17.258Z" transform="translate(0.938 -2.579)" fill="#060d43"/><path d="M34.129,27.775a1.129,1.129,0,0,0,1.129-1.129V22.129a1.129,1.129,0,1,0-2.258,0v4.517A1.129,1.129,0,0,0,34.129,27.775Z" transform="translate(3.134 -1.804)" fill="#060d43"/><path d="M12.129,27.775a1.129,1.129,0,0,0,1.129-1.129V22.129a1.129,1.129,0,1,0-2.258,0v4.517A1.129,1.129,0,0,0,12.129,27.775Z" transform="translate(0.292 -1.804)" fill="#060d43"/></g></g></svg>