<svg xmlns="http://www.w3.org/2000/svg" width="10.198" height="14.397" viewBox="0 0 10.198 14.397"><g transform="translate(0 5.999)"><path d="M83.365,213.333h-7.2a1.5,1.5,0,0,0-1.5,1.5v5.4a1.5,1.5,0,0,0,1.5,1.5h7.2a1.5,1.5,0,0,0,1.5-1.5v-5.4A1.5,1.5,0,0,0,83.365,213.333Zm.9,6.9a.9.9,0,0,1-.9.9h-7.2a.9.9,0,0,1-.9-.9v-5.4a.9.9,0,0,1,.9-.9h7.2a.9.9,0,0,1,.9.9Z" transform="translate(-74.667 -213.333)" fill="#9b9b9b"/></g><g transform="translate(1.2)"><path d="M121.232,0a3.9,3.9,0,0,0-3.9,3.9V6.3a.3.3,0,0,0,.3.3h7.2a.3.3,0,0,0,.3-.3V3.9A3.9,3.9,0,0,0,121.232,0Zm3.3,6h-6.6V3.9a3.3,3.3,0,1,1,6.6,0Z" transform="translate(-117.333)" fill="#9b9b9b"/></g><g transform="translate(4.799 10.198)"><path d="M245.633,362.667a.3.3,0,0,0-.3.3v1.8a.3.3,0,1,0,.6,0v-1.8A.3.3,0,0,0,245.633,362.667Z" transform="translate(-245.333 -362.667)" fill="#9b9b9b"/></g><g transform="translate(3.599 7.799)"><path d="M204.167,277.333a1.5,1.5,0,1,0,1.5,1.5A1.5,1.5,0,0,0,204.167,277.333Zm0,2.4a.9.9,0,1,1,.9-.9A.9.9,0,0,1,204.167,279.733Z" transform="translate(-202.667 -277.333)" fill="#9b9b9b"/></g></svg>