<svg xmlns="http://www.w3.org/2000/svg" width="70" height="70" viewBox="0 0 70 70"><g transform="translate(-1 -1)"><path d="M52.425,27.1a21.505,21.505,0,0,0,8.4-8.376A1.134,1.134,0,0,0,59.859,17a5.783,5.783,0,0,0-3.78,1.35,3.668,3.668,0,0,1-4.9,0,5.914,5.914,0,0,0-7.565,0,3.675,3.675,0,0,1-4.9,0A5.794,5.794,0,0,0,34.931,17a1.134,1.134,0,0,0-.967,1.724,21.505,21.505,0,0,0,8.4,8.376C33.214,30.9,27,44.4,27,53.968,27,69.123,42.35,69.123,47.4,69.123s20.4,0,20.4-15.155c0-9.569-6.214-23.07-15.366-26.866Zm1.848,32.957h-.01l-12.75-.113a1.134,1.134,0,0,1-.876-1.839l1.646-2.069c2.2-2.951,1.615-3.51,1.522-5.819H40.518a1.133,1.133,0,0,1,0-2.266h2.4a10.616,10.616,0,0,1-1.5-4.908v-.019a5.181,5.181,0,0,1,2.755-4.674,8.105,8.105,0,0,1,7.64.015A6.954,6.954,0,0,1,55,42.186a1.133,1.133,0,1,1-2.18.617,4.773,4.773,0,0,0-2.183-2.5,5.842,5.842,0,0,0-5.349.022,2.925,2.925,0,0,0-1.6,2.705v.01a9.95,9.95,0,0,0,1.9,4.912h3.891a1.133,1.133,0,0,1,0,2.266H46.085c-.033,2.436.817,3.412-2.008,7.2l-.222.28,10.428.092a1.133,1.133,0,1,1-.01,2.266Z" transform="translate(3.21 1.877)" fill="#5ed58c"/><g transform="translate(1 1)"><path d="M54.254,1H10.065a3.4,3.4,0,0,0-3.4,3.4V6.665H4.4a3.4,3.4,0,0,0-3.4,3.4V46.323a3.4,3.4,0,0,0,3.4,3.4H39.524a1.307,1.307,0,0,0,.758-.291l5.984-5.386c.02,0,.036.011.056.011h7.931a3.4,3.4,0,0,0,3.4-3.4V4.4a3.4,3.4,0,0,0-3.4-3.4ZM3.266,46.323V10.065A1.134,1.134,0,0,1,4.4,8.931H49.722V37.258h-10.2a1.132,1.132,0,0,0-1.133,1.133v9.065H4.4a1.134,1.134,0,0,1-1.133-1.133Zm37.391-.278v-6.52H47.9Zm14.73-5.387a1.134,1.134,0,0,1-1.133,1.133H48.772l2.841-2.557a1.156,1.156,0,0,0,.375-.842V8.931a2.269,2.269,0,0,0-2.266-2.266H8.931V4.4a1.134,1.134,0,0,1,1.133-1.133h44.19A1.134,1.134,0,0,1,55.387,4.4Z" transform="translate(-1 -1)" fill="#060d43"/><path d="M16.083,25.662c-.647-.229-1.222-.443-1.76-.651v-8.6a5.536,5.536,0,0,1,2.808,1.182,1.133,1.133,0,1,0,1.53-1.671,7.932,7.932,0,0,0-4.339-1.787v-2a1.133,1.133,0,1,0-2.266,0v2.1a6.143,6.143,0,0,0-5.27,5.058c-.745,3.955,1.688,5.7,5.27,7.246V37.1a7.166,7.166,0,0,1-4.3-1.435,1.133,1.133,0,1,0-1.241,1.9,9.3,9.3,0,0,0,5.544,1.805v2.225a1.133,1.133,0,1,0,2.266,0V39.287a7.446,7.446,0,0,0,6.246-6.18,6.509,6.509,0,0,0-4.486-7.444ZM9.013,19.71a3.847,3.847,0,0,1,3.043-3.167v7.5C9.976,23.044,8.554,22.135,9.013,19.71Zm9.32,13.021a5.217,5.217,0,0,1-4.011,4.255V27.434c.324.12.652.24,1.006.365a4.278,4.278,0,0,1,3.005,4.932Z" transform="translate(-0.335 0.331)" fill="#060d43"/><path d="M32.2,33H23.133a1.133,1.133,0,0,0,0,2.266H32.2A1.133,1.133,0,0,0,32.2,33Z" transform="translate(1.794 3.258)" fill="#060d43"/><path d="M23.133,26.266H42.4A1.133,1.133,0,1,0,42.4,24H23.133a1.133,1.133,0,0,0,0,2.266Z" transform="translate(1.794 2.06)" fill="#060d43"/><path d="M23.133,17.266H42.4A1.133,1.133,0,1,0,42.4,15H23.133a1.133,1.133,0,0,0,0,2.266Z" transform="translate(1.794 0.863)" fill="#060d43"/></g></g></svg>