<svg xmlns="http://www.w3.org/2000/svg" width="44.798" height="30.895" viewBox="0 0 44.798 30.895"><path d="M44.8,107.7a2.648,2.648,0,0,1-2.648,2.648H2.648A2.648,2.648,0,0,1,0,107.7V82.1a2.648,2.648,0,0,1,2.648-2.648h39.5A2.648,2.648,0,0,1,44.8,82.1v25.6Z" transform="translate(0 -79.451)" fill="#92dbef"/><path d="M1.883,107.7V82.1a2.648,2.648,0,0,1,2.648-2.648H2.648A2.648,2.648,0,0,0,0,82.1v25.6a2.648,2.648,0,0,0,2.648,2.648H4.531A2.648,2.648,0,0,1,1.883,107.7Z" transform="translate(0 -79.451)" fill="#202121" opacity="0.15"/><path d="M164.238,130.92c-.982-1.122-2.8-1.683-5.329-1.683H151.9a1.2,1.2,0,0,0-.982.841l-2.8,18.371a.641.641,0,0,0,.561.7h4.347l1.122-6.871v.281a1.2,1.2,0,0,1,.982-.841h2.1c4.067,0,7.151-1.683,8.133-6.311v-.421h0a4.9,4.9,0,0,0-1.121-4.067" transform="translate(-135.151 -124.881)" fill="#263b80"/><path d="M228.247,186.574v-.421c0-.014,0-.027,0-.041a3.969,3.969,0,0,0-.662-.373,6.211,6.211,0,0,0-2.124-.428l0,0h-2.045l0,0h-4.29a1.014,1.014,0,0,0-.983.87l-1.118,7.264v.28a1.2,1.2,0,0,1,.982-.841h2.1C224.18,192.885,227.265,191.2,228.247,186.574Z" transform="translate(-198.039 -176.048)" fill="#232c65"/><path d="M214.555,196.261a3.667,3.667,0,0,0-1.375-1.779c0,.014,0,.027,0,.041v.421c-.982,4.628-4.066,6.311-8.133,6.311h-2.1a1.2,1.2,0,0,0-.982.841v-.108c-.016.036-.031.072-.043.108l-.792,4.834-.287,1.757h0l-.322,1.964a.513.513,0,0,0,.561.56h3.5a.987.987,0,0,0,.992-.842l.03-.183h0l.671-4.163a1.062,1.062,0,0,1,1.045-.982h.358c3.506,0,6.311-1.4,7.012-5.609A6.609,6.609,0,0,0,214.555,196.261Z" transform="translate(-182.97 -184.417)" fill="#139ad6"/></svg>