<svg xmlns="http://www.w3.org/2000/svg" width="84" height="84" viewBox="0 0 84 84"><g transform="translate(-1.5 -1)"><path d="M69.8,34.3l-4.365,5.449a19.379,19.379,0,1,1-4.046-3.729L59.67,38.164a16.374,16.374,0,1,0,4.005,3.779l-4.543,5.683a9.4,9.4,0,0,1,.975,4.2,9.645,9.645,0,1,1-4.748-8.273l-1.737,2.171a6.857,6.857,0,1,0,3.739,6.1,6.464,6.464,0,0,0-.22-1.716l-3.432,4.283a1.357,1.357,0,0,1-1.922.22,1.385,1.385,0,0,1-.225-1.924l.007-.005,18.256-22.82h3.526a1.373,1.373,0,1,0,0-2.745h-1.33l1.51-1.888a1.372,1.372,0,1,0-2.143-1.714l-1.455,1.818-.246-1.23A1.372,1.372,0,0,0,67,24.642l.7,3.492-2.015,2.519A25.927,25.927,0,1,0,69.8,34.3Z" transform="translate(8.922 7.293)" fill="#5ed58c"/><g transform="translate(1.5 1)"><path d="M9.873,8.745h4.118a1.373,1.373,0,0,0,0-2.745H9.873a1.373,1.373,0,0,0,0,2.745Z" transform="translate(1.109 0.863)" fill="#060d43"/><path d="M47.071,6h-30.2a1.373,1.373,0,0,0,0,2.745h30.2a1.373,1.373,0,1,0,0-2.745Z" transform="translate(3.717 0.863)" fill="#060d43"/><path d="M9.873,14.745h4.118a1.373,1.373,0,0,0,0-2.745H9.873a1.373,1.373,0,1,0,0,2.745Z" transform="translate(1.109 3.099)" fill="#060d43"/><path d="M47.071,12h-30.2a1.373,1.373,0,0,0,0,2.745h30.2a1.373,1.373,0,1,0,0-2.745Z" transform="translate(3.717 3.099)" fill="#060d43"/><path d="M15.363,22.863h24.9a5.491,5.491,0,1,0,0-2.745h-24.9a6.863,6.863,0,0,0,0,13.726H44.189a4.118,4.118,0,0,1,0,8.236H15.821L10.7,38.237a1.373,1.373,0,1,0-1.647,2.2l4.027,3.02-4.027,3.02a1.373,1.373,0,0,0,1.647,2.2l5.124-3.843H44.189a6.863,6.863,0,1,0,0-13.726H15.363a4.118,4.118,0,1,1,0-8.236Zm30.2-4.118a2.745,2.745,0,1,1-2.745,2.745,2.745,2.745,0,0,1,2.745-2.745Z" transform="translate(1.109 4.59)" fill="#060d43"/><path d="M63.269,1H12.481A6.871,6.871,0,0,0,5.618,7.863V57.279H2.873A1.373,1.373,0,0,0,1.5,58.651v4.118a6.871,6.871,0,0,0,6.863,6.863H52.288a6.871,6.871,0,0,0,6.863-6.863V18.844H68.76a1.373,1.373,0,0,0,1.373-1.373V7.863A6.871,6.871,0,0,0,63.269,1ZM8.363,66.887a4.122,4.122,0,0,1-4.118-4.118V60.024H45.425v2.745A6.831,6.831,0,0,0,46.8,66.887ZM56.406,7.863V62.769a4.118,4.118,0,0,1-8.236,0V58.651A1.373,1.373,0,0,0,46.8,57.279H8.363V7.863a4.122,4.122,0,0,1,4.118-4.118H57.814a6.8,6.8,0,0,0-1.408,4.118ZM67.387,16.1H59.151V7.863a4.118,4.118,0,1,1,8.236,0Z" transform="translate(-1.5 -1)" fill="#060d43"/></g></g></svg>