<svg xmlns="http://www.w3.org/2000/svg" width="70" height="70" viewBox="0 0 70 70"><path d="M54.18,44.747,46.754,43.7a.888.888,0,0,1-.673-.465l-3.321-6.527a3.178,3.178,0,0,0-5.638,0L33.8,43.234a.886.886,0,0,1-.673.467L25.7,44.747a3.075,3.075,0,0,0-1.738,5.283l5.374,5.081a.8.8,0,0,1,.245.718L28.314,63a3.138,3.138,0,0,0,4.558,3.268l6.642-3.387a.942.942,0,0,1,.855,0l6.642,3.387A3.138,3.138,0,0,0,51.569,63L50.3,55.83a.8.8,0,0,1,.245-.719l5.374-5.081a3.075,3.075,0,0,0-1.738-5.283Z" transform="translate(1.832 3.37)" fill="#5ed58c"/><path d="M63.436,29.921l-4.584-.679-2.016-3.963h0a2.375,2.375,0,0,0-4.214,0l-2.091,4.007-4.509.635a2.311,2.311,0,0,0-1.3,3.97L48,37.011l-.77,4.355a2.349,2.349,0,0,0,3.406,2.458l4.032-2.056a.135.135,0,0,1,.116,0l4.033,2.056a2.349,2.349,0,0,0,3.406-2.457l-.754-4.392,3.263-3.084a2.312,2.312,0,0,0-1.3-3.97Z" transform="translate(4.544 1.961)" fill="#5ed58c"/><path d="M48.178,14.96,36.883,1.406A1.13,1.13,0,0,0,36.015,1H4.389A3.392,3.392,0,0,0,1,4.389V55.218a2.262,2.262,0,0,0,2.259,2.259H8.907a2.261,2.261,0,0,0,2.216-1.835A5.576,5.576,0,0,0,15.3,57.477H45.052a3.392,3.392,0,0,0,3.389-3.389v-38.4a1.129,1.129,0,0,0-.262-.724ZM37.145,5.249,44.9,14.554H38.275a1.131,1.131,0,0,1-1.13-1.13ZM3.259,55.218V41.663H8.907l0,13.554Zm7.907-2.727V41.663h5.648a1.13,1.13,0,0,0,1.072-.772l2.79-8.37a1.5,1.5,0,0,1,2.915.472v7.541a1.129,1.129,0,0,0,1.13,1.13h6.242a1.128,1.128,0,0,1,1.1,1.366L29.455,55.218H15.3c-2.054,0-2.873-1.668-4.13-2.727Zm35.015,1.6a1.131,1.131,0,0,1-1.13,1.13H31.765L34.275,43.5a3.388,3.388,0,0,0-3.313-4.1H25.85V32.993a3.758,3.758,0,0,0-7.318-1.187L16,39.4H3.259V4.389a1.131,1.131,0,0,1,1.13-1.13h30.5V13.425a3.392,3.392,0,0,0,3.389,3.389h7.907Z" transform="translate(-1 -1)" fill="#060d43"/><path d="M9.518,14.036A4.518,4.518,0,1,0,5,9.518,4.518,4.518,0,0,0,9.518,14.036Zm0-6.777A2.259,2.259,0,1,1,7.259,9.518,2.259,2.259,0,0,1,9.518,7.259Z" transform="translate(-0.482 -0.482)" fill="#060d43"/><path d="M16.13,10.259H28.554a1.13,1.13,0,0,0,0-2.259H16.13a1.13,1.13,0,1,0,0,2.259Z" transform="translate(0.813 -0.093)" fill="#060d43"/><path d="M9.518,24.036A4.518,4.518,0,1,0,5,19.518,4.518,4.518,0,0,0,9.518,24.036Zm0-6.777a2.259,2.259,0,1,1-2.259,2.259A2.259,2.259,0,0,1,9.518,17.259Z" transform="translate(-0.482 0.813)" fill="#060d43"/><path d="M15,19.13a1.129,1.129,0,0,0,1.13,1.13h24.85a1.13,1.13,0,1,0,0-2.259H16.13A1.129,1.129,0,0,0,15,19.13Z" transform="translate(0.813 1.202)" fill="#060d43"/><path d="M39.684,28H26.13a1.13,1.13,0,1,0,0,2.259H39.684a1.13,1.13,0,0,0,0-2.259Z" transform="translate(2.109 2.497)" fill="#060d43"/><path d="M14.036,28H6.13a1.13,1.13,0,1,0,0,2.259h7.907a1.13,1.13,0,1,0,0-2.259Z" transform="translate(-0.482 2.497)" fill="#060d43"/></svg>