<svg xmlns="http://www.w3.org/2000/svg" width="70" height="70" viewBox="0 0 70 70"><g transform="translate(-1 -1)"><circle cx="4.5" cy="4.5" r="4.5" transform="translate(42.447 42.447)" fill="#5ed58c"/><path d="M44.985,21A23.985,23.985,0,1,0,68.97,44.985,23.985,23.985,0,0,0,44.985,21ZM33.679,57.907a1.142,1.142,0,0,1-1.615,0,18.292,18.292,0,0,1,0-25.843,1.142,1.142,0,0,1,1.615,1.615,16.009,16.009,0,0,0,0,22.613,1.142,1.142,0,0,1,0,1.615Zm4.038-5.653A1.142,1.142,0,0,1,36.1,53.869a12.579,12.579,0,0,1,0-17.768,1.142,1.142,0,1,1,1.615,1.615,10.292,10.292,0,0,0,0,14.538Zm7.269-.416a6.853,6.853,0,1,1,6.853-6.853A6.853,6.853,0,0,1,44.985,51.838Zm7.269,2.031a1.142,1.142,0,0,1,0-1.615,10.292,10.292,0,0,0,0-14.538A1.142,1.142,0,0,1,53.869,36.1a12.58,12.58,0,0,1,0,17.768,1.142,1.142,0,0,1-1.615,0Zm5.653,4.038a1.142,1.142,0,0,1-1.615-1.615,16.009,16.009,0,0,0,0-22.613,1.142,1.142,0,0,1,1.615-1.615,18.292,18.292,0,0,1,0,25.843Z" transform="translate(2.03 2.03)" fill="#5ed58c"/><g transform="translate(1 1)"><path d="M54.681,6.711H52.4V4.426A3.43,3.43,0,0,0,48.97,1H4.426A3.43,3.43,0,0,0,1,4.426V39.833A3.43,3.43,0,0,0,4.426,43.26H6.711v2.284a3.43,3.43,0,0,0,3.426,3.426h3.426v2.284a1.143,1.143,0,0,0,1.95.808l3.092-3.092H33.65l8.8,8.8a1.143,1.143,0,0,0,1.95-.808v-8H54.681a3.43,3.43,0,0,0,3.426-3.426V10.137a3.43,3.43,0,0,0-3.426-3.426ZM13.564,46.686H10.137A1.144,1.144,0,0,1,9,45.544V43.26h4.569Zm3.761.334h0L15.848,48.5v-6.38a1.142,1.142,0,0,0-1.142-1.142H4.426a1.144,1.144,0,0,1-1.142-1.142V4.426A1.144,1.144,0,0,1,4.426,3.284H48.97a1.143,1.143,0,0,1,1.142,1.142V39.833a1.143,1.143,0,0,1-1.142,1.142H23.843a1.142,1.142,0,0,0-.808.335Zm38.5-1.476a1.143,1.143,0,0,1-1.142,1.142H43.26a1.142,1.142,0,0,0-1.142,1.142v6.38L34.93,47.021a1.142,1.142,0,0,0-.808-.335H20.89l3.426-3.426H48.97A3.43,3.43,0,0,0,52.4,39.833V9h2.284a1.143,1.143,0,0,1,1.142,1.142Z" transform="translate(-1 -1)" fill="#060d43"/><path d="M9.142,10.284H42.265a1.142,1.142,0,1,0,0-2.284H9.142a1.142,1.142,0,0,0,0,2.284Z" transform="translate(-0.005 -0.005)" fill="#060d43"/><path d="M9.142,17.284H42.265a1.142,1.142,0,1,0,0-2.284H9.142a1.142,1.142,0,1,0,0,2.284Z" transform="translate(-0.005 0.99)" fill="#060d43"/><path d="M9.142,24.284H42.265a1.142,1.142,0,1,0,0-2.284H9.142a1.142,1.142,0,0,0,0,2.284Z" transform="translate(-0.005 1.985)" fill="#060d43"/><path d="M43.407,30.142A1.142,1.142,0,0,0,42.265,29H9.142a1.142,1.142,0,1,0,0,2.284H42.265a1.142,1.142,0,0,0,1.142-1.142Z" transform="translate(-0.005 2.98)" fill="#060d43"/></g></g></svg>