<svg xmlns="http://www.w3.org/2000/svg" width="121.495" height="38.584" viewBox="0 0 121.495 38.584"><path d="M22.5,38.462A14.07,14.07,0,0,1,8.731,27.547v-.086l-1.2-.06A7.717,7.717,0,0,1,.2,19.685V.17H116.679a4.7,4.7,0,0,1,4.69,4.69v28.9a4.707,4.707,0,0,1-4.69,4.7Z" transform="translate(-0.029 -0.024)" fill="#fff"/><path d="M116.651.3A4.553,4.553,0,0,1,121.2,4.836v28.9a4.561,4.561,0,0,1-4.544,4.544H22.421A13.9,13.9,0,0,1,8.848,27.489L8.8,27.274H8.574l-1.089-.051A7.562,7.562,0,0,1,.3,19.652V.3H116.651m0-.3H0V19.652a7.863,7.863,0,0,0,7.469,7.854l1.088.051a14.293,14.293,0,0,0,13.89,11.026h94.2a4.844,4.844,0,0,0,4.844-4.844V4.836A4.844,4.844,0,0,0,116.651,0Z" fill="#929497"/><path d="M4.72,4.72V20.3a4.613,4.613,0,0,0,4.39,4.6,13.824,13.824,0,1,1,27.643,0,4.6,4.6,0,0,0,4.373-4.6V4.72Z" transform="translate(-0.673 -0.673)" fill="#5fc323"/><path d="M19.756,26.243a4.459,4.459,0,1,1,8.917,0Zm-6.156,0A10.6,10.6,0,0,0,24.163,36.772a10.486,10.486,0,0,0,7.494-3.121L29.5,31.508a7.537,7.537,0,1,1,2.186-5.265h3.035a10.563,10.563,0,1,0-21.127,0h0" transform="translate(-1.939 -2.236)"/><path d="M54.247,26.121a2.838,2.838,0,0,1-1.158-.223,2.572,2.572,0,0,1-.917-.669,3.1,3.1,0,0,1-.609-1.046,4.424,4.424,0,0,1-.223-1.458,4.287,4.287,0,0,1,.223-1.44,3.284,3.284,0,0,1,.626-1.089,2.641,2.641,0,0,1,.935-.686,2.907,2.907,0,0,1,1.175-.24,2.238,2.238,0,0,1,1.072.249,2.889,2.889,0,0,1,.755.574l-.454.549a2.058,2.058,0,0,0-.6-.454,1.8,1.8,0,0,0-.763-.171,1.843,1.843,0,0,0-.857.189,1.715,1.715,0,0,0-.66.54,2.521,2.521,0,0,0-.429.857,4.433,4.433,0,0,0,0,2.255,2.933,2.933,0,0,0,.412.857,1.809,1.809,0,0,0,1.509.737,1.715,1.715,0,0,0,.857-.2,2.692,2.692,0,0,0,.695-.549l.463.523a2.975,2.975,0,0,1-.857.712,2.469,2.469,0,0,1-1.192.18Z" transform="translate(-7.32 -2.748)" fill="#231f20"/><path d="M60.392,26.4a2.444,2.444,0,0,1-.926-.18,2.384,2.384,0,0,1-.755-.506,2.444,2.444,0,0,1-.5-.806A3.155,3.155,0,0,1,58,23.815a3.061,3.061,0,0,1,.214-1.072,2.572,2.572,0,0,1,.5-.857,2.229,2.229,0,0,1,.712-.514,1.989,1.989,0,0,1,.857-.171,1.963,1.963,0,0,1,.857.163,1.6,1.6,0,0,1,.626.463,2.109,2.109,0,0,1,.377.729,3.6,3.6,0,0,1,.146.96v.472h-3.43a1.972,1.972,0,0,0,.5,1.26A1.518,1.518,0,0,0,60.5,25.7a2.169,2.169,0,0,0,.66-.1,2.383,2.383,0,0,0,.574-.283l.292.549a4.038,4.038,0,0,1-.72.36,2.572,2.572,0,0,1-.917.171ZM58.857,23.4H61.5a1.8,1.8,0,0,0-.317-1.14,1.106,1.106,0,0,0-.857-.386,1.329,1.329,0,0,0-.935.394,1.843,1.843,0,0,0-.317.489,2.109,2.109,0,0,0-.214.643Z" transform="translate(-8.27 -3.023)" fill="#231f20"/><path d="M64.33,26.264v-4.93h.694l.069.857h0a2.135,2.135,0,0,1,.617-.737,1.235,1.235,0,0,1,.78-.274,1.612,1.612,0,0,1,.532.094l-.163.737-.24-.06a1,1,0,0,0-.909.231,1.869,1.869,0,0,0-.592.857v3.13Z" transform="translate(-9.173 -3.02)" fill="#231f20"/><path d="M69.9,26.189a1.5,1.5,0,0,1-.669-.129,1.055,1.055,0,0,1-.437-.334,1.286,1.286,0,0,1-.24-.514,3.542,3.542,0,0,1-.069-.669V21.808H67.76v-.626l.772-.051.1-1.38h.694v1.38h1.329v.677H69.329v2.744a1.192,1.192,0,0,0,.171.7.66.66,0,0,0,.592.249h.283l.274-.094.163.626a4.209,4.209,0,0,1-.437.129,2.178,2.178,0,0,1-.472.026Z" transform="translate(-9.662 -2.816)" fill="#231f20"/><path d="M72.844,19.989a.549.549,0,0,1-.4-.146.48.48,0,0,1-.171-.386.489.489,0,0,1,.171-.394.643.643,0,0,1,.857,0,.523.523,0,0,1,.171.394.506.506,0,0,1-.171.386A.557.557,0,0,1,72.844,19.989Zm-.42,5.95v-4.93h.857v4.93Z" transform="translate(-10.305 -2.695)" fill="#231f20"/><path d="M75.417,25.882V21.595H74.74v-.626l.677-.051v-.78a1.878,1.878,0,0,1,.343-1.2,1.329,1.329,0,0,1,1.1-.437,2.521,2.521,0,0,1,.437.043,2.222,2.222,0,0,1,.386.12l-.189.643a1.235,1.235,0,0,0-.557-.129c-.454,0-.686.326-.686.96v.78H77.3v.677H76.249v4.287Z" transform="translate(-10.657 -2.637)" fill="#231f20"/><path d="M79.223,19.989a.557.557,0,0,1-.412-.146.506.506,0,0,1-.171-.386.523.523,0,0,1,.171-.394.652.652,0,0,1,.857,0,.5.5,0,0,1,.163.394.472.472,0,0,1-.163.386A.557.557,0,0,1,79.223,19.989Zm-.429,5.95V21.01h.857v4.93Z" transform="translate(-11.213 -2.695)" fill="#231f20"/><path d="M83.671,26.4a2.341,2.341,0,0,1-1.663-.686,2.444,2.444,0,0,1-.5-.806,3.155,3.155,0,0,1-.18-1.089,3.044,3.044,0,0,1,.163-1.072,2.572,2.572,0,0,1,.5-.857,2.324,2.324,0,0,1,.712-.514,2.126,2.126,0,0,1,.857-.171,1.963,1.963,0,0,1,.857.163,1.6,1.6,0,0,1,.626.463,2.109,2.109,0,0,1,.377.729,3.6,3.6,0,0,1,.129.96v.472h-3.43a1.972,1.972,0,0,0,.5,1.26,1.518,1.518,0,0,0,1.149.454,2.169,2.169,0,0,0,.66-.1A2.384,2.384,0,0,0,85,25.315l.292.549a4.038,4.038,0,0,1-.72.36,2.572,2.572,0,0,1-.9.171ZM82.119,23.4h2.641a1.775,1.775,0,0,0-.283-1.14,1.106,1.106,0,0,0-.857-.377,1.329,1.329,0,0,0-.935.394,1.843,1.843,0,0,0-.317.489A1.963,1.963,0,0,0,82.119,23.4Z" transform="translate(-11.597 -3.023)" fill="#231f20"/><path d="M89.23,26.037a1.809,1.809,0,0,1-1.483-.677,2.915,2.915,0,0,1-.557-1.9,3.027,3.027,0,0,1,.18-1.072,2.435,2.435,0,0,1,.514-.857,2.092,2.092,0,0,1,.677-.514,1.835,1.835,0,0,1,.857-.18,1.715,1.715,0,0,1,.737.146,3.19,3.19,0,0,1,.643.42V18.68h.857v7.228h-.694l-.069-.574h0a2.9,2.9,0,0,1-.677.489A1.6,1.6,0,0,1,89.23,26.037Zm.18-.7a1.32,1.32,0,0,0,.652-.171,2.152,2.152,0,0,0,.609-.506V22.084a2.049,2.049,0,0,0-.6-.4,1.6,1.6,0,0,0-.6-.12,1.235,1.235,0,0,0-.549.137,1.415,1.415,0,0,0-.454.386,1.792,1.792,0,0,0-.3.6,2.847,2.847,0,0,0,.24,2.161,1.166,1.166,0,0,0,1,.489Z" transform="translate(-12.431 -2.664)" fill="#231f20"/><path d="M96.64,26V19.35h1.895a5.076,5.076,0,0,1,1.02.094,2.212,2.212,0,0,1,.789.334,1.561,1.561,0,0,1,.506.6,2.041,2.041,0,0,1,.189.926,2.118,2.118,0,0,1-.18.917,1.586,1.586,0,0,1-.506.634,2.178,2.178,0,0,1-.772.386,3.593,3.593,0,0,1-1,.094h-1.1v2.632Zm.857-3.327h.995a2.049,2.049,0,0,0,1.295-.334,1.226,1.226,0,0,0,.42-1.037,1.115,1.115,0,0,0-.437-1,2.572,2.572,0,0,0-1.312-.274H97.48Z" transform="translate(-13.78 -2.759)" fill="#231f20"/><path d="M103.25,26.264v-4.93h.686l.077.857h0a2.324,2.324,0,0,1,.617-.737,1.26,1.26,0,0,1,.789-.274,1.526,1.526,0,0,1,.523.094l-.163.737-.223-.06H105.3a1.123,1.123,0,0,0-.652.257,2.058,2.058,0,0,0-.592.857V26.23Z" transform="translate(-14.722 -3.02)" fill="#231f20"/><path d="M107.754,19.989a.557.557,0,0,1-.412-.146.472.472,0,0,1-.163-.386.5.5,0,0,1,.163-.394.652.652,0,0,1,.857,0,.523.523,0,0,1,.171.394.506.506,0,0,1-.171.386.566.566,0,0,1-.446.146Zm-.42,5.95V21.01h.857v4.93Z" transform="translate(-15.283 -2.695)" fill="#231f20"/><path d="M111.215,26.29l-1.775-4.93h.857l.935,2.8c.069.24.146.489.223.729l.232.72h0c.069-.24.146-.48.223-.72s.146-.489.223-.729l.935-2.8h.857l-1.715,4.93Z" transform="translate(-15.605 -3.046)" fill="#231f20"/><path d="M116.65,26.4a1.509,1.509,0,0,1-1.029-.369,1.312,1.312,0,0,1-.412-1.037,1.372,1.372,0,0,1,.72-1.243,6,6,0,0,1,2.306-.6,2.125,2.125,0,0,0-.051-.463,1.114,1.114,0,0,0-.154-.394.926.926,0,0,0-.857-.386,1.955,1.955,0,0,0-.8.163,3.9,3.9,0,0,0-.669.369l-.326-.583a5.334,5.334,0,0,1,.857-.429,2.838,2.838,0,0,1,1.1-.206,1.535,1.535,0,0,1,1.312.549,2.5,2.5,0,0,1,.4,1.475v3.027h-.694l-.069-.583h0a4.485,4.485,0,0,1-.686.489A1.809,1.809,0,0,1,116.65,26.4Zm.24-.677a1.432,1.432,0,0,0,.677-.163,3.713,3.713,0,0,0,.669-.489V23.7a8.625,8.625,0,0,0-1.046.189,2.718,2.718,0,0,0-.677.266,1.063,1.063,0,0,0-.377.352.857.857,0,0,0-.111.429.686.686,0,0,0,.249.609A1.046,1.046,0,0,0,116.89,25.72Z" transform="translate(-16.427 -3.025)" fill="#231f20"/><path d="M123.425,26.4a2.4,2.4,0,0,1-.917-.18,1.972,1.972,0,0,1-.737-.5,2.4,2.4,0,0,1-.489-.815,3.147,3.147,0,0,1-.171-1.089,3.035,3.035,0,0,1,.189-1.106,2.41,2.41,0,0,1,.523-.815,2.126,2.126,0,0,1,.755-.506,2.229,2.229,0,0,1,.909-.171,1.715,1.715,0,0,1,.857.171,2.426,2.426,0,0,1,.609.4l-.429.549a2.058,2.058,0,0,0-.454-.317,1.269,1.269,0,0,0-.532-.12,1.543,1.543,0,0,0-.617.137,1.458,1.458,0,0,0-.489.394,1.834,1.834,0,0,0-.317.6,2.658,2.658,0,0,0,0,1.552,1.946,1.946,0,0,0,.309.592,1.337,1.337,0,0,0,.489.386,1.381,1.381,0,0,0,.617.137,1.466,1.466,0,0,0,.634-.146,2.427,2.427,0,0,0,.523-.352l.36.557a2.435,2.435,0,0,1-.737.463A2.178,2.178,0,0,1,123.425,26.4Z" transform="translate(-17.269 -3.025)" fill="#231f20"/><path d="M126.967,28.416a1.964,1.964,0,0,1-.317,0,1.354,1.354,0,0,1-.266-.077l.163-.66.18.043h.2a.857.857,0,0,0,.695-.3,2.186,2.186,0,0,0,.42-.755l.111-.36L126.17,21.36h.857l1,2.727.24.686c.086.24.163.48.24.712h.086c.069-.223.146-.463.214-.7s.129-.472.2-.695l.857-2.727h.857L128.862,26.7a4.741,4.741,0,0,1-.292.677,2.392,2.392,0,0,1-.386.54,1.784,1.784,0,0,1-.506.369A1.5,1.5,0,0,1,126.967,28.416Z" transform="translate(-17.99 -3.046)" fill="#231f20"/><path d="M51.38,39.967V34.66H52.9a3.593,3.593,0,0,1,.857.086,1.715,1.715,0,0,1,.626.257,1.286,1.286,0,0,1,.4.48,1.9,1.9,0,0,1,0,1.466,1.269,1.269,0,0,1-.394.506,1.938,1.938,0,0,1-.626.309,3.061,3.061,0,0,1-.789.1h-.857v2.1Zm.677-2.658h.789a1.715,1.715,0,0,0,1.029-.257,1,1,0,0,0,.343-.857.857.857,0,0,0-.352-.8,2.126,2.126,0,0,0-1.055-.223h-.755Z" transform="translate(-7.326 -4.942)" fill="#004676"/><path d="M57.7,40.32a1.715,1.715,0,0,1-1.269-.54,1.912,1.912,0,0,1-.394-.643,2.461,2.461,0,0,1,0-1.715,1.955,1.955,0,0,1,.394-.652,1.715,1.715,0,0,1,.583-.4,1.835,1.835,0,0,1,1.38,0,1.783,1.783,0,0,1,.574.4,2.126,2.126,0,0,1,.4.652,2.572,2.572,0,0,1,0,1.715,1.809,1.809,0,0,1-.4.643,1.784,1.784,0,0,1-.574.4,1.758,1.758,0,0,1-.695.137Zm0-.549a.969.969,0,0,0,.463-.111,1.046,1.046,0,0,0,.36-.309,1.218,1.218,0,0,0,.232-.472,2.418,2.418,0,0,0,.077-.609,2.573,2.573,0,0,0-.077-.626,1.655,1.655,0,0,0-.231-.48,1.132,1.132,0,0,0-.36-.309.969.969,0,0,0-.463-.111.935.935,0,0,0-.454.111.96.96,0,0,0-.36.309,1.655,1.655,0,0,0-.231.48,2.2,2.2,0,0,0-.086.626,2.092,2.092,0,0,0,.086.609,1.217,1.217,0,0,0,.232.472.857.857,0,0,0,.36.309.926.926,0,0,0,.454.077Z" transform="translate(-7.968 -5.166)" fill="#004676"/><path d="M61.659,40.2,60.57,36.26h.677l.549,2.272a3.073,3.073,0,0,0,.12.557c.034.18.077.352.111.54h0l.129-.549a2.7,2.7,0,0,1,.137-.549L62.9,36.26h.609l.617,2.272c.051.189.094.377.146.557s.086.352.129.54h0a2.753,2.753,0,0,1,.12-.54,2.833,2.833,0,0,1,.12-.557l.583-2.272h.634L64.806,40.2h-.78l-.566-2.109c-.051-.189-.094-.377-.137-.557s-.086-.377-.129-.574h0l-.129.574a2.294,2.294,0,0,1-.146.566l-.549,2.1Z" transform="translate(-8.637 -5.17)" fill="#004676"/><path d="M69.206,40.318a1.972,1.972,0,0,1-.737-.137,1.783,1.783,0,0,1-.6-.412,1.715,1.715,0,0,1-.4-.643,2.521,2.521,0,0,1,0-1.715,1.955,1.955,0,0,1,.394-.652,1.629,1.629,0,0,1,.557-.4,1.655,1.655,0,0,1,1.32,0,1.278,1.278,0,0,1,.5.377,1.637,1.637,0,0,1,.3.583,2.238,2.238,0,0,1,.111.755v.206a.634.634,0,0,1,0,.18H67.988a1.578,1.578,0,0,0,.4,1,1.2,1.2,0,0,0,.917.369,1.552,1.552,0,0,0,.523-.086,2.238,2.238,0,0,0,.454-.223l.24.437a3.576,3.576,0,0,1-.574.283A2.212,2.212,0,0,1,69.206,40.318Zm-1.235-2.375h2.1a1.38,1.38,0,0,0-.257-.909.857.857,0,0,0-.712-.317,1.1,1.1,0,0,0-.4.086.96.96,0,0,0-.343.24,1.4,1.4,0,0,0-.257.377,1.586,1.586,0,0,0-.129.489Z" transform="translate(-9.598 -5.165)" fill="#004676"/><path d="M72.15,40.18V36.244H72.7l.06.712h0a1.989,1.989,0,0,1,.489-.583,1.037,1.037,0,0,1,1.055-.137l-.129.574-.18-.043h-.206a.857.857,0,0,0-.523.2,1.715,1.715,0,0,0-.472.712V40.2Z" transform="translate(-10.288 -5.155)" fill="#004676"/><path d="M76.686,40.317a2.015,2.015,0,0,1-.746-.137,1.847,1.847,0,0,1-.995-1.055,2.435,2.435,0,0,1-.146-.857,2.649,2.649,0,0,1,.146-.857,2.126,2.126,0,0,1,.4-.652,1.629,1.629,0,0,1,.557-.4,1.569,1.569,0,0,1,.652-.146,1.784,1.784,0,0,1,.669.129,1.346,1.346,0,0,1,.5.377,1.638,1.638,0,0,1,.3.583,2.812,2.812,0,0,1,.1.755v.206a.635.635,0,0,1,0,.18H75.469a1.535,1.535,0,0,0,.36.943,1.2,1.2,0,0,0,.917.369,1.552,1.552,0,0,0,.523-.086,2.8,2.8,0,0,0,.454-.223l.231.437a3.575,3.575,0,0,1-.574.283A1.946,1.946,0,0,1,76.686,40.317Zm-1.243-2.375h2.1a1.372,1.372,0,0,0-.249-.909.857.857,0,0,0-.72-.317,1.055,1.055,0,0,0-.394.086.96.96,0,0,0-.343.24,1.4,1.4,0,0,0-.257.377,1.878,1.878,0,0,0-.137.489Z" transform="translate(-10.666 -5.163)" fill="#004676"/><path d="M80.92,40.02a1.466,1.466,0,0,1-1.183-.532,2.341,2.341,0,0,1-.437-1.518,2.427,2.427,0,0,1,.137-.857,2.058,2.058,0,0,1,.377-.652,1.6,1.6,0,0,1,.54-.412,1.569,1.569,0,0,1,.652-.146,1.363,1.363,0,0,1,.583.12,3.3,3.3,0,0,1,.514.334V34.13h.669v5.762h-.549l-.051-.463h0a2.427,2.427,0,0,1-.54.394A1.389,1.389,0,0,1,80.92,40.02Zm.146-.557a1.037,1.037,0,0,0,.523-.137,1.972,1.972,0,0,0,.48-.4V36.865a1.509,1.509,0,0,0-.454-.274,1.252,1.252,0,0,0-.472-.094.909.909,0,0,0-.446.111.857.857,0,0,0-.352.309,1.38,1.38,0,0,0-.249.472,2.289,2.289,0,0,0,.2,1.715.909.909,0,0,0,.8.36Z" transform="translate(-11.307 -4.867)" fill="#004676"/><path d="M88.115,40.02a1.337,1.337,0,0,1-.574-.129,2.366,2.366,0,0,1-.549-.369h0l-.06.4H86.4v-5.8h.66v2.315a3.318,3.318,0,0,1,.583-.394,1.458,1.458,0,0,1,.652-.154,1.621,1.621,0,0,1,.669.146,1.235,1.235,0,0,1,.489.4,1.921,1.921,0,0,1,.3.626,3.284,3.284,0,0,1,0,1.715,2.246,2.246,0,0,1-.377.669,1.612,1.612,0,0,1-.54.42A1.561,1.561,0,0,1,88.115,40.02Zm-.12-.557a.935.935,0,0,0,.454-.111.857.857,0,0,0,.352-.309,1.449,1.449,0,0,0,.24-.489,2.762,2.762,0,0,0,.077-.652,3.43,3.43,0,0,0-.051-.591,1.4,1.4,0,0,0-.18-.455,1.089,1.089,0,0,0-.326-.3,1.115,1.115,0,0,0-.472-.1,1.715,1.715,0,0,0-1.055.532v2.066a1.775,1.775,0,0,0,.514.317,1.3,1.3,0,0,0,.446.06Z" transform="translate(-12.32 -4.867)" fill="#004676"/><path d="M91.32,41.885h-.249a.574.574,0,0,1-.206-.06l.129-.523h.292a.729.729,0,0,0,.523-.206,1.6,1.6,0,0,0,.334-.6l.094-.292L90.66,36.26h.686l.8,2.178.189.549c.069.189.137.377.189.557h0c.06-.171.12-.36.171-.557s.111-.377.163-.549l.669-2.178h.643l-1.475,4.287a4.433,4.433,0,0,1-.24.549,1.843,1.843,0,0,1-.3.429,1.663,1.663,0,0,1-.4.292A1.217,1.217,0,0,1,91.32,41.885Z" transform="translate(-12.927 -5.17)" fill="#004676"/><path d="M69.776,6.532v7.279H67.769V6.532H65V4.68h7.571V6.532Z" transform="translate(-9.268 -0.667)"/><path d="M80.539,13.811l-1.955-2.924H77.006v2.924H75V4.68h4.176c2.161,0,3.43,1.132,3.43,3.01h0a2.829,2.829,0,0,1-1.955,2.829l2.238,3.267Zm.043-6c0-.857-.6-1.3-1.578-1.3h-2V9.079h2.032c.977,0,1.543-.523,1.543-1.295Z" transform="translate(-10.694 -0.667)"/><path d="M89.474,13.957c-2.452,0-3.944-1.372-3.944-4.064V4.68h2.006V9.824c0,1.492.746,2.255,1.972,2.255s1.963-.737,1.963-2.186V4.68h2.015V9.824C93.487,12.594,91.935,13.957,89.474,13.957Z" transform="translate(-12.196 -0.667)"/><path d="M100.035,13.927a5.822,5.822,0,0,1-3.875-1.458l1.192-1.423a4.167,4.167,0,0,0,2.718,1.106c.857,0,1.32-.326,1.32-.857h0c0-.514-.309-.772-1.835-1.166-1.818-.463-3.027-.977-3.027-2.787h0c0-1.655,1.329-2.752,3.19-2.752a5.3,5.3,0,0,1,3.43,1.166L102.11,7.265a4.356,4.356,0,0,0-2.384-.857c-.763,0-1.166.343-1.166.789h0c0,.6.386.8,1.963,1.2,1.852.489,2.9,1.149,2.9,2.744h0C103.388,12.915,102.025,13.927,100.035,13.927Z" transform="translate(-13.711 -0.654)"/><path d="M109.75,6.532v7.279h-2.006V6.532H105V4.68h7.571V6.532Z" transform="translate(-14.972 -0.667)"/><path d="M119.952,11.348h-4.87a1.612,1.612,0,0,0,1.715,1.363A2.281,2.281,0,0,0,118.511,12l1.115,1.012a3.7,3.7,0,0,1-6.516-2.306h0a3.49,3.49,0,0,1,3.335-3.635h.1c2.341,0,3.43,1.809,3.43,3.8h0a4.57,4.57,0,0,1-.026.48Zm-3.43-2.727a1.552,1.552,0,0,0-1.509,1.483H118a1.492,1.492,0,0,0-1.432-1.483Z" transform="translate(-16.128 -1.008)"/><path d="M98.9,35.577H97.19V34.72h4.4v.857H99.874v4.339H98.9Zm3.61,4.339V37.044a1.432,1.432,0,0,1,.7-.154,2.572,2.572,0,0,1,.574.069l.231-.772a2.418,2.418,0,0,0-.857-.12,2.444,2.444,0,0,0-1.578.54v3.31Zm4.681-3.721v2.889a1.963,1.963,0,0,1-.737.163c-.755,0-.917-.343-.917-.96V36.195h-.909v2.341c0,.917.523,1.5,1.715,1.5a4.013,4.013,0,0,0,1.809-.4V36.2Zm1.715,3.258a2.152,2.152,0,0,0,1.466.549c.857,0,1.44-.5,1.44-1.132,0-1.209-1.835-1.149-1.835-1.715,0-.232.231-.334.48-.334a1.449,1.449,0,0,1,.926.326l.343-.7a1.783,1.783,0,0,0-1.26-.429c-.857,0-1.449.412-1.449,1.115,0,1.209,1.835,1.14,1.835,1.715,0,.223-.223.343-.489.343a1.586,1.586,0,0,1-1.029-.412Zm3.687-.917a1.38,1.38,0,0,0,1.329,1.423,1.105,1.105,0,0,0,.24,0h.292V39.1h-.171a.686.686,0,0,1-.746-.6V37h.857v-.8h-.857V35.114h-.917Zm8.4,1.38V37.044a1.432,1.432,0,0,1,.7-.154,2.572,2.572,0,0,1,.574.069l.231-.772a2.418,2.418,0,0,0-.857-.12,2.444,2.444,0,0,0-1.578.54v3.31Zm3.627-3.8a1.929,1.929,0,0,0,0,3.858,2.066,2.066,0,0,0,1.509-.6l-.352-.652a1.715,1.715,0,0,1-1.08.472,1.123,1.123,0,0,1-1.149-1.1v-.06a1.1,1.1,0,0,1,1.055-1.14h.069a1.423,1.423,0,0,1,.952.394l.412-.626a1.843,1.843,0,0,0-1.415-.549m-6.491,2.452h-1.715l-.532,1.32h-.952l1.8-5.144h.96l1.8,5.144h-.96Zm-.266-.755-.592-1.715-.592,1.715Z" transform="translate(-13.858 -4.951)" fill="#004676"/><line x2="68.173" transform="translate(44.062 27.231)" fill="none" stroke="#231f20" stroke-miterlimit="10" stroke-width="0.5"/></svg>