<svg xmlns="http://www.w3.org/2000/svg" width="18" height="18" viewBox="0 0 18 18"><path d="M3.972,144.258l-.624,2.329-2.28.048A8.976,8.976,0,0,1,1,138.268H1l2.03.372.889,2.018a5.348,5.348,0,0,0,.05,3.6Z" transform="translate(0 -133.389)" fill="#fbbb00"/><path d="M270.235,208.176a8.957,8.957,0,0,1-3.194,8.662h0l-2.557-.13-.362-2.259a5.341,5.341,0,0,0,2.3-2.727h-4.792v-3.545h8.607Z" transform="translate(-252.392 -200.811)" fill="#518ef8"/><path d="M44.011,314.527h0a8.964,8.964,0,0,1-13.5-2.741l2.9-2.377a5.329,5.329,0,0,0,7.68,2.729Z" transform="translate(-29.441 -298.5)" fill="#28b446"/><path d="M42.3,2.063,39.4,4.44a5.329,5.329,0,0,0-7.856,2.79L28.624,4.84h0A8.963,8.963,0,0,1,42.3,2.063Z" transform="translate(-27.622)" fill="#f14336"/></svg>