<svg xmlns="http://www.w3.org/2000/svg" width="70" height="70" viewBox="0 0 70 70"><g transform="translate(-1.001 -1)"><g transform="translate(18.962 22.354)"><path d="M52.07,35.36a2.67,2.67,0,1,0,2.67,2.67,2.67,2.67,0,0,0-2.67-2.67Z" transform="translate(-12.746 -17.983)" fill="#5ed58c"/><circle cx="4.57" cy="4.57" r="4.57" transform="translate(21.449 13.576)" fill="#5ed58c"/><path d="M28.55,35.36a2.67,2.67,0,1,0,2.67,2.67,2.67,2.67,0,0,0-2.67-2.67Z" transform="translate(-15.834 -17.983)" fill="#5ed58c"/><path d="M65.646,20H20.394A3.4,3.4,0,0,0,17,23.394V65.252a3.4,3.4,0,0,0,3.394,3.394H65.646a3.4,3.4,0,0,0,3.394-3.394V23.394A3.4,3.4,0,0,0,65.646,20Zm-.769,33.532A1.131,1.131,0,0,1,63.745,52.4a7.414,7.414,0,0,0-11.618-6.115A13.437,13.437,0,0,1,56.5,56.2a1.131,1.131,0,1,1-2.263,0,11.222,11.222,0,1,0-22.445,0,1.131,1.131,0,1,1-2.263,0,13.437,13.437,0,0,1,4.378-9.916A7.415,7.415,0,0,0,22.295,52.4a1.131,1.131,0,0,1-2.263,0,9.693,9.693,0,0,1,6.1-8.988,4.933,4.933,0,1,1,7.177-.007,9.626,9.626,0,0,1,2.468,1.441A13.423,13.423,0,0,1,38.7,43.438a6.833,6.833,0,1,1,8.632,0,13.419,13.419,0,0,1,2.929,1.409,9.625,9.625,0,0,1,2.468-1.441,4.932,4.932,0,1,1,7.177.007,9.693,9.693,0,0,1,6.1,8.988,1.131,1.131,0,0,1-1.131,1.131Z" transform="translate(-17 -20)" fill="#5ed58c"/></g><path d="M35.924,1A21.463,21.463,0,0,0,17.882,34.137L2.327,49.693a4.525,4.525,0,1,0,6.4,6.4L24.282,40.536A21.485,21.485,0,1,0,35.924,1ZM7.126,54.492a2.317,2.317,0,0,1-3.2,0,2.261,2.261,0,0,1,0-3.2l9.235-9.235,3.2,3.2ZM17.961,43.658l-3.2-3.2L19.222,36a21.663,21.663,0,0,0,3.2,3.2Zm17.963-1.931A19.232,19.232,0,1,1,55.156,22.495,19.232,19.232,0,0,1,35.924,41.727Z" transform="translate(0)" fill="#060d43"/><path d="M32.527,15a5.656,5.656,0,1,0,5.656,5.656A5.656,5.656,0,0,0,32.527,15Zm0,9.05a3.394,3.394,0,1,1,3.394-3.394,3.394,3.394,0,0,1-3.394,3.394Z" transform="translate(3.327 1.8)" fill="#060d43"/><path d="M48.325,20.7H47.218A13.584,13.584,0,0,0,34.831,8.311V7.2a1.131,1.131,0,0,0-2.263,0V8.311A13.584,13.584,0,0,0,20.182,20.7H19.074a1.131,1.131,0,0,0,0,2.263h1.107A13.584,13.584,0,0,0,32.568,35.347v1.107a1.131,1.131,0,0,0,2.263,0V35.347A13.584,13.584,0,0,0,47.218,22.96h1.107a1.131,1.131,0,1,0,0-2.263ZM34.831,33.084V32.01a1.131,1.131,0,1,0-2.263,0v1.074A11.332,11.332,0,0,1,22.444,22.96h1.074a1.131,1.131,0,1,0,0-2.263H22.444A11.332,11.332,0,0,1,32.568,10.573v1.074a1.131,1.131,0,1,0,2.263,0V10.573A11.332,11.332,0,0,1,44.955,20.7H43.881a1.131,1.131,0,1,0,0,2.263h1.074A11.332,11.332,0,0,1,34.831,33.084Z" transform="translate(2.155 0.666)" fill="#060d43"/></g></svg>