<svg id="ab62737d-7838-4b23-8d1a-bfafed8ed699" data-name="Layer 1" xmlns="http://www.w3.org/2000/svg" viewBox="0 0 512 512"><defs><style>.ecfce1b5-8316-4614-88a1-cc03ceeb42fa{fill:#b4b4b4;}</style></defs><g id="b11e6e4d-26c4-49fa-8096-6d7a5578450e" data-name=" 086-vision"><g id="f3804219-e458-4f90-95a7-68c3ca070299" data-name="Group 19501"><g id="a0f206db-f768-4d6a-84e8-89a97f0e9938" data-name="Group 19500"><path id="f61645c5-33f3-46e0-a82a-0d74d9d9723c" data-name="Path 37755" class="ecfce1b5-8316-4614-88a1-cc03ceeb42fa" d="M509.06,246.15C431.46,106.39,255.25,56,115.49,133.6A289.59,289.59,0,0,0,2.94,246.15a20,20,0,0,0,0,19.7C80.54,405.61,256.75,456,396.51,378.4A289.59,289.59,0,0,0,509.06,265.85,20,20,0,0,0,509.06,246.15ZM255.94,374.87A250.75,250.75,0,0,1,43.5,256c72-117.32,225.51-154,342.84-82a249.32,249.32,0,0,1,82,82A250.75,250.75,0,0,1,255.94,374.87Z"/></g></g><g id="b754bc94-ab76-456d-a0e4-a568e724ff78" data-name="Group 19503"><g id="f2108407-5105-4454-9272-979691d6e261" data-name="Group 19502"><path id="a599b013-60d1-4943-ab5f-2363a8b3760f" data-name="Path 37756" class="ecfce1b5-8316-4614-88a1-cc03ceeb42fa" d="M256,186.11A69.89,69.89,0,1,0,325.87,256h0A70,70,0,0,0,256,186.11ZM256,286a30,30,0,1,1,30-30h0A30,30,0,0,1,256,286Z"/></g></g></g></svg>