<svg xmlns="http://www.w3.org/2000/svg" width="70" height="66" viewBox="0 0 70 66"><g transform="translate(-1 -3.002)"><path d="M63.27,15H40.426A3.43,3.43,0,0,0,37,18.425V54.974A3.43,3.43,0,0,0,40.426,58.4h6.7l-.982,7.853a1.143,1.143,0,0,0,1.993.894L55.793,58.4H63.27A3.43,3.43,0,0,0,66.7,54.974V18.425A3.43,3.43,0,0,0,63.27,15ZM60.985,51.547H42.711a1.142,1.142,0,0,1,0-2.284H60.985a1.142,1.142,0,1,1,0,2.284Zm0-9.137H42.711a1.142,1.142,0,1,1,0-2.284H60.985a1.142,1.142,0,1,1,0,2.284Zm0-9.137H42.711a1.142,1.142,0,0,1,0-2.284H60.985a1.142,1.142,0,0,1,0,2.284Zm0-9.137H42.711a1.142,1.142,0,0,1,0-2.284H60.985a1.142,1.142,0,1,1,0,2.284Z" transform="translate(4.304 1.466)" fill="#5ed58c"/><path d="M34.7,23H16.426A3.43,3.43,0,0,0,13,26.425V53.837a3.43,3.43,0,0,0,3.426,3.426h5.192l7.654,8.747a1.143,1.143,0,0,0,1.993-.894l-.982-7.853H34.7a3.43,3.43,0,0,0,3.426-3.426V26.425A3.43,3.43,0,0,0,34.7,23ZM32.417,50.41H18.711a1.142,1.142,0,0,1,0-2.284H32.417a1.142,1.142,0,0,1,0,2.284Zm0-9.137H18.711a1.142,1.142,0,0,1,0-2.284H32.417a1.142,1.142,0,0,1,0,2.284Zm0-9.137H18.711a1.142,1.142,0,0,1,0-2.284H32.417a1.142,1.142,0,0,1,0,2.284Z" transform="translate(1.462 2.603)" fill="#5ed58c"/><path d="M58.108,22.418a8,8,0,0,0-6.853-7.9V4.143a1.143,1.143,0,0,0-1.767-.956A53.688,53.688,0,0,1,21.327,13.212,3.423,3.423,0,0,0,18.132,11H11.279A3.421,3.421,0,0,0,8.063,13.28H5.569A4.574,4.574,0,0,0,1,17.849v9.137a4.573,4.573,0,0,0,4.569,4.569H8.063a3.419,3.419,0,0,0,2.273,2.136l2.848,12.34a3.41,3.41,0,0,0,3.338,2.657h2.165a3.426,3.426,0,0,0,3.338-4.2L19.5,33.55a3.435,3.435,0,0,0,1.826-1.927A55.7,55.7,0,0,1,49.488,41.648a1.143,1.143,0,0,0,1.767-.956V30.322a8,8,0,0,0,6.853-7.9ZM3.284,26.986V17.849a2.287,2.287,0,0,1,2.284-2.284H7.853V29.271H5.569a2.287,2.287,0,0,1-2.284-2.284Zm6.853-12.564a1.143,1.143,0,0,1,1.142-1.142h6.853a1.143,1.143,0,0,1,1.142,1.142v15.99a1.143,1.143,0,0,1-1.142,1.142H11.279a1.143,1.143,0,0,1-1.142-1.142ZM18.688,46.4H16.523a1.134,1.134,0,0,1-1.112-.886l-2.7-11.678h4.508L19.8,45a1.141,1.141,0,0,1-1.112,1.4Zm2.871-30.892a54.77,54.77,0,0,0,20.559-5.33V34.655a54.77,54.77,0,0,0-20.559-5.33ZM48.97,38.581c-.5-.311-1.691-1.176-4.569-2.733V8.988c2.861-1.548,4.1-2.444,4.569-2.733Zm2.284-10.567V16.822a5.711,5.711,0,0,1,0,11.192Z" transform="translate(0 0)" fill="#060d43"/></g></svg>