<svg xmlns="http://www.w3.org/2000/svg" width="84" height="84" viewBox="0 0 84 84"><g transform="translate(-1 -0.992)"><path d="M77.368,60.293H59.722v-9.5a1.357,1.357,0,0,0-1.357-1.357H51.578V41.289h19a1.358,1.358,0,0,0,.96-2.317l-5.827-5.827,5.827-5.827A1.358,1.358,0,0,0,70.581,25H47.505a1.357,1.357,0,0,0-1.357,1.357V49.433H39.361A1.357,1.357,0,0,0,38,50.791V63.007H20.357A1.357,1.357,0,0,0,19,64.365V75.224a1.357,1.357,0,0,0,1.357,1.357H77.368a1.357,1.357,0,0,0,1.357-1.357V61.65A1.357,1.357,0,0,0,77.368,60.293ZM31.217,73.867H23.072a1.357,1.357,0,0,1-1.357-1.357V68.437a1.357,1.357,0,1,1,2.715,0v2.715h6.787a1.357,1.357,0,0,1,0,2.715Z" transform="translate(6.274 8.411)" fill="#5ed58c"/><path d="M61.833,40.179a9.5,9.5,0,1,0-10.359,0,12.277,12.277,0,0,0-4.322,3.386v-3.2a12.222,12.222,0,0,0-7.037-11.048,9.5,9.5,0,1,0-10.359,0,12.278,12.278,0,0,0-4.322,3.387v-3.2A12.222,12.222,0,0,0,18.4,18.46a9.5,9.5,0,1,0-10.359,0A12.222,12.222,0,0,0,1,29.508V64.8a4.077,4.077,0,0,0,4.072,4.072H64.8A4.077,4.077,0,0,0,68.87,64.8V51.227a12.221,12.221,0,0,0-7.037-11.048ZM49.867,32.223a6.787,6.787,0,1,1,6.787,6.787,6.787,6.787,0,0,1-6.787-6.787Zm6.787,9.5a9.513,9.513,0,0,1,9.5,9.5v1.357h-19V51.227a9.513,9.513,0,0,1,9.5-9.5ZM28.148,21.364a6.787,6.787,0,1,1,6.787,6.787,6.787,6.787,0,0,1-6.787-6.787Zm6.787,9.5a9.513,9.513,0,0,1,9.5,9.5v1.357h-19V40.367a9.513,9.513,0,0,1,9.5-9.5ZM6.43,10.5a6.787,6.787,0,1,1,6.787,6.787A6.787,6.787,0,0,1,6.43,10.5Zm-2.715,19a9.5,9.5,0,0,1,19,0v1.357h-19ZM66.155,64.8A1.359,1.359,0,0,1,64.8,66.158H5.072A1.359,1.359,0,0,1,3.715,64.8V33.58h19v9.5a1.357,1.357,0,0,0,1.357,1.357H44.437v9.5A1.357,1.357,0,0,0,45.794,55.3H66.155Z" transform="translate(0)" fill="#060d43"/><path d="M24,49.289H7.715V34.357a1.357,1.357,0,1,0-2.715,0V50.646A1.357,1.357,0,0,0,6.357,52H24a1.357,1.357,0,0,0,0-2.715Z" transform="translate(1.43 11.327)" fill="#151a6a"/></g></svg>