<svg xmlns="http://www.w3.org/2000/svg" width="32" height="32.001" viewBox="0 0 32 32.001"><g transform="translate(-1674 -12889)"><path d="M711.871,365.061a16,16,0,1,1,16-16A16.018,16.018,0,0,1,711.871,365.061Z" transform="translate(978.129 12555.939)" fill="#060d43"/><path d="M719.753,349.634v-4.1a.418.418,0,0,0-.373-.452h-2a.4.4,0,0,0-.372.4c-.081.611-1.142,3.678-2.491,4.385a1.79,1.79,0,0,1-.807.232.421.421,0,0,0-.357.45v3.123a.419.419,0,0,0,.374.452h1.216a.42.42,0,0,1,.374.451c.029,5.381.03,8.649.032,8.67.253,2.457,1.321,3.931,3.212,4.487a7.629,7.629,0,0,0,2.419.371,9.536,9.536,0,0,0,2.889-.568.451.451,0,0,0,.265-.434V363.29c0-.3-.241-.518-.48-.434-.423.151-.816.287-1.174.421a2.031,2.031,0,0,1-2.391-.628,1.657,1.657,0,0,1-.183-.411,12.314,12.314,0,0,1-.148-1.814v-5.853a.419.419,0,0,1,.374-.452h3.506a.418.418,0,0,0,.373-.452v-3.13a.419.419,0,0,0-.373-.452h-3.509A.418.418,0,0,1,719.753,349.634Z" transform="translate(970.828 12548.687)" fill="#fff"/></g></svg>