<svg xmlns="http://www.w3.org/2000/svg" width="32" height="31.999" viewBox="0 0 32 31.999"><g transform="translate(-1498 -12889)"><path d="M548.384,234.947a16,16,0,1,1,16-16A16.018,16.018,0,0,1,548.384,234.947Z" transform="translate(965.616 12686.053)" fill="#060d43"/><path d="M566.579,219.493a9.177,9.177,0,0,1-2.323.688c.374-.065.926-.768,1.146-1.052a4.493,4.493,0,0,0,.773-1.461c.02-.042.035-.094-.005-.126a.126.126,0,0,0-.123.01,11.6,11.6,0,0,1-2.759,1.1.179.179,0,0,1-.19-.052,2.273,2.273,0,0,0-.241-.256,4.854,4.854,0,0,0-1.337-.849,4.506,4.506,0,0,0-2.05-.343,4.766,4.766,0,0,0-1.944.57,5.064,5.064,0,0,0-2.506,3.276,5.46,5.46,0,0,0-.049,2.055c.014.115.005.13-.1.115a14.561,14.561,0,0,1-9.481-5.006c-.111-.13-.171-.13-.262.011a5.125,5.125,0,0,0,.82,5.892c.186.182.377.365.583.532a4.679,4.679,0,0,1-1.83-.532c-.111-.073-.166-.031-.176.1a3.077,3.077,0,0,0,.03.564,5.018,5.018,0,0,0,3,4.02,2.743,2.743,0,0,0,.608.193,5.226,5.226,0,0,1-1.794.058c-.131-.026-.181.042-.131.172a5.09,5.09,0,0,0,3.77,3.274c.171.031.342.031.513.073-.01.016-.02.016-.03.031-.423.67-1.891,1.167-2.574,1.416a8.918,8.918,0,0,1-3.911.519c-.21-.032-.254-.03-.312,0s-.007.089.061.146c.266.183.538.345.814.5a12.652,12.652,0,0,0,2.614,1.085,13.563,13.563,0,0,0,13.516-3.278c2.77-2.855,3.741-6.792,3.741-10.732,0-.154.176-.24.28-.321a9.308,9.308,0,0,0,1.831-1.985.591.591,0,0,0,.113-.38v-.021C566.665,219.43,566.673,219.45,566.579,219.493Z" transform="translate(958.793 12678.039)" fill="#fff"/><g transform="translate(1509.586 12913.863)"><path d="M553.118,243.228Z" transform="translate(-553.118 -243.228)" fill="#fff" fill-rule="evenodd"/></g><g transform="translate(1509.39 12913.863)"><path d="M553.02,243.228c-.025,0-.313,0,0,0Z" transform="translate(-552.875 -243.228)" fill="#fff" fill-rule="evenodd"/></g><g transform="translate(1510.287 12913.868)"><path d="M554.189,243.247c0-.032.336,0,0,0C554.189,243.23,554.23,243.247,554.189,243.247Z" transform="translate(-554.189 -243.232)" fill="#fff" fill-rule="evenodd"/></g><g transform="translate(1517.874 12896.087)"><path d="M565.387,217.177a.068.068,0,0,1-.079,0Z" transform="translate(-565.308 -217.177)" fill="#fff" fill-rule="evenodd"/></g></g></svg>