<svg xmlns="http://www.w3.org/2000/svg" width="45.554" height="29.846" viewBox="0 0 45.554 29.846"><path d="M42.142,88.276H3.412A3.412,3.412,0,0,0,0,91.688V114.71a3.412,3.412,0,0,0,3.412,3.412H42.142a3.412,3.412,0,0,0,3.412-3.412V91.688A3.412,3.412,0,0,0,42.142,88.276Z" transform="translate(0 -88.276)" fill="#41479b"/><path d="M45.507,91.123a3.412,3.412,0,0,0-3.364-2.848h-.888L26.7,97.808V88.275H18.85v9.533L4.3,88.275H3.412A3.412,3.412,0,0,0,.047,91.123l12.436,8.148H0v7.854H12.484L.047,115.273a3.412,3.412,0,0,0,3.364,2.848H4.3l14.551-9.533v9.533H26.7v-9.533l14.551,9.533h.888a3.412,3.412,0,0,0,3.364-2.848L33.07,107.125H45.554V99.271H33.07Z" transform="translate(0 -88.275)" fill="#f5f5f5"/><g transform="translate(0 0)"><path d="M25.133,88.276H20.421v12.567H0v4.713H20.421v12.567h4.713V105.555H45.554v-4.713H25.133Z" transform="translate(0 -88.276)" fill="#ff4b55"/><path d="M10.609,310.914l16.6-10.776H24.325l-15.1,9.8A3.416,3.416,0,0,0,10.609,310.914Z" transform="translate(-8.403 -281.288)" fill="#ff4b55"/><path d="M316.845,300.138H313.96l16.079,10.437a3.427,3.427,0,0,0,1.093-1.163Z" transform="translate(-286.026 -281.288)" fill="#ff4b55"/><path d="M4.049,97.055l14.034,9.11h2.885L5.066,95.842A3.425,3.425,0,0,0,4.049,97.055Z" transform="translate(-3.689 -95.169)" fill="#ff4b55"/><path d="M303.023,101.414l15.128-9.82a3.416,3.416,0,0,0-1.4-.966l-16.617,10.787Z" transform="translate(-273.434 -90.418)" fill="#ff4b55"/></g></svg>