<svg xmlns="http://www.w3.org/2000/svg" width="84" height="84" viewBox="0 0 84 84"><g transform="translate(-1 -1)"><path d="M74.906,19.23l-3.348,2.232L68.209,19.23a1.366,1.366,0,0,0-1.519,0l-3.348,2.232L59.993,19.23a1.366,1.366,0,0,0-1.519,0l-3.348,2.232L51.777,19.23a1.366,1.366,0,0,0-1.519,0L46.91,21.462,43.561,19.23a1.366,1.366,0,0,0-1.519,0l-3.348,2.232L35.345,19.23a1.366,1.366,0,0,0-1.519,0l-3.348,2.232L27.129,19.23A1.37,1.37,0,0,0,25,20.37V75.143a4.113,4.113,0,0,0,4.108,4.108H72.927a4.113,4.113,0,0,0,4.108-4.108V20.37a1.37,1.37,0,0,0-2.129-1.139ZM67.45,71.035H34.585a1.369,1.369,0,0,1,0-2.739H67.45a1.369,1.369,0,0,1,0,2.739Zm0-8.216H34.585a1.369,1.369,0,0,1,0-2.739H67.45a1.369,1.369,0,0,1,0,2.739Zm0-8.216H34.585a1.369,1.369,0,0,1,0-2.739H67.45a1.369,1.369,0,1,1,0,2.739Zm0-8.216H34.585a1.369,1.369,0,1,1,0-2.739H67.45a1.369,1.369,0,0,1,0,2.739Zm0-8.216H34.585a1.369,1.369,0,0,1,0-2.739H67.45a1.369,1.369,0,0,1,0,2.739Z" transform="translate(7.965 5.749)" fill="#5ed58c"/><g transform="translate(1 1)"><path d="M62.786,15.662a4.1,4.1,0,0,0-5.643-.135V5.108A4.113,4.113,0,0,0,53.035,1H5.108A4.113,4.113,0,0,0,1,5.108V65.359a4.113,4.113,0,0,0,4.108,4.108H53.035a4.113,4.113,0,0,0,4.108-4.108V35.8l9.987-9.987a4.111,4.111,0,0,0,0-5.809Zm-7.979,18.6,0,0L30.559,58.513h-6.28v-6.28L53.72,22.792,60,29.072ZM5.108,3.739H53.035A1.37,1.37,0,0,1,54.4,5.108V9.216H3.739V5.108A1.371,1.371,0,0,1,5.108,3.739ZM54.4,65.359a1.37,1.37,0,0,1-1.369,1.369H5.108a1.371,1.371,0,0,1-1.369-1.369v-53.4H54.4v6.28L21.941,50.7a1.368,1.368,0,0,0-.4.968v8.216a1.369,1.369,0,0,0,1.369,1.369h8.216a1.37,1.37,0,0,0,.968-.4L54.4,38.539ZM65.193,23.878l-3.258,3.258-6.28-6.28,1.084-1.084,0,0,2.17-2.17a1.369,1.369,0,0,1,1.936,0l4.343,4.343a1.371,1.371,0,0,1,0,1.936Z" transform="translate(-1 -1)" fill="#060d43"/><path d="M8.369,15.739H45.342a1.369,1.369,0,0,0,0-2.739H8.369a1.369,1.369,0,0,0,0,2.739Z" transform="translate(1.216 3.432)" fill="#060d43"/><path d="M8.369,21.739H37.126a1.369,1.369,0,1,0,0-2.739H8.369a1.369,1.369,0,1,0,0,2.739Z" transform="translate(1.216 5.648)" fill="#060d43"/><path d="M8.369,27.739H28.91a1.369,1.369,0,0,0,0-2.739H8.369a1.369,1.369,0,1,0,0,2.739Z" transform="translate(1.216 7.864)" fill="#060d43"/><path d="M22.063,32.369A1.369,1.369,0,0,0,20.693,31H8.369a1.369,1.369,0,1,0,0,2.739H20.693a1.369,1.369,0,0,0,1.369-1.369Z" transform="translate(1.216 10.08)" fill="#060d43"/></g></g></svg>