<svg xmlns="http://www.w3.org/2000/svg" width="44.798" height="30.895" viewBox="0 0 44.798 30.895"><path d="M44.8,107.7a2.648,2.648,0,0,1-2.648,2.648H2.648A2.648,2.648,0,0,1,0,107.7V82.1a2.648,2.648,0,0,1,2.648-2.648h39.5A2.648,2.648,0,0,1,44.8,82.1v25.6Z" transform="translate(0 -79.451)" fill="#fff"/><path d="M37.776,195.708l-1.052-5.046a1.255,1.255,0,0,0-1.357-.93H30.545l-.043.231C34.258,190.873,36.743,193.07,37.776,195.708Z" transform="translate(-27.833 -180.083)" fill="#f79f1a"/><g transform="translate(0 0)"><path d="M188.561,190.892h-3.116L183.5,202.313h3.111Z" transform="translate(-167.444 -181.141)" fill="#059bbf"/><path d="M71.918,202.382l4.9-11.4h-3.3l-3.049,7.79-.325-1.176a12.185,12.185,0,0,0-4.311-4.733l2.787,9.525Z" transform="translate(-60.076 -181.223)" fill="#059bbf"/><path d="M250.243,196.542c.012-1.3-.821-2.286-2.615-3.1-1.09-.528-1.755-.879-1.747-1.415,0-.473.563-.981,1.782-.981a5.747,5.747,0,0,1,2.329.438l.282.129.422-2.474a8.07,8.07,0,0,0-2.791-.477c-3.076,0-5.241,1.548-5.261,3.768-.02,1.642,1.548,2.556,2.728,3.1,1.212.558,1.618.915,1.61,1.415-.008.765-.965,1.114-1.861,1.114a6.531,6.531,0,0,1-2.932-.6l-.4-.183-.437,2.559a9.821,9.821,0,0,0,3.466.607C248.094,200.443,250.22,198.915,250.243,196.542Z" transform="translate(-220.238 -179.104)" fill="#059bbf"/><path d="M344.309,200.724l3.987,0c.094.4.379,1.712.379,1.712h2.888l-2.521-11.413h-2.4a1.549,1.549,0,0,0-1.63.946l-4.624,10.467h3.272S344.188,201.033,344.309,200.724Zm2.134-5.531c-.015.031.258-.66.414-1.09l.211.985s.594,2.728.719,3.3H345.2C345.462,197.73,346.443,195.193,346.443,195.193Z" transform="translate(-310.603 -181.265)" fill="#059bbf"/><path d="M42.15,79.451H2.648A2.648,2.648,0,0,0,0,82.1v2.748H44.8V82.1A2.648,2.648,0,0,0,42.15,79.451Z" transform="translate(0 -79.451)" fill="#059bbf"/></g><path d="M42.15,376.268H2.648A2.648,2.648,0,0,1,0,373.619v-2.748H44.8v2.748A2.648,2.648,0,0,1,42.15,376.268Z" transform="translate(0 -345.373)" fill="#f79f1a"/><path d="M1.883,107.7V82.1a2.648,2.648,0,0,1,2.648-2.648H2.648A2.648,2.648,0,0,0,0,82.1v25.6a2.648,2.648,0,0,0,2.648,2.648H4.531A2.648,2.648,0,0,1,1.883,107.7Z" transform="translate(0 -79.451)" fill="#202121" opacity="0.15"/></svg>